<?xml version="1.0" encoding="utf-8" standalone="no"?>
<!DOCTYPE svg PUBLIC "-//W3C//DTD SVG 1.1//EN"
  "http://www.w3.org/Graphics/SVG/1.1/DTD/svg11.dtd">
<svg xmlns:xlink="http://www.w3.org/1999/xlink" width="411.285625pt" height="325.986375pt" viewBox="0 0 411.285625 325.986375" xmlns="http://www.w3.org/2000/svg" version="1.1">
 <metadata>
  <rdf:RDF xmlns:dc="http://purl.org/dc/elements/1.1/" xmlns:cc="http://creativecommons.org/ns#" xmlns:rdf="http://www.w3.org/1999/02/22-rdf-syntax-ns#">
   <cc:Work>
    <dc:type rdf:resource="http://purl.org/dc/dcmitype/StillImage"/>
    <dc:date>2024-11-08T22:52:52.210975</dc:date>
    <dc:format>image/svg+xml</dc:format>
    <dc:creator>
     <cc:Agent>
      <dc:title>Matplotlib v3.9.2, https://matplotlib.org/</dc:title>
     </cc:Agent>
    </dc:creator>
   </cc:Work>
  </rdf:RDF>
 </metadata>
 <defs>
  <style type="text/css">*{stroke-linejoin: round; stroke-linecap: butt}</style>
 </defs>
 <g id="figure_1">
  <g id="patch_1">
   <path d="M 0 325.986375 
L 411.285625 325.986375 
L 411.285625 0 
L 0 0 
z
" style="fill: #ffffff"/>
  </g>
  <g id="axes_1">
   <g id="patch_2">
    <path d="M 46.965625 288.430125 
L 209.292898 288.430125 
L 209.292898 22.318125 
L 46.965625 22.318125 
z
" style="fill: #ffffff"/>
   </g>
   <g id="matplotlib.axis_1">
    <g id="xtick_1">
     <g id="line2d_1">
      <defs>
       <path id="mbc3e499f34" d="M 0 0 
L 0 3.5 
" style="stroke: #000000; stroke-width: 0.8"/>
      </defs>
      <g>
       <use xlink:href="#mbc3e499f34" x="74.02017" y="288.430125" style="stroke: #000000; stroke-width: 0.8"/>
      </g>
     </g>
     <g id="text_1">
      <!-- −2 -->
      <g transform="translate(66.649077 303.028562) scale(0.1 -0.1)">
       <defs>
        <path id="DejaVuSans-2212" d="M 678 2272 
L 4684 2272 
L 4684 1741 
L 678 1741 
L 678 2272 
z
" transform="scale(0.015625)"/>
        <path id="DejaVuSans-32" d="M 1228 531 
L 3431 531 
L 3431 0 
L 469 0 
L 469 531 
Q 828 903 1448 1529 
Q 2069 2156 2228 2338 
Q 2531 2678 2651 2914 
Q 2772 3150 2772 3378 
Q 2772 3750 2511 3984 
Q 2250 4219 1831 4219 
Q 1534 4219 1204 4116 
Q 875 4013 500 3803 
L 500 4441 
Q 881 4594 1212 4672 
Q 1544 4750 1819 4750 
Q 2544 4750 2975 4387 
Q 3406 4025 3406 3419 
Q 3406 3131 3298 2873 
Q 3191 2616 2906 2266 
Q 2828 2175 2409 1742 
Q 1991 1309 1228 531 
z
" transform="scale(0.015625)"/>
       </defs>
       <use xlink:href="#DejaVuSans-2212"/>
       <use xlink:href="#DejaVuSans-32" x="83.789062"/>
      </g>
     </g>
    </g>
    <g id="xtick_2">
     <g id="line2d_2">
      <g>
       <use xlink:href="#mbc3e499f34" x="128.129261" y="288.430125" style="stroke: #000000; stroke-width: 0.8"/>
      </g>
     </g>
     <g id="text_2">
      <!-- 0 -->
      <g transform="translate(124.948011 303.028562) scale(0.1 -0.1)">
       <defs>
        <path id="DejaVuSans-30" d="M 2034 4250 
Q 1547 4250 1301 3770 
Q 1056 3291 1056 2328 
Q 1056 1369 1301 889 
Q 1547 409 2034 409 
Q 2525 409 2770 889 
Q 3016 1369 3016 2328 
Q 3016 3291 2770 3770 
Q 2525 4250 2034 4250 
z
M 2034 4750 
Q 2819 4750 3233 4129 
Q 3647 3509 3647 2328 
Q 3647 1150 3233 529 
Q 2819 -91 2034 -91 
Q 1250 -91 836 529 
Q 422 1150 422 2328 
Q 422 3509 836 4129 
Q 1250 4750 2034 4750 
z
" transform="scale(0.015625)"/>
       </defs>
       <use xlink:href="#DejaVuSans-30"/>
      </g>
     </g>
    </g>
    <g id="xtick_3">
     <g id="line2d_3">
      <g>
       <use xlink:href="#mbc3e499f34" x="182.238352" y="288.430125" style="stroke: #000000; stroke-width: 0.8"/>
      </g>
     </g>
     <g id="text_3">
      <!-- 2 -->
      <g transform="translate(179.057102 303.028562) scale(0.1 -0.1)">
       <use xlink:href="#DejaVuSans-32"/>
      </g>
     </g>
    </g>
    <g id="text_4">
     <!-- Supersaturation (%) -->
     <g transform="translate(77.744105 316.706687) scale(0.1 -0.1)">
      <defs>
       <path id="DejaVuSans-53" d="M 3425 4513 
L 3425 3897 
Q 3066 4069 2747 4153 
Q 2428 4238 2131 4238 
Q 1616 4238 1336 4038 
Q 1056 3838 1056 3469 
Q 1056 3159 1242 3001 
Q 1428 2844 1947 2747 
L 2328 2669 
Q 3034 2534 3370 2195 
Q 3706 1856 3706 1288 
Q 3706 609 3251 259 
Q 2797 -91 1919 -91 
Q 1588 -91 1214 -16 
Q 841 59 441 206 
L 441 856 
Q 825 641 1194 531 
Q 1563 422 1919 422 
Q 2459 422 2753 634 
Q 3047 847 3047 1241 
Q 3047 1584 2836 1778 
Q 2625 1972 2144 2069 
L 1759 2144 
Q 1053 2284 737 2584 
Q 422 2884 422 3419 
Q 422 4038 858 4394 
Q 1294 4750 2059 4750 
Q 2388 4750 2728 4690 
Q 3069 4631 3425 4513 
z
" transform="scale(0.015625)"/>
       <path id="DejaVuSans-75" d="M 544 1381 
L 544 3500 
L 1119 3500 
L 1119 1403 
Q 1119 906 1312 657 
Q 1506 409 1894 409 
Q 2359 409 2629 706 
Q 2900 1003 2900 1516 
L 2900 3500 
L 3475 3500 
L 3475 0 
L 2900 0 
L 2900 538 
Q 2691 219 2414 64 
Q 2138 -91 1772 -91 
Q 1169 -91 856 284 
Q 544 659 544 1381 
z
M 1991 3584 
L 1991 3584 
z
" transform="scale(0.015625)"/>
       <path id="DejaVuSans-70" d="M 1159 525 
L 1159 -1331 
L 581 -1331 
L 581 3500 
L 1159 3500 
L 1159 2969 
Q 1341 3281 1617 3432 
Q 1894 3584 2278 3584 
Q 2916 3584 3314 3078 
Q 3713 2572 3713 1747 
Q 3713 922 3314 415 
Q 2916 -91 2278 -91 
Q 1894 -91 1617 61 
Q 1341 213 1159 525 
z
M 3116 1747 
Q 3116 2381 2855 2742 
Q 2594 3103 2138 3103 
Q 1681 3103 1420 2742 
Q 1159 2381 1159 1747 
Q 1159 1113 1420 752 
Q 1681 391 2138 391 
Q 2594 391 2855 752 
Q 3116 1113 3116 1747 
z
" transform="scale(0.015625)"/>
       <path id="DejaVuSans-65" d="M 3597 1894 
L 3597 1613 
L 953 1613 
Q 991 1019 1311 708 
Q 1631 397 2203 397 
Q 2534 397 2845 478 
Q 3156 559 3463 722 
L 3463 178 
Q 3153 47 2828 -22 
Q 2503 -91 2169 -91 
Q 1331 -91 842 396 
Q 353 884 353 1716 
Q 353 2575 817 3079 
Q 1281 3584 2069 3584 
Q 2775 3584 3186 3129 
Q 3597 2675 3597 1894 
z
M 3022 2063 
Q 3016 2534 2758 2815 
Q 2500 3097 2075 3097 
Q 1594 3097 1305 2825 
Q 1016 2553 972 2059 
L 3022 2063 
z
" transform="scale(0.015625)"/>
       <path id="DejaVuSans-72" d="M 2631 2963 
Q 2534 3019 2420 3045 
Q 2306 3072 2169 3072 
Q 1681 3072 1420 2755 
Q 1159 2438 1159 1844 
L 1159 0 
L 581 0 
L 581 3500 
L 1159 3500 
L 1159 2956 
Q 1341 3275 1631 3429 
Q 1922 3584 2338 3584 
Q 2397 3584 2469 3576 
Q 2541 3569 2628 3553 
L 2631 2963 
z
" transform="scale(0.015625)"/>
       <path id="DejaVuSans-73" d="M 2834 3397 
L 2834 2853 
Q 2591 2978 2328 3040 
Q 2066 3103 1784 3103 
Q 1356 3103 1142 2972 
Q 928 2841 928 2578 
Q 928 2378 1081 2264 
Q 1234 2150 1697 2047 
L 1894 2003 
Q 2506 1872 2764 1633 
Q 3022 1394 3022 966 
Q 3022 478 2636 193 
Q 2250 -91 1575 -91 
Q 1294 -91 989 -36 
Q 684 19 347 128 
L 347 722 
Q 666 556 975 473 
Q 1284 391 1588 391 
Q 1994 391 2212 530 
Q 2431 669 2431 922 
Q 2431 1156 2273 1281 
Q 2116 1406 1581 1522 
L 1381 1569 
Q 847 1681 609 1914 
Q 372 2147 372 2553 
Q 372 3047 722 3315 
Q 1072 3584 1716 3584 
Q 2034 3584 2315 3537 
Q 2597 3491 2834 3397 
z
" transform="scale(0.015625)"/>
       <path id="DejaVuSans-61" d="M 2194 1759 
Q 1497 1759 1228 1600 
Q 959 1441 959 1056 
Q 959 750 1161 570 
Q 1363 391 1709 391 
Q 2188 391 2477 730 
Q 2766 1069 2766 1631 
L 2766 1759 
L 2194 1759 
z
M 3341 1997 
L 3341 0 
L 2766 0 
L 2766 531 
Q 2569 213 2275 61 
Q 1981 -91 1556 -91 
Q 1019 -91 701 211 
Q 384 513 384 1019 
Q 384 1609 779 1909 
Q 1175 2209 1959 2209 
L 2766 2209 
L 2766 2266 
Q 2766 2663 2505 2880 
Q 2244 3097 1772 3097 
Q 1472 3097 1187 3025 
Q 903 2953 641 2809 
L 641 3341 
Q 956 3463 1253 3523 
Q 1550 3584 1831 3584 
Q 2591 3584 2966 3190 
Q 3341 2797 3341 1997 
z
" transform="scale(0.015625)"/>
       <path id="DejaVuSans-74" d="M 1172 4494 
L 1172 3500 
L 2356 3500 
L 2356 3053 
L 1172 3053 
L 1172 1153 
Q 1172 725 1289 603 
Q 1406 481 1766 481 
L 2356 481 
L 2356 0 
L 1766 0 
Q 1100 0 847 248 
Q 594 497 594 1153 
L 594 3053 
L 172 3053 
L 172 3500 
L 594 3500 
L 594 4494 
L 1172 4494 
z
" transform="scale(0.015625)"/>
       <path id="DejaVuSans-69" d="M 603 3500 
L 1178 3500 
L 1178 0 
L 603 0 
L 603 3500 
z
M 603 4863 
L 1178 4863 
L 1178 4134 
L 603 4134 
L 603 4863 
z
" transform="scale(0.015625)"/>
       <path id="DejaVuSans-6f" d="M 1959 3097 
Q 1497 3097 1228 2736 
Q 959 2375 959 1747 
Q 959 1119 1226 758 
Q 1494 397 1959 397 
Q 2419 397 2687 759 
Q 2956 1122 2956 1747 
Q 2956 2369 2687 2733 
Q 2419 3097 1959 3097 
z
M 1959 3584 
Q 2709 3584 3137 3096 
Q 3566 2609 3566 1747 
Q 3566 888 3137 398 
Q 2709 -91 1959 -91 
Q 1206 -91 779 398 
Q 353 888 353 1747 
Q 353 2609 779 3096 
Q 1206 3584 1959 3584 
z
" transform="scale(0.015625)"/>
       <path id="DejaVuSans-6e" d="M 3513 2113 
L 3513 0 
L 2938 0 
L 2938 2094 
Q 2938 2591 2744 2837 
Q 2550 3084 2163 3084 
Q 1697 3084 1428 2787 
Q 1159 2491 1159 1978 
L 1159 0 
L 581 0 
L 581 3500 
L 1159 3500 
L 1159 2956 
Q 1366 3272 1645 3428 
Q 1925 3584 2291 3584 
Q 2894 3584 3203 3211 
Q 3513 2838 3513 2113 
z
" transform="scale(0.015625)"/>
       <path id="DejaVuSans-20" transform="scale(0.015625)"/>
       <path id="DejaVuSans-28" d="M 1984 4856 
Q 1566 4138 1362 3434 
Q 1159 2731 1159 2009 
Q 1159 1288 1364 580 
Q 1569 -128 1984 -844 
L 1484 -844 
Q 1016 -109 783 600 
Q 550 1309 550 2009 
Q 550 2706 781 3412 
Q 1013 4119 1484 4856 
L 1984 4856 
z
" transform="scale(0.015625)"/>
       <path id="DejaVuSans-25" d="M 4653 2053 
Q 4381 2053 4226 1822 
Q 4072 1591 4072 1178 
Q 4072 772 4226 539 
Q 4381 306 4653 306 
Q 4919 306 5073 539 
Q 5228 772 5228 1178 
Q 5228 1588 5073 1820 
Q 4919 2053 4653 2053 
z
M 4653 2450 
Q 5147 2450 5437 2106 
Q 5728 1763 5728 1178 
Q 5728 594 5436 251 
Q 5144 -91 4653 -91 
Q 4153 -91 3862 251 
Q 3572 594 3572 1178 
Q 3572 1766 3864 2108 
Q 4156 2450 4653 2450 
z
M 1428 4353 
Q 1159 4353 1004 4120 
Q 850 3888 850 3481 
Q 850 3069 1003 2837 
Q 1156 2606 1428 2606 
Q 1700 2606 1854 2837 
Q 2009 3069 2009 3481 
Q 2009 3884 1853 4118 
Q 1697 4353 1428 4353 
z
M 4250 4750 
L 4750 4750 
L 1831 -91 
L 1331 -91 
L 4250 4750 
z
M 1428 4750 
Q 1922 4750 2215 4408 
Q 2509 4066 2509 3481 
Q 2509 2891 2217 2550 
Q 1925 2209 1428 2209 
Q 931 2209 642 2551 
Q 353 2894 353 3481 
Q 353 4063 643 4406 
Q 934 4750 1428 4750 
z
" transform="scale(0.015625)"/>
       <path id="DejaVuSans-29" d="M 513 4856 
L 1013 4856 
Q 1481 4119 1714 3412 
Q 1947 2706 1947 2009 
Q 1947 1309 1714 600 
Q 1481 -109 1013 -844 
L 513 -844 
Q 928 -128 1133 580 
Q 1338 1288 1338 2009 
Q 1338 2731 1133 3434 
Q 928 4138 513 4856 
z
" transform="scale(0.015625)"/>
      </defs>
      <use xlink:href="#DejaVuSans-53"/>
      <use xlink:href="#DejaVuSans-75" x="63.476562"/>
      <use xlink:href="#DejaVuSans-70" x="126.855469"/>
      <use xlink:href="#DejaVuSans-65" x="190.332031"/>
      <use xlink:href="#DejaVuSans-72" x="251.855469"/>
      <use xlink:href="#DejaVuSans-73" x="292.96875"/>
      <use xlink:href="#DejaVuSans-61" x="345.068359"/>
      <use xlink:href="#DejaVuSans-74" x="406.347656"/>
      <use xlink:href="#DejaVuSans-75" x="445.556641"/>
      <use xlink:href="#DejaVuSans-72" x="508.935547"/>
      <use xlink:href="#DejaVuSans-61" x="550.048828"/>
      <use xlink:href="#DejaVuSans-74" x="611.328125"/>
      <use xlink:href="#DejaVuSans-69" x="650.537109"/>
      <use xlink:href="#DejaVuSans-6f" x="678.320312"/>
      <use xlink:href="#DejaVuSans-6e" x="739.501953"/>
      <use xlink:href="#DejaVuSans-20" x="802.880859"/>
      <use xlink:href="#DejaVuSans-28" x="834.667969"/>
      <use xlink:href="#DejaVuSans-25" x="873.681641"/>
      <use xlink:href="#DejaVuSans-29" x="968.701172"/>
     </g>
    </g>
   </g>
   <g id="matplotlib.axis_2">
    <g id="ytick_1">
     <g id="line2d_4">
      <defs>
       <path id="mb97ada9c62" d="M 0 0 
L -3.5 0 
" style="stroke: #000000; stroke-width: 0.8"/>
      </defs>
      <g>
       <use xlink:href="#mb97ada9c62" x="46.965625" y="288.430125" style="stroke: #000000; stroke-width: 0.8"/>
      </g>
     </g>
     <g id="text_5">
      <!-- 0 -->
      <g transform="translate(33.603125 292.229344) scale(0.1 -0.1)">
       <use xlink:href="#DejaVuSans-30"/>
      </g>
     </g>
    </g>
    <g id="ytick_2">
     <g id="line2d_5">
      <g>
       <use xlink:href="#mb97ada9c62" x="46.965625" y="244.078125" style="stroke: #000000; stroke-width: 0.8"/>
      </g>
     </g>
     <g id="text_6">
      <!-- 100 -->
      <g transform="translate(20.878125 247.877344) scale(0.1 -0.1)">
       <defs>
        <path id="DejaVuSans-31" d="M 794 531 
L 1825 531 
L 1825 4091 
L 703 3866 
L 703 4441 
L 1819 4666 
L 2450 4666 
L 2450 531 
L 3481 531 
L 3481 0 
L 794 0 
L 794 531 
z
" transform="scale(0.015625)"/>
       </defs>
       <use xlink:href="#DejaVuSans-31"/>
       <use xlink:href="#DejaVuSans-30" x="63.623047"/>
       <use xlink:href="#DejaVuSans-30" x="127.246094"/>
      </g>
     </g>
    </g>
    <g id="ytick_3">
     <g id="line2d_6">
      <g>
       <use xlink:href="#mb97ada9c62" x="46.965625" y="199.726125" style="stroke: #000000; stroke-width: 0.8"/>
      </g>
     </g>
     <g id="text_7">
      <!-- 200 -->
      <g transform="translate(20.878125 203.525344) scale(0.1 -0.1)">
       <use xlink:href="#DejaVuSans-32"/>
       <use xlink:href="#DejaVuSans-30" x="63.623047"/>
       <use xlink:href="#DejaVuSans-30" x="127.246094"/>
      </g>
     </g>
    </g>
    <g id="ytick_4">
     <g id="line2d_7">
      <g>
       <use xlink:href="#mb97ada9c62" x="46.965625" y="155.374125" style="stroke: #000000; stroke-width: 0.8"/>
      </g>
     </g>
     <g id="text_8">
      <!-- 300 -->
      <g transform="translate(20.878125 159.173344) scale(0.1 -0.1)">
       <defs>
        <path id="DejaVuSans-33" d="M 2597 2516 
Q 3050 2419 3304 2112 
Q 3559 1806 3559 1356 
Q 3559 666 3084 287 
Q 2609 -91 1734 -91 
Q 1441 -91 1130 -33 
Q 819 25 488 141 
L 488 750 
Q 750 597 1062 519 
Q 1375 441 1716 441 
Q 2309 441 2620 675 
Q 2931 909 2931 1356 
Q 2931 1769 2642 2001 
Q 2353 2234 1838 2234 
L 1294 2234 
L 1294 2753 
L 1863 2753 
Q 2328 2753 2575 2939 
Q 2822 3125 2822 3475 
Q 2822 3834 2567 4026 
Q 2313 4219 1838 4219 
Q 1578 4219 1281 4162 
Q 984 4106 628 3988 
L 628 4550 
Q 988 4650 1302 4700 
Q 1616 4750 1894 4750 
Q 2613 4750 3031 4423 
Q 3450 4097 3450 3541 
Q 3450 3153 3228 2886 
Q 3006 2619 2597 2516 
z
" transform="scale(0.015625)"/>
       </defs>
       <use xlink:href="#DejaVuSans-33"/>
       <use xlink:href="#DejaVuSans-30" x="63.623047"/>
       <use xlink:href="#DejaVuSans-30" x="127.246094"/>
      </g>
     </g>
    </g>
    <g id="ytick_5">
     <g id="line2d_8">
      <g>
       <use xlink:href="#mb97ada9c62" x="46.965625" y="111.022125" style="stroke: #000000; stroke-width: 0.8"/>
      </g>
     </g>
     <g id="text_9">
      <!-- 400 -->
      <g transform="translate(20.878125 114.821344) scale(0.1 -0.1)">
       <defs>
        <path id="DejaVuSans-34" d="M 2419 4116 
L 825 1625 
L 2419 1625 
L 2419 4116 
z
M 2253 4666 
L 3047 4666 
L 3047 1625 
L 3713 1625 
L 3713 1100 
L 3047 1100 
L 3047 0 
L 2419 0 
L 2419 1100 
L 313 1100 
L 313 1709 
L 2253 4666 
z
" transform="scale(0.015625)"/>
       </defs>
       <use xlink:href="#DejaVuSans-34"/>
       <use xlink:href="#DejaVuSans-30" x="63.623047"/>
       <use xlink:href="#DejaVuSans-30" x="127.246094"/>
      </g>
     </g>
    </g>
    <g id="ytick_6">
     <g id="line2d_9">
      <g>
       <use xlink:href="#mb97ada9c62" x="46.965625" y="66.670125" style="stroke: #000000; stroke-width: 0.8"/>
      </g>
     </g>
     <g id="text_10">
      <!-- 500 -->
      <g transform="translate(20.878125 70.469344) scale(0.1 -0.1)">
       <defs>
        <path id="DejaVuSans-35" d="M 691 4666 
L 3169 4666 
L 3169 4134 
L 1269 4134 
L 1269 2991 
Q 1406 3038 1543 3061 
Q 1681 3084 1819 3084 
Q 2600 3084 3056 2656 
Q 3513 2228 3513 1497 
Q 3513 744 3044 326 
Q 2575 -91 1722 -91 
Q 1428 -91 1123 -41 
Q 819 9 494 109 
L 494 744 
Q 775 591 1075 516 
Q 1375 441 1709 441 
Q 2250 441 2565 725 
Q 2881 1009 2881 1497 
Q 2881 1984 2565 2268 
Q 2250 2553 1709 2553 
Q 1456 2553 1204 2497 
Q 953 2441 691 2322 
L 691 4666 
z
" transform="scale(0.015625)"/>
       </defs>
       <use xlink:href="#DejaVuSans-35"/>
       <use xlink:href="#DejaVuSans-30" x="63.623047"/>
       <use xlink:href="#DejaVuSans-30" x="127.246094"/>
      </g>
     </g>
    </g>
    <g id="ytick_7">
     <g id="line2d_10">
      <g>
       <use xlink:href="#mb97ada9c62" x="46.965625" y="22.318125" style="stroke: #000000; stroke-width: 0.8"/>
      </g>
     </g>
     <g id="text_11">
      <!-- 600 -->
      <g transform="translate(20.878125 26.117344) scale(0.1 -0.1)">
       <defs>
        <path id="DejaVuSans-36" d="M 2113 2584 
Q 1688 2584 1439 2293 
Q 1191 2003 1191 1497 
Q 1191 994 1439 701 
Q 1688 409 2113 409 
Q 2538 409 2786 701 
Q 3034 994 3034 1497 
Q 3034 2003 2786 2293 
Q 2538 2584 2113 2584 
z
M 3366 4563 
L 3366 3988 
Q 3128 4100 2886 4159 
Q 2644 4219 2406 4219 
Q 1781 4219 1451 3797 
Q 1122 3375 1075 2522 
Q 1259 2794 1537 2939 
Q 1816 3084 2150 3084 
Q 2853 3084 3261 2657 
Q 3669 2231 3669 1497 
Q 3669 778 3244 343 
Q 2819 -91 2113 -91 
Q 1303 -91 875 529 
Q 447 1150 447 2328 
Q 447 3434 972 4092 
Q 1497 4750 2381 4750 
Q 2619 4750 2861 4703 
Q 3103 4656 3366 4563 
z
" transform="scale(0.015625)"/>
       </defs>
       <use xlink:href="#DejaVuSans-36"/>
       <use xlink:href="#DejaVuSans-30" x="63.623047"/>
       <use xlink:href="#DejaVuSans-30" x="127.246094"/>
      </g>
     </g>
    </g>
    <g id="text_12">
     <!-- height above cloud base (m) -->
     <g transform="translate(14.798438 227.2335) rotate(-90) scale(0.1 -0.1)">
      <defs>
       <path id="DejaVuSans-68" d="M 3513 2113 
L 3513 0 
L 2938 0 
L 2938 2094 
Q 2938 2591 2744 2837 
Q 2550 3084 2163 3084 
Q 1697 3084 1428 2787 
Q 1159 2491 1159 1978 
L 1159 0 
L 581 0 
L 581 4863 
L 1159 4863 
L 1159 2956 
Q 1366 3272 1645 3428 
Q 1925 3584 2291 3584 
Q 2894 3584 3203 3211 
Q 3513 2838 3513 2113 
z
" transform="scale(0.015625)"/>
       <path id="DejaVuSans-67" d="M 2906 1791 
Q 2906 2416 2648 2759 
Q 2391 3103 1925 3103 
Q 1463 3103 1205 2759 
Q 947 2416 947 1791 
Q 947 1169 1205 825 
Q 1463 481 1925 481 
Q 2391 481 2648 825 
Q 2906 1169 2906 1791 
z
M 3481 434 
Q 3481 -459 3084 -895 
Q 2688 -1331 1869 -1331 
Q 1566 -1331 1297 -1286 
Q 1028 -1241 775 -1147 
L 775 -588 
Q 1028 -725 1275 -790 
Q 1522 -856 1778 -856 
Q 2344 -856 2625 -561 
Q 2906 -266 2906 331 
L 2906 616 
Q 2728 306 2450 153 
Q 2172 0 1784 0 
Q 1141 0 747 490 
Q 353 981 353 1791 
Q 353 2603 747 3093 
Q 1141 3584 1784 3584 
Q 2172 3584 2450 3431 
Q 2728 3278 2906 2969 
L 2906 3500 
L 3481 3500 
L 3481 434 
z
" transform="scale(0.015625)"/>
       <path id="DejaVuSans-62" d="M 3116 1747 
Q 3116 2381 2855 2742 
Q 2594 3103 2138 3103 
Q 1681 3103 1420 2742 
Q 1159 2381 1159 1747 
Q 1159 1113 1420 752 
Q 1681 391 2138 391 
Q 2594 391 2855 752 
Q 3116 1113 3116 1747 
z
M 1159 2969 
Q 1341 3281 1617 3432 
Q 1894 3584 2278 3584 
Q 2916 3584 3314 3078 
Q 3713 2572 3713 1747 
Q 3713 922 3314 415 
Q 2916 -91 2278 -91 
Q 1894 -91 1617 61 
Q 1341 213 1159 525 
L 1159 0 
L 581 0 
L 581 4863 
L 1159 4863 
L 1159 2969 
z
" transform="scale(0.015625)"/>
       <path id="DejaVuSans-76" d="M 191 3500 
L 800 3500 
L 1894 563 
L 2988 3500 
L 3597 3500 
L 2284 0 
L 1503 0 
L 191 3500 
z
" transform="scale(0.015625)"/>
       <path id="DejaVuSans-63" d="M 3122 3366 
L 3122 2828 
Q 2878 2963 2633 3030 
Q 2388 3097 2138 3097 
Q 1578 3097 1268 2742 
Q 959 2388 959 1747 
Q 959 1106 1268 751 
Q 1578 397 2138 397 
Q 2388 397 2633 464 
Q 2878 531 3122 666 
L 3122 134 
Q 2881 22 2623 -34 
Q 2366 -91 2075 -91 
Q 1284 -91 818 406 
Q 353 903 353 1747 
Q 353 2603 823 3093 
Q 1294 3584 2113 3584 
Q 2378 3584 2631 3529 
Q 2884 3475 3122 3366 
z
" transform="scale(0.015625)"/>
       <path id="DejaVuSans-6c" d="M 603 4863 
L 1178 4863 
L 1178 0 
L 603 0 
L 603 4863 
z
" transform="scale(0.015625)"/>
       <path id="DejaVuSans-64" d="M 2906 2969 
L 2906 4863 
L 3481 4863 
L 3481 0 
L 2906 0 
L 2906 525 
Q 2725 213 2448 61 
Q 2172 -91 1784 -91 
Q 1150 -91 751 415 
Q 353 922 353 1747 
Q 353 2572 751 3078 
Q 1150 3584 1784 3584 
Q 2172 3584 2448 3432 
Q 2725 3281 2906 2969 
z
M 947 1747 
Q 947 1113 1208 752 
Q 1469 391 1925 391 
Q 2381 391 2643 752 
Q 2906 1113 2906 1747 
Q 2906 2381 2643 2742 
Q 2381 3103 1925 3103 
Q 1469 3103 1208 2742 
Q 947 2381 947 1747 
z
" transform="scale(0.015625)"/>
       <path id="DejaVuSans-6d" d="M 3328 2828 
Q 3544 3216 3844 3400 
Q 4144 3584 4550 3584 
Q 5097 3584 5394 3201 
Q 5691 2819 5691 2113 
L 5691 0 
L 5113 0 
L 5113 2094 
Q 5113 2597 4934 2840 
Q 4756 3084 4391 3084 
Q 3944 3084 3684 2787 
Q 3425 2491 3425 1978 
L 3425 0 
L 2847 0 
L 2847 2094 
Q 2847 2600 2669 2842 
Q 2491 3084 2119 3084 
Q 1678 3084 1418 2786 
Q 1159 2488 1159 1978 
L 1159 0 
L 581 0 
L 581 3500 
L 1159 3500 
L 1159 2956 
Q 1356 3278 1631 3431 
Q 1906 3584 2284 3584 
Q 2666 3584 2933 3390 
Q 3200 3197 3328 2828 
z
" transform="scale(0.015625)"/>
      </defs>
      <use xlink:href="#DejaVuSans-68"/>
      <use xlink:href="#DejaVuSans-65" x="63.378906"/>
      <use xlink:href="#DejaVuSans-69" x="124.902344"/>
      <use xlink:href="#DejaVuSans-67" x="152.685547"/>
      <use xlink:href="#DejaVuSans-68" x="216.162109"/>
      <use xlink:href="#DejaVuSans-74" x="279.541016"/>
      <use xlink:href="#DejaVuSans-20" x="318.75"/>
      <use xlink:href="#DejaVuSans-61" x="350.537109"/>
      <use xlink:href="#DejaVuSans-62" x="411.816406"/>
      <use xlink:href="#DejaVuSans-6f" x="475.292969"/>
      <use xlink:href="#DejaVuSans-76" x="536.474609"/>
      <use xlink:href="#DejaVuSans-65" x="595.654297"/>
      <use xlink:href="#DejaVuSans-20" x="657.177734"/>
      <use xlink:href="#DejaVuSans-63" x="688.964844"/>
      <use xlink:href="#DejaVuSans-6c" x="743.945312"/>
      <use xlink:href="#DejaVuSans-6f" x="771.728516"/>
      <use xlink:href="#DejaVuSans-75" x="832.910156"/>
      <use xlink:href="#DejaVuSans-64" x="896.289062"/>
      <use xlink:href="#DejaVuSans-20" x="959.765625"/>
      <use xlink:href="#DejaVuSans-62" x="991.552734"/>
      <use xlink:href="#DejaVuSans-61" x="1055.029297"/>
      <use xlink:href="#DejaVuSans-73" x="1116.308594"/>
      <use xlink:href="#DejaVuSans-65" x="1168.408203"/>
      <use xlink:href="#DejaVuSans-20" x="1229.931641"/>
      <use xlink:href="#DejaVuSans-28" x="1261.71875"/>
      <use xlink:href="#DejaVuSans-6d" x="1300.732422"/>
      <use xlink:href="#DejaVuSans-29" x="1398.144531"/>
     </g>
    </g>
   </g>
   <g id="line2d_11">
    <path d="M 17.523654 326.986375 
L 58.314962 314.154285 
L 104.211156 299.961645 
L 132.860632 291.091245 
L 137.807155 289.317165 
L 139.620237 288.430125 
L 140.660043 287.543085 
L 140.847233 286.656045 
L 140.71539 285.769005 
L 139.92398 284.881965 
L 136.257759 282.220845 
L 135.314494 281.333805 
L 134.592952 280.446765 
L 134.055292 279.559725 
L 133.351904 277.785645 
L 132.924087 276.011565 
L 132.506837 273.350445 
L 132.055573 268.915245 
L 131.599252 261.818925 
L 131.179907 251.174445 
L 130.803032 235.207725 
L 130.462437 210.370605 
L 130.158589 170.453805 
L 130.085438 156.261165 
L 130.085438 156.261165 
" clip-path="url(#p50a1a3dfe8)" style="fill: none; stroke: #000000; stroke-width: 1.5; stroke-linecap: square"/>
   </g>
   <g id="line2d_12">
    <path d="M 17.490622 326.986375 
L 58.252492 314.154285 
L 120.657232 294.639405 
L 125.409926 292.865325 
L 127.214202 291.978285 
L 128.415712 291.091245 
L 129.014829 290.204205 
L 129.200175 289.317165 
L 129.110634 287.543085 
L 128.857649 283.994925 
L 128.720994 277.785645 
L 128.584716 257.383725 
L 128.466911 197.952045 
L 128.43114 156.261165 
L 128.43114 156.261165 
" clip-path="url(#p50a1a3dfe8)" style="fill: none; stroke-dasharray: 1.5,2.475; stroke-dashoffset: 0; stroke: #ff0000; stroke-width: 1.5"/>
   </g>
   <g id="line2d_13">
    <path d="M 128.162293 326.986375 
L 128.298437 302.622765 
L 128.469769 298.187565 
L 128.788899 295.526445 
L 129.015144 294.639405 
L 129.381337 293.752365 
L 129.995772 292.865325 
L 131.017291 291.978285 
L 132.574181 291.091245 
L 138.561875 288.430125 
L 139.678671 287.543085 
L 139.949277 286.656045 
L 139.888512 285.769005 
L 139.15289 284.881965 
L 134.66555 281.333805 
L 133.961401 280.446765 
L 133.438675 279.559725 
L 132.760172 277.785645 
L 132.352815 276.011565 
L 131.860667 272.463405 
L 131.417655 267.141165 
L 131.010784 259.157805 
L 130.633475 246.739245 
L 130.293663 227.224365 
L 129.99017 195.290925 
L 129.783559 156.261165 
L 129.783559 156.261165 
" clip-path="url(#p50a1a3dfe8)" style="fill: none; stroke-dasharray: 5.55,2.4; stroke-dashoffset: 0; stroke: #ff0000; stroke-width: 1.5"/>
   </g>
   <g id="line2d_14">
    <path d="M 15.041764 326.986375 
L 48.384195 315.928365 
L 66.431054 309.719085 
L 78.654615 305.283885 
L 87.788568 301.735725 
L 94.126078 299.074605 
L 99.920028 296.413485 
L 105.086168 293.752365 
L 108.148153 291.978285 
L 110.881998 290.204205 
L 113.24692 288.430125 
L 115.163134 286.656045 
L 116.590501 284.881965 
L 117.616458 283.107885 
L 118.380481 281.333805 
L 119.247497 278.672685 
L 120.114905 275.124525 
L 120.930695 270.689325 
L 121.668445 265.367085 
L 122.400479 258.270765 
L 123.069651 249.400365 
L 123.697496 237.868845 
L 124.279028 222.789165 
L 124.823407 202.387245 
L 125.318326 174.889005 
L 125.562981 156.261165 
L 125.562981 156.261165 
" clip-path="url(#p50a1a3dfe8)" style="fill: none; stroke-dasharray: 1.5,2.475; stroke-dashoffset: 0; stroke: #008000; stroke-width: 1.5"/>
   </g>
   <g id="line2d_15">
    <path d="M 130.611151 326.986375 
L 131.218187 322.137645 
L 131.989714 317.702445 
L 132.825482 314.154285 
L 133.629766 311.493165 
L 134.635371 308.832045 
L 135.899628 306.170925 
L 137.492862 303.509805 
L 138.777791 301.735725 
L 140.271 299.961645 
L 141.997927 298.187565 
L 143.980899 296.413485 
L 146.234039 294.639405 
L 150.083341 291.978285 
L 152.724512 290.204205 
L 153.821544 289.317165 
L 154.502579 288.430125 
L 154.52301 287.543085 
L 153.813361 286.656045 
L 152.909427 285.769005 
L 151.462741 284.881965 
L 146.36349 282.220845 
L 145.063274 281.333805 
L 144.023784 280.446765 
L 143.199064 279.559725 
L 141.992491 277.785645 
L 141.133087 276.011565 
L 140.166591 273.350445 
L 139.191652 269.802285 
L 138.261064 265.367085 
L 137.404813 260.044845 
L 136.634249 253.835565 
L 135.874645 245.852205 
L 135.171271 236.094765 
L 134.500207 223.676205 
L 133.864255 207.709485 
L 133.2532 186.420525 
L 132.696195 158.922285 
L 132.651718 156.261165 
L 132.651718 156.261165 
" clip-path="url(#p50a1a3dfe8)" style="fill: none; stroke-dasharray: 5.55,2.4; stroke-dashoffset: 0; stroke: #008000; stroke-width: 1.5"/>
   </g>
   <g id="line2d_16">
    <path d="M -1 324.302191 
L 12.828908 318.589485 
L 25.128564 313.267245 
L 34.88197 308.832045 
L 44.13032 304.396845 
L 52.827635 299.961645 
L 59.361822 296.413485 
L 65.499509 292.865325 
L 71.203684 289.317165 
L 75.056607 286.656045 
L 77.286776 284.881965 
L 79.225003 283.107885 
L 81.707048 280.446765 
L 83.833048 277.785645 
L 85.701135 275.124525 
L 87.881364 271.576365 
L 89.779751 268.028205 
L 91.4527 264.480045 
L 93.288729 260.044845 
L 94.895676 255.609645 
L 96.582 250.287405 
L 98.283662 244.078125 
L 99.758419 237.868845 
L 101.22374 230.772525 
L 102.64952 222.789165 
L 104.015641 213.918765 
L 105.418464 203.274285 
L 106.712333 191.742765 
L 107.980876 178.437165 
L 109.19598 163.357485 
L 109.702146 156.261165 
L 109.702146 156.261165 
" clip-path="url(#p50a1a3dfe8)" style="fill: none; stroke-dasharray: 1.5,2.475; stroke-dashoffset: 0; stroke: #0000ff; stroke-width: 1.5"/>
   </g>
   <g id="line2d_17">
    <path d="M 153.342596 326.986375 
L 155.396569 323.911725 
L 158.017905 320.363565 
L 160.930784 316.815405 
L 164.16144 313.267245 
L 167.735452 309.719085 
L 171.676512 306.170925 
L 176.004597 302.622765 
L 180.732456 299.074605 
L 185.85472 295.526445 
L 193.782204 290.204205 
L 194.732732 289.317165 
L 195.206798 288.430125 
L 194.958311 287.543085 
L 193.919887 286.656045 
L 192.634786 285.769005 
L 190.766465 284.881965 
L 184.285811 282.220845 
L 182.517484 281.333805 
L 181.015165 280.446765 
L 178.627787 278.672685 
L 176.763334 276.898605 
L 175.192568 275.124525 
L 173.16311 272.463405 
L 171.398662 269.802285 
L 169.345776 266.254125 
L 167.556819 262.705965 
L 165.608114 258.270765 
L 163.911288 253.835565 
L 162.13666 248.513325 
L 160.589228 243.191085 
L 159.012084 236.981805 
L 157.448912 229.885485 
L 155.930869 221.902125 
L 154.478513 213.031725 
L 153.104055 203.274285 
L 151.714269 191.742765 
L 150.354262 178.437165 
L 149.053719 163.357485 
L 148.512553 156.261165 
L 148.512553 156.261165 
" clip-path="url(#p50a1a3dfe8)" style="fill: none; stroke-dasharray: 5.55,2.4; stroke-dashoffset: 0; stroke: #0000ff; stroke-width: 1.5"/>
   </g>
   <g id="patch_3">
    <path d="M 46.965625 288.430125 
L 46.965625 22.318125 
" style="fill: none; stroke: #000000; stroke-width: 0.8; stroke-linejoin: miter; stroke-linecap: square"/>
   </g>
   <g id="patch_4">
    <path d="M 209.292898 288.430125 
L 209.292898 22.318125 
" style="fill: none; stroke: #000000; stroke-width: 0.8; stroke-linejoin: miter; stroke-linecap: square"/>
   </g>
   <g id="patch_5">
    <path d="M 46.965625 288.430125 
L 209.292898 288.430125 
" style="fill: none; stroke: #000000; stroke-width: 0.8; stroke-linejoin: miter; stroke-linecap: square"/>
   </g>
   <g id="patch_6">
    <path d="M 46.965625 22.318125 
L 209.292898 22.318125 
" style="fill: none; stroke: #000000; stroke-width: 0.8; stroke-linejoin: miter; stroke-linecap: square"/>
   </g>
   <g id="text_13">
    <!-- ascent -->
    <g transform="translate(108.181136 16.318125) scale(0.12 -0.12)">
     <use xlink:href="#DejaVuSans-61"/>
     <use xlink:href="#DejaVuSans-73" x="61.279297"/>
     <use xlink:href="#DejaVuSans-63" x="113.378906"/>
     <use xlink:href="#DejaVuSans-65" x="168.359375"/>
     <use xlink:href="#DejaVuSans-6e" x="229.882812"/>
     <use xlink:href="#DejaVuSans-74" x="293.261719"/>
    </g>
   </g>
   <g id="legend_1">
    <g id="patch_7">
     <path d="M 48.292898 137.09625 
L 202.292898 137.09625 
Q 204.292898 137.09625 204.292898 135.09625 
L 204.292898 29.318125 
Q 204.292898 27.318125 202.292898 27.318125 
L 48.292898 27.318125 
Q 46.292898 27.318125 46.292898 29.318125 
L 46.292898 135.09625 
Q 46.292898 137.09625 48.292898 137.09625 
z
" style="fill: #ffffff; opacity: 0.8; stroke: #cccccc; stroke-linejoin: miter"/>
    </g>
    <g id="line2d_18">
     <path d="M 50.292898 35.416562 
L 60.292898 35.416562 
L 70.292898 35.416562 
" style="fill: none; stroke: #000000; stroke-width: 1.5; stroke-linecap: square"/>
    </g>
    <g id="text_14">
     <!-- SS (%) -->
     <g transform="translate(78.292898 38.916562) scale(0.1 -0.1)">
      <use xlink:href="#DejaVuSans-53"/>
      <use xlink:href="#DejaVuSans-53" x="63.476562"/>
      <use xlink:href="#DejaVuSans-20" x="126.953125"/>
      <use xlink:href="#DejaVuSans-28" x="158.740234"/>
      <use xlink:href="#DejaVuSans-25" x="197.753906"/>
      <use xlink:href="#DejaVuSans-29" x="292.773438"/>
     </g>
    </g>
    <g id="line2d_19">
     <path d="M 50.292898 50.09625 
L 60.292898 50.09625 
L 70.292898 50.09625 
" style="fill: none; stroke-dasharray: 1.5,2.475; stroke-dashoffset: 0; stroke: #ff0000; stroke-width: 1.5"/>
    </g>
    <g id="text_15">
     <!-- SS$_{eq}$ (%) for r_d=0.1 µm -->
     <g transform="translate(78.292898 53.59625) scale(0.1 -0.1)">
      <defs>
       <path id="DejaVuSans-Oblique-65" d="M 3078 2063 
Q 3088 2113 3092 2166 
Q 3097 2219 3097 2272 
Q 3097 2653 2873 2875 
Q 2650 3097 2266 3097 
Q 1838 3097 1509 2826 
Q 1181 2556 1013 2059 
L 3078 2063 
z
M 3578 1613 
L 903 1613 
Q 884 1494 878 1425 
Q 872 1356 872 1306 
Q 872 872 1139 634 
Q 1406 397 1894 397 
Q 2269 397 2603 481 
Q 2938 566 3225 728 
L 3116 159 
Q 2806 34 2476 -28 
Q 2147 -91 1806 -91 
Q 1078 -91 686 257 
Q 294 606 294 1247 
Q 294 1794 489 2264 
Q 684 2734 1063 3103 
Q 1306 3334 1642 3459 
Q 1978 3584 2356 3584 
Q 2950 3584 3301 3228 
Q 3653 2872 3653 2272 
Q 3653 2128 3634 1964 
Q 3616 1800 3578 1613 
z
" transform="scale(0.015625)"/>
       <path id="DejaVuSans-Oblique-71" d="M 2669 525 
Q 2438 222 2123 65 
Q 1809 -91 1428 -91 
Q 897 -91 595 267 
Q 294 625 294 1253 
Q 294 1759 480 2231 
Q 666 2703 1013 3078 
Q 1238 3322 1530 3453 
Q 1822 3584 2144 3584 
Q 2531 3584 2781 3431 
Q 3031 3278 3144 2969 
L 3244 3494 
L 3822 3494 
L 2888 -1319 
L 2309 -1319 
L 2669 525 
z
M 891 1338 
Q 891 875 1084 633 
Q 1278 391 1644 391 
Q 2188 391 2572 911 
Q 2956 1431 2956 2175 
Q 2956 2625 2757 2864 
Q 2559 3103 2188 3103 
Q 1916 3103 1684 2976 
Q 1453 2850 1281 2606 
Q 1100 2350 995 2006 
Q 891 1663 891 1338 
z
" transform="scale(0.015625)"/>
       <path id="DejaVuSans-66" d="M 2375 4863 
L 2375 4384 
L 1825 4384 
Q 1516 4384 1395 4259 
Q 1275 4134 1275 3809 
L 1275 3500 
L 2222 3500 
L 2222 3053 
L 1275 3053 
L 1275 0 
L 697 0 
L 697 3053 
L 147 3053 
L 147 3500 
L 697 3500 
L 697 3744 
Q 697 4328 969 4595 
Q 1241 4863 1831 4863 
L 2375 4863 
z
" transform="scale(0.015625)"/>
       <path id="DejaVuSans-5f" d="M 3263 -1063 
L 3263 -1509 
L -63 -1509 
L -63 -1063 
L 3263 -1063 
z
" transform="scale(0.015625)"/>
       <path id="DejaVuSans-3d" d="M 678 2906 
L 4684 2906 
L 4684 2381 
L 678 2381 
L 678 2906 
z
M 678 1631 
L 4684 1631 
L 4684 1100 
L 678 1100 
L 678 1631 
z
" transform="scale(0.015625)"/>
       <path id="DejaVuSans-2e" d="M 684 794 
L 1344 794 
L 1344 0 
L 684 0 
L 684 794 
z
" transform="scale(0.015625)"/>
       <path id="DejaVuSans-b5" d="M 544 -1331 
L 544 3500 
L 1119 3500 
L 1119 1325 
Q 1119 872 1334 640 
Q 1550 409 1972 409 
Q 2434 409 2667 671 
Q 2900 934 2900 1459 
L 2900 3500 
L 3475 3500 
L 3475 806 
Q 3475 619 3529 530 
Q 3584 441 3700 441 
Q 3728 441 3778 458 
Q 3828 475 3916 513 
L 3916 50 
Q 3788 -22 3673 -56 
Q 3559 -91 3450 -91 
Q 3234 -91 3106 31 
Q 2978 153 2931 403 
Q 2775 156 2548 32 
Q 2322 -91 2016 -91 
Q 1697 -91 1473 31 
Q 1250 153 1119 397 
L 1119 -1331 
L 544 -1331 
z
" transform="scale(0.015625)"/>
      </defs>
      <use xlink:href="#DejaVuSans-53" transform="translate(0 0.015625)"/>
      <use xlink:href="#DejaVuSans-53" transform="translate(63.476562 0.015625)"/>
      <use xlink:href="#DejaVuSans-Oblique-65" transform="translate(127.910156 -16.390625) scale(0.7)"/>
      <use xlink:href="#DejaVuSans-Oblique-71" transform="translate(170.976562 -16.390625) scale(0.7)"/>
      <use xlink:href="#DejaVuSans-20" transform="translate(218.144531 0.015625)"/>
      <use xlink:href="#DejaVuSans-28" transform="translate(249.931641 0.015625)"/>
      <use xlink:href="#DejaVuSans-25" transform="translate(288.945312 0.015625)"/>
      <use xlink:href="#DejaVuSans-29" transform="translate(383.964844 0.015625)"/>
      <use xlink:href="#DejaVuSans-20" transform="translate(422.978516 0.015625)"/>
      <use xlink:href="#DejaVuSans-66" transform="translate(454.765625 0.015625)"/>
      <use xlink:href="#DejaVuSans-6f" transform="translate(489.970703 0.015625)"/>
      <use xlink:href="#DejaVuSans-72" transform="translate(551.152344 0.015625)"/>
      <use xlink:href="#DejaVuSans-20" transform="translate(592.265625 0.015625)"/>
      <use xlink:href="#DejaVuSans-72" transform="translate(624.052734 0.015625)"/>
      <use xlink:href="#DejaVuSans-5f" transform="translate(665.166016 0.015625)"/>
      <use xlink:href="#DejaVuSans-64" transform="translate(715.166016 0.015625)"/>
      <use xlink:href="#DejaVuSans-3d" transform="translate(778.642578 0.015625)"/>
      <use xlink:href="#DejaVuSans-30" transform="translate(862.431641 0.015625)"/>
      <use xlink:href="#DejaVuSans-2e" transform="translate(926.054688 0.015625)"/>
      <use xlink:href="#DejaVuSans-31" transform="translate(957.841797 0.015625)"/>
      <use xlink:href="#DejaVuSans-20" transform="translate(1021.464844 0.015625)"/>
      <use xlink:href="#DejaVuSans-b5" transform="translate(1053.251953 0.015625)"/>
      <use xlink:href="#DejaVuSans-6d" transform="translate(1116.875 0.015625)"/>
     </g>
    </g>
    <g id="line2d_20">
     <path d="M 50.292898 65.79625 
L 60.292898 65.79625 
L 70.292898 65.79625 
" style="fill: none; stroke-dasharray: 5.55,2.4; stroke-dashoffset: 0; stroke: #ff0000; stroke-width: 1.5"/>
    </g>
    <g id="text_16">
     <!-- SS$_{eff}$ (%) for r_d=0.1 µm -->
     <g transform="translate(78.292898 69.29625) scale(0.1 -0.1)">
      <defs>
       <path id="DejaVuSans-Oblique-66" d="M 3059 4863 
L 2969 4384 
L 2419 4384 
Q 2106 4384 1964 4261 
Q 1822 4138 1753 3809 
L 1691 3500 
L 2638 3500 
L 2553 3053 
L 1606 3053 
L 1013 0 
L 434 0 
L 1031 3053 
L 481 3053 
L 563 3500 
L 1113 3500 
L 1159 3744 
Q 1278 4363 1576 4613 
Q 1875 4863 2516 4863 
L 3059 4863 
z
" transform="scale(0.015625)"/>
      </defs>
      <use xlink:href="#DejaVuSans-53" transform="translate(0 0.015625)"/>
      <use xlink:href="#DejaVuSans-53" transform="translate(63.476562 0.015625)"/>
      <use xlink:href="#DejaVuSans-Oblique-65" transform="translate(127.910156 -16.390625) scale(0.7)"/>
      <use xlink:href="#DejaVuSans-Oblique-66" transform="translate(170.976562 -16.390625) scale(0.7)"/>
      <use xlink:href="#DejaVuSans-Oblique-66" transform="translate(195.620117 -16.390625) scale(0.7)"/>
      <use xlink:href="#DejaVuSans-20" transform="translate(222.998047 0.015625)"/>
      <use xlink:href="#DejaVuSans-28" transform="translate(254.785156 0.015625)"/>
      <use xlink:href="#DejaVuSans-25" transform="translate(293.798828 0.015625)"/>
      <use xlink:href="#DejaVuSans-29" transform="translate(388.818359 0.015625)"/>
      <use xlink:href="#DejaVuSans-20" transform="translate(427.832031 0.015625)"/>
      <use xlink:href="#DejaVuSans-66" transform="translate(459.619141 0.015625)"/>
      <use xlink:href="#DejaVuSans-6f" transform="translate(494.824219 0.015625)"/>
      <use xlink:href="#DejaVuSans-72" transform="translate(556.005859 0.015625)"/>
      <use xlink:href="#DejaVuSans-20" transform="translate(597.119141 0.015625)"/>
      <use xlink:href="#DejaVuSans-72" transform="translate(628.90625 0.015625)"/>
      <use xlink:href="#DejaVuSans-5f" transform="translate(670.019531 0.015625)"/>
      <use xlink:href="#DejaVuSans-64" transform="translate(720.019531 0.015625)"/>
      <use xlink:href="#DejaVuSans-3d" transform="translate(783.496094 0.015625)"/>
      <use xlink:href="#DejaVuSans-30" transform="translate(867.285156 0.015625)"/>
      <use xlink:href="#DejaVuSans-2e" transform="translate(930.908203 0.015625)"/>
      <use xlink:href="#DejaVuSans-31" transform="translate(962.695312 0.015625)"/>
      <use xlink:href="#DejaVuSans-20" transform="translate(1026.318359 0.015625)"/>
      <use xlink:href="#DejaVuSans-b5" transform="translate(1058.105469 0.015625)"/>
      <use xlink:href="#DejaVuSans-6d" transform="translate(1121.728516 0.015625)"/>
     </g>
    </g>
    <g id="line2d_21">
     <path d="M 50.292898 80.79625 
L 60.292898 80.79625 
L 70.292898 80.79625 
" style="fill: none; stroke-dasharray: 1.5,2.475; stroke-dashoffset: 0; stroke: #008000; stroke-width: 1.5"/>
    </g>
    <g id="text_17">
     <!-- SS$_{eq}$ (%) for r_d=2.0 µm -->
     <g transform="translate(78.292898 84.29625) scale(0.1 -0.1)">
      <use xlink:href="#DejaVuSans-53" transform="translate(0 0.015625)"/>
      <use xlink:href="#DejaVuSans-53" transform="translate(63.476562 0.015625)"/>
      <use xlink:href="#DejaVuSans-Oblique-65" transform="translate(127.910156 -16.390625) scale(0.7)"/>
      <use xlink:href="#DejaVuSans-Oblique-71" transform="translate(170.976562 -16.390625) scale(0.7)"/>
      <use xlink:href="#DejaVuSans-20" transform="translate(218.144531 0.015625)"/>
      <use xlink:href="#DejaVuSans-28" transform="translate(249.931641 0.015625)"/>
      <use xlink:href="#DejaVuSans-25" transform="translate(288.945312 0.015625)"/>
      <use xlink:href="#DejaVuSans-29" transform="translate(383.964844 0.015625)"/>
      <use xlink:href="#DejaVuSans-20" transform="translate(422.978516 0.015625)"/>
      <use xlink:href="#DejaVuSans-66" transform="translate(454.765625 0.015625)"/>
      <use xlink:href="#DejaVuSans-6f" transform="translate(489.970703 0.015625)"/>
      <use xlink:href="#DejaVuSans-72" transform="translate(551.152344 0.015625)"/>
      <use xlink:href="#DejaVuSans-20" transform="translate(592.265625 0.015625)"/>
      <use xlink:href="#DejaVuSans-72" transform="translate(624.052734 0.015625)"/>
      <use xlink:href="#DejaVuSans-5f" transform="translate(665.166016 0.015625)"/>
      <use xlink:href="#DejaVuSans-64" transform="translate(715.166016 0.015625)"/>
      <use xlink:href="#DejaVuSans-3d" transform="translate(778.642578 0.015625)"/>
      <use xlink:href="#DejaVuSans-32" transform="translate(862.431641 0.015625)"/>
      <use xlink:href="#DejaVuSans-2e" transform="translate(926.054688 0.015625)"/>
      <use xlink:href="#DejaVuSans-30" transform="translate(957.841797 0.015625)"/>
      <use xlink:href="#DejaVuSans-20" transform="translate(1021.464844 0.015625)"/>
      <use xlink:href="#DejaVuSans-b5" transform="translate(1053.251953 0.015625)"/>
      <use xlink:href="#DejaVuSans-6d" transform="translate(1116.875 0.015625)"/>
     </g>
    </g>
    <g id="line2d_22">
     <path d="M 50.292898 96.49625 
L 60.292898 96.49625 
L 70.292898 96.49625 
" style="fill: none; stroke-dasharray: 5.55,2.4; stroke-dashoffset: 0; stroke: #008000; stroke-width: 1.5"/>
    </g>
    <g id="text_18">
     <!-- SS$_{eff}$ (%) for r_d=2.0 µm -->
     <g transform="translate(78.292898 99.99625) scale(0.1 -0.1)">
      <use xlink:href="#DejaVuSans-53" transform="translate(0 0.015625)"/>
      <use xlink:href="#DejaVuSans-53" transform="translate(63.476562 0.015625)"/>
      <use xlink:href="#DejaVuSans-Oblique-65" transform="translate(127.910156 -16.390625) scale(0.7)"/>
      <use xlink:href="#DejaVuSans-Oblique-66" transform="translate(170.976562 -16.390625) scale(0.7)"/>
      <use xlink:href="#DejaVuSans-Oblique-66" transform="translate(195.620117 -16.390625) scale(0.7)"/>
      <use xlink:href="#DejaVuSans-20" transform="translate(222.998047 0.015625)"/>
      <use xlink:href="#DejaVuSans-28" transform="translate(254.785156 0.015625)"/>
      <use xlink:href="#DejaVuSans-25" transform="translate(293.798828 0.015625)"/>
      <use xlink:href="#DejaVuSans-29" transform="translate(388.818359 0.015625)"/>
      <use xlink:href="#DejaVuSans-20" transform="translate(427.832031 0.015625)"/>
      <use xlink:href="#DejaVuSans-66" transform="translate(459.619141 0.015625)"/>
      <use xlink:href="#DejaVuSans-6f" transform="translate(494.824219 0.015625)"/>
      <use xlink:href="#DejaVuSans-72" transform="translate(556.005859 0.015625)"/>
      <use xlink:href="#DejaVuSans-20" transform="translate(597.119141 0.015625)"/>
      <use xlink:href="#DejaVuSans-72" transform="translate(628.90625 0.015625)"/>
      <use xlink:href="#DejaVuSans-5f" transform="translate(670.019531 0.015625)"/>
      <use xlink:href="#DejaVuSans-64" transform="translate(720.019531 0.015625)"/>
      <use xlink:href="#DejaVuSans-3d" transform="translate(783.496094 0.015625)"/>
      <use xlink:href="#DejaVuSans-32" transform="translate(867.285156 0.015625)"/>
      <use xlink:href="#DejaVuSans-2e" transform="translate(930.908203 0.015625)"/>
      <use xlink:href="#DejaVuSans-30" transform="translate(962.695312 0.015625)"/>
      <use xlink:href="#DejaVuSans-20" transform="translate(1026.318359 0.015625)"/>
      <use xlink:href="#DejaVuSans-b5" transform="translate(1058.105469 0.015625)"/>
      <use xlink:href="#DejaVuSans-6d" transform="translate(1121.728516 0.015625)"/>
     </g>
    </g>
    <g id="line2d_23">
     <path d="M 50.292898 111.49625 
L 60.292898 111.49625 
L 70.292898 111.49625 
" style="fill: none; stroke-dasharray: 1.5,2.475; stroke-dashoffset: 0; stroke: #0000ff; stroke-width: 1.5"/>
    </g>
    <g id="text_19">
     <!-- SS$_{eq}$ (%) for r_d=9.0 µm -->
     <g transform="translate(78.292898 114.99625) scale(0.1 -0.1)">
      <defs>
       <path id="DejaVuSans-39" d="M 703 97 
L 703 672 
Q 941 559 1184 500 
Q 1428 441 1663 441 
Q 2288 441 2617 861 
Q 2947 1281 2994 2138 
Q 2813 1869 2534 1725 
Q 2256 1581 1919 1581 
Q 1219 1581 811 2004 
Q 403 2428 403 3163 
Q 403 3881 828 4315 
Q 1253 4750 1959 4750 
Q 2769 4750 3195 4129 
Q 3622 3509 3622 2328 
Q 3622 1225 3098 567 
Q 2575 -91 1691 -91 
Q 1453 -91 1209 -44 
Q 966 3 703 97 
z
M 1959 2075 
Q 2384 2075 2632 2365 
Q 2881 2656 2881 3163 
Q 2881 3666 2632 3958 
Q 2384 4250 1959 4250 
Q 1534 4250 1286 3958 
Q 1038 3666 1038 3163 
Q 1038 2656 1286 2365 
Q 1534 2075 1959 2075 
z
" transform="scale(0.015625)"/>
      </defs>
      <use xlink:href="#DejaVuSans-53" transform="translate(0 0.015625)"/>
      <use xlink:href="#DejaVuSans-53" transform="translate(63.476562 0.015625)"/>
      <use xlink:href="#DejaVuSans-Oblique-65" transform="translate(127.910156 -16.390625) scale(0.7)"/>
      <use xlink:href="#DejaVuSans-Oblique-71" transform="translate(170.976562 -16.390625) scale(0.7)"/>
      <use xlink:href="#DejaVuSans-20" transform="translate(218.144531 0.015625)"/>
      <use xlink:href="#DejaVuSans-28" transform="translate(249.931641 0.015625)"/>
      <use xlink:href="#DejaVuSans-25" transform="translate(288.945312 0.015625)"/>
      <use xlink:href="#DejaVuSans-29" transform="translate(383.964844 0.015625)"/>
      <use xlink:href="#DejaVuSans-20" transform="translate(422.978516 0.015625)"/>
      <use xlink:href="#DejaVuSans-66" transform="translate(454.765625 0.015625)"/>
      <use xlink:href="#DejaVuSans-6f" transform="translate(489.970703 0.015625)"/>
      <use xlink:href="#DejaVuSans-72" transform="translate(551.152344 0.015625)"/>
      <use xlink:href="#DejaVuSans-20" transform="translate(592.265625 0.015625)"/>
      <use xlink:href="#DejaVuSans-72" transform="translate(624.052734 0.015625)"/>
      <use xlink:href="#DejaVuSans-5f" transform="translate(665.166016 0.015625)"/>
      <use xlink:href="#DejaVuSans-64" transform="translate(715.166016 0.015625)"/>
      <use xlink:href="#DejaVuSans-3d" transform="translate(778.642578 0.015625)"/>
      <use xlink:href="#DejaVuSans-39" transform="translate(862.431641 0.015625)"/>
      <use xlink:href="#DejaVuSans-2e" transform="translate(926.054688 0.015625)"/>
      <use xlink:href="#DejaVuSans-30" transform="translate(957.841797 0.015625)"/>
      <use xlink:href="#DejaVuSans-20" transform="translate(1021.464844 0.015625)"/>
      <use xlink:href="#DejaVuSans-b5" transform="translate(1053.251953 0.015625)"/>
      <use xlink:href="#DejaVuSans-6d" transform="translate(1116.875 0.015625)"/>
     </g>
    </g>
    <g id="line2d_24">
     <path d="M 50.292898 127.19625 
L 60.292898 127.19625 
L 70.292898 127.19625 
" style="fill: none; stroke-dasharray: 5.55,2.4; stroke-dashoffset: 0; stroke: #0000ff; stroke-width: 1.5"/>
    </g>
    <g id="text_20">
     <!-- SS$_{eff}$ (%) for r_d=9.0 µm -->
     <g transform="translate(78.292898 130.69625) scale(0.1 -0.1)">
      <use xlink:href="#DejaVuSans-53" transform="translate(0 0.015625)"/>
      <use xlink:href="#DejaVuSans-53" transform="translate(63.476562 0.015625)"/>
      <use xlink:href="#DejaVuSans-Oblique-65" transform="translate(127.910156 -16.390625) scale(0.7)"/>
      <use xlink:href="#DejaVuSans-Oblique-66" transform="translate(170.976562 -16.390625) scale(0.7)"/>
      <use xlink:href="#DejaVuSans-Oblique-66" transform="translate(195.620117 -16.390625) scale(0.7)"/>
      <use xlink:href="#DejaVuSans-20" transform="translate(222.998047 0.015625)"/>
      <use xlink:href="#DejaVuSans-28" transform="translate(254.785156 0.015625)"/>
      <use xlink:href="#DejaVuSans-25" transform="translate(293.798828 0.015625)"/>
      <use xlink:href="#DejaVuSans-29" transform="translate(388.818359 0.015625)"/>
      <use xlink:href="#DejaVuSans-20" transform="translate(427.832031 0.015625)"/>
      <use xlink:href="#DejaVuSans-66" transform="translate(459.619141 0.015625)"/>
      <use xlink:href="#DejaVuSans-6f" transform="translate(494.824219 0.015625)"/>
      <use xlink:href="#DejaVuSans-72" transform="translate(556.005859 0.015625)"/>
      <use xlink:href="#DejaVuSans-20" transform="translate(597.119141 0.015625)"/>
      <use xlink:href="#DejaVuSans-72" transform="translate(628.90625 0.015625)"/>
      <use xlink:href="#DejaVuSans-5f" transform="translate(670.019531 0.015625)"/>
      <use xlink:href="#DejaVuSans-64" transform="translate(720.019531 0.015625)"/>
      <use xlink:href="#DejaVuSans-3d" transform="translate(783.496094 0.015625)"/>
      <use xlink:href="#DejaVuSans-39" transform="translate(867.285156 0.015625)"/>
      <use xlink:href="#DejaVuSans-2e" transform="translate(930.908203 0.015625)"/>
      <use xlink:href="#DejaVuSans-30" transform="translate(962.695312 0.015625)"/>
      <use xlink:href="#DejaVuSans-20" transform="translate(1026.318359 0.015625)"/>
      <use xlink:href="#DejaVuSans-b5" transform="translate(1058.105469 0.015625)"/>
      <use xlink:href="#DejaVuSans-6d" transform="translate(1121.728516 0.015625)"/>
     </g>
    </g>
   </g>
  </g>
  <g id="axes_2">
   <g id="patch_8">
    <path d="M 241.758352 288.430125 
L 404.085625 288.430125 
L 404.085625 22.318125 
L 241.758352 22.318125 
z
" style="fill: #ffffff"/>
   </g>
   <g id="matplotlib.axis_3">
    <g id="xtick_4">
     <g id="line2d_25">
      <g>
       <use xlink:href="#mbc3e499f34" x="268.812898" y="288.430125" style="stroke: #000000; stroke-width: 0.8"/>
      </g>
     </g>
     <g id="text_21">
      <!-- −2 -->
      <g transform="translate(261.441804 303.028562) scale(0.1 -0.1)">
       <use xlink:href="#DejaVuSans-2212"/>
       <use xlink:href="#DejaVuSans-32" x="83.789062"/>
      </g>
     </g>
    </g>
    <g id="xtick_5">
     <g id="line2d_26">
      <g>
       <use xlink:href="#mbc3e499f34" x="322.921989" y="288.430125" style="stroke: #000000; stroke-width: 0.8"/>
      </g>
     </g>
     <g id="text_22">
      <!-- 0 -->
      <g transform="translate(319.740739 303.028562) scale(0.1 -0.1)">
       <use xlink:href="#DejaVuSans-30"/>
      </g>
     </g>
    </g>
    <g id="xtick_6">
     <g id="line2d_27">
      <g>
       <use xlink:href="#mbc3e499f34" x="377.03108" y="288.430125" style="stroke: #000000; stroke-width: 0.8"/>
      </g>
     </g>
     <g id="text_23">
      <!-- 2 -->
      <g transform="translate(373.84983 303.028562) scale(0.1 -0.1)">
       <use xlink:href="#DejaVuSans-32"/>
      </g>
     </g>
    </g>
    <g id="text_24">
     <!-- Supersaturation (%) -->
     <g transform="translate(272.536832 316.706687) scale(0.1 -0.1)">
      <use xlink:href="#DejaVuSans-53"/>
      <use xlink:href="#DejaVuSans-75" x="63.476562"/>
      <use xlink:href="#DejaVuSans-70" x="126.855469"/>
      <use xlink:href="#DejaVuSans-65" x="190.332031"/>
      <use xlink:href="#DejaVuSans-72" x="251.855469"/>
      <use xlink:href="#DejaVuSans-73" x="292.96875"/>
      <use xlink:href="#DejaVuSans-61" x="345.068359"/>
      <use xlink:href="#DejaVuSans-74" x="406.347656"/>
      <use xlink:href="#DejaVuSans-75" x="445.556641"/>
      <use xlink:href="#DejaVuSans-72" x="508.935547"/>
      <use xlink:href="#DejaVuSans-61" x="550.048828"/>
      <use xlink:href="#DejaVuSans-74" x="611.328125"/>
      <use xlink:href="#DejaVuSans-69" x="650.537109"/>
      <use xlink:href="#DejaVuSans-6f" x="678.320312"/>
      <use xlink:href="#DejaVuSans-6e" x="739.501953"/>
      <use xlink:href="#DejaVuSans-20" x="802.880859"/>
      <use xlink:href="#DejaVuSans-28" x="834.667969"/>
      <use xlink:href="#DejaVuSans-25" x="873.681641"/>
      <use xlink:href="#DejaVuSans-29" x="968.701172"/>
     </g>
    </g>
   </g>
   <g id="matplotlib.axis_4">
    <g id="ytick_8">
     <g id="line2d_28">
      <g>
       <use xlink:href="#mb97ada9c62" x="241.758352" y="288.430125" style="stroke: #000000; stroke-width: 0.8"/>
      </g>
     </g>
    </g>
    <g id="ytick_9">
     <g id="line2d_29">
      <g>
       <use xlink:href="#mb97ada9c62" x="241.758352" y="244.078125" style="stroke: #000000; stroke-width: 0.8"/>
      </g>
     </g>
    </g>
    <g id="ytick_10">
     <g id="line2d_30">
      <g>
       <use xlink:href="#mb97ada9c62" x="241.758352" y="199.726125" style="stroke: #000000; stroke-width: 0.8"/>
      </g>
     </g>
    </g>
    <g id="ytick_11">
     <g id="line2d_31">
      <g>
       <use xlink:href="#mb97ada9c62" x="241.758352" y="155.374125" style="stroke: #000000; stroke-width: 0.8"/>
      </g>
     </g>
    </g>
    <g id="ytick_12">
     <g id="line2d_32">
      <g>
       <use xlink:href="#mb97ada9c62" x="241.758352" y="111.022125" style="stroke: #000000; stroke-width: 0.8"/>
      </g>
     </g>
    </g>
    <g id="ytick_13">
     <g id="line2d_33">
      <g>
       <use xlink:href="#mb97ada9c62" x="241.758352" y="66.670125" style="stroke: #000000; stroke-width: 0.8"/>
      </g>
     </g>
    </g>
    <g id="ytick_14">
     <g id="line2d_34">
      <g>
       <use xlink:href="#mb97ada9c62" x="241.758352" y="22.318125" style="stroke: #000000; stroke-width: 0.8"/>
      </g>
     </g>
    </g>
   </g>
   <g id="line2d_35">
    <path d="M 324.873991 155.374125 
L 324.273741 156.261165 
L 321.903763 157.148205 
L 321.62741 158.035245 
L 321.579297 161.583405 
L 321.279399 219.241005 
L 320.927932 248.513325 
L 320.536979 264.480045 
L 320.088242 274.237485 
L 319.578269 280.446765 
L 319.100531 283.994925 
L 318.561143 286.656045 
L 318.046139 288.430125 
L 317.716899 289.317165 
L 317.716899 289.317165 
" clip-path="url(#pbaabeb9401)" style="fill: none; stroke: #000000; stroke-width: 1.5; stroke-linecap: square"/>
   </g>
   <g id="line2d_36">
    <path d="M 323.223266 155.374125 
L 323.342278 248.513325 
L 323.546592 283.107885 
L 323.686739 289.317165 
L 323.686739 289.317165 
" clip-path="url(#pbaabeb9401)" style="fill: none; stroke-dasharray: 1.5,2.475; stroke-dashoffset: 0; stroke: #ff0000; stroke-width: 1.5"/>
   </g>
   <g id="line2d_37">
    <path d="M 324.572714 155.374125 
L 323.972378 156.261165 
L 321.601863 157.148205 
L 321.324915 158.035245 
L 321.274347 161.583405 
L 320.941845 216.579885 
L 320.559736 245.852205 
L 320.157589 261.818925 
L 319.724828 271.576365 
L 319.269822 277.785645 
L 318.750847 282.220845 
L 318.094743 285.769005 
L 317.613452 287.543085 
L 316.952148 289.317165 
L 316.952148 289.317165 
" clip-path="url(#pbaabeb9401)" style="fill: none; stroke-dasharray: 5.55,2.4; stroke-dashoffset: 0; stroke: #ff0000; stroke-width: 1.5"/>
   </g>
   <g id="line2d_38">
    <path d="M 320.36606 155.374125 
L 320.455257 185.533485 
L 320.56669 273.350445 
L 320.513179 289.317165 
L 320.513179 289.317165 
" clip-path="url(#pbaabeb9401)" style="fill: none; stroke-dasharray: 1.5,2.475; stroke-dashoffset: 0; stroke: #008000; stroke-width: 1.5"/>
   </g>
   <g id="line2d_39">
    <path d="M 327.429919 155.374125 
L 326.823811 156.261165 
L 324.450703 157.148205 
L 324.171553 158.035245 
L 324.112578 161.583405 
L 323.587944 227.224365 
L 323.176573 253.835565 
L 322.754817 268.028205 
L 322.32844 276.011565 
L 321.846569 281.333805 
L 321.326589 284.881965 
L 320.72093 287.543085 
L 320.125709 289.317165 
L 320.125709 289.317165 
" clip-path="url(#pbaabeb9401)" style="fill: none; stroke-dasharray: 5.55,2.4; stroke-dashoffset: 0; stroke: #008000; stroke-width: 1.5"/>
   </g>
   <g id="line2d_40">
    <path d="M 304.555564 155.374125 
L 305.371432 170.453805 
L 306.52125 195.290925 
L 307.612588 223.676205 
L 308.618768 255.609645 
L 309.383818 286.656045 
L 309.43237 289.317165 
L 309.43237 289.317165 
" clip-path="url(#pbaabeb9401)" style="fill: none; stroke-dasharray: 1.5,2.475; stroke-dashoffset: 0; stroke: #0000ff; stroke-width: 1.5"/>
   </g>
   <g id="line2d_41">
    <path d="M 343.240415 155.374125 
L 342.585687 156.261165 
L 340.165125 157.148205 
L 339.838959 158.035245 
L 339.595324 161.583405 
L 338.225673 187.307565 
L 336.628584 221.902125 
L 334.803968 260.931885 
L 334.048594 272.463405 
L 333.463384 278.672685 
L 332.849197 283.107885 
L 332.320728 285.769005 
L 331.551244 288.430125 
L 331.206517 289.317165 
L 331.206517 289.317165 
" clip-path="url(#pbaabeb9401)" style="fill: none; stroke-dasharray: 5.55,2.4; stroke-dashoffset: 0; stroke: #0000ff; stroke-width: 1.5"/>
   </g>
   <g id="patch_9">
    <path d="M 241.758352 288.430125 
L 241.758352 22.318125 
" style="fill: none; stroke: #000000; stroke-width: 0.8; stroke-linejoin: miter; stroke-linecap: square"/>
   </g>
   <g id="patch_10">
    <path d="M 404.085625 288.430125 
L 404.085625 22.318125 
" style="fill: none; stroke: #000000; stroke-width: 0.8; stroke-linejoin: miter; stroke-linecap: square"/>
   </g>
   <g id="patch_11">
    <path d="M 241.758352 288.430125 
L 404.085625 288.430125 
" style="fill: none; stroke: #000000; stroke-width: 0.8; stroke-linejoin: miter; stroke-linecap: square"/>
   </g>
   <g id="patch_12">
    <path d="M 241.758352 22.318125 
L 404.085625 22.318125 
" style="fill: none; stroke: #000000; stroke-width: 0.8; stroke-linejoin: miter; stroke-linecap: square"/>
   </g>
   <g id="text_25">
    <!-- descent -->
    <g transform="translate(299.149801 16.318125) scale(0.12 -0.12)">
     <use xlink:href="#DejaVuSans-64"/>
     <use xlink:href="#DejaVuSans-65" x="63.476562"/>
     <use xlink:href="#DejaVuSans-73" x="125"/>
     <use xlink:href="#DejaVuSans-63" x="177.099609"/>
     <use xlink:href="#DejaVuSans-65" x="232.080078"/>
     <use xlink:href="#DejaVuSans-6e" x="293.603516"/>
     <use xlink:href="#DejaVuSans-74" x="356.982422"/>
    </g>
   </g>
   <g id="legend_2">
    <g id="patch_13">
     <path d="M 243.085625 137.09625 
L 397.085625 137.09625 
Q 399.085625 137.09625 399.085625 135.09625 
L 399.085625 29.318125 
Q 399.085625 27.318125 397.085625 27.318125 
L 243.085625 27.318125 
Q 241.085625 27.318125 241.085625 29.318125 
L 241.085625 135.09625 
Q 241.085625 137.09625 243.085625 137.09625 
z
" style="fill: #ffffff; opacity: 0.8; stroke: #cccccc; stroke-linejoin: miter"/>
    </g>
    <g id="line2d_42">
     <path d="M 245.085625 35.416562 
L 255.085625 35.416562 
L 265.085625 35.416562 
" style="fill: none; stroke: #000000; stroke-width: 1.5; stroke-linecap: square"/>
    </g>
    <g id="text_26">
     <!-- SS (%) -->
     <g transform="translate(273.085625 38.916562) scale(0.1 -0.1)">
      <use xlink:href="#DejaVuSans-53"/>
      <use xlink:href="#DejaVuSans-53" x="63.476562"/>
      <use xlink:href="#DejaVuSans-20" x="126.953125"/>
      <use xlink:href="#DejaVuSans-28" x="158.740234"/>
      <use xlink:href="#DejaVuSans-25" x="197.753906"/>
      <use xlink:href="#DejaVuSans-29" x="292.773438"/>
     </g>
    </g>
    <g id="line2d_43">
     <path d="M 245.085625 50.09625 
L 255.085625 50.09625 
L 265.085625 50.09625 
" style="fill: none; stroke-dasharray: 1.5,2.475; stroke-dashoffset: 0; stroke: #ff0000; stroke-width: 1.5"/>
    </g>
    <g id="text_27">
     <!-- SS$_{eq}$ (%) for r_d=0.1 µm -->
     <g transform="translate(273.085625 53.59625) scale(0.1 -0.1)">
      <use xlink:href="#DejaVuSans-53" transform="translate(0 0.015625)"/>
      <use xlink:href="#DejaVuSans-53" transform="translate(63.476562 0.015625)"/>
      <use xlink:href="#DejaVuSans-Oblique-65" transform="translate(127.910156 -16.390625) scale(0.7)"/>
      <use xlink:href="#DejaVuSans-Oblique-71" transform="translate(170.976562 -16.390625) scale(0.7)"/>
      <use xlink:href="#DejaVuSans-20" transform="translate(218.144531 0.015625)"/>
      <use xlink:href="#DejaVuSans-28" transform="translate(249.931641 0.015625)"/>
      <use xlink:href="#DejaVuSans-25" transform="translate(288.945312 0.015625)"/>
      <use xlink:href="#DejaVuSans-29" transform="translate(383.964844 0.015625)"/>
      <use xlink:href="#DejaVuSans-20" transform="translate(422.978516 0.015625)"/>
      <use xlink:href="#DejaVuSans-66" transform="translate(454.765625 0.015625)"/>
      <use xlink:href="#DejaVuSans-6f" transform="translate(489.970703 0.015625)"/>
      <use xlink:href="#DejaVuSans-72" transform="translate(551.152344 0.015625)"/>
      <use xlink:href="#DejaVuSans-20" transform="translate(592.265625 0.015625)"/>
      <use xlink:href="#DejaVuSans-72" transform="translate(624.052734 0.015625)"/>
      <use xlink:href="#DejaVuSans-5f" transform="translate(665.166016 0.015625)"/>
      <use xlink:href="#DejaVuSans-64" transform="translate(715.166016 0.015625)"/>
      <use xlink:href="#DejaVuSans-3d" transform="translate(778.642578 0.015625)"/>
      <use xlink:href="#DejaVuSans-30" transform="translate(862.431641 0.015625)"/>
      <use xlink:href="#DejaVuSans-2e" transform="translate(926.054688 0.015625)"/>
      <use xlink:href="#DejaVuSans-31" transform="translate(957.841797 0.015625)"/>
      <use xlink:href="#DejaVuSans-20" transform="translate(1021.464844 0.015625)"/>
      <use xlink:href="#DejaVuSans-b5" transform="translate(1053.251953 0.015625)"/>
      <use xlink:href="#DejaVuSans-6d" transform="translate(1116.875 0.015625)"/>
     </g>
    </g>
    <g id="line2d_44">
     <path d="M 245.085625 65.79625 
L 255.085625 65.79625 
L 265.085625 65.79625 
" style="fill: none; stroke-dasharray: 5.55,2.4; stroke-dashoffset: 0; stroke: #ff0000; stroke-width: 1.5"/>
    </g>
    <g id="text_28">
     <!-- SS$_{eff}$ (%) for r_d=0.1 µm -->
     <g transform="translate(273.085625 69.29625) scale(0.1 -0.1)">
      <use xlink:href="#DejaVuSans-53" transform="translate(0 0.015625)"/>
      <use xlink:href="#DejaVuSans-53" transform="translate(63.476562 0.015625)"/>
      <use xlink:href="#DejaVuSans-Oblique-65" transform="translate(127.910156 -16.390625) scale(0.7)"/>
      <use xlink:href="#DejaVuSans-Oblique-66" transform="translate(170.976562 -16.390625) scale(0.7)"/>
      <use xlink:href="#DejaVuSans-Oblique-66" transform="translate(195.620117 -16.390625) scale(0.7)"/>
      <use xlink:href="#DejaVuSans-20" transform="translate(222.998047 0.015625)"/>
      <use xlink:href="#DejaVuSans-28" transform="translate(254.785156 0.015625)"/>
      <use xlink:href="#DejaVuSans-25" transform="translate(293.798828 0.015625)"/>
      <use xlink:href="#DejaVuSans-29" transform="translate(388.818359 0.015625)"/>
      <use xlink:href="#DejaVuSans-20" transform="translate(427.832031 0.015625)"/>
      <use xlink:href="#DejaVuSans-66" transform="translate(459.619141 0.015625)"/>
      <use xlink:href="#DejaVuSans-6f" transform="translate(494.824219 0.015625)"/>
      <use xlink:href="#DejaVuSans-72" transform="translate(556.005859 0.015625)"/>
      <use xlink:href="#DejaVuSans-20" transform="translate(597.119141 0.015625)"/>
      <use xlink:href="#DejaVuSans-72" transform="translate(628.90625 0.015625)"/>
      <use xlink:href="#DejaVuSans-5f" transform="translate(670.019531 0.015625)"/>
      <use xlink:href="#DejaVuSans-64" transform="translate(720.019531 0.015625)"/>
      <use xlink:href="#DejaVuSans-3d" transform="translate(783.496094 0.015625)"/>
      <use xlink:href="#DejaVuSans-30" transform="translate(867.285156 0.015625)"/>
      <use xlink:href="#DejaVuSans-2e" transform="translate(930.908203 0.015625)"/>
      <use xlink:href="#DejaVuSans-31" transform="translate(962.695312 0.015625)"/>
      <use xlink:href="#DejaVuSans-20" transform="translate(1026.318359 0.015625)"/>
      <use xlink:href="#DejaVuSans-b5" transform="translate(1058.105469 0.015625)"/>
      <use xlink:href="#DejaVuSans-6d" transform="translate(1121.728516 0.015625)"/>
     </g>
    </g>
    <g id="line2d_45">
     <path d="M 245.085625 80.79625 
L 255.085625 80.79625 
L 265.085625 80.79625 
" style="fill: none; stroke-dasharray: 1.5,2.475; stroke-dashoffset: 0; stroke: #008000; stroke-width: 1.5"/>
    </g>
    <g id="text_29">
     <!-- SS$_{eq}$ (%) for r_d=2.0 µm -->
     <g transform="translate(273.085625 84.29625) scale(0.1 -0.1)">
      <use xlink:href="#DejaVuSans-53" transform="translate(0 0.015625)"/>
      <use xlink:href="#DejaVuSans-53" transform="translate(63.476562 0.015625)"/>
      <use xlink:href="#DejaVuSans-Oblique-65" transform="translate(127.910156 -16.390625) scale(0.7)"/>
      <use xlink:href="#DejaVuSans-Oblique-71" transform="translate(170.976562 -16.390625) scale(0.7)"/>
      <use xlink:href="#DejaVuSans-20" transform="translate(218.144531 0.015625)"/>
      <use xlink:href="#DejaVuSans-28" transform="translate(249.931641 0.015625)"/>
      <use xlink:href="#DejaVuSans-25" transform="translate(288.945312 0.015625)"/>
      <use xlink:href="#DejaVuSans-29" transform="translate(383.964844 0.015625)"/>
      <use xlink:href="#DejaVuSans-20" transform="translate(422.978516 0.015625)"/>
      <use xlink:href="#DejaVuSans-66" transform="translate(454.765625 0.015625)"/>
      <use xlink:href="#DejaVuSans-6f" transform="translate(489.970703 0.015625)"/>
      <use xlink:href="#DejaVuSans-72" transform="translate(551.152344 0.015625)"/>
      <use xlink:href="#DejaVuSans-20" transform="translate(592.265625 0.015625)"/>
      <use xlink:href="#DejaVuSans-72" transform="translate(624.052734 0.015625)"/>
      <use xlink:href="#DejaVuSans-5f" transform="translate(665.166016 0.015625)"/>
      <use xlink:href="#DejaVuSans-64" transform="translate(715.166016 0.015625)"/>
      <use xlink:href="#DejaVuSans-3d" transform="translate(778.642578 0.015625)"/>
      <use xlink:href="#DejaVuSans-32" transform="translate(862.431641 0.015625)"/>
      <use xlink:href="#DejaVuSans-2e" transform="translate(926.054688 0.015625)"/>
      <use xlink:href="#DejaVuSans-30" transform="translate(957.841797 0.015625)"/>
      <use xlink:href="#DejaVuSans-20" transform="translate(1021.464844 0.015625)"/>
      <use xlink:href="#DejaVuSans-b5" transform="translate(1053.251953 0.015625)"/>
      <use xlink:href="#DejaVuSans-6d" transform="translate(1116.875 0.015625)"/>
     </g>
    </g>
    <g id="line2d_46">
     <path d="M 245.085625 96.49625 
L 255.085625 96.49625 
L 265.085625 96.49625 
" style="fill: none; stroke-dasharray: 5.55,2.4; stroke-dashoffset: 0; stroke: #008000; stroke-width: 1.5"/>
    </g>
    <g id="text_30">
     <!-- SS$_{eff}$ (%) for r_d=2.0 µm -->
     <g transform="translate(273.085625 99.99625) scale(0.1 -0.1)">
      <use xlink:href="#DejaVuSans-53" transform="translate(0 0.015625)"/>
      <use xlink:href="#DejaVuSans-53" transform="translate(63.476562 0.015625)"/>
      <use xlink:href="#DejaVuSans-Oblique-65" transform="translate(127.910156 -16.390625) scale(0.7)"/>
      <use xlink:href="#DejaVuSans-Oblique-66" transform="translate(170.976562 -16.390625) scale(0.7)"/>
      <use xlink:href="#DejaVuSans-Oblique-66" transform="translate(195.620117 -16.390625) scale(0.7)"/>
      <use xlink:href="#DejaVuSans-20" transform="translate(222.998047 0.015625)"/>
      <use xlink:href="#DejaVuSans-28" transform="translate(254.785156 0.015625)"/>
      <use xlink:href="#DejaVuSans-25" transform="translate(293.798828 0.015625)"/>
      <use xlink:href="#DejaVuSans-29" transform="translate(388.818359 0.015625)"/>
      <use xlink:href="#DejaVuSans-20" transform="translate(427.832031 0.015625)"/>
      <use xlink:href="#DejaVuSans-66" transform="translate(459.619141 0.015625)"/>
      <use xlink:href="#DejaVuSans-6f" transform="translate(494.824219 0.015625)"/>
      <use xlink:href="#DejaVuSans-72" transform="translate(556.005859 0.015625)"/>
      <use xlink:href="#DejaVuSans-20" transform="translate(597.119141 0.015625)"/>
      <use xlink:href="#DejaVuSans-72" transform="translate(628.90625 0.015625)"/>
      <use xlink:href="#DejaVuSans-5f" transform="translate(670.019531 0.015625)"/>
      <use xlink:href="#DejaVuSans-64" transform="translate(720.019531 0.015625)"/>
      <use xlink:href="#DejaVuSans-3d" transform="translate(783.496094 0.015625)"/>
      <use xlink:href="#DejaVuSans-32" transform="translate(867.285156 0.015625)"/>
      <use xlink:href="#DejaVuSans-2e" transform="translate(930.908203 0.015625)"/>
      <use xlink:href="#DejaVuSans-30" transform="translate(962.695312 0.015625)"/>
      <use xlink:href="#DejaVuSans-20" transform="translate(1026.318359 0.015625)"/>
      <use xlink:href="#DejaVuSans-b5" transform="translate(1058.105469 0.015625)"/>
      <use xlink:href="#DejaVuSans-6d" transform="translate(1121.728516 0.015625)"/>
     </g>
    </g>
    <g id="line2d_47">
     <path d="M 245.085625 111.49625 
L 255.085625 111.49625 
L 265.085625 111.49625 
" style="fill: none; stroke-dasharray: 1.5,2.475; stroke-dashoffset: 0; stroke: #0000ff; stroke-width: 1.5"/>
    </g>
    <g id="text_31">
     <!-- SS$_{eq}$ (%) for r_d=9.0 µm -->
     <g transform="translate(273.085625 114.99625) scale(0.1 -0.1)">
      <use xlink:href="#DejaVuSans-53" transform="translate(0 0.015625)"/>
      <use xlink:href="#DejaVuSans-53" transform="translate(63.476562 0.015625)"/>
      <use xlink:href="#DejaVuSans-Oblique-65" transform="translate(127.910156 -16.390625) scale(0.7)"/>
      <use xlink:href="#DejaVuSans-Oblique-71" transform="translate(170.976562 -16.390625) scale(0.7)"/>
      <use xlink:href="#DejaVuSans-20" transform="translate(218.144531 0.015625)"/>
      <use xlink:href="#DejaVuSans-28" transform="translate(249.931641 0.015625)"/>
      <use xlink:href="#DejaVuSans-25" transform="translate(288.945312 0.015625)"/>
      <use xlink:href="#DejaVuSans-29" transform="translate(383.964844 0.015625)"/>
      <use xlink:href="#DejaVuSans-20" transform="translate(422.978516 0.015625)"/>
      <use xlink:href="#DejaVuSans-66" transform="translate(454.765625 0.015625)"/>
      <use xlink:href="#DejaVuSans-6f" transform="translate(489.970703 0.015625)"/>
      <use xlink:href="#DejaVuSans-72" transform="translate(551.152344 0.015625)"/>
      <use xlink:href="#DejaVuSans-20" transform="translate(592.265625 0.015625)"/>
      <use xlink:href="#DejaVuSans-72" transform="translate(624.052734 0.015625)"/>
      <use xlink:href="#DejaVuSans-5f" transform="translate(665.166016 0.015625)"/>
      <use xlink:href="#DejaVuSans-64" transform="translate(715.166016 0.015625)"/>
      <use xlink:href="#DejaVuSans-3d" transform="translate(778.642578 0.015625)"/>
      <use xlink:href="#DejaVuSans-39" transform="translate(862.431641 0.015625)"/>
      <use xlink:href="#DejaVuSans-2e" transform="translate(926.054688 0.015625)"/>
      <use xlink:href="#DejaVuSans-30" transform="translate(957.841797 0.015625)"/>
      <use xlink:href="#DejaVuSans-20" transform="translate(1021.464844 0.015625)"/>
      <use xlink:href="#DejaVuSans-b5" transform="translate(1053.251953 0.015625)"/>
      <use xlink:href="#DejaVuSans-6d" transform="translate(1116.875 0.015625)"/>
     </g>
    </g>
    <g id="line2d_48">
     <path d="M 245.085625 127.19625 
L 255.085625 127.19625 
L 265.085625 127.19625 
" style="fill: none; stroke-dasharray: 5.55,2.4; stroke-dashoffset: 0; stroke: #0000ff; stroke-width: 1.5"/>
    </g>
    <g id="text_32">
     <!-- SS$_{eff}$ (%) for r_d=9.0 µm -->
     <g transform="translate(273.085625 130.69625) scale(0.1 -0.1)">
      <use xlink:href="#DejaVuSans-53" transform="translate(0 0.015625)"/>
      <use xlink:href="#DejaVuSans-53" transform="translate(63.476562 0.015625)"/>
      <use xlink:href="#DejaVuSans-Oblique-65" transform="translate(127.910156 -16.390625) scale(0.7)"/>
      <use xlink:href="#DejaVuSans-Oblique-66" transform="translate(170.976562 -16.390625) scale(0.7)"/>
      <use xlink:href="#DejaVuSans-Oblique-66" transform="translate(195.620117 -16.390625) scale(0.7)"/>
      <use xlink:href="#DejaVuSans-20" transform="translate(222.998047 0.015625)"/>
      <use xlink:href="#DejaVuSans-28" transform="translate(254.785156 0.015625)"/>
      <use xlink:href="#DejaVuSans-25" transform="translate(293.798828 0.015625)"/>
      <use xlink:href="#DejaVuSans-29" transform="translate(388.818359 0.015625)"/>
      <use xlink:href="#DejaVuSans-20" transform="translate(427.832031 0.015625)"/>
      <use xlink:href="#DejaVuSans-66" transform="translate(459.619141 0.015625)"/>
      <use xlink:href="#DejaVuSans-6f" transform="translate(494.824219 0.015625)"/>
      <use xlink:href="#DejaVuSans-72" transform="translate(556.005859 0.015625)"/>
      <use xlink:href="#DejaVuSans-20" transform="translate(597.119141 0.015625)"/>
      <use xlink:href="#DejaVuSans-72" transform="translate(628.90625 0.015625)"/>
      <use xlink:href="#DejaVuSans-5f" transform="translate(670.019531 0.015625)"/>
      <use xlink:href="#DejaVuSans-64" transform="translate(720.019531 0.015625)"/>
      <use xlink:href="#DejaVuSans-3d" transform="translate(783.496094 0.015625)"/>
      <use xlink:href="#DejaVuSans-39" transform="translate(867.285156 0.015625)"/>
      <use xlink:href="#DejaVuSans-2e" transform="translate(930.908203 0.015625)"/>
      <use xlink:href="#DejaVuSans-30" transform="translate(962.695312 0.015625)"/>
      <use xlink:href="#DejaVuSans-20" transform="translate(1026.318359 0.015625)"/>
      <use xlink:href="#DejaVuSans-b5" transform="translate(1058.105469 0.015625)"/>
      <use xlink:href="#DejaVuSans-6d" transform="translate(1121.728516 0.015625)"/>
     </g>
    </g>
   </g>
  </g>
 </g>
 <defs>
  <clipPath id="p50a1a3dfe8">
   <rect x="46.965625" y="22.318125" width="162.327273" height="266.112"/>
  </clipPath>
  <clipPath id="pbaabeb9401">
   <rect x="241.758352" y="22.318125" width="162.327273" height="266.112"/>
  </clipPath>
 </defs>
</svg>
