<?xml version="1.0" encoding="utf-8" standalone="no"?>
<!DOCTYPE svg PUBLIC "-//W3C//DTD SVG 1.1//EN"
  "http://www.w3.org/Graphics/SVG/1.1/DTD/svg11.dtd">
<svg xmlns:xlink="http://www.w3.org/1999/xlink" width="453.6pt" height="338.4pt" viewBox="0 0 453.6 338.4" xmlns="http://www.w3.org/2000/svg" version="1.1">
 <metadata>
  <rdf:RDF xmlns:dc="http://purl.org/dc/elements/1.1/" xmlns:cc="http://creativecommons.org/ns#" xmlns:rdf="http://www.w3.org/1999/02/22-rdf-syntax-ns#">
   <cc:Work>
    <dc:type rdf:resource="http://purl.org/dc/dcmitype/StillImage"/>
    <dc:date>2024-11-08T22:52:51.781499</dc:date>
    <dc:format>image/svg+xml</dc:format>
    <dc:creator>
     <cc:Agent>
      <dc:title>Matplotlib v3.9.2, https://matplotlib.org/</dc:title>
     </cc:Agent>
    </dc:creator>
   </cc:Work>
  </rdf:RDF>
 </metadata>
 <defs>
  <style type="text/css">*{stroke-linejoin: round; stroke-linecap: butt}</style>
 </defs>
 <g id="figure_1">
  <g id="patch_1">
   <path d="M 0 338.4 
L 453.6 338.4 
L 453.6 0 
L 0 0 
z
" style="fill: #ffffff"/>
  </g>
  <g id="axes_1">
   <g id="patch_2">
    <path d="M 60.184375 295.971875 
L 329.059961 295.971875 
L 329.059961 7.2 
L 60.184375 7.2 
z
" style="fill: #ffffff"/>
   </g>
   <g id="matplotlib.axis_1">
    <g id="xtick_1">
     <g id="line2d_1">
      <path d="M 60.184375 295.971875 
L 60.184375 7.2 
" clip-path="url(#p59c4d91e46)" style="fill: none; stroke: #b0b0b0; stroke-width: 0.8; stroke-linecap: square"/>
     </g>
     <g id="line2d_2">
      <defs>
       <path id="ma99d344063" d="M 0 0 
L 0 3.5 
" style="stroke: #000000; stroke-width: 0.8"/>
      </defs>
      <g>
       <use xlink:href="#ma99d344063" x="60.184375" y="295.971875" style="stroke: #000000; stroke-width: 0.8"/>
      </g>
     </g>
     <g id="text_1">
      <!-- 0 -->
      <g transform="translate(57.003125 310.570312) scale(0.1 -0.1)">
       <defs>
        <path id="DejaVuSans-30" d="M 2034 4250 
Q 1547 4250 1301 3770 
Q 1056 3291 1056 2328 
Q 1056 1369 1301 889 
Q 1547 409 2034 409 
Q 2525 409 2770 889 
Q 3016 1369 3016 2328 
Q 3016 3291 2770 3770 
Q 2525 4250 2034 4250 
z
M 2034 4750 
Q 2819 4750 3233 4129 
Q 3647 3509 3647 2328 
Q 3647 1150 3233 529 
Q 2819 -91 2034 -91 
Q 1250 -91 836 529 
Q 422 1150 422 2328 
Q 422 3509 836 4129 
Q 1250 4750 2034 4750 
z
" transform="scale(0.015625)"/>
       </defs>
       <use xlink:href="#DejaVuSans-30"/>
      </g>
     </g>
    </g>
    <g id="xtick_2">
     <g id="line2d_3">
      <path d="M 104.996973 295.971875 
L 104.996973 7.2 
" clip-path="url(#p59c4d91e46)" style="fill: none; stroke: #b0b0b0; stroke-width: 0.8; stroke-linecap: square"/>
     </g>
     <g id="line2d_4">
      <g>
       <use xlink:href="#ma99d344063" x="104.996973" y="295.971875" style="stroke: #000000; stroke-width: 0.8"/>
      </g>
     </g>
     <g id="text_2">
      <!-- 10 -->
      <g transform="translate(98.634473 310.570312) scale(0.1 -0.1)">
       <defs>
        <path id="DejaVuSans-31" d="M 794 531 
L 1825 531 
L 1825 4091 
L 703 3866 
L 703 4441 
L 1819 4666 
L 2450 4666 
L 2450 531 
L 3481 531 
L 3481 0 
L 794 0 
L 794 531 
z
" transform="scale(0.015625)"/>
       </defs>
       <use xlink:href="#DejaVuSans-31"/>
       <use xlink:href="#DejaVuSans-30" x="63.623047"/>
      </g>
     </g>
    </g>
    <g id="xtick_3">
     <g id="line2d_5">
      <path d="M 149.80957 295.971875 
L 149.80957 7.2 
" clip-path="url(#p59c4d91e46)" style="fill: none; stroke: #b0b0b0; stroke-width: 0.8; stroke-linecap: square"/>
     </g>
     <g id="line2d_6">
      <g>
       <use xlink:href="#ma99d344063" x="149.80957" y="295.971875" style="stroke: #000000; stroke-width: 0.8"/>
      </g>
     </g>
     <g id="text_3">
      <!-- 20 -->
      <g transform="translate(143.44707 310.570312) scale(0.1 -0.1)">
       <defs>
        <path id="DejaVuSans-32" d="M 1228 531 
L 3431 531 
L 3431 0 
L 469 0 
L 469 531 
Q 828 903 1448 1529 
Q 2069 2156 2228 2338 
Q 2531 2678 2651 2914 
Q 2772 3150 2772 3378 
Q 2772 3750 2511 3984 
Q 2250 4219 1831 4219 
Q 1534 4219 1204 4116 
Q 875 4013 500 3803 
L 500 4441 
Q 881 4594 1212 4672 
Q 1544 4750 1819 4750 
Q 2544 4750 2975 4387 
Q 3406 4025 3406 3419 
Q 3406 3131 3298 2873 
Q 3191 2616 2906 2266 
Q 2828 2175 2409 1742 
Q 1991 1309 1228 531 
z
" transform="scale(0.015625)"/>
       </defs>
       <use xlink:href="#DejaVuSans-32"/>
       <use xlink:href="#DejaVuSans-30" x="63.623047"/>
      </g>
     </g>
    </g>
    <g id="xtick_4">
     <g id="line2d_7">
      <path d="M 194.622168 295.971875 
L 194.622168 7.2 
" clip-path="url(#p59c4d91e46)" style="fill: none; stroke: #b0b0b0; stroke-width: 0.8; stroke-linecap: square"/>
     </g>
     <g id="line2d_8">
      <g>
       <use xlink:href="#ma99d344063" x="194.622168" y="295.971875" style="stroke: #000000; stroke-width: 0.8"/>
      </g>
     </g>
     <g id="text_4">
      <!-- 30 -->
      <g transform="translate(188.259668 310.570312) scale(0.1 -0.1)">
       <defs>
        <path id="DejaVuSans-33" d="M 2597 2516 
Q 3050 2419 3304 2112 
Q 3559 1806 3559 1356 
Q 3559 666 3084 287 
Q 2609 -91 1734 -91 
Q 1441 -91 1130 -33 
Q 819 25 488 141 
L 488 750 
Q 750 597 1062 519 
Q 1375 441 1716 441 
Q 2309 441 2620 675 
Q 2931 909 2931 1356 
Q 2931 1769 2642 2001 
Q 2353 2234 1838 2234 
L 1294 2234 
L 1294 2753 
L 1863 2753 
Q 2328 2753 2575 2939 
Q 2822 3125 2822 3475 
Q 2822 3834 2567 4026 
Q 2313 4219 1838 4219 
Q 1578 4219 1281 4162 
Q 984 4106 628 3988 
L 628 4550 
Q 988 4650 1302 4700 
Q 1616 4750 1894 4750 
Q 2613 4750 3031 4423 
Q 3450 4097 3450 3541 
Q 3450 3153 3228 2886 
Q 3006 2619 2597 2516 
z
" transform="scale(0.015625)"/>
       </defs>
       <use xlink:href="#DejaVuSans-33"/>
       <use xlink:href="#DejaVuSans-30" x="63.623047"/>
      </g>
     </g>
    </g>
    <g id="xtick_5">
     <g id="line2d_9">
      <path d="M 239.434766 295.971875 
L 239.434766 7.2 
" clip-path="url(#p59c4d91e46)" style="fill: none; stroke: #b0b0b0; stroke-width: 0.8; stroke-linecap: square"/>
     </g>
     <g id="line2d_10">
      <g>
       <use xlink:href="#ma99d344063" x="239.434766" y="295.971875" style="stroke: #000000; stroke-width: 0.8"/>
      </g>
     </g>
     <g id="text_5">
      <!-- 40 -->
      <g transform="translate(233.072266 310.570312) scale(0.1 -0.1)">
       <defs>
        <path id="DejaVuSans-34" d="M 2419 4116 
L 825 1625 
L 2419 1625 
L 2419 4116 
z
M 2253 4666 
L 3047 4666 
L 3047 1625 
L 3713 1625 
L 3713 1100 
L 3047 1100 
L 3047 0 
L 2419 0 
L 2419 1100 
L 313 1100 
L 313 1709 
L 2253 4666 
z
" transform="scale(0.015625)"/>
       </defs>
       <use xlink:href="#DejaVuSans-34"/>
       <use xlink:href="#DejaVuSans-30" x="63.623047"/>
      </g>
     </g>
    </g>
    <g id="xtick_6">
     <g id="line2d_11">
      <path d="M 284.247363 295.971875 
L 284.247363 7.2 
" clip-path="url(#p59c4d91e46)" style="fill: none; stroke: #b0b0b0; stroke-width: 0.8; stroke-linecap: square"/>
     </g>
     <g id="line2d_12">
      <g>
       <use xlink:href="#ma99d344063" x="284.247363" y="295.971875" style="stroke: #000000; stroke-width: 0.8"/>
      </g>
     </g>
     <g id="text_6">
      <!-- 50 -->
      <g transform="translate(277.884863 310.570312) scale(0.1 -0.1)">
       <defs>
        <path id="DejaVuSans-35" d="M 691 4666 
L 3169 4666 
L 3169 4134 
L 1269 4134 
L 1269 2991 
Q 1406 3038 1543 3061 
Q 1681 3084 1819 3084 
Q 2600 3084 3056 2656 
Q 3513 2228 3513 1497 
Q 3513 744 3044 326 
Q 2575 -91 1722 -91 
Q 1428 -91 1123 -41 
Q 819 9 494 109 
L 494 744 
Q 775 591 1075 516 
Q 1375 441 1709 441 
Q 2250 441 2565 725 
Q 2881 1009 2881 1497 
Q 2881 1984 2565 2268 
Q 2250 2553 1709 2553 
Q 1456 2553 1204 2497 
Q 953 2441 691 2322 
L 691 4666 
z
" transform="scale(0.015625)"/>
       </defs>
       <use xlink:href="#DejaVuSans-35"/>
       <use xlink:href="#DejaVuSans-30" x="63.623047"/>
      </g>
     </g>
    </g>
    <g id="xtick_7">
     <g id="line2d_13">
      <path d="M 329.059961 295.971875 
L 329.059961 7.2 
" clip-path="url(#p59c4d91e46)" style="fill: none; stroke: #b0b0b0; stroke-width: 0.8; stroke-linecap: square"/>
     </g>
     <g id="line2d_14">
      <g>
       <use xlink:href="#ma99d344063" x="329.059961" y="295.971875" style="stroke: #000000; stroke-width: 0.8"/>
      </g>
     </g>
     <g id="text_7">
      <!-- 60 -->
      <g transform="translate(322.697461 310.570312) scale(0.1 -0.1)">
       <defs>
        <path id="DejaVuSans-36" d="M 2113 2584 
Q 1688 2584 1439 2293 
Q 1191 2003 1191 1497 
Q 1191 994 1439 701 
Q 1688 409 2113 409 
Q 2538 409 2786 701 
Q 3034 994 3034 1497 
Q 3034 2003 2786 2293 
Q 2538 2584 2113 2584 
z
M 3366 4563 
L 3366 3988 
Q 3128 4100 2886 4159 
Q 2644 4219 2406 4219 
Q 1781 4219 1451 3797 
Q 1122 3375 1075 2522 
Q 1259 2794 1537 2939 
Q 1816 3084 2150 3084 
Q 2853 3084 3261 2657 
Q 3669 2231 3669 1497 
Q 3669 778 3244 343 
Q 2819 -91 2113 -91 
Q 1303 -91 875 529 
Q 447 1150 447 2328 
Q 447 3434 972 4092 
Q 1497 4750 2381 4750 
Q 2619 4750 2861 4703 
Q 3103 4656 3366 4563 
z
" transform="scale(0.015625)"/>
       </defs>
       <use xlink:href="#DejaVuSans-36"/>
       <use xlink:href="#DejaVuSans-30" x="63.623047"/>
      </g>
     </g>
    </g>
    <g id="text_8">
     <!-- r$_c$ (µm) -->
     <g transform="translate(167.997168 328.05) scale(0.15 -0.15)">
      <defs>
       <path id="DejaVuSans-72" d="M 2631 2963 
Q 2534 3019 2420 3045 
Q 2306 3072 2169 3072 
Q 1681 3072 1420 2755 
Q 1159 2438 1159 1844 
L 1159 0 
L 581 0 
L 581 3500 
L 1159 3500 
L 1159 2956 
Q 1341 3275 1631 3429 
Q 1922 3584 2338 3584 
Q 2397 3584 2469 3576 
Q 2541 3569 2628 3553 
L 2631 2963 
z
" transform="scale(0.015625)"/>
       <path id="DejaVuSans-Oblique-63" d="M 3431 3366 
L 3316 2797 
Q 3109 2947 2876 3022 
Q 2644 3097 2394 3097 
Q 2119 3097 1870 3000 
Q 1622 2903 1453 2725 
Q 1184 2453 1037 2087 
Q 891 1722 891 1331 
Q 891 859 1127 628 
Q 1363 397 1844 397 
Q 2081 397 2348 469 
Q 2616 541 2906 684 
L 2797 116 
Q 2547 13 2283 -39 
Q 2019 -91 1741 -91 
Q 1044 -91 669 257 
Q 294 606 294 1253 
Q 294 1797 489 2255 
Q 684 2713 1069 3078 
Q 1331 3328 1684 3456 
Q 2038 3584 2456 3584 
Q 2700 3584 2940 3529 
Q 3181 3475 3431 3366 
z
" transform="scale(0.015625)"/>
       <path id="DejaVuSans-20" transform="scale(0.015625)"/>
       <path id="DejaVuSans-28" d="M 1984 4856 
Q 1566 4138 1362 3434 
Q 1159 2731 1159 2009 
Q 1159 1288 1364 580 
Q 1569 -128 1984 -844 
L 1484 -844 
Q 1016 -109 783 600 
Q 550 1309 550 2009 
Q 550 2706 781 3412 
Q 1013 4119 1484 4856 
L 1984 4856 
z
" transform="scale(0.015625)"/>
       <path id="DejaVuSans-b5" d="M 544 -1331 
L 544 3500 
L 1119 3500 
L 1119 1325 
Q 1119 872 1334 640 
Q 1550 409 1972 409 
Q 2434 409 2667 671 
Q 2900 934 2900 1459 
L 2900 3500 
L 3475 3500 
L 3475 806 
Q 3475 619 3529 530 
Q 3584 441 3700 441 
Q 3728 441 3778 458 
Q 3828 475 3916 513 
L 3916 50 
Q 3788 -22 3673 -56 
Q 3559 -91 3450 -91 
Q 3234 -91 3106 31 
Q 2978 153 2931 403 
Q 2775 156 2548 32 
Q 2322 -91 2016 -91 
Q 1697 -91 1473 31 
Q 1250 153 1119 397 
L 1119 -1331 
L 544 -1331 
z
" transform="scale(0.015625)"/>
       <path id="DejaVuSans-6d" d="M 3328 2828 
Q 3544 3216 3844 3400 
Q 4144 3584 4550 3584 
Q 5097 3584 5394 3201 
Q 5691 2819 5691 2113 
L 5691 0 
L 5113 0 
L 5113 2094 
Q 5113 2597 4934 2840 
Q 4756 3084 4391 3084 
Q 3944 3084 3684 2787 
Q 3425 2491 3425 1978 
L 3425 0 
L 2847 0 
L 2847 2094 
Q 2847 2600 2669 2842 
Q 2491 3084 2119 3084 
Q 1678 3084 1418 2786 
Q 1159 2488 1159 1978 
L 1159 0 
L 581 0 
L 581 3500 
L 1159 3500 
L 1159 2956 
Q 1356 3278 1631 3431 
Q 1906 3584 2284 3584 
Q 2666 3584 2933 3390 
Q 3200 3197 3328 2828 
z
" transform="scale(0.015625)"/>
       <path id="DejaVuSans-29" d="M 513 4856 
L 1013 4856 
Q 1481 4119 1714 3412 
Q 1947 2706 1947 2009 
Q 1947 1309 1714 600 
Q 1481 -109 1013 -844 
L 513 -844 
Q 928 -128 1133 580 
Q 1338 1288 1338 2009 
Q 1338 2731 1133 3434 
Q 928 4138 513 4856 
z
" transform="scale(0.015625)"/>
      </defs>
      <use xlink:href="#DejaVuSans-72" transform="translate(0 0.125)"/>
      <use xlink:href="#DejaVuSans-Oblique-63" transform="translate(42.070312 -16.28125) scale(0.7)"/>
      <use xlink:href="#DejaVuSans-20" transform="translate(83.291016 0.125)"/>
      <use xlink:href="#DejaVuSans-28" transform="translate(115.078125 0.125)"/>
      <use xlink:href="#DejaVuSans-b5" transform="translate(154.091797 0.125)"/>
      <use xlink:href="#DejaVuSans-6d" transform="translate(217.714844 0.125)"/>
      <use xlink:href="#DejaVuSans-29" transform="translate(315.126953 0.125)"/>
     </g>
    </g>
   </g>
   <g id="matplotlib.axis_2">
    <g id="ytick_1">
     <g id="line2d_15">
      <path d="M 60.184375 282.845881 
L 329.059961 282.845881 
" clip-path="url(#p59c4d91e46)" style="fill: none; stroke: #b0b0b0; stroke-width: 0.8; stroke-linecap: square"/>
     </g>
     <g id="line2d_16">
      <defs>
       <path id="m3826654c09" d="M 0 0 
L -3.5 0 
" style="stroke: #000000; stroke-width: 0.8"/>
      </defs>
      <g>
       <use xlink:href="#m3826654c09" x="60.184375" y="282.845881" style="stroke: #000000; stroke-width: 0.8"/>
      </g>
     </g>
     <g id="text_9">
      <!-- −300 -->
      <g transform="translate(25.717188 286.645099) scale(0.1 -0.1)">
       <defs>
        <path id="DejaVuSans-2212" d="M 678 2272 
L 4684 2272 
L 4684 1741 
L 678 1741 
L 678 2272 
z
" transform="scale(0.015625)"/>
       </defs>
       <use xlink:href="#DejaVuSans-2212"/>
       <use xlink:href="#DejaVuSans-33" x="83.789062"/>
       <use xlink:href="#DejaVuSans-30" x="147.412109"/>
       <use xlink:href="#DejaVuSans-30" x="211.035156"/>
      </g>
     </g>
    </g>
    <g id="ytick_2">
     <g id="line2d_17">
      <path d="M 60.184375 239.092566 
L 329.059961 239.092566 
" clip-path="url(#p59c4d91e46)" style="fill: none; stroke: #b0b0b0; stroke-width: 0.8; stroke-linecap: square"/>
     </g>
     <g id="line2d_18">
      <g>
       <use xlink:href="#m3826654c09" x="60.184375" y="239.092566" style="stroke: #000000; stroke-width: 0.8"/>
      </g>
     </g>
     <g id="text_10">
      <!-- −200 -->
      <g transform="translate(25.717188 242.891785) scale(0.1 -0.1)">
       <use xlink:href="#DejaVuSans-2212"/>
       <use xlink:href="#DejaVuSans-32" x="83.789062"/>
       <use xlink:href="#DejaVuSans-30" x="147.412109"/>
       <use xlink:href="#DejaVuSans-30" x="211.035156"/>
      </g>
     </g>
    </g>
    <g id="ytick_3">
     <g id="line2d_19">
      <path d="M 60.184375 195.339252 
L 329.059961 195.339252 
" clip-path="url(#p59c4d91e46)" style="fill: none; stroke: #b0b0b0; stroke-width: 0.8; stroke-linecap: square"/>
     </g>
     <g id="line2d_20">
      <g>
       <use xlink:href="#m3826654c09" x="60.184375" y="195.339252" style="stroke: #000000; stroke-width: 0.8"/>
      </g>
     </g>
     <g id="text_11">
      <!-- −100 -->
      <g transform="translate(25.717188 199.138471) scale(0.1 -0.1)">
       <use xlink:href="#DejaVuSans-2212"/>
       <use xlink:href="#DejaVuSans-31" x="83.789062"/>
       <use xlink:href="#DejaVuSans-30" x="147.412109"/>
       <use xlink:href="#DejaVuSans-30" x="211.035156"/>
      </g>
     </g>
    </g>
    <g id="ytick_4">
     <g id="line2d_21">
      <path d="M 60.184375 151.585938 
L 329.059961 151.585938 
" clip-path="url(#p59c4d91e46)" style="fill: none; stroke: #b0b0b0; stroke-width: 0.8; stroke-linecap: square"/>
     </g>
     <g id="line2d_22">
      <g>
       <use xlink:href="#m3826654c09" x="60.184375" y="151.585938" style="stroke: #000000; stroke-width: 0.8"/>
      </g>
     </g>
     <g id="text_12">
      <!-- 0 -->
      <g transform="translate(46.821875 155.385156) scale(0.1 -0.1)">
       <use xlink:href="#DejaVuSans-30"/>
      </g>
     </g>
    </g>
    <g id="ytick_5">
     <g id="line2d_23">
      <path d="M 60.184375 107.832623 
L 329.059961 107.832623 
" clip-path="url(#p59c4d91e46)" style="fill: none; stroke: #b0b0b0; stroke-width: 0.8; stroke-linecap: square"/>
     </g>
     <g id="line2d_24">
      <g>
       <use xlink:href="#m3826654c09" x="60.184375" y="107.832623" style="stroke: #000000; stroke-width: 0.8"/>
      </g>
     </g>
     <g id="text_13">
      <!-- 100 -->
      <g transform="translate(34.096875 111.631842) scale(0.1 -0.1)">
       <use xlink:href="#DejaVuSans-31"/>
       <use xlink:href="#DejaVuSans-30" x="63.623047"/>
       <use xlink:href="#DejaVuSans-30" x="127.246094"/>
      </g>
     </g>
    </g>
    <g id="ytick_6">
     <g id="line2d_25">
      <path d="M 60.184375 64.079309 
L 329.059961 64.079309 
" clip-path="url(#p59c4d91e46)" style="fill: none; stroke: #b0b0b0; stroke-width: 0.8; stroke-linecap: square"/>
     </g>
     <g id="line2d_26">
      <g>
       <use xlink:href="#m3826654c09" x="60.184375" y="64.079309" style="stroke: #000000; stroke-width: 0.8"/>
      </g>
     </g>
     <g id="text_14">
      <!-- 200 -->
      <g transform="translate(34.096875 67.878527) scale(0.1 -0.1)">
       <use xlink:href="#DejaVuSans-32"/>
       <use xlink:href="#DejaVuSans-30" x="63.623047"/>
       <use xlink:href="#DejaVuSans-30" x="127.246094"/>
      </g>
     </g>
    </g>
    <g id="ytick_7">
     <g id="line2d_27">
      <path d="M 60.184375 20.325994 
L 329.059961 20.325994 
" clip-path="url(#p59c4d91e46)" style="fill: none; stroke: #b0b0b0; stroke-width: 0.8; stroke-linecap: square"/>
     </g>
     <g id="line2d_28">
      <g>
       <use xlink:href="#m3826654c09" x="60.184375" y="20.325994" style="stroke: #000000; stroke-width: 0.8"/>
      </g>
     </g>
     <g id="text_15">
      <!-- 300 -->
      <g transform="translate(34.096875 24.125213) scale(0.1 -0.1)">
       <use xlink:href="#DejaVuSans-33"/>
       <use xlink:href="#DejaVuSans-30" x="63.623047"/>
       <use xlink:href="#DejaVuSans-30" x="127.246094"/>
      </g>
     </g>
    </g>
    <g id="text_16">
     <!-- Height above cloud base (m) -->
     <g transform="translate(18.597656 260.262109) rotate(-90) scale(0.15 -0.15)">
      <defs>
       <path id="DejaVuSans-48" d="M 628 4666 
L 1259 4666 
L 1259 2753 
L 3553 2753 
L 3553 4666 
L 4184 4666 
L 4184 0 
L 3553 0 
L 3553 2222 
L 1259 2222 
L 1259 0 
L 628 0 
L 628 4666 
z
" transform="scale(0.015625)"/>
       <path id="DejaVuSans-65" d="M 3597 1894 
L 3597 1613 
L 953 1613 
Q 991 1019 1311 708 
Q 1631 397 2203 397 
Q 2534 397 2845 478 
Q 3156 559 3463 722 
L 3463 178 
Q 3153 47 2828 -22 
Q 2503 -91 2169 -91 
Q 1331 -91 842 396 
Q 353 884 353 1716 
Q 353 2575 817 3079 
Q 1281 3584 2069 3584 
Q 2775 3584 3186 3129 
Q 3597 2675 3597 1894 
z
M 3022 2063 
Q 3016 2534 2758 2815 
Q 2500 3097 2075 3097 
Q 1594 3097 1305 2825 
Q 1016 2553 972 2059 
L 3022 2063 
z
" transform="scale(0.015625)"/>
       <path id="DejaVuSans-69" d="M 603 3500 
L 1178 3500 
L 1178 0 
L 603 0 
L 603 3500 
z
M 603 4863 
L 1178 4863 
L 1178 4134 
L 603 4134 
L 603 4863 
z
" transform="scale(0.015625)"/>
       <path id="DejaVuSans-67" d="M 2906 1791 
Q 2906 2416 2648 2759 
Q 2391 3103 1925 3103 
Q 1463 3103 1205 2759 
Q 947 2416 947 1791 
Q 947 1169 1205 825 
Q 1463 481 1925 481 
Q 2391 481 2648 825 
Q 2906 1169 2906 1791 
z
M 3481 434 
Q 3481 -459 3084 -895 
Q 2688 -1331 1869 -1331 
Q 1566 -1331 1297 -1286 
Q 1028 -1241 775 -1147 
L 775 -588 
Q 1028 -725 1275 -790 
Q 1522 -856 1778 -856 
Q 2344 -856 2625 -561 
Q 2906 -266 2906 331 
L 2906 616 
Q 2728 306 2450 153 
Q 2172 0 1784 0 
Q 1141 0 747 490 
Q 353 981 353 1791 
Q 353 2603 747 3093 
Q 1141 3584 1784 3584 
Q 2172 3584 2450 3431 
Q 2728 3278 2906 2969 
L 2906 3500 
L 3481 3500 
L 3481 434 
z
" transform="scale(0.015625)"/>
       <path id="DejaVuSans-68" d="M 3513 2113 
L 3513 0 
L 2938 0 
L 2938 2094 
Q 2938 2591 2744 2837 
Q 2550 3084 2163 3084 
Q 1697 3084 1428 2787 
Q 1159 2491 1159 1978 
L 1159 0 
L 581 0 
L 581 4863 
L 1159 4863 
L 1159 2956 
Q 1366 3272 1645 3428 
Q 1925 3584 2291 3584 
Q 2894 3584 3203 3211 
Q 3513 2838 3513 2113 
z
" transform="scale(0.015625)"/>
       <path id="DejaVuSans-74" d="M 1172 4494 
L 1172 3500 
L 2356 3500 
L 2356 3053 
L 1172 3053 
L 1172 1153 
Q 1172 725 1289 603 
Q 1406 481 1766 481 
L 2356 481 
L 2356 0 
L 1766 0 
Q 1100 0 847 248 
Q 594 497 594 1153 
L 594 3053 
L 172 3053 
L 172 3500 
L 594 3500 
L 594 4494 
L 1172 4494 
z
" transform="scale(0.015625)"/>
       <path id="DejaVuSans-61" d="M 2194 1759 
Q 1497 1759 1228 1600 
Q 959 1441 959 1056 
Q 959 750 1161 570 
Q 1363 391 1709 391 
Q 2188 391 2477 730 
Q 2766 1069 2766 1631 
L 2766 1759 
L 2194 1759 
z
M 3341 1997 
L 3341 0 
L 2766 0 
L 2766 531 
Q 2569 213 2275 61 
Q 1981 -91 1556 -91 
Q 1019 -91 701 211 
Q 384 513 384 1019 
Q 384 1609 779 1909 
Q 1175 2209 1959 2209 
L 2766 2209 
L 2766 2266 
Q 2766 2663 2505 2880 
Q 2244 3097 1772 3097 
Q 1472 3097 1187 3025 
Q 903 2953 641 2809 
L 641 3341 
Q 956 3463 1253 3523 
Q 1550 3584 1831 3584 
Q 2591 3584 2966 3190 
Q 3341 2797 3341 1997 
z
" transform="scale(0.015625)"/>
       <path id="DejaVuSans-62" d="M 3116 1747 
Q 3116 2381 2855 2742 
Q 2594 3103 2138 3103 
Q 1681 3103 1420 2742 
Q 1159 2381 1159 1747 
Q 1159 1113 1420 752 
Q 1681 391 2138 391 
Q 2594 391 2855 752 
Q 3116 1113 3116 1747 
z
M 1159 2969 
Q 1341 3281 1617 3432 
Q 1894 3584 2278 3584 
Q 2916 3584 3314 3078 
Q 3713 2572 3713 1747 
Q 3713 922 3314 415 
Q 2916 -91 2278 -91 
Q 1894 -91 1617 61 
Q 1341 213 1159 525 
L 1159 0 
L 581 0 
L 581 4863 
L 1159 4863 
L 1159 2969 
z
" transform="scale(0.015625)"/>
       <path id="DejaVuSans-6f" d="M 1959 3097 
Q 1497 3097 1228 2736 
Q 959 2375 959 1747 
Q 959 1119 1226 758 
Q 1494 397 1959 397 
Q 2419 397 2687 759 
Q 2956 1122 2956 1747 
Q 2956 2369 2687 2733 
Q 2419 3097 1959 3097 
z
M 1959 3584 
Q 2709 3584 3137 3096 
Q 3566 2609 3566 1747 
Q 3566 888 3137 398 
Q 2709 -91 1959 -91 
Q 1206 -91 779 398 
Q 353 888 353 1747 
Q 353 2609 779 3096 
Q 1206 3584 1959 3584 
z
" transform="scale(0.015625)"/>
       <path id="DejaVuSans-76" d="M 191 3500 
L 800 3500 
L 1894 563 
L 2988 3500 
L 3597 3500 
L 2284 0 
L 1503 0 
L 191 3500 
z
" transform="scale(0.015625)"/>
       <path id="DejaVuSans-63" d="M 3122 3366 
L 3122 2828 
Q 2878 2963 2633 3030 
Q 2388 3097 2138 3097 
Q 1578 3097 1268 2742 
Q 959 2388 959 1747 
Q 959 1106 1268 751 
Q 1578 397 2138 397 
Q 2388 397 2633 464 
Q 2878 531 3122 666 
L 3122 134 
Q 2881 22 2623 -34 
Q 2366 -91 2075 -91 
Q 1284 -91 818 406 
Q 353 903 353 1747 
Q 353 2603 823 3093 
Q 1294 3584 2113 3584 
Q 2378 3584 2631 3529 
Q 2884 3475 3122 3366 
z
" transform="scale(0.015625)"/>
       <path id="DejaVuSans-6c" d="M 603 4863 
L 1178 4863 
L 1178 0 
L 603 0 
L 603 4863 
z
" transform="scale(0.015625)"/>
       <path id="DejaVuSans-75" d="M 544 1381 
L 544 3500 
L 1119 3500 
L 1119 1403 
Q 1119 906 1312 657 
Q 1506 409 1894 409 
Q 2359 409 2629 706 
Q 2900 1003 2900 1516 
L 2900 3500 
L 3475 3500 
L 3475 0 
L 2900 0 
L 2900 538 
Q 2691 219 2414 64 
Q 2138 -91 1772 -91 
Q 1169 -91 856 284 
Q 544 659 544 1381 
z
M 1991 3584 
L 1991 3584 
z
" transform="scale(0.015625)"/>
       <path id="DejaVuSans-64" d="M 2906 2969 
L 2906 4863 
L 3481 4863 
L 3481 0 
L 2906 0 
L 2906 525 
Q 2725 213 2448 61 
Q 2172 -91 1784 -91 
Q 1150 -91 751 415 
Q 353 922 353 1747 
Q 353 2572 751 3078 
Q 1150 3584 1784 3584 
Q 2172 3584 2448 3432 
Q 2725 3281 2906 2969 
z
M 947 1747 
Q 947 1113 1208 752 
Q 1469 391 1925 391 
Q 2381 391 2643 752 
Q 2906 1113 2906 1747 
Q 2906 2381 2643 2742 
Q 2381 3103 1925 3103 
Q 1469 3103 1208 2742 
Q 947 2381 947 1747 
z
" transform="scale(0.015625)"/>
       <path id="DejaVuSans-73" d="M 2834 3397 
L 2834 2853 
Q 2591 2978 2328 3040 
Q 2066 3103 1784 3103 
Q 1356 3103 1142 2972 
Q 928 2841 928 2578 
Q 928 2378 1081 2264 
Q 1234 2150 1697 2047 
L 1894 2003 
Q 2506 1872 2764 1633 
Q 3022 1394 3022 966 
Q 3022 478 2636 193 
Q 2250 -91 1575 -91 
Q 1294 -91 989 -36 
Q 684 19 347 128 
L 347 722 
Q 666 556 975 473 
Q 1284 391 1588 391 
Q 1994 391 2212 530 
Q 2431 669 2431 922 
Q 2431 1156 2273 1281 
Q 2116 1406 1581 1522 
L 1381 1569 
Q 847 1681 609 1914 
Q 372 2147 372 2553 
Q 372 3047 722 3315 
Q 1072 3584 1716 3584 
Q 2034 3584 2315 3537 
Q 2597 3491 2834 3397 
z
" transform="scale(0.015625)"/>
      </defs>
      <use xlink:href="#DejaVuSans-48"/>
      <use xlink:href="#DejaVuSans-65" x="75.195312"/>
      <use xlink:href="#DejaVuSans-69" x="136.71875"/>
      <use xlink:href="#DejaVuSans-67" x="164.501953"/>
      <use xlink:href="#DejaVuSans-68" x="227.978516"/>
      <use xlink:href="#DejaVuSans-74" x="291.357422"/>
      <use xlink:href="#DejaVuSans-20" x="330.566406"/>
      <use xlink:href="#DejaVuSans-61" x="362.353516"/>
      <use xlink:href="#DejaVuSans-62" x="423.632812"/>
      <use xlink:href="#DejaVuSans-6f" x="487.109375"/>
      <use xlink:href="#DejaVuSans-76" x="548.291016"/>
      <use xlink:href="#DejaVuSans-65" x="607.470703"/>
      <use xlink:href="#DejaVuSans-20" x="668.994141"/>
      <use xlink:href="#DejaVuSans-63" x="700.78125"/>
      <use xlink:href="#DejaVuSans-6c" x="755.761719"/>
      <use xlink:href="#DejaVuSans-6f" x="783.544922"/>
      <use xlink:href="#DejaVuSans-75" x="844.726562"/>
      <use xlink:href="#DejaVuSans-64" x="908.105469"/>
      <use xlink:href="#DejaVuSans-20" x="971.582031"/>
      <use xlink:href="#DejaVuSans-62" x="1003.369141"/>
      <use xlink:href="#DejaVuSans-61" x="1066.845703"/>
      <use xlink:href="#DejaVuSans-73" x="1128.125"/>
      <use xlink:href="#DejaVuSans-65" x="1180.224609"/>
      <use xlink:href="#DejaVuSans-20" x="1241.748047"/>
      <use xlink:href="#DejaVuSans-28" x="1273.535156"/>
      <use xlink:href="#DejaVuSans-6d" x="1312.548828"/>
      <use xlink:href="#DejaVuSans-29" x="1409.960938"/>
     </g>
    </g>
   </g>
   <g id="line2d_29">
    <path d="M 61.098473 282.845881 
L 61.338657 214.59071 
L 61.631598 183.96339 
L 61.965406 169.96233 
L 62.281955 163.836866 
L 62.627275 160.3366 
L 62.921819 158.586468 
L 63.418563 156.836335 
L 63.820758 155.961269 
L 64.406543 155.086203 
L 65.256951 154.211136 
L 66.427918 153.33607 
L 69.597719 151.585938 
L 73.096954 149.835805 
L 76.027895 148.085672 
L 77.177709 147.210606 
L 78.952818 145.460473 
L 80.265757 143.710341 
L 81.795835 141.085142 
L 83.058667 138.459943 
L 84.507886 134.959678 
L 86.072925 130.584347 
L 87.704471 125.333949 
L 89.370098 119.208485 
L 91.048993 112.207955 
L 92.903285 103.457292 
L 94.712388 93.831563 
L 96.619458 82.455701 
L 98.586353 69.329706 
L 100.586402 54.45358 
L 102.70182 36.952254 
L 104.434127 21.201061 
L 104.434127 21.201061 
" clip-path="url(#p59c4d91e46)" style="fill: none; stroke: #ff0000; stroke-width: 1.5; stroke-linecap: square"/>
   </g>
   <g id="line2d_30">
    <path d="M 104.526302 20.325994 
L 104.428006 22.076127 
L 102.413243 40.452519 
L 100.288291 57.953845 
L 98.153048 73.705038 
L 96.160557 86.831032 
L 94.224821 98.206894 
L 92.384276 107.832623 
L 90.492639 116.583286 
L 88.774737 123.583816 
L 87.065031 129.70928 
L 85.385155 134.959678 
L 83.770294 139.335009 
L 82.276264 142.835275 
L 80.514427 146.33554 
L 78.925959 148.960739 
L 77.67267 150.710871 
L 76.184263 152.461004 
L 76.184263 152.461004 
" clip-path="url(#p59c4d91e46)" style="fill: none; stroke: #0000ff; stroke-width: 1.5; stroke-linecap: square"/>
   </g>
   <g id="line2d_31">
    <path d="M 69.458009 282.845881 
L 69.932472 263.594422 
L 70.675519 240.842699 
L 71.462426 223.341373 
L 72.261107 210.215379 
L 73.113677 199.714583 
L 73.953733 191.838987 
L 74.792657 185.713523 
L 75.707878 180.463125 
L 76.676564 176.087794 
L 77.64829 172.587528 
L 78.872938 169.087263 
L 80.024316 166.462064 
L 81.451452 163.836866 
L 82.601533 162.086733 
L 83.949341 160.3366 
L 85.531854 158.586468 
L 87.385542 156.836335 
L 89.539078 155.086203 
L 91.995368 153.33607 
L 98.516516 148.960739 
L 100.533308 147.210606 
L 102.096797 145.460473 
L 103.357129 143.710341 
L 104.928543 141.085142 
L 106.695644 137.584877 
L 108.586098 133.209545 
L 110.235644 128.834214 
L 111.986796 123.583816 
L 113.796579 117.458352 
L 115.634951 110.457822 
L 117.481349 102.582225 
L 119.495761 92.956496 
L 121.460611 82.455701 
L 123.517303 70.204773 
L 125.627425 56.203712 
L 127.763264 40.452519 
L 129.905208 22.951193 
L 130.108067 21.201061 
L 130.108067 21.201061 
" clip-path="url(#p59c4d91e46)" style="fill: none; stroke: #ff0000; stroke-width: 1.5; stroke-linecap: square"/>
   </g>
   <g id="line2d_32">
    <path d="M 130.208789 20.325994 
L 130.197014 22.951193 
L 129.057845 61.45411 
L 128.023811 89.456231 
L 127.039063 110.457822 
L 126.13995 125.333949 
L 125.234707 136.709811 
L 124.383823 144.585407 
L 123.596138 149.835805 
L 123.066375 152.461004 
L 123.066375 152.461004 
" clip-path="url(#p59c4d91e46)" style="fill: none; stroke: #0000ff; stroke-width: 1.5; stroke-linecap: square"/>
   </g>
   <g id="line2d_33">
    <path d="M 78.743044 282.845881 
L 79.184562 273.220152 
L 80.204008 254.843759 
L 81.240743 239.967633 
L 82.301536 227.716705 
L 83.424809 217.215909 
L 84.575357 208.465246 
L 85.691959 201.464716 
L 86.865192 195.339252 
L 88.06708 190.088854 
L 89.513258 184.838456 
L 90.968382 180.463125 
L 92.348082 176.96286 
L 93.974679 173.462595 
L 95.396633 170.837396 
L 97.030369 168.212197 
L 98.917187 165.586998 
L 101.103565 162.961799 
L 103.638682 160.3366 
L 106.569536 157.711402 
L 109.930885 155.086203 
L 113.701193 152.461004 
L 117.558635 149.835805 
L 119.804336 148.085672 
L 121.65858 146.33554 
L 123.202037 144.585407 
L 125.159276 141.960208 
L 127.387042 138.459943 
L 129.33841 134.959678 
L 131.502397 130.584347 
L 133.79968 125.333949 
L 135.849939 120.083551 
L 138.001919 113.958087 
L 140.214228 106.957557 
L 142.456305 99.08196 
L 144.706053 90.331297 
L 146.947759 80.705568 
L 149.170423 70.204773 
L 151.527494 57.953845 
L 153.825274 44.82785 
L 156.199276 29.951723 
L 157.499932 21.201061 
L 157.499932 21.201061 
" clip-path="url(#p59c4d91e46)" style="fill: none; stroke: #ff0000; stroke-width: 1.5; stroke-linecap: square"/>
   </g>
   <g id="line2d_34">
    <path d="M 157.626499 20.325994 
L 157.805635 23.826259 
L 158.946329 56.203712 
L 159.749926 85.0809 
L 160.174661 107.832623 
L 160.292662 126.209015 
L 160.180724 139.335009 
L 159.905533 147.210606 
L 159.511324 152.461004 
L 159.511324 152.461004 
" clip-path="url(#p59c4d91e46)" style="fill: none; stroke: #0000ff; stroke-width: 1.5; stroke-linecap: square"/>
   </g>
   <g id="line2d_35">
    <path d="M 88.028068 282.845881 
L 88.366548 277.595483 
L 89.583106 261.84429 
L 90.802726 248.718295 
L 92.065032 237.342434 
L 93.458726 226.841638 
L 94.845191 218.090975 
L 96.327215 210.215379 
L 97.89173 203.214848 
L 99.512266 197.089384 
L 101.144418 191.838987 
L 102.722829 187.463655 
L 104.55041 183.088324 
L 106.23309 179.588059 
L 108.154338 176.087794 
L 110.361735 172.587528 
L 112.238278 169.96233 
L 114.333118 167.337131 
L 116.673961 164.711932 
L 119.288855 162.086733 
L 122.204332 159.461534 
L 125.442372 156.836335 
L 129.011387 154.211136 
L 137.621503 148.085672 
L 139.550692 146.33554 
L 141.209896 144.585407 
L 143.373568 141.960208 
L 145.889 138.459943 
L 148.12166 134.959678 
L 150.620768 130.584347 
L 152.869677 126.209015 
L 155.310694 120.958617 
L 157.878475 114.833153 
L 160.20666 108.707689 
L 162.63229 101.707159 
L 165.118498 93.831563 
L 167.636877 85.0809 
L 170.165933 75.45517 
L 172.689637 64.954375 
L 175.19619 53.578513 
L 177.846588 40.452519 
L 180.438114 26.451458 
L 181.355942 21.201061 
L 181.355942 21.201061 
" clip-path="url(#p59c4d91e46)" style="fill: none; stroke: #ff0000; stroke-width: 1.5; stroke-linecap: square"/>
   </g>
   <g id="line2d_36">
    <path d="M 181.506289 20.325994 
L 181.838777 23.826259 
L 183.869713 49.203182 
L 185.680836 74.580104 
L 187.154659 98.206894 
L 188.246686 119.208485 
L 188.852289 134.959678 
L 189.032911 144.585407 
L 188.963267 151.585938 
L 188.928102 152.461004 
L 188.928102 152.461004 
" clip-path="url(#p59c4d91e46)" style="fill: none; stroke: #0000ff; stroke-width: 1.5; stroke-linecap: square"/>
   </g>
   <g id="line2d_37">
    <path d="M 97.313088 282.845881 
L 97.58849 279.345616 
L 98.979718 265.344555 
L 100.411244 253.093627 
L 101.845551 242.592831 
L 103.37796 232.967102 
L 105.00401 224.216439 
L 106.711867 216.340843 
L 108.479225 209.340313 
L 110.270045 203.214848 
L 112.032042 197.964451 
L 114.053703 192.714053 
L 115.980751 188.338722 
L 118.175285 183.96339 
L 120.159695 180.463125 
L 122.382645 176.96286 
L 124.881282 173.462595 
L 127.696655 169.96233 
L 130.872464 166.462064 
L 133.517469 163.836866 
L 136.407769 161.211667 
L 139.558832 158.586468 
L 142.981331 155.961269 
L 147.943108 152.461004 
L 152.904655 148.960739 
L 155.037043 147.210606 
L 156.894022 145.460473 
L 159.318716 142.835275 
L 162.141678 139.335009 
L 164.65657 135.834744 
L 167.482273 131.459413 
L 170.033322 127.084081 
L 172.80956 121.833684 
L 175.336281 116.583286 
L 178.029788 110.457822 
L 180.835808 103.457292 
L 183.404763 96.456761 
L 186.061998 88.581165 
L 188.775165 79.830502 
L 191.518692 70.204773 
L 194.272667 59.703977 
L 197.021776 48.328116 
L 199.754368 36.077188 
L 202.461667 22.951193 
L 202.807362 21.201061 
L 202.807362 21.201061 
" clip-path="url(#p59c4d91e46)" style="fill: none; stroke: #ff0000; stroke-width: 1.5; stroke-linecap: square"/>
   </g>
   <g id="line2d_38">
    <path d="M 202.978948 20.325994 
L 203.537857 24.701326 
L 206.045943 46.577983 
L 208.426968 69.329706 
L 210.582283 92.08143 
L 212.353325 113.083021 
L 213.617774 130.584347 
L 214.306325 142.835275 
L 214.54234 150.710871 
L 214.546628 152.461004 
L 214.546628 152.461004 
" clip-path="url(#p59c4d91e46)" style="fill: none; stroke: #0000ff; stroke-width: 1.5; stroke-linecap: square"/>
   </g>
   <g id="line2d_39">
    <path d="M 106.598076 282.845881 
L 106.823 280.220682 
L 108.305243 267.969754 
L 109.892244 256.593892 
L 111.584078 246.093097 
L 113.203497 237.342434 
L 114.864269 229.466837 
L 116.539663 222.466307 
L 118.445629 215.465777 
L 120.345005 209.340313 
L 122.182165 204.089915 
L 124.25161 198.839517 
L 126.186773 194.464186 
L 128.347841 190.088854 
L 130.773333 185.713523 
L 132.93417 182.213258 
L 135.319122 178.712992 
L 137.956941 175.212727 
L 140.878503 171.712462 
L 144.115949 168.212197 
L 147.701348 164.711932 
L 151.664762 161.211667 
L 156.031211 157.711402 
L 160.810709 154.211136 
L 169.401927 148.085672 
L 171.434835 146.33554 
L 174.092162 143.710341 
L 176.445741 141.085142 
L 179.276712 137.584877 
L 181.845994 134.084612 
L 184.770328 129.70928 
L 187.438138 125.333949 
L 190.366454 120.083551 
L 193.050935 114.833153 
L 195.930036 108.707689 
L 198.945881 101.707159 
L 201.719665 94.706629 
L 204.599852 86.831032 
L 207.550755 78.080369 
L 210.543649 68.45464 
L 213.555768 57.953845 
L 216.569295 46.577983 
L 219.570431 34.327055 
L 222.548593 21.201061 
L 222.548593 21.201061 
" clip-path="url(#p59c4d91e46)" style="fill: none; stroke: #ff0000; stroke-width: 1.5; stroke-linecap: square"/>
   </g>
   <g id="line2d_40">
    <path d="M 222.739345 20.325994 
L 223.426343 24.701326 
L 226.197858 43.952784 
L 228.990105 64.954375 
L 231.557646 85.955966 
L 233.900009 106.957557 
L 235.737017 125.333949 
L 237.010233 140.210076 
L 237.619617 149.835805 
L 237.712532 152.461004 
L 237.712532 152.461004 
" clip-path="url(#p59c4d91e46)" style="fill: none; stroke: #0000ff; stroke-width: 1.5; stroke-linecap: square"/>
   </g>
   <g id="line2d_41">
    <path d="M 115.882978 282.845881 
L 116.018511 281.095748 
L 117.103308 273.220152 
L 118.876777 261.84429 
L 120.585836 252.218561 
L 122.34372 243.467898 
L 124.128453 235.592301 
L 126.147125 227.716705 
L 128.180245 220.716174 
L 130.182147 214.59071 
L 132.43398 208.465246 
L 134.600704 203.214848 
L 137.026216 197.964451 
L 139.278282 193.589119 
L 141.773403 189.213788 
L 144.547439 184.838456 
L 146.994463 181.338191 
L 149.668321 177.837926 
L 152.592952 174.337661 
L 155.793128 170.837396 
L 159.293675 167.337131 
L 163.118395 163.836866 
L 167.288578 160.3366 
L 171.820292 156.836335 
L 176.709547 153.33607 
L 182.921526 148.960739 
L 186.115796 146.33554 
L 188.857439 143.710341 
L 192.083901 140.210076 
L 194.98769 136.709811 
L 198.280294 132.334479 
L 201.276308 127.959148 
L 204.558308 122.70875 
L 207.562031 117.458352 
L 210.77899 111.332888 
L 213.739719 105.207424 
L 216.862891 98.206894 
L 219.752764 91.206364 
L 222.769054 83.330767 
L 225.873967 74.580104 
L 229.036368 64.954375 
L 232.231031 54.45358 
L 235.437769 43.077718 
L 238.640603 30.82679 
L 240.999908 21.201061 
L 240.999908 21.201061 
" clip-path="url(#p59c4d91e46)" style="fill: none; stroke: #ff0000; stroke-width: 1.5; stroke-linecap: square"/>
   </g>
   <g id="line2d_42">
    <path d="M 241.208158 20.325994 
L 242.15981 25.576392 
L 245.257088 43.952784 
L 248.273034 63.204242 
L 251.197089 83.330767 
L 253.895334 103.457292 
L 256.24939 122.70875 
L 257.956271 138.459943 
L 258.885737 148.960739 
L 259.106996 152.461004 
L 259.106996 152.461004 
" clip-path="url(#p59c4d91e46)" style="fill: none; stroke: #0000ff; stroke-width: 1.5; stroke-linecap: square"/>
   </g>
   <g id="line2d_43">
    <path d="M 125.168175 282.845881 
L 125.304564 281.095748 
L 126.10833 275.84535 
L 127.936979 265.344555 
L 129.827175 255.718826 
L 131.760477 246.968163 
L 133.711346 239.092566 
L 135.902633 231.21697 
L 138.092432 224.216439 
L 140.231145 218.090975 
L 142.615622 211.965511 
L 144.888444 206.715114 
L 147.407644 201.464716 
L 149.723272 197.089384 
L 152.263169 192.714053 
L 155.056643 188.338722 
L 158.136217 183.96339 
L 161.537341 179.588059 
L 164.515058 176.087794 
L 167.742608 172.587528 
L 171.239877 169.087263 
L 175.026015 165.586998 
L 179.118513 162.086733 
L 183.531783 158.586468 
L 188.272781 155.086203 
L 198.096553 148.085672 
L 201.170856 145.460473 
L 203.877126 142.835275 
L 207.127885 139.335009 
L 210.088264 135.834744 
L 213.472247 131.459413 
L 216.571871 127.084081 
L 219.986284 121.833684 
L 223.126146 116.583286 
L 226.502652 110.457822 
L 229.621222 104.332358 
L 232.920921 97.331828 
L 235.982234 90.331297 
L 239.184806 82.455701 
L 242.488412 73.705038 
L 245.859571 64.079309 
L 248.996172 54.45358 
L 252.188942 43.952784 
L 255.415861 32.576922 
L 258.434422 21.201061 
L 258.434422 21.201061 
" clip-path="url(#p59c4d91e46)" style="fill: none; stroke: #ff0000; stroke-width: 1.5; stroke-linecap: square"/>
   </g>
   <g id="line2d_44">
    <path d="M 258.6588 20.325994 
L 259.729719 25.576392 
L 263.071519 43.077718 
L 266.346522 61.45411 
L 269.54492 80.705568 
L 272.519148 99.957027 
L 275.264602 119.208485 
L 277.412995 135.834744 
L 278.685185 147.210606 
L 279.146857 152.461004 
L 279.146857 152.461004 
" clip-path="url(#p59c4d91e46)" style="fill: none; stroke: #0000ff; stroke-width: 1.5; stroke-linecap: square"/>
   </g>
   <g id="line2d_45">
    <path d="M 132.596196 282.845881 
L 132.731267 281.095748 
L 133.443914 276.720417 
L 135.270447 267.094688 
L 137.316575 257.468958 
L 139.402538 248.718295 
L 141.499945 240.842699 
L 143.571808 233.842169 
L 145.874162 226.841638 
L 148.110348 220.716174 
L 150.588633 214.59071 
L 152.936091 209.340313 
L 155.521137 204.089915 
L 158.378579 198.839517 
L 160.996528 194.464186 
L 163.857247 190.088854 
L 166.989192 185.713523 
L 170.423063 181.338191 
L 174.19128 176.96286 
L 177.468956 173.462595 
L 180.998888 169.96233 
L 184.797375 166.462064 
L 188.879369 162.961799 
L 193.257455 159.461534 
L 197.939267 155.961269 
L 205.423784 150.710871 
L 208.980395 148.085672 
L 212.08865 145.460473 
L 214.846285 142.835275 
L 218.177086 139.335009 
L 221.223034 135.834744 
L 224.716834 131.459413 
L 227.926663 127.084081 
L 231.471656 121.833684 
L 234.739013 116.583286 
L 238.25955 110.457822 
L 241.516757 104.332358 
L 244.968309 97.331828 
L 248.174707 90.331297 
L 251.532892 82.455701 
L 255.000658 73.705038 
L 258.231341 64.954375 
L 261.550266 55.328646 
L 264.92936 44.82785 
L 268.345224 33.451989 
L 271.77857 21.201061 
L 271.77857 21.201061 
" clip-path="url(#p59c4d91e46)" style="fill: none; stroke: #ff0000; stroke-width: 1.5; stroke-linecap: square"/>
   </g>
   <g id="line2d_46">
    <path d="M 272.015016 20.325994 
L 273.173086 25.576392 
L 276.622026 42.202652 
L 280.023317 59.703977 
L 283.366599 78.080369 
L 286.636114 97.331828 
L 289.536926 115.70822 
L 291.952365 132.334479 
L 293.651252 145.460473 
L 294.391506 152.461004 
L 294.391506 152.461004 
" clip-path="url(#p59c4d91e46)" style="fill: none; stroke: #0000ff; stroke-width: 1.5; stroke-linecap: square"/>
   </g>
   <g id="line2d_47">
    <path d="M 143.738229 282.845881 
L 143.869023 281.095748 
L 144.468258 277.595483 
L 146.129044 269.719886 
L 148.390671 260.094157 
L 150.68585 251.343494 
L 152.982036 243.467898 
L 155.238231 236.467367 
L 157.730747 229.466837 
L 160.136284 223.341373 
L 162.784079 217.215909 
L 165.274161 211.965511 
L 167.995937 206.715114 
L 170.97984 201.464716 
L 174.26017 196.214318 
L 177.247652 191.838987 
L 180.491483 187.463655 
L 184.017221 183.088324 
L 187.851515 178.712992 
L 192.021491 174.337661 
L 196.553908 169.96233 
L 201.474028 165.586998 
L 206.804073 161.211667 
L 212.560152 156.836335 
L 218.725309 152.461004 
L 223.660253 148.960739 
L 226.949535 146.33554 
L 229.866916 143.710341 
L 233.384032 140.210076 
L 236.604362 136.709811 
L 240.30621 132.334479 
L 243.714518 127.959148 
L 247.486098 122.70875 
L 250.96843 117.458352 
L 254.207607 112.207955 
L 257.725956 106.082491 
L 261.004431 99.957027 
L 264.500409 92.956496 
L 268.159934 85.0809 
L 271.571621 77.205303 
L 275.113016 68.45464 
L 278.747664 58.828911 
L 282.146479 49.203182 
L 285.621423 38.702386 
L 289.147698 27.326525 
L 290.955181 21.201061 
L 290.955181 21.201061 
" clip-path="url(#p59c4d91e46)" style="fill: none; stroke: #ff0000; stroke-width: 1.5; stroke-linecap: square"/>
   </g>
   <g id="line2d_48">
    <path d="M 291.208546 20.325994 
L 292.693569 26.451458 
L 296.304523 42.202652 
L 299.890041 58.828911 
L 303.438535 76.330237 
L 306.934918 94.706629 
L 310.204216 113.083021 
L 313.091093 130.584347 
L 315.182125 144.585407 
L 316.178763 152.461004 
L 316.178763 152.461004 
" clip-path="url(#p59c4d91e46)" style="fill: none; stroke: #0000ff; stroke-width: 1.5; stroke-linecap: square"/>
   </g>
   <g id="patch_3">
    <path d="M 60.184375 295.971875 
L 60.184375 7.2 
" style="fill: none; stroke: #000000; stroke-width: 0.8; stroke-linejoin: miter; stroke-linecap: square"/>
   </g>
   <g id="patch_4">
    <path d="M 329.059961 295.971875 
L 329.059961 7.2 
" style="fill: none; stroke: #000000; stroke-width: 0.8; stroke-linejoin: miter; stroke-linecap: square"/>
   </g>
   <g id="patch_5">
    <path d="M 60.184375 295.971875 
L 329.059961 295.971875 
" style="fill: none; stroke: #000000; stroke-width: 0.8; stroke-linejoin: miter; stroke-linecap: square"/>
   </g>
   <g id="patch_6">
    <path d="M 60.184375 7.2 
L 329.059961 7.2 
" style="fill: none; stroke: #000000; stroke-width: 0.8; stroke-linejoin: miter; stroke-linecap: square"/>
   </g>
   <g id="legend_1">
    <g id="patch_7">
     <path d="M 254.875586 290.971875 
L 322.059961 290.971875 
Q 324.059961 290.971875 324.059961 288.971875 
L 324.059961 143.190625 
Q 324.059961 141.190625 322.059961 141.190625 
L 254.875586 141.190625 
Q 252.875586 141.190625 252.875586 143.190625 
L 252.875586 288.971875 
Q 252.875586 290.971875 254.875586 290.971875 
z
" style="fill: #ffffff; opacity: 0.8; stroke: #cccccc; stroke-linejoin: miter"/>
    </g>
    <g id="line2d_49">
     <path d="M 256.875586 149.289062 
L 266.875586 149.289062 
L 276.875586 149.289062 
" style="fill: none; stroke: #ff0000; stroke-width: 1.5; stroke-linecap: square"/>
    </g>
    <g id="text_17">
     <!-- 0.1 µm -->
     <g transform="translate(284.875586 152.789062) scale(0.1 -0.1)">
      <defs>
       <path id="DejaVuSans-2e" d="M 684 794 
L 1344 794 
L 1344 0 
L 684 0 
L 684 794 
z
" transform="scale(0.015625)"/>
      </defs>
      <use xlink:href="#DejaVuSans-30"/>
      <use xlink:href="#DejaVuSans-2e" x="63.623047"/>
      <use xlink:href="#DejaVuSans-31" x="95.410156"/>
      <use xlink:href="#DejaVuSans-20" x="159.033203"/>
      <use xlink:href="#DejaVuSans-b5" x="190.820312"/>
      <use xlink:href="#DejaVuSans-6d" x="254.443359"/>
     </g>
    </g>
    <g id="line2d_50">
     <path d="M 256.875586 163.967188 
L 266.875586 163.967188 
L 276.875586 163.967188 
" style="fill: none; stroke: #ff0000; stroke-width: 1.5; stroke-linecap: square"/>
    </g>
    <g id="text_18">
     <!-- 1.0 µm -->
     <g transform="translate(284.875586 167.467188) scale(0.1 -0.1)">
      <use xlink:href="#DejaVuSans-31"/>
      <use xlink:href="#DejaVuSans-2e" x="63.623047"/>
      <use xlink:href="#DejaVuSans-30" x="95.410156"/>
      <use xlink:href="#DejaVuSans-20" x="159.033203"/>
      <use xlink:href="#DejaVuSans-b5" x="190.820312"/>
      <use xlink:href="#DejaVuSans-6d" x="254.443359"/>
     </g>
    </g>
    <g id="line2d_51">
     <path d="M 256.875586 178.645313 
L 266.875586 178.645313 
L 276.875586 178.645313 
" style="fill: none; stroke: #ff0000; stroke-width: 1.5; stroke-linecap: square"/>
    </g>
    <g id="text_19">
     <!-- 2.0 µm -->
     <g transform="translate(284.875586 182.145313) scale(0.1 -0.1)">
      <use xlink:href="#DejaVuSans-32"/>
      <use xlink:href="#DejaVuSans-2e" x="63.623047"/>
      <use xlink:href="#DejaVuSans-30" x="95.410156"/>
      <use xlink:href="#DejaVuSans-20" x="159.033203"/>
      <use xlink:href="#DejaVuSans-b5" x="190.820312"/>
      <use xlink:href="#DejaVuSans-6d" x="254.443359"/>
     </g>
    </g>
    <g id="line2d_52">
     <path d="M 256.875586 193.323438 
L 266.875586 193.323438 
L 276.875586 193.323438 
" style="fill: none; stroke: #ff0000; stroke-width: 1.5; stroke-linecap: square"/>
    </g>
    <g id="text_20">
     <!-- 3.0 µm -->
     <g transform="translate(284.875586 196.823438) scale(0.1 -0.1)">
      <use xlink:href="#DejaVuSans-33"/>
      <use xlink:href="#DejaVuSans-2e" x="63.623047"/>
      <use xlink:href="#DejaVuSans-30" x="95.410156"/>
      <use xlink:href="#DejaVuSans-20" x="159.033203"/>
      <use xlink:href="#DejaVuSans-b5" x="190.820312"/>
      <use xlink:href="#DejaVuSans-6d" x="254.443359"/>
     </g>
    </g>
    <g id="line2d_53">
     <path d="M 256.875586 208.001563 
L 266.875586 208.001563 
L 276.875586 208.001563 
" style="fill: none; stroke: #ff0000; stroke-width: 1.5; stroke-linecap: square"/>
    </g>
    <g id="text_21">
     <!-- 4.0 µm -->
     <g transform="translate(284.875586 211.501563) scale(0.1 -0.1)">
      <use xlink:href="#DejaVuSans-34"/>
      <use xlink:href="#DejaVuSans-2e" x="63.623047"/>
      <use xlink:href="#DejaVuSans-30" x="95.410156"/>
      <use xlink:href="#DejaVuSans-20" x="159.033203"/>
      <use xlink:href="#DejaVuSans-b5" x="190.820312"/>
      <use xlink:href="#DejaVuSans-6d" x="254.443359"/>
     </g>
    </g>
    <g id="line2d_54">
     <path d="M 256.875586 222.679688 
L 266.875586 222.679688 
L 276.875586 222.679688 
" style="fill: none; stroke: #ff0000; stroke-width: 1.5; stroke-linecap: square"/>
    </g>
    <g id="text_22">
     <!-- 5.0 µm -->
     <g transform="translate(284.875586 226.179688) scale(0.1 -0.1)">
      <use xlink:href="#DejaVuSans-35"/>
      <use xlink:href="#DejaVuSans-2e" x="63.623047"/>
      <use xlink:href="#DejaVuSans-30" x="95.410156"/>
      <use xlink:href="#DejaVuSans-20" x="159.033203"/>
      <use xlink:href="#DejaVuSans-b5" x="190.820312"/>
      <use xlink:href="#DejaVuSans-6d" x="254.443359"/>
     </g>
    </g>
    <g id="line2d_55">
     <path d="M 256.875586 237.357813 
L 266.875586 237.357813 
L 276.875586 237.357813 
" style="fill: none; stroke: #ff0000; stroke-width: 1.5; stroke-linecap: square"/>
    </g>
    <g id="text_23">
     <!-- 6.0 µm -->
     <g transform="translate(284.875586 240.857813) scale(0.1 -0.1)">
      <use xlink:href="#DejaVuSans-36"/>
      <use xlink:href="#DejaVuSans-2e" x="63.623047"/>
      <use xlink:href="#DejaVuSans-30" x="95.410156"/>
      <use xlink:href="#DejaVuSans-20" x="159.033203"/>
      <use xlink:href="#DejaVuSans-b5" x="190.820312"/>
      <use xlink:href="#DejaVuSans-6d" x="254.443359"/>
     </g>
    </g>
    <g id="line2d_56">
     <path d="M 256.875586 252.035937 
L 266.875586 252.035937 
L 276.875586 252.035937 
" style="fill: none; stroke: #ff0000; stroke-width: 1.5; stroke-linecap: square"/>
    </g>
    <g id="text_24">
     <!-- 7.0 µm -->
     <g transform="translate(284.875586 255.535937) scale(0.1 -0.1)">
      <defs>
       <path id="DejaVuSans-37" d="M 525 4666 
L 3525 4666 
L 3525 4397 
L 1831 0 
L 1172 0 
L 2766 4134 
L 525 4134 
L 525 4666 
z
" transform="scale(0.015625)"/>
      </defs>
      <use xlink:href="#DejaVuSans-37"/>
      <use xlink:href="#DejaVuSans-2e" x="63.623047"/>
      <use xlink:href="#DejaVuSans-30" x="95.410156"/>
      <use xlink:href="#DejaVuSans-20" x="159.033203"/>
      <use xlink:href="#DejaVuSans-b5" x="190.820312"/>
      <use xlink:href="#DejaVuSans-6d" x="254.443359"/>
     </g>
    </g>
    <g id="line2d_57">
     <path d="M 256.875586 266.714063 
L 266.875586 266.714063 
L 276.875586 266.714063 
" style="fill: none; stroke: #ff0000; stroke-width: 1.5; stroke-linecap: square"/>
    </g>
    <g id="text_25">
     <!-- 7.8 µm -->
     <g transform="translate(284.875586 270.214063) scale(0.1 -0.1)">
      <defs>
       <path id="DejaVuSans-38" d="M 2034 2216 
Q 1584 2216 1326 1975 
Q 1069 1734 1069 1313 
Q 1069 891 1326 650 
Q 1584 409 2034 409 
Q 2484 409 2743 651 
Q 3003 894 3003 1313 
Q 3003 1734 2745 1975 
Q 2488 2216 2034 2216 
z
M 1403 2484 
Q 997 2584 770 2862 
Q 544 3141 544 3541 
Q 544 4100 942 4425 
Q 1341 4750 2034 4750 
Q 2731 4750 3128 4425 
Q 3525 4100 3525 3541 
Q 3525 3141 3298 2862 
Q 3072 2584 2669 2484 
Q 3125 2378 3379 2068 
Q 3634 1759 3634 1313 
Q 3634 634 3220 271 
Q 2806 -91 2034 -91 
Q 1263 -91 848 271 
Q 434 634 434 1313 
Q 434 1759 690 2068 
Q 947 2378 1403 2484 
z
M 1172 3481 
Q 1172 3119 1398 2916 
Q 1625 2713 2034 2713 
Q 2441 2713 2670 2916 
Q 2900 3119 2900 3481 
Q 2900 3844 2670 4047 
Q 2441 4250 2034 4250 
Q 1625 4250 1398 4047 
Q 1172 3844 1172 3481 
z
" transform="scale(0.015625)"/>
      </defs>
      <use xlink:href="#DejaVuSans-37"/>
      <use xlink:href="#DejaVuSans-2e" x="63.623047"/>
      <use xlink:href="#DejaVuSans-38" x="95.410156"/>
      <use xlink:href="#DejaVuSans-20" x="159.033203"/>
      <use xlink:href="#DejaVuSans-b5" x="190.820312"/>
      <use xlink:href="#DejaVuSans-6d" x="254.443359"/>
     </g>
    </g>
    <g id="line2d_58">
     <path d="M 256.875586 281.392187 
L 266.875586 281.392187 
L 276.875586 281.392187 
" style="fill: none; stroke: #ff0000; stroke-width: 1.5; stroke-linecap: square"/>
    </g>
    <g id="text_26">
     <!-- 9.0 µm -->
     <g transform="translate(284.875586 284.892187) scale(0.1 -0.1)">
      <defs>
       <path id="DejaVuSans-39" d="M 703 97 
L 703 672 
Q 941 559 1184 500 
Q 1428 441 1663 441 
Q 2288 441 2617 861 
Q 2947 1281 2994 2138 
Q 2813 1869 2534 1725 
Q 2256 1581 1919 1581 
Q 1219 1581 811 2004 
Q 403 2428 403 3163 
Q 403 3881 828 4315 
Q 1253 4750 1959 4750 
Q 2769 4750 3195 4129 
Q 3622 3509 3622 2328 
Q 3622 1225 3098 567 
Q 2575 -91 1691 -91 
Q 1453 -91 1209 -44 
Q 966 3 703 97 
z
M 1959 2075 
Q 2384 2075 2632 2365 
Q 2881 2656 2881 3163 
Q 2881 3666 2632 3958 
Q 2384 4250 1959 4250 
Q 1534 4250 1286 3958 
Q 1038 3666 1038 3163 
Q 1038 2656 1286 2365 
Q 1534 2075 1959 2075 
z
" transform="scale(0.015625)"/>
      </defs>
      <use xlink:href="#DejaVuSans-39"/>
      <use xlink:href="#DejaVuSans-2e" x="63.623047"/>
      <use xlink:href="#DejaVuSans-30" x="95.410156"/>
      <use xlink:href="#DejaVuSans-20" x="159.033203"/>
      <use xlink:href="#DejaVuSans-b5" x="190.820312"/>
      <use xlink:href="#DejaVuSans-6d" x="254.443359"/>
     </g>
    </g>
   </g>
  </g>
  <g id="axes_2">
   <g id="patch_8">
    <path d="M 353.593555 295.971875 
L 443.21875 295.971875 
L 443.21875 7.2 
L 353.593555 7.2 
z
" style="fill: #ffffff"/>
   </g>
   <g id="matplotlib.axis_3">
    <g id="xtick_8">
     <g id="line2d_59">
      <path d="M 353.593555 295.971875 
L 353.593555 7.2 
" clip-path="url(#p6599ed7601)" style="fill: none; stroke: #b0b0b0; stroke-width: 0.8; stroke-linecap: square"/>
     </g>
     <g id="line2d_60">
      <g>
       <use xlink:href="#ma99d344063" x="353.593555" y="295.971875" style="stroke: #000000; stroke-width: 0.8"/>
      </g>
     </g>
     <g id="text_27">
      <!-- −1 -->
      <g transform="translate(346.222461 310.570312) scale(0.1 -0.1)">
       <use xlink:href="#DejaVuSans-2212"/>
       <use xlink:href="#DejaVuSans-31" x="83.789062"/>
      </g>
     </g>
    </g>
    <g id="xtick_9">
     <g id="line2d_61">
      <path d="M 398.406152 295.971875 
L 398.406152 7.2 
" clip-path="url(#p6599ed7601)" style="fill: none; stroke: #b0b0b0; stroke-width: 0.8; stroke-linecap: square"/>
     </g>
     <g id="line2d_62">
      <g>
       <use xlink:href="#ma99d344063" x="398.406152" y="295.971875" style="stroke: #000000; stroke-width: 0.8"/>
      </g>
     </g>
     <g id="text_28">
      <!-- 0 -->
      <g transform="translate(395.224902 310.570312) scale(0.1 -0.1)">
       <use xlink:href="#DejaVuSans-30"/>
      </g>
     </g>
    </g>
    <g id="xtick_10">
     <g id="line2d_63">
      <path d="M 443.21875 295.971875 
L 443.21875 7.2 
" clip-path="url(#p6599ed7601)" style="fill: none; stroke: #b0b0b0; stroke-width: 0.8; stroke-linecap: square"/>
     </g>
     <g id="line2d_64">
      <g>
       <use xlink:href="#ma99d344063" x="443.21875" y="295.971875" style="stroke: #000000; stroke-width: 0.8"/>
      </g>
     </g>
     <g id="text_29">
      <!-- 1 -->
      <g transform="translate(440.0375 310.570312) scale(0.1 -0.1)">
       <use xlink:href="#DejaVuSans-31"/>
      </g>
     </g>
    </g>
    <g id="text_30">
     <!-- S (%) -->
     <g transform="translate(378.282715 328.047656) scale(0.15 -0.15)">
      <defs>
       <path id="DejaVuSans-53" d="M 3425 4513 
L 3425 3897 
Q 3066 4069 2747 4153 
Q 2428 4238 2131 4238 
Q 1616 4238 1336 4038 
Q 1056 3838 1056 3469 
Q 1056 3159 1242 3001 
Q 1428 2844 1947 2747 
L 2328 2669 
Q 3034 2534 3370 2195 
Q 3706 1856 3706 1288 
Q 3706 609 3251 259 
Q 2797 -91 1919 -91 
Q 1588 -91 1214 -16 
Q 841 59 441 206 
L 441 856 
Q 825 641 1194 531 
Q 1563 422 1919 422 
Q 2459 422 2753 634 
Q 3047 847 3047 1241 
Q 3047 1584 2836 1778 
Q 2625 1972 2144 2069 
L 1759 2144 
Q 1053 2284 737 2584 
Q 422 2884 422 3419 
Q 422 4038 858 4394 
Q 1294 4750 2059 4750 
Q 2388 4750 2728 4690 
Q 3069 4631 3425 4513 
z
" transform="scale(0.015625)"/>
       <path id="DejaVuSans-25" d="M 4653 2053 
Q 4381 2053 4226 1822 
Q 4072 1591 4072 1178 
Q 4072 772 4226 539 
Q 4381 306 4653 306 
Q 4919 306 5073 539 
Q 5228 772 5228 1178 
Q 5228 1588 5073 1820 
Q 4919 2053 4653 2053 
z
M 4653 2450 
Q 5147 2450 5437 2106 
Q 5728 1763 5728 1178 
Q 5728 594 5436 251 
Q 5144 -91 4653 -91 
Q 4153 -91 3862 251 
Q 3572 594 3572 1178 
Q 3572 1766 3864 2108 
Q 4156 2450 4653 2450 
z
M 1428 4353 
Q 1159 4353 1004 4120 
Q 850 3888 850 3481 
Q 850 3069 1003 2837 
Q 1156 2606 1428 2606 
Q 1700 2606 1854 2837 
Q 2009 3069 2009 3481 
Q 2009 3884 1853 4118 
Q 1697 4353 1428 4353 
z
M 4250 4750 
L 4750 4750 
L 1831 -91 
L 1331 -91 
L 4250 4750 
z
M 1428 4750 
Q 1922 4750 2215 4408 
Q 2509 4066 2509 3481 
Q 2509 2891 2217 2550 
Q 1925 2209 1428 2209 
Q 931 2209 642 2551 
Q 353 2894 353 3481 
Q 353 4063 643 4406 
Q 934 4750 1428 4750 
z
" transform="scale(0.015625)"/>
      </defs>
      <use xlink:href="#DejaVuSans-53"/>
      <use xlink:href="#DejaVuSans-20" x="63.476562"/>
      <use xlink:href="#DejaVuSans-28" x="95.263672"/>
      <use xlink:href="#DejaVuSans-25" x="134.277344"/>
      <use xlink:href="#DejaVuSans-29" x="229.296875"/>
     </g>
    </g>
   </g>
   <g id="matplotlib.axis_4">
    <g id="ytick_8">
     <g id="line2d_65">
      <path d="M 353.593555 282.845881 
L 443.21875 282.845881 
" clip-path="url(#p6599ed7601)" style="fill: none; stroke: #b0b0b0; stroke-width: 0.8; stroke-linecap: square"/>
     </g>
     <g id="line2d_66">
      <g>
       <use xlink:href="#m3826654c09" x="353.593555" y="282.845881" style="stroke: #000000; stroke-width: 0.8"/>
      </g>
     </g>
    </g>
    <g id="ytick_9">
     <g id="line2d_67">
      <path d="M 353.593555 239.092566 
L 443.21875 239.092566 
" clip-path="url(#p6599ed7601)" style="fill: none; stroke: #b0b0b0; stroke-width: 0.8; stroke-linecap: square"/>
     </g>
     <g id="line2d_68">
      <g>
       <use xlink:href="#m3826654c09" x="353.593555" y="239.092566" style="stroke: #000000; stroke-width: 0.8"/>
      </g>
     </g>
    </g>
    <g id="ytick_10">
     <g id="line2d_69">
      <path d="M 353.593555 195.339252 
L 443.21875 195.339252 
" clip-path="url(#p6599ed7601)" style="fill: none; stroke: #b0b0b0; stroke-width: 0.8; stroke-linecap: square"/>
     </g>
     <g id="line2d_70">
      <g>
       <use xlink:href="#m3826654c09" x="353.593555" y="195.339252" style="stroke: #000000; stroke-width: 0.8"/>
      </g>
     </g>
    </g>
    <g id="ytick_11">
     <g id="line2d_71">
      <path d="M 353.593555 151.585938 
L 443.21875 151.585938 
" clip-path="url(#p6599ed7601)" style="fill: none; stroke: #b0b0b0; stroke-width: 0.8; stroke-linecap: square"/>
     </g>
     <g id="line2d_72">
      <g>
       <use xlink:href="#m3826654c09" x="353.593555" y="151.585938" style="stroke: #000000; stroke-width: 0.8"/>
      </g>
     </g>
    </g>
    <g id="ytick_12">
     <g id="line2d_73">
      <path d="M 353.593555 107.832623 
L 443.21875 107.832623 
" clip-path="url(#p6599ed7601)" style="fill: none; stroke: #b0b0b0; stroke-width: 0.8; stroke-linecap: square"/>
     </g>
     <g id="line2d_74">
      <g>
       <use xlink:href="#m3826654c09" x="353.593555" y="107.832623" style="stroke: #000000; stroke-width: 0.8"/>
      </g>
     </g>
    </g>
    <g id="ytick_13">
     <g id="line2d_75">
      <path d="M 353.593555 64.079309 
L 443.21875 64.079309 
" clip-path="url(#p6599ed7601)" style="fill: none; stroke: #b0b0b0; stroke-width: 0.8; stroke-linecap: square"/>
     </g>
     <g id="line2d_76">
      <g>
       <use xlink:href="#m3826654c09" x="353.593555" y="64.079309" style="stroke: #000000; stroke-width: 0.8"/>
      </g>
     </g>
    </g>
    <g id="ytick_14">
     <g id="line2d_77">
      <path d="M 353.593555 20.325994 
L 443.21875 20.325994 
" clip-path="url(#p6599ed7601)" style="fill: none; stroke: #b0b0b0; stroke-width: 0.8; stroke-linecap: square"/>
     </g>
     <g id="line2d_78">
      <g>
       <use xlink:href="#m3826654c09" x="353.593555" y="20.325994" style="stroke: #000000; stroke-width: 0.8"/>
      </g>
     </g>
    </g>
   </g>
   <g id="line2d_79">
    <path d="M -1 231.712985 
L 58.676927 219.841108 
L 121.32469 207.59018 
L 185.070801 195.339252 
L 249.925895 183.088324 
L 320.625463 169.96233 
L 410.577209 153.33607 
L 414.436418 152.461004 
L 417.43957 151.585938 
L 419.161884 150.710871 
L 419.471942 149.835805 
L 419.253559 148.960739 
L 417.942684 148.085672 
L 411.87003 145.460473 
L 410.307625 144.585407 
L 409.112478 143.710341 
L 408.221908 142.835275 
L 407.559044 141.960208 
L 406.664859 140.210076 
L 406.083771 138.459943 
L 405.478834 135.834744 
L 404.909615 132.334479 
L 404.311175 127.084081 
L 403.763275 120.083551 
L 403.250954 110.457822 
L 402.757332 96.456761 
L 402.317795 77.205303 
L 401.912897 49.203182 
L 401.646323 21.201061 
L 401.646323 21.201061 
" clip-path="url(#p6599ed7601)" style="fill: none; stroke: #ff0000; stroke-width: 1.5; stroke-linecap: square"/>
   </g>
   <g id="line2d_80">
    <path d="M 401.639409 20.325994 
L 400.645168 21.201061 
L 396.719584 22.076127 
L 396.261838 22.951193 
L 396.187105 25.576392 
L 395.806311 73.705038 
L 395.387413 100.832093 
L 394.931555 117.458352 
L 394.404281 128.834214 
L 393.884353 135.834744 
L 393.288163 141.085142 
L 392.698611 144.585407 
L 392.076368 147.210606 
L 391.182937 149.835805 
L 390.329894 151.585938 
L 389.784548 152.461004 
L 389.784548 152.461004 
" clip-path="url(#p6599ed7601)" style="fill: none; stroke: #0000ff; stroke-width: 1.5; stroke-linecap: square"/>
   </g>
   <g id="patch_9">
    <path d="M 353.593555 295.971875 
L 353.593555 7.2 
" style="fill: none; stroke: #000000; stroke-width: 0.8; stroke-linejoin: miter; stroke-linecap: square"/>
   </g>
   <g id="patch_10">
    <path d="M 443.21875 295.971875 
L 443.21875 7.2 
" style="fill: none; stroke: #000000; stroke-width: 0.8; stroke-linejoin: miter; stroke-linecap: square"/>
   </g>
   <g id="patch_11">
    <path d="M 353.593555 295.971875 
L 443.21875 295.971875 
" style="fill: none; stroke: #000000; stroke-width: 0.8; stroke-linejoin: miter; stroke-linecap: square"/>
   </g>
   <g id="patch_12">
    <path d="M 353.593555 7.2 
L 443.21875 7.2 
" style="fill: none; stroke: #000000; stroke-width: 0.8; stroke-linejoin: miter; stroke-linecap: square"/>
   </g>
   <g id="legend_2">
    <g id="patch_13">
     <path d="M 360.593555 290.971875 
L 432.213867 290.971875 
Q 434.213867 290.971875 434.213867 288.971875 
L 434.213867 260.615625 
Q 434.213867 258.615625 432.213867 258.615625 
L 360.593555 258.615625 
Q 358.593555 258.615625 358.593555 260.615625 
L 358.593555 288.971875 
Q 358.593555 290.971875 360.593555 290.971875 
z
" style="fill: #ffffff; opacity: 0.8; stroke: #cccccc; stroke-linejoin: miter"/>
    </g>
    <g id="line2d_81">
     <path d="M 362.593555 266.714062 
L 372.593555 266.714062 
L 382.593555 266.714062 
" style="fill: none; stroke: #ff0000; stroke-width: 1.5; stroke-linecap: square"/>
    </g>
    <g id="text_31">
     <!-- ascent -->
     <g transform="translate(390.593555 270.214062) scale(0.1 -0.1)">
      <defs>
       <path id="DejaVuSans-6e" d="M 3513 2113 
L 3513 0 
L 2938 0 
L 2938 2094 
Q 2938 2591 2744 2837 
Q 2550 3084 2163 3084 
Q 1697 3084 1428 2787 
Q 1159 2491 1159 1978 
L 1159 0 
L 581 0 
L 581 3500 
L 1159 3500 
L 1159 2956 
Q 1366 3272 1645 3428 
Q 1925 3584 2291 3584 
Q 2894 3584 3203 3211 
Q 3513 2838 3513 2113 
z
" transform="scale(0.015625)"/>
      </defs>
      <use xlink:href="#DejaVuSans-61"/>
      <use xlink:href="#DejaVuSans-73" x="61.279297"/>
      <use xlink:href="#DejaVuSans-63" x="113.378906"/>
      <use xlink:href="#DejaVuSans-65" x="168.359375"/>
      <use xlink:href="#DejaVuSans-6e" x="229.882812"/>
      <use xlink:href="#DejaVuSans-74" x="293.261719"/>
     </g>
    </g>
    <g id="line2d_82">
     <path d="M 362.593555 281.392187 
L 372.593555 281.392187 
L 382.593555 281.392187 
" style="fill: none; stroke: #0000ff; stroke-width: 1.5; stroke-linecap: square"/>
    </g>
    <g id="text_32">
     <!-- descent -->
     <g transform="translate(390.593555 284.892187) scale(0.1 -0.1)">
      <use xlink:href="#DejaVuSans-64"/>
      <use xlink:href="#DejaVuSans-65" x="63.476562"/>
      <use xlink:href="#DejaVuSans-73" x="125"/>
      <use xlink:href="#DejaVuSans-63" x="177.099609"/>
      <use xlink:href="#DejaVuSans-65" x="232.080078"/>
      <use xlink:href="#DejaVuSans-6e" x="293.603516"/>
      <use xlink:href="#DejaVuSans-74" x="356.982422"/>
     </g>
    </g>
   </g>
  </g>
 </g>
 <defs>
  <clipPath id="p59c4d91e46">
   <rect x="60.184375" y="7.2" width="268.875586" height="288.771875"/>
  </clipPath>
  <clipPath id="p6599ed7601">
   <rect x="353.593555" y="7.2" width="89.625195" height="288.771875"/>
  </clipPath>
 </defs>
</svg>
