<?xml version="1.0" encoding="UTF-8" standalone="no"?>
<!DOCTYPE svg PUBLIC "-//W3C//DTD SVG 1.1//EN" "http://www.w3.org/Graphics/SVG/1.1/DTD/svg11.dtd">
<!-- Created with matplotlib (https://matplotlib.org/) -->
<svg height="345.6pt" version="1.1" viewBox="0 0 460.8 345.6" width="460.8pt" xmlns="http://www.w3.org/2000/svg" xmlns:xlink="http://www.w3.org/1999/xlink">
 <metadata>
  <rdf:RDF xmlns:cc="http://creativecommons.org/ns#" xmlns:dc="http://purl.org/dc/elements/1.1/" xmlns:rdf="http://www.w3.org/1999/02/22-rdf-syntax-ns#">
   <cc:Work>
    <dc:type rdf:resource="http://purl.org/dc/dcmitype/StillImage"/>
    <dc:date>2021-05-05T13:41:39.127004</dc:date>
    <dc:format>image/svg+xml</dc:format>
    <dc:creator>
     <cc:Agent>
      <dc:title>Matplotlib v3.3.3, https://matplotlib.org/</dc:title>
     </cc:Agent>
    </dc:creator>
   </cc:Work>
  </rdf:RDF>
 </metadata>
 <defs>
  <style type="text/css">*{stroke-linecap:butt;stroke-linejoin:round;}</style>
 </defs>
 <g id="figure_1">
  <g id="patch_1">
   <path d="M 0 345.6  L 460.8 345.6  L 460.8 0  L 0 0  z " style="fill:#ffffff;"/>
  </g>
  <g id="axes_1">
   <g id="patch_2">
    <path d="M 57.6 307.584  L 135.234783 307.584  L 135.234783 41.472  L 57.6 41.472  z " style="fill:#ffffff;"/>
   </g>
   <g id="matplotlib.axis_1">
    <g id="xtick_1">
     <g id="line2d_1">
      <path clip-path="url(#p1dded8fbda)" d="M 62.024387 307.584  L 62.024387 41.472  " style="fill:none;stroke:#b0b0b0;stroke-linecap:square;stroke-width:0.8;"/>
     </g>
     <g id="line2d_2">
      <defs>
       <path d="M 0 0  L 0 3.5  " id="m463d45333f" style="stroke:#000000;stroke-width:0.8;"/>
      </defs>
      <g>
       <use style="stroke:#000000;stroke-width:0.8;" x="62.024387" xlink:href="#m463d45333f" y="307.584"/>
      </g>
     </g>
     <g id="text_1">
      <!-- −1 -->
      <g transform="translate(54.653293 322.182437)scale(0.1 -0.1)">
       <defs>
        <path d="M 10.59375 35.5  L 73.1875 35.5  L 73.1875 27.203125  L 10.59375 27.203125  z " id="DejaVuSans-8722"/>
        <path d="M 12.40625 8.296875  L 28.515625 8.296875  L 28.515625 63.921875  L 10.984375 60.40625  L 10.984375 69.390625  L 28.421875 72.90625  L 38.28125 72.90625  L 38.28125 8.296875  L 54.390625 8.296875  L 54.390625 0  L 12.40625 0  z " id="DejaVuSans-49"/>
       </defs>
       <use xlink:href="#DejaVuSans-8722"/>
       <use x="83.789062" xlink:href="#DejaVuSans-49"/>
      </g>
     </g>
    </g>
    <g id="xtick_2">
     <g id="line2d_3">
      <path clip-path="url(#p1dded8fbda)" d="M 120.816718 307.584  L 120.816718 41.472  " style="fill:none;stroke:#b0b0b0;stroke-linecap:square;stroke-width:0.8;"/>
     </g>
     <g id="line2d_4">
      <g>
       <use style="stroke:#000000;stroke-width:0.8;" x="120.816718" xlink:href="#m463d45333f" y="307.584"/>
      </g>
     </g>
     <g id="text_2">
      <!-- 0 -->
      <g transform="translate(117.635468 322.182437)scale(0.1 -0.1)">
       <defs>
        <path d="M 31.78125 66.40625  Q 24.171875 66.40625 20.328125 58.90625  Q 16.5 51.421875 16.5 36.375  Q 16.5 21.390625 20.328125 13.890625  Q 24.171875 6.390625 31.78125 6.390625  Q 39.453125 6.390625 43.28125 13.890625  Q 47.125 21.390625 47.125 36.375  Q 47.125 51.421875 43.28125 58.90625  Q 39.453125 66.40625 31.78125 66.40625  z M 31.78125 74.21875  Q 44.046875 74.21875 50.515625 64.515625  Q 56.984375 54.828125 56.984375 36.375  Q 56.984375 17.96875 50.515625 8.265625  Q 44.046875 -1.421875 31.78125 -1.421875  Q 19.53125 -1.421875 13.0625 8.265625  Q 6.59375 17.96875 6.59375 36.375  Q 6.59375 54.828125 13.0625 64.515625  Q 19.53125 74.21875 31.78125 74.21875  z " id="DejaVuSans-48"/>
       </defs>
       <use xlink:href="#DejaVuSans-48"/>
      </g>
     </g>
    </g>
    <g id="text_3">
     <!-- % -->
     <g transform="translate(91.66661 335.860562)scale(0.1 -0.1)">
      <defs>
       <path d="M 72.703125 32.078125  Q 68.453125 32.078125 66.03125 28.46875  Q 63.625 24.859375 63.625 18.40625  Q 63.625 12.0625 66.03125 8.421875  Q 68.453125 4.78125 72.703125 4.78125  Q 76.859375 4.78125 79.265625 8.421875  Q 81.6875 12.0625 81.6875 18.40625  Q 81.6875 24.8125 79.265625 28.4375  Q 76.859375 32.078125 72.703125 32.078125  z M 72.703125 38.28125  Q 80.421875 38.28125 84.953125 32.90625  Q 89.5 27.546875 89.5 18.40625  Q 89.5 9.28125 84.9375 3.921875  Q 80.375 -1.421875 72.703125 -1.421875  Q 64.890625 -1.421875 60.34375 3.921875  Q 55.8125 9.28125 55.8125 18.40625  Q 55.8125 27.59375 60.375 32.9375  Q 64.9375 38.28125 72.703125 38.28125  z M 22.3125 68.015625  Q 18.109375 68.015625 15.6875 64.375  Q 13.28125 60.75 13.28125 54.390625  Q 13.28125 47.953125 15.671875 44.328125  Q 18.0625 40.71875 22.3125 40.71875  Q 26.5625 40.71875 28.96875 44.328125  Q 31.390625 47.953125 31.390625 54.390625  Q 31.390625 60.6875 28.953125 64.34375  Q 26.515625 68.015625 22.3125 68.015625  z M 66.40625 74.21875  L 74.21875 74.21875  L 28.609375 -1.421875  L 20.796875 -1.421875  z M 22.3125 74.21875  Q 30.03125 74.21875 34.609375 68.875  Q 39.203125 63.53125 39.203125 54.390625  Q 39.203125 45.171875 34.640625 39.84375  Q 30.078125 34.515625 22.3125 34.515625  Q 14.546875 34.515625 10.03125 39.859375  Q 5.515625 45.21875 5.515625 54.390625  Q 5.515625 63.484375 10.046875 68.84375  Q 14.59375 74.21875 22.3125 74.21875  z " id="DejaVuSans-37"/>
      </defs>
      <use xlink:href="#DejaVuSans-37"/>
     </g>
    </g>
   </g>
   <g id="matplotlib.axis_2">
    <g id="ytick_1">
     <g id="line2d_5">
      <path clip-path="url(#p1dded8fbda)" d="M 57.6 295.488  L 135.234783 295.488  " style="fill:none;stroke:#b0b0b0;stroke-linecap:square;stroke-width:0.8;"/>
     </g>
     <g id="line2d_6">
      <defs>
       <path d="M 0 0  L -3.5 0  " id="m8fab02d73c" style="stroke:#000000;stroke-width:0.8;"/>
      </defs>
      <g>
       <use style="stroke:#000000;stroke-width:0.8;" x="57.6" xlink:href="#m8fab02d73c" y="295.488"/>
      </g>
     </g>
     <g id="text_4">
      <!-- 0 -->
      <g transform="translate(44.2375 299.287219)scale(0.1 -0.1)">
       <use xlink:href="#DejaVuSans-48"/>
      </g>
     </g>
    </g>
    <g id="ytick_2">
     <g id="line2d_7">
      <path clip-path="url(#p1dded8fbda)" d="M 57.6 247.104  L 135.234783 247.104  " style="fill:none;stroke:#b0b0b0;stroke-linecap:square;stroke-width:0.8;"/>
     </g>
     <g id="line2d_8">
      <g>
       <use style="stroke:#000000;stroke-width:0.8;" x="57.6" xlink:href="#m8fab02d73c" y="247.104"/>
      </g>
     </g>
     <g id="text_5">
      <!-- 20 -->
      <g transform="translate(37.875 250.903219)scale(0.1 -0.1)">
       <defs>
        <path d="M 19.1875 8.296875  L 53.609375 8.296875  L 53.609375 0  L 7.328125 0  L 7.328125 8.296875  Q 12.9375 14.109375 22.625 23.890625  Q 32.328125 33.6875 34.8125 36.53125  Q 39.546875 41.84375 41.421875 45.53125  Q 43.3125 49.21875 43.3125 52.78125  Q 43.3125 58.59375 39.234375 62.25  Q 35.15625 65.921875 28.609375 65.921875  Q 23.96875 65.921875 18.8125 64.3125  Q 13.671875 62.703125 7.8125 59.421875  L 7.8125 69.390625  Q 13.765625 71.78125 18.9375 73  Q 24.125 74.21875 28.421875 74.21875  Q 39.75 74.21875 46.484375 68.546875  Q 53.21875 62.890625 53.21875 53.421875  Q 53.21875 48.921875 51.53125 44.890625  Q 49.859375 40.875 45.40625 35.40625  Q 44.1875 33.984375 37.640625 27.21875  Q 31.109375 20.453125 19.1875 8.296875  z " id="DejaVuSans-50"/>
       </defs>
       <use xlink:href="#DejaVuSans-50"/>
       <use x="63.623047" xlink:href="#DejaVuSans-48"/>
      </g>
     </g>
    </g>
    <g id="ytick_3">
     <g id="line2d_9">
      <path clip-path="url(#p1dded8fbda)" d="M 57.6 198.72  L 135.234783 198.72  " style="fill:none;stroke:#b0b0b0;stroke-linecap:square;stroke-width:0.8;"/>
     </g>
     <g id="line2d_10">
      <g>
       <use style="stroke:#000000;stroke-width:0.8;" x="57.6" xlink:href="#m8fab02d73c" y="198.72"/>
      </g>
     </g>
     <g id="text_6">
      <!-- 40 -->
      <g transform="translate(37.875 202.519219)scale(0.1 -0.1)">
       <defs>
        <path d="M 37.796875 64.3125  L 12.890625 25.390625  L 37.796875 25.390625  z M 35.203125 72.90625  L 47.609375 72.90625  L 47.609375 25.390625  L 58.015625 25.390625  L 58.015625 17.1875  L 47.609375 17.1875  L 47.609375 0  L 37.796875 0  L 37.796875 17.1875  L 4.890625 17.1875  L 4.890625 26.703125  z " id="DejaVuSans-52"/>
       </defs>
       <use xlink:href="#DejaVuSans-52"/>
       <use x="63.623047" xlink:href="#DejaVuSans-48"/>
      </g>
     </g>
    </g>
    <g id="ytick_4">
     <g id="line2d_11">
      <path clip-path="url(#p1dded8fbda)" d="M 57.6 150.336  L 135.234783 150.336  " style="fill:none;stroke:#b0b0b0;stroke-linecap:square;stroke-width:0.8;"/>
     </g>
     <g id="line2d_12">
      <g>
       <use style="stroke:#000000;stroke-width:0.8;" x="57.6" xlink:href="#m8fab02d73c" y="150.336"/>
      </g>
     </g>
     <g id="text_7">
      <!-- 60 -->
      <g transform="translate(37.875 154.135219)scale(0.1 -0.1)">
       <defs>
        <path d="M 33.015625 40.375  Q 26.375 40.375 22.484375 35.828125  Q 18.609375 31.296875 18.609375 23.390625  Q 18.609375 15.53125 22.484375 10.953125  Q 26.375 6.390625 33.015625 6.390625  Q 39.65625 6.390625 43.53125 10.953125  Q 47.40625 15.53125 47.40625 23.390625  Q 47.40625 31.296875 43.53125 35.828125  Q 39.65625 40.375 33.015625 40.375  z M 52.59375 71.296875  L 52.59375 62.3125  Q 48.875 64.0625 45.09375 64.984375  Q 41.3125 65.921875 37.59375 65.921875  Q 27.828125 65.921875 22.671875 59.328125  Q 17.53125 52.734375 16.796875 39.40625  Q 19.671875 43.65625 24.015625 45.921875  Q 28.375 48.1875 33.59375 48.1875  Q 44.578125 48.1875 50.953125 41.515625  Q 57.328125 34.859375 57.328125 23.390625  Q 57.328125 12.15625 50.6875 5.359375  Q 44.046875 -1.421875 33.015625 -1.421875  Q 20.359375 -1.421875 13.671875 8.265625  Q 6.984375 17.96875 6.984375 36.375  Q 6.984375 53.65625 15.1875 63.9375  Q 23.390625 74.21875 37.203125 74.21875  Q 40.921875 74.21875 44.703125 73.484375  Q 48.484375 72.75 52.59375 71.296875  z " id="DejaVuSans-54"/>
       </defs>
       <use xlink:href="#DejaVuSans-54"/>
       <use x="63.623047" xlink:href="#DejaVuSans-48"/>
      </g>
     </g>
    </g>
    <g id="ytick_5">
     <g id="line2d_13">
      <path clip-path="url(#p1dded8fbda)" d="M 57.6 101.952  L 135.234783 101.952  " style="fill:none;stroke:#b0b0b0;stroke-linecap:square;stroke-width:0.8;"/>
     </g>
     <g id="line2d_14">
      <g>
       <use style="stroke:#000000;stroke-width:0.8;" x="57.6" xlink:href="#m8fab02d73c" y="101.952"/>
      </g>
     </g>
     <g id="text_8">
      <!-- 80 -->
      <g transform="translate(37.875 105.751219)scale(0.1 -0.1)">
       <defs>
        <path d="M 31.78125 34.625  Q 24.75 34.625 20.71875 30.859375  Q 16.703125 27.09375 16.703125 20.515625  Q 16.703125 13.921875 20.71875 10.15625  Q 24.75 6.390625 31.78125 6.390625  Q 38.8125 6.390625 42.859375 10.171875  Q 46.921875 13.96875 46.921875 20.515625  Q 46.921875 27.09375 42.890625 30.859375  Q 38.875 34.625 31.78125 34.625  z M 21.921875 38.8125  Q 15.578125 40.375 12.03125 44.71875  Q 8.5 49.078125 8.5 55.328125  Q 8.5 64.0625 14.71875 69.140625  Q 20.953125 74.21875 31.78125 74.21875  Q 42.671875 74.21875 48.875 69.140625  Q 55.078125 64.0625 55.078125 55.328125  Q 55.078125 49.078125 51.53125 44.71875  Q 48 40.375 41.703125 38.8125  Q 48.828125 37.15625 52.796875 32.3125  Q 56.78125 27.484375 56.78125 20.515625  Q 56.78125 9.90625 50.3125 4.234375  Q 43.84375 -1.421875 31.78125 -1.421875  Q 19.734375 -1.421875 13.25 4.234375  Q 6.78125 9.90625 6.78125 20.515625  Q 6.78125 27.484375 10.78125 32.3125  Q 14.796875 37.15625 21.921875 38.8125  z M 18.3125 54.390625  Q 18.3125 48.734375 21.84375 45.5625  Q 25.390625 42.390625 31.78125 42.390625  Q 38.140625 42.390625 41.71875 45.5625  Q 45.3125 48.734375 45.3125 54.390625  Q 45.3125 60.0625 41.71875 63.234375  Q 38.140625 66.40625 31.78125 66.40625  Q 25.390625 66.40625 21.84375 63.234375  Q 18.3125 60.0625 18.3125 54.390625  z " id="DejaVuSans-56"/>
       </defs>
       <use xlink:href="#DejaVuSans-56"/>
       <use x="63.623047" xlink:href="#DejaVuSans-48"/>
      </g>
     </g>
    </g>
    <g id="ytick_6">
     <g id="line2d_15">
      <path clip-path="url(#p1dded8fbda)" d="M 57.6 53.568  L 135.234783 53.568  " style="fill:none;stroke:#b0b0b0;stroke-linecap:square;stroke-width:0.8;"/>
     </g>
     <g id="line2d_16">
      <g>
       <use style="stroke:#000000;stroke-width:0.8;" x="57.6" xlink:href="#m8fab02d73c" y="53.568"/>
      </g>
     </g>
     <g id="text_9">
      <!-- 100 -->
      <g transform="translate(31.5125 57.367219)scale(0.1 -0.1)">
       <use xlink:href="#DejaVuSans-49"/>
       <use x="63.623047" xlink:href="#DejaVuSans-48"/>
       <use x="127.246094" xlink:href="#DejaVuSans-48"/>
      </g>
     </g>
    </g>
   </g>
   <g id="line2d_17">
    <path clip-path="url(#p1dded8fbda)" d="M 61.128854 289.44  L 67.826053 283.392  L 74.521275 277.344  L 81.21038 271.296  L 87.886881 265.248  L 94.540119 259.2  L 101.151477 253.152  L 107.685981 247.104  L 114.072328 241.056  L 120.15351 235.008  L 125.573969 228.96  L 129.631067 222.912  L 131.542188 216.864  L 131.705929 210.816  L 131.367726 204.768  L 130.588363 198.72  L 129.896441 192.672  L 129.35735 186.624  L 128.931638 180.576  L 128.584222 174.528  L 128.292608 168.48  L 128.042994 162.432  L 127.82384 156.384  L 127.632942 150.336  L 127.458957 144.288  L 127.301364 138.24  L 127.165034 132.192  L 127.037392 126.144  L 126.909708 120.096  L 126.798289 114.048  L 126.700543 108  L 126.610498 101.952  L 126.525074 95.904  L 126.437066 89.856  L 126.345179 83.808  L 126.268954 77.76  L 126.200362 71.712  L 126.136234 65.664  L 126.075491 59.616  L 126.017974 53.568  " style="fill:none;stroke:#1f77b4;stroke-linecap:square;stroke-width:1.5;"/>
    <defs>
     <path d="M 0 1.5  C 0.397805 1.5 0.77937 1.341951 1.06066 1.06066  C 1.341951 0.77937 1.5 0.397805 1.5 0  C 1.5 -0.397805 1.341951 -0.77937 1.06066 -1.06066  C 0.77937 -1.341951 0.397805 -1.5 0 -1.5  C -0.397805 -1.5 -0.77937 -1.341951 -1.06066 -1.06066  C -1.341951 -0.77937 -1.5 -0.397805 -1.5 0  C -1.5 0.397805 -1.341951 0.77937 -1.06066 1.06066  C -0.77937 1.341951 -0.397805 1.5 0 1.5  z " id="m004c7e2d46" style="stroke:#1f77b4;"/>
    </defs>
    <g clip-path="url(#p1dded8fbda)">
     <use style="fill:#1f77b4;stroke:#1f77b4;" x="61.128854" xlink:href="#m004c7e2d46" y="289.44"/>
     <use style="fill:#1f77b4;stroke:#1f77b4;" x="67.826053" xlink:href="#m004c7e2d46" y="283.392"/>
     <use style="fill:#1f77b4;stroke:#1f77b4;" x="74.521275" xlink:href="#m004c7e2d46" y="277.344"/>
     <use style="fill:#1f77b4;stroke:#1f77b4;" x="81.21038" xlink:href="#m004c7e2d46" y="271.296"/>
     <use style="fill:#1f77b4;stroke:#1f77b4;" x="87.886881" xlink:href="#m004c7e2d46" y="265.248"/>
     <use style="fill:#1f77b4;stroke:#1f77b4;" x="94.540119" xlink:href="#m004c7e2d46" y="259.2"/>
     <use style="fill:#1f77b4;stroke:#1f77b4;" x="101.151477" xlink:href="#m004c7e2d46" y="253.152"/>
     <use style="fill:#1f77b4;stroke:#1f77b4;" x="107.685981" xlink:href="#m004c7e2d46" y="247.104"/>
     <use style="fill:#1f77b4;stroke:#1f77b4;" x="114.072328" xlink:href="#m004c7e2d46" y="241.056"/>
     <use style="fill:#1f77b4;stroke:#1f77b4;" x="120.15351" xlink:href="#m004c7e2d46" y="235.008"/>
     <use style="fill:#1f77b4;stroke:#1f77b4;" x="125.573969" xlink:href="#m004c7e2d46" y="228.96"/>
     <use style="fill:#1f77b4;stroke:#1f77b4;" x="129.631067" xlink:href="#m004c7e2d46" y="222.912"/>
     <use style="fill:#1f77b4;stroke:#1f77b4;" x="131.542188" xlink:href="#m004c7e2d46" y="216.864"/>
     <use style="fill:#1f77b4;stroke:#1f77b4;" x="131.705929" xlink:href="#m004c7e2d46" y="210.816"/>
     <use style="fill:#1f77b4;stroke:#1f77b4;" x="131.367726" xlink:href="#m004c7e2d46" y="204.768"/>
     <use style="fill:#1f77b4;stroke:#1f77b4;" x="130.588363" xlink:href="#m004c7e2d46" y="198.72"/>
     <use style="fill:#1f77b4;stroke:#1f77b4;" x="129.896441" xlink:href="#m004c7e2d46" y="192.672"/>
     <use style="fill:#1f77b4;stroke:#1f77b4;" x="129.35735" xlink:href="#m004c7e2d46" y="186.624"/>
     <use style="fill:#1f77b4;stroke:#1f77b4;" x="128.931638" xlink:href="#m004c7e2d46" y="180.576"/>
     <use style="fill:#1f77b4;stroke:#1f77b4;" x="128.584222" xlink:href="#m004c7e2d46" y="174.528"/>
     <use style="fill:#1f77b4;stroke:#1f77b4;" x="128.292608" xlink:href="#m004c7e2d46" y="168.48"/>
     <use style="fill:#1f77b4;stroke:#1f77b4;" x="128.042994" xlink:href="#m004c7e2d46" y="162.432"/>
     <use style="fill:#1f77b4;stroke:#1f77b4;" x="127.82384" xlink:href="#m004c7e2d46" y="156.384"/>
     <use style="fill:#1f77b4;stroke:#1f77b4;" x="127.632942" xlink:href="#m004c7e2d46" y="150.336"/>
     <use style="fill:#1f77b4;stroke:#1f77b4;" x="127.458957" xlink:href="#m004c7e2d46" y="144.288"/>
     <use style="fill:#1f77b4;stroke:#1f77b4;" x="127.301364" xlink:href="#m004c7e2d46" y="138.24"/>
     <use style="fill:#1f77b4;stroke:#1f77b4;" x="127.165034" xlink:href="#m004c7e2d46" y="132.192"/>
     <use style="fill:#1f77b4;stroke:#1f77b4;" x="127.037392" xlink:href="#m004c7e2d46" y="126.144"/>
     <use style="fill:#1f77b4;stroke:#1f77b4;" x="126.909708" xlink:href="#m004c7e2d46" y="120.096"/>
     <use style="fill:#1f77b4;stroke:#1f77b4;" x="126.798289" xlink:href="#m004c7e2d46" y="114.048"/>
     <use style="fill:#1f77b4;stroke:#1f77b4;" x="126.700543" xlink:href="#m004c7e2d46" y="108"/>
     <use style="fill:#1f77b4;stroke:#1f77b4;" x="126.610498" xlink:href="#m004c7e2d46" y="101.952"/>
     <use style="fill:#1f77b4;stroke:#1f77b4;" x="126.525074" xlink:href="#m004c7e2d46" y="95.904"/>
     <use style="fill:#1f77b4;stroke:#1f77b4;" x="126.437066" xlink:href="#m004c7e2d46" y="89.856"/>
     <use style="fill:#1f77b4;stroke:#1f77b4;" x="126.345179" xlink:href="#m004c7e2d46" y="83.808"/>
     <use style="fill:#1f77b4;stroke:#1f77b4;" x="126.268954" xlink:href="#m004c7e2d46" y="77.76"/>
     <use style="fill:#1f77b4;stroke:#1f77b4;" x="126.200362" xlink:href="#m004c7e2d46" y="71.712"/>
     <use style="fill:#1f77b4;stroke:#1f77b4;" x="126.136234" xlink:href="#m004c7e2d46" y="65.664"/>
     <use style="fill:#1f77b4;stroke:#1f77b4;" x="126.075491" xlink:href="#m004c7e2d46" y="59.616"/>
     <use style="fill:#1f77b4;stroke:#1f77b4;" x="126.017974" xlink:href="#m004c7e2d46" y="53.568"/>
    </g>
   </g>
   <g id="patch_3">
    <path d="M 57.6 307.584  L 57.6 41.472  " style="fill:none;stroke:#000000;stroke-linecap:square;stroke-linejoin:miter;stroke-width:0.8;"/>
   </g>
   <g id="patch_4">
    <path d="M 135.234783 307.584  L 135.234783 41.472  " style="fill:none;stroke:#000000;stroke-linecap:square;stroke-linejoin:miter;stroke-width:0.8;"/>
   </g>
   <g id="patch_5">
    <path d="M 57.6 307.584  L 135.234783 307.584  " style="fill:none;stroke:#000000;stroke-linecap:square;stroke-linejoin:miter;stroke-width:0.8;"/>
   </g>
   <g id="patch_6">
    <path d="M 57.6 41.472  L 135.234783 41.472  " style="fill:none;stroke:#000000;stroke-linecap:square;stroke-linejoin:miter;stroke-width:0.8;"/>
   </g>
   <g id="text_10">
    <!-- S_max -->
    <g transform="translate(76.535829 35.472)scale(0.12 -0.12)">
     <defs>
      <path d="M 53.515625 70.515625  L 53.515625 60.890625  Q 47.90625 63.578125 42.921875 64.890625  Q 37.9375 66.21875 33.296875 66.21875  Q 25.25 66.21875 20.875 63.09375  Q 16.5 59.96875 16.5 54.203125  Q 16.5 49.359375 19.40625 46.890625  Q 22.3125 44.4375 30.421875 42.921875  L 36.375 41.703125  Q 47.40625 39.59375 52.65625 34.296875  Q 57.90625 29 57.90625 20.125  Q 57.90625 9.515625 50.796875 4.046875  Q 43.703125 -1.421875 29.984375 -1.421875  Q 24.8125 -1.421875 18.96875 -0.25  Q 13.140625 0.921875 6.890625 3.21875  L 6.890625 13.375  Q 12.890625 10.015625 18.65625 8.296875  Q 24.421875 6.59375 29.984375 6.59375  Q 38.421875 6.59375 43.015625 9.90625  Q 47.609375 13.234375 47.609375 19.390625  Q 47.609375 24.75 44.3125 27.78125  Q 41.015625 30.8125 33.5 32.328125  L 27.484375 33.5  Q 16.453125 35.6875 11.515625 40.375  Q 6.59375 45.0625 6.59375 53.421875  Q 6.59375 63.09375 13.40625 68.65625  Q 20.21875 74.21875 32.171875 74.21875  Q 37.3125 74.21875 42.625 73.28125  Q 47.953125 72.359375 53.515625 70.515625  z " id="DejaVuSans-83"/>
      <path d="M 50.984375 -16.609375  L 50.984375 -23.578125  L -0.984375 -23.578125  L -0.984375 -16.609375  z " id="DejaVuSans-95"/>
      <path d="M 52 44.1875  Q 55.375 50.25 60.0625 53.125  Q 64.75 56 71.09375 56  Q 79.640625 56 84.28125 50.015625  Q 88.921875 44.046875 88.921875 33.015625  L 88.921875 0  L 79.890625 0  L 79.890625 32.71875  Q 79.890625 40.578125 77.09375 44.375  Q 74.3125 48.1875 68.609375 48.1875  Q 61.625 48.1875 57.5625 43.546875  Q 53.515625 38.921875 53.515625 30.90625  L 53.515625 0  L 44.484375 0  L 44.484375 32.71875  Q 44.484375 40.625 41.703125 44.40625  Q 38.921875 48.1875 33.109375 48.1875  Q 26.21875 48.1875 22.15625 43.53125  Q 18.109375 38.875 18.109375 30.90625  L 18.109375 0  L 9.078125 0  L 9.078125 54.6875  L 18.109375 54.6875  L 18.109375 46.1875  Q 21.1875 51.21875 25.484375 53.609375  Q 29.78125 56 35.6875 56  Q 41.65625 56 45.828125 52.96875  Q 50 49.953125 52 44.1875  z " id="DejaVuSans-109"/>
      <path d="M 34.28125 27.484375  Q 23.390625 27.484375 19.1875 25  Q 14.984375 22.515625 14.984375 16.5  Q 14.984375 11.71875 18.140625 8.90625  Q 21.296875 6.109375 26.703125 6.109375  Q 34.1875 6.109375 38.703125 11.40625  Q 43.21875 16.703125 43.21875 25.484375  L 43.21875 27.484375  z M 52.203125 31.203125  L 52.203125 0  L 43.21875 0  L 43.21875 8.296875  Q 40.140625 3.328125 35.546875 0.953125  Q 30.953125 -1.421875 24.3125 -1.421875  Q 15.921875 -1.421875 10.953125 3.296875  Q 6 8.015625 6 15.921875  Q 6 25.140625 12.171875 29.828125  Q 18.359375 34.515625 30.609375 34.515625  L 43.21875 34.515625  L 43.21875 35.40625  Q 43.21875 41.609375 39.140625 45  Q 35.0625 48.390625 27.6875 48.390625  Q 23 48.390625 18.546875 47.265625  Q 14.109375 46.140625 10.015625 43.890625  L 10.015625 52.203125  Q 14.9375 54.109375 19.578125 55.046875  Q 24.21875 56 28.609375 56  Q 40.484375 56 46.34375 49.84375  Q 52.203125 43.703125 52.203125 31.203125  z " id="DejaVuSans-97"/>
      <path d="M 54.890625 54.6875  L 35.109375 28.078125  L 55.90625 0  L 45.3125 0  L 29.390625 21.484375  L 13.484375 0  L 2.875 0  L 24.125 28.609375  L 4.6875 54.6875  L 15.28125 54.6875  L 29.78125 35.203125  L 44.28125 54.6875  z " id="DejaVuSans-120"/>
     </defs>
     <use xlink:href="#DejaVuSans-83"/>
     <use x="63.476562" xlink:href="#DejaVuSans-95"/>
     <use x="113.476562" xlink:href="#DejaVuSans-109"/>
     <use x="210.888672" xlink:href="#DejaVuSans-97"/>
     <use x="272.167969" xlink:href="#DejaVuSans-120"/>
    </g>
   </g>
  </g>
  <g id="axes_2">
   <g id="patch_7">
    <path d="M 150.761739 307.584  L 228.396522 307.584  L 228.396522 41.472  L 150.761739 41.472  z " style="fill:#ffffff;"/>
   </g>
   <g id="matplotlib.axis_3">
    <g id="xtick_3">
     <g id="line2d_18">
      <path clip-path="url(#pe82e9d87a3)" d="M 173.471493 307.584  L 173.471493 41.472  " style="fill:none;stroke:#b0b0b0;stroke-linecap:square;stroke-width:0.8;"/>
     </g>
     <g id="line2d_19">
      <g>
       <use style="stroke:#000000;stroke-width:0.8;" x="173.471493" xlink:href="#m463d45333f" y="307.584"/>
      </g>
     </g>
     <g id="text_11">
      <!-- 1 -->
      <g transform="translate(170.290243 322.182437)scale(0.1 -0.1)">
       <use xlink:href="#DejaVuSans-49"/>
      </g>
     </g>
    </g>
    <g id="xtick_4">
     <g id="line2d_20">
      <path clip-path="url(#pe82e9d87a3)" d="M 220.736135 307.584  L 220.736135 41.472  " style="fill:none;stroke:#b0b0b0;stroke-linecap:square;stroke-width:0.8;"/>
     </g>
     <g id="line2d_21">
      <g>
       <use style="stroke:#000000;stroke-width:0.8;" x="220.736135" xlink:href="#m463d45333f" y="307.584"/>
      </g>
     </g>
     <g id="text_12">
      <!-- 2 -->
      <g transform="translate(217.554885 322.182437)scale(0.1 -0.1)">
       <use xlink:href="#DejaVuSans-50"/>
      </g>
     </g>
    </g>
    <g id="text_13">
     <!-- um -->
     <g transform="translate(181.540068 335.860562)scale(0.1 -0.1)">
      <defs>
       <path d="M 8.5 21.578125  L 8.5 54.6875  L 17.484375 54.6875  L 17.484375 21.921875  Q 17.484375 14.15625 20.5 10.265625  Q 23.53125 6.390625 29.59375 6.390625  Q 36.859375 6.390625 41.078125 11.03125  Q 45.3125 15.671875 45.3125 23.6875  L 45.3125 54.6875  L 54.296875 54.6875  L 54.296875 0  L 45.3125 0  L 45.3125 8.40625  Q 42.046875 3.421875 37.71875 1  Q 33.40625 -1.421875 27.6875 -1.421875  Q 18.265625 -1.421875 13.375 4.4375  Q 8.5 10.296875 8.5 21.578125  z M 31.109375 56  z " id="DejaVuSans-117"/>
      </defs>
      <use xlink:href="#DejaVuSans-117"/>
      <use x="63.378906" xlink:href="#DejaVuSans-109"/>
     </g>
    </g>
   </g>
   <g id="matplotlib.axis_4">
    <g id="ytick_7">
     <g id="line2d_22">
      <path clip-path="url(#pe82e9d87a3)" d="M 150.761739 295.488  L 228.396522 295.488  " style="fill:none;stroke:#b0b0b0;stroke-linecap:square;stroke-width:0.8;"/>
     </g>
     <g id="line2d_23">
      <g>
       <use style="stroke:#000000;stroke-width:0.8;" x="150.761739" xlink:href="#m8fab02d73c" y="295.488"/>
      </g>
     </g>
    </g>
    <g id="ytick_8">
     <g id="line2d_24">
      <path clip-path="url(#pe82e9d87a3)" d="M 150.761739 247.104  L 228.396522 247.104  " style="fill:none;stroke:#b0b0b0;stroke-linecap:square;stroke-width:0.8;"/>
     </g>
     <g id="line2d_25">
      <g>
       <use style="stroke:#000000;stroke-width:0.8;" x="150.761739" xlink:href="#m8fab02d73c" y="247.104"/>
      </g>
     </g>
    </g>
    <g id="ytick_9">
     <g id="line2d_26">
      <path clip-path="url(#pe82e9d87a3)" d="M 150.761739 198.72  L 228.396522 198.72  " style="fill:none;stroke:#b0b0b0;stroke-linecap:square;stroke-width:0.8;"/>
     </g>
     <g id="line2d_27">
      <g>
       <use style="stroke:#000000;stroke-width:0.8;" x="150.761739" xlink:href="#m8fab02d73c" y="198.72"/>
      </g>
     </g>
    </g>
    <g id="ytick_10">
     <g id="line2d_28">
      <path clip-path="url(#pe82e9d87a3)" d="M 150.761739 150.336  L 228.396522 150.336  " style="fill:none;stroke:#b0b0b0;stroke-linecap:square;stroke-width:0.8;"/>
     </g>
     <g id="line2d_29">
      <g>
       <use style="stroke:#000000;stroke-width:0.8;" x="150.761739" xlink:href="#m8fab02d73c" y="150.336"/>
      </g>
     </g>
    </g>
    <g id="ytick_11">
     <g id="line2d_30">
      <path clip-path="url(#pe82e9d87a3)" d="M 150.761739 101.952  L 228.396522 101.952  " style="fill:none;stroke:#b0b0b0;stroke-linecap:square;stroke-width:0.8;"/>
     </g>
     <g id="line2d_31">
      <g>
       <use style="stroke:#000000;stroke-width:0.8;" x="150.761739" xlink:href="#m8fab02d73c" y="101.952"/>
      </g>
     </g>
    </g>
    <g id="ytick_12">
     <g id="line2d_32">
      <path clip-path="url(#pe82e9d87a3)" d="M 150.761739 53.568  L 228.396522 53.568  " style="fill:none;stroke:#b0b0b0;stroke-linecap:square;stroke-width:0.8;"/>
     </g>
     <g id="line2d_33">
      <g>
       <use style="stroke:#000000;stroke-width:0.8;" x="150.761739" xlink:href="#m8fab02d73c" y="53.568"/>
      </g>
     </g>
    </g>
   </g>
   <g id="line2d_34">
    <path clip-path="url(#pe82e9d87a3)" d="M 154.290593 295.488  L 154.331242 289.44  L 154.642704 283.392  L 154.735152 277.344  L 154.967504 271.296  L 155.380354 265.248  L 155.692536 259.2  L 156.325064 253.152  L 156.72272 247.104  L 157.751923 241.056  L 159.006334 235.008  L 160.806726 228.96  L 163.568774 222.912  L 167.289496 216.864  L 171.649145 210.816  L 176.029355 204.768  L 180.060246 198.72  L 183.552164 192.672  L 186.85001 186.624  L 189.658112 180.576  L 192.432852 174.528  L 194.81818 168.48  L 197.061593 162.432  L 199.349684 156.384  L 201.331539 150.336  L 203.223596 144.288  L 205.045277 138.24  L 206.940315 132.192  L 208.58207 126.144  L 210.163473 120.096  L 211.696621 114.048  L 213.191561 108  L 214.658048 101.952  L 216.208904 95.904  L 217.539751 89.856  L 218.83099 83.808  L 220.089847 77.76  L 221.31998 71.712  L 222.524344 65.664  L 223.705828 59.616  L 224.867668 53.568  " style="fill:none;stroke:#1f77b4;stroke-linecap:square;stroke-width:1.5;"/>
    <g clip-path="url(#pe82e9d87a3)">
     <use style="fill:#1f77b4;stroke:#1f77b4;" x="154.290593" xlink:href="#m004c7e2d46" y="295.488"/>
     <use style="fill:#1f77b4;stroke:#1f77b4;" x="154.331242" xlink:href="#m004c7e2d46" y="289.44"/>
     <use style="fill:#1f77b4;stroke:#1f77b4;" x="154.642704" xlink:href="#m004c7e2d46" y="283.392"/>
     <use style="fill:#1f77b4;stroke:#1f77b4;" x="154.735152" xlink:href="#m004c7e2d46" y="277.344"/>
     <use style="fill:#1f77b4;stroke:#1f77b4;" x="154.967504" xlink:href="#m004c7e2d46" y="271.296"/>
     <use style="fill:#1f77b4;stroke:#1f77b4;" x="155.380354" xlink:href="#m004c7e2d46" y="265.248"/>
     <use style="fill:#1f77b4;stroke:#1f77b4;" x="155.692536" xlink:href="#m004c7e2d46" y="259.2"/>
     <use style="fill:#1f77b4;stroke:#1f77b4;" x="156.325064" xlink:href="#m004c7e2d46" y="253.152"/>
     <use style="fill:#1f77b4;stroke:#1f77b4;" x="156.72272" xlink:href="#m004c7e2d46" y="247.104"/>
     <use style="fill:#1f77b4;stroke:#1f77b4;" x="157.751923" xlink:href="#m004c7e2d46" y="241.056"/>
     <use style="fill:#1f77b4;stroke:#1f77b4;" x="159.006334" xlink:href="#m004c7e2d46" y="235.008"/>
     <use style="fill:#1f77b4;stroke:#1f77b4;" x="160.806726" xlink:href="#m004c7e2d46" y="228.96"/>
     <use style="fill:#1f77b4;stroke:#1f77b4;" x="163.568774" xlink:href="#m004c7e2d46" y="222.912"/>
     <use style="fill:#1f77b4;stroke:#1f77b4;" x="167.289496" xlink:href="#m004c7e2d46" y="216.864"/>
     <use style="fill:#1f77b4;stroke:#1f77b4;" x="171.649145" xlink:href="#m004c7e2d46" y="210.816"/>
     <use style="fill:#1f77b4;stroke:#1f77b4;" x="176.029355" xlink:href="#m004c7e2d46" y="204.768"/>
     <use style="fill:#1f77b4;stroke:#1f77b4;" x="180.060246" xlink:href="#m004c7e2d46" y="198.72"/>
     <use style="fill:#1f77b4;stroke:#1f77b4;" x="183.552164" xlink:href="#m004c7e2d46" y="192.672"/>
     <use style="fill:#1f77b4;stroke:#1f77b4;" x="186.85001" xlink:href="#m004c7e2d46" y="186.624"/>
     <use style="fill:#1f77b4;stroke:#1f77b4;" x="189.658112" xlink:href="#m004c7e2d46" y="180.576"/>
     <use style="fill:#1f77b4;stroke:#1f77b4;" x="192.432852" xlink:href="#m004c7e2d46" y="174.528"/>
     <use style="fill:#1f77b4;stroke:#1f77b4;" x="194.81818" xlink:href="#m004c7e2d46" y="168.48"/>
     <use style="fill:#1f77b4;stroke:#1f77b4;" x="197.061593" xlink:href="#m004c7e2d46" y="162.432"/>
     <use style="fill:#1f77b4;stroke:#1f77b4;" x="199.349684" xlink:href="#m004c7e2d46" y="156.384"/>
     <use style="fill:#1f77b4;stroke:#1f77b4;" x="201.331539" xlink:href="#m004c7e2d46" y="150.336"/>
     <use style="fill:#1f77b4;stroke:#1f77b4;" x="203.223596" xlink:href="#m004c7e2d46" y="144.288"/>
     <use style="fill:#1f77b4;stroke:#1f77b4;" x="205.045277" xlink:href="#m004c7e2d46" y="138.24"/>
     <use style="fill:#1f77b4;stroke:#1f77b4;" x="206.940315" xlink:href="#m004c7e2d46" y="132.192"/>
     <use style="fill:#1f77b4;stroke:#1f77b4;" x="208.58207" xlink:href="#m004c7e2d46" y="126.144"/>
     <use style="fill:#1f77b4;stroke:#1f77b4;" x="210.163473" xlink:href="#m004c7e2d46" y="120.096"/>
     <use style="fill:#1f77b4;stroke:#1f77b4;" x="211.696621" xlink:href="#m004c7e2d46" y="114.048"/>
     <use style="fill:#1f77b4;stroke:#1f77b4;" x="213.191561" xlink:href="#m004c7e2d46" y="108"/>
     <use style="fill:#1f77b4;stroke:#1f77b4;" x="214.658048" xlink:href="#m004c7e2d46" y="101.952"/>
     <use style="fill:#1f77b4;stroke:#1f77b4;" x="216.208904" xlink:href="#m004c7e2d46" y="95.904"/>
     <use style="fill:#1f77b4;stroke:#1f77b4;" x="217.539751" xlink:href="#m004c7e2d46" y="89.856"/>
     <use style="fill:#1f77b4;stroke:#1f77b4;" x="218.83099" xlink:href="#m004c7e2d46" y="83.808"/>
     <use style="fill:#1f77b4;stroke:#1f77b4;" x="220.089847" xlink:href="#m004c7e2d46" y="77.76"/>
     <use style="fill:#1f77b4;stroke:#1f77b4;" x="221.31998" xlink:href="#m004c7e2d46" y="71.712"/>
     <use style="fill:#1f77b4;stroke:#1f77b4;" x="222.524344" xlink:href="#m004c7e2d46" y="65.664"/>
     <use style="fill:#1f77b4;stroke:#1f77b4;" x="223.705828" xlink:href="#m004c7e2d46" y="59.616"/>
     <use style="fill:#1f77b4;stroke:#1f77b4;" x="224.867668" xlink:href="#m004c7e2d46" y="53.568"/>
    </g>
   </g>
   <g id="patch_8">
    <path d="M 150.761739 307.584  L 150.761739 41.472  " style="fill:none;stroke:#000000;stroke-linecap:square;stroke-linejoin:miter;stroke-width:0.8;"/>
   </g>
   <g id="patch_9">
    <path d="M 228.396522 307.584  L 228.396522 41.472  " style="fill:none;stroke:#000000;stroke-linecap:square;stroke-linejoin:miter;stroke-width:0.8;"/>
   </g>
   <g id="patch_10">
    <path d="M 150.761739 307.584  L 228.396522 307.584  " style="fill:none;stroke:#000000;stroke-linecap:square;stroke-linejoin:miter;stroke-width:0.8;"/>
   </g>
   <g id="patch_11">
    <path d="M 150.761739 41.472  L 228.396522 41.472  " style="fill:none;stroke:#000000;stroke-linecap:square;stroke-linejoin:miter;stroke-width:0.8;"/>
   </g>
   <g id="text_14">
    <!-- r_eff -->
    <g transform="translate(176.196318 35.472)scale(0.12 -0.12)">
     <defs>
      <path d="M 41.109375 46.296875  Q 39.59375 47.171875 37.8125 47.578125  Q 36.03125 48 33.890625 48  Q 26.265625 48 22.1875 43.046875  Q 18.109375 38.09375 18.109375 28.8125  L 18.109375 0  L 9.078125 0  L 9.078125 54.6875  L 18.109375 54.6875  L 18.109375 46.1875  Q 20.953125 51.171875 25.484375 53.578125  Q 30.03125 56 36.53125 56  Q 37.453125 56 38.578125 55.875  Q 39.703125 55.765625 41.0625 55.515625  z " id="DejaVuSans-114"/>
      <path d="M 56.203125 29.59375  L 56.203125 25.203125  L 14.890625 25.203125  Q 15.484375 15.921875 20.484375 11.0625  Q 25.484375 6.203125 34.421875 6.203125  Q 39.59375 6.203125 44.453125 7.46875  Q 49.3125 8.734375 54.109375 11.28125  L 54.109375 2.78125  Q 49.265625 0.734375 44.1875 -0.34375  Q 39.109375 -1.421875 33.890625 -1.421875  Q 20.796875 -1.421875 13.15625 6.1875  Q 5.515625 13.8125 5.515625 26.8125  Q 5.515625 40.234375 12.765625 48.109375  Q 20.015625 56 32.328125 56  Q 43.359375 56 49.78125 48.890625  Q 56.203125 41.796875 56.203125 29.59375  z M 47.21875 32.234375  Q 47.125 39.59375 43.09375 43.984375  Q 39.0625 48.390625 32.421875 48.390625  Q 24.90625 48.390625 20.390625 44.140625  Q 15.875 39.890625 15.1875 32.171875  z " id="DejaVuSans-101"/>
      <path d="M 37.109375 75.984375  L 37.109375 68.5  L 28.515625 68.5  Q 23.6875 68.5 21.796875 66.546875  Q 19.921875 64.59375 19.921875 59.515625  L 19.921875 54.6875  L 34.71875 54.6875  L 34.71875 47.703125  L 19.921875 47.703125  L 19.921875 0  L 10.890625 0  L 10.890625 47.703125  L 2.296875 47.703125  L 2.296875 54.6875  L 10.890625 54.6875  L 10.890625 58.5  Q 10.890625 67.625 15.140625 71.796875  Q 19.390625 75.984375 28.609375 75.984375  z " id="DejaVuSans-102"/>
     </defs>
     <use xlink:href="#DejaVuSans-114"/>
     <use x="41.113281" xlink:href="#DejaVuSans-95"/>
     <use x="91.113281" xlink:href="#DejaVuSans-101"/>
     <use x="152.636719" xlink:href="#DejaVuSans-102"/>
     <use x="187.841797" xlink:href="#DejaVuSans-102"/>
    </g>
   </g>
  </g>
  <g id="axes_3">
   <g id="patch_12">
    <path d="M 243.923478 307.584  L 321.558261 307.584  L 321.558261 41.472  L 243.923478 41.472  z " style="fill:#ffffff;"/>
   </g>
   <g id="matplotlib.axis_5">
    <g id="xtick_5">
     <g id="line2d_35">
      <path clip-path="url(#p15889aa022)" d="M 246.944086 307.584  L 246.944086 41.472  " style="fill:none;stroke:#b0b0b0;stroke-linecap:square;stroke-width:0.8;"/>
     </g>
     <g id="line2d_36">
      <g>
       <use style="stroke:#000000;stroke-width:0.8;" x="246.944086" xlink:href="#m463d45333f" y="307.584"/>
      </g>
     </g>
     <g id="text_15">
      <!-- 0 -->
      <g transform="translate(243.762836 322.182437)scale(0.1 -0.1)">
       <use xlink:href="#DejaVuSans-48"/>
      </g>
     </g>
    </g>
    <g id="xtick_6">
     <g id="line2d_37">
      <path clip-path="url(#p15889aa022)" d="M 304.972343 307.584  L 304.972343 41.472  " style="fill:none;stroke:#b0b0b0;stroke-linecap:square;stroke-width:0.8;"/>
     </g>
     <g id="line2d_38">
      <g>
       <use style="stroke:#000000;stroke-width:0.8;" x="304.972343" xlink:href="#m463d45333f" y="307.584"/>
      </g>
     </g>
     <g id="text_16">
      <!-- 5000 -->
      <g transform="translate(292.247343 322.182437)scale(0.1 -0.1)">
       <defs>
        <path d="M 10.796875 72.90625  L 49.515625 72.90625  L 49.515625 64.59375  L 19.828125 64.59375  L 19.828125 46.734375  Q 21.96875 47.46875 24.109375 47.828125  Q 26.265625 48.1875 28.421875 48.1875  Q 40.625 48.1875 47.75 41.5  Q 54.890625 34.8125 54.890625 23.390625  Q 54.890625 11.625 47.5625 5.09375  Q 40.234375 -1.421875 26.90625 -1.421875  Q 22.3125 -1.421875 17.546875 -0.640625  Q 12.796875 0.140625 7.71875 1.703125  L 7.71875 11.625  Q 12.109375 9.234375 16.796875 8.0625  Q 21.484375 6.890625 26.703125 6.890625  Q 35.15625 6.890625 40.078125 11.328125  Q 45.015625 15.765625 45.015625 23.390625  Q 45.015625 31 40.078125 35.4375  Q 35.15625 39.890625 26.703125 39.890625  Q 22.75 39.890625 18.8125 39.015625  Q 14.890625 38.140625 10.796875 36.28125  z " id="DejaVuSans-53"/>
       </defs>
       <use xlink:href="#DejaVuSans-53"/>
       <use x="63.623047" xlink:href="#DejaVuSans-48"/>
       <use x="127.246094" xlink:href="#DejaVuSans-48"/>
       <use x="190.869141" xlink:href="#DejaVuSans-48"/>
      </g>
     </g>
    </g>
    <g id="text_17">
     <!-- cm-3 -->
     <g transform="translate(270.136182 335.860562)scale(0.1 -0.1)">
      <defs>
       <path d="M 48.78125 52.59375  L 48.78125 44.1875  Q 44.96875 46.296875 41.140625 47.34375  Q 37.3125 48.390625 33.40625 48.390625  Q 24.65625 48.390625 19.8125 42.84375  Q 14.984375 37.3125 14.984375 27.296875  Q 14.984375 17.28125 19.8125 11.734375  Q 24.65625 6.203125 33.40625 6.203125  Q 37.3125 6.203125 41.140625 7.25  Q 44.96875 8.296875 48.78125 10.40625  L 48.78125 2.09375  Q 45.015625 0.34375 40.984375 -0.53125  Q 36.96875 -1.421875 32.421875 -1.421875  Q 20.0625 -1.421875 12.78125 6.34375  Q 5.515625 14.109375 5.515625 27.296875  Q 5.515625 40.671875 12.859375 48.328125  Q 20.21875 56 33.015625 56  Q 37.15625 56 41.109375 55.140625  Q 45.0625 54.296875 48.78125 52.59375  z " id="DejaVuSans-99"/>
       <path d="M 4.890625 31.390625  L 31.203125 31.390625  L 31.203125 23.390625  L 4.890625 23.390625  z " id="DejaVuSans-45"/>
       <path d="M 40.578125 39.3125  Q 47.65625 37.796875 51.625 33  Q 55.609375 28.21875 55.609375 21.1875  Q 55.609375 10.40625 48.1875 4.484375  Q 40.765625 -1.421875 27.09375 -1.421875  Q 22.515625 -1.421875 17.65625 -0.515625  Q 12.796875 0.390625 7.625 2.203125  L 7.625 11.71875  Q 11.71875 9.328125 16.59375 8.109375  Q 21.484375 6.890625 26.8125 6.890625  Q 36.078125 6.890625 40.9375 10.546875  Q 45.796875 14.203125 45.796875 21.1875  Q 45.796875 27.640625 41.28125 31.265625  Q 36.765625 34.90625 28.71875 34.90625  L 20.21875 34.90625  L 20.21875 43.015625  L 29.109375 43.015625  Q 36.375 43.015625 40.234375 45.921875  Q 44.09375 48.828125 44.09375 54.296875  Q 44.09375 59.90625 40.109375 62.90625  Q 36.140625 65.921875 28.71875 65.921875  Q 24.65625 65.921875 20.015625 65.03125  Q 15.375 64.15625 9.8125 62.3125  L 9.8125 71.09375  Q 15.4375 72.65625 20.34375 73.4375  Q 25.25 74.21875 29.59375 74.21875  Q 40.828125 74.21875 47.359375 69.109375  Q 53.90625 64.015625 53.90625 55.328125  Q 53.90625 49.265625 50.4375 45.09375  Q 46.96875 40.921875 40.578125 39.3125  z " id="DejaVuSans-51"/>
      </defs>
      <use xlink:href="#DejaVuSans-99"/>
      <use x="54.980469" xlink:href="#DejaVuSans-109"/>
      <use x="152.392578" xlink:href="#DejaVuSans-45"/>
      <use x="188.476562" xlink:href="#DejaVuSans-51"/>
     </g>
    </g>
   </g>
   <g id="matplotlib.axis_6">
    <g id="ytick_13">
     <g id="line2d_39">
      <path clip-path="url(#p15889aa022)" d="M 243.923478 295.488  L 321.558261 295.488  " style="fill:none;stroke:#b0b0b0;stroke-linecap:square;stroke-width:0.8;"/>
     </g>
     <g id="line2d_40">
      <g>
       <use style="stroke:#000000;stroke-width:0.8;" x="243.923478" xlink:href="#m8fab02d73c" y="295.488"/>
      </g>
     </g>
    </g>
    <g id="ytick_14">
     <g id="line2d_41">
      <path clip-path="url(#p15889aa022)" d="M 243.923478 247.104  L 321.558261 247.104  " style="fill:none;stroke:#b0b0b0;stroke-linecap:square;stroke-width:0.8;"/>
     </g>
     <g id="line2d_42">
      <g>
       <use style="stroke:#000000;stroke-width:0.8;" x="243.923478" xlink:href="#m8fab02d73c" y="247.104"/>
      </g>
     </g>
    </g>
    <g id="ytick_15">
     <g id="line2d_43">
      <path clip-path="url(#p15889aa022)" d="M 243.923478 198.72  L 321.558261 198.72  " style="fill:none;stroke:#b0b0b0;stroke-linecap:square;stroke-width:0.8;"/>
     </g>
     <g id="line2d_44">
      <g>
       <use style="stroke:#000000;stroke-width:0.8;" x="243.923478" xlink:href="#m8fab02d73c" y="198.72"/>
      </g>
     </g>
    </g>
    <g id="ytick_16">
     <g id="line2d_45">
      <path clip-path="url(#p15889aa022)" d="M 243.923478 150.336  L 321.558261 150.336  " style="fill:none;stroke:#b0b0b0;stroke-linecap:square;stroke-width:0.8;"/>
     </g>
     <g id="line2d_46">
      <g>
       <use style="stroke:#000000;stroke-width:0.8;" x="243.923478" xlink:href="#m8fab02d73c" y="150.336"/>
      </g>
     </g>
    </g>
    <g id="ytick_17">
     <g id="line2d_47">
      <path clip-path="url(#p15889aa022)" d="M 243.923478 101.952  L 321.558261 101.952  " style="fill:none;stroke:#b0b0b0;stroke-linecap:square;stroke-width:0.8;"/>
     </g>
     <g id="line2d_48">
      <g>
       <use style="stroke:#000000;stroke-width:0.8;" x="243.923478" xlink:href="#m8fab02d73c" y="101.952"/>
      </g>
     </g>
    </g>
    <g id="ytick_18">
     <g id="line2d_49">
      <path clip-path="url(#p15889aa022)" d="M 243.923478 53.568  L 321.558261 53.568  " style="fill:none;stroke:#b0b0b0;stroke-linecap:square;stroke-width:0.8;"/>
     </g>
     <g id="line2d_50">
      <g>
       <use style="stroke:#000000;stroke-width:0.8;" x="243.923478" xlink:href="#m8fab02d73c" y="53.568"/>
      </g>
     </g>
    </g>
   </g>
   <g id="line2d_51">
    <path clip-path="url(#p15889aa022)" d="M 247.452332 295.488  L 247.563949 289.44  L 247.696911 283.392  L 247.94402 277.344  L 248.260056 271.296  L 248.660229 265.248  L 249.35516 259.2  L 250.277915 253.152  L 252.207379 247.104  L 254.968128 241.056  L 260.293282 235.008  L 270.151748 228.96  L 285.433393 222.912  L 302.783288 216.864  L 314.172545 210.816  L 318.029407 204.768  L 318.011709 198.72  L 317.994075 192.672  L 316.039002 186.624  L 316.021943 180.576  L 314.072667 174.528  L 314.056134 168.48  L 314.039618 162.432  L 312.098716 156.384  L 312.082699 150.336  L 312.066689 144.288  L 312.050691 138.24  L 310.120709 132.192  L 310.105193 126.144  L 310.089683 120.096  L 310.074181 114.048  L 310.058686 108  L 310.043196 101.952  L 308.127114 95.904  L 308.112094 89.856  L 308.097081 83.808  L 308.082074 77.76  L 308.067072 71.712  L 308.052074 65.664  L 308.03708 59.616  L 308.02209 53.568  " style="fill:none;stroke:#1f77b4;stroke-linecap:square;stroke-width:1.5;"/>
    <g clip-path="url(#p15889aa022)">
     <use style="fill:#1f77b4;stroke:#1f77b4;" x="247.452332" xlink:href="#m004c7e2d46" y="295.488"/>
     <use style="fill:#1f77b4;stroke:#1f77b4;" x="247.563949" xlink:href="#m004c7e2d46" y="289.44"/>
     <use style="fill:#1f77b4;stroke:#1f77b4;" x="247.696911" xlink:href="#m004c7e2d46" y="283.392"/>
     <use style="fill:#1f77b4;stroke:#1f77b4;" x="247.94402" xlink:href="#m004c7e2d46" y="277.344"/>
     <use style="fill:#1f77b4;stroke:#1f77b4;" x="248.260056" xlink:href="#m004c7e2d46" y="271.296"/>
     <use style="fill:#1f77b4;stroke:#1f77b4;" x="248.660229" xlink:href="#m004c7e2d46" y="265.248"/>
     <use style="fill:#1f77b4;stroke:#1f77b4;" x="249.35516" xlink:href="#m004c7e2d46" y="259.2"/>
     <use style="fill:#1f77b4;stroke:#1f77b4;" x="250.277915" xlink:href="#m004c7e2d46" y="253.152"/>
     <use style="fill:#1f77b4;stroke:#1f77b4;" x="252.207379" xlink:href="#m004c7e2d46" y="247.104"/>
     <use style="fill:#1f77b4;stroke:#1f77b4;" x="254.968128" xlink:href="#m004c7e2d46" y="241.056"/>
     <use style="fill:#1f77b4;stroke:#1f77b4;" x="260.293282" xlink:href="#m004c7e2d46" y="235.008"/>
     <use style="fill:#1f77b4;stroke:#1f77b4;" x="270.151748" xlink:href="#m004c7e2d46" y="228.96"/>
     <use style="fill:#1f77b4;stroke:#1f77b4;" x="285.433393" xlink:href="#m004c7e2d46" y="222.912"/>
     <use style="fill:#1f77b4;stroke:#1f77b4;" x="302.783288" xlink:href="#m004c7e2d46" y="216.864"/>
     <use style="fill:#1f77b4;stroke:#1f77b4;" x="314.172545" xlink:href="#m004c7e2d46" y="210.816"/>
     <use style="fill:#1f77b4;stroke:#1f77b4;" x="318.029407" xlink:href="#m004c7e2d46" y="204.768"/>
     <use style="fill:#1f77b4;stroke:#1f77b4;" x="318.011709" xlink:href="#m004c7e2d46" y="198.72"/>
     <use style="fill:#1f77b4;stroke:#1f77b4;" x="317.994075" xlink:href="#m004c7e2d46" y="192.672"/>
     <use style="fill:#1f77b4;stroke:#1f77b4;" x="316.039002" xlink:href="#m004c7e2d46" y="186.624"/>
     <use style="fill:#1f77b4;stroke:#1f77b4;" x="316.021943" xlink:href="#m004c7e2d46" y="180.576"/>
     <use style="fill:#1f77b4;stroke:#1f77b4;" x="314.072667" xlink:href="#m004c7e2d46" y="174.528"/>
     <use style="fill:#1f77b4;stroke:#1f77b4;" x="314.056134" xlink:href="#m004c7e2d46" y="168.48"/>
     <use style="fill:#1f77b4;stroke:#1f77b4;" x="314.039618" xlink:href="#m004c7e2d46" y="162.432"/>
     <use style="fill:#1f77b4;stroke:#1f77b4;" x="312.098716" xlink:href="#m004c7e2d46" y="156.384"/>
     <use style="fill:#1f77b4;stroke:#1f77b4;" x="312.082699" xlink:href="#m004c7e2d46" y="150.336"/>
     <use style="fill:#1f77b4;stroke:#1f77b4;" x="312.066689" xlink:href="#m004c7e2d46" y="144.288"/>
     <use style="fill:#1f77b4;stroke:#1f77b4;" x="312.050691" xlink:href="#m004c7e2d46" y="138.24"/>
     <use style="fill:#1f77b4;stroke:#1f77b4;" x="310.120709" xlink:href="#m004c7e2d46" y="132.192"/>
     <use style="fill:#1f77b4;stroke:#1f77b4;" x="310.105193" xlink:href="#m004c7e2d46" y="126.144"/>
     <use style="fill:#1f77b4;stroke:#1f77b4;" x="310.089683" xlink:href="#m004c7e2d46" y="120.096"/>
     <use style="fill:#1f77b4;stroke:#1f77b4;" x="310.074181" xlink:href="#m004c7e2d46" y="114.048"/>
     <use style="fill:#1f77b4;stroke:#1f77b4;" x="310.058686" xlink:href="#m004c7e2d46" y="108"/>
     <use style="fill:#1f77b4;stroke:#1f77b4;" x="310.043196" xlink:href="#m004c7e2d46" y="101.952"/>
     <use style="fill:#1f77b4;stroke:#1f77b4;" x="308.127114" xlink:href="#m004c7e2d46" y="95.904"/>
     <use style="fill:#1f77b4;stroke:#1f77b4;" x="308.112094" xlink:href="#m004c7e2d46" y="89.856"/>
     <use style="fill:#1f77b4;stroke:#1f77b4;" x="308.097081" xlink:href="#m004c7e2d46" y="83.808"/>
     <use style="fill:#1f77b4;stroke:#1f77b4;" x="308.082074" xlink:href="#m004c7e2d46" y="77.76"/>
     <use style="fill:#1f77b4;stroke:#1f77b4;" x="308.067072" xlink:href="#m004c7e2d46" y="71.712"/>
     <use style="fill:#1f77b4;stroke:#1f77b4;" x="308.052074" xlink:href="#m004c7e2d46" y="65.664"/>
     <use style="fill:#1f77b4;stroke:#1f77b4;" x="308.03708" xlink:href="#m004c7e2d46" y="59.616"/>
     <use style="fill:#1f77b4;stroke:#1f77b4;" x="308.02209" xlink:href="#m004c7e2d46" y="53.568"/>
    </g>
   </g>
   <g id="patch_13">
    <path d="M 243.923478 307.584  L 243.923478 41.472  " style="fill:none;stroke:#000000;stroke-linecap:square;stroke-linejoin:miter;stroke-width:0.8;"/>
   </g>
   <g id="patch_14">
    <path d="M 321.558261 307.584  L 321.558261 41.472  " style="fill:none;stroke:#000000;stroke-linecap:square;stroke-linejoin:miter;stroke-width:0.8;"/>
   </g>
   <g id="patch_15">
    <path d="M 243.923478 307.584  L 321.558261 307.584  " style="fill:none;stroke:#000000;stroke-linecap:square;stroke-linejoin:miter;stroke-width:0.8;"/>
   </g>
   <g id="patch_16">
    <path d="M 243.923478 41.472  L 321.558261 41.472  " style="fill:none;stroke:#000000;stroke-linecap:square;stroke-linejoin:miter;stroke-width:0.8;"/>
   </g>
   <g id="text_18">
    <!-- n_c_cm3 -->
    <g transform="translate(256.67837 35.472)scale(0.12 -0.12)">
     <defs>
      <path d="M 54.890625 33.015625  L 54.890625 0  L 45.90625 0  L 45.90625 32.71875  Q 45.90625 40.484375 42.875 44.328125  Q 39.84375 48.1875 33.796875 48.1875  Q 26.515625 48.1875 22.3125 43.546875  Q 18.109375 38.921875 18.109375 30.90625  L 18.109375 0  L 9.078125 0  L 9.078125 54.6875  L 18.109375 54.6875  L 18.109375 46.1875  Q 21.34375 51.125 25.703125 53.5625  Q 30.078125 56 35.796875 56  Q 45.21875 56 50.046875 50.171875  Q 54.890625 44.34375 54.890625 33.015625  z " id="DejaVuSans-110"/>
     </defs>
     <use xlink:href="#DejaVuSans-110"/>
     <use x="63.378906" xlink:href="#DejaVuSans-95"/>
     <use x="113.378906" xlink:href="#DejaVuSans-99"/>
     <use x="168.359375" xlink:href="#DejaVuSans-95"/>
     <use x="218.359375" xlink:href="#DejaVuSans-99"/>
     <use x="273.339844" xlink:href="#DejaVuSans-109"/>
     <use x="370.751953" xlink:href="#DejaVuSans-51"/>
    </g>
   </g>
  </g>
  <g id="axes_4">
   <g id="patch_17">
    <path d="M 337.085217 307.584  L 414.72 307.584  L 414.72 41.472  L 337.085217 41.472  z " style="fill:#ffffff;"/>
   </g>
   <g id="matplotlib.axis_7">
    <g id="xtick_7">
     <g id="line2d_52">
      <path clip-path="url(#pa9ad49d70d)" d="M 340.599832 307.584  L 340.599832 41.472  " style="fill:none;stroke:#b0b0b0;stroke-linecap:square;stroke-width:0.8;"/>
     </g>
     <g id="line2d_53">
      <g>
       <use style="stroke:#000000;stroke-width:0.8;" x="340.599832" xlink:href="#m463d45333f" y="307.584"/>
      </g>
     </g>
     <g id="text_19">
      <!-- 0.0 -->
      <g transform="translate(332.648269 322.182437)scale(0.1 -0.1)">
       <defs>
        <path d="M 10.6875 12.40625  L 21 12.40625  L 21 0  L 10.6875 0  z " id="DejaVuSans-46"/>
       </defs>
       <use xlink:href="#DejaVuSans-48"/>
       <use x="63.623047" xlink:href="#DejaVuSans-46"/>
       <use x="95.410156" xlink:href="#DejaVuSans-48"/>
      </g>
     </g>
    </g>
    <g id="xtick_8">
     <g id="line2d_54">
      <path clip-path="url(#pa9ad49d70d)" d="M 389.859681 307.584  L 389.859681 41.472  " style="fill:none;stroke:#b0b0b0;stroke-linecap:square;stroke-width:0.8;"/>
     </g>
     <g id="line2d_55">
      <g>
       <use style="stroke:#000000;stroke-width:0.8;" x="389.859681" xlink:href="#m463d45333f" y="307.584"/>
      </g>
     </g>
     <g id="text_20">
      <!-- 0.1 -->
      <g transform="translate(381.908119 322.182437)scale(0.1 -0.1)">
       <use xlink:href="#DejaVuSans-48"/>
       <use x="63.623047" xlink:href="#DejaVuSans-46"/>
       <use x="95.410156" xlink:href="#DejaVuSans-49"/>
      </g>
     </g>
    </g>
    <g id="text_21">
     <!-- g/kg -->
     <g transform="translate(364.974484 335.860562)scale(0.1 -0.1)">
      <defs>
       <path d="M 45.40625 27.984375  Q 45.40625 37.75 41.375 43.109375  Q 37.359375 48.484375 30.078125 48.484375  Q 22.859375 48.484375 18.828125 43.109375  Q 14.796875 37.75 14.796875 27.984375  Q 14.796875 18.265625 18.828125 12.890625  Q 22.859375 7.515625 30.078125 7.515625  Q 37.359375 7.515625 41.375 12.890625  Q 45.40625 18.265625 45.40625 27.984375  z M 54.390625 6.78125  Q 54.390625 -7.171875 48.1875 -13.984375  Q 42 -20.796875 29.203125 -20.796875  Q 24.46875 -20.796875 20.265625 -20.09375  Q 16.0625 -19.390625 12.109375 -17.921875  L 12.109375 -9.1875  Q 16.0625 -11.328125 19.921875 -12.34375  Q 23.78125 -13.375 27.78125 -13.375  Q 36.625 -13.375 41.015625 -8.765625  Q 45.40625 -4.15625 45.40625 5.171875  L 45.40625 9.625  Q 42.625 4.78125 38.28125 2.390625  Q 33.9375 0 27.875 0  Q 17.828125 0 11.671875 7.65625  Q 5.515625 15.328125 5.515625 27.984375  Q 5.515625 40.671875 11.671875 48.328125  Q 17.828125 56 27.875 56  Q 33.9375 56 38.28125 53.609375  Q 42.625 51.21875 45.40625 46.390625  L 45.40625 54.6875  L 54.390625 54.6875  z " id="DejaVuSans-103"/>
       <path d="M 25.390625 72.90625  L 33.6875 72.90625  L 8.296875 -9.28125  L 0 -9.28125  z " id="DejaVuSans-47"/>
       <path d="M 9.078125 75.984375  L 18.109375 75.984375  L 18.109375 31.109375  L 44.921875 54.6875  L 56.390625 54.6875  L 27.390625 29.109375  L 57.625 0  L 45.90625 0  L 18.109375 26.703125  L 18.109375 0  L 9.078125 0  z " id="DejaVuSans-107"/>
      </defs>
      <use xlink:href="#DejaVuSans-103"/>
      <use x="63.476562" xlink:href="#DejaVuSans-47"/>
      <use x="97.167969" xlink:href="#DejaVuSans-107"/>
      <use x="155.078125" xlink:href="#DejaVuSans-103"/>
     </g>
    </g>
   </g>
   <g id="matplotlib.axis_8">
    <g id="ytick_19">
     <g id="line2d_56">
      <path clip-path="url(#pa9ad49d70d)" d="M 337.085217 295.488  L 414.72 295.488  " style="fill:none;stroke:#b0b0b0;stroke-linecap:square;stroke-width:0.8;"/>
     </g>
     <g id="line2d_57">
      <g>
       <use style="stroke:#000000;stroke-width:0.8;" x="337.085217" xlink:href="#m8fab02d73c" y="295.488"/>
      </g>
     </g>
    </g>
    <g id="ytick_20">
     <g id="line2d_58">
      <path clip-path="url(#pa9ad49d70d)" d="M 337.085217 247.104  L 414.72 247.104  " style="fill:none;stroke:#b0b0b0;stroke-linecap:square;stroke-width:0.8;"/>
     </g>
     <g id="line2d_59">
      <g>
       <use style="stroke:#000000;stroke-width:0.8;" x="337.085217" xlink:href="#m8fab02d73c" y="247.104"/>
      </g>
     </g>
    </g>
    <g id="ytick_21">
     <g id="line2d_60">
      <path clip-path="url(#pa9ad49d70d)" d="M 337.085217 198.72  L 414.72 198.72  " style="fill:none;stroke:#b0b0b0;stroke-linecap:square;stroke-width:0.8;"/>
     </g>
     <g id="line2d_61">
      <g>
       <use style="stroke:#000000;stroke-width:0.8;" x="337.085217" xlink:href="#m8fab02d73c" y="198.72"/>
      </g>
     </g>
    </g>
    <g id="ytick_22">
     <g id="line2d_62">
      <path clip-path="url(#pa9ad49d70d)" d="M 337.085217 150.336  L 414.72 150.336  " style="fill:none;stroke:#b0b0b0;stroke-linecap:square;stroke-width:0.8;"/>
     </g>
     <g id="line2d_63">
      <g>
       <use style="stroke:#000000;stroke-width:0.8;" x="337.085217" xlink:href="#m8fab02d73c" y="150.336"/>
      </g>
     </g>
    </g>
    <g id="ytick_23">
     <g id="line2d_64">
      <path clip-path="url(#pa9ad49d70d)" d="M 337.085217 101.952  L 414.72 101.952  " style="fill:none;stroke:#b0b0b0;stroke-linecap:square;stroke-width:0.8;"/>
     </g>
     <g id="line2d_65">
      <g>
       <use style="stroke:#000000;stroke-width:0.8;" x="337.085217" xlink:href="#m8fab02d73c" y="101.952"/>
      </g>
     </g>
    </g>
    <g id="ytick_24">
     <g id="line2d_66">
      <path clip-path="url(#pa9ad49d70d)" d="M 337.085217 53.568  L 414.72 53.568  " style="fill:none;stroke:#b0b0b0;stroke-linecap:square;stroke-width:0.8;"/>
     </g>
     <g id="line2d_67">
      <g>
       <use style="stroke:#000000;stroke-width:0.8;" x="337.085217" xlink:href="#m8fab02d73c" y="53.568"/>
      </g>
     </g>
    </g>
   </g>
   <g id="line2d_68">
    <path clip-path="url(#pa9ad49d70d)" d="M 340.614071 295.488  L 340.617234 289.44  L 340.621611 283.392  L 340.628902 277.344  L 340.638834 271.296  L 340.652631 265.248  L 340.675835 259.2  L 340.710929 253.152  L 340.779848 247.104  L 340.898884 241.056  L 341.148607 235.008  L 341.693267 228.96  L 342.826907 222.912  L 344.798048 216.864  L 347.360875 210.816  L 350.05486 204.768  L 352.689734 198.72  L 355.279563 192.672  L 357.792917 186.624  L 360.312728 180.576  L 362.770969 174.528  L 365.252944 168.48  L 367.716292 162.432  L 370.13579 156.384  L 372.587718 150.336  L 375.024931 144.288  L 377.451554 138.24  L 379.853856 132.192  L 382.287265 126.144  L 384.707375 120.096  L 387.121551 114.048  L 389.533226 108  L 391.943622 101.952  L 394.337034 95.904  L 396.758617 89.856  L 399.168201 83.808  L 401.574617 77.76  L 403.979806 71.712  L 406.384236 65.664  L 408.787978 59.616  L 411.191146 53.568  " style="fill:none;stroke:#1f77b4;stroke-linecap:square;stroke-width:1.5;"/>
    <g clip-path="url(#pa9ad49d70d)">
     <use style="fill:#1f77b4;stroke:#1f77b4;" x="340.614071" xlink:href="#m004c7e2d46" y="295.488"/>
     <use style="fill:#1f77b4;stroke:#1f77b4;" x="340.617234" xlink:href="#m004c7e2d46" y="289.44"/>
     <use style="fill:#1f77b4;stroke:#1f77b4;" x="340.621611" xlink:href="#m004c7e2d46" y="283.392"/>
     <use style="fill:#1f77b4;stroke:#1f77b4;" x="340.628902" xlink:href="#m004c7e2d46" y="277.344"/>
     <use style="fill:#1f77b4;stroke:#1f77b4;" x="340.638834" xlink:href="#m004c7e2d46" y="271.296"/>
     <use style="fill:#1f77b4;stroke:#1f77b4;" x="340.652631" xlink:href="#m004c7e2d46" y="265.248"/>
     <use style="fill:#1f77b4;stroke:#1f77b4;" x="340.675835" xlink:href="#m004c7e2d46" y="259.2"/>
     <use style="fill:#1f77b4;stroke:#1f77b4;" x="340.710929" xlink:href="#m004c7e2d46" y="253.152"/>
     <use style="fill:#1f77b4;stroke:#1f77b4;" x="340.779848" xlink:href="#m004c7e2d46" y="247.104"/>
     <use style="fill:#1f77b4;stroke:#1f77b4;" x="340.898884" xlink:href="#m004c7e2d46" y="241.056"/>
     <use style="fill:#1f77b4;stroke:#1f77b4;" x="341.148607" xlink:href="#m004c7e2d46" y="235.008"/>
     <use style="fill:#1f77b4;stroke:#1f77b4;" x="341.693267" xlink:href="#m004c7e2d46" y="228.96"/>
     <use style="fill:#1f77b4;stroke:#1f77b4;" x="342.826907" xlink:href="#m004c7e2d46" y="222.912"/>
     <use style="fill:#1f77b4;stroke:#1f77b4;" x="344.798048" xlink:href="#m004c7e2d46" y="216.864"/>
     <use style="fill:#1f77b4;stroke:#1f77b4;" x="347.360875" xlink:href="#m004c7e2d46" y="210.816"/>
     <use style="fill:#1f77b4;stroke:#1f77b4;" x="350.05486" xlink:href="#m004c7e2d46" y="204.768"/>
     <use style="fill:#1f77b4;stroke:#1f77b4;" x="352.689734" xlink:href="#m004c7e2d46" y="198.72"/>
     <use style="fill:#1f77b4;stroke:#1f77b4;" x="355.279563" xlink:href="#m004c7e2d46" y="192.672"/>
     <use style="fill:#1f77b4;stroke:#1f77b4;" x="357.792917" xlink:href="#m004c7e2d46" y="186.624"/>
     <use style="fill:#1f77b4;stroke:#1f77b4;" x="360.312728" xlink:href="#m004c7e2d46" y="180.576"/>
     <use style="fill:#1f77b4;stroke:#1f77b4;" x="362.770969" xlink:href="#m004c7e2d46" y="174.528"/>
     <use style="fill:#1f77b4;stroke:#1f77b4;" x="365.252944" xlink:href="#m004c7e2d46" y="168.48"/>
     <use style="fill:#1f77b4;stroke:#1f77b4;" x="367.716292" xlink:href="#m004c7e2d46" y="162.432"/>
     <use style="fill:#1f77b4;stroke:#1f77b4;" x="370.13579" xlink:href="#m004c7e2d46" y="156.384"/>
     <use style="fill:#1f77b4;stroke:#1f77b4;" x="372.587718" xlink:href="#m004c7e2d46" y="150.336"/>
     <use style="fill:#1f77b4;stroke:#1f77b4;" x="375.024931" xlink:href="#m004c7e2d46" y="144.288"/>
     <use style="fill:#1f77b4;stroke:#1f77b4;" x="377.451554" xlink:href="#m004c7e2d46" y="138.24"/>
     <use style="fill:#1f77b4;stroke:#1f77b4;" x="379.853856" xlink:href="#m004c7e2d46" y="132.192"/>
     <use style="fill:#1f77b4;stroke:#1f77b4;" x="382.287265" xlink:href="#m004c7e2d46" y="126.144"/>
     <use style="fill:#1f77b4;stroke:#1f77b4;" x="384.707375" xlink:href="#m004c7e2d46" y="120.096"/>
     <use style="fill:#1f77b4;stroke:#1f77b4;" x="387.121551" xlink:href="#m004c7e2d46" y="114.048"/>
     <use style="fill:#1f77b4;stroke:#1f77b4;" x="389.533226" xlink:href="#m004c7e2d46" y="108"/>
     <use style="fill:#1f77b4;stroke:#1f77b4;" x="391.943622" xlink:href="#m004c7e2d46" y="101.952"/>
     <use style="fill:#1f77b4;stroke:#1f77b4;" x="394.337034" xlink:href="#m004c7e2d46" y="95.904"/>
     <use style="fill:#1f77b4;stroke:#1f77b4;" x="396.758617" xlink:href="#m004c7e2d46" y="89.856"/>
     <use style="fill:#1f77b4;stroke:#1f77b4;" x="399.168201" xlink:href="#m004c7e2d46" y="83.808"/>
     <use style="fill:#1f77b4;stroke:#1f77b4;" x="401.574617" xlink:href="#m004c7e2d46" y="77.76"/>
     <use style="fill:#1f77b4;stroke:#1f77b4;" x="403.979806" xlink:href="#m004c7e2d46" y="71.712"/>
     <use style="fill:#1f77b4;stroke:#1f77b4;" x="406.384236" xlink:href="#m004c7e2d46" y="65.664"/>
     <use style="fill:#1f77b4;stroke:#1f77b4;" x="408.787978" xlink:href="#m004c7e2d46" y="59.616"/>
     <use style="fill:#1f77b4;stroke:#1f77b4;" x="411.191146" xlink:href="#m004c7e2d46" y="53.568"/>
    </g>
   </g>
   <g id="patch_18">
    <path d="M 337.085217 307.584  L 337.085217 41.472  " style="fill:none;stroke:#000000;stroke-linecap:square;stroke-linejoin:miter;stroke-width:0.8;"/>
   </g>
   <g id="patch_19">
    <path d="M 414.72 307.584  L 414.72 41.472  " style="fill:none;stroke:#000000;stroke-linecap:square;stroke-linejoin:miter;stroke-width:0.8;"/>
   </g>
   <g id="patch_20">
    <path d="M 337.085217 307.584  L 414.72 307.584  " style="fill:none;stroke:#000000;stroke-linecap:square;stroke-linejoin:miter;stroke-width:0.8;"/>
   </g>
   <g id="patch_21">
    <path d="M 337.085217 41.472  L 414.72 41.472  " style="fill:none;stroke:#000000;stroke-linecap:square;stroke-linejoin:miter;stroke-width:0.8;"/>
   </g>
   <g id="text_22">
    <!-- ql -->
    <g transform="translate(370.426671 35.472)scale(0.12 -0.12)">
     <defs>
      <path d="M 14.796875 27.296875  Q 14.796875 17.390625 18.875 11.75  Q 22.953125 6.109375 30.078125 6.109375  Q 37.203125 6.109375 41.296875 11.75  Q 45.40625 17.390625 45.40625 27.296875  Q 45.40625 37.203125 41.296875 42.84375  Q 37.203125 48.484375 30.078125 48.484375  Q 22.953125 48.484375 18.875 42.84375  Q 14.796875 37.203125 14.796875 27.296875  z M 45.40625 8.203125  Q 42.578125 3.328125 38.25 0.953125  Q 33.9375 -1.421875 27.875 -1.421875  Q 17.96875 -1.421875 11.734375 6.484375  Q 5.515625 14.40625 5.515625 27.296875  Q 5.515625 40.1875 11.734375 48.09375  Q 17.96875 56 27.875 56  Q 33.9375 56 38.25 53.625  Q 42.578125 51.265625 45.40625 46.390625  L 45.40625 54.6875  L 54.390625 54.6875  L 54.390625 -20.796875  L 45.40625 -20.796875  z " id="DejaVuSans-113"/>
      <path d="M 9.421875 75.984375  L 18.40625 75.984375  L 18.40625 0  L 9.421875 0  z " id="DejaVuSans-108"/>
     </defs>
     <use xlink:href="#DejaVuSans-113"/>
     <use x="63.476562" xlink:href="#DejaVuSans-108"/>
    </g>
   </g>
  </g>
 </g>
 <defs>
  <clipPath id="p1dded8fbda">
   <rect height="266.112" width="77.634783" x="57.6" y="41.472"/>
  </clipPath>
  <clipPath id="pe82e9d87a3">
   <rect height="266.112" width="77.634783" x="150.761739" y="41.472"/>
  </clipPath>
  <clipPath id="p15889aa022">
   <rect height="266.112" width="77.634783" x="243.923478" y="41.472"/>
  </clipPath>
  <clipPath id="pa9ad49d70d">
   <rect height="266.112" width="77.634783" x="337.085217" y="41.472"/>
  </clipPath>
 </defs>
</svg>