<?xml version="1.0" encoding="UTF-8" standalone="no"?>
<svg
   xmlns:dc="http://purl.org/dc/elements/1.1/"
   xmlns:cc="http://creativecommons.org/ns#"
   xmlns:rdf="http://www.w3.org/1999/02/22-rdf-syntax-ns#"
   xmlns:svg="http://www.w3.org/2000/svg"
   xmlns="http://www.w3.org/2000/svg"
   width="63.074219pt"
   height="122.4375pt"
   viewBox="0 0 63.074219 122.4375"
   version="1.2"
   id="svg962">
  <metadata
     id="metadata968">
    <rdf:RDF>
      <cc:Work
         rdf:about="">
        <dc:format>image/svg+xml</dc:format>
        <dc:type
           rdf:resource="http://purl.org/dc/dcmitype/StillImage" />
        <dc:title></dc:title>
      </cc:Work>
    </rdf:RDF>
  </metadata>
  <defs
     id="defs966" />
  <g
     id="surface9384"
     transform="translate(-265.58203,-355.58984)">
    <path
       style="fill:#ffffff;fill-opacity:1;fill-rule:nonzero;stroke:none"
       d="m 275.76953,470.07422 h -4.24609 l 2.09375,-6.34766 z m 2.54688,7.52344 h 5.29296 c 0,0 -5.85546,-16.46875 -5.85937,-16.47657 -0.65625,-1.85156 -2.07422,-2.13672 -2.53125,-2.13672 h -5.11328 c 0.78515,0.64063 1.05469,1.0625 1.05469,1.70313 0,0.39062 -0.0859,0.69141 -0.51172,1.95312 l -5.06641,14.95704 h 3.46094 l 1.52734,-4.64063 h 6.17578 z m 0,0"
       id="path937" />
    <path
       style="fill:#ffffff;fill-opacity:1;fill-rule:nonzero;stroke:none"
       d="m 299.77344,474.96094 v -5.9375 c 0,-1.13672 -0.24219,-1.71875 -1.04688,-2.4375 l 3.82031,0.004 c 1.1836,0 2.19532,0.95703 2.19532,2.16407 v 8.42578 c -1.86719,0.54687 -3.76172,0.84765 -5.48828,0.84765 -6.61719,0 -10.8125,-3.85547 -10.8125,-9.5664 0,-5.57422 4.20312,-9.91407 10.90234,-9.91407 1.52344,0 2.96875,0.26563 4.28516,0.73829 v 3.72656 c -1.17969,-0.77344 -2.66407,-1.23828 -4.28516,-1.23828 -3.21094,0 -5.74219,2.21484 -5.74219,6.30468 0,4.33594 1.91797,6.99219 4.99219,6.99219 0.38281,0 0.76562,-0.0273 1.17969,-0.10937"
       id="path939" />
    <path
       style="fill:#ffffff;fill-opacity:1;fill-rule:nonzero;stroke:none"
       d="m 317.99219,461.39062 c 0,-1.32812 -1.04688,-2.40625 -2.33985,-2.40625 h -3.70312 c 0.80859,0.71875 1.04687,1.30079 1.04687,2.4375 v 16.17579 h 4.9961 v -7.82422 h 5.68359 v 7.82422 h 4.98047 v -18.5586 h -4.98047 v 7.57813 h -5.68359 z m 0,0"
       id="path941" />
    <path
       style="fill:#ffffff;fill-opacity:1;fill-rule:nonzero;stroke:none"
       d="m 310.5625,446.57812 c 4.13672,-2.84375 7.75391,-7.23828 7.75391,-16.54296 v -55.83594 h 4.13671 v 55.83594 c 0,10.33984 -5.17187,14.47656 -11.89062,16.54296"
       id="path943" />
    <path
       style="fill:#ffffff;fill-opacity:1;fill-rule:nonzero;stroke:none"
       d="m 313.92578,446.57812 c 3.87891,-1.80859 10.59766,-5.16796 10.59766,-16.54296 v -55.83594 h 4.13281 v 55.83594 c 0,13.95703 -10.85156,16.02734 -14.73047,16.54296"
       id="path945" />
    <path
       style="fill:#ffffff;fill-opacity:1;fill-rule:nonzero;stroke:none"
       d="m 307.97656,446.57812 c 3.08594,-3.10156 4.13672,-9.30468 4.13672,-17.57812 V 374.19922 H 316.25 v 55.83594 c 0,9.27734 -3.10156,13.95703 -8.27344,16.54296"
       id="path947" />
    <path
       style="fill:#ffffff;fill-opacity:1;fill-rule:nonzero;stroke:none"
       d="m 287.81641,355.58984 c 4.13671,2.84375 7.7539,7.23828 7.7539,16.54297 v 64.10547 h 4.13672 v -64.10547 c 0,-10.33984 -5.17187,-14.47656 -11.89062,-16.54297"
       id="path949" />
    <path
       style="fill:#ffffff;fill-opacity:1;fill-rule:nonzero;stroke:none"
       d="m 291.17969,355.58984 c 3.875,1.8086 10.59765,5.16797 10.59765,16.54297 v 64.10547 h 4.13282 v -64.10547 c 0,-13.95703 -10.85547,-16.02734 -14.73047,-16.54297"
       id="path951" />
    <path
       style="fill:#ffffff;fill-opacity:1;fill-rule:nonzero;stroke:none"
       d="m 285.23047,355.58984 c 3.08594,3.10157 4.13672,9.30469 4.13672,17.57422 v 63.07422 h 4.13672 v -64.10547 c 0,-9.27734 -3.10547,-13.95703 -8.27344,-16.54297"
       id="path953" />
    <path
       style="fill:#ffffff;fill-opacity:1;fill-rule:nonzero;stroke:none"
       d="m 284.71484,446.57812 c -4.13672,-2.84375 -7.7539,-7.23828 -7.7539,-16.54296 v -55.83594 h -4.13672 v 55.83594 c 0,10.33984 5.16797,14.47656 11.89062,16.54296"
       id="path955" />
    <path
       style="fill:#ffffff;fill-opacity:1;fill-rule:nonzero;stroke:none"
       d="m 281.35156,446.57812 c -3.8789,-1.80859 -10.59765,-5.16796 -10.59765,-16.54296 v -55.83594 h -4.13672 v 55.83594 c 0,13.95703 10.85547,16.02734 14.73437,16.54296"
       id="path957" />
    <path
       style="fill:#ffffff;fill-opacity:1;fill-rule:nonzero;stroke:none"
       d="M 287.30078,446.57812 C 284.21094,443.47656 283.16406,437.27344 283.16406,429 v -54.80078 h -4.13672 v 55.83594 c 0,9.27734 3.10157,13.95703 8.27344,16.54296"
       id="path959" />
  </g>
</svg>
