<?xml version="1.0" encoding="UTF-8" standalone="no"?>
<svg
   xmlns:dc="http://purl.org/dc/elements/1.1/"
   xmlns:cc="http://creativecommons.org/ns#"
   xmlns:rdf="http://www.w3.org/1999/02/22-rdf-syntax-ns#"
   xmlns:svg="http://www.w3.org/2000/svg"
   xmlns="http://www.w3.org/2000/svg"
   width="611.55859pt"
   height="139.64174pt"
   viewBox="0 0 611.55858 139.64174"
   version="1.2"
   id="svg57">
  <metadata
     id="metadata63">
    <rdf:RDF>
      <cc:Work
         rdf:about="">
        <dc:format>image/svg+xml</dc:format>
        <dc:type
           rdf:resource="http://purl.org/dc/dcmitype/StillImage" />
        <dc:title></dc:title>
      </cc:Work>
    </rdf:RDF>
  </metadata>
  <defs
     id="defs61" />
  <g
     id="surface3788"
     transform="translate(-59.902344,-42.327436)">
    <path
       style="fill:#0057a3;fill-opacity:1;fill-rule:nonzero;stroke:none"
       d="m 338.28516,92.296875 c 0,-39.453125 -61.125,-61.652344 -157.46875,-43.621094 v 4.007813 c 92.58203,-8.445313 136.94921,15.167968 136.94921,49.511716 0,12.25782 -3.57421,19.55469 -10.97265,28.65235 h 5.72265 c 13.0625,-6.97657 25.76954,-20.35157 25.76954,-38.550785 m -184.83985,7.613281 h 21.20313 V 85.039062 H 136.4375 v 51.535158 h 17.00781 V 122.08203 H 174.375 V 107.65234 H 153.44531 Z M 102.07813,85.039062 H 96.355469 C 73.773438,97.074219 59.902344,113.24219 59.902344,133.76562 c 0,44.84375 77.210936,58.6875 158.132816,40.32032 v -4.00782 c -77.83204,5.56641 -131.558598,-15.33984 -131.558598,-52.30859 0,-14.47265 7.703126,-25.30078 15.601568,-32.730468 m 99.54687,27.386718 19.14062,24.14844 H 235.125 V 85.039062 h -17.00781 v 15.382818 c 0,2.80078 0.0742,5.74609 0.4414,8.83984 L 199.41797,85.039062 H 185.0625 v 51.535158 h 17.00781 v -15.46094 c 0,-2.72265 -0.0742,-5.59375 -0.44531,-8.6875 m 68.13281,-27.386718 h -22.52734 v 51.535158 h 17.00781 v -13.47266 h 5.51953 c 13.10547,0 23.11719,-4.5625 23.11719,-18.99609 0,-14.503908 -10.01172,-19.066408 -23.11719,-19.066408 m -0.14453,13.988282 c 3.90234,0 6.40625,1.468746 6.40625,5.078126 0,3.53516 -2.50391,5.00781 -6.40625,5.00781 h -5.375 V 99.027344 Z m 0,0"
       id="path2" />
    <path
       style="fill:#0057a3;fill-opacity:1;fill-rule:nonzero;stroke:none"
       d="m 380.48047,85.160156 h 18.90625 v 5.707032 H 387.24219 V 97.8125 h 10.39453 v 5.70313 h -10.39453 v 11.63671 h -6.76172 z m 0,0"
       id="path4" />
    <path
       style="fill:#0057a3;fill-opacity:1;fill-rule:nonzero;stroke:none"
       d="m 408.81641,103.74609 c 0,1.99219 0.34375,3.57422 1.03515,4.73829 0.6875,1.16406 1.73828,1.74609 3.14844,1.74609 1.38281,0 2.42578,-0.58203 3.12891,-1.74609 0.70703,-1.16407 1.05859,-2.7461 1.05859,-4.73829 0,-1.99218 -0.35156,-3.57421 -1.05859,-4.738278 -0.70313,-1.164062 -1.7461,-1.75 -3.12891,-1.75 -1.41016,0 -2.46094,0.585938 -3.14844,1.75 -0.6914,1.164068 -1.03515,2.746098 -1.03515,4.738278 m -6.94532,0 c 0,-1.90234 0.30469,-3.59375 0.91797,-5.082028 0.61328,-1.488281 1.4336,-2.738281 2.46094,-3.75 1.02734,-1.011718 2.21484,-1.785156 3.56641,-2.324218 1.34765,-0.535156 2.74218,-0.804688 4.18359,-0.804688 1.44141,0 2.83203,0.269532 4.16406,0.804688 1.33594,0.539062 2.51563,1.3125 3.54297,2.324218 1.02734,1.011719 1.84766,2.261719 2.46094,3.75 0.61328,1.488278 0.92187,3.179688 0.92187,5.082028 0,1.90235 -0.30859,3.59375 -0.92187,5.08204 -0.61328,1.48828 -1.4336,2.73828 -2.46094,3.75 -1.02734,1.01171 -2.20703,1.78515 -3.54297,2.32421 -1.33203,0.53516 -2.72265,0.80469 -4.16406,0.80469 -1.44141,0 -2.83594,-0.26953 -4.18359,-0.80469 -1.35157,-0.53906 -2.53907,-1.3125 -3.56641,-2.32421 -1.02734,-1.01172 -1.84766,-2.26172 -2.46094,-3.75 -0.61328,-1.48829 -0.91797,-3.17969 -0.91797,-5.08204"
       id="path6" />
    <path
       style="fill:#0057a3;fill-opacity:1;fill-rule:nonzero;stroke:none"
       d="m 427.67578,92.335938 h 6.76172 v 13.296872 c 0,1.65625 0.23047,2.78907 0.69141,3.40235 0.45703,0.61328 1.17968,0.92187 2.16015,0.92187 0.85938,0 1.57813,-0.19922 2.16406,-0.59765 0.58204,-0.39844 1.21094,-1.04297 1.88282,-1.9336 V 92.335938 h 6.76172 v 22.816402 h -5.51954 l -0.5039,-3.17187 h -0.14063 c -0.98047,1.16406 -2.02734,2.07812 -3.14843,2.73437 -1.1211,0.66016 -2.46094,0.99219 -4.02735,0.99219 -2.48437,0 -4.28515,-0.8125 -5.40234,-2.4375 -1.1211,-1.625 -1.67969,-3.8789 -1.67969,-6.76562 z m 0,0"
       id="path8" />
    <path
       style="fill:#0057a3;fill-opacity:1;fill-rule:nonzero;stroke:none"
       d="m 453.20703,92.335938 h 5.51953 l 0.46094,2.898437 h 0.18359 c 0.98047,-0.917969 2.05078,-1.722656 3.21875,-2.414063 1.16407,-0.691406 2.53125,-1.035156 4.09375,-1.035156 2.48438,0 4.28516,0.8125 5.40625,2.4375 1.11719,1.628906 1.67969,3.882813 1.67969,6.761724 v 14.16796 h -6.76562 v -13.29296 c 0,-1.65625 -0.22266,-2.789068 -0.66407,-3.402349 -0.44531,-0.613281 -1.16015,-0.921875 -2.14062,-0.921875 -0.85938,0 -1.59375,0.191406 -2.20703,0.574219 -0.61328,0.386719 -1.28907,0.929687 -2.02344,1.632813 v 15.410152 h -6.76172 z m 0,0"
       id="path10" />
    <path
       style="fill:#0057a3;fill-opacity:1;fill-rule:nonzero;stroke:none"
       d="m 484.4375,103.65234 c 0,2.26954 0.36328,3.92579 1.08203,4.96875 0.71875,1.04297 1.74219,1.56641 3.05859,1.56641 0.73829,0 1.40235,-0.15625 2,-0.46094 0.59766,-0.30859 1.17579,-0.84375 1.72657,-1.60937 v -9.339846 c -0.61328,-0.550782 -1.24219,-0.933594 -1.88672,-1.148438 -0.64453,-0.214844 -1.27344,-0.324218 -1.88672,-0.324218 -1.07031,0 -2.02344,0.515624 -2.85156,1.542968 -0.82813,1.027344 -1.24219,2.628904 -1.24219,4.804684 m -6.94531,0.0937 c 0,-1.87109 0.26953,-3.54296 0.80468,-5.015621 0.53907,-1.472657 1.24219,-2.71875 2.11719,-3.746094 0.875,-1.027344 1.88672,-1.820313 3.03516,-2.371094 1.15234,-0.550781 2.32422,-0.828125 3.51953,-0.828125 1.28906,0 2.34766,0.214844 3.17578,0.644532 0.82813,0.429687 1.63672,1.011718 2.4375,1.746093 l -0.27734,-3.496093 V 82.90625 h 6.76172 v 32.24609 h -5.51954 l -0.46093,-2.2539 h -0.1836 c -0.79687,0.80078 -1.73437,1.46484 -2.80468,2.0039 -1.07422,0.53516 -2.16407,0.80469 -3.26563,0.80469 -1.41016,0 -2.69141,-0.27734 -3.84375,-0.82812 -1.14844,-0.55469 -2.12891,-1.34375 -2.94141,-2.3711 -0.8125,-1.02734 -1.4414,-2.27734 -1.88671,-3.75 -0.44532,-1.46875 -0.66797,-3.14062 -0.66797,-5.01172"
       id="path12" />
    <path
       style="fill:#0057a3;fill-opacity:1;fill-rule:nonzero;stroke:none"
       d="m 509.83203,108.30078 c 0,0.73438 0.23438,1.28125 0.71094,1.63281 0.47656,0.35157 1.11328,0.52735 1.91015,0.52735 0.79688,0 1.47266,-0.16797 2.02344,-0.50391 0.55078,-0.33984 1.13281,-0.8125 1.75,-1.42578 v -4.00391 c -2.42578,0.33985 -4.09375,0.82813 -5.01562,1.47266 -0.92188,0.64453 -1.37891,1.41016 -1.37891,2.30078 m -6.44141,0.50391 c 0,-2.39063 1.01172,-4.26172 3.03516,-5.60938 2.02344,-1.35156 5.29297,-2.2539 9.80078,-2.71484 -0.0625,-1.01172 -0.37109,-1.816408 -0.92187,-2.414064 -0.55078,-0.601562 -1.44141,-0.898437 -2.66797,-0.898437 -0.98047,0 -1.96094,0.183593 -2.94531,0.550781 -0.98047,0.367188 -2.02344,0.875 -3.125,1.519531 l -2.39454,-4.460937 c 1.47266,-0.890625 3.01563,-1.613282 4.625,-2.164063 1.60938,-0.550781 3.31641,-0.828125 5.12891,-0.828125 2.94141,0 5.1875,0.835938 6.73828,2.507813 1.54688,1.671875 2.32422,4.269531 2.32422,7.796871 v 13.0625 h -5.51953 l -0.50781,-2.34375 h -0.13672 c -0.98438,0.85938 -2.01953,1.55469 -3.10547,2.09375 -1.08984,0.53516 -2.27734,0.80469 -3.56641,0.80469 -1.04297,0 -1.97656,-0.17969 -2.80468,-0.53125 -0.82813,-0.35156 -1.53516,-0.84375 -2.11719,-1.47265 -0.58203,-0.625 -1.03516,-1.35547 -1.35547,-2.1836 -0.32422,-0.82812 -0.48438,-1.73047 -0.48438,-2.71484"
       id="path14" />
    <path
       style="fill:#0057a3;fill-opacity:1;fill-rule:nonzero;stroke:none"
       d="m 528.875,97.628906 h -3.12891 v -5.015625 l 3.4961,-0.277343 0.78125,-6.070313 h 5.61328 v 6.070313 h 5.47265 v 5.292968 h -5.47265 v 9.152344 c 0,1.28906 0.26953,2.21484 0.80469,2.78516 0.53515,0.5664 1.25,0.84765 2.14062,0.84765 0.36719,0 0.74219,-0.043 1.125,-0.13672 0.38281,-0.0898 0.72656,-0.19921 1.03516,-0.32031 l 1.05859,4.92188 c -0.61328,0.18359 -1.33594,0.36718 -2.16406,0.55078 -0.82813,0.18359 -1.79297,0.27734 -2.89453,0.27734 -1.41407,0 -2.61719,-0.21484 -3.61328,-0.64453 -0.9961,-0.42969 -1.8086,-1.02734 -2.4375,-1.79297 -0.62891,-0.76953 -1.08985,-1.69531 -1.37891,-2.78515 -0.29297,-1.08594 -0.4375,-2.29297 -0.4375,-3.60938 z m 0,0"
       id="path16" />
    <path
       style="fill:#0057a3;fill-opacity:1;fill-rule:nonzero;stroke:none"
       d="m 544.74609,92.339844 h 6.76172 v 22.812496 h -6.76172 z m 3.35547,-3.359375 c -1.13281,0 -2.07031,-0.332031 -2.80469,-0.988281 -0.73828,-0.660157 -1.10546,-1.511719 -1.10546,-2.554688 0,-1.042969 0.36718,-1.886719 1.10546,-2.53125 0.73438,-0.640625 1.67188,-0.964844 2.80469,-0.964844 1.16406,0 2.10938,0.324219 2.82813,0.964844 0.72265,0.644531 1.08203,1.488281 1.08203,2.53125 0,1.042969 -0.35938,1.894531 -1.08203,2.554688 -0.71875,0.65625 -1.66407,0.988281 -2.82813,0.988281"
       id="path18" />
    <path
       style="fill:#0057a3;fill-opacity:1;fill-rule:nonzero;stroke:none"
       d="m 562.22266,103.74609 c 0,1.99219 0.34765,3.57422 1.03515,4.73829 0.69141,1.16406 1.74219,1.74609 3.15235,1.74609 1.3789,0 2.42187,-0.58203 3.125,-1.74609 0.70703,-1.16407 1.05859,-2.7461 1.05859,-4.73829 0,-1.99218 -0.35156,-3.57421 -1.05859,-4.738278 -0.70313,-1.164062 -1.7461,-1.75 -3.125,-1.75 -1.41016,0 -2.46094,0.585938 -3.15235,1.75 -0.6875,1.164068 -1.03515,2.746098 -1.03515,4.738278 m -6.94532,0 c 0,-1.90234 0.30469,-3.59375 0.92188,-5.082028 0.61328,-1.488281 1.42969,-2.738281 2.46094,-3.75 1.02734,-1.011718 2.21484,-1.785156 3.5625,-2.324218 1.35156,-0.535156 2.74609,-0.804688 4.1875,-0.804688 1.4414,0 2.82812,0.269532 4.16406,0.804688 1.33203,0.539062 2.51172,1.3125 3.53906,2.324218 1.02734,1.011719 1.84766,2.261719 2.46094,3.75 0.61328,1.488278 0.92187,3.179688 0.92187,5.082028 0,1.90235 -0.30859,3.59375 -0.92187,5.08204 -0.61328,1.48828 -1.4336,2.73828 -2.46094,3.75 -1.02734,1.01171 -2.20703,1.78515 -3.53906,2.32421 -1.33594,0.53516 -2.72266,0.80469 -4.16406,0.80469 -1.44141,0 -2.83594,-0.26953 -4.1875,-0.80469 -1.34766,-0.53906 -2.53516,-1.3125 -3.5625,-2.32421 -1.03125,-1.01172 -1.84766,-2.26172 -2.46094,-3.75 -0.61719,-1.48829 -0.92188,-3.17969 -0.92188,-5.08204"
       id="path20" />
    <path
       style="fill:#0057a3;fill-opacity:1;fill-rule:nonzero;stroke:none"
       d="m 581.3125,92.335938 h 5.52344 l 0.45703,2.898437 h 0.18359 c 0.98438,-0.917969 2.05469,-1.722656 3.22266,-2.414063 1.16406,-0.691406 2.52734,-1.035156 4.09375,-1.035156 2.48437,0 4.28515,0.8125 5.40234,2.4375 1.1211,1.628906 1.67969,3.882813 1.67969,6.761724 v 14.16796 h -6.76172 v -13.29296 c 0,-1.65625 -0.22266,-2.789068 -0.66797,-3.402349 -0.4414,-0.613281 -1.15625,-0.921875 -2.13672,-0.921875 -0.85937,0 -1.59765,0.191406 -2.20703,0.574219 -0.61719,0.386719 -1.28906,0.929687 -2.02734,1.632813 v 15.410152 h -6.76172 z m 0,0"
       id="path22" />
    <path
       style="fill:#0057a3;fill-opacity:1;fill-rule:nonzero;stroke:none"
       d="m 629.41797,88.152344 c -0.85938,-0.308594 -1.64063,-0.460938 -2.34766,-0.460938 -0.82812,0 -1.47265,0.253906 -1.93359,0.757813 -0.45703,0.507812 -0.6875,1.34375 -0.6875,2.507812 v 1.378907 h 4.09375 v 5.292968 h -4.09375 V 115.15234 H 617.6875 V 97.628906 h -3.03906 v -5.015625 l 3.03906,-0.230469 v -1.242187 c 0,-1.195313 0.14453,-2.328125 0.4375,-3.402344 0.28906,-1.074219 0.77344,-2.007812 1.44922,-2.804687 0.67187,-0.800782 1.54687,-1.429688 2.62109,-1.886719 1.07031,-0.460937 2.375,-0.691406 3.90625,-0.691406 0.95313,0 1.82031,0.09375 2.60156,0.277343 0.78125,0.183594 1.4336,0.367188 1.95704,0.550782 z m 0,0"
       id="path24" />
    <path
       style="fill:#0057a3;fill-opacity:1;fill-rule:nonzero;stroke:none"
       d="m 637.00391,103.74609 c 0,1.99219 0.34765,3.57422 1.03515,4.73829 0.69141,1.16406 1.74219,1.74609 3.15235,1.74609 1.3789,0 2.42187,-0.58203 3.1289,-1.74609 0.70703,-1.16407 1.0586,-2.7461 1.0586,-4.73829 0,-1.99218 -0.35157,-3.57421 -1.0586,-4.738278 -0.70703,-1.164062 -1.75,-1.75 -3.1289,-1.75 -1.41016,0 -2.46094,0.585938 -3.15235,1.75 -0.6875,1.164068 -1.03515,2.746098 -1.03515,4.738278 m -6.94532,0 c 0,-1.90234 0.3086,-3.59375 0.92188,-5.082028 0.61328,-1.488281 1.43359,-2.738281 2.46094,-3.75 1.02734,-1.011718 2.21484,-1.785156 3.5625,-2.324218 1.35156,-0.535156 2.74609,-0.804688 4.1875,-0.804688 1.4414,0 2.82812,0.269532 4.16406,0.804688 1.33203,0.539062 2.51172,1.3125 3.54297,2.324218 1.02734,1.011719 1.84375,2.261719 2.46093,3.75 0.61329,1.488278 0.91797,3.179688 0.91797,5.082028 0,1.90235 -0.30468,3.59375 -0.91797,5.08204 -0.61718,1.48828 -1.43359,2.73828 -2.46093,3.75 -1.03125,1.01171 -2.21094,1.78515 -3.54297,2.32421 -1.33594,0.53516 -2.72266,0.80469 -4.16406,0.80469 -1.44141,0 -2.83594,-0.26953 -4.1875,-0.80469 -1.34766,-0.53906 -2.53516,-1.3125 -3.5625,-2.32421 -1.02735,-1.01172 -1.84766,-2.26172 -2.46094,-3.75 -0.61328,-1.48829 -0.92188,-3.17969 -0.92188,-5.08204"
       id="path26" />
    <path
       style="fill:#0057a3;fill-opacity:1;fill-rule:nonzero;stroke:none"
       d="m 656.09766,92.335938 h 5.51953 l 0.45703,4.003906 h 0.1875 c 0.82812,-1.5625 1.82422,-2.714844 2.98828,-3.449219 1.16406,-0.738281 2.33203,-1.105469 3.49609,-1.105469 0.64453,0 1.17188,0.03906 1.58594,0.117188 0.41406,0.07422 0.78906,0.191406 1.12891,0.34375 l -1.10547,5.839844 c -0.42969,-0.121094 -0.82813,-0.210938 -1.19531,-0.273438 -0.36719,-0.0625 -0.79688,-0.09375 -1.28907,-0.09375 -0.85937,0 -1.7539,0.308594 -2.6914,0.921875 -0.9336,0.613281 -1.70703,1.699215 -2.32032,3.265625 v 13.24609 h -6.76171 z m 0,0"
       id="path28" />
    <path
       style="fill:#0057a3;fill-opacity:1;fill-rule:nonzero;stroke:none"
       d="m 391.01562,151.39062 c 3.67969,0 5.51954,-1.59375 5.51954,-4.78125 0,-1.5664 -0.46875,-2.66796 -1.40235,-3.3125 -0.9375,-0.64453 -2.30859,-0.96484 -4.11719,-0.96484 h -3.77343 v 9.05859 z m -10.53515,-14.4414 h 10.94922 c 1.625,0 3.14843,0.16015 4.57422,0.48047 1.42578,0.32422 2.66796,0.85937 3.72656,1.61328 1.05859,0.75 1.89453,1.74609 2.50781,2.98828 0.61328,1.24219 0.92188,2.76953 0.92188,4.57812 0,1.7461 -0.31641,3.26563 -0.94532,4.55469 -0.6289,1.28516 -1.48047,2.34375 -2.55078,3.17188 -1.07422,0.82812 -2.3164,1.4414 -3.72656,1.83984 -1.41016,0.39844 -2.91406,0.59766 -4.50781,0.59766 h -4.1875 v 10.16797 h -6.76172 z m 0,0"
       id="path30" />
    <path
       style="fill:#0057a3;fill-opacity:1;fill-rule:nonzero;stroke:none"
       d="m 411.58984,155.53125 c 0,1.99609 0.34375,3.57422 1.03125,4.73828 0.69141,1.16797 1.74219,1.75 3.15235,1.75 1.3789,0 2.42187,-0.58203 3.1289,-1.75 0.70313,-1.16406 1.0586,-2.74219 1.0586,-4.73828 0,-1.99219 -0.35547,-3.57031 -1.0586,-4.73828 -0.70703,-1.16406 -1.75,-1.7461 -3.1289,-1.7461 -1.41016,0 -2.46094,0.58204 -3.15235,1.7461 -0.6875,1.16797 -1.03125,2.74609 -1.03125,4.73828 m -6.94922,0 c 0,-1.89844 0.3086,-3.59375 0.92188,-5.08203 0.61328,-1.48828 1.43359,-2.73438 2.46094,-3.75 1.02734,-1.01172 2.21484,-1.78516 3.5664,-2.32031 1.34766,-0.53907 2.74219,-0.8086 4.1836,-0.8086 1.4414,0 2.82812,0.26953 4.16406,0.8086 1.33203,0.53515 2.51172,1.30859 3.54297,2.32031 1.02734,1.01562 1.84375,2.26172 2.46094,3.75 0.61328,1.48828 0.91796,3.18359 0.91796,5.08203 0,1.90234 -0.30468,3.59766 -0.91796,5.08203 -0.61719,1.48828 -1.4336,2.73828 -2.46094,3.75 -1.03125,1.01172 -2.21094,1.78906 -3.54297,2.32422 -1.33594,0.53516 -2.72266,0.80469 -4.16406,0.80469 -1.44141,0 -2.83594,-0.26953 -4.1836,-0.80469 -1.35156,-0.53516 -2.53906,-1.3125 -3.5664,-2.32422 -1.02735,-1.01172 -1.84766,-2.26172 -2.46094,-3.75 -0.61328,-1.48437 -0.92188,-3.17969 -0.92188,-5.08203"
       id="path32" />
    <path
       style="fill:#0057a3;fill-opacity:1;fill-rule:nonzero;stroke:none"
       d="m 430.49219,134.69531 h 6.76562 v 25.4375 c 0,0.70703 0.12891,1.19531 0.39063,1.47266 0.25781,0.27734 0.52734,0.41406 0.80468,0.41406 h 0.39063 c 0.10547,0 0.25391,-0.0312 0.4375,-0.0937 l 0.82812,5.01563 c -0.37109,0.15234 -0.83593,0.28125 -1.40234,0.39062 -0.57031,0.10547 -1.23828,0.16016 -2.00391,0.16016 -1.16406,0 -2.14453,-0.1836 -2.9414,-0.55078 -0.80078,-0.3711 -1.4375,-0.88282 -1.91016,-1.54297 -0.47656,-0.66016 -0.82031,-1.45703 -1.03515,-2.39063 -0.21485,-0.9375 -0.32422,-1.98437 -0.32422,-3.15234 z m 0,0"
       id="path34" />
    <path
       style="fill:#0057a3;fill-opacity:1;fill-rule:nonzero;stroke:none"
       d="m 443.82031,144.125 h 6.76563 v 22.81641 h -6.76563 z m 3.35938,-3.35938 c -1.13672,0 -2.07032,-0.32812 -2.80469,-0.98828 -0.73828,-0.66015 -1.10547,-1.51172 -1.10547,-2.55468 0,-1.03907 0.36719,-1.88282 1.10547,-2.52735 0.73437,-0.64453 1.66797,-0.96875 2.80469,-0.96875 1.16406,0 2.10937,0.32422 2.82812,0.96875 0.72266,0.64453 1.08203,1.48828 1.08203,2.52735 0,1.04296 -0.35937,1.89453 -1.08203,2.55468 -0.71875,0.66016 -1.66406,0.98828 -2.82812,0.98828"
       id="path36" />
    <path
       style="fill:#0057a3;fill-opacity:1;fill-rule:nonzero;stroke:none"
       d="m 456.88672,160.08594 c 1.03906,0.79687 2.03515,1.39843 2.98828,1.79297 0.94922,0.39843 1.91406,0.60156 2.89844,0.60156 1.01172,0 1.74609,-0.16797 2.20703,-0.50781 0.46094,-0.33594 0.6914,-0.8125 0.6914,-1.42579 0,-0.36718 -0.13281,-0.69531 -0.39062,-0.98828 -0.26172,-0.29297 -0.61719,-0.5625 -1.05859,-0.80859 -0.44532,-0.24219 -0.94532,-0.46484 -1.4961,-0.66406 -0.55078,-0.19922 -1.12109,-0.42188 -1.70312,-0.66797 -0.70313,-0.27344 -1.41016,-0.59766 -2.11328,-0.96485 -0.70704,-0.37109 -1.35157,-0.82031 -1.9336,-1.35937 -0.58203,-0.53516 -1.05859,-1.16406 -1.42578,-1.88672 C 455.18359,152.48828 455,151.65234 455,150.70312 c 0,-1.04296 0.20703,-2.00781 0.62109,-2.89843 0.41407,-0.89063 1.00391,-1.64063 1.76953,-2.25391 0.76563,-0.61328 1.6875,-1.09766 2.76172,-1.44922 1.07032,-0.35156 2.26563,-0.53125 3.58594,-0.53125 1.75,0 3.28125,0.30078 4.60156,0.89844 1.31641,0.59766 2.46875,1.26562 3.44922,2 l -3.03515,4.05078 c -0.82813,-0.61328 -1.64063,-1.08984 -2.4375,-1.42578 -0.80079,-0.33984 -1.59766,-0.50781 -2.39454,-0.50781 -1.71875,0 -2.57421,0.59765 -2.57421,1.79297 0,0.36718 0.12109,0.68359 0.36718,0.94531 0.2461,0.25781 0.57422,0.49609 0.98828,0.71094 0.41407,0.21484 0.89063,0.42187 1.42579,0.62109 0.53515,0.20312 1.09765,0.41016 1.67968,0.62109 0.73438,0.27735 1.46485,0.58985 2.1836,0.94532 0.72265,0.35156 1.38281,0.78906 1.98047,1.30859 0.59765,0.52344 1.08203,1.16016 1.44921,1.91016 0.36719,0.75 0.55079,1.64843 0.55079,2.6914 0,1.04297 -0.19922,2.00781 -0.59766,2.89844 -0.39844,0.88672 -0.99609,1.66406 -1.79297,2.32422 -0.80078,0.66015 -1.78125,1.17969 -2.94531,1.5625 -1.16406,0.38281 -2.51563,0.57422 -4.04688,0.57422 -1.5039,0 -3.04687,-0.29297 -4.625,-0.875 -1.57812,-0.58203 -2.94922,-1.34766 -4.11718,-2.30078 z m 0,0"
       id="path38" />
    <path
       style="fill:#0057a3;fill-opacity:1;fill-rule:nonzero;stroke:none"
       d="m 475.42187,134.69531 h 6.76172 v 7.91016 l -0.32031,4.09375 c 0.85938,-0.76563 1.85547,-1.47656 2.98828,-2.13672 1.13672,-0.66016 2.48438,-0.99219 4.05078,-0.99219 2.48438,0 4.28516,0.81641 5.40235,2.44141 1.12109,1.625 1.67968,3.8789 1.67968,6.76172 v 14.16797 h -6.76171 v -13.29688 c 0,-1.65625 -0.22266,-2.78906 -0.66797,-3.40234 -0.44532,-0.61328 -1.15625,-0.92188 -2.13672,-0.92188 -0.85938,0 -1.59766,0.19531 -2.21094,0.57813 -0.61328,0.38281 -1.28516,0.92578 -2.02344,1.63281 v 15.41016 h -6.76172 z m 0,0"
       id="path40" />
    <path
       style="fill:#0057a3;fill-opacity:1;fill-rule:nonzero;stroke:none"
       d="m 513.08203,158.52344 c 1.07422,0.91797 2.26172,1.67187 3.56641,2.2539 1.30468,0.58203 2.58203,0.8711 3.83984,0.8711 1.41016,0 2.46094,-0.25782 3.15234,-0.78125 0.69141,-0.51953 1.03516,-1.22657 1.03516,-2.11719 0,-0.45703 -0.10156,-0.85547 -0.30078,-1.19531 -0.19922,-0.33594 -0.48828,-0.63672 -0.87109,-0.89453 -0.38672,-0.26172 -0.84375,-0.50782 -1.38282,-0.73829 -0.53515,-0.23046 -1.125,-0.48046 -1.76953,-0.75781 l -3.91015,-1.65625 c -0.76563,-0.30469 -1.51172,-0.70312 -2.23047,-1.19531 -0.72266,-0.48828 -1.36328,-1.06641 -1.9336,-1.72656 -0.5664,-0.65625 -1.01953,-1.42578 -1.35547,-2.29688 -0.33593,-0.875 -0.50781,-1.86328 -0.50781,-2.96875 0,-1.22656 0.26172,-2.38281 0.78516,-3.47265 0.51953,-1.08985 1.2539,-2.03907 2.20703,-2.85157 0.94922,-0.8125 2.07812,-1.44922 3.37891,-1.91015 1.30468,-0.46094 2.73828,-0.69141 4.30078,-0.69141 1.75,0 3.47656,0.33984 5.17578,1.01563 1.70312,0.67187 3.19922,1.65234 4.48437,2.9414 l -3.44922,4.27735 c -0.98046,-0.76563 -1.96093,-1.35547 -2.9414,-1.76954 -0.98438,-0.41406 -2.07031,-0.62109 -3.26953,-0.62109 -1.16407,0 -2.08985,0.23828 -2.78125,0.71484 -0.69141,0.47266 -1.03516,1.14063 -1.03516,2 0,0.46094 0.11719,0.85157 0.34375,1.17188 0.23047,0.32422 0.55469,0.61328 0.96875,0.875 0.41406,0.26172 0.89453,0.50391 1.44922,0.73437 0.55078,0.23047 1.14844,0.48438 1.79297,0.76172 l 3.86328,1.5625 c 1.83984,0.73438 3.28906,1.7461 4.34766,3.03516 1.05859,1.28906 1.58593,2.99219 1.58593,5.10547 0,1.25781 -0.2539,2.44531 -0.75781,3.5664 -0.50781,1.11719 -1.24219,2.10157 -2.20703,2.94532 -0.96875,0.84375 -2.15625,1.51562 -3.56641,2.02343 -1.41015,0.50391 -3.0039,0.75782 -4.78515,0.75782 -1.96094,0 -3.91797,-0.35938 -5.86328,-1.08203 -1.94922,-0.71875 -3.6875,-1.80079 -5.22266,-3.24219 z m 0,0"
       id="path42" />
    <path
       style="fill:#0057a3;fill-opacity:1;fill-rule:nonzero;stroke:none"
       d="m 534.01562,155.53125 c 0,-1.89844 0.32032,-3.59375 0.96485,-5.08203 0.64453,-1.48828 1.50781,-2.73438 2.59765,-3.75 1.08985,-1.01172 2.35547,-1.78516 3.79688,-2.32031 1.44141,-0.53907 2.94141,-0.8086 4.50781,-0.8086 1.41016,0 2.6836,0.23828 3.81641,0.71485 1.13672,0.47656 2.08594,1.11328 2.85156,1.91015 l -3.08203,4.1875 c -1.07422,-0.89062 -2.12891,-1.33594 -3.17188,-1.33594 -1.65625,0 -2.96093,0.58204 -3.91015,1.7461 -0.95313,1.16797 -1.42578,2.74609 -1.42578,4.73828 0,1.99609 0.48047,3.57422 1.44922,4.73828 0.96484,1.16797 2.18359,1.75 3.65625,1.75 0.82812,0 1.57812,-0.16797 2.2539,-0.50781 0.67188,-0.33594 1.28906,-0.71875 1.83985,-1.14844 l 2.71484,4.27734 c -1.10547,0.98047 -2.33203,1.70313 -3.67969,2.16407 -1.35156,0.45703 -2.65625,0.6875 -3.91015,0.6875 -1.59766,0 -3.07422,-0.26953 -4.44141,-0.80469 -1.36328,-0.53516 -2.55078,-1.3125 -3.5625,-2.32422 -1.01172,-1.01172 -1.8125,-2.26172 -2.39453,-3.75 -0.58203,-1.48437 -0.8711,-3.17969 -0.8711,-5.08203"
       id="path44" />
    <path
       style="fill:#0057a3;fill-opacity:1;fill-rule:nonzero;stroke:none"
       d="m 556.00391,144.125 h 6.76171 v 22.81641 h -6.76171 z m 3.35546,-3.35938 c -1.13281,0 -2.07031,-0.32812 -2.80468,-0.98828 -0.73828,-0.66015 -1.10547,-1.51172 -1.10547,-2.55468 0,-1.03907 0.36719,-1.88282 1.10547,-2.52735 0.73437,-0.64453 1.67187,-0.96875 2.80468,-0.96875 1.16407,0 2.10938,0.32422 2.82813,0.96875 0.72266,0.64453 1.08203,1.48828 1.08203,2.52735 0,1.04296 -0.35937,1.89453 -1.08203,2.55468 -0.71875,0.66016 -1.66406,0.98828 -2.82813,0.98828"
       id="path46" />
    <path
       style="fill:#0057a3;fill-opacity:1;fill-rule:nonzero;stroke:none"
       d="m 581.25391,153.1875 c 0,-1.32031 -0.28907,-2.39453 -0.8711,-3.22266 -0.58594,-0.82812 -1.5664,-1.24218 -2.94531,-1.24218 -1.07422,0 -2.01563,0.36328 -2.82813,1.08203 -0.8125,0.72265 -1.34375,1.84765 -1.58984,3.38281 z m -14.71875,2.34375 c 0,-1.83984 0.30468,-3.5 0.92187,-4.99219 0.61328,-1.48437 1.41797,-2.74219 2.41406,-3.76953 0.9961,-1.02734 2.13672,-1.81641 3.42578,-2.36719 1.28907,-0.55468 2.6211,-0.82812 4.00391,-0.82812 1.625,0 3.04297,0.27344 4.25391,0.82812 1.21093,0.55078 2.22265,1.31641 3.03515,2.29688 0.8125,0.98437 1.41797,2.14062 1.81641,3.47265 0.39844,1.33594 0.59766,2.78516 0.59766,4.34766 0,0.61328 -0.0312,1.17578 -0.0899,1.67969 -0.0625,0.50781 -0.125,0.89844 -0.18359,1.17187 h -13.66406 c 0.30859,1.75 0.98828,3.01563 2.04687,3.79688 1.05859,0.78125 2.35547,1.17187 3.88672,1.17187 1.625,0 3.26562,-0.50781 4.92187,-1.51562 l 2.25391,4.08984 c -1.16406,0.80078 -2.46094,1.42969 -3.88672,1.88672 -1.42578,0.46094 -2.82812,0.69141 -4.20703,0.69141 -1.625,0 -3.14453,-0.26953 -4.55469,-0.80469 -1.41015,-0.53516 -2.63672,-1.31641 -3.67968,-2.34766 -1.04297,-1.02734 -1.85547,-2.27734 -2.4375,-3.74609 -0.58204,-1.47266 -0.875,-3.16016 -0.875,-5.0625"
       id="path48" />
    <path
       style="fill:#0057a3;fill-opacity:1;fill-rule:nonzero;stroke:none"
       d="m 590.86719,144.125 h 5.52343 l 0.45704,2.89844 h 0.18359 c 0.98437,-0.92188 2.05469,-1.72657 3.22266,-2.41797 1.16406,-0.6875 2.52734,-1.03125 4.09375,-1.03125 2.48437,0 4.28515,0.8125 5.40234,2.4375 1.12109,1.625 1.67969,3.8789 1.67969,6.76172 v 14.16797 h -6.76172 v -13.29688 c 0,-1.65234 -0.22266,-2.78906 -0.66797,-3.40234 -0.44141,-0.61328 -1.15625,-0.91797 -2.13672,-0.91797 -0.85937,0 -1.59766,0.1914 -2.20703,0.57422 -0.61719,0.38281 -1.28906,0.92578 -2.02734,1.63281 v 15.41016 h -6.76172 z m 0,0"
       id="path50" />
    <path
       style="fill:#0057a3;fill-opacity:1;fill-rule:nonzero;stroke:none"
       d="m 615.01953,155.53125 c 0,-1.89844 0.32031,-3.59375 0.96484,-5.08203 0.64454,-1.48828 1.50782,-2.73438 2.59766,-3.75 1.08984,-1.01172 2.35547,-1.78516 3.79688,-2.32031 1.4414,-0.53907 2.9414,-0.8086 4.50781,-0.8086 1.41015,0 2.68359,0.23828 3.8164,0.71485 1.13672,0.47656 2.08594,1.11328 2.85157,1.91015 l -3.08203,4.1875 c -1.07422,-0.89062 -2.12891,-1.33594 -3.17188,-1.33594 -1.65625,0 -2.96094,0.58204 -3.91016,1.7461 -0.95312,1.16797 -1.42578,2.74609 -1.42578,4.73828 0,1.99609 0.48047,3.57422 1.44922,4.73828 0.96485,1.16797 2.1836,1.75 3.65625,1.75 0.82813,0 1.57813,-0.16797 2.25391,-0.50781 0.67187,-0.33594 1.28906,-0.71875 1.83984,-1.14844 l 2.71485,4.27734 c -1.10547,0.98047 -2.33204,1.70313 -3.67969,2.16407 -1.35156,0.45703 -2.65625,0.6875 -3.91016,0.6875 -1.59765,0 -3.07422,-0.26953 -4.4414,-0.80469 -1.36329,-0.53516 -2.55079,-1.3125 -3.5625,-2.32422 -1.01172,-1.01172 -1.8125,-2.26172 -2.39454,-3.75 -0.58203,-1.48437 -0.87109,-3.17969 -0.87109,-5.08203"
       id="path52" />
    <path
       style="fill:#0057a3;fill-opacity:1;fill-rule:nonzero;stroke:none"
       d="m 650.39062,153.1875 c 0,-1.32031 -0.28906,-2.39453 -0.87109,-3.22266 -0.58594,-0.82812 -1.56641,-1.24218 -2.94531,-1.24218 -1.07422,0 -2.01563,0.36328 -2.82813,1.08203 -0.8125,0.72265 -1.34375,1.84765 -1.58984,3.38281 z m -14.71875,2.34375 c 0,-1.83984 0.30469,-3.5 0.92188,-4.99219 0.61328,-1.48437 1.41797,-2.74219 2.41406,-3.76953 0.9961,-1.02734 2.13672,-1.81641 3.42578,-2.36719 1.28907,-0.55468 2.6211,-0.82812 4.00391,-0.82812 1.625,0 3.04297,0.27344 4.25391,0.82812 1.21093,0.55078 2.22265,1.31641 3.03515,2.29688 0.8125,0.98437 1.41797,2.14062 1.81641,3.47265 0.39844,1.33594 0.59765,2.78516 0.59765,4.34766 0,0.61328 -0.0312,1.17578 -0.0898,1.67969 -0.0625,0.50781 -0.125,0.89844 -0.18359,1.17187 h -13.66407 c 0.3086,1.75 0.98829,3.01563 2.04688,3.79688 1.05859,0.78125 2.35547,1.17187 3.88672,1.17187 1.625,0 3.26562,-0.50781 4.92187,-1.51562 l 2.25391,4.08984 c -1.16406,0.80078 -2.46094,1.42969 -3.88672,1.88672 -1.42578,0.46094 -2.82812,0.69141 -4.20703,0.69141 -1.625,0 -3.14453,-0.26953 -4.55469,-0.80469 -1.41015,-0.53516 -2.63672,-1.31641 -3.67969,-2.34766 -1.04296,-1.02734 -1.85546,-2.27734 -2.4375,-3.74609 -0.58203,-1.47266 -0.875,-3.16016 -0.875,-5.0625"
       id="path54" />
  </g>
</svg>
