<?xml version="1.0" encoding="UTF-8" standalone="no"?>
<svg
   xmlns:dc="http://purl.org/dc/elements/1.1/"
   xmlns:cc="http://creativecommons.org/ns#"
   xmlns:rdf="http://www.w3.org/1999/02/22-rdf-syntax-ns#"
   xmlns:svg="http://www.w3.org/2000/svg"
   xmlns="http://www.w3.org/2000/svg"
   width="320.42188pt"
   height="28.390623pt"
   viewBox="0 0 320.42188 28.390623"
   version="1.2"
   id="svg994">
  <metadata
     id="metadata1000">
    <rdf:RDF>
      <cc:Work
         rdf:about="">
        <dc:format>image/svg+xml</dc:format>
        <dc:type
           rdf:resource="http://purl.org/dc/dcmitype/StillImage" />
        <dc:title></dc:title>
      </cc:Work>
    </rdf:RDF>
  </metadata>
  <defs
     id="defs998" />
  <g
     id="surface13029"
     transform="translate(-131.56641,-406.80469)">
    <path
       style="fill:#e31433;fill-opacity:1;fill-rule:evenodd;stroke:none"
       d="m 131.56641,406.80469 h 11.9375 c 1.66796,9.03515 8.40234,16.22265 17.04296,18.3125 v 10.07812 h -0.42578 l -23.77343,-18.67187 v 18.67187 h -4.78125 z m 17.63281,0 h 11.34765 v 12.51172 c -5.59765,-1.84375 -9.93359,-6.58204 -11.34765,-12.51172 m 3.36719,28.39062 H 141.0625 v -8.86328 l 11.50391,8.86328"
       id="path937" />
    <path
       style="fill:#4c4a4c;fill-opacity:1;fill-rule:nonzero;stroke:none"
       d="m 171.69922,421.85156 v -11.09375 h 1.5039 l 5.82813,8.71094 v -8.71094 h 1.41016 v 11.09375 h -1.50782 l -5.82812,-8.71875 v 8.71875 z m 0,0"
       id="path939" />
    <path
       style="fill:#4c4a4c;fill-opacity:1;fill-rule:nonzero;stroke:none"
       d="M 189.74219,418.20703 H 192.75 L 191.82422,415.75 c -0.28125,-0.74609 -0.49219,-1.35938 -0.62891,-1.84375 -0.11328,0.57031 -0.27344,1.13672 -0.48047,1.69531 z m -2.5625,3.64453 3.41015,-8.875 h 1.26563 l 3.63281,8.875 h -1.33984 l -1.03516,-2.6875 h -3.71094 l -0.97656,2.6875 z m 0,0"
       id="path941" />
    <path
       style="fill:#4c4a4c;fill-opacity:1;fill-rule:nonzero;stroke:none"
       d="m 202.15234,421.85156 v -7.82812 h -2.92187 v -1.04688 h 7.03515 v 1.04688 h -2.9375 v 7.82812 z m 0,0"
       id="path943" />
    <path
       style="fill:#4c4a4c;fill-opacity:1;fill-rule:nonzero;stroke:none"
       d="m 212.05859,412.97656 h 1.17578 v 8.875 h -1.17578 z m 0,0"
       id="path945" />
    <path
       style="fill:#4c4a4c;fill-opacity:1;fill-rule:nonzero;stroke:none"
       d="m 220.54687,417.54687 c 0,1.07032 0.28907,1.91407 0.86329,2.52735 0.57421,0.61719 1.29687,0.92578 2.16406,0.92578 0.88281,0 1.61328,-0.3125 2.18359,-0.93359 0.57031,-0.6211 0.85547,-1.50391 0.85547,-2.64454 0,-0.72265 -0.12109,-1.35546 -0.36719,-1.89453 -0.24218,-0.53906 -0.59765,-0.95703 -1.07031,-1.2539 -0.46875,-0.29688 -0.99609,-0.44532 -1.58203,-0.44532 -0.83203,0 -1.54688,0.28907 -2.14844,0.85938 -0.59765,0.57031 -0.89844,1.52344 -0.89844,2.85937 m -1.21093,-0.0195 c 0,-1.47265 0.39843,-2.625 1.1875,-3.45703 0.79297,-0.83594 1.8125,-1.25 3.0625,-1.25 0.82031,0 1.55859,0.19531 2.21875,0.58594 0.65625,0.39062 1.16015,0.9375 1.5039,1.63672 0.34375,0.70312 0.51563,1.49609 0.51563,2.38281 0,0.90234 -0.17969,1.70703 -0.54297,2.41406 -0.36328,0.71094 -0.87891,1.25 -1.54688,1.61719 -0.66406,0.36328 -1.38281,0.54688 -2.15234,0.54688 -0.83594,0 -1.58203,-0.20313 -2.24219,-0.60547 -0.65625,-0.40235 -1.15625,-0.95313 -1.49609,-1.65235 -0.33594,-0.69922 -0.50781,-1.4375 -0.50781,-2.21875"
       id="path947" />
    <path
       style="fill:#4c4a4c;fill-opacity:1;fill-rule:nonzero;stroke:none"
       d="m 233.71484,421.85156 v -8.875 h 1.20703 l 4.66016,6.96875 v -6.96875 h 1.12891 v 8.875 h -1.20703 l -4.66016,-6.97656 v 6.97656 z m 0,0"
       id="path949" />
    <path
       style="fill:#4c4a4c;fill-opacity:1;fill-rule:nonzero;stroke:none"
       d="m 248.66016,418.20703 h 3.00781 L 250.74219,415.75 c -0.28125,-0.74609 -0.49219,-1.35938 -0.62891,-1.84375 -0.11328,0.57031 -0.27344,1.13672 -0.48047,1.69531 z m -2.5625,3.64453 3.41015,-8.875 h 1.26563 l 3.63281,8.875 h -1.33984 l -1.03516,-2.6875 h -3.71094 l -0.97656,2.6875 z m 0,0"
       id="path951" />
    <path
       style="fill:#4c4a4c;fill-opacity:1;fill-rule:nonzero;stroke:none"
       d="m 259.68359,421.85156 v -8.875 h 1.17578 v 7.82813 h 4.3711 v 1.04687 z m 0,0"
       id="path953" />
    <path
       style="fill:#4c4a4c;fill-opacity:1;fill-rule:nonzero;stroke:none"
       d="m 279.41406,418.28516 1.38672,-0.11719 c 0.0664,0.55469 0.21875,1.00781 0.45703,1.36328 0.23828,0.35547 0.61328,0.64453 1.11719,0.86328 0.50391,0.21875 1.07031,0.33203 1.70312,0.33203 0.5586,0 1.05469,-0.0859 1.48438,-0.25 0.42578,-0.16797 0.74609,-0.39453 0.95703,-0.6875 0.20703,-0.28906 0.3125,-0.60547 0.3125,-0.94922 0,-0.34765 -0.10156,-0.65234 -0.30469,-0.91015 -0.19922,-0.26172 -0.53125,-0.48047 -0.99609,-0.65625 -0.30078,-0.11719 -0.95703,-0.29688 -1.97656,-0.54297 -1.01953,-0.24219 -1.73438,-0.47266 -2.14063,-0.69141 -0.53125,-0.27734 -0.92578,-0.62109 -1.1875,-1.03125 -0.25781,-0.41406 -0.38672,-0.87109 -0.38672,-1.38281 0,-0.55859 0.15625,-1.08203 0.47657,-1.57031 0.3164,-0.48828 0.78125,-0.85547 1.39062,-1.10938 0.61328,-0.25 1.28906,-0.3789 2.03516,-0.3789 0.82422,0 1.55078,0.13281 2.17968,0.39843 0.625,0.26563 1.10938,0.65625 1.44922,1.16797 0.33594,0.51563 0.51953,1.09766 0.54297,1.75 l -1.40625,0.10547 c -0.0781,-0.70312 -0.33203,-1.23047 -0.76953,-1.58984 -0.4375,-0.35547 -1.08203,-0.53516 -1.93359,-0.53516 -0.89063,0 -1.53516,0.16016 -1.94141,0.48828 -0.40625,0.32422 -0.60937,0.71485 -0.60937,1.17578 0,0.39844 0.14453,0.72657 0.43359,0.98438 0.28125,0.25781 1.01953,0.51953 2.21094,0.78906 1.19531,0.26953 2.01172,0.50781 2.45703,0.70703 0.64453,0.30078 1.12109,0.67578 1.42969,1.13281 0.30859,0.45704 0.46093,0.98438 0.46093,1.57813 0,0.58984 -0.16797,1.14453 -0.5039,1.66797 -0.33985,0.52344 -0.82813,0.92969 -1.46094,1.21875 -0.63281,0.28906 -1.34375,0.4375 -2.13672,0.4375 -1.00391,0 -1.84375,-0.14844 -2.52344,-0.44141 -0.67968,-0.29297 -1.21093,-0.73047 -1.59765,-1.32031 -0.38672,-0.58594 -0.58985,-1.25391 -0.60938,-1.99609"
       id="path955" />
    <path
       style="fill:#4c4a4c;fill-opacity:1;fill-rule:nonzero;stroke:none"
       d="m 301.83594,418.73828 1.17578,0.29688 c -0.25,0.96484 -0.69141,1.70312 -1.33203,2.20703 -0.64063,0.50781 -1.42188,0.76172 -2.34375,0.76172 -0.95703,0 -1.73438,-0.19532 -2.33594,-0.58594 -0.60156,-0.38672 -1.05469,-0.95313 -1.36719,-1.69141 -0.3125,-0.73828 -0.47265,-1.53125 -0.47265,-2.3789 0,-0.92579 0.17968,-1.73047 0.53125,-2.41797 0.35546,-0.69141 0.85546,-1.21094 1.50781,-1.57032 0.65234,-0.35546 1.36719,-0.53515 2.15234,-0.53515 0.88672,0 1.63281,0.22656 2.24219,0.67969 0.60156,0.44921 1.02344,1.08593 1.26172,1.90625 l -1.15625,0.27343 c -0.20313,-0.64843 -0.50391,-1.11718 -0.89453,-1.41015 -0.39063,-0.29688 -0.88282,-0.44532 -1.47657,-0.44532 -0.68359,0 -1.2539,0.16407 -1.71093,0.49219 -0.46094,0.32813 -0.78125,0.76563 -0.96485,1.31641 -0.1875,0.55078 -0.28125,1.11719 -0.28125,1.70312 0,0.75391 0.11328,1.41407 0.33203,1.98047 0.21875,0.5625 0.5625,0.98047 1.02735,1.26172 0.46094,0.27734 0.96484,0.41797 1.5039,0.41797 0.66016,0 1.21485,-0.19141 1.67188,-0.57031 0.45703,-0.37891 0.76562,-0.94141 0.92969,-1.69141"
       id="path957" />
    <path
       style="fill:#4c4a4c;fill-opacity:1;fill-rule:nonzero;stroke:none"
       d="m 309.04687,412.97656 h 1.17579 v 8.875 h -1.17579 z m 0,0"
       id="path959" />
    <path
       style="fill:#4c4a4c;fill-opacity:1;fill-rule:nonzero;stroke:none"
       d="m 316.70703,421.85156 v -8.875 h 6.41797 v 1.04688 h -5.24609 v 2.71875 h 4.91015 v 1.04297 h -4.91015 v 3.01953 h 5.44921 v 1.04687 z m 0,0"
       id="path961" />
    <path
       style="fill:#4c4a4c;fill-opacity:1;fill-rule:nonzero;stroke:none"
       d="m 329.32812,421.85156 v -8.875 h 1.20313 l 4.66406,6.96875 v -6.96875 h 1.125 v 8.875 h -1.20312 l -4.66016,-6.97656 v 6.97656 z m 0,0"
       id="path963" />
    <path
       style="fill:#4c4a4c;fill-opacity:1;fill-rule:nonzero;stroke:none"
       d="m 349.01953,418.73828 1.17578,0.29688 c -0.24609,0.96484 -0.6914,1.70312 -1.32812,2.20703 -0.64453,0.50781 -1.42188,0.76172 -2.35157,0.76172 -0.95312,0 -1.73046,-0.19532 -2.33203,-0.58594 -0.60156,-0.38672 -1.05468,-0.95313 -1.36718,-1.69141 -0.3125,-0.73828 -0.47266,-1.53125 -0.47266,-2.3789 0,-0.92579 0.17969,-1.73047 0.53125,-2.41797 0.35547,-0.69141 0.85937,-1.21094 1.50781,-1.57032 0.65235,-0.35546 1.3711,-0.53515 2.15625,-0.53515 0.88281,0 1.63281,0.22656 2.23828,0.67969 0.60547,0.44921 1.02735,1.08593 1.26563,1.90625 l -1.16016,0.27343 c -0.20312,-0.64843 -0.5039,-1.11718 -0.89062,-1.41015 -0.39453,-0.29688 -0.88672,-0.44532 -1.48047,-0.44532 -0.67969,0 -1.25391,0.16407 -1.71094,0.49219 -0.45703,0.32813 -0.77734,0.76563 -0.96484,1.31641 -0.1836,0.55078 -0.28125,1.11719 -0.28125,1.70312 0,0.75391 0.11328,1.41407 0.33203,1.98047 0.22265,0.5625 0.5625,0.98047 1.02734,1.26172 0.46094,0.27734 0.96485,0.41797 1.50781,0.41797 0.66016,0 1.21485,-0.19141 1.66797,-0.57031 0.45703,-0.37891 0.76953,-0.94141 0.92969,-1.69141"
       id="path965" />
    <path
       style="fill:#4c4a4c;fill-opacity:1;fill-rule:nonzero;stroke:none"
       d="m 356.05469,421.85156 v -8.875 h 6.41797 v 1.04688 h -5.24219 v 2.71875 h 4.91015 v 1.04297 h -4.91015 v 3.01953 h 5.44531 v 1.04687 z m 0,0"
       id="path967" />
    <path
       style="fill:#4c4a4c;fill-opacity:1;fill-rule:nonzero;stroke:none"
       d="m 385.50391,417.96094 1.46484,0.37109 c -0.30859,1.20703 -0.86328,2.125 -1.66016,2.76172 -0.80078,0.63281 -1.77734,0.94531 -2.93359,0.94531 -1.19531,0 -2.16797,-0.24219 -2.91406,-0.72656 -0.75,-0.48828 -1.32032,-1.19531 -1.71485,-2.11719 -0.39062,-0.92187 -0.58593,-1.91406 -0.58593,-2.97265 0,-1.15625 0.22265,-2.16407 0.66406,-3.02344 0.4414,-0.86328 1.07031,-1.51563 1.88281,-1.96094 0.81641,-0.44922 1.71484,-0.67187 2.69141,-0.67187 1.10937,0 2.04297,0.28515 2.80078,0.84765 0.7539,0.56641 1.28125,1.35938 1.58203,2.38672 l -1.44531,0.33984 c -0.25782,-0.80859 -0.63282,-1.39453 -1.1211,-1.76562 -0.48828,-0.36719 -1.10547,-0.55078 -1.84765,-0.55078 -0.85157,0 -1.5625,0.20312 -2.13672,0.61328 -0.57422,0.41016 -0.97266,0.95703 -1.20703,1.64453 -0.23438,0.69141 -0.34766,1.39844 -0.34766,2.13281 0,0.94141 0.13672,1.76563 0.41406,2.46875 0.26953,0.70703 0.69922,1.23047 1.27735,1.57813 0.58203,0.34765 1.21093,0.52344 1.88672,0.52344 0.82031,0 1.51953,-0.23829 2.08984,-0.71094 0.57031,-0.47656 0.95703,-1.17969 1.16016,-2.11328"
       id="path969" />
    <path
       style="fill:#4c4a4c;fill-opacity:1;fill-rule:nonzero;stroke:none"
       d="m 394.05078,421.85156 v -8.875 h 6.41797 v 1.04688 h -5.24219 v 2.71875 h 4.91016 v 1.04297 h -4.91016 v 3.01953 h 5.44531 v 1.04687 z m 0,0"
       id="path971" />
    <path
       style="fill:#4c4a4c;fill-opacity:1;fill-rule:nonzero;stroke:none"
       d="m 406.67187,421.85156 v -8.875 h 1.20704 l 4.66015,6.96875 v -6.96875 h 1.12891 v 8.875 h -1.20703 l -4.66016,-6.97656 v 6.97656 z m 0,0"
       id="path973" />
    <path
       style="fill:#4c4a4c;fill-opacity:1;fill-rule:nonzero;stroke:none"
       d="m 422.28906,421.85156 v -7.82812 h -2.92578 v -1.04688 h 7.03516 v 1.04688 h -2.9336 v 7.82812 z m 0,0"
       id="path975" />
    <path
       style="fill:#4c4a4c;fill-opacity:1;fill-rule:nonzero;stroke:none"
       d="m 433.1875,416.89453 h 2.52344 c 0.53906,0 0.95703,-0.0547 1.26172,-0.16797 0.30468,-0.10937 0.53125,-0.28906 0.6914,-0.53125 0.15625,-0.24609 0.23438,-0.51172 0.23438,-0.79687 0,-0.42188 -0.15235,-0.76563 -0.45703,-1.03516 -0.30469,-0.26953 -0.78516,-0.40625 -1.44141,-0.40625 h -2.8125 z m -1.17578,4.95703 v -8.875 h 3.9375 c 0.79297,0 1.39062,0.0781 1.80469,0.23828 0.41015,0.16016 0.74218,0.44141 0.98828,0.84375 0.24609,0.40625 0.36718,0.85157 0.36718,1.33985 0,0.6289 -0.20312,1.16015 -0.60937,1.58984 -0.41016,0.43359 -1.03906,0.70703 -1.89063,0.82422 0.3086,0.15234 0.54688,0.29687 0.70704,0.44141 0.34375,0.3164 0.66796,0.71093 0.97656,1.18359 l 1.54297,2.41406 h -1.47657 l -1.17578,-1.84765 c -0.34375,-0.53125 -0.625,-0.9375 -0.84765,-1.22266 -0.21875,-0.28125 -0.41797,-0.48047 -0.59375,-0.59375 -0.17578,-0.11328 -0.35547,-0.19141 -0.53516,-0.23438 -0.13672,-0.0273 -0.35547,-0.043 -0.65625,-0.043 h -1.36328 v 3.9414 z m 0,0"
       id="path977" />
    <path
       style="fill:#4c4a4c;fill-opacity:1;fill-rule:nonzero;stroke:none"
       d="m 445.36328,421.85156 v -8.875 h 6.41797 v 1.04688 h -5.24219 v 2.71875 h 4.91016 v 1.04297 h -4.91016 v 3.01953 h 5.44922 v 1.04687 z m 0,0"
       id="path979" />
    <path
       style="fill:#4c4a4c;fill-opacity:1;fill-rule:nonzero;stroke:none"
       d="m 172.58594,428.34766 h 1.48047 c 0.49218,0 0.83984,-0.0899 1.04296,-0.27344 0.20704,-0.17969 0.3086,-0.4375 0.3086,-0.76953 0,-0.23828 -0.0586,-0.44532 -0.17969,-0.61328 -0.12109,-0.17188 -0.28125,-0.28516 -0.48047,-0.33985 -0.125,-0.0312 -0.36328,-0.0508 -0.70703,-0.0508 h -1.46484 z m -0.75782,3.0039 V 425.625 h 2.16016 c 0.38281,0 0.67188,0.0195 0.87109,0.0547 0.28125,0.0469 0.51954,0.13672 0.70704,0.26953 0.1914,0.1289 0.34375,0.3164 0.46093,0.55078 0.11328,0.23828 0.17188,0.49609 0.17188,0.78125 0,0.48828 -0.15235,0.89844 -0.46485,1.23828 -0.30859,0.33594 -0.86718,0.50391 -1.67968,0.50391 h -1.46875 v 2.32812 z m 0,0"
       id="path981" />
    <path
       style="fill:#4c4a4c;fill-opacity:1;fill-rule:nonzero;stroke:none"
       d="m 181.79687,428.57422 c 0,0.6914 0.1836,1.23437 0.55469,1.63281 0.3711,0.39453 0.83594,0.59375 1.39844,0.59375 0.57031,0 1.03906,-0.19922 1.40625,-0.60156 0.37109,-0.39844 0.55469,-0.96875 0.55469,-1.70703 0,-0.46485 -0.0781,-0.8711 -0.23828,-1.22266 -0.15625,-0.34375 -0.38672,-0.61719 -0.69141,-0.80469 -0.30078,-0.19531 -0.64453,-0.28906 -1.01953,-0.28906 -0.53906,0 -1,0.18359 -1.38672,0.55078 -0.38672,0.3711 -0.57813,0.98828 -0.57813,1.84766 m -0.78125,-0.0117 c 0,-0.94922 0.25391,-1.69531 0.76563,-2.23047 0.51172,-0.53906 1.16797,-0.80859 1.97656,-0.80859 0.52735,0 1.00391,0.125 1.42969,0.3789 0.42578,0.25391 0.74609,0.60547 0.96875,1.0586 0.22266,0.44922 0.33594,0.96484 0.33594,1.53515 0,0.58203 -0.11719,1.10157 -0.35157,1.5586 -0.23437,0.45703 -0.5664,0.80468 -0.99609,1.03906 -0.42969,0.23828 -0.89453,0.35547 -1.39062,0.35547 -0.53907,0 -1.02344,-0.12891 -1.44532,-0.39063 -0.42578,-0.25781 -0.74609,-0.61718 -0.96484,-1.0664 -0.21875,-0.44922 -0.32813,-0.92578 -0.32813,-1.42969"
       id="path983" />
    <path
       style="fill:#4c4a4c;fill-opacity:1;fill-rule:nonzero;stroke:none"
       d="M 191.99609,431.35156 V 425.625 h 0.75782 v 5.05078 h 2.82031 v 0.67578 z m 0,0"
       id="path985" />
    <path
       style="fill:#4c4a4c;fill-opacity:1;fill-rule:nonzero;stroke:none"
       d="m 201.90234,429 h 1.94141 l -0.59766,-1.58594 c -0.18359,-0.48047 -0.32031,-0.8789 -0.40625,-1.1875 -0.0742,0.36719 -0.17578,0.73438 -0.30859,1.09375 z m -1.65234,2.35156 2.19922,-5.72656 h 0.8164 l 2.34375,5.72656 h -0.86328 l -0.66797,-1.73437 h -2.39453 l -0.6289,1.73437 z m 0,0"
       id="path987" />
    <path
       style="fill:#4c4a4c;fill-opacity:1;fill-rule:nonzero;stroke:none"
       d="M 210.60547,431.35156 V 425.625 h 0.77734 l 3.00781,4.49609 V 425.625 h 0.72657 v 5.72656 h -0.77735 l -3.00781,-4.5 v 4.5 z m 0,0"
       id="path989" />
    <path
       style="fill:#4c4a4c;fill-opacity:1;fill-rule:nonzero;stroke:none"
       d="m 221.54687,430.67578 h 1.22266 c 0.37891,0 0.67578,-0.0352 0.89063,-0.10547 0.21484,-0.0703 0.38671,-0.16797 0.51171,-0.29687 0.17969,-0.17969 0.32032,-0.42188 0.42188,-0.72657 0.0977,-0.30078 0.14844,-0.66796 0.14844,-1.10156 0,-0.59765 -0.0977,-1.05859 -0.29297,-1.3789 -0.19531,-0.32422 -0.4375,-0.53907 -0.71875,-0.64844 -0.20313,-0.0781 -0.52735,-0.11719 -0.98047,-0.11719 h -1.20313 z m -0.75781,0.67578 V 425.625 h 1.97266 c 0.44531,0 0.78515,0.0273 1.01953,0.082 0.32812,0.0742 0.60937,0.21094 0.83984,0.41016 0.30469,0.2539 0.52735,0.58203 0.67969,0.98047 0.14844,0.39453 0.22266,0.84765 0.22266,1.35937 0,0.4375 -0.0508,0.82031 -0.15235,1.15625 -0.10156,0.33594 -0.23047,0.61328 -0.39062,0.83203 -0.15625,0.22266 -0.33203,0.39453 -0.51953,0.52344 -0.19141,0.125 -0.41797,0.22266 -0.6836,0.28516 -0.26953,0.0664 -0.57422,0.0976 -0.92187,0.0976 z m 0,0"
       id="path991" />
  </g>
</svg>
