<?xml version="1.0" encoding="UTF-8"?><svg id="Warstwa_2" xmlns="http://www.w3.org/2000/svg" viewBox="0 0 153 222.59"><defs><style>.cls-1{fill:#13a4de;}</style></defs><g id="Warstwa_4"><g><g><path class="cls-1" d="m48.45,57.44c0,8.04-6.82,14.56-15.23,14.56s-15.23-6.52-15.23-14.56c0-14.56,15.23-33.97,15.23-33.97,0,0,15.23,19.41,15.23,33.97Z"/><path class="cls-1" d="m63,22.22c0,5.26-4.46,9.52-9.96,9.52s-9.96-4.26-9.96-9.52c0-9.52,9.96-22.22,9.96-22.22,0,0,9.96,12.7,9.96,22.22Z"/></g><path class="cls-1" d="m90,0s-45,57.6-45,100.8c0,23.86,20.15,43.2,45,43.2s45-19.34,45-43.2C135,57.6,90,0,90,0Zm29.37,131.64c-19.14,16.75-34.42,5.24-37.26-6.95-2.84-12.19,6.42-41.71,8.5-50.63s4.38-30.39-6.36-28.46-12.2,18.32-9.98,27.76c2.22,9.45,14.98,52.01-9.23,44.17-22.97-7.44-13.86-45.93-13.86-45.93,0,0-2.53,30.62,13.12,35.08,11.1,3.16,9.97-15.47,6.64-28.6-3.33-13.12-12.86-29.48-1.93-43.03,10.94-13.55,27.62-17.48,35.24-9.51,7.62,7.97-1.92,29.94-5.9,42.22s-6.42,26.66-6.74,34.82c-.32,8.17,3.88,23.62,16.36,20.47s16.08-22.73,12.4-34.06c-3.67-11.33-6.57-10.6-10.97-20.55-.91-2.06-.8-3.68-.2-4.69-.69-1.05-2.6-1.33-2.6-1.33,1.21-.26,1.17-.14,1.75-.12-.02-.22-.14-1.21-.14-1.21.6.45,1.08,1.89,1.21,2.33.58-.72,1.46-1,2.35-.74,2.09.61,5.09,2.78,5.81,3.03,1.9.67,3.8,1.45,4.82,2.38,2.87,2.62,3.31,3.95,4.34,6.3,1.77,4.05,16.99,35.94-7.37,57.25Z"/><path class="cls-1" d="m119.37,68.87s1.13.6,1.53.85.95.69,1.61,1.2c-1.38.17-2.07-.06-2.42-.38-.49-.44-.73-1.67-.73-1.67Z"/></g><g><path class="cls-1" d="m1.14,213.6c-.32,0-.58-.11-.8-.33-.22-.22-.33-.49-.33-.8v-30.81c0-.35.11-.63.33-.85.22-.22.49-.33.8-.33h12.68c2.46,0,4.61.39,6.44,1.16,1.83.77,3.25,1.94,4.26,3.5,1.01,1.56,1.51,3.51,1.51,5.84s-.5,4.32-1.51,5.85c-1.01,1.53-2.43,2.67-4.26,3.43-1.83.76-3.98,1.14-6.44,1.14h-7.05v11.07c0,.32-.1.58-.31.8-.21.22-.48.33-.83.33H1.14Zm5.54-17.46h6.91c1.83,0,3.23-.43,4.21-1.3.98-.87,1.47-2.15,1.47-3.86,0-1.58-.46-2.85-1.37-3.81s-2.35-1.44-4.31-1.44h-6.91v10.41Z"/><path class="cls-1" d="m35.07,222.59c-.25,0-.47-.09-.66-.28-.19-.19-.28-.41-.28-.66,0-.13,0-.24.02-.36.02-.11.07-.24.17-.4l3.69-8.76-9.09-21.44c-.13-.31-.19-.54-.19-.66.03-.28.14-.53.33-.73.19-.2.43-.31.71-.31h3.83c.38,0,.66.09.85.28.19.19.33.39.43.62l6.29,15.48,6.48-15.48c.09-.25.24-.47.43-.64.19-.17.47-.26.85-.26h3.79c.25,0,.48.09.69.28.2.19.31.41.31.66,0,.19-.06.44-.19.76l-13.39,31c-.13.25-.28.47-.47.64-.19.17-.47.26-.85.26h-3.74Z"/><path class="cls-1" d="m69.85,214.07c-2.93,0-5.39-.43-7.36-1.3-1.97-.87-3.47-2-4.5-3.41s-1.57-2.88-1.63-4.43c0-.28.1-.52.28-.71.19-.19.43-.28.71-.28h4.21c.41,0,.72.09.92.26.2.17.39.39.54.64.19.6.55,1.19,1.09,1.77.54.58,1.27,1.06,2.2,1.44.93.38,2.11.57,3.53.57,2.27,0,3.97-.38,5.09-1.14,1.12-.76,1.68-1.78,1.68-3.08,0-.92-.3-1.65-.9-2.2-.6-.55-1.52-1.06-2.77-1.51-1.25-.46-2.89-.94-4.95-1.44-2.37-.57-4.35-1.25-5.94-2.06-1.59-.8-2.79-1.82-3.6-3.05-.8-1.23-1.21-2.79-1.21-4.69s.5-3.45,1.49-4.87c.99-1.42,2.41-2.54,4.26-3.36,1.85-.82,4.05-1.23,6.6-1.23,2.05,0,3.86.28,5.44.83,1.58.55,2.89,1.28,3.93,2.18s1.84,1.86,2.39,2.89.84,2.03.88,3.01c0,.25-.09.48-.26.69-.17.21-.42.31-.73.31h-4.4c-.25,0-.5-.06-.76-.19-.25-.13-.46-.36-.62-.71-.19-.98-.8-1.81-1.85-2.51-1.04-.69-2.38-1.04-4.02-1.04s-3.08.31-4.12.95c-1.04.63-1.56,1.61-1.56,2.93,0,.88.26,1.62.78,2.2.52.58,1.36,1.1,2.51,1.54,1.15.44,2.67.92,4.57,1.42,2.68.6,4.87,1.29,6.58,2.08,1.7.79,2.95,1.79,3.74,3.01.79,1.22,1.18,2.75,1.18,4.61,0,2.08-.56,3.86-1.68,5.32-1.12,1.47-2.69,2.6-4.71,3.38-2.02.79-4.37,1.18-7.05,1.18Z"/><path class="cls-1" d="m89.87,213.6c-.32,0-.58-.11-.8-.33-.22-.22-.33-.49-.33-.8v-30.81c0-.35.11-.63.33-.85.22-.22.49-.33.8-.33h11.55c3.19,0,5.81.49,7.88,1.47,2.07.98,3.63,2.43,4.69,4.35,1.06,1.92,1.6,4.28,1.63,7.05.06,1.39.09,2.62.09,3.69s-.03,2.29-.09,3.64c-.06,2.93-.6,5.36-1.61,7.26-1.01,1.91-2.53,3.33-4.57,4.26-2.04.93-4.63,1.4-7.79,1.4h-11.78Zm5.44-5.44h6.11c1.77,0,3.2-.25,4.31-.76,1.1-.5,1.92-1.32,2.44-2.44.52-1.12.8-2.59.83-4.43.03-.95.05-1.77.07-2.48.02-.71.02-1.42,0-2.13-.02-.71-.04-1.52-.07-2.44-.06-2.59-.71-4.5-1.94-5.73-1.23-1.23-3.19-1.85-5.87-1.85h-5.87v22.24Z"/><path class="cls-1" d="m123.19,213.6c-.35,0-.63-.11-.85-.33-.22-.22-.33-.49-.33-.8v-30.81c0-.35.11-.63.33-.85.22-.22.5-.33.85-.33h3.74c.44,0,.77.12.99.35.22.24.36.42.43.54l9.13,17.04,9.23-17.04c.06-.13.21-.31.43-.54.22-.24.55-.35.99-.35h3.69c.35,0,.63.11.85.33s.33.5.33.85v30.81c0,.32-.11.58-.33.8-.22.22-.5.33-.85.33h-3.98c-.35,0-.62-.11-.83-.33-.21-.22-.31-.49-.31-.8v-20.49l-6.63,12.64c-.16.28-.36.53-.62.73-.25.21-.58.31-.99.31h-1.94c-.44,0-.78-.1-1.02-.31s-.43-.45-.59-.73l-6.63-12.64v20.49c0,.32-.11.58-.33.8s-.49.33-.8.33h-3.97Z"/></g></g></svg>
