<svg xmlns="http://www.w3.org/2000/svg" xmlns:xlink="http://www.w3.org/1999/xlink" version="1.1" width="393.9768pt" height="312.82093pt" viewBox="0 0 393.9768 312.82093">
<defs>
<clipPath id="clip_0">
<path transform="matrix(1,0,0,-1,-109.6023,710.2952)" d="M40.13926 18.59998H571.8608V773.39999H40.13926Z"/>
</clipPath>
</defs>
<g clip-path="url(#clip_0)">
<text fill="#231f20" xml:space="preserve" transform="matrix(1.078044 0 -0 1.078044 -69.46304 691.69528)" font-size="8.9664" font-family="Times"><tspan y="-652.068" x="68.013 72.4953 76.9776">400</tspan></text>
<text fill="#231f20" xml:space="preserve" transform="matrix(1.078044 0 -0 1.078044 -69.46304 691.69528)" font-size="8.9664" font-family="Times" font-style="italic"><tspan y="-652.068" x="209.6911 216.16394 219.24748 223.72978 229.70948 232.20124 238.92514 243.40744 249.62921 253.60939 258.0917 260.58348 263.07524 267.05543 271.0356 273.52738 276.01914 280.50144">Growthbycollection</tspan></text>
<path transform="matrix(1,0,0,-1,-109.6023,710.2952)" d="M302.7238 462.1472C313.045 462.1472 321.4613 458.8969 321.4613 454.9135 321.4613 450.929 313.045 447.6809 302.7238 447.6809 292.4037 447.6809 283.9874 450.929 283.9874 454.9135 283.9874 458.8969 292.4037 462.1472 302.7238 462.1472" fill="#d1d3d4" fill-rule="evenodd"/>
<path transform="matrix(1.078044,0,0,-1.078044,193.12149,248.14804)" stroke-width=".4" stroke-linecap="butt" stroke-miterlimit="2.613" stroke-linejoin="miter" fill="none" stroke="#231f20" d="M0 0C9.574 0 17.381-3.015 17.381-6.71 17.381-10.406 9.574-13.419 0-13.419-9.573-13.419-17.38-10.406-17.38-6.71-17.38-3.015-9.573 0 0 0Z"/>
<path transform="matrix(1.078044,0,0,-1.078044,237.60492,272.56794)" stroke-width=".4" stroke-linecap="butt" stroke-miterlimit="2.613" stroke-linejoin="miter" fill="none" stroke="#231f20" d="M0 0-14.522 8.781-13.367 6.781-29.139 15.887"/>
<path transform="matrix(1.078044,0,0,-1.078044,180.76612,255.02274)" stroke-width=".4" stroke-linecap="butt" stroke-miterlimit="2.613" stroke-linejoin="miter" fill="none" stroke="#231f20" d="M0 0-11.456 6.527-10.301 4.527-45.505 25.665"/>
<path transform="matrix(1.078044,0,0,-1.078044,193.31562,255.19522)" stroke-width=".4" stroke-linecap="butt" stroke-miterlimit="2.613" stroke-linejoin="miter" fill="none" stroke="#231f20" d="M0 0 16.98-.306"/>
<path transform="matrix(1.078044,0,0,-1.078044,193.17761,237.61234)" stroke-width=".4" stroke-linecap="butt" stroke-miterlimit="2.613" stroke-linejoin="miter" fill="none" stroke="#231f20" d="M0 0C23.4 0 42.484-7.367 42.484-16.399 42.484-25.432 23.4-32.799 0-32.799-23.4-32.799-42.485-25.432-42.485-16.399-42.485-7.367-23.4 0 0 0Z"/>
<text fill="#231f20" xml:space="preserve" transform="matrix(1.078044 0 -0 1.078044 -69.46304 691.69528)" font-size="7.9999" font-family="Helvetica"><tspan y="-394.8661" x="289.959 294.40696 296.18293 302.84684 304.6228 306.84678 308.62275 313.07069 319.74259 321.51856 328.18247 332.5184 336.96635 340.96629">Limitingimpact</tspan></text>
<text fill="#231f20" xml:space="preserve" transform="matrix(1.078044 0 -0 1.078044 -69.46304 691.69528)" font-size="7.9999" font-family="Helvetica"><tspan y="-385.9302" x="289.959 294.29496 298.7429 301.32688 305.7748 312.43873 316.88667 319.11064 323.55857">parameter</tspan></text>
<text fill="#231f20" xml:space="preserve" transform="matrix(1.078044 0 -0 1.078044 -69.46304 691.69528)" font-size="7.9999" font-family="Helvetica"><tspan y="-443.6255" x="157.9127 163.24864 165.32062 167.3046 171.75254 175.75249 177.97646 179.75243 183.99237">Effective</tspan></text>
<text fill="#231f20" xml:space="preserve" transform="matrix(1.078044 0 -0 1.078044 -69.46304 691.69528)" font-size="7.9999" font-family="Helvetica"><tspan y="-434.6816" x="149.8408 153.83995 156.50312 160.95026 164.9494 171.18053 175.17967 179.62682 183.62596 185.84914 187.62432 192.07146">crosssection</tspan></text>
<path transform="matrix(1.078044,0,0,-1.078044,193.03742,7.29364)" stroke-width=".5" stroke-linecap="butt" stroke-dasharray="4,2.4,.8,2.4" stroke-miterlimit="2.613" stroke-linejoin="miter" fill="none" stroke="#231f20" d="M0 0V-230.311"/>
<path transform="matrix(1.078044,0,0,-1.078044,192.58252,100.45172)" stroke-width=".75" stroke-linecap="butt" stroke-miterlimit="2.613" stroke-linejoin="miter" fill="none" stroke="#231f20" d="M0 0C-18.902-.33-34.049-16.016-33.719-34.917-33.389-53.819-17.704-68.966 1.198-68.636 20.1-68.306 35.247-52.621 34.918-33.719 34.587-14.817 18.902 .33 0 0Z"/>
<path transform="matrix(1.078044,0,0,-1.078044,174.42612,255.69763)" stroke-width=".5" stroke-linecap="butt" stroke-miterlimit="2.613" stroke-linejoin="miter" fill="none" stroke="#231f20" d="M0 0C.006 .389 .013 30.028 .019 30.41 .132 38.186 .039 44.376-.601 49.808-1.975 61.483-5.866 69.678-15.595 82.673-25.189 95.49-26.503 110.466-24.689 125.998-23.447 136.625-20.609 147.512-18.473 158.147-12.174 189.486-8.817 199.496-7.159 227.602"/>
<path transform="matrix(1,0,0,-1,-109.6023,710.2952)" d="M276.302 699.7987 274.8909 698.0329 275.0095 700.0391 276.4282 701.9688 277.6119 699.8861 277.4933 697.8787 276.302 699.7987" fill="#231f20" fill-rule="evenodd"/>
<path transform="matrix(1.078044,0,0,-1.078044,211.831,255.46363)" stroke-width=".5" stroke-linecap="butt" stroke-miterlimit="2.613" stroke-linejoin="miter" fill="none" stroke="#231f20" d="M0 0C-.006 .391-.014 29.495-.019 29.876-.133 37.653-.039 43.842 .6 49.275 1.974 60.95 5.866 69.144 15.595 82.139 25.188 94.956 26.503 109.933 24.688 125.464 23.447 136.091 20.609 146.978 18.473 157.613 12.174 188.952 8.816 198.962 7.158 227.068"/>
<path transform="matrix(1,0,0,-1,-109.6023,710.2952)" d="M329.1596 699.457 327.9662 697.537 327.8487 699.5432 329.0303 701.626 330.45 699.6963 330.5686 697.6901 329.1596 699.457" fill="#231f20" fill-rule="evenodd"/>
<path transform="matrix(1.078044,0,0,-1.078044,239.07642,255.18552)" stroke-width=".5" stroke-linecap="butt" stroke-dasharray="1.6,4" stroke-miterlimit="2.613" stroke-linejoin="miter" fill="none" stroke="#231f20" d="M0 0V109.258"/>
<path transform="matrix(1.078044,0,0,-1.078044,147.17639,255.97254)" stroke-width=".5" stroke-linecap="butt" stroke-dasharray="1.6,4" stroke-miterlimit="2.613" stroke-linejoin="miter" fill="none" stroke="#231f20" d="M0 0V109.988"/>
<path transform="matrix(1,0,0,-1,-109.6023,710.2952)" d="M302.7788 590.6338C328.005 590.6338 348.5784 582.6908 348.5784 572.9539 348.5784 563.2159 328.005 555.274 302.7788 555.274 277.5526 555.274 256.9781 563.2159 256.9781 572.9539 256.9781 582.6908 277.5526 590.6338 302.7788 590.6338" fill="#d1d3d4" fill-rule="evenodd"/>
<path transform="matrix(1.078044,0,0,-1.078044,193.17652,119.66144)" stroke-width=".4" stroke-linecap="butt" stroke-miterlimit="2.613" stroke-linejoin="miter" fill="none" stroke="#231f20" d="M0 0C23.4 0 42.484-7.368 42.484-16.4 42.484-25.433 23.4-32.8 0-32.8-23.4-32.8-42.485-25.433-42.485-16.4-42.485-7.368-23.4 0 0 0Z"/>
<path transform="matrix(1.078044,0,0,-1.078044,151.8324,145.18305)" stroke-width=".75" stroke-linecap="butt" stroke-miterlimit="2.613" stroke-linejoin="miter" fill="none" stroke="#231f20" d="M0 0C-1.153-.636-2.489-1.002-3.825-1.002-8.104-1.002-11.595 2.49-11.595 6.769-11.595 11.049-8.104 14.539-3.825 14.539 .455 14.539 3.946 11.049 3.946 6.769"/>
<path transform="matrix(1.078044,0,0,-1.078044,156.0853,138.04962)" stroke-width=".5" stroke-linecap="butt" stroke-dasharray="1.6,2.4" stroke-miterlimit="2.613" stroke-linejoin="miter" fill="none" stroke="#231f20" d="M0 0C-.03-2.671-1.487-5.16-3.764-6.526"/>
<path transform="matrix(1.078044,0,0,-1.078044,230.7366,137.19904)" stroke-width=".75" stroke-linecap="butt" stroke-miterlimit="2.613" stroke-linejoin="miter" fill="none" stroke="#231f20" d="M0 0C.03 4.25 3.52 7.709 7.77 7.709 12.051 7.709 15.541 4.219 15.541-.061 15.541-4.34 12.051-7.832 7.77-7.832 6.586-7.832 5.312-7.528 4.279-7.011"/>
<path transform="matrix(1.078044,0,0,-1.078044,235.1868,144.66016)" stroke-width=".5" stroke-linecap="butt" stroke-dasharray="1.6,2.4" stroke-miterlimit="2.613" stroke-linejoin="miter" fill="none" stroke="#231f20" d="M0 0C-2.489 1.336-4.128 4.007-4.128 6.86-4.128 6.921-4.128 7.042-4.128 7.103"/>
<path transform="matrix(1.078044,0,0,-1.078044,230.23529,137.38013)" stroke-width=".75" stroke-linecap="butt" stroke-miterlimit="2.613" stroke-linejoin="miter" fill="none" stroke="#231f20" d="M0 0C-.003 .134-.008 .402-.009 .536-.34 19.438-16.025 34.585-34.927 34.255-53.829 33.925-68.976 18.239-68.646-.662"/>
<path transform="matrix(1.078044,0,0,-1.078044,156.2298,137.94934)" stroke-width=".5" stroke-linecap="butt" stroke-dasharray="1.6,2.4" stroke-miterlimit="2.613" stroke-linejoin="miter" fill="none" stroke="#231f20" d="M0 0 .002-.134C.059-3.351 .792-6.96 1.648-9.894"/>
<path transform="matrix(1.078044,0,0,-1.078044,228.55139,148.54114)" stroke-width=".5" stroke-linecap="butt" stroke-dasharray="1.6,2.4" stroke-miterlimit="2.613" stroke-linejoin="miter" fill="none" stroke="#231f20" d="M0 0C1.015 3.236 1.621 7.001 1.559 10.487"/>
<path transform="matrix(1.078044,0,0,-1.078044,193.31562,137.2453)" stroke-width=".4" stroke-linecap="butt" stroke-miterlimit="2.613" stroke-linejoin="miter" fill="none" stroke="#231f20" d="M0 0 42.125-.306"/>
<text fill="#231f20" xml:space="preserve" transform="matrix(1.078044 0 -0 1.078044 -69.46304 691.69528)" font-size="7.9999" font-family="Helvetica"><tspan y="-474.0731" x="305.334 311.55793 314.1419 318.58985 322.58979 324.36576 328.8137 335.5576 340.00553 341.7815">Grazingair</tspan></text>
<text fill="#231f20" xml:space="preserve" transform="matrix(1.078044 0 -0 1.078044 -69.46304 691.69528)" font-size="7.9999" font-family="Helvetica"><tspan y="-465.1372" x="308.438 310.66197 313.24595 317.69389 319.46986 323.9178 327.91773 330.1417 334.58964 337.3256">trajectory</tspan></text>
<text fill="#231f20" xml:space="preserve" transform="matrix(1.078044 0 -0 1.078044 -69.46304 691.69528)" font-size="7.9999" font-family="Helvetica"><tspan y="-550.7601" x="294.7341 300.51005 304.95799 306.73396 308.50993 312.95787 316.9578 319.18177 323.6297">Collector</tspan></text>
<text fill="#231f20" xml:space="preserve" transform="matrix(1.078044 0 -0 1.078044 -69.46304 691.69528)" font-size="7.9999" font-family="Helvetica"><tspan y="-541.8243" x="302.518 306.96595 309.6299 314.07786">drop</tspan></text>
<path transform="matrix(1.078044,0,0,-1.078044,258.6795,125.11731)" stroke-width=".4" stroke-linecap="butt" stroke-miterlimit="2.613" stroke-linejoin="miter" fill="none" stroke="#231f20" d="M0 0-7.791-4.499-6.637-2.498-22.408-11.604"/>
<path transform="matrix(1.078044,0,0,-1.078044,255.87979,174.8432)" stroke-width=".4" stroke-linecap="butt" stroke-miterlimit="2.613" stroke-linejoin="miter" fill="none" stroke="#231f20" d="M0 0-7.792 4.498-6.637 2.498-22.409 11.603"/>
<path transform="matrix(1.078044,0,0,-1.078044,165.24222,129.5794)" stroke-width=".4" stroke-linecap="butt" stroke-miterlimit="2.613" stroke-linejoin="miter" fill="none" stroke="#231f20" d="M0 0-11.456 6.528-10.301 4.528-28.797 15.571"/>
<path transform="matrix(1.078044,0,0,-1.078044,219.8646,111.50922)" stroke-width=".4" stroke-linecap="butt" stroke-miterlimit="2.613" stroke-linejoin="miter" fill="none" stroke="#231f20" d="M0 0 7.792 4.498 6.638 2.498 22.409 11.604"/>
<text fill="#231f20" xml:space="preserve" transform="matrix(1.078044 0 -0 1.078044 -69.46304 691.69528)" font-size="7.9999" font-family="Helvetica" font-style="italic"><tspan y="-517.379" x="260.139">r</tspan></text>
<text fill="#231f20" xml:space="preserve" transform="matrix(1.078044 0 -0 1.078044 -69.46304 691.69528)" font-size="4" font-family="Helvetica" font-style="italic"><tspan y="-515.7731" x="263.259">L</tspan></text>
<text fill="#231f20" xml:space="preserve" transform="matrix(1.078044 0 -0 1.078044 -69.46304 691.69528)" font-size="7.9999" font-family="Helvetica" font-style="italic"><tspan y="-523.3351" x="305.678">r</tspan></text>
<text fill="#231f20" xml:space="preserve" transform="matrix(1.078044 0 -0 1.078044 -69.46304 691.69528)" font-size="4" font-family="Helvetica" font-style="italic"><tspan y="-521.7421" x="308.79">S</tspan></text>
<path transform="matrix(1.078044,0,0,-1.078044,193.03742,7.29364)" stroke-width=".5" stroke-linecap="butt" stroke-dasharray="4,8.001,.8,8.001" stroke-miterlimit="2.613" stroke-linejoin="miter" fill="none" stroke="#231f20" d="M0 0V-120.543"/>
<text fill="#231f20" xml:space="preserve" transform="matrix(1.078044 0 -0 1.078044 -69.46304 691.69528)" font-size="7.9999" font-family="Helvetica"><tspan y="-549.548" x="152.1848 158.40872 162.85666 167.3046 173.9685 178.41645 180.64041 183.42438 185.20035 189.2003 193.64826">Geometrical</tspan></text>
<text fill="#231f20" xml:space="preserve" transform="matrix(1.078044 0 -0 1.078044 -69.46304 691.69528)" font-size="7.9999" font-family="Helvetica"><tspan y="-540.6121" x="150.4008 154.40076 157.06473 161.51267 165.51262 171.74456 175.7445 180.19245 184.1924 186.41637 188.19234 192.64029">crosssection</tspan></text>
<path transform="matrix(1.078044,0,0,-1.078044,193.03531,137.1084)" stroke-width=".5" stroke-linecap="butt" stroke-miterlimit="2.613" stroke-linejoin="miter" fill="none" stroke="#231f20" d="M0 0V-49.858"/>
<path transform="matrix(1.078044,0,0,-1.078044,195.25931,188.10211)" stroke-width=".5" stroke-linecap="butt" stroke-miterlimit="2.613" stroke-linejoin="miter" fill="none" stroke="#231f20" d="M0 0-2.062-3.182-4.127 0"/>
<path transform="matrix(1.078044,0,0,-1.078044,239.1745,137.24866)" stroke-width=".5" stroke-linecap="butt" stroke-miterlimit="2.613" stroke-linejoin="miter" fill="none" stroke="#231f20" d="M0 0V-19.395"/>
<path transform="matrix(1.078044,0,0,-1.078044,241.3985,155.3996)" stroke-width=".5" stroke-linecap="butt" stroke-miterlimit="2.613" stroke-linejoin="miter" fill="none" stroke="#231f20" d="M0 0-2.063-3.183-4.127 0"/>
<text fill="#231f20" xml:space="preserve" transform="matrix(1.078044 0 -0 1.078044 -69.46304 691.69528)" font-size="7.9999" font-family="Helvetica" font-style="italic"><tspan y="-496.755" x="289.719">v</tspan></text>
<text fill="#231f20" xml:space="preserve" transform="matrix(1.078044 0 -0 1.078044 -69.46304 691.69528)" font-size="4" font-family="Helvetica" font-style="italic"><tspan y="-494.7551" x="293.719">S</tspan></text>
<text fill="#231f20" xml:space="preserve" transform="matrix(1.078044 0 -0 1.078044 -69.46304 691.69528)" font-size="7.9999" font-family="Helvetica" font-style="italic"><tspan y="-465.4781" x="247.7595">v</tspan></text>
<text fill="#231f20" xml:space="preserve" transform="matrix(1.078044 0 -0 1.078044 -69.46304 691.69528)" font-size="4" font-family="Helvetica" font-style="italic"><tspan y="-463.4781" x="251.759">L</tspan></text>
<text fill="#231f20" xml:space="preserve" transform="matrix(1.078044 0 -0 1.078044 -69.46304 691.69528)" font-size="8.9664" font-family="Times"><tspan y="-368.1901" x="68.013 72.99742 75.48918 79.97148 84.45378 87.4387 94.476428 98.958728 101.199428 105.68173 114.64723 119.63165 123.61184 128.09415 132.07433 139.04929 143.02947 145.52123 148.01299 155.05968 159.54198 165.58443 168.07619 172.55849 179.58724 184.06954 188.04972 192.53202 199.50698 203.48715 205.97891 208.96382 216.50366 220.48384 223.97087 227.4579 231.9402 235.92038 238.41214 242.39232 244.88408 248.86426 256.4041 262.87696 265.3687 267.86048 275.40034 277.8921 282.3744 289.40318 293.38337 297.86567 300.35743 302.84919 305.34095 308.82798 311.31974 315.80204 323.33293 327.81523 333.8577 340.89546 344.38249 351.35746 355.33766 357.8294 363.36976 367.85206 370.83699 375.31929 382.85017 389.323 391.81477 394.30653 401.84638 408.87516 411.3669 415.3471 418.17063 422.65293">Figure9.11Schematicofthegeometryassociatedwiththecollisionofasmalldropwithalarge</tspan></text>
<text fill="#231f20" xml:space="preserve" transform="matrix(1.078044 0 -0 1.078044 -69.46304 691.69528)" font-size="8.9664" font-family="Times"><tspan y="-357.2242" x="68.013 72.4953 75.48022 79.962528 84.444828 88.927127 95.39997 97.89173 103.12721 108.11163 112.369777 121.08422 123.57598 129.30461 132.79164 137.27394 141.53208 148.00492 154.72882 157.71373 161.69391 164.18567 168.16585 170.65761 172.9252 177.27301 183.50376 185.99552 192.71942 195.21118 199.69348 205.92423 208.41599 212.39617 215.21968 219.70198 225.92377 230.40607 233.39098 237.87328 242.35558 246.84685 253.31969 257.802 260.29377 264.27397 270.99787 274.97807 278.95826 281.45 285.9323 289.9125 292.40428 294.89604 301.63786 304.5331 308.5133 311.00508 313.49684 319.2165 325.68934 328.1811 330.67286 337.40574 340.89277 345.37507 349.35527 353.33546">drop.Air&#xfb02;owisshownrelativetothelargedrop,whichactuallyfallswithspeed</tspan></text>
<text fill="#231f20" xml:space="preserve" transform="matrix(1.078044 0 -0 1.078044 -69.46304 691.69528)" font-size="8.9664" font-family="RMTMI" font-style="italic"><tspan y="-357.2242" x="360.0576">v</tspan></text>
<text fill="#231f20" xml:space="preserve" transform="matrix(1.078044 0 -0 1.078044 -69.46304 691.69528)" font-size="7.5716" font-family="Times" font-style="italic"><tspan y="-355.455" x="364.851">L</tspan></text>
<text fill="#231f20" xml:space="preserve" transform="matrix(1.078044 0 -0 1.078044 -69.46304 691.69528)" font-size="8.9664" font-family="Times"><tspan y="-357.228" x="370.152">.</tspan></text>
<text fill="#231f20" xml:space="preserve" transform="matrix(1.078044 0 -0 1.078044 -69.46304 691.69528)" font-size="9.9626" font-family="Times"><tspan y="-327.3751" x="68.013 70.78161 75.76191 83.40223 87.82463 92.80493 95.57354 98.34215 102.76455 107.18695 109.95556 114.93586 118.25241 121.56896 127.2865 133.37265 138.35295 145.99327 148.76187 153.48314 160.67514 165.09754 171.64197 175.51642 180.49672 184.91912 189.89942 194.32181 202.53 207.5103 210.2789 214.15335 222.35158 226.22603 231.20633 235.9276 243.1196 251.32779 254.09639 262.28465 267.82286 270.59147 275.57179">thecollector).ThelowershadeddiskshowninFig.</tspan></text>
<text fill="#3f7d7d" xml:space="preserve" transform="matrix(1.078044 0 -0 1.078044 -69.46304 691.69528)" font-size="9.9626" font-family="Times"><tspan y="-327.3751" x="281.2724 286.2507 288.73838 293.71669">9.11</tspan></text>
<text fill="#231f20" xml:space="preserve" transform="matrix(1.078044 0 -0 1.078044 -69.46304 691.69528)" font-size="9.9626" font-family="Times"><tspan y="-327.3751" x="298.695 304.42253 307.1911 312.1714 316.04585 318.81443 323.7947 331.42509 334.19367 339.17396 346.81428 351.79457 355.11109 359.53349 363.95588 366.72447 371.70475 379.91294 382.68153 385.99806 390.42045 393.18904 397.61143 402.0338 404.8024 409.78269 413.0992 415.8678 420.2902 424.16465">,insidethegrazingtrajectories,</tspan></text>
<text fill="#231f20" xml:space="preserve" transform="matrix(1.078044 0 -0 1.078044 -69.46304 691.69528)" font-size="9.9626" font-family="Times"><tspan y="-314.4237" x="68.013 70.78061 75.75992 80.18132 85.16063 87.92824 90.69585 96.23306 100.654468 107.88532 110.65293 115.63224 123.40108 127.82248 130.88896 134.20452 138.62592 143.04732 145.81493 148.33347 153.15337 160.93216 165.35356 168.66912 173.09052">identi&#xfb01;estheeffectivearea</tspan></text>
<text fill="#231f20" xml:space="preserve" transform="matrix(1.078044 0 -0 1.078044 -69.46304 691.69528)" font-size="9.9626" font-family="Times" font-style="italic"><tspan y="-314.4237" x="181.8756">A</tspan></text>
<text fill="#231f20" xml:space="preserve" transform="matrix(1.078044 0 -0 1.078044 -69.46304 691.69528)" font-size="7.5716" font-family="Times" font-style="italic"><tspan y="-312.9301" x="188.154 191.51958 193.49198">eff</tspan></text>
<text fill="#231f20" xml:space="preserve" transform="matrix(1.078044 0 -0 1.078044 -69.46304 691.69528)" font-size="9.9626" font-family="Times"><tspan y="-314.424" x="200.529 204.95041 209.92972 214.90903 219.88834 224.86765 229.28905 231.80759 236.62749 244.42621 247.19382 255.52056 259.94197 264.92127 267.68888 270.45649 273.2241 277.09757 279.86518 284.84449 289.8238 295.93885 300.91816 304.2337 309.213 314.19233 321.4232 324.1908 329.1701 333.5915 339.70655 344.68586 349.10725 352.9807 360.20164 362.96925 367.94856 371.2641 376.2434 381.22273 386.20204 394.53874 397.30635 402.28565 410.05448 415.03379 417.8014 421.67488">conducivetocollision;dropsthatpassthroughthedisk</tspan></text>
<text fill="#231f20" xml:space="preserve" transform="matrix(1.078044 0 -0 1.078044 -69.46304 691.69528)" font-size="9.9626" font-family="Times"><tspan y="-301.4726" x="68.01646 72.43886 77.41916 80.18777 82.956378 85.72498 90.705287 98.11646 105.308467 108.07707 110.84568 118.8048 121.57341 126.55371 133.96489 138.38729 143.36759 146.13619 148.90479 153.32718 157.74958 160.51818 165.49848 168.42649 173.91489 176.68349 181.66379 186.64409 190.51854 197.92972 200.69832 205.67862 210.10102 215.8584 220.8387 225.2611 229.13555 235.98882 240.96912 245.94942 248.71802 252.59247 255.36107 260.34138 267.75254 270.52116 276.2586 281.23893 289.208 294.18833 299.16865 301.93727 307.41569 313.50184 318.48216 323.46247 327.3369 332.81535 335.58396 343.5431 346.3117 350.7341 354.05067 361.80058 368.65385 373.63417 379.93949 382.7081 387.68843 395.09959 397.8682 400.6368 408.38673 411.15534 413.92396 416.69258 421.67289">collidewiththecollector,thosethatpassoutsideitdonot.Thus,intermsofthelimiting</tspan></text>
<text fill="#231f20" xml:space="preserve" transform="matrix(1.078044 0 -0 1.078044 -69.46304 691.69528)" font-size="9.9626" font-family="Times"><tspan y="-288.5212" x="68.01646 72.741718 77.158138 79.930728 84.905048">value</tspan></text>
<text fill="#231f20" xml:space="preserve" transform="matrix(1.078044 0 -0 1.078044 -69.46304 691.69528)" font-size="9.9626" font-family="Times" font-style="italic"><tspan y="-288.5212" x="92.47464">y</tspan></text>
<text fill="#231f20" xml:space="preserve" transform="matrix(1.078044 0 -0 1.078044 -69.46304 691.69528)" font-size="7.5716" font-family="Times" font-style="italic"><tspan y="-287.028" x="96.813">c</tspan></text>
<text fill="#231f20" xml:space="preserve" transform="matrix(1.078044 0 -0 1.078044 -69.46304 691.69528)" font-size="9.9626" font-family="Times"><tspan y="-288.522" x="103.32 108.29931 114.11547 116.88308 121.86239 128.77445 131.54206 139.29097 144.27028 148.69168 153.11309 158.39127 163.37058 167.79198 171.10753 175.52893 183.27785 187.69925 190.46686 194.88826 197.81528 202.81452 205.58213 210.56143 217.47348 221.89488 226.87419 229.6418 232.40941 235.17702 239.05048 241.81809 246.7974 254.26735 258.68876 261.75526 267.29246 271.71388 274.48149 278.9029 283.8822 288.1442">oftheimpactparameter,thecollisionef&#xfb01;ciency</tspan></text>
<text fill="#231f20" xml:space="preserve" transform="matrix(1.078044 0 -0 1.078044 -69.46304 691.69528)" font-size="9.9626" font-family="Times" font-style="italic"><tspan y="-259.1423" x="190.5326">E</tspan></text>
<text fill="#231f20" xml:space="preserve" transform="matrix(1.078044 0 -0 1.078044 -69.46304 691.69528)" font-size="9.9626" font-family="MTSYN"><tspan y="-259.1423" x="200.286">=</tspan></text>
<text fill="#231f20" xml:space="preserve" transform="matrix(1.078044 0 -0 1.078044 -69.46304 691.69528)" font-size="9.9626" font-family="Times" font-style="italic"><tspan y="-266.2755" x="216.9036">A</tspan></text>
<text fill="#231f20" xml:space="preserve" transform="matrix(1.078044 0 -0 1.078044 -69.46304 691.69528)" font-size="7.5716" font-family="Times" font-style="italic"><tspan y="-264.789" x="223.182 226.54758 228.51998">eff</tspan></text>
<path transform="matrix(1.078044,0,0,-1.078044,159.10602,409.64125)" stroke-width=".459" stroke-linecap="butt" stroke-miterlimit="10" stroke-linejoin="miter" fill="none" stroke="#231f20" d="M0 0H24.102"/>
<text fill="#231f20" xml:space="preserve" transform="matrix(1.078044 0 -0 1.078044 -69.46304 691.69528)" font-size="9.9626" font-family="Times" font-style="italic"><tspan y="-252.072" x="213.012">A</tspan></text>
<text fill="#231f20" xml:space="preserve" transform="matrix(1.078044 0 -0 1.078044 -69.46304 691.69528)" font-size="7.5716" font-family="Times" font-style="italic"><tspan y="-250.578" x="219.294 223.01091 226.37952 230.16457">geom</tspan></text>
<text fill="#231f20" xml:space="preserve" transform="matrix(1.078044 0 -0 1.078044 -69.46304 691.69528)" font-size="9.9626" font-family="MTSYN"><tspan y="-259.1461" x="240.075">=</tspan></text>
<text fill="#231f20" xml:space="preserve" transform="matrix(1.078044 0 -0 1.078044 -69.46304 691.69528)" font-size="9.9626" font-family="RMTMI" font-style="italic"><tspan y="-266.1299" x="268.1396">&#x03c0;</tspan></text>
<text fill="#231f20" xml:space="preserve" transform="matrix(1.078044 0 -0 1.078044 -69.46304 691.69528)" font-size="9.9626" font-family="Times" font-style="italic"><tspan y="-266.1299" x="275.3526">y</tspan></text>
<text fill="#231f20" xml:space="preserve" transform="matrix(1.078044 0 -0 1.078044 -69.46304 691.69528)" font-size="7.5716" font-family="Times"><tspan y="-269.739" x="280.278">2</tspan></text>
<text fill="#231f20" xml:space="preserve" transform="matrix(1.078044 0 -0 1.078044 -69.46304 691.69528)" font-size="7.5716" font-family="Times" font-style="italic"><tspan y="-263.447" x="279.6798">c</tspan></text>
<path transform="matrix(1.078044,0,0,-1.078044,202.0003,409.64125)" stroke-width=".459" stroke-linecap="butt" stroke-miterlimit="10" stroke-linejoin="miter" fill="none" stroke="#231f20" d="M0 0H49.095"/>
<text fill="#231f20" xml:space="preserve" transform="matrix(1.078044 0 -0 1.078044 -69.46304 691.69528)" font-size="9.9626" font-family="RMTMI" font-style="italic"><tspan y="-252.018" x="251.811">&#x03c0;</tspan></text>
<text fill="#231f20" xml:space="preserve" transform="matrix(1.078044 0 -0 1.078044 -69.46304 691.69528)" font-size="9.9626" font-family="RMTMI" font-style="italic"><tspan y="-252.018" x="258.50688">(</tspan></text>
<text fill="#231f20" xml:space="preserve" transform="matrix(1.078044 0 -0 1.078044 -69.46304 691.69528)" font-size="9.9626" font-family="Times" font-style="italic"><tspan y="-252.018" x="262.0127">r</tspan></text>
<text fill="#231f20" xml:space="preserve" transform="matrix(1.078044 0 -0 1.078044 -69.46304 691.69528)" font-size="7.5716" font-family="Times" font-style="italic"><tspan y="-250.524" x="266.526">L</tspan></text>
<text fill="#231f20" xml:space="preserve" transform="matrix(1.078044 0 -0 1.078044 -69.46304 691.69528)" font-size="9.9626" font-family="MTSYN"><tspan y="-252.018" x="274.032">+</tspan></text>
<text fill="#231f20" xml:space="preserve" transform="matrix(1.078044 0 -0 1.078044 -69.46304 691.69528)" font-size="9.9626" font-family="Times" font-style="italic"><tspan y="-252.018" x="283.8053">r</tspan></text>
<text fill="#231f20" xml:space="preserve" transform="matrix(1.078044 0 -0 1.078044 -69.46304 691.69528)" font-size="7.5716" font-family="Times" font-style="italic"><tspan y="-250.524" x="288.279">S</tspan></text>
<text fill="#231f20" xml:space="preserve" transform="matrix(1.078044 0 -0 1.078044 -69.46304 691.69528)" font-size="9.9626" font-family="RMTMI" font-style="italic"><tspan y="-252.018" x="292.905">)</tspan></text>
<text fill="#231f20" xml:space="preserve" transform="matrix(1.078044 0 -0 1.078044 -69.46304 691.69528)" font-size="7.5716" font-family="Times"><tspan y="-254.898" x="296.622">2</tspan></text>
<text fill="#231f20" xml:space="preserve" transform="matrix(1.078044 0 -0 1.078044 -69.46304 691.69528)" font-size="9.9626" font-family="RMTMI" font-style="italic"><tspan y="-259.1461" x="302.103">.</tspan></text>
<text fill="#231f20" xml:space="preserve" transform="matrix(1.078044 0 -0 1.078044 -69.46304 691.69528)" font-size="9.9626" font-family="Times"><tspan y="-259.1461" x="402.5957 405.91127 410.89057 413.3792 418.35853 423.33784">(9.39)</tspan></text>
<text fill="#231f20" xml:space="preserve" transform="matrix(1.078044 0 -0 1.078044 -69.46304 691.69528)" font-size="9.9626" font-family="Times"><tspan y="-230.7925" x="68.01179 74.09695 79.076259 88.43911 92.86051 97.83982 100.60743 103.37504 106.14265 110.016109 112.783718 117.76302 127.67382 132.09522 135.1617 140.69892 145.12032 147.88793 152.30933 157.28864 161.55063 165.88237 173.32245 178.30176 183.28107 187.70247 197.07529 199.8429 207.54199 210.3096 219.10459 224.0839 229.0632 233.78348 240.97449 250.90522 254.22077 259.20008 267.4471 271.86854 276.68846 286.61918 291.59849 294.11705 298.93696 303.35835 313.27909 318.2584 321.57395 326.55326 336.474 341.4533 345.8747 348.6423 356.8993">Thecollisionef&#xfb01;ciency,onceitisknownforanygivendroppair(</tspan></text>
<text fill="#231f20" xml:space="preserve" transform="matrix(1.078044 0 -0 1.078044 -69.46304 691.69528)" font-size="9.9626" font-family="Times" font-style="italic"><tspan y="-230.7925" x="359.9957">r</tspan></text>
<text fill="#231f20" xml:space="preserve" transform="matrix(1.078044 0 -0 1.078044 -69.46304 691.69528)" font-size="7.5716" font-family="Times" font-style="italic"><tspan y="-229.293" x="364.509">L</tspan></text>
<text fill="#231f20" xml:space="preserve" transform="matrix(1.078044 0 -0 1.078044 -69.46304 691.69528)" font-size="9.9626" font-family="Times"><tspan y="-230.787" x="369.801">,</tspan></text>
<text fill="#231f20" xml:space="preserve" transform="matrix(1.078044 0 -0 1.078044 -69.46304 691.69528)" font-size="9.9626" font-family="Times" font-style="italic"><tspan y="-230.787" x="377.0139">r</tspan></text>
<text fill="#231f20" xml:space="preserve" transform="matrix(1.078044 0 -0 1.078044 -69.46304 691.69528)" font-size="7.5716" font-family="Times" font-style="italic"><tspan y="-229.293" x="381.483">S</tspan></text>
<text fill="#231f20" xml:space="preserve" transform="matrix(1.078044 0 -0 1.078044 -69.46304 691.69528)" font-size="9.9626" font-family="Times"><tspan y="-230.787" x="386.1 389.41856 396.83174 399.60234 408.4003 413.3826 417.25904 421.6834">),isused</tspan></text>
<text fill="#231f20" xml:space="preserve" transform="matrix(1.078044 0 -0 1.078044 -69.46304 691.69528)" font-size="9.9626" font-family="Times"><tspan y="-216.6999" x="68.01411 70.782718 79.99712 84.419528 88.84193 91.610538 96.032939 101.01324 103.781848 108.20425 110.972858 119.63932 122.40793 127.38823 136.05469 140.47708 143.54456 146.8611 151.2835 155.70589 158.47449 160.99402 165.81491 174.48137 178.35582 185.54782 189.97022 194.95052 201.96318 206.74423 211.72454 214.49314 219.47344 227.22335 235.8898 239.20635 242.52289 247.50319 255.05384 259.47624 264.45655 267.22517 269.99378 272.7624 276.63685 279.40547 284.38578 293.6002 298.5805 303.56083 306.87739 311.8577 316.838 320.71247 325.13487 329.0093 336.56996 340.99235">tocalculatetheeffectivesweptvolume(forcollisionpurposes)as</tspan></text>
<text fill="#231f20" xml:space="preserve" transform="matrix(1.078044 0 -0 1.078044 -69.46304 691.69528)" font-size="7.5716" font-family="MTSYN"><tspan y="-223.182" x="350.676">&#x00b7;</tspan></text>
<text fill="#231f20" xml:space="preserve" transform="matrix(1.078044 0 -0 1.078044 -69.46304 691.69528)" font-size="9.9626" font-family="RMTMI" font-style="italic"><tspan y="-216.702" x="349.11">v</tspan></text>
<text fill="#231f20" xml:space="preserve" transform="matrix(1.078044 0 -0 1.078044 -69.46304 691.69528)" font-size="7.5716" font-family="Times" font-style="italic"><tspan y="-215.208" x="354.357 357.72257 359.69499">eff</tspan></text>
<text fill="#231f20" xml:space="preserve" transform="matrix(1.078044 0 -0 1.078044 -69.46304 691.69528)" font-size="9.9626" font-family="MTSYN"><tspan y="-216.702" x="369.396">=</tspan></text>
<text fill="#231f20" xml:space="preserve" transform="matrix(1.078044 0 -0 1.078044 -69.46304 691.69528)" font-size="9.9626" font-family="Times" font-style="italic"><tspan y="-216.702" x="383.8418">E</tspan></text>
<text fill="#231f20" xml:space="preserve" transform="matrix(1.078044 0 -0 1.078044 -69.46304 691.69528)" font-size="7.5716" font-family="MTSYN"><tspan y="-223.182" x="392.4">&#x00b7;</tspan></text>
<text fill="#231f20" xml:space="preserve" transform="matrix(1.078044 0 -0 1.078044 -69.46304 691.69528)" font-size="9.9626" font-family="RMTMI" font-style="italic"><tspan y="-216.702" x="390.825">v</tspan></text>
<text fill="#231f20" xml:space="preserve" transform="matrix(1.078044 0 -0 1.078044 -69.46304 691.69528)" font-size="7.5716" font-family="Times" font-style="italic"><tspan y="-215.208" x="396.081 399.79789 403.16648 406.9515">geom</tspan></text>
<text fill="#231f20" xml:space="preserve" transform="matrix(1.078044 0 -0 1.078044 -69.46304 691.69528)" font-size="9.9626" font-family="MTSYN"><tspan y="-216.702" x="418.896">=</tspan></text>
<text fill="#231f20" xml:space="preserve" transform="matrix(1.078044 0 -0 1.078044 -69.46304 691.69528)" font-size="9.9626" font-family="RMTMI" font-style="italic"><tspan y="-203.7506" x="68.01323">&#x03c0;</tspan></text>
<text fill="#231f20" xml:space="preserve" transform="matrix(1.078044 0 -0 1.078044 -69.46304 691.69528)" font-size="9.9626" font-family="RMTMI" font-style="italic"><tspan y="-203.7506" x="74.70909">(</tspan></text>
<text fill="#231f20" xml:space="preserve" transform="matrix(1.078044 0 -0 1.078044 -69.46304 691.69528)" font-size="9.9626" font-family="Times" font-style="italic"><tspan y="-203.7506" x="78.21493">r</tspan></text>
<text fill="#231f20" xml:space="preserve" transform="matrix(1.078044 0 -0 1.078044 -69.46304 691.69528)" font-size="7.5716" font-family="Times" font-style="italic"><tspan y="-202.257" x="82.728">L</tspan></text>
<text fill="#231f20" xml:space="preserve" transform="matrix(1.078044 0 -0 1.078044 -69.46304 691.69528)" font-size="9.9626" font-family="MTSYN"><tspan y="-203.7511" x="90.234">+</tspan></text>
<text fill="#231f20" xml:space="preserve" transform="matrix(1.078044 0 -0 1.078044 -69.46304 691.69528)" font-size="9.9626" font-family="Times" font-style="italic"><tspan y="-203.7511" x="100.0173">r</tspan></text>
<text fill="#231f20" xml:space="preserve" transform="matrix(1.078044 0 -0 1.078044 -69.46304 691.69528)" font-size="7.5716" font-family="Times" font-style="italic"><tspan y="-202.257" x="104.49">S</tspan></text>
<text fill="#231f20" xml:space="preserve" transform="matrix(1.078044 0 -0 1.078044 -69.46304 691.69528)" font-size="9.9626" font-family="RMTMI" font-style="italic"><tspan y="-203.7511" x="109.107">)</tspan></text>
<text fill="#231f20" xml:space="preserve" transform="matrix(1.078044 0 -0 1.078044 -69.46304 691.69528)" font-size="7.5716" font-family="Times"><tspan y="-207.36" x="112.824">2</tspan></text>
<text fill="#231f20" xml:space="preserve" transform="matrix(1.078044 0 -0 1.078044 -69.46304 691.69528)" font-size="9.9626" font-family="Times" font-style="italic"><tspan y="-203.7511" x="120.285">E</tspan></text>
<text fill="#231f20" xml:space="preserve" transform="matrix(1.078044 0 -0 1.078044 -69.46304 691.69528)" font-size="9.9626" font-family="RMTMI" font-style="italic"><tspan y="-203.6913" x="128.9325">(</tspan></text>
<text fill="#231f20" xml:space="preserve" transform="matrix(1.078044 0 -0 1.078044 -69.46304 691.69528)" font-size="9.9626" font-family="RMTMI" font-style="italic"><tspan y="-203.7511" x="132.6486">v</tspan></text>
<text fill="#231f20" xml:space="preserve" transform="matrix(1.078044 0 -0 1.078044 -69.46304 691.69528)" font-size="7.5716" font-family="Times" font-style="italic"><tspan y="-202.257" x="137.925">L</tspan></text>
<text fill="#231f20" xml:space="preserve" transform="matrix(1.078044 0 -0 1.078044 -69.46304 691.69528)" font-size="9.9626" font-family="MTSYN"><tspan y="-203.7511" x="145.431">&#x2212;</tspan></text>
<text fill="#231f20" xml:space="preserve" transform="matrix(1.078044 0 -0 1.078044 -69.46304 691.69528)" font-size="9.9626" font-family="RMTMI" font-style="italic"><tspan y="-203.7511" x="155.4235">v</tspan></text>
<text fill="#231f20" xml:space="preserve" transform="matrix(1.078044 0 -0 1.078044 -69.46304 691.69528)" font-size="7.5716" font-family="Times" font-style="italic"><tspan y="-202.257" x="160.659">S</tspan></text>
<text fill="#231f20" xml:space="preserve" transform="matrix(1.078044 0 -0 1.078044 -69.46304 691.69528)" font-size="9.9626" font-family="RMTMI" font-style="italic"><tspan y="-203.688" x="165.285">)</tspan></text>
<text fill="#231f20" xml:space="preserve" transform="matrix(1.078044 0 -0 1.078044 -69.46304 691.69528)" font-size="9.9626" font-family="Times"><tspan y="-203.7478" x="169.001">.</tspan></text>
<text fill="#231f20" xml:space="preserve" transform="matrix(1.078044 0 -0 1.078044 -69.46304 691.69528)" font-size="9.9626" font-family="Times"><tspan y="-190.7864" x="77.97277 84.05892 89.03922 96.78913 101.76943 105.08598 110.066287 115.046588 117.81519 122.237598 133.30506 140.49706 143.26566 146.03426 154.3321 158.49547 163.21674 167.63913 170.40773 175.38803 179.81043 182.57903 185.34763 190.32793 198.64569 201.41429 206.39459 214.13454 218.55693 223.53723 226.30583 229.07444 231.84304 235.71749 238.48609 243.46639 251.76424 256.18666 259.25416 264.79237 269.21476 271.98338 276.40577 281.38609 285.64909">Theproblemwithevaluatingthecollisionef&#xfb01;ciency</tspan></text>
<text fill="#231f20" xml:space="preserve" transform="matrix(1.078044 0 -0 1.078044 -69.46304 691.69528)" font-size="9.9626" font-family="Times" font-style="italic"><tspan y="-190.7864" x="294.6494">E</tspan></text>
<text fill="#231f20" xml:space="preserve" transform="matrix(1.078044 0 -0 1.078044 -69.46304 691.69528)" font-size="9.9626" font-family="Times"><tspan y="-190.7864" x="304.9507 307.71833 314.90934 319.88865 324.31007 327.07768 332.05699 340.35383 344.7752 349.75453 352.52214 360.27107 363.03868 371.32557 376.30488 380.72627 383.49388 387.91529 391.23085 398.97975 401.74736 406.72666 414.4756 417.2432 422.2225">isbeingabletodeterminethe</tspan></text>
<text fill="#231f20" xml:space="preserve" transform="matrix(1.078044 0 -0 1.078044 -69.46304 691.69528)" font-size="9.9626" font-family="Times"><tspan y="-177.8351" x="68.01017 72.98948 76.30503 80.72643 85.147838 87.91544 92.89475 102.28749 105.0551 108.37065 112.79205 115.55966 119.981067 124.402469 127.170078 132.14939 135.46494 144.83776 149.25916 154.23847 163.62125 168.60056 173.02196 178.00127 182.42267 191.2575 194.02512 199.00443 207.81934 210.58695 213.35456 221.10347 223.87108 226.63869 229.4063 234.3856 243.75843 246.52603 254.27495 259.25425 263.67567 268.09706 275.27809 280.2574 284.67878 287.99433 292.4157 300.1646 304.586 307.3536 311.77503">grazingtrajectoryandhencethelimitingimpactparameter</tspan></text>
<text fill="#231f20" xml:space="preserve" transform="matrix(1.078044 0 -0 1.078044 -69.46304 691.69528)" font-size="9.9626" font-family="Times" font-style="italic"><tspan y="-177.8351" x="320.1835">y</tspan></text>
<text fill="#231f20" xml:space="preserve" transform="matrix(1.078044 0 -0 1.078044 -69.46304 691.69528)" font-size="7.5716" font-family="Times" font-style="italic"><tspan y="-176.3461" x="324.522">c</tspan></text>
<text fill="#231f20" xml:space="preserve" transform="matrix(1.078044 0 -0 1.078044 -69.46304 691.69528)" font-size="9.9626" font-family="Times"><tspan y="-177.84" x="328.536 335.42814 341.5133 345.9347 349.25025 352.01786 356.99717 361.97648 370.2534 374.67478 382.42369 387.40299 390.1706 393.48616 396.25376 400.67515 405.09654 412.2676 416.689 421.6683">.Variousempiricaland</tspan></text>
<text fill="#231f20" xml:space="preserve" transform="matrix(1.078044 0 -0 1.078044 -69.46304 691.69528)" font-size="9.9626" font-family="Times"><tspan y="-164.8886" x="68.01401 70.78162 75.760929 80.18233 85.16164 88.47719 92.89859 95.6662 98.43381 102.85521 107.27661 113.36176 117.783168 122.762477 127.74178 131.05735 136.03665 140.45806 144.87946 149.85877 154.28017 161.49109 164.80664 169.78595 176.40909 180.83049 184.14604 187.4616 189.98014 194.95944 197.72705 202.70636 210.99326 215.41466 221.48986 224.25746 229.23677 236.9558 240.27135 245.25066 250.22997 254.65137 257.41899 260.18659 265.1659">theoreticalapproachesforarrivingatthefunction</tspan></text>
<text fill="#231f20" xml:space="preserve" transform="matrix(1.078044 0 -0 1.078044 -69.46304 691.69528)" font-size="9.9626" font-family="Times" font-style="italic"><tspan y="-164.8886" x="274.1502">E</tspan></text>
<text fill="#231f20" xml:space="preserve" transform="matrix(1.078044 0 -0 1.078044 -69.46304 691.69528)" font-size="9.9626" font-family="RMTMI" font-style="italic"><tspan y="-164.8288" x="282.7977">(</tspan></text>
<text fill="#231f20" xml:space="preserve" transform="matrix(1.078044 0 -0 1.078044 -69.46304 691.69528)" font-size="9.9626" font-family="Times" font-style="italic"><tspan y="-164.8886" x="286.3045">r</tspan></text>
<text fill="#231f20" xml:space="preserve" transform="matrix(1.078044 0 -0 1.078044 -69.46304 691.69528)" font-size="7.5716" font-family="Times" font-style="italic"><tspan y="-163.3951" x="290.817">L</tspan></text>
<text fill="#231f20" xml:space="preserve" transform="matrix(1.078044 0 -0 1.078044 -69.46304 691.69528)" font-size="9.9626" font-family="RMTMI" font-style="italic"><tspan y="-164.889" x="296.118">,</tspan></text>
<text fill="#231f20" xml:space="preserve" transform="matrix(1.078044 0 -0 1.078044 -69.46304 691.69528)" font-size="9.9626" font-family="Times" font-style="italic"><tspan y="-164.889" x="300.8602">r</tspan></text>
<text fill="#231f20" xml:space="preserve" transform="matrix(1.078044 0 -0 1.078044 -69.46304 691.69528)" font-size="7.5716" font-family="Times" font-style="italic"><tspan y="-163.3951" x="305.334">S</tspan></text>
<text fill="#231f20" xml:space="preserve" transform="matrix(1.078044 0 -0 1.078044 -69.46304 691.69528)" font-size="9.9626" font-family="RMTMI" font-style="italic"><tspan y="-164.826" x="309.96">)</tspan></text>
<text fill="#231f20" xml:space="preserve" transform="matrix(1.078044 0 -0 1.078044 -69.46304 691.69528)" font-size="9.9626" font-family="Times"><tspan y="-164.8858" x="316.9836 321.9619 326.18309 331.00199 338.73994 343.71824 348.13865 352.55906 360.84495 365.26536 368.03196 370.79856 375.21897 382.9669 387.9452 390.7118 395.1322 403.42805 406.19465 414.47056 417.23716 422.21546">havebeenattemptedinthe</tspan></text>
<text fill="#231f20" xml:space="preserve" transform="matrix(1.078044 0 -0 1.078044 -69.46304 691.69528)" font-size="9.9626" font-family="Times"><tspan y="-151.9344" x="68.01826 72.99856 77.42096 81.29542 86.943218 94.135219 96.903827 99.67243 107.53192 110.84847 115.270877 119.693279 123.56773 128.54804 133.52834 137.95073 142.93103 145.69963 153.02115 156.8956 161.8759 166.2983 170.72069 175.14308 179.01753 182.89199 188.26084 198.33203 203.31233 206.62888 211.05127 216.03157 221.01187 223.78047 228.20287 232.62526 238.28302 243.26332 246.03192 249.90637 254.88668 257.65528 262.07768 269.94715 274.92747 281.1232 284.43977 288.86216 293.84248 297.15904 301.58143 305.45588 309.87828 314.85859 317.6272 322.0496 324.8182 327.33778 332.1587 339.4802 342.79676 347.21916 351.0936 356.0739 358.84254 361.61116 368.36479 371.1334 377.88703 382.86735 386.1839 390.6063 394.48075 398.90315 403.88346 406.65208 411.07447 418.9539 421.7225">pastwithreasonablesuccess.Agraphicaldisplayofrepresentativeresultsispresentedin</tspan></text>
<text fill="#231f20" xml:space="preserve" transform="matrix(1.078044 0 -0 1.078044 -69.46304 691.69528)" font-size="9.9626" font-family="Times"><tspan y="-138.983" x="68.01826 73.554477 76.32109 81.2994">Fig.</tspan></text>
<text fill="#3f7d7d" xml:space="preserve" transform="matrix(1.078044 0 -0 1.078044 -69.46304 691.69528)" font-size="9.9626" font-family="Times"><tspan y="-138.983" x="87.59477 92.57308 95.060749 100.039058">9.12</tspan></text>
<text fill="#231f20" xml:space="preserve" transform="matrix(1.078044 0 -0 1.078044 -69.46304 691.69528)" font-size="9.9626" font-family="Times"><tspan y="-138.983" x="108.8251 113.246509 120.91572 129.13288 132.35877 136.78017 144.52909 147.29669 150.0643 158.83936 163.81867 170.92996 175.35137 180.33068 185.30998 189.18344 191.95105 196.37245 201.35176 204.11937">asafamilyofconstant-</tspan></text>
<text fill="#231f20" xml:space="preserve" transform="matrix(1.078044 0 -0 1.078044 -69.46304 691.69528)" font-size="9.9626" font-family="Times" font-style="italic"><tspan y="-138.983" x="207.2356">r</tspan></text>
<text fill="#231f20" xml:space="preserve" transform="matrix(1.078044 0 -0 1.078044 -69.46304 691.69528)" font-size="7.5716" font-family="Times" font-style="italic"><tspan y="-137.493" x="211.734">L</tspan></text>
<text fill="#231f20" xml:space="preserve" transform="matrix(1.078044 0 -0 1.078044 -69.46304 691.69528)" font-size="9.9626" font-family="Times"><tspan y="-138.9871" x="220.833 225.25539 230.23569 233.55223 238.37313 242.79552 246.66997 252.96533 258.50355 262.6669 267.48783 271.91023 275.22679 279.64918 286.23347 289.55003 293.9724 298.3948 301.16343 306.14375 309.4603 313.8827 321.56288 326.54319 333.6555 336.4241 341.40443 345.8268 349.70127 357.9194 362.3418 367.3221 370.63868 375.4596 379.882 387.5721 391.9945 395.31108 403.5292 410.62156 415.60188 418.91844 421.68705">curves.Severalfeaturesofthesecurvesareworth</tspan></text>
<text fill="#231f20" xml:space="preserve" transform="matrix(1.078044 0 -0 1.078044 -69.46304 691.69528)" font-size="9.9626" font-family="Times"><tspan y="-126.0357" x="68.01668 72.99599 77.975299 80.742908 83.51051 88.48982 93.46913 99.673839 105.21105 109.632457 112.948009 117.927318 122.34872 127.328029 134.9275 137.69512 142.67443 150.81188 158.56079 163.5401 167.41356 173.88726 178.86656 183.84587 186.61348 191.03488 196.01419 198.7818 206.92922 210.24477 214.66617 219.08757 221.85518 226.83449 230.15004 238.27753 243.25684 250.28844 254.70984 259.52976 268.22514 272.64656 277.62586 280.39347 283.16108 285.92869 289.80216 292.56977 297.54908 306.24446 310.66584 313.73234 319.26954 323.69093 326.45854 330.87995 335.85926 340.12126 348.83653 352.15208 357.13139 362.1107 366.5321 369.2997 372.06733 377.04664 385.742 388.5096 396.08918 398.85679 403.8361 411.9636 414.7312 419.45149">noting.Perhapsthemostnotablefeatureofanycollisionef&#xfb01;ciencyfunctionisthelow</tspan></text>
<text fill="#231f20" xml:space="preserve" transform="matrix(1.078044 0 -0 1.078044 -69.46304 691.69528)" font-size="9.9626" font-family="Times"><tspan y="-113.0843" x="68.01668 72.745929 77.16633 79.93294 84.91125 89.33165 96.103229 101.081539">valuesof</tspan></text>
<text fill="#231f20" xml:space="preserve" transform="matrix(1.078044 0 -0 1.078044 -69.46304 691.69528)" font-size="9.9626" font-family="Times" font-style="italic"><tspan y="-113.0843" x="107.9368">E</tspan></text>
<text fill="#231f20" xml:space="preserve" transform="matrix(1.078044 0 -0 1.078044 -69.46304 691.69528)" font-size="9.9626" font-family="Times"><tspan y="-113.0843" x="117.7998 121.11535 126.09466 132.27945 136.16287 143.91179 148.33319 151.1008 153.86841 157.18396 162.16327 165.47882 170.45813 178.30667 181.62223 186.04363 191.02294 193.79055 199.43735 204.41666 208.83806 211.60567 216.32595 226.40612 230.82752 235.80683 240.78614 245.76544 251.41225">forsmall-dropradiibelowabout5</tspan></text>
<text fill="#231f20" xml:space="preserve" transform="matrix(1.078044 0 -0 1.078044 -69.46304 691.69528)" font-size="9.9626" font-family="MTGU"><tspan y="-113.0843" x="258.0533">&#x00b5;</tspan></text>
<text fill="#231f20" xml:space="preserve" transform="matrix(1.078044 0 -0 1.078044 -69.46304 691.69528)" font-size="9.9626" font-family="Times"><tspan y="-113.0843" x="264.8478 272.59873 277.95863 281.27616 285.54017 290.46168 294.88508 298.2026 303.1839 305.9535 310.3769 314.25236 321.007 325.98829 332.17506 334.94465 339.92594 347.21858 351.09403 353.86363 358.28703 365.57966 370.56095 376.7477 379.5173 384.4986 391.80119 396.22459 401.20588 403.97547 406.74507 411.16847 415.59187 418.36146 423.34275">m,regardlessofthesizeofthecollector</tspan></text>
<text fill="#231f20" xml:space="preserve" transform="matrix(1.078044 0 -0 1.078044 -69.46304 691.69528)" font-size="9.9626" font-family="Times"><tspan y="-100.133" x="68.00672 72.98603 76.30158 81.28089 86.2602 92.17599 98.26115 103.240459 111.07903 115.500438 120.479747 123.24735 126.01496 128.78258 132.65604 135.42365 140.40296 148.79944 153.22084 156.28733 161.82454 166.24594 169.01355 173.43495 178.41426 182.67626 191.09267 196.07198 200.23435 205.05425 209.47565 216.2283 220.6497 225.62902 230.60832 235.02973 237.79734 245.1079 249.5293 253.9507 257.26628 262.24559 268.1514 272.93147 277.91078 284.1055 287.42106 292.40037 299.1331 304.1124 307.42796 311.84938 316.27076 319.03837 321.80598 326.22737 330.64875 336.84349 341.82279 346.8021 350.11766 355.09696 360.07627 363.94975 368.37117 375.67176 383.50035 387.38377 395.13267 399.55409 402.3217 405.0893 408.40486 413.38417 416.6997 421.67903">drop.Thecollisionef&#xfb01;ciencyneverequalszero,butforpracticalpurposesasmall-drop</tspan></text>
</g>
</svg>
