<?xml version="1.0" encoding="utf-8" standalone="no"?>
<!DOCTYPE svg PUBLIC "-//W3C//DTD SVG 1.1//EN"
  "http://www.w3.org/Graphics/SVG/1.1/DTD/svg11.dtd">
<svg xmlns:xlink="http://www.w3.org/1999/xlink" width="449.221125pt" height="334.28425pt" viewBox="0 0 449.221125 334.28425" xmlns="http://www.w3.org/2000/svg" version="1.1">
 <metadata>
  <rdf:RDF xmlns:dc="http://purl.org/dc/elements/1.1/" xmlns:cc="http://creativecommons.org/ns#" xmlns:rdf="http://www.w3.org/1999/02/22-rdf-syntax-ns#">
   <cc:Work>
    <dc:type rdf:resource="http://purl.org/dc/dcmitype/StillImage"/>
    <dc:date>2024-11-07T12:37:21.637068</dc:date>
    <dc:format>image/svg+xml</dc:format>
    <dc:creator>
     <cc:Agent>
      <dc:title>Matplotlib v3.9.2, https://matplotlib.org/</dc:title>
     </cc:Agent>
    </dc:creator>
   </cc:Work>
  </rdf:RDF>
 </metadata>
 <defs>
  <style type="text/css">*{stroke-linejoin: round; stroke-linecap: butt}</style>
 </defs>
 <g id="figure_1">
  <g id="patch_1">
   <path d="M 0 334.28425 
L 449.221125 334.28425 
L 449.221125 0 
L 0 0 
z
" style="fill: #ffffff"/>
  </g>
  <g id="axes_1">
   <g id="patch_2">
    <path d="M 45.303125 296.728 
L 442.021125 296.728 
L 442.021125 7.2 
L 45.303125 7.2 
z
" style="fill: #ffffff"/>
   </g>
   <g id="matplotlib.axis_1">
    <g id="xtick_1">
     <g id="line2d_1">
      <path d="M 62.619887 296.728 
L 62.619887 7.2 
" clip-path="url(#p6acc94eb8f)" style="fill: none; stroke: #b0b0b0; stroke-width: 0.8; stroke-linecap: square"/>
     </g>
     <g id="line2d_2">
      <defs>
       <path id="m68ed77a6a7" d="M 0 0 
L 0 3.5 
" style="stroke: #000000; stroke-width: 0.8"/>
      </defs>
      <g>
       <use xlink:href="#m68ed77a6a7" x="62.619887" y="296.728" style="stroke: #000000; stroke-width: 0.8"/>
      </g>
     </g>
     <g id="text_1">
      <!-- $\mathdefault{10^{1}}$ -->
      <g transform="translate(53.819887 311.326437) scale(0.1 -0.1)">
       <defs>
        <path id="DejaVuSans-31" d="M 794 531 
L 1825 531 
L 1825 4091 
L 703 3866 
L 703 4441 
L 1819 4666 
L 2450 4666 
L 2450 531 
L 3481 531 
L 3481 0 
L 794 0 
L 794 531 
z
" transform="scale(0.015625)"/>
        <path id="DejaVuSans-30" d="M 2034 4250 
Q 1547 4250 1301 3770 
Q 1056 3291 1056 2328 
Q 1056 1369 1301 889 
Q 1547 409 2034 409 
Q 2525 409 2770 889 
Q 3016 1369 3016 2328 
Q 3016 3291 2770 3770 
Q 2525 4250 2034 4250 
z
M 2034 4750 
Q 2819 4750 3233 4129 
Q 3647 3509 3647 2328 
Q 3647 1150 3233 529 
Q 2819 -91 2034 -91 
Q 1250 -91 836 529 
Q 422 1150 422 2328 
Q 422 3509 836 4129 
Q 1250 4750 2034 4750 
z
" transform="scale(0.015625)"/>
       </defs>
       <use xlink:href="#DejaVuSans-31" transform="translate(0 0.684375)"/>
       <use xlink:href="#DejaVuSans-30" transform="translate(63.623047 0.684375)"/>
       <use xlink:href="#DejaVuSans-31" transform="translate(128.203125 38.965625) scale(0.7)"/>
      </g>
     </g>
    </g>
    <g id="xtick_2">
     <g id="line2d_3">
      <path d="M 160.504601 296.728 
L 160.504601 7.2 
" clip-path="url(#p6acc94eb8f)" style="fill: none; stroke: #b0b0b0; stroke-width: 0.8; stroke-linecap: square"/>
     </g>
     <g id="line2d_4">
      <g>
       <use xlink:href="#m68ed77a6a7" x="160.504601" y="296.728" style="stroke: #000000; stroke-width: 0.8"/>
      </g>
     </g>
     <g id="text_2">
      <!-- $\mathdefault{10^{2}}$ -->
      <g transform="translate(151.704601 311.326437) scale(0.1 -0.1)">
       <defs>
        <path id="DejaVuSans-32" d="M 1228 531 
L 3431 531 
L 3431 0 
L 469 0 
L 469 531 
Q 828 903 1448 1529 
Q 2069 2156 2228 2338 
Q 2531 2678 2651 2914 
Q 2772 3150 2772 3378 
Q 2772 3750 2511 3984 
Q 2250 4219 1831 4219 
Q 1534 4219 1204 4116 
Q 875 4013 500 3803 
L 500 4441 
Q 881 4594 1212 4672 
Q 1544 4750 1819 4750 
Q 2544 4750 2975 4387 
Q 3406 4025 3406 3419 
Q 3406 3131 3298 2873 
Q 3191 2616 2906 2266 
Q 2828 2175 2409 1742 
Q 1991 1309 1228 531 
z
" transform="scale(0.015625)"/>
       </defs>
       <use xlink:href="#DejaVuSans-31" transform="translate(0 0.765625)"/>
       <use xlink:href="#DejaVuSans-30" transform="translate(63.623047 0.765625)"/>
       <use xlink:href="#DejaVuSans-32" transform="translate(128.203125 39.046875) scale(0.7)"/>
      </g>
     </g>
    </g>
    <g id="xtick_3">
     <g id="line2d_5">
      <path d="M 258.389315 296.728 
L 258.389315 7.2 
" clip-path="url(#p6acc94eb8f)" style="fill: none; stroke: #b0b0b0; stroke-width: 0.8; stroke-linecap: square"/>
     </g>
     <g id="line2d_6">
      <g>
       <use xlink:href="#m68ed77a6a7" x="258.389315" y="296.728" style="stroke: #000000; stroke-width: 0.8"/>
      </g>
     </g>
     <g id="text_3">
      <!-- $\mathdefault{10^{3}}$ -->
      <g transform="translate(249.589315 311.326437) scale(0.1 -0.1)">
       <defs>
        <path id="DejaVuSans-33" d="M 2597 2516 
Q 3050 2419 3304 2112 
Q 3559 1806 3559 1356 
Q 3559 666 3084 287 
Q 2609 -91 1734 -91 
Q 1441 -91 1130 -33 
Q 819 25 488 141 
L 488 750 
Q 750 597 1062 519 
Q 1375 441 1716 441 
Q 2309 441 2620 675 
Q 2931 909 2931 1356 
Q 2931 1769 2642 2001 
Q 2353 2234 1838 2234 
L 1294 2234 
L 1294 2753 
L 1863 2753 
Q 2328 2753 2575 2939 
Q 2822 3125 2822 3475 
Q 2822 3834 2567 4026 
Q 2313 4219 1838 4219 
Q 1578 4219 1281 4162 
Q 984 4106 628 3988 
L 628 4550 
Q 988 4650 1302 4700 
Q 1616 4750 1894 4750 
Q 2613 4750 3031 4423 
Q 3450 4097 3450 3541 
Q 3450 3153 3228 2886 
Q 3006 2619 2597 2516 
z
" transform="scale(0.015625)"/>
       </defs>
       <use xlink:href="#DejaVuSans-31" transform="translate(0 0.765625)"/>
       <use xlink:href="#DejaVuSans-30" transform="translate(63.623047 0.765625)"/>
       <use xlink:href="#DejaVuSans-33" transform="translate(128.203125 39.046875) scale(0.7)"/>
      </g>
     </g>
    </g>
    <g id="xtick_4">
     <g id="line2d_7">
      <path d="M 356.274028 296.728 
L 356.274028 7.2 
" clip-path="url(#p6acc94eb8f)" style="fill: none; stroke: #b0b0b0; stroke-width: 0.8; stroke-linecap: square"/>
     </g>
     <g id="line2d_8">
      <g>
       <use xlink:href="#m68ed77a6a7" x="356.274028" y="296.728" style="stroke: #000000; stroke-width: 0.8"/>
      </g>
     </g>
     <g id="text_4">
      <!-- $\mathdefault{10^{4}}$ -->
      <g transform="translate(347.474028 311.326437) scale(0.1 -0.1)">
       <defs>
        <path id="DejaVuSans-34" d="M 2419 4116 
L 825 1625 
L 2419 1625 
L 2419 4116 
z
M 2253 4666 
L 3047 4666 
L 3047 1625 
L 3713 1625 
L 3713 1100 
L 3047 1100 
L 3047 0 
L 2419 0 
L 2419 1100 
L 313 1100 
L 313 1709 
L 2253 4666 
z
" transform="scale(0.015625)"/>
       </defs>
       <use xlink:href="#DejaVuSans-31" transform="translate(0 0.684375)"/>
       <use xlink:href="#DejaVuSans-30" transform="translate(63.623047 0.684375)"/>
       <use xlink:href="#DejaVuSans-34" transform="translate(128.203125 38.965625) scale(0.7)"/>
      </g>
     </g>
    </g>
    <g id="xtick_5">
     <g id="line2d_9">
      <defs>
       <path id="med1b681ec8" d="M 0 0 
L 0 2 
" style="stroke: #000000; stroke-width: 0.6"/>
      </defs>
      <g>
       <use xlink:href="#med1b681ec8" x="47.457353" y="296.728" style="stroke: #000000; stroke-width: 0.6"/>
      </g>
     </g>
    </g>
    <g id="xtick_6">
     <g id="line2d_10">
      <g>
       <use xlink:href="#med1b681ec8" x="53.133878" y="296.728" style="stroke: #000000; stroke-width: 0.6"/>
      </g>
     </g>
    </g>
    <g id="xtick_7">
     <g id="line2d_11">
      <g>
       <use xlink:href="#med1b681ec8" x="58.140928" y="296.728" style="stroke: #000000; stroke-width: 0.6"/>
      </g>
     </g>
    </g>
    <g id="xtick_8">
     <g id="line2d_12">
      <g>
       <use xlink:href="#med1b681ec8" x="92.086122" y="296.728" style="stroke: #000000; stroke-width: 0.6"/>
      </g>
     </g>
    </g>
    <g id="xtick_9">
     <g id="line2d_13">
      <g>
       <use xlink:href="#med1b681ec8" x="109.322765" y="296.728" style="stroke: #000000; stroke-width: 0.6"/>
      </g>
     </g>
    </g>
    <g id="xtick_10">
     <g id="line2d_14">
      <g>
       <use xlink:href="#med1b681ec8" x="121.552357" y="296.728" style="stroke: #000000; stroke-width: 0.6"/>
      </g>
     </g>
    </g>
    <g id="xtick_11">
     <g id="line2d_15">
      <g>
       <use xlink:href="#med1b681ec8" x="131.038366" y="296.728" style="stroke: #000000; stroke-width: 0.6"/>
      </g>
     </g>
    </g>
    <g id="xtick_12">
     <g id="line2d_16">
      <g>
       <use xlink:href="#med1b681ec8" x="138.789" y="296.728" style="stroke: #000000; stroke-width: 0.6"/>
      </g>
     </g>
    </g>
    <g id="xtick_13">
     <g id="line2d_17">
      <g>
       <use xlink:href="#med1b681ec8" x="145.342067" y="296.728" style="stroke: #000000; stroke-width: 0.6"/>
      </g>
     </g>
    </g>
    <g id="xtick_14">
     <g id="line2d_18">
      <g>
       <use xlink:href="#med1b681ec8" x="151.018592" y="296.728" style="stroke: #000000; stroke-width: 0.6"/>
      </g>
     </g>
    </g>
    <g id="xtick_15">
     <g id="line2d_19">
      <g>
       <use xlink:href="#med1b681ec8" x="156.025642" y="296.728" style="stroke: #000000; stroke-width: 0.6"/>
      </g>
     </g>
    </g>
    <g id="xtick_16">
     <g id="line2d_20">
      <g>
       <use xlink:href="#med1b681ec8" x="189.970836" y="296.728" style="stroke: #000000; stroke-width: 0.6"/>
      </g>
     </g>
    </g>
    <g id="xtick_17">
     <g id="line2d_21">
      <g>
       <use xlink:href="#med1b681ec8" x="207.207478" y="296.728" style="stroke: #000000; stroke-width: 0.6"/>
      </g>
     </g>
    </g>
    <g id="xtick_18">
     <g id="line2d_22">
      <g>
       <use xlink:href="#med1b681ec8" x="219.437071" y="296.728" style="stroke: #000000; stroke-width: 0.6"/>
      </g>
     </g>
    </g>
    <g id="xtick_19">
     <g id="line2d_23">
      <g>
       <use xlink:href="#med1b681ec8" x="228.92308" y="296.728" style="stroke: #000000; stroke-width: 0.6"/>
      </g>
     </g>
    </g>
    <g id="xtick_20">
     <g id="line2d_24">
      <g>
       <use xlink:href="#med1b681ec8" x="236.673713" y="296.728" style="stroke: #000000; stroke-width: 0.6"/>
      </g>
     </g>
    </g>
    <g id="xtick_21">
     <g id="line2d_25">
      <g>
       <use xlink:href="#med1b681ec8" x="243.226781" y="296.728" style="stroke: #000000; stroke-width: 0.6"/>
      </g>
     </g>
    </g>
    <g id="xtick_22">
     <g id="line2d_26">
      <g>
       <use xlink:href="#med1b681ec8" x="248.903306" y="296.728" style="stroke: #000000; stroke-width: 0.6"/>
      </g>
     </g>
    </g>
    <g id="xtick_23">
     <g id="line2d_27">
      <g>
       <use xlink:href="#med1b681ec8" x="253.910356" y="296.728" style="stroke: #000000; stroke-width: 0.6"/>
      </g>
     </g>
    </g>
    <g id="xtick_24">
     <g id="line2d_28">
      <g>
       <use xlink:href="#med1b681ec8" x="287.85555" y="296.728" style="stroke: #000000; stroke-width: 0.6"/>
      </g>
     </g>
    </g>
    <g id="xtick_25">
     <g id="line2d_29">
      <g>
       <use xlink:href="#med1b681ec8" x="305.092192" y="296.728" style="stroke: #000000; stroke-width: 0.6"/>
      </g>
     </g>
    </g>
    <g id="xtick_26">
     <g id="line2d_30">
      <g>
       <use xlink:href="#med1b681ec8" x="317.321784" y="296.728" style="stroke: #000000; stroke-width: 0.6"/>
      </g>
     </g>
    </g>
    <g id="xtick_27">
     <g id="line2d_31">
      <g>
       <use xlink:href="#med1b681ec8" x="326.807793" y="296.728" style="stroke: #000000; stroke-width: 0.6"/>
      </g>
     </g>
    </g>
    <g id="xtick_28">
     <g id="line2d_32">
      <g>
       <use xlink:href="#med1b681ec8" x="334.558427" y="296.728" style="stroke: #000000; stroke-width: 0.6"/>
      </g>
     </g>
    </g>
    <g id="xtick_29">
     <g id="line2d_33">
      <g>
       <use xlink:href="#med1b681ec8" x="341.111494" y="296.728" style="stroke: #000000; stroke-width: 0.6"/>
      </g>
     </g>
    </g>
    <g id="xtick_30">
     <g id="line2d_34">
      <g>
       <use xlink:href="#med1b681ec8" x="346.788019" y="296.728" style="stroke: #000000; stroke-width: 0.6"/>
      </g>
     </g>
    </g>
    <g id="xtick_31">
     <g id="line2d_35">
      <g>
       <use xlink:href="#med1b681ec8" x="351.795069" y="296.728" style="stroke: #000000; stroke-width: 0.6"/>
      </g>
     </g>
    </g>
    <g id="xtick_32">
     <g id="line2d_36">
      <g>
       <use xlink:href="#med1b681ec8" x="385.740263" y="296.728" style="stroke: #000000; stroke-width: 0.6"/>
      </g>
     </g>
    </g>
    <g id="xtick_33">
     <g id="line2d_37">
      <g>
       <use xlink:href="#med1b681ec8" x="402.976906" y="296.728" style="stroke: #000000; stroke-width: 0.6"/>
      </g>
     </g>
    </g>
    <g id="xtick_34">
     <g id="line2d_38">
      <g>
       <use xlink:href="#med1b681ec8" x="415.206498" y="296.728" style="stroke: #000000; stroke-width: 0.6"/>
      </g>
     </g>
    </g>
    <g id="xtick_35">
     <g id="line2d_39">
      <g>
       <use xlink:href="#med1b681ec8" x="424.692507" y="296.728" style="stroke: #000000; stroke-width: 0.6"/>
      </g>
     </g>
    </g>
    <g id="xtick_36">
     <g id="line2d_40">
      <g>
       <use xlink:href="#med1b681ec8" x="432.443141" y="296.728" style="stroke: #000000; stroke-width: 0.6"/>
      </g>
     </g>
    </g>
    <g id="xtick_37">
     <g id="line2d_41">
      <g>
       <use xlink:href="#med1b681ec8" x="438.996208" y="296.728" style="stroke: #000000; stroke-width: 0.6"/>
      </g>
     </g>
    </g>
    <g id="text_5">
     <!-- particle radius [µm] -->
     <g transform="translate(194.216813 325.004562) scale(0.1 -0.1)">
      <defs>
       <path id="DejaVuSans-70" d="M 1159 525 
L 1159 -1331 
L 581 -1331 
L 581 3500 
L 1159 3500 
L 1159 2969 
Q 1341 3281 1617 3432 
Q 1894 3584 2278 3584 
Q 2916 3584 3314 3078 
Q 3713 2572 3713 1747 
Q 3713 922 3314 415 
Q 2916 -91 2278 -91 
Q 1894 -91 1617 61 
Q 1341 213 1159 525 
z
M 3116 1747 
Q 3116 2381 2855 2742 
Q 2594 3103 2138 3103 
Q 1681 3103 1420 2742 
Q 1159 2381 1159 1747 
Q 1159 1113 1420 752 
Q 1681 391 2138 391 
Q 2594 391 2855 752 
Q 3116 1113 3116 1747 
z
" transform="scale(0.015625)"/>
       <path id="DejaVuSans-61" d="M 2194 1759 
Q 1497 1759 1228 1600 
Q 959 1441 959 1056 
Q 959 750 1161 570 
Q 1363 391 1709 391 
Q 2188 391 2477 730 
Q 2766 1069 2766 1631 
L 2766 1759 
L 2194 1759 
z
M 3341 1997 
L 3341 0 
L 2766 0 
L 2766 531 
Q 2569 213 2275 61 
Q 1981 -91 1556 -91 
Q 1019 -91 701 211 
Q 384 513 384 1019 
Q 384 1609 779 1909 
Q 1175 2209 1959 2209 
L 2766 2209 
L 2766 2266 
Q 2766 2663 2505 2880 
Q 2244 3097 1772 3097 
Q 1472 3097 1187 3025 
Q 903 2953 641 2809 
L 641 3341 
Q 956 3463 1253 3523 
Q 1550 3584 1831 3584 
Q 2591 3584 2966 3190 
Q 3341 2797 3341 1997 
z
" transform="scale(0.015625)"/>
       <path id="DejaVuSans-72" d="M 2631 2963 
Q 2534 3019 2420 3045 
Q 2306 3072 2169 3072 
Q 1681 3072 1420 2755 
Q 1159 2438 1159 1844 
L 1159 0 
L 581 0 
L 581 3500 
L 1159 3500 
L 1159 2956 
Q 1341 3275 1631 3429 
Q 1922 3584 2338 3584 
Q 2397 3584 2469 3576 
Q 2541 3569 2628 3553 
L 2631 2963 
z
" transform="scale(0.015625)"/>
       <path id="DejaVuSans-74" d="M 1172 4494 
L 1172 3500 
L 2356 3500 
L 2356 3053 
L 1172 3053 
L 1172 1153 
Q 1172 725 1289 603 
Q 1406 481 1766 481 
L 2356 481 
L 2356 0 
L 1766 0 
Q 1100 0 847 248 
Q 594 497 594 1153 
L 594 3053 
L 172 3053 
L 172 3500 
L 594 3500 
L 594 4494 
L 1172 4494 
z
" transform="scale(0.015625)"/>
       <path id="DejaVuSans-69" d="M 603 3500 
L 1178 3500 
L 1178 0 
L 603 0 
L 603 3500 
z
M 603 4863 
L 1178 4863 
L 1178 4134 
L 603 4134 
L 603 4863 
z
" transform="scale(0.015625)"/>
       <path id="DejaVuSans-63" d="M 3122 3366 
L 3122 2828 
Q 2878 2963 2633 3030 
Q 2388 3097 2138 3097 
Q 1578 3097 1268 2742 
Q 959 2388 959 1747 
Q 959 1106 1268 751 
Q 1578 397 2138 397 
Q 2388 397 2633 464 
Q 2878 531 3122 666 
L 3122 134 
Q 2881 22 2623 -34 
Q 2366 -91 2075 -91 
Q 1284 -91 818 406 
Q 353 903 353 1747 
Q 353 2603 823 3093 
Q 1294 3584 2113 3584 
Q 2378 3584 2631 3529 
Q 2884 3475 3122 3366 
z
" transform="scale(0.015625)"/>
       <path id="DejaVuSans-6c" d="M 603 4863 
L 1178 4863 
L 1178 0 
L 603 0 
L 603 4863 
z
" transform="scale(0.015625)"/>
       <path id="DejaVuSans-65" d="M 3597 1894 
L 3597 1613 
L 953 1613 
Q 991 1019 1311 708 
Q 1631 397 2203 397 
Q 2534 397 2845 478 
Q 3156 559 3463 722 
L 3463 178 
Q 3153 47 2828 -22 
Q 2503 -91 2169 -91 
Q 1331 -91 842 396 
Q 353 884 353 1716 
Q 353 2575 817 3079 
Q 1281 3584 2069 3584 
Q 2775 3584 3186 3129 
Q 3597 2675 3597 1894 
z
M 3022 2063 
Q 3016 2534 2758 2815 
Q 2500 3097 2075 3097 
Q 1594 3097 1305 2825 
Q 1016 2553 972 2059 
L 3022 2063 
z
" transform="scale(0.015625)"/>
       <path id="DejaVuSans-20" transform="scale(0.015625)"/>
       <path id="DejaVuSans-64" d="M 2906 2969 
L 2906 4863 
L 3481 4863 
L 3481 0 
L 2906 0 
L 2906 525 
Q 2725 213 2448 61 
Q 2172 -91 1784 -91 
Q 1150 -91 751 415 
Q 353 922 353 1747 
Q 353 2572 751 3078 
Q 1150 3584 1784 3584 
Q 2172 3584 2448 3432 
Q 2725 3281 2906 2969 
z
M 947 1747 
Q 947 1113 1208 752 
Q 1469 391 1925 391 
Q 2381 391 2643 752 
Q 2906 1113 2906 1747 
Q 2906 2381 2643 2742 
Q 2381 3103 1925 3103 
Q 1469 3103 1208 2742 
Q 947 2381 947 1747 
z
" transform="scale(0.015625)"/>
       <path id="DejaVuSans-75" d="M 544 1381 
L 544 3500 
L 1119 3500 
L 1119 1403 
Q 1119 906 1312 657 
Q 1506 409 1894 409 
Q 2359 409 2629 706 
Q 2900 1003 2900 1516 
L 2900 3500 
L 3475 3500 
L 3475 0 
L 2900 0 
L 2900 538 
Q 2691 219 2414 64 
Q 2138 -91 1772 -91 
Q 1169 -91 856 284 
Q 544 659 544 1381 
z
M 1991 3584 
L 1991 3584 
z
" transform="scale(0.015625)"/>
       <path id="DejaVuSans-73" d="M 2834 3397 
L 2834 2853 
Q 2591 2978 2328 3040 
Q 2066 3103 1784 3103 
Q 1356 3103 1142 2972 
Q 928 2841 928 2578 
Q 928 2378 1081 2264 
Q 1234 2150 1697 2047 
L 1894 2003 
Q 2506 1872 2764 1633 
Q 3022 1394 3022 966 
Q 3022 478 2636 193 
Q 2250 -91 1575 -91 
Q 1294 -91 989 -36 
Q 684 19 347 128 
L 347 722 
Q 666 556 975 473 
Q 1284 391 1588 391 
Q 1994 391 2212 530 
Q 2431 669 2431 922 
Q 2431 1156 2273 1281 
Q 2116 1406 1581 1522 
L 1381 1569 
Q 847 1681 609 1914 
Q 372 2147 372 2553 
Q 372 3047 722 3315 
Q 1072 3584 1716 3584 
Q 2034 3584 2315 3537 
Q 2597 3491 2834 3397 
z
" transform="scale(0.015625)"/>
       <path id="DejaVuSans-5b" d="M 550 4863 
L 1875 4863 
L 1875 4416 
L 1125 4416 
L 1125 -397 
L 1875 -397 
L 1875 -844 
L 550 -844 
L 550 4863 
z
" transform="scale(0.015625)"/>
       <path id="DejaVuSans-b5" d="M 544 -1331 
L 544 3500 
L 1119 3500 
L 1119 1325 
Q 1119 872 1334 640 
Q 1550 409 1972 409 
Q 2434 409 2667 671 
Q 2900 934 2900 1459 
L 2900 3500 
L 3475 3500 
L 3475 806 
Q 3475 619 3529 530 
Q 3584 441 3700 441 
Q 3728 441 3778 458 
Q 3828 475 3916 513 
L 3916 50 
Q 3788 -22 3673 -56 
Q 3559 -91 3450 -91 
Q 3234 -91 3106 31 
Q 2978 153 2931 403 
Q 2775 156 2548 32 
Q 2322 -91 2016 -91 
Q 1697 -91 1473 31 
Q 1250 153 1119 397 
L 1119 -1331 
L 544 -1331 
z
" transform="scale(0.015625)"/>
       <path id="DejaVuSans-6d" d="M 3328 2828 
Q 3544 3216 3844 3400 
Q 4144 3584 4550 3584 
Q 5097 3584 5394 3201 
Q 5691 2819 5691 2113 
L 5691 0 
L 5113 0 
L 5113 2094 
Q 5113 2597 4934 2840 
Q 4756 3084 4391 3084 
Q 3944 3084 3684 2787 
Q 3425 2491 3425 1978 
L 3425 0 
L 2847 0 
L 2847 2094 
Q 2847 2600 2669 2842 
Q 2491 3084 2119 3084 
Q 1678 3084 1418 2786 
Q 1159 2488 1159 1978 
L 1159 0 
L 581 0 
L 581 3500 
L 1159 3500 
L 1159 2956 
Q 1356 3278 1631 3431 
Q 1906 3584 2284 3584 
Q 2666 3584 2933 3390 
Q 3200 3197 3328 2828 
z
" transform="scale(0.015625)"/>
       <path id="DejaVuSans-5d" d="M 1947 4863 
L 1947 -844 
L 622 -844 
L 622 -397 
L 1369 -397 
L 1369 4416 
L 622 4416 
L 622 4863 
L 1947 4863 
z
" transform="scale(0.015625)"/>
      </defs>
      <use xlink:href="#DejaVuSans-70"/>
      <use xlink:href="#DejaVuSans-61" x="63.476562"/>
      <use xlink:href="#DejaVuSans-72" x="124.755859"/>
      <use xlink:href="#DejaVuSans-74" x="165.869141"/>
      <use xlink:href="#DejaVuSans-69" x="205.078125"/>
      <use xlink:href="#DejaVuSans-63" x="232.861328"/>
      <use xlink:href="#DejaVuSans-6c" x="287.841797"/>
      <use xlink:href="#DejaVuSans-65" x="315.625"/>
      <use xlink:href="#DejaVuSans-20" x="377.148438"/>
      <use xlink:href="#DejaVuSans-72" x="408.935547"/>
      <use xlink:href="#DejaVuSans-61" x="450.048828"/>
      <use xlink:href="#DejaVuSans-64" x="511.328125"/>
      <use xlink:href="#DejaVuSans-69" x="574.804688"/>
      <use xlink:href="#DejaVuSans-75" x="602.587891"/>
      <use xlink:href="#DejaVuSans-73" x="665.966797"/>
      <use xlink:href="#DejaVuSans-20" x="718.066406"/>
      <use xlink:href="#DejaVuSans-5b" x="749.853516"/>
      <use xlink:href="#DejaVuSans-b5" x="788.867188"/>
      <use xlink:href="#DejaVuSans-6d" x="852.490234"/>
      <use xlink:href="#DejaVuSans-5d" x="949.902344"/>
     </g>
    </g>
   </g>
   <g id="matplotlib.axis_2">
    <g id="ytick_1">
     <g id="line2d_42">
      <path d="M 45.303125 283.567636 
L 442.021125 283.567636 
" clip-path="url(#p6acc94eb8f)" style="fill: none; stroke: #b0b0b0; stroke-width: 0.8; stroke-linecap: square"/>
     </g>
     <g id="line2d_43">
      <defs>
       <path id="mc6762abf27" d="M 0 0 
L -3.5 0 
" style="stroke: #000000; stroke-width: 0.8"/>
      </defs>
      <g>
       <use xlink:href="#mc6762abf27" x="45.303125" y="283.567636" style="stroke: #000000; stroke-width: 0.8"/>
      </g>
     </g>
     <g id="text_6">
      <!-- 0.0 -->
      <g transform="translate(22.4 287.366855) scale(0.1 -0.1)">
       <defs>
        <path id="DejaVuSans-2e" d="M 684 794 
L 1344 794 
L 1344 0 
L 684 0 
L 684 794 
z
" transform="scale(0.015625)"/>
       </defs>
       <use xlink:href="#DejaVuSans-30"/>
       <use xlink:href="#DejaVuSans-2e" x="63.623047"/>
       <use xlink:href="#DejaVuSans-30" x="95.410156"/>
      </g>
     </g>
    </g>
    <g id="ytick_2">
     <g id="line2d_44">
      <path d="M 45.303125 249.821169 
L 442.021125 249.821169 
" clip-path="url(#p6acc94eb8f)" style="fill: none; stroke: #b0b0b0; stroke-width: 0.8; stroke-linecap: square"/>
     </g>
     <g id="line2d_45">
      <g>
       <use xlink:href="#mc6762abf27" x="45.303125" y="249.821169" style="stroke: #000000; stroke-width: 0.8"/>
      </g>
     </g>
     <g id="text_7">
      <!-- 0.2 -->
      <g transform="translate(22.4 253.620388) scale(0.1 -0.1)">
       <use xlink:href="#DejaVuSans-30"/>
       <use xlink:href="#DejaVuSans-2e" x="63.623047"/>
       <use xlink:href="#DejaVuSans-32" x="95.410156"/>
      </g>
     </g>
    </g>
    <g id="ytick_3">
     <g id="line2d_46">
      <path d="M 45.303125 216.074702 
L 442.021125 216.074702 
" clip-path="url(#p6acc94eb8f)" style="fill: none; stroke: #b0b0b0; stroke-width: 0.8; stroke-linecap: square"/>
     </g>
     <g id="line2d_47">
      <g>
       <use xlink:href="#mc6762abf27" x="45.303125" y="216.074702" style="stroke: #000000; stroke-width: 0.8"/>
      </g>
     </g>
     <g id="text_8">
      <!-- 0.4 -->
      <g transform="translate(22.4 219.873921) scale(0.1 -0.1)">
       <use xlink:href="#DejaVuSans-30"/>
       <use xlink:href="#DejaVuSans-2e" x="63.623047"/>
       <use xlink:href="#DejaVuSans-34" x="95.410156"/>
      </g>
     </g>
    </g>
    <g id="ytick_4">
     <g id="line2d_48">
      <path d="M 45.303125 182.328235 
L 442.021125 182.328235 
" clip-path="url(#p6acc94eb8f)" style="fill: none; stroke: #b0b0b0; stroke-width: 0.8; stroke-linecap: square"/>
     </g>
     <g id="line2d_49">
      <g>
       <use xlink:href="#mc6762abf27" x="45.303125" y="182.328235" style="stroke: #000000; stroke-width: 0.8"/>
      </g>
     </g>
     <g id="text_9">
      <!-- 0.6 -->
      <g transform="translate(22.4 186.127454) scale(0.1 -0.1)">
       <defs>
        <path id="DejaVuSans-36" d="M 2113 2584 
Q 1688 2584 1439 2293 
Q 1191 2003 1191 1497 
Q 1191 994 1439 701 
Q 1688 409 2113 409 
Q 2538 409 2786 701 
Q 3034 994 3034 1497 
Q 3034 2003 2786 2293 
Q 2538 2584 2113 2584 
z
M 3366 4563 
L 3366 3988 
Q 3128 4100 2886 4159 
Q 2644 4219 2406 4219 
Q 1781 4219 1451 3797 
Q 1122 3375 1075 2522 
Q 1259 2794 1537 2939 
Q 1816 3084 2150 3084 
Q 2853 3084 3261 2657 
Q 3669 2231 3669 1497 
Q 3669 778 3244 343 
Q 2819 -91 2113 -91 
Q 1303 -91 875 529 
Q 447 1150 447 2328 
Q 447 3434 972 4092 
Q 1497 4750 2381 4750 
Q 2619 4750 2861 4703 
Q 3103 4656 3366 4563 
z
" transform="scale(0.015625)"/>
       </defs>
       <use xlink:href="#DejaVuSans-30"/>
       <use xlink:href="#DejaVuSans-2e" x="63.623047"/>
       <use xlink:href="#DejaVuSans-36" x="95.410156"/>
      </g>
     </g>
    </g>
    <g id="ytick_5">
     <g id="line2d_50">
      <path d="M 45.303125 148.581768 
L 442.021125 148.581768 
" clip-path="url(#p6acc94eb8f)" style="fill: none; stroke: #b0b0b0; stroke-width: 0.8; stroke-linecap: square"/>
     </g>
     <g id="line2d_51">
      <g>
       <use xlink:href="#mc6762abf27" x="45.303125" y="148.581768" style="stroke: #000000; stroke-width: 0.8"/>
      </g>
     </g>
     <g id="text_10">
      <!-- 0.8 -->
      <g transform="translate(22.4 152.380987) scale(0.1 -0.1)">
       <defs>
        <path id="DejaVuSans-38" d="M 2034 2216 
Q 1584 2216 1326 1975 
Q 1069 1734 1069 1313 
Q 1069 891 1326 650 
Q 1584 409 2034 409 
Q 2484 409 2743 651 
Q 3003 894 3003 1313 
Q 3003 1734 2745 1975 
Q 2488 2216 2034 2216 
z
M 1403 2484 
Q 997 2584 770 2862 
Q 544 3141 544 3541 
Q 544 4100 942 4425 
Q 1341 4750 2034 4750 
Q 2731 4750 3128 4425 
Q 3525 4100 3525 3541 
Q 3525 3141 3298 2862 
Q 3072 2584 2669 2484 
Q 3125 2378 3379 2068 
Q 3634 1759 3634 1313 
Q 3634 634 3220 271 
Q 2806 -91 2034 -91 
Q 1263 -91 848 271 
Q 434 634 434 1313 
Q 434 1759 690 2068 
Q 947 2378 1403 2484 
z
M 1172 3481 
Q 1172 3119 1398 2916 
Q 1625 2713 2034 2713 
Q 2441 2713 2670 2916 
Q 2900 3119 2900 3481 
Q 2900 3844 2670 4047 
Q 2441 4250 2034 4250 
Q 1625 4250 1398 4047 
Q 1172 3844 1172 3481 
z
" transform="scale(0.015625)"/>
       </defs>
       <use xlink:href="#DejaVuSans-30"/>
       <use xlink:href="#DejaVuSans-2e" x="63.623047"/>
       <use xlink:href="#DejaVuSans-38" x="95.410156"/>
      </g>
     </g>
    </g>
    <g id="ytick_6">
     <g id="line2d_52">
      <path d="M 45.303125 114.835301 
L 442.021125 114.835301 
" clip-path="url(#p6acc94eb8f)" style="fill: none; stroke: #b0b0b0; stroke-width: 0.8; stroke-linecap: square"/>
     </g>
     <g id="line2d_53">
      <g>
       <use xlink:href="#mc6762abf27" x="45.303125" y="114.835301" style="stroke: #000000; stroke-width: 0.8"/>
      </g>
     </g>
     <g id="text_11">
      <!-- 1.0 -->
      <g transform="translate(22.4 118.63452) scale(0.1 -0.1)">
       <use xlink:href="#DejaVuSans-31"/>
       <use xlink:href="#DejaVuSans-2e" x="63.623047"/>
       <use xlink:href="#DejaVuSans-30" x="95.410156"/>
      </g>
     </g>
    </g>
    <g id="ytick_7">
     <g id="line2d_54">
      <path d="M 45.303125 81.088834 
L 442.021125 81.088834 
" clip-path="url(#p6acc94eb8f)" style="fill: none; stroke: #b0b0b0; stroke-width: 0.8; stroke-linecap: square"/>
     </g>
     <g id="line2d_55">
      <g>
       <use xlink:href="#mc6762abf27" x="45.303125" y="81.088834" style="stroke: #000000; stroke-width: 0.8"/>
      </g>
     </g>
     <g id="text_12">
      <!-- 1.2 -->
      <g transform="translate(22.4 84.888053) scale(0.1 -0.1)">
       <use xlink:href="#DejaVuSans-31"/>
       <use xlink:href="#DejaVuSans-2e" x="63.623047"/>
       <use xlink:href="#DejaVuSans-32" x="95.410156"/>
      </g>
     </g>
    </g>
    <g id="ytick_8">
     <g id="line2d_56">
      <path d="M 45.303125 47.342367 
L 442.021125 47.342367 
" clip-path="url(#p6acc94eb8f)" style="fill: none; stroke: #b0b0b0; stroke-width: 0.8; stroke-linecap: square"/>
     </g>
     <g id="line2d_57">
      <g>
       <use xlink:href="#mc6762abf27" x="45.303125" y="47.342367" style="stroke: #000000; stroke-width: 0.8"/>
      </g>
     </g>
     <g id="text_13">
      <!-- 1.4 -->
      <g transform="translate(22.4 51.141586) scale(0.1 -0.1)">
       <use xlink:href="#DejaVuSans-31"/>
       <use xlink:href="#DejaVuSans-2e" x="63.623047"/>
       <use xlink:href="#DejaVuSans-34" x="95.410156"/>
      </g>
     </g>
    </g>
    <g id="ytick_9">
     <g id="line2d_58">
      <path d="M 45.303125 13.5959 
L 442.021125 13.5959 
" clip-path="url(#p6acc94eb8f)" style="fill: none; stroke: #b0b0b0; stroke-width: 0.8; stroke-linecap: square"/>
     </g>
     <g id="line2d_59">
      <g>
       <use xlink:href="#mc6762abf27" x="45.303125" y="13.5959" style="stroke: #000000; stroke-width: 0.8"/>
      </g>
     </g>
     <g id="text_14">
      <!-- 1.6 -->
      <g transform="translate(22.4 17.395119) scale(0.1 -0.1)">
       <use xlink:href="#DejaVuSans-31"/>
       <use xlink:href="#DejaVuSans-2e" x="63.623047"/>
       <use xlink:href="#DejaVuSans-36" x="95.410156"/>
      </g>
     </g>
    </g>
    <g id="text_15">
     <!-- dm/dlnr [g/m$^3$] -->
     <g transform="translate(16.3 189.114) rotate(-90) scale(0.1 -0.1)">
      <defs>
       <path id="DejaVuSans-2f" d="M 1625 4666 
L 2156 4666 
L 531 -594 
L 0 -594 
L 1625 4666 
z
" transform="scale(0.015625)"/>
       <path id="DejaVuSans-6e" d="M 3513 2113 
L 3513 0 
L 2938 0 
L 2938 2094 
Q 2938 2591 2744 2837 
Q 2550 3084 2163 3084 
Q 1697 3084 1428 2787 
Q 1159 2491 1159 1978 
L 1159 0 
L 581 0 
L 581 3500 
L 1159 3500 
L 1159 2956 
Q 1366 3272 1645 3428 
Q 1925 3584 2291 3584 
Q 2894 3584 3203 3211 
Q 3513 2838 3513 2113 
z
" transform="scale(0.015625)"/>
       <path id="DejaVuSans-67" d="M 2906 1791 
Q 2906 2416 2648 2759 
Q 2391 3103 1925 3103 
Q 1463 3103 1205 2759 
Q 947 2416 947 1791 
Q 947 1169 1205 825 
Q 1463 481 1925 481 
Q 2391 481 2648 825 
Q 2906 1169 2906 1791 
z
M 3481 434 
Q 3481 -459 3084 -895 
Q 2688 -1331 1869 -1331 
Q 1566 -1331 1297 -1286 
Q 1028 -1241 775 -1147 
L 775 -588 
Q 1028 -725 1275 -790 
Q 1522 -856 1778 -856 
Q 2344 -856 2625 -561 
Q 2906 -266 2906 331 
L 2906 616 
Q 2728 306 2450 153 
Q 2172 0 1784 0 
Q 1141 0 747 490 
Q 353 981 353 1791 
Q 353 2603 747 3093 
Q 1141 3584 1784 3584 
Q 2172 3584 2450 3431 
Q 2728 3278 2906 2969 
L 2906 3500 
L 3481 3500 
L 3481 434 
z
" transform="scale(0.015625)"/>
      </defs>
      <use xlink:href="#DejaVuSans-64" transform="translate(0 0.765625)"/>
      <use xlink:href="#DejaVuSans-6d" transform="translate(63.476562 0.765625)"/>
      <use xlink:href="#DejaVuSans-2f" transform="translate(160.888672 0.765625)"/>
      <use xlink:href="#DejaVuSans-64" transform="translate(194.580078 0.765625)"/>
      <use xlink:href="#DejaVuSans-6c" transform="translate(258.056641 0.765625)"/>
      <use xlink:href="#DejaVuSans-6e" transform="translate(285.839844 0.765625)"/>
      <use xlink:href="#DejaVuSans-72" transform="translate(349.21875 0.765625)"/>
      <use xlink:href="#DejaVuSans-20" transform="translate(390.332031 0.765625)"/>
      <use xlink:href="#DejaVuSans-5b" transform="translate(422.119141 0.765625)"/>
      <use xlink:href="#DejaVuSans-67" transform="translate(461.132812 0.765625)"/>
      <use xlink:href="#DejaVuSans-2f" transform="translate(524.609375 0.765625)"/>
      <use xlink:href="#DejaVuSans-6d" transform="translate(558.300781 0.765625)"/>
      <use xlink:href="#DejaVuSans-33" transform="translate(656.669922 39.046875) scale(0.7)"/>
      <use xlink:href="#DejaVuSans-5d" transform="translate(703.94043 0.765625)"/>
     </g>
    </g>
   </g>
   <g id="line2d_60">
    <path d="M 63.335761 282.866629 
L 67.595439 282.306132 
L 70.435224 281.706051 
L 73.27501 280.827633 
L 76.114795 279.547477 
L 77.534688 278.704904 
L 78.95458 277.692011 
L 80.374473 276.476505 
L 81.794366 275.020697 
L 83.214258 273.28085 
L 84.634151 271.206544 
L 86.054043 268.740097 
L 87.473936 265.816105 
L 88.893829 262.361188 
L 90.313721 258.294047 
L 91.733614 253.525979 
L 93.153507 247.962022 
L 94.573399 241.50295 
L 95.993292 234.048355 
L 97.413184 225.501097 
L 98.833077 215.773396 
L 100.25297 204.794845 
L 101.672862 192.522514 
L 103.092755 178.953248 
L 105.93254 148.19769 
L 108.772325 113.874302 
L 111.612111 78.942294 
L 113.032003 62.690419 
L 114.451896 48.242855 
L 115.871789 36.445557 
L 117.291681 28.167303 
L 118.711574 24.229378 
L 120.131466 25.31836 
L 121.551359 31.889166 
L 122.971252 44.070477 
L 124.391144 61.589141 
L 125.811037 83.73263 
L 127.23093 109.367243 
L 131.490607 191.78663 
L 132.9105 215.830982 
L 134.330393 236.163405 
L 135.750285 252.285194 
L 137.170178 264.221876 
L 138.590071 272.43237 
L 140.009963 277.647116 
L 141.429856 280.684056 
L 142.849748 282.29295 
L 144.269641 283.06142 
L 145.689534 283.389059 
L 148.529319 283.552838 
L 164.148138 283.567636 
L 423.988489 283.567636 
L 423.988489 283.567636 
" clip-path="url(#p6acc94eb8f)" style="fill: none; stroke: #000000; stroke-width: 1.5; stroke-linecap: square"/>
   </g>
   <g id="line2d_61">
    <path d="M 63.335761 282.840494 
L 64.755654 282.764314 
L 66.175547 282.455882 
L 67.595439 282.335751 
L 69.015332 281.929928 
L 70.435224 281.754964 
L 71.855117 281.230252 
L 73.27501 280.988846 
L 76.114795 279.53384 
L 77.534688 278.605302 
L 78.95458 277.518698 
L 80.374473 276.892923 
L 81.794366 274.862014 
L 83.214258 273.187879 
L 84.634151 271.271846 
L 86.054043 269.089188 
L 87.473936 265.564785 
L 88.893829 262.552496 
L 90.313721 257.877851 
L 91.733614 253.807493 
L 93.153507 247.68115 
L 94.573399 242.267166 
L 95.993292 232.391046 
L 97.413184 226.985514 
L 98.833077 214.336131 
L 100.25297 204.486311 
L 101.672862 193.469158 
L 104.512648 163.418757 
L 105.93254 150.875017 
L 107.352433 128.776134 
L 108.772325 117.00188 
L 110.192218 94.573689 
L 111.612111 80.141637 
L 113.032003 58.585609 
L 115.871789 38.338112 
L 118.711574 20.360364 
L 120.131466 32.988736 
L 121.551359 29.066112 
L 122.971252 38.614832 
L 124.391144 67.03358 
L 125.811037 74.005858 
L 127.23093 118.138368 
L 128.650822 137.822752 
L 130.070715 162.836969 
L 131.490607 194.811386 
L 132.9105 210.048499 
L 134.330393 228.869097 
L 135.750285 253.05558 
L 137.170178 283.567636 
L 138.590071 247.976766 
L 140.009963 283.567636 
L 421.148703 283.567636 
L 421.148703 283.567636 
" clip-path="url(#p6acc94eb8f)" style="fill: none; stroke: #2cbdfe; stroke-width: 1.5; stroke-linecap: square"/>
   </g>
   <g id="line2d_62">
    <path d="M 63.335761 283.372657 
L 70.435224 283.058668 
L 74.694902 282.673251 
L 78.95458 282.015594 
L 81.794366 281.346207 
L 84.634151 280.415716 
L 87.473936 279.141448 
L 90.313721 277.427116 
L 91.733614 276.372426 
L 93.153507 275.168581 
L 94.573399 273.803157 
L 95.993292 272.264952 
L 97.413184 270.544618 
L 98.833077 268.635337 
L 101.672862 264.239063 
L 104.512648 259.093622 
L 107.352433 253.281313 
L 110.192218 246.935882 
L 114.451896 236.740508 
L 120.131466 222.372079 
L 124.391144 211.073348 
L 130.070715 195.269381 
L 138.590071 171.200725 
L 141.429856 163.816873 
L 144.269641 157.266673 
L 145.689534 154.435214 
L 147.109426 151.979299 
L 148.529319 149.964203 
L 149.949212 148.458565 
L 151.369104 147.533147 
L 152.788997 147.259152 
L 154.208889 147.706051 
L 155.628782 148.938894 
L 157.048675 151.015085 
L 158.468567 153.980662 
L 159.88846 157.866164 
L 161.308353 162.682252 
L 162.728245 168.415334 
L 164.148138 175.023525 
L 165.568031 182.43339 
L 168.407816 199.19676 
L 175.507279 244.06297 
L 176.927172 251.864275 
L 178.347064 258.840041 
L 179.766957 264.879114 
L 181.186849 269.926709 
L 182.606742 273.986963 
L 184.026635 277.118958 
L 185.446527 279.426479 
L 186.86642 281.043008 
L 188.286313 282.114456 
L 189.706205 282.782656 
L 191.126098 283.172353 
L 193.965883 283.488868 
L 198.225561 283.564289 
L 264.960514 283.567636 
L 395.590636 283.567636 
L 395.590636 283.567636 
" clip-path="url(#p6acc94eb8f)" style="fill: none; stroke: #000000; stroke-width: 1.5; stroke-linecap: square"/>
   </g>
   <g id="line2d_63">
    <path d="M 63.335761 283.1105 
L 69.015332 283.066555 
L 71.855117 282.814789 
L 80.374473 281.584579 
L 83.214258 280.94193 
L 86.054043 280.110209 
L 88.893829 278.981525 
L 90.313721 278.164547 
L 91.733614 277.099684 
L 93.153507 275.756881 
L 95.993292 272.596785 
L 97.413184 270.830491 
L 98.833077 268.794223 
L 100.25297 266.424048 
L 101.672862 263.682826 
L 107.352433 251.441735 
L 108.772325 248.864346 
L 111.612111 244.338936 
L 113.032003 241.721928 
L 114.451896 238.543532 
L 115.871789 234.977257 
L 117.291681 231.017488 
L 120.131466 222.119991 
L 125.811037 203.890249 
L 127.23093 200.365346 
L 128.650822 197.714219 
L 131.490607 194.357975 
L 132.9105 192.205192 
L 134.330393 188.285124 
L 135.750285 182.51042 
L 138.590071 168.120819 
L 140.009963 162.245866 
L 141.429856 158.241433 
L 142.849748 156.167479 
L 144.269641 155.360261 
L 145.689534 154.849595 
L 147.109426 153.597337 
L 148.529319 151.037075 
L 151.369104 145.260479 
L 152.788997 143.365004 
L 154.208889 142.525773 
L 155.628782 143.923155 
L 157.048675 147.896035 
L 158.468567 154.914468 
L 159.88846 164.121495 
L 161.308353 174.685827 
L 162.728245 183.866588 
L 164.148138 190.048947 
L 165.568031 192.482601 
L 166.987923 193.611694 
L 168.407816 195.782279 
L 169.827708 201.689288 
L 171.247601 211.267975 
L 172.667494 222.880279 
L 174.087386 233.461761 
L 175.507279 241.513389 
L 176.927172 247.596461 
L 178.347064 253.12165 
L 179.766957 259.191748 
L 182.606742 272.749476 
L 184.026635 278.38337 
L 185.446527 281.825103 
L 186.86642 283.269992 
L 188.286313 283.567636 
L 422.568596 283.567636 
L 422.568596 283.567636 
" clip-path="url(#p6acc94eb8f)" style="fill: none; stroke: #5986e5; stroke-width: 1.5; stroke-linecap: square"/>
   </g>
   <g id="line2d_64">
    <path d="M 63.335761 283.512337 
L 74.694902 283.316287 
L 80.374473 283.049356 
L 84.634151 282.695637 
L 88.893829 282.137321 
L 93.153507 281.295277 
L 95.993292 280.538647 
L 98.833077 279.607319 
L 101.672862 278.497274 
L 105.93254 276.52139 
L 110.192218 274.244929 
L 114.451896 271.749426 
L 118.711574 269.054705 
L 122.971252 266.105787 
L 127.23093 262.815507 
L 130.070715 260.390181 
L 132.9105 257.751884 
L 135.750285 254.877535 
L 138.590071 251.744085 
L 141.429856 248.328607 
L 144.269641 244.60873 
L 147.109426 240.563381 
L 149.949212 236.173916 
L 152.788997 231.425713 
L 155.628782 226.310356 
L 158.468567 220.828558 
L 161.308353 214.994004 
L 165.568031 205.656206 
L 171.247601 192.488536 
L 175.507279 182.642196 
L 178.347064 176.480602 
L 181.186849 170.985642 
L 182.606742 168.602464 
L 184.026635 166.531768 
L 185.446527 164.830586 
L 186.86642 163.559013 
L 188.286313 162.779186 
L 189.706205 162.553878 
L 191.126098 162.944684 
L 192.54599 164.009742 
L 193.965883 165.800991 
L 195.385776 168.360981 
L 196.805668 171.719312 
L 198.225561 175.888816 
L 199.645454 180.861702 
L 201.065346 186.605935 
L 202.485239 193.062227 
L 205.325024 207.727386 
L 212.424487 247.440282 
L 213.84438 254.436283 
L 215.264272 260.725381 
L 216.684165 266.201983 
L 218.104058 270.809064 
L 219.52395 274.541376 
L 220.943843 277.443013 
L 222.363736 279.599326 
L 223.783628 281.124353 
L 225.203521 282.145802 
L 226.623413 282.790228 
L 228.043306 283.170882 
L 230.883091 283.486066 
L 235.142769 283.563954 
L 296.198152 283.567636 
L 394.170743 283.567636 
L 394.170743 283.567636 
" clip-path="url(#p6acc94eb8f)" style="fill: none; stroke: #000000; stroke-width: 1.5; stroke-linecap: square"/>
   </g>
   <g id="line2d_65">
    <path d="M 63.335761 283.433144 
L 69.015332 283.433616 
L 81.794366 282.924226 
L 87.473936 282.530457 
L 90.313721 282.108977 
L 93.153507 281.373105 
L 101.672862 278.700816 
L 104.512648 277.31405 
L 113.032003 272.515519 
L 114.451896 271.520487 
L 115.871789 270.364312 
L 117.291681 268.957458 
L 120.131466 265.74931 
L 121.551359 264.472259 
L 122.971252 263.680273 
L 124.391144 263.380288 
L 125.811037 263.420331 
L 128.650822 263.848982 
L 130.070715 263.890842 
L 131.490607 263.529415 
L 132.9105 262.650679 
L 134.330393 260.950851 
L 135.750285 258.527674 
L 137.170178 255.52213 
L 141.429856 245.728155 
L 142.849748 243.042645 
L 144.269641 241.162545 
L 145.689534 239.947722 
L 147.109426 239.161247 
L 148.529319 237.988209 
L 149.949212 236.012595 
L 151.369104 232.652634 
L 152.788997 228.345448 
L 154.208889 223.669695 
L 155.628782 219.869226 
L 157.048675 217.357342 
L 158.468567 215.403447 
L 159.88846 212.605311 
L 161.308353 207.997275 
L 162.728245 202.966453 
L 164.148138 198.615663 
L 165.568031 196.257783 
L 166.987923 194.536459 
L 168.407816 193.470851 
L 171.247601 190.497258 
L 172.667494 187.756239 
L 174.087386 183.659516 
L 175.507279 178.549308 
L 178.347064 166.32799 
L 179.766957 159.291182 
L 181.186849 153.153747 
L 182.606742 148.212836 
L 185.446527 140.920286 
L 186.86642 138.539379 
L 188.286313 139.652223 
L 189.706205 145.032736 
L 192.54599 161.979855 
L 193.965883 168.592028 
L 195.385776 172.283711 
L 196.805668 175.036475 
L 198.225561 177.378689 
L 199.645454 181.587407 
L 201.065346 187.219444 
L 202.485239 195.580626 
L 203.905131 205.748193 
L 205.325024 218.798924 
L 206.744917 233.477467 
L 208.164809 249.605413 
L 209.584702 264.226385 
L 211.004595 275.326964 
L 212.424487 281.186047 
L 213.84438 283.297598 
L 215.264272 283.567636 
L 422.568596 283.567636 
L 422.568596 283.567636 
" clip-path="url(#p6acc94eb8f)" style="fill: none; stroke: #864fcb; stroke-width: 1.5; stroke-linecap: square"/>
   </g>
   <g id="line2d_66">
    <path d="M 63.335761 283.551865 
L 80.374473 283.420536 
L 88.893829 283.163749 
L 95.993292 282.717655 
L 101.672862 282.153546 
L 108.772325 281.205389 
L 117.291681 279.828726 
L 124.391144 278.477445 
L 130.070715 277.187705 
L 135.750285 275.647702 
L 140.009963 274.290339 
L 144.269641 272.725919 
L 148.529319 270.919906 
L 152.788997 268.833108 
L 157.048675 266.421113 
L 159.88846 264.607971 
L 162.728245 262.611884 
L 165.568031 260.415413 
L 168.407816 258.000016 
L 171.247601 255.346177 
L 174.087386 252.433625 
L 176.927172 249.241686 
L 179.766957 245.749818 
L 182.606742 241.938374 
L 185.446527 237.789703 
L 188.286313 233.289654 
L 191.126098 228.42963 
L 193.965883 223.209329 
L 196.805668 217.640329 
L 201.065346 208.700353 
L 206.744917 196.028791 
L 212.424487 183.418931 
L 215.264272 177.656252 
L 216.684165 175.038806 
L 218.104058 172.657584 
L 219.52395 170.563048 
L 220.943843 168.809465 
L 222.363736 167.454305 
L 223.783628 166.557343 
L 225.203521 166.179424 
L 226.623413 166.380813 
L 228.043306 167.219135 
L 229.463199 168.746843 
L 230.883091 171.008254 
L 232.302984 174.036195 
L 233.722877 177.848357 
L 235.142769 182.443548 
L 236.562662 187.798077 
L 237.982554 193.862619 
L 240.82234 207.784146 
L 245.082018 231.161545 
L 247.921803 246.397107 
L 249.341696 253.359721 
L 250.761588 259.675461 
L 252.181481 265.229242 
L 253.601373 269.951172 
L 255.021266 273.821176 
L 256.441159 276.868311 
L 257.861051 279.164501 
L 259.280944 280.813474 
L 260.700837 281.936661 
L 262.120729 282.658498 
L 263.540622 283.093647 
L 264.960514 283.338126 
L 267.8003 283.525886 
L 274.899763 283.567553 
L 394.170743 283.567636 
L 394.170743 283.567636 
" clip-path="url(#p6acc94eb8f)" style="fill: none; stroke: #000000; stroke-width: 1.5; stroke-linecap: square"/>
   </g>
   <g id="line2d_67">
    <path d="M 63.335761 283.514852 
L 73.27501 283.487574 
L 91.733614 283.081158 
L 104.512648 281.91512 
L 120.131466 279.423275 
L 122.971252 279.156464 
L 125.811037 278.948321 
L 127.23093 278.730846 
L 130.070715 277.926328 
L 137.170178 275.184998 
L 138.590071 274.431417 
L 142.849748 271.321029 
L 144.269641 270.70843 
L 148.529319 269.968508 
L 149.949212 269.284429 
L 151.369104 268.376684 
L 154.208889 266.114731 
L 155.628782 264.66859 
L 157.048675 263.042661 
L 159.88846 259.589544 
L 161.308353 258.24529 
L 162.728245 257.569313 
L 164.148138 257.462992 
L 165.568031 257.608794 
L 166.987923 257.558314 
L 169.827708 257.267874 
L 171.247601 257.365826 
L 172.667494 257.135775 
L 174.087386 256.192951 
L 175.507279 253.614083 
L 176.927172 249.655327 
L 181.186849 233.508827 
L 182.606742 229.66221 
L 184.026635 226.315857 
L 185.446527 224.177415 
L 186.86642 223.10168 
L 188.286313 223.585472 
L 189.706205 224.406245 
L 191.126098 223.593536 
L 192.54599 220.001337 
L 193.965883 212.794488 
L 196.805668 195.847945 
L 198.225561 190.805319 
L 199.645454 188.071022 
L 201.065346 187.938667 
L 202.485239 185.917237 
L 203.905131 181.457639 
L 208.164809 155.06048 
L 209.584702 152.527951 
L 211.004595 155.105818 
L 212.424487 162.980889 
L 213.84438 170.098569 
L 215.264272 171.685771 
L 216.684165 163.530012 
L 219.52395 134.016661 
L 220.943843 125.150983 
L 222.363736 125.800353 
L 223.783628 136.948123 
L 225.203521 155.137079 
L 226.623413 174.773945 
L 228.043306 189.694226 
L 229.463199 198.558437 
L 230.883091 202.667661 
L 232.302984 205.245315 
L 233.722877 207.294625 
L 235.142769 211.489609 
L 236.562662 218.797073 
L 237.982554 230.018792 
L 240.82234 254.897559 
L 242.242232 265.821949 
L 243.662125 274.67457 
L 245.082018 280.363853 
L 246.50191 282.913959 
L 247.921803 283.567636 
L 422.568596 283.567636 
L 422.568596 283.567636 
" clip-path="url(#p6acc94eb8f)" style="fill: none; stroke: #b317b1; stroke-width: 1.5; stroke-linecap: square"/>
   </g>
   <g id="patch_3">
    <path d="M 45.303125 296.728 
L 45.303125 7.2 
" style="fill: none; stroke: #000000; stroke-width: 0.8; stroke-linejoin: miter; stroke-linecap: square"/>
   </g>
   <g id="patch_4">
    <path d="M 442.021125 296.728 
L 442.021125 7.2 
" style="fill: none; stroke: #000000; stroke-width: 0.8; stroke-linejoin: miter; stroke-linecap: square"/>
   </g>
   <g id="patch_5">
    <path d="M 45.303125 296.728 
L 442.021125 296.728 
" style="fill: none; stroke: #000000; stroke-width: 0.8; stroke-linejoin: miter; stroke-linecap: square"/>
   </g>
   <g id="patch_6">
    <path d="M 45.303125 7.2 
L 442.021125 7.2 
" style="fill: none; stroke: #000000; stroke-width: 0.8; stroke-linejoin: miter; stroke-linecap: square"/>
   </g>
   <g id="legend_1">
    <g id="patch_7">
     <path d="M 353.7055 73.9125 
L 435.021125 73.9125 
Q 437.021125 73.9125 437.021125 71.9125 
L 437.021125 14.2 
Q 437.021125 12.2 435.021125 12.2 
L 353.7055 12.2 
Q 351.7055 12.2 351.7055 14.2 
L 351.7055 71.9125 
Q 351.7055 73.9125 353.7055 73.9125 
z
" style="fill: #ffffff; opacity: 0.8; stroke: #cccccc; stroke-linejoin: miter"/>
    </g>
    <g id="line2d_68">
     <path d="M 355.7055 20.298437 
L 365.7055 20.298437 
L 375.7055 20.298437 
" style="fill: none; stroke: #2cbdfe; stroke-width: 1.5; stroke-linecap: square"/>
    </g>
    <g id="text_16">
     <!-- t = 0s -->
     <g transform="translate(383.7055 23.798437) scale(0.1 -0.1)">
      <defs>
       <path id="DejaVuSans-3d" d="M 678 2906 
L 4684 2906 
L 4684 2381 
L 678 2381 
L 678 2906 
z
M 678 1631 
L 4684 1631 
L 4684 1100 
L 678 1100 
L 678 1631 
z
" transform="scale(0.015625)"/>
      </defs>
      <use xlink:href="#DejaVuSans-74"/>
      <use xlink:href="#DejaVuSans-20" x="39.208984"/>
      <use xlink:href="#DejaVuSans-3d" x="70.996094"/>
      <use xlink:href="#DejaVuSans-20" x="154.785156"/>
      <use xlink:href="#DejaVuSans-30" x="186.572266"/>
      <use xlink:href="#DejaVuSans-73" x="250.195312"/>
     </g>
    </g>
    <g id="line2d_69">
     <path d="M 355.7055 34.976562 
L 365.7055 34.976562 
L 375.7055 34.976562 
" style="fill: none; stroke: #5986e5; stroke-width: 1.5; stroke-linecap: square"/>
    </g>
    <g id="text_17">
     <!-- t = 1200s -->
     <g transform="translate(383.7055 38.476562) scale(0.1 -0.1)">
      <use xlink:href="#DejaVuSans-74"/>
      <use xlink:href="#DejaVuSans-20" x="39.208984"/>
      <use xlink:href="#DejaVuSans-3d" x="70.996094"/>
      <use xlink:href="#DejaVuSans-20" x="154.785156"/>
      <use xlink:href="#DejaVuSans-31" x="186.572266"/>
      <use xlink:href="#DejaVuSans-32" x="250.195312"/>
      <use xlink:href="#DejaVuSans-30" x="313.818359"/>
      <use xlink:href="#DejaVuSans-30" x="377.441406"/>
      <use xlink:href="#DejaVuSans-73" x="441.064453"/>
     </g>
    </g>
    <g id="line2d_70">
     <path d="M 355.7055 49.654687 
L 365.7055 49.654687 
L 375.7055 49.654687 
" style="fill: none; stroke: #864fcb; stroke-width: 1.5; stroke-linecap: square"/>
    </g>
    <g id="text_18">
     <!-- t = 2400s -->
     <g transform="translate(383.7055 53.154687) scale(0.1 -0.1)">
      <use xlink:href="#DejaVuSans-74"/>
      <use xlink:href="#DejaVuSans-20" x="39.208984"/>
      <use xlink:href="#DejaVuSans-3d" x="70.996094"/>
      <use xlink:href="#DejaVuSans-20" x="154.785156"/>
      <use xlink:href="#DejaVuSans-32" x="186.572266"/>
      <use xlink:href="#DejaVuSans-34" x="250.195312"/>
      <use xlink:href="#DejaVuSans-30" x="313.818359"/>
      <use xlink:href="#DejaVuSans-30" x="377.441406"/>
      <use xlink:href="#DejaVuSans-73" x="441.064453"/>
     </g>
    </g>
    <g id="line2d_71">
     <path d="M 355.7055 64.332812 
L 365.7055 64.332812 
L 375.7055 64.332812 
" style="fill: none; stroke: #b317b1; stroke-width: 1.5; stroke-linecap: square"/>
    </g>
    <g id="text_19">
     <!-- t = 3600s -->
     <g transform="translate(383.7055 67.832812) scale(0.1 -0.1)">
      <use xlink:href="#DejaVuSans-74"/>
      <use xlink:href="#DejaVuSans-20" x="39.208984"/>
      <use xlink:href="#DejaVuSans-3d" x="70.996094"/>
      <use xlink:href="#DejaVuSans-20" x="154.785156"/>
      <use xlink:href="#DejaVuSans-33" x="186.572266"/>
      <use xlink:href="#DejaVuSans-36" x="250.195312"/>
      <use xlink:href="#DejaVuSans-30" x="313.818359"/>
      <use xlink:href="#DejaVuSans-30" x="377.441406"/>
      <use xlink:href="#DejaVuSans-73" x="441.064453"/>
     </g>
    </g>
   </g>
  </g>
 </g>
 <defs>
  <clipPath id="p6acc94eb8f">
   <rect x="45.303125" y="7.2" width="396.718" height="289.528"/>
  </clipPath>
 </defs>
</svg>
