<?xml version="1.0" encoding="utf-8" standalone="no"?>
<!DOCTYPE svg PUBLIC "-//W3C//DTD SVG 1.1//EN"
  "http://www.w3.org/Graphics/SVG/1.1/DTD/svg11.dtd">
<svg xmlns:xlink="http://www.w3.org/1999/xlink" width="449.221125pt" height="333.932074pt" viewBox="0 0 449.221125 333.932074" xmlns="http://www.w3.org/2000/svg" version="1.1">
 <metadata>
  <rdf:RDF xmlns:dc="http://purl.org/dc/elements/1.1/" xmlns:cc="http://creativecommons.org/ns#" xmlns:rdf="http://www.w3.org/1999/02/22-rdf-syntax-ns#">
   <cc:Work>
    <dc:type rdf:resource="http://purl.org/dc/dcmitype/StillImage"/>
    <dc:date>2024-11-07T12:40:18.454690</dc:date>
    <dc:format>image/svg+xml</dc:format>
    <dc:creator>
     <cc:Agent>
      <dc:title>Matplotlib v3.9.2, https://matplotlib.org/</dc:title>
     </cc:Agent>
    </dc:creator>
   </cc:Work>
  </rdf:RDF>
 </metadata>
 <defs>
  <style type="text/css">*{stroke-linejoin: round; stroke-linecap: butt}</style>
 </defs>
 <g id="figure_1">
  <g id="patch_1">
   <path d="M 0 333.932074 
L 449.221125 333.932074 
L 449.221125 0 
L 0 0 
z
" style="fill: #ffffff"/>
  </g>
  <g id="axes_1">
   <g id="patch_2">
    <path d="M 45.303125 296.375824 
L 442.021125 296.375824 
L 442.021125 7.2 
L 45.303125 7.2 
z
" style="fill: #ffffff"/>
   </g>
   <g id="matplotlib.axis_1">
    <g id="xtick_1">
     <g id="line2d_1">
      <path d="M 62.619887 296.375824 
L 62.619887 7.2 
" clip-path="url(#pd546db43df)" style="fill: none; stroke: #b0b0b0; stroke-width: 0.8; stroke-linecap: square"/>
     </g>
     <g id="line2d_2">
      <defs>
       <path id="m14e160ba5e" d="M 0 0 
L 0 3.5 
" style="stroke: #000000; stroke-width: 0.8"/>
      </defs>
      <g>
       <use xlink:href="#m14e160ba5e" x="62.619887" y="296.375824" style="stroke: #000000; stroke-width: 0.8"/>
      </g>
     </g>
     <g id="text_1">
      <!-- $\mathdefault{10^{1}}$ -->
      <g transform="translate(53.819887 310.974262) scale(0.1 -0.1)">
       <defs>
        <path id="DejaVuSans-31" d="M 794 531 
L 1825 531 
L 1825 4091 
L 703 3866 
L 703 4441 
L 1819 4666 
L 2450 4666 
L 2450 531 
L 3481 531 
L 3481 0 
L 794 0 
L 794 531 
z
" transform="scale(0.015625)"/>
        <path id="DejaVuSans-30" d="M 2034 4250 
Q 1547 4250 1301 3770 
Q 1056 3291 1056 2328 
Q 1056 1369 1301 889 
Q 1547 409 2034 409 
Q 2525 409 2770 889 
Q 3016 1369 3016 2328 
Q 3016 3291 2770 3770 
Q 2525 4250 2034 4250 
z
M 2034 4750 
Q 2819 4750 3233 4129 
Q 3647 3509 3647 2328 
Q 3647 1150 3233 529 
Q 2819 -91 2034 -91 
Q 1250 -91 836 529 
Q 422 1150 422 2328 
Q 422 3509 836 4129 
Q 1250 4750 2034 4750 
z
" transform="scale(0.015625)"/>
       </defs>
       <use xlink:href="#DejaVuSans-31" transform="translate(0 0.684375)"/>
       <use xlink:href="#DejaVuSans-30" transform="translate(63.623047 0.684375)"/>
       <use xlink:href="#DejaVuSans-31" transform="translate(128.203125 38.965625) scale(0.7)"/>
      </g>
     </g>
    </g>
    <g id="xtick_2">
     <g id="line2d_3">
      <path d="M 160.504601 296.375824 
L 160.504601 7.2 
" clip-path="url(#pd546db43df)" style="fill: none; stroke: #b0b0b0; stroke-width: 0.8; stroke-linecap: square"/>
     </g>
     <g id="line2d_4">
      <g>
       <use xlink:href="#m14e160ba5e" x="160.504601" y="296.375824" style="stroke: #000000; stroke-width: 0.8"/>
      </g>
     </g>
     <g id="text_2">
      <!-- $\mathdefault{10^{2}}$ -->
      <g transform="translate(151.704601 310.974262) scale(0.1 -0.1)">
       <defs>
        <path id="DejaVuSans-32" d="M 1228 531 
L 3431 531 
L 3431 0 
L 469 0 
L 469 531 
Q 828 903 1448 1529 
Q 2069 2156 2228 2338 
Q 2531 2678 2651 2914 
Q 2772 3150 2772 3378 
Q 2772 3750 2511 3984 
Q 2250 4219 1831 4219 
Q 1534 4219 1204 4116 
Q 875 4013 500 3803 
L 500 4441 
Q 881 4594 1212 4672 
Q 1544 4750 1819 4750 
Q 2544 4750 2975 4387 
Q 3406 4025 3406 3419 
Q 3406 3131 3298 2873 
Q 3191 2616 2906 2266 
Q 2828 2175 2409 1742 
Q 1991 1309 1228 531 
z
" transform="scale(0.015625)"/>
       </defs>
       <use xlink:href="#DejaVuSans-31" transform="translate(0 0.765625)"/>
       <use xlink:href="#DejaVuSans-30" transform="translate(63.623047 0.765625)"/>
       <use xlink:href="#DejaVuSans-32" transform="translate(128.203125 39.046875) scale(0.7)"/>
      </g>
     </g>
    </g>
    <g id="xtick_3">
     <g id="line2d_5">
      <path d="M 258.389315 296.375824 
L 258.389315 7.2 
" clip-path="url(#pd546db43df)" style="fill: none; stroke: #b0b0b0; stroke-width: 0.8; stroke-linecap: square"/>
     </g>
     <g id="line2d_6">
      <g>
       <use xlink:href="#m14e160ba5e" x="258.389315" y="296.375824" style="stroke: #000000; stroke-width: 0.8"/>
      </g>
     </g>
     <g id="text_3">
      <!-- $\mathdefault{10^{3}}$ -->
      <g transform="translate(249.589315 310.974262) scale(0.1 -0.1)">
       <defs>
        <path id="DejaVuSans-33" d="M 2597 2516 
Q 3050 2419 3304 2112 
Q 3559 1806 3559 1356 
Q 3559 666 3084 287 
Q 2609 -91 1734 -91 
Q 1441 -91 1130 -33 
Q 819 25 488 141 
L 488 750 
Q 750 597 1062 519 
Q 1375 441 1716 441 
Q 2309 441 2620 675 
Q 2931 909 2931 1356 
Q 2931 1769 2642 2001 
Q 2353 2234 1838 2234 
L 1294 2234 
L 1294 2753 
L 1863 2753 
Q 2328 2753 2575 2939 
Q 2822 3125 2822 3475 
Q 2822 3834 2567 4026 
Q 2313 4219 1838 4219 
Q 1578 4219 1281 4162 
Q 984 4106 628 3988 
L 628 4550 
Q 988 4650 1302 4700 
Q 1616 4750 1894 4750 
Q 2613 4750 3031 4423 
Q 3450 4097 3450 3541 
Q 3450 3153 3228 2886 
Q 3006 2619 2597 2516 
z
" transform="scale(0.015625)"/>
       </defs>
       <use xlink:href="#DejaVuSans-31" transform="translate(0 0.765625)"/>
       <use xlink:href="#DejaVuSans-30" transform="translate(63.623047 0.765625)"/>
       <use xlink:href="#DejaVuSans-33" transform="translate(128.203125 39.046875) scale(0.7)"/>
      </g>
     </g>
    </g>
    <g id="xtick_4">
     <g id="line2d_7">
      <path d="M 356.274028 296.375824 
L 356.274028 7.2 
" clip-path="url(#pd546db43df)" style="fill: none; stroke: #b0b0b0; stroke-width: 0.8; stroke-linecap: square"/>
     </g>
     <g id="line2d_8">
      <g>
       <use xlink:href="#m14e160ba5e" x="356.274028" y="296.375824" style="stroke: #000000; stroke-width: 0.8"/>
      </g>
     </g>
     <g id="text_4">
      <!-- $\mathdefault{10^{4}}$ -->
      <g transform="translate(347.474028 310.974262) scale(0.1 -0.1)">
       <defs>
        <path id="DejaVuSans-34" d="M 2419 4116 
L 825 1625 
L 2419 1625 
L 2419 4116 
z
M 2253 4666 
L 3047 4666 
L 3047 1625 
L 3713 1625 
L 3713 1100 
L 3047 1100 
L 3047 0 
L 2419 0 
L 2419 1100 
L 313 1100 
L 313 1709 
L 2253 4666 
z
" transform="scale(0.015625)"/>
       </defs>
       <use xlink:href="#DejaVuSans-31" transform="translate(0 0.684375)"/>
       <use xlink:href="#DejaVuSans-30" transform="translate(63.623047 0.684375)"/>
       <use xlink:href="#DejaVuSans-34" transform="translate(128.203125 38.965625) scale(0.7)"/>
      </g>
     </g>
    </g>
    <g id="xtick_5">
     <g id="line2d_9">
      <defs>
       <path id="mac181a8c4e" d="M 0 0 
L 0 2 
" style="stroke: #000000; stroke-width: 0.6"/>
      </defs>
      <g>
       <use xlink:href="#mac181a8c4e" x="47.457353" y="296.375824" style="stroke: #000000; stroke-width: 0.6"/>
      </g>
     </g>
    </g>
    <g id="xtick_6">
     <g id="line2d_10">
      <g>
       <use xlink:href="#mac181a8c4e" x="53.133878" y="296.375824" style="stroke: #000000; stroke-width: 0.6"/>
      </g>
     </g>
    </g>
    <g id="xtick_7">
     <g id="line2d_11">
      <g>
       <use xlink:href="#mac181a8c4e" x="58.140928" y="296.375824" style="stroke: #000000; stroke-width: 0.6"/>
      </g>
     </g>
    </g>
    <g id="xtick_8">
     <g id="line2d_12">
      <g>
       <use xlink:href="#mac181a8c4e" x="92.086122" y="296.375824" style="stroke: #000000; stroke-width: 0.6"/>
      </g>
     </g>
    </g>
    <g id="xtick_9">
     <g id="line2d_13">
      <g>
       <use xlink:href="#mac181a8c4e" x="109.322765" y="296.375824" style="stroke: #000000; stroke-width: 0.6"/>
      </g>
     </g>
    </g>
    <g id="xtick_10">
     <g id="line2d_14">
      <g>
       <use xlink:href="#mac181a8c4e" x="121.552357" y="296.375824" style="stroke: #000000; stroke-width: 0.6"/>
      </g>
     </g>
    </g>
    <g id="xtick_11">
     <g id="line2d_15">
      <g>
       <use xlink:href="#mac181a8c4e" x="131.038366" y="296.375824" style="stroke: #000000; stroke-width: 0.6"/>
      </g>
     </g>
    </g>
    <g id="xtick_12">
     <g id="line2d_16">
      <g>
       <use xlink:href="#mac181a8c4e" x="138.789" y="296.375824" style="stroke: #000000; stroke-width: 0.6"/>
      </g>
     </g>
    </g>
    <g id="xtick_13">
     <g id="line2d_17">
      <g>
       <use xlink:href="#mac181a8c4e" x="145.342067" y="296.375824" style="stroke: #000000; stroke-width: 0.6"/>
      </g>
     </g>
    </g>
    <g id="xtick_14">
     <g id="line2d_18">
      <g>
       <use xlink:href="#mac181a8c4e" x="151.018592" y="296.375824" style="stroke: #000000; stroke-width: 0.6"/>
      </g>
     </g>
    </g>
    <g id="xtick_15">
     <g id="line2d_19">
      <g>
       <use xlink:href="#mac181a8c4e" x="156.025642" y="296.375824" style="stroke: #000000; stroke-width: 0.6"/>
      </g>
     </g>
    </g>
    <g id="xtick_16">
     <g id="line2d_20">
      <g>
       <use xlink:href="#mac181a8c4e" x="189.970836" y="296.375824" style="stroke: #000000; stroke-width: 0.6"/>
      </g>
     </g>
    </g>
    <g id="xtick_17">
     <g id="line2d_21">
      <g>
       <use xlink:href="#mac181a8c4e" x="207.207478" y="296.375824" style="stroke: #000000; stroke-width: 0.6"/>
      </g>
     </g>
    </g>
    <g id="xtick_18">
     <g id="line2d_22">
      <g>
       <use xlink:href="#mac181a8c4e" x="219.437071" y="296.375824" style="stroke: #000000; stroke-width: 0.6"/>
      </g>
     </g>
    </g>
    <g id="xtick_19">
     <g id="line2d_23">
      <g>
       <use xlink:href="#mac181a8c4e" x="228.92308" y="296.375824" style="stroke: #000000; stroke-width: 0.6"/>
      </g>
     </g>
    </g>
    <g id="xtick_20">
     <g id="line2d_24">
      <g>
       <use xlink:href="#mac181a8c4e" x="236.673713" y="296.375824" style="stroke: #000000; stroke-width: 0.6"/>
      </g>
     </g>
    </g>
    <g id="xtick_21">
     <g id="line2d_25">
      <g>
       <use xlink:href="#mac181a8c4e" x="243.226781" y="296.375824" style="stroke: #000000; stroke-width: 0.6"/>
      </g>
     </g>
    </g>
    <g id="xtick_22">
     <g id="line2d_26">
      <g>
       <use xlink:href="#mac181a8c4e" x="248.903306" y="296.375824" style="stroke: #000000; stroke-width: 0.6"/>
      </g>
     </g>
    </g>
    <g id="xtick_23">
     <g id="line2d_27">
      <g>
       <use xlink:href="#mac181a8c4e" x="253.910356" y="296.375824" style="stroke: #000000; stroke-width: 0.6"/>
      </g>
     </g>
    </g>
    <g id="xtick_24">
     <g id="line2d_28">
      <g>
       <use xlink:href="#mac181a8c4e" x="287.85555" y="296.375824" style="stroke: #000000; stroke-width: 0.6"/>
      </g>
     </g>
    </g>
    <g id="xtick_25">
     <g id="line2d_29">
      <g>
       <use xlink:href="#mac181a8c4e" x="305.092192" y="296.375824" style="stroke: #000000; stroke-width: 0.6"/>
      </g>
     </g>
    </g>
    <g id="xtick_26">
     <g id="line2d_30">
      <g>
       <use xlink:href="#mac181a8c4e" x="317.321784" y="296.375824" style="stroke: #000000; stroke-width: 0.6"/>
      </g>
     </g>
    </g>
    <g id="xtick_27">
     <g id="line2d_31">
      <g>
       <use xlink:href="#mac181a8c4e" x="326.807793" y="296.375824" style="stroke: #000000; stroke-width: 0.6"/>
      </g>
     </g>
    </g>
    <g id="xtick_28">
     <g id="line2d_32">
      <g>
       <use xlink:href="#mac181a8c4e" x="334.558427" y="296.375824" style="stroke: #000000; stroke-width: 0.6"/>
      </g>
     </g>
    </g>
    <g id="xtick_29">
     <g id="line2d_33">
      <g>
       <use xlink:href="#mac181a8c4e" x="341.111494" y="296.375824" style="stroke: #000000; stroke-width: 0.6"/>
      </g>
     </g>
    </g>
    <g id="xtick_30">
     <g id="line2d_34">
      <g>
       <use xlink:href="#mac181a8c4e" x="346.788019" y="296.375824" style="stroke: #000000; stroke-width: 0.6"/>
      </g>
     </g>
    </g>
    <g id="xtick_31">
     <g id="line2d_35">
      <g>
       <use xlink:href="#mac181a8c4e" x="351.795069" y="296.375824" style="stroke: #000000; stroke-width: 0.6"/>
      </g>
     </g>
    </g>
    <g id="xtick_32">
     <g id="line2d_36">
      <g>
       <use xlink:href="#mac181a8c4e" x="385.740263" y="296.375824" style="stroke: #000000; stroke-width: 0.6"/>
      </g>
     </g>
    </g>
    <g id="xtick_33">
     <g id="line2d_37">
      <g>
       <use xlink:href="#mac181a8c4e" x="402.976906" y="296.375824" style="stroke: #000000; stroke-width: 0.6"/>
      </g>
     </g>
    </g>
    <g id="xtick_34">
     <g id="line2d_38">
      <g>
       <use xlink:href="#mac181a8c4e" x="415.206498" y="296.375824" style="stroke: #000000; stroke-width: 0.6"/>
      </g>
     </g>
    </g>
    <g id="xtick_35">
     <g id="line2d_39">
      <g>
       <use xlink:href="#mac181a8c4e" x="424.692507" y="296.375824" style="stroke: #000000; stroke-width: 0.6"/>
      </g>
     </g>
    </g>
    <g id="xtick_36">
     <g id="line2d_40">
      <g>
       <use xlink:href="#mac181a8c4e" x="432.443141" y="296.375824" style="stroke: #000000; stroke-width: 0.6"/>
      </g>
     </g>
    </g>
    <g id="xtick_37">
     <g id="line2d_41">
      <g>
       <use xlink:href="#mac181a8c4e" x="438.996208" y="296.375824" style="stroke: #000000; stroke-width: 0.6"/>
      </g>
     </g>
    </g>
    <g id="text_5">
     <!-- particle radius [µm] -->
     <g transform="translate(194.216813 324.652387) scale(0.1 -0.1)">
      <defs>
       <path id="DejaVuSans-70" d="M 1159 525 
L 1159 -1331 
L 581 -1331 
L 581 3500 
L 1159 3500 
L 1159 2969 
Q 1341 3281 1617 3432 
Q 1894 3584 2278 3584 
Q 2916 3584 3314 3078 
Q 3713 2572 3713 1747 
Q 3713 922 3314 415 
Q 2916 -91 2278 -91 
Q 1894 -91 1617 61 
Q 1341 213 1159 525 
z
M 3116 1747 
Q 3116 2381 2855 2742 
Q 2594 3103 2138 3103 
Q 1681 3103 1420 2742 
Q 1159 2381 1159 1747 
Q 1159 1113 1420 752 
Q 1681 391 2138 391 
Q 2594 391 2855 752 
Q 3116 1113 3116 1747 
z
" transform="scale(0.015625)"/>
       <path id="DejaVuSans-61" d="M 2194 1759 
Q 1497 1759 1228 1600 
Q 959 1441 959 1056 
Q 959 750 1161 570 
Q 1363 391 1709 391 
Q 2188 391 2477 730 
Q 2766 1069 2766 1631 
L 2766 1759 
L 2194 1759 
z
M 3341 1997 
L 3341 0 
L 2766 0 
L 2766 531 
Q 2569 213 2275 61 
Q 1981 -91 1556 -91 
Q 1019 -91 701 211 
Q 384 513 384 1019 
Q 384 1609 779 1909 
Q 1175 2209 1959 2209 
L 2766 2209 
L 2766 2266 
Q 2766 2663 2505 2880 
Q 2244 3097 1772 3097 
Q 1472 3097 1187 3025 
Q 903 2953 641 2809 
L 641 3341 
Q 956 3463 1253 3523 
Q 1550 3584 1831 3584 
Q 2591 3584 2966 3190 
Q 3341 2797 3341 1997 
z
" transform="scale(0.015625)"/>
       <path id="DejaVuSans-72" d="M 2631 2963 
Q 2534 3019 2420 3045 
Q 2306 3072 2169 3072 
Q 1681 3072 1420 2755 
Q 1159 2438 1159 1844 
L 1159 0 
L 581 0 
L 581 3500 
L 1159 3500 
L 1159 2956 
Q 1341 3275 1631 3429 
Q 1922 3584 2338 3584 
Q 2397 3584 2469 3576 
Q 2541 3569 2628 3553 
L 2631 2963 
z
" transform="scale(0.015625)"/>
       <path id="DejaVuSans-74" d="M 1172 4494 
L 1172 3500 
L 2356 3500 
L 2356 3053 
L 1172 3053 
L 1172 1153 
Q 1172 725 1289 603 
Q 1406 481 1766 481 
L 2356 481 
L 2356 0 
L 1766 0 
Q 1100 0 847 248 
Q 594 497 594 1153 
L 594 3053 
L 172 3053 
L 172 3500 
L 594 3500 
L 594 4494 
L 1172 4494 
z
" transform="scale(0.015625)"/>
       <path id="DejaVuSans-69" d="M 603 3500 
L 1178 3500 
L 1178 0 
L 603 0 
L 603 3500 
z
M 603 4863 
L 1178 4863 
L 1178 4134 
L 603 4134 
L 603 4863 
z
" transform="scale(0.015625)"/>
       <path id="DejaVuSans-63" d="M 3122 3366 
L 3122 2828 
Q 2878 2963 2633 3030 
Q 2388 3097 2138 3097 
Q 1578 3097 1268 2742 
Q 959 2388 959 1747 
Q 959 1106 1268 751 
Q 1578 397 2138 397 
Q 2388 397 2633 464 
Q 2878 531 3122 666 
L 3122 134 
Q 2881 22 2623 -34 
Q 2366 -91 2075 -91 
Q 1284 -91 818 406 
Q 353 903 353 1747 
Q 353 2603 823 3093 
Q 1294 3584 2113 3584 
Q 2378 3584 2631 3529 
Q 2884 3475 3122 3366 
z
" transform="scale(0.015625)"/>
       <path id="DejaVuSans-6c" d="M 603 4863 
L 1178 4863 
L 1178 0 
L 603 0 
L 603 4863 
z
" transform="scale(0.015625)"/>
       <path id="DejaVuSans-65" d="M 3597 1894 
L 3597 1613 
L 953 1613 
Q 991 1019 1311 708 
Q 1631 397 2203 397 
Q 2534 397 2845 478 
Q 3156 559 3463 722 
L 3463 178 
Q 3153 47 2828 -22 
Q 2503 -91 2169 -91 
Q 1331 -91 842 396 
Q 353 884 353 1716 
Q 353 2575 817 3079 
Q 1281 3584 2069 3584 
Q 2775 3584 3186 3129 
Q 3597 2675 3597 1894 
z
M 3022 2063 
Q 3016 2534 2758 2815 
Q 2500 3097 2075 3097 
Q 1594 3097 1305 2825 
Q 1016 2553 972 2059 
L 3022 2063 
z
" transform="scale(0.015625)"/>
       <path id="DejaVuSans-20" transform="scale(0.015625)"/>
       <path id="DejaVuSans-64" d="M 2906 2969 
L 2906 4863 
L 3481 4863 
L 3481 0 
L 2906 0 
L 2906 525 
Q 2725 213 2448 61 
Q 2172 -91 1784 -91 
Q 1150 -91 751 415 
Q 353 922 353 1747 
Q 353 2572 751 3078 
Q 1150 3584 1784 3584 
Q 2172 3584 2448 3432 
Q 2725 3281 2906 2969 
z
M 947 1747 
Q 947 1113 1208 752 
Q 1469 391 1925 391 
Q 2381 391 2643 752 
Q 2906 1113 2906 1747 
Q 2906 2381 2643 2742 
Q 2381 3103 1925 3103 
Q 1469 3103 1208 2742 
Q 947 2381 947 1747 
z
" transform="scale(0.015625)"/>
       <path id="DejaVuSans-75" d="M 544 1381 
L 544 3500 
L 1119 3500 
L 1119 1403 
Q 1119 906 1312 657 
Q 1506 409 1894 409 
Q 2359 409 2629 706 
Q 2900 1003 2900 1516 
L 2900 3500 
L 3475 3500 
L 3475 0 
L 2900 0 
L 2900 538 
Q 2691 219 2414 64 
Q 2138 -91 1772 -91 
Q 1169 -91 856 284 
Q 544 659 544 1381 
z
M 1991 3584 
L 1991 3584 
z
" transform="scale(0.015625)"/>
       <path id="DejaVuSans-73" d="M 2834 3397 
L 2834 2853 
Q 2591 2978 2328 3040 
Q 2066 3103 1784 3103 
Q 1356 3103 1142 2972 
Q 928 2841 928 2578 
Q 928 2378 1081 2264 
Q 1234 2150 1697 2047 
L 1894 2003 
Q 2506 1872 2764 1633 
Q 3022 1394 3022 966 
Q 3022 478 2636 193 
Q 2250 -91 1575 -91 
Q 1294 -91 989 -36 
Q 684 19 347 128 
L 347 722 
Q 666 556 975 473 
Q 1284 391 1588 391 
Q 1994 391 2212 530 
Q 2431 669 2431 922 
Q 2431 1156 2273 1281 
Q 2116 1406 1581 1522 
L 1381 1569 
Q 847 1681 609 1914 
Q 372 2147 372 2553 
Q 372 3047 722 3315 
Q 1072 3584 1716 3584 
Q 2034 3584 2315 3537 
Q 2597 3491 2834 3397 
z
" transform="scale(0.015625)"/>
       <path id="DejaVuSans-5b" d="M 550 4863 
L 1875 4863 
L 1875 4416 
L 1125 4416 
L 1125 -397 
L 1875 -397 
L 1875 -844 
L 550 -844 
L 550 4863 
z
" transform="scale(0.015625)"/>
       <path id="DejaVuSans-b5" d="M 544 -1331 
L 544 3500 
L 1119 3500 
L 1119 1325 
Q 1119 872 1334 640 
Q 1550 409 1972 409 
Q 2434 409 2667 671 
Q 2900 934 2900 1459 
L 2900 3500 
L 3475 3500 
L 3475 806 
Q 3475 619 3529 530 
Q 3584 441 3700 441 
Q 3728 441 3778 458 
Q 3828 475 3916 513 
L 3916 50 
Q 3788 -22 3673 -56 
Q 3559 -91 3450 -91 
Q 3234 -91 3106 31 
Q 2978 153 2931 403 
Q 2775 156 2548 32 
Q 2322 -91 2016 -91 
Q 1697 -91 1473 31 
Q 1250 153 1119 397 
L 1119 -1331 
L 544 -1331 
z
" transform="scale(0.015625)"/>
       <path id="DejaVuSans-6d" d="M 3328 2828 
Q 3544 3216 3844 3400 
Q 4144 3584 4550 3584 
Q 5097 3584 5394 3201 
Q 5691 2819 5691 2113 
L 5691 0 
L 5113 0 
L 5113 2094 
Q 5113 2597 4934 2840 
Q 4756 3084 4391 3084 
Q 3944 3084 3684 2787 
Q 3425 2491 3425 1978 
L 3425 0 
L 2847 0 
L 2847 2094 
Q 2847 2600 2669 2842 
Q 2491 3084 2119 3084 
Q 1678 3084 1418 2786 
Q 1159 2488 1159 1978 
L 1159 0 
L 581 0 
L 581 3500 
L 1159 3500 
L 1159 2956 
Q 1356 3278 1631 3431 
Q 1906 3584 2284 3584 
Q 2666 3584 2933 3390 
Q 3200 3197 3328 2828 
z
" transform="scale(0.015625)"/>
       <path id="DejaVuSans-5d" d="M 1947 4863 
L 1947 -844 
L 622 -844 
L 622 -397 
L 1369 -397 
L 1369 4416 
L 622 4416 
L 622 4863 
L 1947 4863 
z
" transform="scale(0.015625)"/>
      </defs>
      <use xlink:href="#DejaVuSans-70"/>
      <use xlink:href="#DejaVuSans-61" x="63.476562"/>
      <use xlink:href="#DejaVuSans-72" x="124.755859"/>
      <use xlink:href="#DejaVuSans-74" x="165.869141"/>
      <use xlink:href="#DejaVuSans-69" x="205.078125"/>
      <use xlink:href="#DejaVuSans-63" x="232.861328"/>
      <use xlink:href="#DejaVuSans-6c" x="287.841797"/>
      <use xlink:href="#DejaVuSans-65" x="315.625"/>
      <use xlink:href="#DejaVuSans-20" x="377.148438"/>
      <use xlink:href="#DejaVuSans-72" x="408.935547"/>
      <use xlink:href="#DejaVuSans-61" x="450.048828"/>
      <use xlink:href="#DejaVuSans-64" x="511.328125"/>
      <use xlink:href="#DejaVuSans-69" x="574.804688"/>
      <use xlink:href="#DejaVuSans-75" x="602.587891"/>
      <use xlink:href="#DejaVuSans-73" x="665.966797"/>
      <use xlink:href="#DejaVuSans-20" x="718.066406"/>
      <use xlink:href="#DejaVuSans-5b" x="749.853516"/>
      <use xlink:href="#DejaVuSans-b5" x="788.867188"/>
      <use xlink:href="#DejaVuSans-6d" x="852.490234"/>
      <use xlink:href="#DejaVuSans-5d" x="949.902344"/>
     </g>
    </g>
   </g>
   <g id="matplotlib.axis_2">
    <g id="ytick_1">
     <g id="line2d_42">
      <path d="M 45.303125 283.231468 
L 442.021125 283.231468 
" clip-path="url(#pd546db43df)" style="fill: none; stroke: #b0b0b0; stroke-width: 0.8; stroke-linecap: square"/>
     </g>
     <g id="line2d_43">
      <defs>
       <path id="m8ef37e5687" d="M 0 0 
L -3.5 0 
" style="stroke: #000000; stroke-width: 0.8"/>
      </defs>
      <g>
       <use xlink:href="#m8ef37e5687" x="45.303125" y="283.231468" style="stroke: #000000; stroke-width: 0.8"/>
      </g>
     </g>
     <g id="text_6">
      <!-- 0.0 -->
      <g transform="translate(22.4 287.030687) scale(0.1 -0.1)">
       <defs>
        <path id="DejaVuSans-2e" d="M 684 794 
L 1344 794 
L 1344 0 
L 684 0 
L 684 794 
z
" transform="scale(0.015625)"/>
       </defs>
       <use xlink:href="#DejaVuSans-30"/>
       <use xlink:href="#DejaVuSans-2e" x="63.623047"/>
       <use xlink:href="#DejaVuSans-30" x="95.410156"/>
      </g>
     </g>
    </g>
    <g id="ytick_2">
     <g id="line2d_44">
      <path d="M 45.303125 249.217599 
L 442.021125 249.217599 
" clip-path="url(#pd546db43df)" style="fill: none; stroke: #b0b0b0; stroke-width: 0.8; stroke-linecap: square"/>
     </g>
     <g id="line2d_45">
      <g>
       <use xlink:href="#m8ef37e5687" x="45.303125" y="249.217599" style="stroke: #000000; stroke-width: 0.8"/>
      </g>
     </g>
     <g id="text_7">
      <!-- 0.2 -->
      <g transform="translate(22.4 253.016818) scale(0.1 -0.1)">
       <use xlink:href="#DejaVuSans-30"/>
       <use xlink:href="#DejaVuSans-2e" x="63.623047"/>
       <use xlink:href="#DejaVuSans-32" x="95.410156"/>
      </g>
     </g>
    </g>
    <g id="ytick_3">
     <g id="line2d_46">
      <path d="M 45.303125 215.20373 
L 442.021125 215.20373 
" clip-path="url(#pd546db43df)" style="fill: none; stroke: #b0b0b0; stroke-width: 0.8; stroke-linecap: square"/>
     </g>
     <g id="line2d_47">
      <g>
       <use xlink:href="#m8ef37e5687" x="45.303125" y="215.20373" style="stroke: #000000; stroke-width: 0.8"/>
      </g>
     </g>
     <g id="text_8">
      <!-- 0.4 -->
      <g transform="translate(22.4 219.002948) scale(0.1 -0.1)">
       <use xlink:href="#DejaVuSans-30"/>
       <use xlink:href="#DejaVuSans-2e" x="63.623047"/>
       <use xlink:href="#DejaVuSans-34" x="95.410156"/>
      </g>
     </g>
    </g>
    <g id="ytick_4">
     <g id="line2d_48">
      <path d="M 45.303125 181.18986 
L 442.021125 181.18986 
" clip-path="url(#pd546db43df)" style="fill: none; stroke: #b0b0b0; stroke-width: 0.8; stroke-linecap: square"/>
     </g>
     <g id="line2d_49">
      <g>
       <use xlink:href="#m8ef37e5687" x="45.303125" y="181.18986" style="stroke: #000000; stroke-width: 0.8"/>
      </g>
     </g>
     <g id="text_9">
      <!-- 0.6 -->
      <g transform="translate(22.4 184.989079) scale(0.1 -0.1)">
       <defs>
        <path id="DejaVuSans-36" d="M 2113 2584 
Q 1688 2584 1439 2293 
Q 1191 2003 1191 1497 
Q 1191 994 1439 701 
Q 1688 409 2113 409 
Q 2538 409 2786 701 
Q 3034 994 3034 1497 
Q 3034 2003 2786 2293 
Q 2538 2584 2113 2584 
z
M 3366 4563 
L 3366 3988 
Q 3128 4100 2886 4159 
Q 2644 4219 2406 4219 
Q 1781 4219 1451 3797 
Q 1122 3375 1075 2522 
Q 1259 2794 1537 2939 
Q 1816 3084 2150 3084 
Q 2853 3084 3261 2657 
Q 3669 2231 3669 1497 
Q 3669 778 3244 343 
Q 2819 -91 2113 -91 
Q 1303 -91 875 529 
Q 447 1150 447 2328 
Q 447 3434 972 4092 
Q 1497 4750 2381 4750 
Q 2619 4750 2861 4703 
Q 3103 4656 3366 4563 
z
" transform="scale(0.015625)"/>
       </defs>
       <use xlink:href="#DejaVuSans-30"/>
       <use xlink:href="#DejaVuSans-2e" x="63.623047"/>
       <use xlink:href="#DejaVuSans-36" x="95.410156"/>
      </g>
     </g>
    </g>
    <g id="ytick_5">
     <g id="line2d_50">
      <path d="M 45.303125 147.175991 
L 442.021125 147.175991 
" clip-path="url(#pd546db43df)" style="fill: none; stroke: #b0b0b0; stroke-width: 0.8; stroke-linecap: square"/>
     </g>
     <g id="line2d_51">
      <g>
       <use xlink:href="#m8ef37e5687" x="45.303125" y="147.175991" style="stroke: #000000; stroke-width: 0.8"/>
      </g>
     </g>
     <g id="text_10">
      <!-- 0.8 -->
      <g transform="translate(22.4 150.975209) scale(0.1 -0.1)">
       <defs>
        <path id="DejaVuSans-38" d="M 2034 2216 
Q 1584 2216 1326 1975 
Q 1069 1734 1069 1313 
Q 1069 891 1326 650 
Q 1584 409 2034 409 
Q 2484 409 2743 651 
Q 3003 894 3003 1313 
Q 3003 1734 2745 1975 
Q 2488 2216 2034 2216 
z
M 1403 2484 
Q 997 2584 770 2862 
Q 544 3141 544 3541 
Q 544 4100 942 4425 
Q 1341 4750 2034 4750 
Q 2731 4750 3128 4425 
Q 3525 4100 3525 3541 
Q 3525 3141 3298 2862 
Q 3072 2584 2669 2484 
Q 3125 2378 3379 2068 
Q 3634 1759 3634 1313 
Q 3634 634 3220 271 
Q 2806 -91 2034 -91 
Q 1263 -91 848 271 
Q 434 634 434 1313 
Q 434 1759 690 2068 
Q 947 2378 1403 2484 
z
M 1172 3481 
Q 1172 3119 1398 2916 
Q 1625 2713 2034 2713 
Q 2441 2713 2670 2916 
Q 2900 3119 2900 3481 
Q 2900 3844 2670 4047 
Q 2441 4250 2034 4250 
Q 1625 4250 1398 4047 
Q 1172 3844 1172 3481 
z
" transform="scale(0.015625)"/>
       </defs>
       <use xlink:href="#DejaVuSans-30"/>
       <use xlink:href="#DejaVuSans-2e" x="63.623047"/>
       <use xlink:href="#DejaVuSans-38" x="95.410156"/>
      </g>
     </g>
    </g>
    <g id="ytick_6">
     <g id="line2d_52">
      <path d="M 45.303125 113.162121 
L 442.021125 113.162121 
" clip-path="url(#pd546db43df)" style="fill: none; stroke: #b0b0b0; stroke-width: 0.8; stroke-linecap: square"/>
     </g>
     <g id="line2d_53">
      <g>
       <use xlink:href="#m8ef37e5687" x="45.303125" y="113.162121" style="stroke: #000000; stroke-width: 0.8"/>
      </g>
     </g>
     <g id="text_11">
      <!-- 1.0 -->
      <g transform="translate(22.4 116.96134) scale(0.1 -0.1)">
       <use xlink:href="#DejaVuSans-31"/>
       <use xlink:href="#DejaVuSans-2e" x="63.623047"/>
       <use xlink:href="#DejaVuSans-30" x="95.410156"/>
      </g>
     </g>
    </g>
    <g id="ytick_7">
     <g id="line2d_54">
      <path d="M 45.303125 79.148252 
L 442.021125 79.148252 
" clip-path="url(#pd546db43df)" style="fill: none; stroke: #b0b0b0; stroke-width: 0.8; stroke-linecap: square"/>
     </g>
     <g id="line2d_55">
      <g>
       <use xlink:href="#m8ef37e5687" x="45.303125" y="79.148252" style="stroke: #000000; stroke-width: 0.8"/>
      </g>
     </g>
     <g id="text_12">
      <!-- 1.2 -->
      <g transform="translate(22.4 82.94747) scale(0.1 -0.1)">
       <use xlink:href="#DejaVuSans-31"/>
       <use xlink:href="#DejaVuSans-2e" x="63.623047"/>
       <use xlink:href="#DejaVuSans-32" x="95.410156"/>
      </g>
     </g>
    </g>
    <g id="ytick_8">
     <g id="line2d_56">
      <path d="M 45.303125 45.134382 
L 442.021125 45.134382 
" clip-path="url(#pd546db43df)" style="fill: none; stroke: #b0b0b0; stroke-width: 0.8; stroke-linecap: square"/>
     </g>
     <g id="line2d_57">
      <g>
       <use xlink:href="#m8ef37e5687" x="45.303125" y="45.134382" style="stroke: #000000; stroke-width: 0.8"/>
      </g>
     </g>
     <g id="text_13">
      <!-- 1.4 -->
      <g transform="translate(22.4 48.933601) scale(0.1 -0.1)">
       <use xlink:href="#DejaVuSans-31"/>
       <use xlink:href="#DejaVuSans-2e" x="63.623047"/>
       <use xlink:href="#DejaVuSans-34" x="95.410156"/>
      </g>
     </g>
    </g>
    <g id="ytick_9">
     <g id="line2d_58">
      <path d="M 45.303125 11.120513 
L 442.021125 11.120513 
" clip-path="url(#pd546db43df)" style="fill: none; stroke: #b0b0b0; stroke-width: 0.8; stroke-linecap: square"/>
     </g>
     <g id="line2d_59">
      <g>
       <use xlink:href="#m8ef37e5687" x="45.303125" y="11.120513" style="stroke: #000000; stroke-width: 0.8"/>
      </g>
     </g>
     <g id="text_14">
      <!-- 1.6 -->
      <g transform="translate(22.4 14.919732) scale(0.1 -0.1)">
       <use xlink:href="#DejaVuSans-31"/>
       <use xlink:href="#DejaVuSans-2e" x="63.623047"/>
       <use xlink:href="#DejaVuSans-36" x="95.410156"/>
      </g>
     </g>
    </g>
    <g id="text_15">
     <!-- dm/dlnr [g/m$^3$] -->
     <g transform="translate(16.3 188.937912) rotate(-90) scale(0.1 -0.1)">
      <defs>
       <path id="DejaVuSans-2f" d="M 1625 4666 
L 2156 4666 
L 531 -594 
L 0 -594 
L 1625 4666 
z
" transform="scale(0.015625)"/>
       <path id="DejaVuSans-6e" d="M 3513 2113 
L 3513 0 
L 2938 0 
L 2938 2094 
Q 2938 2591 2744 2837 
Q 2550 3084 2163 3084 
Q 1697 3084 1428 2787 
Q 1159 2491 1159 1978 
L 1159 0 
L 581 0 
L 581 3500 
L 1159 3500 
L 1159 2956 
Q 1366 3272 1645 3428 
Q 1925 3584 2291 3584 
Q 2894 3584 3203 3211 
Q 3513 2838 3513 2113 
z
" transform="scale(0.015625)"/>
       <path id="DejaVuSans-67" d="M 2906 1791 
Q 2906 2416 2648 2759 
Q 2391 3103 1925 3103 
Q 1463 3103 1205 2759 
Q 947 2416 947 1791 
Q 947 1169 1205 825 
Q 1463 481 1925 481 
Q 2391 481 2648 825 
Q 2906 1169 2906 1791 
z
M 3481 434 
Q 3481 -459 3084 -895 
Q 2688 -1331 1869 -1331 
Q 1566 -1331 1297 -1286 
Q 1028 -1241 775 -1147 
L 775 -588 
Q 1028 -725 1275 -790 
Q 1522 -856 1778 -856 
Q 2344 -856 2625 -561 
Q 2906 -266 2906 331 
L 2906 616 
Q 2728 306 2450 153 
Q 2172 0 1784 0 
Q 1141 0 747 490 
Q 353 981 353 1791 
Q 353 2603 747 3093 
Q 1141 3584 1784 3584 
Q 2172 3584 2450 3431 
Q 2728 3278 2906 2969 
L 2906 3500 
L 3481 3500 
L 3481 434 
z
" transform="scale(0.015625)"/>
      </defs>
      <use xlink:href="#DejaVuSans-64" transform="translate(0 0.765625)"/>
      <use xlink:href="#DejaVuSans-6d" transform="translate(63.476562 0.765625)"/>
      <use xlink:href="#DejaVuSans-2f" transform="translate(160.888672 0.765625)"/>
      <use xlink:href="#DejaVuSans-64" transform="translate(194.580078 0.765625)"/>
      <use xlink:href="#DejaVuSans-6c" transform="translate(258.056641 0.765625)"/>
      <use xlink:href="#DejaVuSans-6e" transform="translate(285.839844 0.765625)"/>
      <use xlink:href="#DejaVuSans-72" transform="translate(349.21875 0.765625)"/>
      <use xlink:href="#DejaVuSans-20" transform="translate(390.332031 0.765625)"/>
      <use xlink:href="#DejaVuSans-5b" transform="translate(422.119141 0.765625)"/>
      <use xlink:href="#DejaVuSans-67" transform="translate(461.132812 0.765625)"/>
      <use xlink:href="#DejaVuSans-2f" transform="translate(524.609375 0.765625)"/>
      <use xlink:href="#DejaVuSans-6d" transform="translate(558.300781 0.765625)"/>
      <use xlink:href="#DejaVuSans-33" transform="translate(656.669922 39.046875) scale(0.7)"/>
      <use xlink:href="#DejaVuSans-5d" transform="translate(703.94043 0.765625)"/>
     </g>
    </g>
   </g>
   <g id="line2d_60">
    <path d="M 63.335761 282.524906 
L 67.595439 281.959969 
L 70.435224 281.355133 
L 73.27501 280.469754 
L 74.694902 279.884786 
L 76.114795 279.179454 
L 77.534688 278.330204 
L 78.95458 277.309285 
L 80.374473 276.084148 
L 81.794366 274.616805 
L 83.214258 272.863171 
L 84.634151 270.772429 
L 86.054043 268.286437 
L 87.473936 265.339276 
L 88.893829 261.856983 
L 90.313721 257.757615 
L 91.733614 252.951765 
L 93.153507 247.34372 
L 94.573399 240.833468 
L 95.993292 233.319803 
L 97.413184 224.704817 
L 98.833077 214.900036 
L 100.25297 203.834492 
L 101.672862 191.464917 
L 103.092755 177.78813 
L 105.93254 146.788869 
L 108.772325 112.193507 
L 111.612111 76.984703 
L 113.032003 60.60405 
L 114.451896 46.042006 
L 115.871789 34.151227 
L 117.291681 25.807377 
L 118.711574 21.838249 
L 120.131466 22.93586 
L 121.551359 29.558732 
L 122.971252 41.836566 
L 124.391144 59.494045 
L 125.811037 81.812997 
L 127.23093 107.650735 
L 131.490607 190.723202 
L 132.9105 214.958078 
L 134.330393 235.451613 
L 135.750285 251.701148 
L 137.170178 263.732415 
L 138.590071 272.007968 
L 140.009963 277.264035 
L 141.429856 280.325039 
L 142.849748 281.946682 
L 144.269641 282.721241 
L 145.689534 283.051476 
L 148.529319 283.216553 
L 162.728245 283.231468 
L 423.988489 283.231468 
L 423.988489 283.231468 
" clip-path="url(#pd546db43df)" style="fill: none; stroke: #000000; stroke-width: 1.5; stroke-linecap: square"/>
   </g>
   <g id="line2d_61">
    <path d="M 63.335761 282.542126 
L 67.595439 281.989821 
L 71.855117 280.96388 
L 74.694902 279.950617 
L 77.534688 278.348621 
L 78.95458 277.280137 
L 80.374473 276.037411 
L 81.794366 274.600204 
L 83.214258 272.947028 
L 86.054043 268.376168 
L 88.893829 262.022081 
L 90.313721 257.630918 
L 91.733614 252.877449 
L 93.153507 247.418668 
L 94.573399 240.729121 
L 95.993292 233.492177 
L 97.413184 224.698334 
L 98.833077 214.57731 
L 101.672862 191.765052 
L 104.512648 163.097984 
L 107.352433 129.267764 
L 111.612111 76.737237 
L 114.451896 44.496615 
L 115.871789 34.277395 
L 117.291681 26.765619 
L 118.711574 20.344356 
L 120.131466 22.949849 
L 121.551359 29.086853 
L 122.971252 42.522982 
L 124.391144 58.143948 
L 125.811037 83.541119 
L 127.23093 104.159486 
L 128.650822 135.870864 
L 130.070715 161.020477 
L 131.490607 193.222225 
L 134.330393 235.334962 
L 135.750285 253.139518 
L 137.170178 258.178169 
L 138.590071 273.931831 
L 140.009963 272.697269 
L 141.429856 283.231468 
L 421.148703 283.231468 
L 421.148703 283.231468 
" clip-path="url(#pd546db43df)" style="fill: none; stroke: #2cbdfe; stroke-width: 1.5; stroke-linecap: square"/>
   </g>
   <g id="line2d_62">
    <path d="M 63.335761 283.10733 
L 71.855117 282.841205 
L 77.534688 282.413189 
L 81.794366 281.83111 
L 84.634151 281.250099 
L 87.473936 280.458182 
L 90.313721 279.398652 
L 93.153507 278.011633 
L 95.993292 276.241187 
L 98.833077 274.04533 
L 101.672862 271.407153 
L 104.512648 268.343154 
L 107.352433 264.903431 
L 110.192218 261.159678 
L 114.451896 255.121215 
L 118.711574 248.663372 
L 122.971252 241.718289 
L 125.811037 236.743384 
L 128.650822 231.446386 
L 131.490607 225.801923 
L 134.330393 219.798618 
L 138.590071 210.135114 
L 142.849748 199.779321 
L 154.208889 171.342272 
L 157.048675 165.128645 
L 158.468567 162.372572 
L 159.88846 159.921348 
L 161.308353 157.833736 
L 162.728245 156.172231 
L 164.148138 155.002163 
L 165.568031 154.390419 
L 166.987923 154.40375 
L 168.407816 155.106603 
L 169.827708 156.558458 
L 171.247601 158.810674 
L 172.667494 161.90288 
L 174.087386 165.859023 
L 175.507279 170.683234 
L 176.927172 176.355774 
L 178.347064 182.829413 
L 179.766957 190.02666 
L 182.606742 206.124172 
L 188.286313 240.348072 
L 189.706205 248.162436 
L 191.126098 255.302767 
L 192.54599 261.631263 
L 193.965883 267.057927 
L 195.385776 271.546941 
L 196.805668 275.117403 
L 198.225561 277.83789 
L 199.645454 279.815406 
L 201.065346 281.180434 
L 202.485239 282.070626 
L 203.905131 282.615973 
L 205.325024 282.927843 
L 208.164809 283.173792 
L 213.84438 283.230878 
L 394.170743 283.231468 
L 394.170743 283.231468 
" clip-path="url(#pd546db43df)" style="fill: none; stroke: #000000; stroke-width: 1.5; stroke-linecap: square"/>
   </g>
   <g id="line2d_63">
    <path d="M 63.335761 283.122014 
L 73.27501 282.691889 
L 81.794366 281.914025 
L 84.634151 281.373925 
L 87.473936 280.509323 
L 90.313721 279.357428 
L 93.153507 277.860687 
L 95.993292 275.977728 
L 100.25297 272.76523 
L 101.672862 271.612207 
L 103.092755 270.305248 
L 104.512648 268.743566 
L 105.93254 266.912431 
L 108.772325 262.594992 
L 111.612111 258.360265 
L 114.451896 254.776322 
L 117.291681 251.157808 
L 120.131466 246.72771 
L 122.971252 241.299286 
L 127.23093 232.133025 
L 128.650822 229.595626 
L 130.070715 227.723096 
L 131.490607 226.663688 
L 132.9105 225.785062 
L 134.330393 224.535982 
L 135.750285 222.283087 
L 137.170178 219.145275 
L 141.429856 207.690838 
L 142.849748 205.240471 
L 144.269641 203.752044 
L 145.689534 202.611816 
L 147.109426 200.764984 
L 148.529319 197.534148 
L 149.949212 192.325762 
L 151.369104 185.404736 
L 155.628782 161.882028 
L 157.048675 155.162889 
L 158.468567 149.611929 
L 159.88846 145.764069 
L 161.308353 144.488105 
L 162.728245 145.315534 
L 165.568031 150.381186 
L 166.987923 151.931555 
L 168.407816 150.996921 
L 169.827708 148.347402 
L 171.247601 145.043337 
L 172.667494 143.52258 
L 174.087386 145.497119 
L 175.507279 152.020092 
L 176.927172 162.989294 
L 181.186849 205.36948 
L 182.606742 216.294522 
L 184.026635 224.437147 
L 186.86642 238.743011 
L 191.126098 262.603661 
L 192.54599 268.58103 
L 193.965883 272.510321 
L 195.385776 275.033432 
L 199.645454 280.855829 
L 201.065346 282.321002 
L 202.485239 283.003852 
L 203.905131 283.231468 
L 422.568596 283.231468 
L 422.568596 283.231468 
" clip-path="url(#pd546db43df)" style="fill: none; stroke: #5986e5; stroke-width: 1.5; stroke-linecap: square"/>
   </g>
   <g id="line2d_64">
    <path d="M 63.335761 283.209092 
L 78.95458 283.056578 
L 87.473936 282.742806 
L 93.153507 282.322303 
L 98.833077 281.654512 
L 104.512648 280.716609 
L 110.192218 279.557223 
L 117.291681 277.895205 
L 122.971252 276.379364 
L 128.650822 274.614215 
L 132.9105 273.075741 
L 137.170178 271.313123 
L 141.429856 269.286841 
L 145.689534 266.952872 
L 149.949212 264.261931 
L 152.788997 262.242741 
L 155.628782 260.022853 
L 158.468567 257.583441 
L 161.308353 254.904696 
L 164.148138 251.966037 
L 166.987923 248.746461 
L 169.827708 245.225059 
L 172.667494 241.381781 
L 175.507279 237.198513 
L 178.347064 232.660577 
L 181.186849 227.758765 
L 184.026635 222.492064 
L 186.86642 216.871223 
L 191.126098 207.841137 
L 196.805668 195.0202 
L 202.485239 182.21772 
L 205.325024 176.339322 
L 208.164809 171.211034 
L 209.584702 169.046569 
L 211.004595 167.219887 
L 212.424487 165.788805 
L 213.84438 164.813622 
L 215.264272 164.355904 
L 216.684165 164.476888 
L 218.104058 165.235437 
L 219.52395 166.685549 
L 220.943843 168.873413 
L 222.363736 171.834052 
L 223.783628 175.587669 
L 225.203521 180.135848 
L 226.623413 185.457856 
L 228.043306 191.507382 
L 229.463199 198.210113 
L 232.302984 213.132965 
L 237.982554 244.592125 
L 239.402447 251.721424 
L 240.82234 258.214255 
L 242.242232 263.948501 
L 243.662125 268.846829 
L 245.082018 272.882034 
L 246.50191 276.077099 
L 247.921803 278.499593 
L 249.341696 280.251035 
L 250.761588 281.452886 
L 252.181481 282.231595 
L 253.601373 282.705256 
L 255.021266 282.974014 
L 257.861051 283.18349 
L 264.960514 283.231364 
L 394.170743 283.231468 
L 394.170743 283.231468 
" clip-path="url(#pd546db43df)" style="fill: none; stroke: #000000; stroke-width: 1.5; stroke-linecap: square"/>
   </g>
   <g id="line2d_65">
    <path d="M 63.335761 283.216667 
L 86.054043 282.863434 
L 91.733614 282.437094 
L 97.413184 281.761373 
L 105.93254 280.594447 
L 108.772325 279.918661 
L 114.451896 278.313166 
L 117.291681 277.813282 
L 120.131466 277.374383 
L 122.971252 276.65075 
L 125.811037 275.412542 
L 128.650822 273.841374 
L 130.070715 273.18913 
L 131.490607 272.889006 
L 132.9105 272.890374 
L 135.750285 273.303116 
L 137.170178 273.282684 
L 138.590071 272.941643 
L 140.009963 272.32261 
L 142.849748 270.546284 
L 149.949212 266.088165 
L 152.788997 264.718764 
L 154.208889 263.612645 
L 155.628782 261.961431 
L 159.88846 255.416508 
L 161.308353 253.706216 
L 164.148138 250.877799 
L 165.568031 249.12735 
L 166.987923 247.029975 
L 169.827708 242.172467 
L 171.247601 239.322043 
L 174.087386 233.123233 
L 175.507279 230.40025 
L 176.927172 228.163597 
L 178.347064 226.277473 
L 179.766957 224.703146 
L 181.186849 223.455043 
L 182.606742 222.670012 
L 185.446527 222.118328 
L 186.86642 221.249546 
L 188.286313 218.773675 
L 189.706205 214.727171 
L 193.965883 198.480787 
L 196.805668 188.914332 
L 201.065346 173.7624 
L 202.485239 168.983581 
L 203.905131 164.903031 
L 205.325024 162.316052 
L 206.744917 161.306444 
L 208.164809 161.497216 
L 212.424487 164.853629 
L 213.84438 165.5326 
L 215.264272 167.376662 
L 216.684165 170.314472 
L 218.104058 173.802769 
L 219.52395 176.464425 
L 220.943843 178.559833 
L 222.363736 180.139146 
L 223.783628 182.387921 
L 225.203521 186.538959 
L 226.623413 194.035057 
L 228.043306 204.33626 
L 229.463199 215.98999 
L 230.883091 226.425579 
L 232.302984 233.526758 
L 233.722877 235.697729 
L 235.142769 234.258574 
L 236.562662 232.321546 
L 237.982554 233.538884 
L 239.402447 239.242005 
L 240.82234 248.804353 
L 242.242232 259.542491 
L 243.662125 268.691777 
L 245.082018 274.632257 
L 246.50191 277.917679 
L 247.921803 279.961266 
L 249.341696 281.527189 
L 250.761588 282.619681 
L 252.181481 283.107657 
L 253.601373 283.231468 
L 422.568596 283.231468 
L 422.568596 283.231468 
" clip-path="url(#pd546db43df)" style="fill: none; stroke: #864fcb; stroke-width: 1.5; stroke-linecap: square"/>
   </g>
   <g id="line2d_66">
    <path d="M 63.335761 283.227416 
L 90.313721 283.110444 
L 103.092755 282.827307 
L 118.711574 282.217353 
L 131.490607 281.51989 
L 141.429856 280.748018 
L 149.949212 279.846418 
L 157.048675 278.864438 
L 162.728245 277.8845 
L 168.407816 276.689814 
L 174.087386 275.232792 
L 178.347064 273.9336 
L 182.606742 272.425957 
L 186.86642 270.676871 
L 191.126098 268.648529 
L 195.385776 266.297803 
L 198.225561 264.527671 
L 201.065346 262.576731 
L 203.905131 260.427867 
L 206.744917 258.062838 
L 209.584702 255.462389 
L 212.424487 252.606458 
L 215.264272 249.474495 
L 218.104058 246.045965 
L 220.943843 242.301065 
L 223.783628 238.221758 
L 226.623413 233.793194 
L 229.463199 229.005658 
L 232.302984 223.857172 
L 235.142769 218.356917 
L 239.402447 209.506735 
L 245.082018 196.902906 
L 250.761588 184.245022 
L 253.601373 178.388983 
L 256.441159 173.23439 
L 257.861051 171.034574 
L 259.280944 169.15565 
L 260.700837 167.653981 
L 262.120729 166.58859 
L 263.540622 166.020049 
L 264.960514 166.008988 
L 266.380407 166.614179 
L 267.8003 167.890184 
L 269.220192 169.884537 
L 270.640085 172.634525 
L 272.059978 176.163635 
L 273.47987 180.477819 
L 274.899763 185.5618 
L 276.319655 191.375734 
L 277.739548 197.852587 
L 280.579333 212.384061 
L 286.258904 243.491195 
L 287.678796 250.642409 
L 289.098689 257.197591 
L 290.518582 263.027662 
L 291.938474 268.045945 
L 293.358367 272.214456 
L 294.77826 275.545188 
L 296.198152 278.095797 
L 297.618045 279.960108 
L 299.037937 281.25485 
L 300.45783 282.104886 
L 301.877723 282.629495 
L 303.297615 282.931959 
L 306.137401 283.173428 
L 311.816971 283.230841 
L 394.170743 283.231468 
L 394.170743 283.231468 
" clip-path="url(#pd546db43df)" style="fill: none; stroke: #000000; stroke-width: 1.5; stroke-linecap: square"/>
   </g>
   <g id="line2d_67">
    <path d="M 63.335761 283.228266 
L 91.733614 283.084271 
L 104.512648 282.776336 
L 111.612111 282.482053 
L 117.291681 282.285972 
L 122.971252 282.124564 
L 127.23093 281.755372 
L 130.070715 281.468165 
L 132.9105 281.4113 
L 137.170178 281.545805 
L 140.009963 281.384406 
L 147.109426 280.506925 
L 149.949212 280.170796 
L 155.628782 279.730828 
L 162.728245 278.34983 
L 165.568031 277.542253 
L 169.827708 276.084474 
L 175.507279 274.425913 
L 178.347064 273.434576 
L 181.186849 272.653437 
L 184.026635 272.135894 
L 186.86642 271.834545 
L 188.286313 271.4115 
L 189.706205 270.636593 
L 191.126098 269.556097 
L 193.965883 267.086885 
L 196.805668 265.056653 
L 199.645454 262.934515 
L 205.325024 257.926502 
L 206.744917 256.105032 
L 209.584702 252.073568 
L 211.004595 250.819648 
L 212.424487 250.587157 
L 215.264272 251.789942 
L 216.684165 251.451826 
L 218.104058 249.681915 
L 220.943843 244.234223 
L 222.363736 242.149446 
L 223.783628 240.832603 
L 226.623413 239.438571 
L 228.043306 237.906863 
L 229.463199 234.613296 
L 230.883091 229.422842 
L 233.722877 217.243444 
L 235.142769 213.302729 
L 236.562662 212.051478 
L 239.402447 213.43902 
L 240.82234 212.036503 
L 242.242232 208.303415 
L 245.082018 199.020182 
L 247.921803 190.692951 
L 250.761588 181.992235 
L 252.181481 178.549497 
L 253.601373 176.537948 
L 255.021266 176.135113 
L 256.441159 176.767933 
L 257.861051 177.720695 
L 259.280944 178.245603 
L 260.700837 177.932206 
L 262.120729 175.884904 
L 263.540622 172.239973 
L 264.960514 167.876384 
L 266.380407 165.170768 
L 267.8003 166.055538 
L 269.220192 171.942064 
L 270.640085 182.135122 
L 272.059978 193.972135 
L 273.47987 204.338131 
L 274.899763 211.73025 
L 276.319655 216.169184 
L 277.739548 217.825127 
L 279.159441 216.136896 
L 280.579333 212.141448 
L 281.999226 206.671114 
L 283.419119 202.225865 
L 284.839011 199.680363 
L 286.258904 202.146669 
L 287.678796 209.957585 
L 289.098689 223.339897 
L 291.938474 254.538187 
L 293.358367 267.302159 
L 294.77826 276.230535 
L 296.198152 281.015657 
L 297.618045 282.8456 
L 299.037937 283.231468 
L 422.568596 283.231468 
L 422.568596 283.231468 
" clip-path="url(#pd546db43df)" style="fill: none; stroke: #b317b1; stroke-width: 1.5; stroke-linecap: square"/>
   </g>
   <g id="patch_3">
    <path d="M 45.303125 296.375824 
L 45.303125 7.2 
" style="fill: none; stroke: #000000; stroke-width: 0.8; stroke-linejoin: miter; stroke-linecap: square"/>
   </g>
   <g id="patch_4">
    <path d="M 442.021125 296.375824 
L 442.021125 7.2 
" style="fill: none; stroke: #000000; stroke-width: 0.8; stroke-linejoin: miter; stroke-linecap: square"/>
   </g>
   <g id="patch_5">
    <path d="M 45.303125 296.375824 
L 442.021125 296.375824 
" style="fill: none; stroke: #000000; stroke-width: 0.8; stroke-linejoin: miter; stroke-linecap: square"/>
   </g>
   <g id="patch_6">
    <path d="M 45.303125 7.2 
L 442.021125 7.2 
" style="fill: none; stroke: #000000; stroke-width: 0.8; stroke-linejoin: miter; stroke-linecap: square"/>
   </g>
   <g id="legend_1">
    <g id="patch_7">
     <path d="M 353.7055 73.9125 
L 435.021125 73.9125 
Q 437.021125 73.9125 437.021125 71.9125 
L 437.021125 14.2 
Q 437.021125 12.2 435.021125 12.2 
L 353.7055 12.2 
Q 351.7055 12.2 351.7055 14.2 
L 351.7055 71.9125 
Q 351.7055 73.9125 353.7055 73.9125 
z
" style="fill: #ffffff; opacity: 0.8; stroke: #cccccc; stroke-linejoin: miter"/>
    </g>
    <g id="line2d_68">
     <path d="M 355.7055 20.298437 
L 365.7055 20.298437 
L 375.7055 20.298437 
" style="fill: none; stroke: #2cbdfe; stroke-width: 1.5; stroke-linecap: square"/>
    </g>
    <g id="text_16">
     <!-- t = 0s -->
     <g transform="translate(383.7055 23.798437) scale(0.1 -0.1)">
      <defs>
       <path id="DejaVuSans-3d" d="M 678 2906 
L 4684 2906 
L 4684 2381 
L 678 2381 
L 678 2906 
z
M 678 1631 
L 4684 1631 
L 4684 1100 
L 678 1100 
L 678 1631 
z
" transform="scale(0.015625)"/>
      </defs>
      <use xlink:href="#DejaVuSans-74"/>
      <use xlink:href="#DejaVuSans-20" x="39.208984"/>
      <use xlink:href="#DejaVuSans-3d" x="70.996094"/>
      <use xlink:href="#DejaVuSans-20" x="154.785156"/>
      <use xlink:href="#DejaVuSans-30" x="186.572266"/>
      <use xlink:href="#DejaVuSans-73" x="250.195312"/>
     </g>
    </g>
    <g id="line2d_69">
     <path d="M 355.7055 34.976562 
L 365.7055 34.976562 
L 375.7055 34.976562 
" style="fill: none; stroke: #5986e5; stroke-width: 1.5; stroke-linecap: square"/>
    </g>
    <g id="text_17">
     <!-- t = 1200s -->
     <g transform="translate(383.7055 38.476562) scale(0.1 -0.1)">
      <use xlink:href="#DejaVuSans-74"/>
      <use xlink:href="#DejaVuSans-20" x="39.208984"/>
      <use xlink:href="#DejaVuSans-3d" x="70.996094"/>
      <use xlink:href="#DejaVuSans-20" x="154.785156"/>
      <use xlink:href="#DejaVuSans-31" x="186.572266"/>
      <use xlink:href="#DejaVuSans-32" x="250.195312"/>
      <use xlink:href="#DejaVuSans-30" x="313.818359"/>
      <use xlink:href="#DejaVuSans-30" x="377.441406"/>
      <use xlink:href="#DejaVuSans-73" x="441.064453"/>
     </g>
    </g>
    <g id="line2d_70">
     <path d="M 355.7055 49.654687 
L 365.7055 49.654687 
L 375.7055 49.654687 
" style="fill: none; stroke: #864fcb; stroke-width: 1.5; stroke-linecap: square"/>
    </g>
    <g id="text_18">
     <!-- t = 2400s -->
     <g transform="translate(383.7055 53.154687) scale(0.1 -0.1)">
      <use xlink:href="#DejaVuSans-74"/>
      <use xlink:href="#DejaVuSans-20" x="39.208984"/>
      <use xlink:href="#DejaVuSans-3d" x="70.996094"/>
      <use xlink:href="#DejaVuSans-20" x="154.785156"/>
      <use xlink:href="#DejaVuSans-32" x="186.572266"/>
      <use xlink:href="#DejaVuSans-34" x="250.195312"/>
      <use xlink:href="#DejaVuSans-30" x="313.818359"/>
      <use xlink:href="#DejaVuSans-30" x="377.441406"/>
      <use xlink:href="#DejaVuSans-73" x="441.064453"/>
     </g>
    </g>
    <g id="line2d_71">
     <path d="M 355.7055 64.332812 
L 365.7055 64.332812 
L 375.7055 64.332812 
" style="fill: none; stroke: #b317b1; stroke-width: 1.5; stroke-linecap: square"/>
    </g>
    <g id="text_19">
     <!-- t = 3600s -->
     <g transform="translate(383.7055 67.832812) scale(0.1 -0.1)">
      <use xlink:href="#DejaVuSans-74"/>
      <use xlink:href="#DejaVuSans-20" x="39.208984"/>
      <use xlink:href="#DejaVuSans-3d" x="70.996094"/>
      <use xlink:href="#DejaVuSans-20" x="154.785156"/>
      <use xlink:href="#DejaVuSans-33" x="186.572266"/>
      <use xlink:href="#DejaVuSans-36" x="250.195312"/>
      <use xlink:href="#DejaVuSans-30" x="313.818359"/>
      <use xlink:href="#DejaVuSans-30" x="377.441406"/>
      <use xlink:href="#DejaVuSans-73" x="441.064453"/>
     </g>
    </g>
   </g>
  </g>
 </g>
 <defs>
  <clipPath id="pd546db43df">
   <rect x="45.303125" y="7.2" width="396.718" height="289.175824"/>
  </clipPath>
 </defs>
</svg>
