<?xml version="1.0" encoding="utf-8" standalone="no"?>
<!DOCTYPE svg PUBLIC "-//W3C//DTD SVG 1.1//EN"
  "http://www.w3.org/Graphics/SVG/1.1/DTD/svg11.dtd">
<svg xmlns:xlink="http://www.w3.org/1999/xlink" width="449.221125pt" height="334.28425pt" viewBox="0 0 449.221125 334.28425" xmlns="http://www.w3.org/2000/svg" version="1.1">
 <metadata>
  <rdf:RDF xmlns:dc="http://purl.org/dc/elements/1.1/" xmlns:cc="http://creativecommons.org/ns#" xmlns:rdf="http://www.w3.org/1999/02/22-rdf-syntax-ns#">
   <cc:Work>
    <dc:type rdf:resource="http://purl.org/dc/dcmitype/StillImage"/>
    <dc:date>2024-11-07T12:37:29.626859</dc:date>
    <dc:format>image/svg+xml</dc:format>
    <dc:creator>
     <cc:Agent>
      <dc:title>Matplotlib v3.9.2, https://matplotlib.org/</dc:title>
     </cc:Agent>
    </dc:creator>
   </cc:Work>
  </rdf:RDF>
 </metadata>
 <defs>
  <style type="text/css">*{stroke-linejoin: round; stroke-linecap: butt}</style>
 </defs>
 <g id="figure_1">
  <g id="patch_1">
   <path d="M 0 334.28425 
L 449.221125 334.28425 
L 449.221125 0 
L 0 0 
z
" style="fill: #ffffff"/>
  </g>
  <g id="axes_1">
   <g id="patch_2">
    <path d="M 45.303125 296.728 
L 442.021125 296.728 
L 442.021125 7.2 
L 45.303125 7.2 
z
" style="fill: #ffffff"/>
   </g>
   <g id="matplotlib.axis_1">
    <g id="xtick_1">
     <g id="line2d_1">
      <path d="M 62.619887 296.728 
L 62.619887 7.2 
" clip-path="url(#p7d750d7986)" style="fill: none; stroke: #b0b0b0; stroke-width: 0.8; stroke-linecap: square"/>
     </g>
     <g id="line2d_2">
      <defs>
       <path id="m7e7cd20f63" d="M 0 0 
L 0 3.5 
" style="stroke: #000000; stroke-width: 0.8"/>
      </defs>
      <g>
       <use xlink:href="#m7e7cd20f63" x="62.619887" y="296.728" style="stroke: #000000; stroke-width: 0.8"/>
      </g>
     </g>
     <g id="text_1">
      <!-- $\mathdefault{10^{1}}$ -->
      <g transform="translate(53.819887 311.326437) scale(0.1 -0.1)">
       <defs>
        <path id="DejaVuSans-31" d="M 794 531 
L 1825 531 
L 1825 4091 
L 703 3866 
L 703 4441 
L 1819 4666 
L 2450 4666 
L 2450 531 
L 3481 531 
L 3481 0 
L 794 0 
L 794 531 
z
" transform="scale(0.015625)"/>
        <path id="DejaVuSans-30" d="M 2034 4250 
Q 1547 4250 1301 3770 
Q 1056 3291 1056 2328 
Q 1056 1369 1301 889 
Q 1547 409 2034 409 
Q 2525 409 2770 889 
Q 3016 1369 3016 2328 
Q 3016 3291 2770 3770 
Q 2525 4250 2034 4250 
z
M 2034 4750 
Q 2819 4750 3233 4129 
Q 3647 3509 3647 2328 
Q 3647 1150 3233 529 
Q 2819 -91 2034 -91 
Q 1250 -91 836 529 
Q 422 1150 422 2328 
Q 422 3509 836 4129 
Q 1250 4750 2034 4750 
z
" transform="scale(0.015625)"/>
       </defs>
       <use xlink:href="#DejaVuSans-31" transform="translate(0 0.684375)"/>
       <use xlink:href="#DejaVuSans-30" transform="translate(63.623047 0.684375)"/>
       <use xlink:href="#DejaVuSans-31" transform="translate(128.203125 38.965625) scale(0.7)"/>
      </g>
     </g>
    </g>
    <g id="xtick_2">
     <g id="line2d_3">
      <path d="M 160.504601 296.728 
L 160.504601 7.2 
" clip-path="url(#p7d750d7986)" style="fill: none; stroke: #b0b0b0; stroke-width: 0.8; stroke-linecap: square"/>
     </g>
     <g id="line2d_4">
      <g>
       <use xlink:href="#m7e7cd20f63" x="160.504601" y="296.728" style="stroke: #000000; stroke-width: 0.8"/>
      </g>
     </g>
     <g id="text_2">
      <!-- $\mathdefault{10^{2}}$ -->
      <g transform="translate(151.704601 311.326437) scale(0.1 -0.1)">
       <defs>
        <path id="DejaVuSans-32" d="M 1228 531 
L 3431 531 
L 3431 0 
L 469 0 
L 469 531 
Q 828 903 1448 1529 
Q 2069 2156 2228 2338 
Q 2531 2678 2651 2914 
Q 2772 3150 2772 3378 
Q 2772 3750 2511 3984 
Q 2250 4219 1831 4219 
Q 1534 4219 1204 4116 
Q 875 4013 500 3803 
L 500 4441 
Q 881 4594 1212 4672 
Q 1544 4750 1819 4750 
Q 2544 4750 2975 4387 
Q 3406 4025 3406 3419 
Q 3406 3131 3298 2873 
Q 3191 2616 2906 2266 
Q 2828 2175 2409 1742 
Q 1991 1309 1228 531 
z
" transform="scale(0.015625)"/>
       </defs>
       <use xlink:href="#DejaVuSans-31" transform="translate(0 0.765625)"/>
       <use xlink:href="#DejaVuSans-30" transform="translate(63.623047 0.765625)"/>
       <use xlink:href="#DejaVuSans-32" transform="translate(128.203125 39.046875) scale(0.7)"/>
      </g>
     </g>
    </g>
    <g id="xtick_3">
     <g id="line2d_5">
      <path d="M 258.389315 296.728 
L 258.389315 7.2 
" clip-path="url(#p7d750d7986)" style="fill: none; stroke: #b0b0b0; stroke-width: 0.8; stroke-linecap: square"/>
     </g>
     <g id="line2d_6">
      <g>
       <use xlink:href="#m7e7cd20f63" x="258.389315" y="296.728" style="stroke: #000000; stroke-width: 0.8"/>
      </g>
     </g>
     <g id="text_3">
      <!-- $\mathdefault{10^{3}}$ -->
      <g transform="translate(249.589315 311.326437) scale(0.1 -0.1)">
       <defs>
        <path id="DejaVuSans-33" d="M 2597 2516 
Q 3050 2419 3304 2112 
Q 3559 1806 3559 1356 
Q 3559 666 3084 287 
Q 2609 -91 1734 -91 
Q 1441 -91 1130 -33 
Q 819 25 488 141 
L 488 750 
Q 750 597 1062 519 
Q 1375 441 1716 441 
Q 2309 441 2620 675 
Q 2931 909 2931 1356 
Q 2931 1769 2642 2001 
Q 2353 2234 1838 2234 
L 1294 2234 
L 1294 2753 
L 1863 2753 
Q 2328 2753 2575 2939 
Q 2822 3125 2822 3475 
Q 2822 3834 2567 4026 
Q 2313 4219 1838 4219 
Q 1578 4219 1281 4162 
Q 984 4106 628 3988 
L 628 4550 
Q 988 4650 1302 4700 
Q 1616 4750 1894 4750 
Q 2613 4750 3031 4423 
Q 3450 4097 3450 3541 
Q 3450 3153 3228 2886 
Q 3006 2619 2597 2516 
z
" transform="scale(0.015625)"/>
       </defs>
       <use xlink:href="#DejaVuSans-31" transform="translate(0 0.765625)"/>
       <use xlink:href="#DejaVuSans-30" transform="translate(63.623047 0.765625)"/>
       <use xlink:href="#DejaVuSans-33" transform="translate(128.203125 39.046875) scale(0.7)"/>
      </g>
     </g>
    </g>
    <g id="xtick_4">
     <g id="line2d_7">
      <path d="M 356.274028 296.728 
L 356.274028 7.2 
" clip-path="url(#p7d750d7986)" style="fill: none; stroke: #b0b0b0; stroke-width: 0.8; stroke-linecap: square"/>
     </g>
     <g id="line2d_8">
      <g>
       <use xlink:href="#m7e7cd20f63" x="356.274028" y="296.728" style="stroke: #000000; stroke-width: 0.8"/>
      </g>
     </g>
     <g id="text_4">
      <!-- $\mathdefault{10^{4}}$ -->
      <g transform="translate(347.474028 311.326437) scale(0.1 -0.1)">
       <defs>
        <path id="DejaVuSans-34" d="M 2419 4116 
L 825 1625 
L 2419 1625 
L 2419 4116 
z
M 2253 4666 
L 3047 4666 
L 3047 1625 
L 3713 1625 
L 3713 1100 
L 3047 1100 
L 3047 0 
L 2419 0 
L 2419 1100 
L 313 1100 
L 313 1709 
L 2253 4666 
z
" transform="scale(0.015625)"/>
       </defs>
       <use xlink:href="#DejaVuSans-31" transform="translate(0 0.684375)"/>
       <use xlink:href="#DejaVuSans-30" transform="translate(63.623047 0.684375)"/>
       <use xlink:href="#DejaVuSans-34" transform="translate(128.203125 38.965625) scale(0.7)"/>
      </g>
     </g>
    </g>
    <g id="xtick_5">
     <g id="line2d_9">
      <defs>
       <path id="m1bc9d1d7f7" d="M 0 0 
L 0 2 
" style="stroke: #000000; stroke-width: 0.6"/>
      </defs>
      <g>
       <use xlink:href="#m1bc9d1d7f7" x="47.457353" y="296.728" style="stroke: #000000; stroke-width: 0.6"/>
      </g>
     </g>
    </g>
    <g id="xtick_6">
     <g id="line2d_10">
      <g>
       <use xlink:href="#m1bc9d1d7f7" x="53.133878" y="296.728" style="stroke: #000000; stroke-width: 0.6"/>
      </g>
     </g>
    </g>
    <g id="xtick_7">
     <g id="line2d_11">
      <g>
       <use xlink:href="#m1bc9d1d7f7" x="58.140928" y="296.728" style="stroke: #000000; stroke-width: 0.6"/>
      </g>
     </g>
    </g>
    <g id="xtick_8">
     <g id="line2d_12">
      <g>
       <use xlink:href="#m1bc9d1d7f7" x="92.086122" y="296.728" style="stroke: #000000; stroke-width: 0.6"/>
      </g>
     </g>
    </g>
    <g id="xtick_9">
     <g id="line2d_13">
      <g>
       <use xlink:href="#m1bc9d1d7f7" x="109.322765" y="296.728" style="stroke: #000000; stroke-width: 0.6"/>
      </g>
     </g>
    </g>
    <g id="xtick_10">
     <g id="line2d_14">
      <g>
       <use xlink:href="#m1bc9d1d7f7" x="121.552357" y="296.728" style="stroke: #000000; stroke-width: 0.6"/>
      </g>
     </g>
    </g>
    <g id="xtick_11">
     <g id="line2d_15">
      <g>
       <use xlink:href="#m1bc9d1d7f7" x="131.038366" y="296.728" style="stroke: #000000; stroke-width: 0.6"/>
      </g>
     </g>
    </g>
    <g id="xtick_12">
     <g id="line2d_16">
      <g>
       <use xlink:href="#m1bc9d1d7f7" x="138.789" y="296.728" style="stroke: #000000; stroke-width: 0.6"/>
      </g>
     </g>
    </g>
    <g id="xtick_13">
     <g id="line2d_17">
      <g>
       <use xlink:href="#m1bc9d1d7f7" x="145.342067" y="296.728" style="stroke: #000000; stroke-width: 0.6"/>
      </g>
     </g>
    </g>
    <g id="xtick_14">
     <g id="line2d_18">
      <g>
       <use xlink:href="#m1bc9d1d7f7" x="151.018592" y="296.728" style="stroke: #000000; stroke-width: 0.6"/>
      </g>
     </g>
    </g>
    <g id="xtick_15">
     <g id="line2d_19">
      <g>
       <use xlink:href="#m1bc9d1d7f7" x="156.025642" y="296.728" style="stroke: #000000; stroke-width: 0.6"/>
      </g>
     </g>
    </g>
    <g id="xtick_16">
     <g id="line2d_20">
      <g>
       <use xlink:href="#m1bc9d1d7f7" x="189.970836" y="296.728" style="stroke: #000000; stroke-width: 0.6"/>
      </g>
     </g>
    </g>
    <g id="xtick_17">
     <g id="line2d_21">
      <g>
       <use xlink:href="#m1bc9d1d7f7" x="207.207478" y="296.728" style="stroke: #000000; stroke-width: 0.6"/>
      </g>
     </g>
    </g>
    <g id="xtick_18">
     <g id="line2d_22">
      <g>
       <use xlink:href="#m1bc9d1d7f7" x="219.437071" y="296.728" style="stroke: #000000; stroke-width: 0.6"/>
      </g>
     </g>
    </g>
    <g id="xtick_19">
     <g id="line2d_23">
      <g>
       <use xlink:href="#m1bc9d1d7f7" x="228.92308" y="296.728" style="stroke: #000000; stroke-width: 0.6"/>
      </g>
     </g>
    </g>
    <g id="xtick_20">
     <g id="line2d_24">
      <g>
       <use xlink:href="#m1bc9d1d7f7" x="236.673713" y="296.728" style="stroke: #000000; stroke-width: 0.6"/>
      </g>
     </g>
    </g>
    <g id="xtick_21">
     <g id="line2d_25">
      <g>
       <use xlink:href="#m1bc9d1d7f7" x="243.226781" y="296.728" style="stroke: #000000; stroke-width: 0.6"/>
      </g>
     </g>
    </g>
    <g id="xtick_22">
     <g id="line2d_26">
      <g>
       <use xlink:href="#m1bc9d1d7f7" x="248.903306" y="296.728" style="stroke: #000000; stroke-width: 0.6"/>
      </g>
     </g>
    </g>
    <g id="xtick_23">
     <g id="line2d_27">
      <g>
       <use xlink:href="#m1bc9d1d7f7" x="253.910356" y="296.728" style="stroke: #000000; stroke-width: 0.6"/>
      </g>
     </g>
    </g>
    <g id="xtick_24">
     <g id="line2d_28">
      <g>
       <use xlink:href="#m1bc9d1d7f7" x="287.85555" y="296.728" style="stroke: #000000; stroke-width: 0.6"/>
      </g>
     </g>
    </g>
    <g id="xtick_25">
     <g id="line2d_29">
      <g>
       <use xlink:href="#m1bc9d1d7f7" x="305.092192" y="296.728" style="stroke: #000000; stroke-width: 0.6"/>
      </g>
     </g>
    </g>
    <g id="xtick_26">
     <g id="line2d_30">
      <g>
       <use xlink:href="#m1bc9d1d7f7" x="317.321784" y="296.728" style="stroke: #000000; stroke-width: 0.6"/>
      </g>
     </g>
    </g>
    <g id="xtick_27">
     <g id="line2d_31">
      <g>
       <use xlink:href="#m1bc9d1d7f7" x="326.807793" y="296.728" style="stroke: #000000; stroke-width: 0.6"/>
      </g>
     </g>
    </g>
    <g id="xtick_28">
     <g id="line2d_32">
      <g>
       <use xlink:href="#m1bc9d1d7f7" x="334.558427" y="296.728" style="stroke: #000000; stroke-width: 0.6"/>
      </g>
     </g>
    </g>
    <g id="xtick_29">
     <g id="line2d_33">
      <g>
       <use xlink:href="#m1bc9d1d7f7" x="341.111494" y="296.728" style="stroke: #000000; stroke-width: 0.6"/>
      </g>
     </g>
    </g>
    <g id="xtick_30">
     <g id="line2d_34">
      <g>
       <use xlink:href="#m1bc9d1d7f7" x="346.788019" y="296.728" style="stroke: #000000; stroke-width: 0.6"/>
      </g>
     </g>
    </g>
    <g id="xtick_31">
     <g id="line2d_35">
      <g>
       <use xlink:href="#m1bc9d1d7f7" x="351.795069" y="296.728" style="stroke: #000000; stroke-width: 0.6"/>
      </g>
     </g>
    </g>
    <g id="xtick_32">
     <g id="line2d_36">
      <g>
       <use xlink:href="#m1bc9d1d7f7" x="385.740263" y="296.728" style="stroke: #000000; stroke-width: 0.6"/>
      </g>
     </g>
    </g>
    <g id="xtick_33">
     <g id="line2d_37">
      <g>
       <use xlink:href="#m1bc9d1d7f7" x="402.976906" y="296.728" style="stroke: #000000; stroke-width: 0.6"/>
      </g>
     </g>
    </g>
    <g id="xtick_34">
     <g id="line2d_38">
      <g>
       <use xlink:href="#m1bc9d1d7f7" x="415.206498" y="296.728" style="stroke: #000000; stroke-width: 0.6"/>
      </g>
     </g>
    </g>
    <g id="xtick_35">
     <g id="line2d_39">
      <g>
       <use xlink:href="#m1bc9d1d7f7" x="424.692507" y="296.728" style="stroke: #000000; stroke-width: 0.6"/>
      </g>
     </g>
    </g>
    <g id="xtick_36">
     <g id="line2d_40">
      <g>
       <use xlink:href="#m1bc9d1d7f7" x="432.443141" y="296.728" style="stroke: #000000; stroke-width: 0.6"/>
      </g>
     </g>
    </g>
    <g id="xtick_37">
     <g id="line2d_41">
      <g>
       <use xlink:href="#m1bc9d1d7f7" x="438.996208" y="296.728" style="stroke: #000000; stroke-width: 0.6"/>
      </g>
     </g>
    </g>
    <g id="text_5">
     <!-- particle radius [µm] -->
     <g transform="translate(194.216813 325.004562) scale(0.1 -0.1)">
      <defs>
       <path id="DejaVuSans-70" d="M 1159 525 
L 1159 -1331 
L 581 -1331 
L 581 3500 
L 1159 3500 
L 1159 2969 
Q 1341 3281 1617 3432 
Q 1894 3584 2278 3584 
Q 2916 3584 3314 3078 
Q 3713 2572 3713 1747 
Q 3713 922 3314 415 
Q 2916 -91 2278 -91 
Q 1894 -91 1617 61 
Q 1341 213 1159 525 
z
M 3116 1747 
Q 3116 2381 2855 2742 
Q 2594 3103 2138 3103 
Q 1681 3103 1420 2742 
Q 1159 2381 1159 1747 
Q 1159 1113 1420 752 
Q 1681 391 2138 391 
Q 2594 391 2855 752 
Q 3116 1113 3116 1747 
z
" transform="scale(0.015625)"/>
       <path id="DejaVuSans-61" d="M 2194 1759 
Q 1497 1759 1228 1600 
Q 959 1441 959 1056 
Q 959 750 1161 570 
Q 1363 391 1709 391 
Q 2188 391 2477 730 
Q 2766 1069 2766 1631 
L 2766 1759 
L 2194 1759 
z
M 3341 1997 
L 3341 0 
L 2766 0 
L 2766 531 
Q 2569 213 2275 61 
Q 1981 -91 1556 -91 
Q 1019 -91 701 211 
Q 384 513 384 1019 
Q 384 1609 779 1909 
Q 1175 2209 1959 2209 
L 2766 2209 
L 2766 2266 
Q 2766 2663 2505 2880 
Q 2244 3097 1772 3097 
Q 1472 3097 1187 3025 
Q 903 2953 641 2809 
L 641 3341 
Q 956 3463 1253 3523 
Q 1550 3584 1831 3584 
Q 2591 3584 2966 3190 
Q 3341 2797 3341 1997 
z
" transform="scale(0.015625)"/>
       <path id="DejaVuSans-72" d="M 2631 2963 
Q 2534 3019 2420 3045 
Q 2306 3072 2169 3072 
Q 1681 3072 1420 2755 
Q 1159 2438 1159 1844 
L 1159 0 
L 581 0 
L 581 3500 
L 1159 3500 
L 1159 2956 
Q 1341 3275 1631 3429 
Q 1922 3584 2338 3584 
Q 2397 3584 2469 3576 
Q 2541 3569 2628 3553 
L 2631 2963 
z
" transform="scale(0.015625)"/>
       <path id="DejaVuSans-74" d="M 1172 4494 
L 1172 3500 
L 2356 3500 
L 2356 3053 
L 1172 3053 
L 1172 1153 
Q 1172 725 1289 603 
Q 1406 481 1766 481 
L 2356 481 
L 2356 0 
L 1766 0 
Q 1100 0 847 248 
Q 594 497 594 1153 
L 594 3053 
L 172 3053 
L 172 3500 
L 594 3500 
L 594 4494 
L 1172 4494 
z
" transform="scale(0.015625)"/>
       <path id="DejaVuSans-69" d="M 603 3500 
L 1178 3500 
L 1178 0 
L 603 0 
L 603 3500 
z
M 603 4863 
L 1178 4863 
L 1178 4134 
L 603 4134 
L 603 4863 
z
" transform="scale(0.015625)"/>
       <path id="DejaVuSans-63" d="M 3122 3366 
L 3122 2828 
Q 2878 2963 2633 3030 
Q 2388 3097 2138 3097 
Q 1578 3097 1268 2742 
Q 959 2388 959 1747 
Q 959 1106 1268 751 
Q 1578 397 2138 397 
Q 2388 397 2633 464 
Q 2878 531 3122 666 
L 3122 134 
Q 2881 22 2623 -34 
Q 2366 -91 2075 -91 
Q 1284 -91 818 406 
Q 353 903 353 1747 
Q 353 2603 823 3093 
Q 1294 3584 2113 3584 
Q 2378 3584 2631 3529 
Q 2884 3475 3122 3366 
z
" transform="scale(0.015625)"/>
       <path id="DejaVuSans-6c" d="M 603 4863 
L 1178 4863 
L 1178 0 
L 603 0 
L 603 4863 
z
" transform="scale(0.015625)"/>
       <path id="DejaVuSans-65" d="M 3597 1894 
L 3597 1613 
L 953 1613 
Q 991 1019 1311 708 
Q 1631 397 2203 397 
Q 2534 397 2845 478 
Q 3156 559 3463 722 
L 3463 178 
Q 3153 47 2828 -22 
Q 2503 -91 2169 -91 
Q 1331 -91 842 396 
Q 353 884 353 1716 
Q 353 2575 817 3079 
Q 1281 3584 2069 3584 
Q 2775 3584 3186 3129 
Q 3597 2675 3597 1894 
z
M 3022 2063 
Q 3016 2534 2758 2815 
Q 2500 3097 2075 3097 
Q 1594 3097 1305 2825 
Q 1016 2553 972 2059 
L 3022 2063 
z
" transform="scale(0.015625)"/>
       <path id="DejaVuSans-20" transform="scale(0.015625)"/>
       <path id="DejaVuSans-64" d="M 2906 2969 
L 2906 4863 
L 3481 4863 
L 3481 0 
L 2906 0 
L 2906 525 
Q 2725 213 2448 61 
Q 2172 -91 1784 -91 
Q 1150 -91 751 415 
Q 353 922 353 1747 
Q 353 2572 751 3078 
Q 1150 3584 1784 3584 
Q 2172 3584 2448 3432 
Q 2725 3281 2906 2969 
z
M 947 1747 
Q 947 1113 1208 752 
Q 1469 391 1925 391 
Q 2381 391 2643 752 
Q 2906 1113 2906 1747 
Q 2906 2381 2643 2742 
Q 2381 3103 1925 3103 
Q 1469 3103 1208 2742 
Q 947 2381 947 1747 
z
" transform="scale(0.015625)"/>
       <path id="DejaVuSans-75" d="M 544 1381 
L 544 3500 
L 1119 3500 
L 1119 1403 
Q 1119 906 1312 657 
Q 1506 409 1894 409 
Q 2359 409 2629 706 
Q 2900 1003 2900 1516 
L 2900 3500 
L 3475 3500 
L 3475 0 
L 2900 0 
L 2900 538 
Q 2691 219 2414 64 
Q 2138 -91 1772 -91 
Q 1169 -91 856 284 
Q 544 659 544 1381 
z
M 1991 3584 
L 1991 3584 
z
" transform="scale(0.015625)"/>
       <path id="DejaVuSans-73" d="M 2834 3397 
L 2834 2853 
Q 2591 2978 2328 3040 
Q 2066 3103 1784 3103 
Q 1356 3103 1142 2972 
Q 928 2841 928 2578 
Q 928 2378 1081 2264 
Q 1234 2150 1697 2047 
L 1894 2003 
Q 2506 1872 2764 1633 
Q 3022 1394 3022 966 
Q 3022 478 2636 193 
Q 2250 -91 1575 -91 
Q 1294 -91 989 -36 
Q 684 19 347 128 
L 347 722 
Q 666 556 975 473 
Q 1284 391 1588 391 
Q 1994 391 2212 530 
Q 2431 669 2431 922 
Q 2431 1156 2273 1281 
Q 2116 1406 1581 1522 
L 1381 1569 
Q 847 1681 609 1914 
Q 372 2147 372 2553 
Q 372 3047 722 3315 
Q 1072 3584 1716 3584 
Q 2034 3584 2315 3537 
Q 2597 3491 2834 3397 
z
" transform="scale(0.015625)"/>
       <path id="DejaVuSans-5b" d="M 550 4863 
L 1875 4863 
L 1875 4416 
L 1125 4416 
L 1125 -397 
L 1875 -397 
L 1875 -844 
L 550 -844 
L 550 4863 
z
" transform="scale(0.015625)"/>
       <path id="DejaVuSans-b5" d="M 544 -1331 
L 544 3500 
L 1119 3500 
L 1119 1325 
Q 1119 872 1334 640 
Q 1550 409 1972 409 
Q 2434 409 2667 671 
Q 2900 934 2900 1459 
L 2900 3500 
L 3475 3500 
L 3475 806 
Q 3475 619 3529 530 
Q 3584 441 3700 441 
Q 3728 441 3778 458 
Q 3828 475 3916 513 
L 3916 50 
Q 3788 -22 3673 -56 
Q 3559 -91 3450 -91 
Q 3234 -91 3106 31 
Q 2978 153 2931 403 
Q 2775 156 2548 32 
Q 2322 -91 2016 -91 
Q 1697 -91 1473 31 
Q 1250 153 1119 397 
L 1119 -1331 
L 544 -1331 
z
" transform="scale(0.015625)"/>
       <path id="DejaVuSans-6d" d="M 3328 2828 
Q 3544 3216 3844 3400 
Q 4144 3584 4550 3584 
Q 5097 3584 5394 3201 
Q 5691 2819 5691 2113 
L 5691 0 
L 5113 0 
L 5113 2094 
Q 5113 2597 4934 2840 
Q 4756 3084 4391 3084 
Q 3944 3084 3684 2787 
Q 3425 2491 3425 1978 
L 3425 0 
L 2847 0 
L 2847 2094 
Q 2847 2600 2669 2842 
Q 2491 3084 2119 3084 
Q 1678 3084 1418 2786 
Q 1159 2488 1159 1978 
L 1159 0 
L 581 0 
L 581 3500 
L 1159 3500 
L 1159 2956 
Q 1356 3278 1631 3431 
Q 1906 3584 2284 3584 
Q 2666 3584 2933 3390 
Q 3200 3197 3328 2828 
z
" transform="scale(0.015625)"/>
       <path id="DejaVuSans-5d" d="M 1947 4863 
L 1947 -844 
L 622 -844 
L 622 -397 
L 1369 -397 
L 1369 4416 
L 622 4416 
L 622 4863 
L 1947 4863 
z
" transform="scale(0.015625)"/>
      </defs>
      <use xlink:href="#DejaVuSans-70"/>
      <use xlink:href="#DejaVuSans-61" x="63.476562"/>
      <use xlink:href="#DejaVuSans-72" x="124.755859"/>
      <use xlink:href="#DejaVuSans-74" x="165.869141"/>
      <use xlink:href="#DejaVuSans-69" x="205.078125"/>
      <use xlink:href="#DejaVuSans-63" x="232.861328"/>
      <use xlink:href="#DejaVuSans-6c" x="287.841797"/>
      <use xlink:href="#DejaVuSans-65" x="315.625"/>
      <use xlink:href="#DejaVuSans-20" x="377.148438"/>
      <use xlink:href="#DejaVuSans-72" x="408.935547"/>
      <use xlink:href="#DejaVuSans-61" x="450.048828"/>
      <use xlink:href="#DejaVuSans-64" x="511.328125"/>
      <use xlink:href="#DejaVuSans-69" x="574.804688"/>
      <use xlink:href="#DejaVuSans-75" x="602.587891"/>
      <use xlink:href="#DejaVuSans-73" x="665.966797"/>
      <use xlink:href="#DejaVuSans-20" x="718.066406"/>
      <use xlink:href="#DejaVuSans-5b" x="749.853516"/>
      <use xlink:href="#DejaVuSans-b5" x="788.867188"/>
      <use xlink:href="#DejaVuSans-6d" x="852.490234"/>
      <use xlink:href="#DejaVuSans-5d" x="949.902344"/>
     </g>
    </g>
   </g>
   <g id="matplotlib.axis_2">
    <g id="ytick_1">
     <g id="line2d_42">
      <path d="M 45.303125 283.567636 
L 442.021125 283.567636 
" clip-path="url(#p7d750d7986)" style="fill: none; stroke: #b0b0b0; stroke-width: 0.8; stroke-linecap: square"/>
     </g>
     <g id="line2d_43">
      <defs>
       <path id="ma039fc195d" d="M 0 0 
L -3.5 0 
" style="stroke: #000000; stroke-width: 0.8"/>
      </defs>
      <g>
       <use xlink:href="#ma039fc195d" x="45.303125" y="283.567636" style="stroke: #000000; stroke-width: 0.8"/>
      </g>
     </g>
     <g id="text_6">
      <!-- 0.0 -->
      <g transform="translate(22.4 287.366855) scale(0.1 -0.1)">
       <defs>
        <path id="DejaVuSans-2e" d="M 684 794 
L 1344 794 
L 1344 0 
L 684 0 
L 684 794 
z
" transform="scale(0.015625)"/>
       </defs>
       <use xlink:href="#DejaVuSans-30"/>
       <use xlink:href="#DejaVuSans-2e" x="63.623047"/>
       <use xlink:href="#DejaVuSans-30" x="95.410156"/>
      </g>
     </g>
    </g>
    <g id="ytick_2">
     <g id="line2d_44">
      <path d="M 45.303125 249.821169 
L 442.021125 249.821169 
" clip-path="url(#p7d750d7986)" style="fill: none; stroke: #b0b0b0; stroke-width: 0.8; stroke-linecap: square"/>
     </g>
     <g id="line2d_45">
      <g>
       <use xlink:href="#ma039fc195d" x="45.303125" y="249.821169" style="stroke: #000000; stroke-width: 0.8"/>
      </g>
     </g>
     <g id="text_7">
      <!-- 0.2 -->
      <g transform="translate(22.4 253.620388) scale(0.1 -0.1)">
       <use xlink:href="#DejaVuSans-30"/>
       <use xlink:href="#DejaVuSans-2e" x="63.623047"/>
       <use xlink:href="#DejaVuSans-32" x="95.410156"/>
      </g>
     </g>
    </g>
    <g id="ytick_3">
     <g id="line2d_46">
      <path d="M 45.303125 216.074702 
L 442.021125 216.074702 
" clip-path="url(#p7d750d7986)" style="fill: none; stroke: #b0b0b0; stroke-width: 0.8; stroke-linecap: square"/>
     </g>
     <g id="line2d_47">
      <g>
       <use xlink:href="#ma039fc195d" x="45.303125" y="216.074702" style="stroke: #000000; stroke-width: 0.8"/>
      </g>
     </g>
     <g id="text_8">
      <!-- 0.4 -->
      <g transform="translate(22.4 219.873921) scale(0.1 -0.1)">
       <use xlink:href="#DejaVuSans-30"/>
       <use xlink:href="#DejaVuSans-2e" x="63.623047"/>
       <use xlink:href="#DejaVuSans-34" x="95.410156"/>
      </g>
     </g>
    </g>
    <g id="ytick_4">
     <g id="line2d_48">
      <path d="M 45.303125 182.328235 
L 442.021125 182.328235 
" clip-path="url(#p7d750d7986)" style="fill: none; stroke: #b0b0b0; stroke-width: 0.8; stroke-linecap: square"/>
     </g>
     <g id="line2d_49">
      <g>
       <use xlink:href="#ma039fc195d" x="45.303125" y="182.328235" style="stroke: #000000; stroke-width: 0.8"/>
      </g>
     </g>
     <g id="text_9">
      <!-- 0.6 -->
      <g transform="translate(22.4 186.127454) scale(0.1 -0.1)">
       <defs>
        <path id="DejaVuSans-36" d="M 2113 2584 
Q 1688 2584 1439 2293 
Q 1191 2003 1191 1497 
Q 1191 994 1439 701 
Q 1688 409 2113 409 
Q 2538 409 2786 701 
Q 3034 994 3034 1497 
Q 3034 2003 2786 2293 
Q 2538 2584 2113 2584 
z
M 3366 4563 
L 3366 3988 
Q 3128 4100 2886 4159 
Q 2644 4219 2406 4219 
Q 1781 4219 1451 3797 
Q 1122 3375 1075 2522 
Q 1259 2794 1537 2939 
Q 1816 3084 2150 3084 
Q 2853 3084 3261 2657 
Q 3669 2231 3669 1497 
Q 3669 778 3244 343 
Q 2819 -91 2113 -91 
Q 1303 -91 875 529 
Q 447 1150 447 2328 
Q 447 3434 972 4092 
Q 1497 4750 2381 4750 
Q 2619 4750 2861 4703 
Q 3103 4656 3366 4563 
z
" transform="scale(0.015625)"/>
       </defs>
       <use xlink:href="#DejaVuSans-30"/>
       <use xlink:href="#DejaVuSans-2e" x="63.623047"/>
       <use xlink:href="#DejaVuSans-36" x="95.410156"/>
      </g>
     </g>
    </g>
    <g id="ytick_5">
     <g id="line2d_50">
      <path d="M 45.303125 148.581768 
L 442.021125 148.581768 
" clip-path="url(#p7d750d7986)" style="fill: none; stroke: #b0b0b0; stroke-width: 0.8; stroke-linecap: square"/>
     </g>
     <g id="line2d_51">
      <g>
       <use xlink:href="#ma039fc195d" x="45.303125" y="148.581768" style="stroke: #000000; stroke-width: 0.8"/>
      </g>
     </g>
     <g id="text_10">
      <!-- 0.8 -->
      <g transform="translate(22.4 152.380987) scale(0.1 -0.1)">
       <defs>
        <path id="DejaVuSans-38" d="M 2034 2216 
Q 1584 2216 1326 1975 
Q 1069 1734 1069 1313 
Q 1069 891 1326 650 
Q 1584 409 2034 409 
Q 2484 409 2743 651 
Q 3003 894 3003 1313 
Q 3003 1734 2745 1975 
Q 2488 2216 2034 2216 
z
M 1403 2484 
Q 997 2584 770 2862 
Q 544 3141 544 3541 
Q 544 4100 942 4425 
Q 1341 4750 2034 4750 
Q 2731 4750 3128 4425 
Q 3525 4100 3525 3541 
Q 3525 3141 3298 2862 
Q 3072 2584 2669 2484 
Q 3125 2378 3379 2068 
Q 3634 1759 3634 1313 
Q 3634 634 3220 271 
Q 2806 -91 2034 -91 
Q 1263 -91 848 271 
Q 434 634 434 1313 
Q 434 1759 690 2068 
Q 947 2378 1403 2484 
z
M 1172 3481 
Q 1172 3119 1398 2916 
Q 1625 2713 2034 2713 
Q 2441 2713 2670 2916 
Q 2900 3119 2900 3481 
Q 2900 3844 2670 4047 
Q 2441 4250 2034 4250 
Q 1625 4250 1398 4047 
Q 1172 3844 1172 3481 
z
" transform="scale(0.015625)"/>
       </defs>
       <use xlink:href="#DejaVuSans-30"/>
       <use xlink:href="#DejaVuSans-2e" x="63.623047"/>
       <use xlink:href="#DejaVuSans-38" x="95.410156"/>
      </g>
     </g>
    </g>
    <g id="ytick_6">
     <g id="line2d_52">
      <path d="M 45.303125 114.835301 
L 442.021125 114.835301 
" clip-path="url(#p7d750d7986)" style="fill: none; stroke: #b0b0b0; stroke-width: 0.8; stroke-linecap: square"/>
     </g>
     <g id="line2d_53">
      <g>
       <use xlink:href="#ma039fc195d" x="45.303125" y="114.835301" style="stroke: #000000; stroke-width: 0.8"/>
      </g>
     </g>
     <g id="text_11">
      <!-- 1.0 -->
      <g transform="translate(22.4 118.63452) scale(0.1 -0.1)">
       <use xlink:href="#DejaVuSans-31"/>
       <use xlink:href="#DejaVuSans-2e" x="63.623047"/>
       <use xlink:href="#DejaVuSans-30" x="95.410156"/>
      </g>
     </g>
    </g>
    <g id="ytick_7">
     <g id="line2d_54">
      <path d="M 45.303125 81.088834 
L 442.021125 81.088834 
" clip-path="url(#p7d750d7986)" style="fill: none; stroke: #b0b0b0; stroke-width: 0.8; stroke-linecap: square"/>
     </g>
     <g id="line2d_55">
      <g>
       <use xlink:href="#ma039fc195d" x="45.303125" y="81.088834" style="stroke: #000000; stroke-width: 0.8"/>
      </g>
     </g>
     <g id="text_12">
      <!-- 1.2 -->
      <g transform="translate(22.4 84.888053) scale(0.1 -0.1)">
       <use xlink:href="#DejaVuSans-31"/>
       <use xlink:href="#DejaVuSans-2e" x="63.623047"/>
       <use xlink:href="#DejaVuSans-32" x="95.410156"/>
      </g>
     </g>
    </g>
    <g id="ytick_8">
     <g id="line2d_56">
      <path d="M 45.303125 47.342367 
L 442.021125 47.342367 
" clip-path="url(#p7d750d7986)" style="fill: none; stroke: #b0b0b0; stroke-width: 0.8; stroke-linecap: square"/>
     </g>
     <g id="line2d_57">
      <g>
       <use xlink:href="#ma039fc195d" x="45.303125" y="47.342367" style="stroke: #000000; stroke-width: 0.8"/>
      </g>
     </g>
     <g id="text_13">
      <!-- 1.4 -->
      <g transform="translate(22.4 51.141586) scale(0.1 -0.1)">
       <use xlink:href="#DejaVuSans-31"/>
       <use xlink:href="#DejaVuSans-2e" x="63.623047"/>
       <use xlink:href="#DejaVuSans-34" x="95.410156"/>
      </g>
     </g>
    </g>
    <g id="ytick_9">
     <g id="line2d_58">
      <path d="M 45.303125 13.5959 
L 442.021125 13.5959 
" clip-path="url(#p7d750d7986)" style="fill: none; stroke: #b0b0b0; stroke-width: 0.8; stroke-linecap: square"/>
     </g>
     <g id="line2d_59">
      <g>
       <use xlink:href="#ma039fc195d" x="45.303125" y="13.5959" style="stroke: #000000; stroke-width: 0.8"/>
      </g>
     </g>
     <g id="text_14">
      <!-- 1.6 -->
      <g transform="translate(22.4 17.395119) scale(0.1 -0.1)">
       <use xlink:href="#DejaVuSans-31"/>
       <use xlink:href="#DejaVuSans-2e" x="63.623047"/>
       <use xlink:href="#DejaVuSans-36" x="95.410156"/>
      </g>
     </g>
    </g>
    <g id="text_15">
     <!-- dm/dlnr [g/m$^3$] -->
     <g transform="translate(16.3 189.114) rotate(-90) scale(0.1 -0.1)">
      <defs>
       <path id="DejaVuSans-2f" d="M 1625 4666 
L 2156 4666 
L 531 -594 
L 0 -594 
L 1625 4666 
z
" transform="scale(0.015625)"/>
       <path id="DejaVuSans-6e" d="M 3513 2113 
L 3513 0 
L 2938 0 
L 2938 2094 
Q 2938 2591 2744 2837 
Q 2550 3084 2163 3084 
Q 1697 3084 1428 2787 
Q 1159 2491 1159 1978 
L 1159 0 
L 581 0 
L 581 3500 
L 1159 3500 
L 1159 2956 
Q 1366 3272 1645 3428 
Q 1925 3584 2291 3584 
Q 2894 3584 3203 3211 
Q 3513 2838 3513 2113 
z
" transform="scale(0.015625)"/>
       <path id="DejaVuSans-67" d="M 2906 1791 
Q 2906 2416 2648 2759 
Q 2391 3103 1925 3103 
Q 1463 3103 1205 2759 
Q 947 2416 947 1791 
Q 947 1169 1205 825 
Q 1463 481 1925 481 
Q 2391 481 2648 825 
Q 2906 1169 2906 1791 
z
M 3481 434 
Q 3481 -459 3084 -895 
Q 2688 -1331 1869 -1331 
Q 1566 -1331 1297 -1286 
Q 1028 -1241 775 -1147 
L 775 -588 
Q 1028 -725 1275 -790 
Q 1522 -856 1778 -856 
Q 2344 -856 2625 -561 
Q 2906 -266 2906 331 
L 2906 616 
Q 2728 306 2450 153 
Q 2172 0 1784 0 
Q 1141 0 747 490 
Q 353 981 353 1791 
Q 353 2603 747 3093 
Q 1141 3584 1784 3584 
Q 2172 3584 2450 3431 
Q 2728 3278 2906 2969 
L 2906 3500 
L 3481 3500 
L 3481 434 
z
" transform="scale(0.015625)"/>
      </defs>
      <use xlink:href="#DejaVuSans-64" transform="translate(0 0.765625)"/>
      <use xlink:href="#DejaVuSans-6d" transform="translate(63.476562 0.765625)"/>
      <use xlink:href="#DejaVuSans-2f" transform="translate(160.888672 0.765625)"/>
      <use xlink:href="#DejaVuSans-64" transform="translate(194.580078 0.765625)"/>
      <use xlink:href="#DejaVuSans-6c" transform="translate(258.056641 0.765625)"/>
      <use xlink:href="#DejaVuSans-6e" transform="translate(285.839844 0.765625)"/>
      <use xlink:href="#DejaVuSans-72" transform="translate(349.21875 0.765625)"/>
      <use xlink:href="#DejaVuSans-20" transform="translate(390.332031 0.765625)"/>
      <use xlink:href="#DejaVuSans-5b" transform="translate(422.119141 0.765625)"/>
      <use xlink:href="#DejaVuSans-67" transform="translate(461.132812 0.765625)"/>
      <use xlink:href="#DejaVuSans-2f" transform="translate(524.609375 0.765625)"/>
      <use xlink:href="#DejaVuSans-6d" transform="translate(558.300781 0.765625)"/>
      <use xlink:href="#DejaVuSans-33" transform="translate(656.669922 39.046875) scale(0.7)"/>
      <use xlink:href="#DejaVuSans-5d" transform="translate(703.94043 0.765625)"/>
     </g>
    </g>
   </g>
   <g id="line2d_60">
    <path d="M 63.335761 282.866629 
L 67.595439 282.306132 
L 70.435224 281.706051 
L 73.27501 280.827633 
L 76.114795 279.547477 
L 77.534688 278.704904 
L 78.95458 277.692011 
L 80.374473 276.476505 
L 81.794366 275.020697 
L 83.214258 273.28085 
L 84.634151 271.206544 
L 86.054043 268.740097 
L 87.473936 265.816105 
L 88.893829 262.361188 
L 90.313721 258.294047 
L 91.733614 253.525979 
L 93.153507 247.962022 
L 94.573399 241.50295 
L 95.993292 234.048355 
L 97.413184 225.501097 
L 98.833077 215.773396 
L 100.25297 204.794845 
L 101.672862 192.522514 
L 103.092755 178.953248 
L 105.93254 148.19769 
L 108.772325 113.874302 
L 111.612111 78.942294 
L 113.032003 62.690419 
L 114.451896 48.242855 
L 115.871789 36.445557 
L 117.291681 28.167303 
L 118.711574 24.229378 
L 120.131466 25.31836 
L 121.551359 31.889166 
L 122.971252 44.070477 
L 124.391144 61.589141 
L 125.811037 83.73263 
L 127.23093 109.367243 
L 131.490607 191.78663 
L 132.9105 215.830982 
L 134.330393 236.163405 
L 135.750285 252.285194 
L 137.170178 264.221876 
L 138.590071 272.43237 
L 140.009963 277.647116 
L 141.429856 280.684056 
L 142.849748 282.29295 
L 144.269641 283.06142 
L 145.689534 283.389059 
L 148.529319 283.552838 
L 164.148138 283.567636 
L 423.988489 283.567636 
L 423.988489 283.567636 
" clip-path="url(#p7d750d7986)" style="fill: none; stroke: #000000; stroke-width: 1.5; stroke-linecap: square"/>
   </g>
   <g id="line2d_61">
    <path d="M 63.335761 282.840494 
L 64.755654 282.764314 
L 66.175547 282.455882 
L 67.595439 282.335751 
L 69.015332 281.929928 
L 70.435224 281.754964 
L 71.855117 281.230252 
L 73.27501 280.988846 
L 76.114795 279.53384 
L 77.534688 278.605302 
L 78.95458 277.518698 
L 80.374473 276.892923 
L 81.794366 274.862014 
L 83.214258 273.187879 
L 84.634151 271.271846 
L 86.054043 269.089188 
L 87.473936 265.564785 
L 88.893829 262.552496 
L 90.313721 257.877851 
L 91.733614 253.807493 
L 93.153507 247.68115 
L 94.573399 242.267166 
L 95.993292 232.391046 
L 97.413184 226.985514 
L 98.833077 214.336131 
L 100.25297 204.486311 
L 101.672862 193.469158 
L 104.512648 163.418757 
L 105.93254 150.875017 
L 107.352433 128.776134 
L 108.772325 117.00188 
L 110.192218 94.573689 
L 111.612111 80.141637 
L 113.032003 58.585609 
L 115.871789 38.338112 
L 118.711574 20.360364 
L 120.131466 32.988736 
L 121.551359 29.066112 
L 122.971252 38.614832 
L 124.391144 67.03358 
L 125.811037 74.005858 
L 127.23093 118.138368 
L 128.650822 137.822752 
L 130.070715 162.836969 
L 131.490607 194.811386 
L 132.9105 210.048499 
L 134.330393 228.869097 
L 135.750285 253.05558 
L 137.170178 283.567636 
L 138.590071 247.976766 
L 140.009963 283.567636 
L 421.148703 283.567636 
L 421.148703 283.567636 
" clip-path="url(#p7d750d7986)" style="fill: none; stroke: #2cbdfe; stroke-width: 1.5; stroke-linecap: square"/>
   </g>
   <g id="line2d_62">
    <path d="M 63.335761 283.498141 
L 73.27501 283.304945 
L 78.95458 283.021729 
L 83.214258 282.641857 
L 87.473936 282.033688 
L 90.313721 281.453708 
L 93.153507 280.698125 
L 95.993292 279.738927 
L 98.833077 278.556362 
L 101.672862 277.144481 
L 104.512648 275.514669 
L 108.772325 272.724048 
L 113.032003 269.621614 
L 117.291681 266.27101 
L 121.551359 262.635897 
L 125.811037 258.616417 
L 128.650822 255.670534 
L 131.490607 252.478537 
L 134.330393 249.014347 
L 137.170178 245.253349 
L 140.009963 241.172634 
L 142.849748 236.751847 
L 145.689534 231.974606 
L 148.529319 226.830527 
L 151.369104 221.318009 
L 154.208889 215.447914 
L 158.468567 206.039912 
L 164.148138 192.721842 
L 169.827708 179.468971 
L 172.667494 173.404439 
L 174.087386 170.645766 
L 175.507279 168.132113 
L 176.927172 165.915932 
L 178.347064 164.053671 
L 179.766957 162.60516 
L 181.186849 161.632689 
L 182.606742 161.199728 
L 184.026635 161.369238 
L 185.446527 162.201525 
L 186.86642 163.751634 
L 188.286313 166.066265 
L 189.706205 169.18029 
L 191.126098 173.11296 
L 192.54599 177.863989 
L 193.965883 183.409773 
L 195.385776 189.700081 
L 196.805668 196.655663 
L 199.645454 212.096332 
L 205.325024 244.451815 
L 206.744917 251.742026 
L 208.164809 258.363889 
L 209.584702 264.195351 
L 211.004595 269.161189 
L 212.424487 273.238071 
L 213.84438 276.454095 
L 215.264272 278.882505 
L 216.684165 280.630334 
L 218.104058 281.823782 
L 219.52395 282.592844 
L 220.943843 283.057839 
L 222.363736 283.31994 
L 225.203521 283.522217 
L 232.302984 283.567543 
L 394.170743 283.567636 
L 394.170743 283.567636 
" clip-path="url(#p7d750d7986)" style="fill: none; stroke: #000000; stroke-width: 1.5; stroke-linecap: square"/>
   </g>
   <g id="line2d_63">
    <path d="M 63.335761 283.485524 
L 74.694902 283.185993 
L 81.794366 282.68621 
L 86.054043 282.092697 
L 93.153507 280.894721 
L 94.573399 280.382656 
L 97.413184 278.904406 
L 100.25297 277.455896 
L 103.092755 276.120515 
L 104.512648 275.185542 
L 105.93254 273.918731 
L 108.772325 270.980725 
L 110.192218 269.787084 
L 111.612111 268.968622 
L 113.032003 268.432657 
L 114.451896 268.033602 
L 115.871789 267.431795 
L 117.291681 266.445763 
L 118.711574 265.002506 
L 121.551359 261.678286 
L 122.971252 260.284395 
L 124.391144 259.389352 
L 125.811037 258.89513 
L 127.23093 258.518719 
L 128.650822 257.622357 
L 130.070715 256.138499 
L 134.330393 249.697176 
L 137.170178 245.970171 
L 138.590071 243.939389 
L 140.009963 241.696485 
L 141.429856 239.828946 
L 142.849748 238.279344 
L 145.689534 236.031314 
L 147.109426 234.372483 
L 148.529319 231.497045 
L 149.949212 227.453967 
L 151.369104 222.780161 
L 152.788997 218.590995 
L 154.208889 215.940996 
L 155.628782 215.796492 
L 157.048675 218.601594 
L 158.468567 223.296248 
L 159.88846 227.540366 
L 161.308353 228.855677 
L 162.728245 225.723251 
L 164.148138 217.752524 
L 165.568031 204.998691 
L 168.407816 174.140171 
L 169.827708 161.67581 
L 171.247601 152.670716 
L 172.667494 146.39707 
L 174.087386 143.06625 
L 175.507279 141.727652 
L 176.927172 141.114126 
L 178.347064 138.975011 
L 179.766957 134.900842 
L 182.606742 123.980147 
L 184.026635 120.468652 
L 185.446527 119.748268 
L 186.86642 123.978554 
L 188.286313 131.595648 
L 191.126098 155.907211 
L 193.965883 182.871872 
L 195.385776 196.401309 
L 199.645454 233.91957 
L 202.485239 260.685569 
L 203.905131 271.256331 
L 205.325024 278.062544 
L 206.744917 281.799499 
L 208.164809 283.207433 
L 209.584702 283.567636 
L 422.568596 283.567636 
L 422.568596 283.567636 
" clip-path="url(#p7d750d7986)" style="fill: none; stroke: #5986e5; stroke-width: 1.5; stroke-linecap: square"/>
   </g>
   <g id="line2d_64">
    <path d="M 63.335761 283.560531 
L 86.054043 283.43638 
L 95.993292 283.186093 
L 105.93254 282.691864 
L 118.711574 281.784346 
L 128.650822 280.871337 
L 135.750285 280.029563 
L 142.849748 278.966729 
L 148.529319 277.912346 
L 154.208889 276.631161 
L 159.88846 275.072126 
L 164.148138 273.683897 
L 168.407816 272.074425 
L 172.667494 270.208658 
L 176.927172 268.046533 
L 181.186849 265.542515 
L 184.026635 263.658116 
L 186.86642 261.582387 
L 189.706205 259.297512 
L 192.54599 256.784625 
L 195.385776 254.023984 
L 198.225561 250.99525 
L 201.065346 247.677923 
L 203.905131 244.051987 
L 206.744917 240.098826 
L 209.584702 235.802513 
L 212.424487 231.151567 
L 215.264272 226.141329 
L 218.104058 220.777091 
L 222.363736 212.114324 
L 226.623413 202.85593 
L 235.142769 183.975308 
L 237.982554 178.260076 
L 239.402447 175.666419 
L 240.82234 173.3088 
L 242.242232 171.23747 
L 243.662125 169.506441 
L 245.082018 168.172889 
L 246.50191 167.296252 
L 247.921803 166.936983 
L 249.341696 167.154913 
L 250.761588 168.007179 
L 252.181481 169.545703 
L 253.601373 171.814236 
L 255.021266 174.845008 
L 256.441159 178.655111 
L 257.861051 183.242766 
L 259.280944 188.583745 
L 260.700837 194.628278 
L 263.540622 208.489341 
L 267.8003 231.726924 
L 270.640085 246.845121 
L 272.059978 253.745954 
L 273.47987 260.000278 
L 274.899763 265.494944 
L 276.319655 270.161895 
L 277.739548 273.982627 
L 279.159441 276.987344 
L 280.579333 279.248582 
L 281.999226 280.870103 
L 283.419119 281.972835 
L 284.839011 282.680284 
L 286.258904 283.105939 
L 287.678796 283.344576 
L 290.518582 283.52727 
L 297.618045 283.567557 
L 394.170743 283.567636 
L 394.170743 283.567636 
" clip-path="url(#p7d750d7986)" style="fill: none; stroke: #000000; stroke-width: 1.5; stroke-linecap: square"/>
   </g>
   <g id="line2d_65">
    <path d="M 63.335761 283.555439 
L 86.054043 283.424623 
L 97.413184 283.098009 
L 103.092755 282.84043 
L 110.192218 282.248143 
L 115.871789 282.166456 
L 120.131466 281.701869 
L 122.971252 281.450007 
L 127.23093 281.241959 
L 130.070715 280.827386 
L 132.9105 280.292855 
L 141.429856 279.03263 
L 142.849748 278.972086 
L 148.529319 279.423154 
L 149.949212 279.089653 
L 151.369104 278.437842 
L 158.468567 274.429413 
L 161.308353 273.256618 
L 164.148138 271.877878 
L 165.568031 271.368747 
L 166.987923 271.12814 
L 168.407816 271.111637 
L 169.827708 271.250121 
L 171.247601 271.242115 
L 172.667494 270.915122 
L 175.507279 269.582615 
L 176.927172 269.181803 
L 178.347064 269.308132 
L 181.186849 270.305966 
L 182.606742 270.134426 
L 184.026635 268.996207 
L 185.446527 266.788283 
L 188.286313 261.851047 
L 189.706205 259.943841 
L 191.126098 258.506322 
L 192.54599 257.692904 
L 195.385776 256.808467 
L 196.805668 255.607164 
L 198.225561 252.997229 
L 199.645454 248.806321 
L 202.485239 237.39988 
L 203.905131 232.863813 
L 205.325024 230.687745 
L 206.744917 230.730247 
L 208.164809 231.211944 
L 209.584702 230.68251 
L 211.004595 228.094357 
L 212.424487 223.834096 
L 213.84438 217.838901 
L 215.264272 211.257674 
L 216.684165 205.630386 
L 218.104058 203.688798 
L 219.52395 205.880779 
L 220.943843 211.699912 
L 222.363736 218.126103 
L 223.783628 223.859219 
L 225.203521 226.557746 
L 226.623413 227.109538 
L 228.043306 225.451517 
L 229.463199 223.619647 
L 230.883091 220.522415 
L 232.302984 215.912343 
L 235.142769 202.954143 
L 236.562662 198.815788 
L 237.982554 197.326104 
L 239.402447 198.383981 
L 240.82234 201.00315 
L 242.242232 204.907166 
L 243.662125 205.944582 
L 245.082018 200.234463 
L 246.50191 182.669437 
L 247.921803 155.088993 
L 249.341696 120.991631 
L 250.761588 92.708933 
L 252.181481 80.126021 
L 253.601373 92.308143 
L 255.021266 124.172406 
L 256.441159 166.483112 
L 257.861051 204.774144 
L 259.280944 230.343016 
L 260.700837 238.431364 
L 262.120729 233.2348 
L 263.540622 223.343079 
L 264.960514 216.695482 
L 266.380407 217.069567 
L 267.8003 224.377269 
L 269.220192 235.424848 
L 270.640085 245.462985 
L 272.059978 249.973692 
L 273.47987 250.516809 
L 274.899763 249.755835 
L 276.319655 251.79631 
L 277.739548 256.281094 
L 281.999226 278.948243 
L 283.419119 282.412788 
L 284.839011 283.567636 
L 422.568596 283.567636 
L 422.568596 283.567636 
" clip-path="url(#p7d750d7986)" style="fill: none; stroke: #864fcb; stroke-width: 1.5; stroke-linecap: square"/>
   </g>
   <g id="line2d_66">
    <path d="M 63.335761 283.566908 
L 108.772325 283.45975 
L 140.009963 283.145221 
L 158.468567 282.744144 
L 171.247601 282.270439 
L 182.606742 281.628388 
L 191.126098 280.947184 
L 199.645454 280.027589 
L 206.744917 279.01976 
L 212.424487 278.011019 
L 218.104058 276.779143 
L 223.783628 275.275135 
L 228.043306 273.933233 
L 232.302984 272.375522 
L 236.562662 270.568025 
L 240.82234 268.47184 
L 245.082018 266.042669 
L 247.921803 264.213755 
L 250.761588 262.198431 
L 253.601373 259.979261 
L 256.441159 257.537732 
L 259.280944 254.854404 
L 262.120729 251.909162 
L 264.960514 248.681607 
L 267.8003 245.151635 
L 270.640085 241.300282 
L 273.47987 237.110903 
L 276.319655 232.570791 
L 279.159441 227.673381 
L 281.999226 222.42116 
L 286.258904 213.915821 
L 290.518582 204.783778 
L 300.45783 182.954015 
L 303.297615 177.425896 
L 304.717508 174.95747 
L 306.137401 172.748745 
L 307.557293 170.851686 
L 308.977186 169.321734 
L 310.397078 168.217063 
L 311.816971 167.597519 
L 313.236864 167.523186 
L 314.656756 168.05254 
L 316.076649 169.240166 
L 317.496542 171.134022 
L 318.916434 173.772289 
L 320.336327 177.179891 
L 321.756219 181.364803 
L 323.176112 186.314383 
L 324.596005 191.992006 
L 326.015897 198.334374 
L 328.855683 212.618987 
L 335.955146 250.563501 
L 337.375038 257.122881 
L 338.794931 262.976727 
L 340.214824 268.034267 
L 341.634716 272.252462 
L 343.054609 275.637862 
L 344.474502 278.242947 
L 345.894394 280.157241 
L 347.314287 281.494494 
L 348.734179 282.378103 
L 350.154072 282.927306 
L 351.573965 283.246425 
L 354.41375 283.504194 
L 360.09332 283.566914 
L 392.750851 283.567636 
L 392.750851 283.567636 
" clip-path="url(#p7d750d7986)" style="fill: none; stroke: #000000; stroke-width: 1.5; stroke-linecap: square"/>
   </g>
   <g id="line2d_67">
    <path d="M 63.335761 283.566783 
L 110.192218 283.442537 
L 151.369104 283.062927 
L 157.048675 282.767118 
L 164.148138 282.244417 
L 166.987923 282.21556 
L 174.087386 282.447942 
L 176.927172 282.120481 
L 179.766957 281.810627 
L 185.446527 281.489761 
L 189.706205 281.186297 
L 191.126098 281.076047 
L 193.965883 280.534866 
L 196.805668 279.989 
L 201.065346 279.202889 
L 203.905131 278.498812 
L 205.325024 278.309491 
L 209.584702 278.277363 
L 211.004595 277.976743 
L 212.424487 277.33715 
L 215.264272 275.385001 
L 216.684165 274.656605 
L 218.104058 274.435982 
L 219.52395 274.673837 
L 222.363736 275.867974 
L 223.783628 276.072127 
L 225.203521 275.765514 
L 226.623413 275.104826 
L 228.043306 274.697724 
L 229.463199 274.705306 
L 230.883091 275.229783 
L 232.302984 275.58057 
L 233.722877 275.459924 
L 235.142769 274.35514 
L 237.982554 270.966527 
L 239.402447 270.016803 
L 240.82234 269.921141 
L 242.242232 270.131026 
L 243.662125 269.883936 
L 245.082018 268.717501 
L 247.921803 265.344119 
L 249.341696 264.190275 
L 250.761588 263.609118 
L 253.601373 263.711675 
L 255.021266 263.433396 
L 256.441159 262.79079 
L 257.861051 261.568756 
L 259.280944 259.193332 
L 260.700837 254.701478 
L 262.120729 248.521613 
L 263.540622 241.398503 
L 264.960514 234.944843 
L 266.380407 229.895391 
L 267.8003 227.18854 
L 269.220192 226.58348 
L 270.640085 227.618868 
L 272.059978 228.288116 
L 273.47987 227.487919 
L 274.899763 223.760282 
L 276.319655 218.389428 
L 279.159441 203.522812 
L 280.579333 196.702659 
L 281.999226 194.108112 
L 283.419119 194.924927 
L 284.839011 199.966017 
L 286.258904 206.072541 
L 287.678796 211.483346 
L 289.098689 210.906711 
L 290.518582 203.260847 
L 291.938474 188.184114 
L 293.358367 170.276596 
L 294.77826 149.948415 
L 296.198152 132.360182 
L 297.618045 118.147904 
L 299.037937 111.623499 
L 300.45783 108.389689 
L 301.877723 108.177286 
L 303.297615 109.019666 
L 304.717508 115.079363 
L 306.137401 128.419256 
L 307.557293 150.736705 
L 311.816971 242.183332 
L 313.236864 255.327756 
L 314.656756 254.476436 
L 316.076649 243.228079 
L 317.496542 230.853878 
L 318.916434 222.639932 
L 320.336327 223.340426 
L 321.756219 230.349379 
L 323.176112 238.21954 
L 324.596005 239.169391 
L 326.015897 231.75677 
L 327.43579 219.89403 
L 328.855683 211.305435 
L 330.275575 212.12359 
L 331.695468 223.986112 
L 334.535253 262.673765 
L 335.955146 276.096674 
L 337.375038 282.069307 
L 338.794931 283.567636 
L 422.568596 283.567636 
L 422.568596 283.567636 
" clip-path="url(#p7d750d7986)" style="fill: none; stroke: #b317b1; stroke-width: 1.5; stroke-linecap: square"/>
   </g>
   <g id="patch_3">
    <path d="M 45.303125 296.728 
L 45.303125 7.2 
" style="fill: none; stroke: #000000; stroke-width: 0.8; stroke-linejoin: miter; stroke-linecap: square"/>
   </g>
   <g id="patch_4">
    <path d="M 442.021125 296.728 
L 442.021125 7.2 
" style="fill: none; stroke: #000000; stroke-width: 0.8; stroke-linejoin: miter; stroke-linecap: square"/>
   </g>
   <g id="patch_5">
    <path d="M 45.303125 296.728 
L 442.021125 296.728 
" style="fill: none; stroke: #000000; stroke-width: 0.8; stroke-linejoin: miter; stroke-linecap: square"/>
   </g>
   <g id="patch_6">
    <path d="M 45.303125 7.2 
L 442.021125 7.2 
" style="fill: none; stroke: #000000; stroke-width: 0.8; stroke-linejoin: miter; stroke-linecap: square"/>
   </g>
   <g id="legend_1">
    <g id="patch_7">
     <path d="M 353.7055 73.9125 
L 435.021125 73.9125 
Q 437.021125 73.9125 437.021125 71.9125 
L 437.021125 14.2 
Q 437.021125 12.2 435.021125 12.2 
L 353.7055 12.2 
Q 351.7055 12.2 351.7055 14.2 
L 351.7055 71.9125 
Q 351.7055 73.9125 353.7055 73.9125 
z
" style="fill: #ffffff; opacity: 0.8; stroke: #cccccc; stroke-linejoin: miter"/>
    </g>
    <g id="line2d_68">
     <path d="M 355.7055 20.298437 
L 365.7055 20.298437 
L 375.7055 20.298437 
" style="fill: none; stroke: #2cbdfe; stroke-width: 1.5; stroke-linecap: square"/>
    </g>
    <g id="text_16">
     <!-- t = 0s -->
     <g transform="translate(383.7055 23.798437) scale(0.1 -0.1)">
      <defs>
       <path id="DejaVuSans-3d" d="M 678 2906 
L 4684 2906 
L 4684 2381 
L 678 2381 
L 678 2906 
z
M 678 1631 
L 4684 1631 
L 4684 1100 
L 678 1100 
L 678 1631 
z
" transform="scale(0.015625)"/>
      </defs>
      <use xlink:href="#DejaVuSans-74"/>
      <use xlink:href="#DejaVuSans-20" x="39.208984"/>
      <use xlink:href="#DejaVuSans-3d" x="70.996094"/>
      <use xlink:href="#DejaVuSans-20" x="154.785156"/>
      <use xlink:href="#DejaVuSans-30" x="186.572266"/>
      <use xlink:href="#DejaVuSans-73" x="250.195312"/>
     </g>
    </g>
    <g id="line2d_69">
     <path d="M 355.7055 34.976562 
L 365.7055 34.976562 
L 375.7055 34.976562 
" style="fill: none; stroke: #5986e5; stroke-width: 1.5; stroke-linecap: square"/>
    </g>
    <g id="text_17">
     <!-- t = 1200s -->
     <g transform="translate(383.7055 38.476562) scale(0.1 -0.1)">
      <use xlink:href="#DejaVuSans-74"/>
      <use xlink:href="#DejaVuSans-20" x="39.208984"/>
      <use xlink:href="#DejaVuSans-3d" x="70.996094"/>
      <use xlink:href="#DejaVuSans-20" x="154.785156"/>
      <use xlink:href="#DejaVuSans-31" x="186.572266"/>
      <use xlink:href="#DejaVuSans-32" x="250.195312"/>
      <use xlink:href="#DejaVuSans-30" x="313.818359"/>
      <use xlink:href="#DejaVuSans-30" x="377.441406"/>
      <use xlink:href="#DejaVuSans-73" x="441.064453"/>
     </g>
    </g>
    <g id="line2d_70">
     <path d="M 355.7055 49.654687 
L 365.7055 49.654687 
L 375.7055 49.654687 
" style="fill: none; stroke: #864fcb; stroke-width: 1.5; stroke-linecap: square"/>
    </g>
    <g id="text_18">
     <!-- t = 2400s -->
     <g transform="translate(383.7055 53.154687) scale(0.1 -0.1)">
      <use xlink:href="#DejaVuSans-74"/>
      <use xlink:href="#DejaVuSans-20" x="39.208984"/>
      <use xlink:href="#DejaVuSans-3d" x="70.996094"/>
      <use xlink:href="#DejaVuSans-20" x="154.785156"/>
      <use xlink:href="#DejaVuSans-32" x="186.572266"/>
      <use xlink:href="#DejaVuSans-34" x="250.195312"/>
      <use xlink:href="#DejaVuSans-30" x="313.818359"/>
      <use xlink:href="#DejaVuSans-30" x="377.441406"/>
      <use xlink:href="#DejaVuSans-73" x="441.064453"/>
     </g>
    </g>
    <g id="line2d_71">
     <path d="M 355.7055 64.332812 
L 365.7055 64.332812 
L 375.7055 64.332812 
" style="fill: none; stroke: #b317b1; stroke-width: 1.5; stroke-linecap: square"/>
    </g>
    <g id="text_19">
     <!-- t = 3600s -->
     <g transform="translate(383.7055 67.832812) scale(0.1 -0.1)">
      <use xlink:href="#DejaVuSans-74"/>
      <use xlink:href="#DejaVuSans-20" x="39.208984"/>
      <use xlink:href="#DejaVuSans-3d" x="70.996094"/>
      <use xlink:href="#DejaVuSans-20" x="154.785156"/>
      <use xlink:href="#DejaVuSans-33" x="186.572266"/>
      <use xlink:href="#DejaVuSans-36" x="250.195312"/>
      <use xlink:href="#DejaVuSans-30" x="313.818359"/>
      <use xlink:href="#DejaVuSans-30" x="377.441406"/>
      <use xlink:href="#DejaVuSans-73" x="441.064453"/>
     </g>
    </g>
   </g>
  </g>
 </g>
 <defs>
  <clipPath id="p7d750d7986">
   <rect x="45.303125" y="7.2" width="396.718" height="289.528"/>
  </clipPath>
 </defs>
</svg>
