<?xml version="1.0" encoding="utf-8" standalone="no"?>
<!DOCTYPE svg PUBLIC "-//W3C//DTD SVG 1.1//EN"
  "http://www.w3.org/Graphics/SVG/1.1/DTD/svg11.dtd">
<svg xmlns:xlink="http://www.w3.org/1999/xlink" width="449.311125pt" height="334.28425pt" viewBox="0 0 449.311125 334.28425" xmlns="http://www.w3.org/2000/svg" version="1.1">
 <metadata>
  <rdf:RDF xmlns:dc="http://purl.org/dc/elements/1.1/" xmlns:cc="http://creativecommons.org/ns#" xmlns:rdf="http://www.w3.org/1999/02/22-rdf-syntax-ns#">
   <cc:Work>
    <dc:type rdf:resource="http://purl.org/dc/dcmitype/StillImage"/>
    <dc:date>2024-11-07T12:37:36.677209</dc:date>
    <dc:format>image/svg+xml</dc:format>
    <dc:creator>
     <cc:Agent>
      <dc:title>Matplotlib v3.9.2, https://matplotlib.org/</dc:title>
     </cc:Agent>
    </dc:creator>
   </cc:Work>
  </rdf:RDF>
 </metadata>
 <defs>
  <style type="text/css">*{stroke-linejoin: round; stroke-linecap: butt}</style>
 </defs>
 <g id="figure_1">
  <g id="patch_1">
   <path d="M 0 334.28425 
L 449.311125 334.28425 
L 449.311125 0 
L 0 0 
z
" style="fill: #ffffff"/>
  </g>
  <g id="axes_1">
   <g id="patch_2">
    <path d="M 45.303125 296.728 
L 442.111125 296.728 
L 442.111125 7.2 
L 45.303125 7.2 
z
" style="fill: #ffffff"/>
   </g>
   <g id="matplotlib.axis_1">
    <g id="xtick_1">
     <g id="line2d_1">
      <path d="M 62.623816 296.728 
L 62.623816 7.2 
" clip-path="url(#p1b77136a3d)" style="fill: none; stroke: #b0b0b0; stroke-width: 0.8; stroke-linecap: square"/>
     </g>
     <g id="line2d_2">
      <defs>
       <path id="m42e7e61ed6" d="M 0 0 
L 0 3.5 
" style="stroke: #000000; stroke-width: 0.8"/>
      </defs>
      <g>
       <use xlink:href="#m42e7e61ed6" x="62.623816" y="296.728" style="stroke: #000000; stroke-width: 0.8"/>
      </g>
     </g>
     <g id="text_1">
      <!-- $\mathdefault{10^{1}}$ -->
      <g transform="translate(53.823816 311.326437) scale(0.1 -0.1)">
       <defs>
        <path id="DejaVuSans-31" d="M 794 531 
L 1825 531 
L 1825 4091 
L 703 3866 
L 703 4441 
L 1819 4666 
L 2450 4666 
L 2450 531 
L 3481 531 
L 3481 0 
L 794 0 
L 794 531 
z
" transform="scale(0.015625)"/>
        <path id="DejaVuSans-30" d="M 2034 4250 
Q 1547 4250 1301 3770 
Q 1056 3291 1056 2328 
Q 1056 1369 1301 889 
Q 1547 409 2034 409 
Q 2525 409 2770 889 
Q 3016 1369 3016 2328 
Q 3016 3291 2770 3770 
Q 2525 4250 2034 4250 
z
M 2034 4750 
Q 2819 4750 3233 4129 
Q 3647 3509 3647 2328 
Q 3647 1150 3233 529 
Q 2819 -91 2034 -91 
Q 1250 -91 836 529 
Q 422 1150 422 2328 
Q 422 3509 836 4129 
Q 1250 4750 2034 4750 
z
" transform="scale(0.015625)"/>
       </defs>
       <use xlink:href="#DejaVuSans-31" transform="translate(0 0.684375)"/>
       <use xlink:href="#DejaVuSans-30" transform="translate(63.623047 0.684375)"/>
       <use xlink:href="#DejaVuSans-31" transform="translate(128.203125 38.965625) scale(0.7)"/>
      </g>
     </g>
    </g>
    <g id="xtick_2">
     <g id="line2d_3">
      <path d="M 160.530736 296.728 
L 160.530736 7.2 
" clip-path="url(#p1b77136a3d)" style="fill: none; stroke: #b0b0b0; stroke-width: 0.8; stroke-linecap: square"/>
     </g>
     <g id="line2d_4">
      <g>
       <use xlink:href="#m42e7e61ed6" x="160.530736" y="296.728" style="stroke: #000000; stroke-width: 0.8"/>
      </g>
     </g>
     <g id="text_2">
      <!-- $\mathdefault{10^{2}}$ -->
      <g transform="translate(151.730736 311.326437) scale(0.1 -0.1)">
       <defs>
        <path id="DejaVuSans-32" d="M 1228 531 
L 3431 531 
L 3431 0 
L 469 0 
L 469 531 
Q 828 903 1448 1529 
Q 2069 2156 2228 2338 
Q 2531 2678 2651 2914 
Q 2772 3150 2772 3378 
Q 2772 3750 2511 3984 
Q 2250 4219 1831 4219 
Q 1534 4219 1204 4116 
Q 875 4013 500 3803 
L 500 4441 
Q 881 4594 1212 4672 
Q 1544 4750 1819 4750 
Q 2544 4750 2975 4387 
Q 3406 4025 3406 3419 
Q 3406 3131 3298 2873 
Q 3191 2616 2906 2266 
Q 2828 2175 2409 1742 
Q 1991 1309 1228 531 
z
" transform="scale(0.015625)"/>
       </defs>
       <use xlink:href="#DejaVuSans-31" transform="translate(0 0.765625)"/>
       <use xlink:href="#DejaVuSans-30" transform="translate(63.623047 0.765625)"/>
       <use xlink:href="#DejaVuSans-32" transform="translate(128.203125 39.046875) scale(0.7)"/>
      </g>
     </g>
    </g>
    <g id="xtick_3">
     <g id="line2d_5">
      <path d="M 258.437656 296.728 
L 258.437656 7.2 
" clip-path="url(#p1b77136a3d)" style="fill: none; stroke: #b0b0b0; stroke-width: 0.8; stroke-linecap: square"/>
     </g>
     <g id="line2d_6">
      <g>
       <use xlink:href="#m42e7e61ed6" x="258.437656" y="296.728" style="stroke: #000000; stroke-width: 0.8"/>
      </g>
     </g>
     <g id="text_3">
      <!-- $\mathdefault{10^{3}}$ -->
      <g transform="translate(249.637656 311.326437) scale(0.1 -0.1)">
       <defs>
        <path id="DejaVuSans-33" d="M 2597 2516 
Q 3050 2419 3304 2112 
Q 3559 1806 3559 1356 
Q 3559 666 3084 287 
Q 2609 -91 1734 -91 
Q 1441 -91 1130 -33 
Q 819 25 488 141 
L 488 750 
Q 750 597 1062 519 
Q 1375 441 1716 441 
Q 2309 441 2620 675 
Q 2931 909 2931 1356 
Q 2931 1769 2642 2001 
Q 2353 2234 1838 2234 
L 1294 2234 
L 1294 2753 
L 1863 2753 
Q 2328 2753 2575 2939 
Q 2822 3125 2822 3475 
Q 2822 3834 2567 4026 
Q 2313 4219 1838 4219 
Q 1578 4219 1281 4162 
Q 984 4106 628 3988 
L 628 4550 
Q 988 4650 1302 4700 
Q 1616 4750 1894 4750 
Q 2613 4750 3031 4423 
Q 3450 4097 3450 3541 
Q 3450 3153 3228 2886 
Q 3006 2619 2597 2516 
z
" transform="scale(0.015625)"/>
       </defs>
       <use xlink:href="#DejaVuSans-31" transform="translate(0 0.765625)"/>
       <use xlink:href="#DejaVuSans-30" transform="translate(63.623047 0.765625)"/>
       <use xlink:href="#DejaVuSans-33" transform="translate(128.203125 39.046875) scale(0.7)"/>
      </g>
     </g>
    </g>
    <g id="xtick_4">
     <g id="line2d_7">
      <path d="M 356.344576 296.728 
L 356.344576 7.2 
" clip-path="url(#p1b77136a3d)" style="fill: none; stroke: #b0b0b0; stroke-width: 0.8; stroke-linecap: square"/>
     </g>
     <g id="line2d_8">
      <g>
       <use xlink:href="#m42e7e61ed6" x="356.344576" y="296.728" style="stroke: #000000; stroke-width: 0.8"/>
      </g>
     </g>
     <g id="text_4">
      <!-- $\mathdefault{10^{4}}$ -->
      <g transform="translate(347.544576 311.326437) scale(0.1 -0.1)">
       <defs>
        <path id="DejaVuSans-34" d="M 2419 4116 
L 825 1625 
L 2419 1625 
L 2419 4116 
z
M 2253 4666 
L 3047 4666 
L 3047 1625 
L 3713 1625 
L 3713 1100 
L 3047 1100 
L 3047 0 
L 2419 0 
L 2419 1100 
L 313 1100 
L 313 1709 
L 2253 4666 
z
" transform="scale(0.015625)"/>
       </defs>
       <use xlink:href="#DejaVuSans-31" transform="translate(0 0.684375)"/>
       <use xlink:href="#DejaVuSans-30" transform="translate(63.623047 0.684375)"/>
       <use xlink:href="#DejaVuSans-34" transform="translate(128.203125 38.965625) scale(0.7)"/>
      </g>
     </g>
    </g>
    <g id="xtick_5">
     <g id="line2d_9">
      <defs>
       <path id="m81ff3c4dfb" d="M 0 0 
L 0 2 
" style="stroke: #000000; stroke-width: 0.6"/>
      </defs>
      <g>
       <use xlink:href="#m81ff3c4dfb" x="47.457842" y="296.728" style="stroke: #000000; stroke-width: 0.6"/>
      </g>
     </g>
    </g>
    <g id="xtick_6">
     <g id="line2d_10">
      <g>
       <use xlink:href="#m81ff3c4dfb" x="53.135655" y="296.728" style="stroke: #000000; stroke-width: 0.6"/>
      </g>
     </g>
    </g>
    <g id="xtick_7">
     <g id="line2d_11">
      <g>
       <use xlink:href="#m81ff3c4dfb" x="58.143841" y="296.728" style="stroke: #000000; stroke-width: 0.6"/>
      </g>
     </g>
    </g>
    <g id="xtick_8">
     <g id="line2d_12">
      <g>
       <use xlink:href="#m81ff3c4dfb" x="92.096735" y="296.728" style="stroke: #000000; stroke-width: 0.6"/>
      </g>
     </g>
    </g>
    <g id="xtick_9">
     <g id="line2d_13">
      <g>
       <use xlink:href="#m81ff3c4dfb" x="109.337288" y="296.728" style="stroke: #000000; stroke-width: 0.6"/>
      </g>
     </g>
    </g>
    <g id="xtick_10">
     <g id="line2d_14">
      <g>
       <use xlink:href="#m81ff3c4dfb" x="121.569655" y="296.728" style="stroke: #000000; stroke-width: 0.6"/>
      </g>
     </g>
    </g>
    <g id="xtick_11">
     <g id="line2d_15">
      <g>
       <use xlink:href="#m81ff3c4dfb" x="131.057816" y="296.728" style="stroke: #000000; stroke-width: 0.6"/>
      </g>
     </g>
    </g>
    <g id="xtick_12">
     <g id="line2d_16">
      <g>
       <use xlink:href="#m81ff3c4dfb" x="138.810208" y="296.728" style="stroke: #000000; stroke-width: 0.6"/>
      </g>
     </g>
    </g>
    <g id="xtick_13">
     <g id="line2d_17">
      <g>
       <use xlink:href="#m81ff3c4dfb" x="145.364762" y="296.728" style="stroke: #000000; stroke-width: 0.6"/>
      </g>
     </g>
    </g>
    <g id="xtick_14">
     <g id="line2d_18">
      <g>
       <use xlink:href="#m81ff3c4dfb" x="151.042575" y="296.728" style="stroke: #000000; stroke-width: 0.6"/>
      </g>
     </g>
    </g>
    <g id="xtick_15">
     <g id="line2d_19">
      <g>
       <use xlink:href="#m81ff3c4dfb" x="156.050761" y="296.728" style="stroke: #000000; stroke-width: 0.6"/>
      </g>
     </g>
    </g>
    <g id="xtick_16">
     <g id="line2d_20">
      <g>
       <use xlink:href="#m81ff3c4dfb" x="190.003655" y="296.728" style="stroke: #000000; stroke-width: 0.6"/>
      </g>
     </g>
    </g>
    <g id="xtick_17">
     <g id="line2d_21">
      <g>
       <use xlink:href="#m81ff3c4dfb" x="207.244208" y="296.728" style="stroke: #000000; stroke-width: 0.6"/>
      </g>
     </g>
    </g>
    <g id="xtick_18">
     <g id="line2d_22">
      <g>
       <use xlink:href="#m81ff3c4dfb" x="219.476575" y="296.728" style="stroke: #000000; stroke-width: 0.6"/>
      </g>
     </g>
    </g>
    <g id="xtick_19">
     <g id="line2d_23">
      <g>
       <use xlink:href="#m81ff3c4dfb" x="228.964736" y="296.728" style="stroke: #000000; stroke-width: 0.6"/>
      </g>
     </g>
    </g>
    <g id="xtick_20">
     <g id="line2d_24">
      <g>
       <use xlink:href="#m81ff3c4dfb" x="236.717128" y="296.728" style="stroke: #000000; stroke-width: 0.6"/>
      </g>
     </g>
    </g>
    <g id="xtick_21">
     <g id="line2d_25">
      <g>
       <use xlink:href="#m81ff3c4dfb" x="243.271682" y="296.728" style="stroke: #000000; stroke-width: 0.6"/>
      </g>
     </g>
    </g>
    <g id="xtick_22">
     <g id="line2d_26">
      <g>
       <use xlink:href="#m81ff3c4dfb" x="248.949495" y="296.728" style="stroke: #000000; stroke-width: 0.6"/>
      </g>
     </g>
    </g>
    <g id="xtick_23">
     <g id="line2d_27">
      <g>
       <use xlink:href="#m81ff3c4dfb" x="253.957681" y="296.728" style="stroke: #000000; stroke-width: 0.6"/>
      </g>
     </g>
    </g>
    <g id="xtick_24">
     <g id="line2d_28">
      <g>
       <use xlink:href="#m81ff3c4dfb" x="287.910575" y="296.728" style="stroke: #000000; stroke-width: 0.6"/>
      </g>
     </g>
    </g>
    <g id="xtick_25">
     <g id="line2d_29">
      <g>
       <use xlink:href="#m81ff3c4dfb" x="305.151128" y="296.728" style="stroke: #000000; stroke-width: 0.6"/>
      </g>
     </g>
    </g>
    <g id="xtick_26">
     <g id="line2d_30">
      <g>
       <use xlink:href="#m81ff3c4dfb" x="317.383495" y="296.728" style="stroke: #000000; stroke-width: 0.6"/>
      </g>
     </g>
    </g>
    <g id="xtick_27">
     <g id="line2d_31">
      <g>
       <use xlink:href="#m81ff3c4dfb" x="326.871656" y="296.728" style="stroke: #000000; stroke-width: 0.6"/>
      </g>
     </g>
    </g>
    <g id="xtick_28">
     <g id="line2d_32">
      <g>
       <use xlink:href="#m81ff3c4dfb" x="334.624048" y="296.728" style="stroke: #000000; stroke-width: 0.6"/>
      </g>
     </g>
    </g>
    <g id="xtick_29">
     <g id="line2d_33">
      <g>
       <use xlink:href="#m81ff3c4dfb" x="341.178602" y="296.728" style="stroke: #000000; stroke-width: 0.6"/>
      </g>
     </g>
    </g>
    <g id="xtick_30">
     <g id="line2d_34">
      <g>
       <use xlink:href="#m81ff3c4dfb" x="346.856415" y="296.728" style="stroke: #000000; stroke-width: 0.6"/>
      </g>
     </g>
    </g>
    <g id="xtick_31">
     <g id="line2d_35">
      <g>
       <use xlink:href="#m81ff3c4dfb" x="351.864601" y="296.728" style="stroke: #000000; stroke-width: 0.6"/>
      </g>
     </g>
    </g>
    <g id="xtick_32">
     <g id="line2d_36">
      <g>
       <use xlink:href="#m81ff3c4dfb" x="385.817495" y="296.728" style="stroke: #000000; stroke-width: 0.6"/>
      </g>
     </g>
    </g>
    <g id="xtick_33">
     <g id="line2d_37">
      <g>
       <use xlink:href="#m81ff3c4dfb" x="403.058048" y="296.728" style="stroke: #000000; stroke-width: 0.6"/>
      </g>
     </g>
    </g>
    <g id="xtick_34">
     <g id="line2d_38">
      <g>
       <use xlink:href="#m81ff3c4dfb" x="415.290415" y="296.728" style="stroke: #000000; stroke-width: 0.6"/>
      </g>
     </g>
    </g>
    <g id="xtick_35">
     <g id="line2d_39">
      <g>
       <use xlink:href="#m81ff3c4dfb" x="424.778576" y="296.728" style="stroke: #000000; stroke-width: 0.6"/>
      </g>
     </g>
    </g>
    <g id="xtick_36">
     <g id="line2d_40">
      <g>
       <use xlink:href="#m81ff3c4dfb" x="432.530968" y="296.728" style="stroke: #000000; stroke-width: 0.6"/>
      </g>
     </g>
    </g>
    <g id="xtick_37">
     <g id="line2d_41">
      <g>
       <use xlink:href="#m81ff3c4dfb" x="439.085522" y="296.728" style="stroke: #000000; stroke-width: 0.6"/>
      </g>
     </g>
    </g>
    <g id="text_5">
     <!-- particle radius [µm] -->
     <g transform="translate(194.261813 325.004562) scale(0.1 -0.1)">
      <defs>
       <path id="DejaVuSans-70" d="M 1159 525 
L 1159 -1331 
L 581 -1331 
L 581 3500 
L 1159 3500 
L 1159 2969 
Q 1341 3281 1617 3432 
Q 1894 3584 2278 3584 
Q 2916 3584 3314 3078 
Q 3713 2572 3713 1747 
Q 3713 922 3314 415 
Q 2916 -91 2278 -91 
Q 1894 -91 1617 61 
Q 1341 213 1159 525 
z
M 3116 1747 
Q 3116 2381 2855 2742 
Q 2594 3103 2138 3103 
Q 1681 3103 1420 2742 
Q 1159 2381 1159 1747 
Q 1159 1113 1420 752 
Q 1681 391 2138 391 
Q 2594 391 2855 752 
Q 3116 1113 3116 1747 
z
" transform="scale(0.015625)"/>
       <path id="DejaVuSans-61" d="M 2194 1759 
Q 1497 1759 1228 1600 
Q 959 1441 959 1056 
Q 959 750 1161 570 
Q 1363 391 1709 391 
Q 2188 391 2477 730 
Q 2766 1069 2766 1631 
L 2766 1759 
L 2194 1759 
z
M 3341 1997 
L 3341 0 
L 2766 0 
L 2766 531 
Q 2569 213 2275 61 
Q 1981 -91 1556 -91 
Q 1019 -91 701 211 
Q 384 513 384 1019 
Q 384 1609 779 1909 
Q 1175 2209 1959 2209 
L 2766 2209 
L 2766 2266 
Q 2766 2663 2505 2880 
Q 2244 3097 1772 3097 
Q 1472 3097 1187 3025 
Q 903 2953 641 2809 
L 641 3341 
Q 956 3463 1253 3523 
Q 1550 3584 1831 3584 
Q 2591 3584 2966 3190 
Q 3341 2797 3341 1997 
z
" transform="scale(0.015625)"/>
       <path id="DejaVuSans-72" d="M 2631 2963 
Q 2534 3019 2420 3045 
Q 2306 3072 2169 3072 
Q 1681 3072 1420 2755 
Q 1159 2438 1159 1844 
L 1159 0 
L 581 0 
L 581 3500 
L 1159 3500 
L 1159 2956 
Q 1341 3275 1631 3429 
Q 1922 3584 2338 3584 
Q 2397 3584 2469 3576 
Q 2541 3569 2628 3553 
L 2631 2963 
z
" transform="scale(0.015625)"/>
       <path id="DejaVuSans-74" d="M 1172 4494 
L 1172 3500 
L 2356 3500 
L 2356 3053 
L 1172 3053 
L 1172 1153 
Q 1172 725 1289 603 
Q 1406 481 1766 481 
L 2356 481 
L 2356 0 
L 1766 0 
Q 1100 0 847 248 
Q 594 497 594 1153 
L 594 3053 
L 172 3053 
L 172 3500 
L 594 3500 
L 594 4494 
L 1172 4494 
z
" transform="scale(0.015625)"/>
       <path id="DejaVuSans-69" d="M 603 3500 
L 1178 3500 
L 1178 0 
L 603 0 
L 603 3500 
z
M 603 4863 
L 1178 4863 
L 1178 4134 
L 603 4134 
L 603 4863 
z
" transform="scale(0.015625)"/>
       <path id="DejaVuSans-63" d="M 3122 3366 
L 3122 2828 
Q 2878 2963 2633 3030 
Q 2388 3097 2138 3097 
Q 1578 3097 1268 2742 
Q 959 2388 959 1747 
Q 959 1106 1268 751 
Q 1578 397 2138 397 
Q 2388 397 2633 464 
Q 2878 531 3122 666 
L 3122 134 
Q 2881 22 2623 -34 
Q 2366 -91 2075 -91 
Q 1284 -91 818 406 
Q 353 903 353 1747 
Q 353 2603 823 3093 
Q 1294 3584 2113 3584 
Q 2378 3584 2631 3529 
Q 2884 3475 3122 3366 
z
" transform="scale(0.015625)"/>
       <path id="DejaVuSans-6c" d="M 603 4863 
L 1178 4863 
L 1178 0 
L 603 0 
L 603 4863 
z
" transform="scale(0.015625)"/>
       <path id="DejaVuSans-65" d="M 3597 1894 
L 3597 1613 
L 953 1613 
Q 991 1019 1311 708 
Q 1631 397 2203 397 
Q 2534 397 2845 478 
Q 3156 559 3463 722 
L 3463 178 
Q 3153 47 2828 -22 
Q 2503 -91 2169 -91 
Q 1331 -91 842 396 
Q 353 884 353 1716 
Q 353 2575 817 3079 
Q 1281 3584 2069 3584 
Q 2775 3584 3186 3129 
Q 3597 2675 3597 1894 
z
M 3022 2063 
Q 3016 2534 2758 2815 
Q 2500 3097 2075 3097 
Q 1594 3097 1305 2825 
Q 1016 2553 972 2059 
L 3022 2063 
z
" transform="scale(0.015625)"/>
       <path id="DejaVuSans-20" transform="scale(0.015625)"/>
       <path id="DejaVuSans-64" d="M 2906 2969 
L 2906 4863 
L 3481 4863 
L 3481 0 
L 2906 0 
L 2906 525 
Q 2725 213 2448 61 
Q 2172 -91 1784 -91 
Q 1150 -91 751 415 
Q 353 922 353 1747 
Q 353 2572 751 3078 
Q 1150 3584 1784 3584 
Q 2172 3584 2448 3432 
Q 2725 3281 2906 2969 
z
M 947 1747 
Q 947 1113 1208 752 
Q 1469 391 1925 391 
Q 2381 391 2643 752 
Q 2906 1113 2906 1747 
Q 2906 2381 2643 2742 
Q 2381 3103 1925 3103 
Q 1469 3103 1208 2742 
Q 947 2381 947 1747 
z
" transform="scale(0.015625)"/>
       <path id="DejaVuSans-75" d="M 544 1381 
L 544 3500 
L 1119 3500 
L 1119 1403 
Q 1119 906 1312 657 
Q 1506 409 1894 409 
Q 2359 409 2629 706 
Q 2900 1003 2900 1516 
L 2900 3500 
L 3475 3500 
L 3475 0 
L 2900 0 
L 2900 538 
Q 2691 219 2414 64 
Q 2138 -91 1772 -91 
Q 1169 -91 856 284 
Q 544 659 544 1381 
z
M 1991 3584 
L 1991 3584 
z
" transform="scale(0.015625)"/>
       <path id="DejaVuSans-73" d="M 2834 3397 
L 2834 2853 
Q 2591 2978 2328 3040 
Q 2066 3103 1784 3103 
Q 1356 3103 1142 2972 
Q 928 2841 928 2578 
Q 928 2378 1081 2264 
Q 1234 2150 1697 2047 
L 1894 2003 
Q 2506 1872 2764 1633 
Q 3022 1394 3022 966 
Q 3022 478 2636 193 
Q 2250 -91 1575 -91 
Q 1294 -91 989 -36 
Q 684 19 347 128 
L 347 722 
Q 666 556 975 473 
Q 1284 391 1588 391 
Q 1994 391 2212 530 
Q 2431 669 2431 922 
Q 2431 1156 2273 1281 
Q 2116 1406 1581 1522 
L 1381 1569 
Q 847 1681 609 1914 
Q 372 2147 372 2553 
Q 372 3047 722 3315 
Q 1072 3584 1716 3584 
Q 2034 3584 2315 3537 
Q 2597 3491 2834 3397 
z
" transform="scale(0.015625)"/>
       <path id="DejaVuSans-5b" d="M 550 4863 
L 1875 4863 
L 1875 4416 
L 1125 4416 
L 1125 -397 
L 1875 -397 
L 1875 -844 
L 550 -844 
L 550 4863 
z
" transform="scale(0.015625)"/>
       <path id="DejaVuSans-b5" d="M 544 -1331 
L 544 3500 
L 1119 3500 
L 1119 1325 
Q 1119 872 1334 640 
Q 1550 409 1972 409 
Q 2434 409 2667 671 
Q 2900 934 2900 1459 
L 2900 3500 
L 3475 3500 
L 3475 806 
Q 3475 619 3529 530 
Q 3584 441 3700 441 
Q 3728 441 3778 458 
Q 3828 475 3916 513 
L 3916 50 
Q 3788 -22 3673 -56 
Q 3559 -91 3450 -91 
Q 3234 -91 3106 31 
Q 2978 153 2931 403 
Q 2775 156 2548 32 
Q 2322 -91 2016 -91 
Q 1697 -91 1473 31 
Q 1250 153 1119 397 
L 1119 -1331 
L 544 -1331 
z
" transform="scale(0.015625)"/>
       <path id="DejaVuSans-6d" d="M 3328 2828 
Q 3544 3216 3844 3400 
Q 4144 3584 4550 3584 
Q 5097 3584 5394 3201 
Q 5691 2819 5691 2113 
L 5691 0 
L 5113 0 
L 5113 2094 
Q 5113 2597 4934 2840 
Q 4756 3084 4391 3084 
Q 3944 3084 3684 2787 
Q 3425 2491 3425 1978 
L 3425 0 
L 2847 0 
L 2847 2094 
Q 2847 2600 2669 2842 
Q 2491 3084 2119 3084 
Q 1678 3084 1418 2786 
Q 1159 2488 1159 1978 
L 1159 0 
L 581 0 
L 581 3500 
L 1159 3500 
L 1159 2956 
Q 1356 3278 1631 3431 
Q 1906 3584 2284 3584 
Q 2666 3584 2933 3390 
Q 3200 3197 3328 2828 
z
" transform="scale(0.015625)"/>
       <path id="DejaVuSans-5d" d="M 1947 4863 
L 1947 -844 
L 622 -844 
L 622 -397 
L 1369 -397 
L 1369 4416 
L 622 4416 
L 622 4863 
L 1947 4863 
z
" transform="scale(0.015625)"/>
      </defs>
      <use xlink:href="#DejaVuSans-70"/>
      <use xlink:href="#DejaVuSans-61" x="63.476562"/>
      <use xlink:href="#DejaVuSans-72" x="124.755859"/>
      <use xlink:href="#DejaVuSans-74" x="165.869141"/>
      <use xlink:href="#DejaVuSans-69" x="205.078125"/>
      <use xlink:href="#DejaVuSans-63" x="232.861328"/>
      <use xlink:href="#DejaVuSans-6c" x="287.841797"/>
      <use xlink:href="#DejaVuSans-65" x="315.625"/>
      <use xlink:href="#DejaVuSans-20" x="377.148438"/>
      <use xlink:href="#DejaVuSans-72" x="408.935547"/>
      <use xlink:href="#DejaVuSans-61" x="450.048828"/>
      <use xlink:href="#DejaVuSans-64" x="511.328125"/>
      <use xlink:href="#DejaVuSans-69" x="574.804688"/>
      <use xlink:href="#DejaVuSans-75" x="602.587891"/>
      <use xlink:href="#DejaVuSans-73" x="665.966797"/>
      <use xlink:href="#DejaVuSans-20" x="718.066406"/>
      <use xlink:href="#DejaVuSans-5b" x="749.853516"/>
      <use xlink:href="#DejaVuSans-b5" x="788.867188"/>
      <use xlink:href="#DejaVuSans-6d" x="852.490234"/>
      <use xlink:href="#DejaVuSans-5d" x="949.902344"/>
     </g>
    </g>
   </g>
   <g id="matplotlib.axis_2">
    <g id="ytick_1">
     <g id="line2d_42">
      <path d="M 45.303125 283.567636 
L 442.111125 283.567636 
" clip-path="url(#p1b77136a3d)" style="fill: none; stroke: #b0b0b0; stroke-width: 0.8; stroke-linecap: square"/>
     </g>
     <g id="line2d_43">
      <defs>
       <path id="m0dd33b47f2" d="M 0 0 
L -3.5 0 
" style="stroke: #000000; stroke-width: 0.8"/>
      </defs>
      <g>
       <use xlink:href="#m0dd33b47f2" x="45.303125" y="283.567636" style="stroke: #000000; stroke-width: 0.8"/>
      </g>
     </g>
     <g id="text_6">
      <!-- 0.0 -->
      <g transform="translate(22.4 287.366855) scale(0.1 -0.1)">
       <defs>
        <path id="DejaVuSans-2e" d="M 684 794 
L 1344 794 
L 1344 0 
L 684 0 
L 684 794 
z
" transform="scale(0.015625)"/>
       </defs>
       <use xlink:href="#DejaVuSans-30"/>
       <use xlink:href="#DejaVuSans-2e" x="63.623047"/>
       <use xlink:href="#DejaVuSans-30" x="95.410156"/>
      </g>
     </g>
    </g>
    <g id="ytick_2">
     <g id="line2d_44">
      <path d="M 45.303125 230.563512 
L 442.111125 230.563512 
" clip-path="url(#p1b77136a3d)" style="fill: none; stroke: #b0b0b0; stroke-width: 0.8; stroke-linecap: square"/>
     </g>
     <g id="line2d_45">
      <g>
       <use xlink:href="#m0dd33b47f2" x="45.303125" y="230.563512" style="stroke: #000000; stroke-width: 0.8"/>
      </g>
     </g>
     <g id="text_7">
      <!-- 0.5 -->
      <g transform="translate(22.4 234.362731) scale(0.1 -0.1)">
       <defs>
        <path id="DejaVuSans-35" d="M 691 4666 
L 3169 4666 
L 3169 4134 
L 1269 4134 
L 1269 2991 
Q 1406 3038 1543 3061 
Q 1681 3084 1819 3084 
Q 2600 3084 3056 2656 
Q 3513 2228 3513 1497 
Q 3513 744 3044 326 
Q 2575 -91 1722 -91 
Q 1428 -91 1123 -41 
Q 819 9 494 109 
L 494 744 
Q 775 591 1075 516 
Q 1375 441 1709 441 
Q 2250 441 2565 725 
Q 2881 1009 2881 1497 
Q 2881 1984 2565 2268 
Q 2250 2553 1709 2553 
Q 1456 2553 1204 2497 
Q 953 2441 691 2322 
L 691 4666 
z
" transform="scale(0.015625)"/>
       </defs>
       <use xlink:href="#DejaVuSans-30"/>
       <use xlink:href="#DejaVuSans-2e" x="63.623047"/>
       <use xlink:href="#DejaVuSans-35" x="95.410156"/>
      </g>
     </g>
    </g>
    <g id="ytick_3">
     <g id="line2d_46">
      <path d="M 45.303125 177.559388 
L 442.111125 177.559388 
" clip-path="url(#p1b77136a3d)" style="fill: none; stroke: #b0b0b0; stroke-width: 0.8; stroke-linecap: square"/>
     </g>
     <g id="line2d_47">
      <g>
       <use xlink:href="#m0dd33b47f2" x="45.303125" y="177.559388" style="stroke: #000000; stroke-width: 0.8"/>
      </g>
     </g>
     <g id="text_8">
      <!-- 1.0 -->
      <g transform="translate(22.4 181.358607) scale(0.1 -0.1)">
       <use xlink:href="#DejaVuSans-31"/>
       <use xlink:href="#DejaVuSans-2e" x="63.623047"/>
       <use xlink:href="#DejaVuSans-30" x="95.410156"/>
      </g>
     </g>
    </g>
    <g id="ytick_4">
     <g id="line2d_48">
      <path d="M 45.303125 124.555264 
L 442.111125 124.555264 
" clip-path="url(#p1b77136a3d)" style="fill: none; stroke: #b0b0b0; stroke-width: 0.8; stroke-linecap: square"/>
     </g>
     <g id="line2d_49">
      <g>
       <use xlink:href="#m0dd33b47f2" x="45.303125" y="124.555264" style="stroke: #000000; stroke-width: 0.8"/>
      </g>
     </g>
     <g id="text_9">
      <!-- 1.5 -->
      <g transform="translate(22.4 128.354483) scale(0.1 -0.1)">
       <use xlink:href="#DejaVuSans-31"/>
       <use xlink:href="#DejaVuSans-2e" x="63.623047"/>
       <use xlink:href="#DejaVuSans-35" x="95.410156"/>
      </g>
     </g>
    </g>
    <g id="ytick_5">
     <g id="line2d_50">
      <path d="M 45.303125 71.55114 
L 442.111125 71.55114 
" clip-path="url(#p1b77136a3d)" style="fill: none; stroke: #b0b0b0; stroke-width: 0.8; stroke-linecap: square"/>
     </g>
     <g id="line2d_51">
      <g>
       <use xlink:href="#m0dd33b47f2" x="45.303125" y="71.55114" style="stroke: #000000; stroke-width: 0.8"/>
      </g>
     </g>
     <g id="text_10">
      <!-- 2.0 -->
      <g transform="translate(22.4 75.350359) scale(0.1 -0.1)">
       <use xlink:href="#DejaVuSans-32"/>
       <use xlink:href="#DejaVuSans-2e" x="63.623047"/>
       <use xlink:href="#DejaVuSans-30" x="95.410156"/>
      </g>
     </g>
    </g>
    <g id="ytick_6">
     <g id="line2d_52">
      <path d="M 45.303125 18.547016 
L 442.111125 18.547016 
" clip-path="url(#p1b77136a3d)" style="fill: none; stroke: #b0b0b0; stroke-width: 0.8; stroke-linecap: square"/>
     </g>
     <g id="line2d_53">
      <g>
       <use xlink:href="#m0dd33b47f2" x="45.303125" y="18.547016" style="stroke: #000000; stroke-width: 0.8"/>
      </g>
     </g>
     <g id="text_11">
      <!-- 2.5 -->
      <g transform="translate(22.4 22.346235) scale(0.1 -0.1)">
       <use xlink:href="#DejaVuSans-32"/>
       <use xlink:href="#DejaVuSans-2e" x="63.623047"/>
       <use xlink:href="#DejaVuSans-35" x="95.410156"/>
      </g>
     </g>
    </g>
    <g id="text_12">
     <!-- dm/dlnr [g/m$^3$] -->
     <g transform="translate(16.3 189.114) rotate(-90) scale(0.1 -0.1)">
      <defs>
       <path id="DejaVuSans-2f" d="M 1625 4666 
L 2156 4666 
L 531 -594 
L 0 -594 
L 1625 4666 
z
" transform="scale(0.015625)"/>
       <path id="DejaVuSans-6e" d="M 3513 2113 
L 3513 0 
L 2938 0 
L 2938 2094 
Q 2938 2591 2744 2837 
Q 2550 3084 2163 3084 
Q 1697 3084 1428 2787 
Q 1159 2491 1159 1978 
L 1159 0 
L 581 0 
L 581 3500 
L 1159 3500 
L 1159 2956 
Q 1366 3272 1645 3428 
Q 1925 3584 2291 3584 
Q 2894 3584 3203 3211 
Q 3513 2838 3513 2113 
z
" transform="scale(0.015625)"/>
       <path id="DejaVuSans-67" d="M 2906 1791 
Q 2906 2416 2648 2759 
Q 2391 3103 1925 3103 
Q 1463 3103 1205 2759 
Q 947 2416 947 1791 
Q 947 1169 1205 825 
Q 1463 481 1925 481 
Q 2391 481 2648 825 
Q 2906 1169 2906 1791 
z
M 3481 434 
Q 3481 -459 3084 -895 
Q 2688 -1331 1869 -1331 
Q 1566 -1331 1297 -1286 
Q 1028 -1241 775 -1147 
L 775 -588 
Q 1028 -725 1275 -790 
Q 1522 -856 1778 -856 
Q 2344 -856 2625 -561 
Q 2906 -266 2906 331 
L 2906 616 
Q 2728 306 2450 153 
Q 2172 0 1784 0 
Q 1141 0 747 490 
Q 353 981 353 1791 
Q 353 2603 747 3093 
Q 1141 3584 1784 3584 
Q 2172 3584 2450 3431 
Q 2728 3278 2906 2969 
L 2906 3500 
L 3481 3500 
L 3481 434 
z
" transform="scale(0.015625)"/>
      </defs>
      <use xlink:href="#DejaVuSans-64" transform="translate(0 0.765625)"/>
      <use xlink:href="#DejaVuSans-6d" transform="translate(63.476562 0.765625)"/>
      <use xlink:href="#DejaVuSans-2f" transform="translate(160.888672 0.765625)"/>
      <use xlink:href="#DejaVuSans-64" transform="translate(194.580078 0.765625)"/>
      <use xlink:href="#DejaVuSans-6c" transform="translate(258.056641 0.765625)"/>
      <use xlink:href="#DejaVuSans-6e" transform="translate(285.839844 0.765625)"/>
      <use xlink:href="#DejaVuSans-72" transform="translate(349.21875 0.765625)"/>
      <use xlink:href="#DejaVuSans-20" transform="translate(390.332031 0.765625)"/>
      <use xlink:href="#DejaVuSans-5b" transform="translate(422.119141 0.765625)"/>
      <use xlink:href="#DejaVuSans-67" transform="translate(461.132812 0.765625)"/>
      <use xlink:href="#DejaVuSans-2f" transform="translate(524.609375 0.765625)"/>
      <use xlink:href="#DejaVuSans-6d" transform="translate(558.300781 0.765625)"/>
      <use xlink:href="#DejaVuSans-33" transform="translate(656.669922 39.046875) scale(0.7)"/>
      <use xlink:href="#DejaVuSans-5d" transform="translate(703.94043 0.765625)"/>
     </g>
    </g>
   </g>
   <g id="line2d_54">
    <path d="M 63.339852 283.286256 
L 69.020711 282.947947 
L 73.281355 282.451557 
L 76.121785 281.919501 
L 78.962214 281.139731 
L 81.802644 280.001673 
L 83.222859 279.251681 
L 84.643073 278.34919 
L 86.063288 277.264977 
L 87.483503 275.964829 
L 88.903718 274.4089 
L 90.323932 272.551062 
L 91.744147 270.338289 
L 93.164362 267.710116 
L 94.584577 264.598245 
L 96.004791 260.9264 
L 97.425006 256.610538 
L 98.845221 251.559584 
L 100.265436 245.676874 
L 101.68565 238.862526 
L 103.105865 231.017015 
L 104.52608 222.046203 
L 105.946295 211.868127 
L 107.366509 200.421782 
L 108.786724 187.67804 
L 110.206939 173.652731 
L 113.047368 142.136633 
L 120.148442 57.403081 
L 121.568657 43.904359 
L 122.988872 33.383947 
L 124.409086 26.699685 
L 125.829301 24.630256 
L 127.249516 27.78333 
L 128.669731 36.498052 
L 130.089945 50.755811 
L 131.51016 70.117154 
L 132.930375 93.703877 
L 135.770804 148.172881 
L 138.611234 201.616915 
L 140.031449 224.272957 
L 141.451663 242.970643 
L 142.871878 257.418379 
L 144.292093 267.823534 
L 145.712308 274.769703 
L 147.132522 279.040398 
L 148.552737 281.440958 
L 149.972952 282.664374 
L 151.393167 283.224428 
L 152.813381 283.452334 
L 155.653811 283.559108 
L 179.797461 283.567636 
L 424.074398 283.567636 
L 424.074398 283.567636 
" clip-path="url(#p1b77136a3d)" style="fill: none; stroke: #000000; stroke-width: 1.5; stroke-linecap: square"/>
   </g>
   <g id="line2d_55">
    <path d="M 63.339852 283.336719 
L 66.180282 283.143923 
L 67.600497 283.10156 
L 69.020711 282.880082 
L 71.861141 282.728079 
L 73.281355 282.41062 
L 74.70157 282.290524 
L 76.121785 281.8757 
L 77.542 281.700782 
L 80.382429 280.528528 
L 81.802644 279.768497 
L 83.222859 279.362246 
L 84.643073 278.413687 
L 86.063288 277.30672 
L 87.483503 276.022096 
L 88.903718 274.539452 
L 90.323932 272.030246 
L 91.744147 270.809983 
L 93.164362 267.606447 
L 94.584577 264.892486 
L 96.004791 260.627633 
L 97.425006 256.938021 
L 98.845221 251.330394 
L 100.265436 244.77272 
L 101.68565 238.930319 
L 103.105865 232.409926 
L 104.52608 220.74751 
L 105.946295 211.738336 
L 107.366509 201.672367 
L 110.206939 174.199882 
L 111.627154 155.656585 
L 113.047368 142.042052 
L 114.467583 127.26145 
L 115.887798 106.195347 
L 117.308013 92.750244 
L 118.728227 72.792694 
L 121.568657 39.707847 
L 122.988872 37.124581 
L 125.829301 20.360364 
L 127.249516 23.423504 
L 128.669731 42.138635 
L 130.089945 55.396322 
L 131.51016 59.170985 
L 132.930375 97.278041 
L 134.35059 111.774142 
L 135.770804 150.364188 
L 137.191019 178.602729 
L 138.611234 214.631256 
L 140.031449 207.336451 
L 141.451663 255.499585 
L 142.871878 253.127038 
L 144.292093 248.060118 
L 145.712308 283.567636 
L 421.233968 283.567636 
L 421.233968 283.567636 
" clip-path="url(#p1b77136a3d)" style="fill: none; stroke: #2cbdfe; stroke-width: 1.5; stroke-linecap: square"/>
   </g>
   <g id="line2d_56">
    <path d="M 63.339852 283.560244 
L 84.643073 283.440817 
L 93.164362 283.210038 
L 100.265436 282.789709 
L 105.946295 282.229289 
L 111.627154 281.452779 
L 118.728227 280.247414 
L 125.829301 278.85667 
L 131.51016 277.57228 
L 137.191019 276.062077 
L 141.451663 274.740092 
L 145.712308 273.221968 
L 149.972952 271.473671 
L 154.233596 269.45688 
L 158.49424 267.128315 
L 162.754884 264.439218 
L 165.595314 262.419494 
L 168.435743 260.19781 
L 171.276173 257.755483 
L 174.116602 255.072879 
L 176.957032 252.129646 
L 179.797461 248.905082 
L 182.637891 245.378687 
L 185.47832 241.53097 
L 188.31875 237.344575 
L 191.159179 232.805848 
L 193.999609 227.906955 
L 196.840038 222.648705 
L 199.680468 217.044245 
L 203.941112 208.060623 
L 209.621971 195.36591 
L 215.30283 182.808215 
L 218.14326 177.115826 
L 219.563474 174.547792 
L 220.983689 172.22673 
L 222.403904 170.203958 
L 223.824119 168.534487 
L 225.244333 167.276357 
L 226.664548 166.489672 
L 228.084763 166.235269 
L 229.504978 166.572994 
L 230.925192 167.559525 
L 232.345407 169.245751 
L 233.765622 171.673717 
L 235.185837 174.873193 
L 236.606051 178.85799 
L 238.026266 183.62222 
L 239.446481 189.136756 
L 240.866696 195.346262 
L 243.707125 209.487306 
L 250.808199 248.011763 
L 252.228413 254.838996 
L 253.648628 260.990632 
L 255.068843 266.361047 
L 256.489058 270.891223 
L 257.909272 274.572267 
L 259.329487 277.443472 
L 260.749702 279.584882 
L 262.169917 281.105385 
L 263.590131 282.128254 
L 265.010346 282.776678 
L 266.430561 283.161724 
L 269.27099 283.4831 
L 273.531635 283.563723 
L 331.760439 283.567636 
L 399.930747 283.567636 
L 399.930747 283.567636 
" clip-path="url(#p1b77136a3d)" style="fill: none; stroke: #000000; stroke-width: 1.5; stroke-linecap: square"/>
   </g>
   <g id="line2d_57">
    <path d="M 63.339852 283.566256 
L 88.903718 283.354526 
L 98.845221 282.979063 
L 110.206939 281.851155 
L 118.728227 280.449208 
L 121.568657 279.765465 
L 125.829301 278.575975 
L 128.669731 278.050064 
L 132.930375 277.456671 
L 137.191019 276.599584 
L 138.611234 276.114745 
L 142.871878 274.027987 
L 145.712308 273.017755 
L 148.552737 272.067831 
L 149.972952 271.259188 
L 151.393167 270.183514 
L 154.233596 267.590662 
L 157.074026 264.476194 
L 158.49424 262.759518 
L 159.914455 261.552911 
L 161.33467 260.882937 
L 162.754884 260.847842 
L 165.595314 261.033249 
L 167.015529 260.601318 
L 171.276173 257.921634 
L 172.696388 257.245366 
L 174.116602 256.057761 
L 175.536817 253.7847 
L 176.957032 250.52072 
L 178.377247 246.652938 
L 179.797461 243.123365 
L 181.217676 240.568138 
L 182.637891 239.631938 
L 184.058106 239.773131 
L 185.47832 240.257537 
L 186.898535 239.96439 
L 188.31875 239.178044 
L 189.738965 238.258329 
L 193.999609 237.094698 
L 195.419824 236.067729 
L 196.840038 234.182591 
L 198.260253 231.043577 
L 199.680468 226.586837 
L 201.100683 221.252885 
L 202.520897 214.494033 
L 203.941112 206.674793 
L 206.781542 188.747646 
L 208.201756 180.510739 
L 209.621971 173.536731 
L 211.042186 167.565959 
L 212.462401 162.933341 
L 213.882615 160.795463 
L 215.30283 162.505762 
L 216.723045 168.345374 
L 218.14326 176.442658 
L 219.563474 183.651754 
L 220.983689 185.592216 
L 222.403904 178.66972 
L 223.824119 161.916559 
L 225.244333 140.469161 
L 226.664548 122.081509 
L 228.084763 114.307375 
L 229.504978 118.762142 
L 230.925192 133.29103 
L 232.345407 150.916062 
L 233.765622 165.539243 
L 235.185837 174.703878 
L 236.606051 182.030507 
L 238.026266 193.031673 
L 239.446481 208.482354 
L 240.866696 225.61379 
L 242.28691 238.362357 
L 243.707125 245.464038 
L 245.12734 247.038038 
L 246.547554 248.294028 
L 247.967769 251.894358 
L 249.387984 260.156953 
L 250.808199 269.796646 
L 252.228413 278.05924 
L 253.648628 282.190537 
L 255.068843 283.567636 
L 422.654183 283.567636 
L 422.654183 283.567636 
" clip-path="url(#p1b77136a3d)" style="fill: none; stroke: #5986e5; stroke-width: 1.5; stroke-linecap: square"/>
   </g>
   <g id="line2d_58">
    <path d="M 63.339852 283.567438 
L 122.988872 283.458404 
L 155.653811 283.174827 
L 174.116602 282.807839 
L 188.31875 282.311231 
L 199.680468 281.69066 
L 208.201756 281.031965 
L 216.723045 280.142579 
L 223.824119 279.167747 
L 229.504978 278.191966 
L 235.185837 277.000271 
L 240.866696 275.545227 
L 245.12734 274.246922 
L 249.387984 272.739705 
L 253.648628 270.990627 
L 257.909272 268.961927 
L 262.169917 266.610552 
L 265.010346 264.839879 
L 267.850776 262.888365 
L 270.691205 260.73896 
L 273.531635 258.373515 
L 276.372064 255.772901 
L 279.212494 252.917227 
L 282.052923 249.786179 
L 284.893353 246.359539 
L 287.733782 242.617935 
L 290.574212 238.543906 
L 293.414641 234.123371 
L 296.255071 229.347635 
L 299.0955 224.216053 
L 301.93593 218.739547 
L 306.196574 209.942855 
L 311.877433 197.460313 
L 317.558292 185.012472 
L 320.398721 179.308027 
L 323.239151 174.343437 
L 324.659366 172.254457 
L 326.07958 170.497421 
L 327.499795 169.128791 
L 328.92001 168.207388 
L 330.340224 167.793189 
L 331.760439 167.945748 
L 333.180654 168.722184 
L 334.600869 170.174728 
L 336.021083 172.347831 
L 337.441298 175.274878 
L 338.861513 178.974615 
L 340.281728 183.44745 
L 341.701942 188.671868 
L 343.122157 194.601288 
L 344.542372 201.161761 
L 347.382801 215.738953 
L 353.06366 246.348313 
L 354.483875 253.259385 
L 355.90409 259.542932 
L 357.324305 265.082298 
L 358.744519 269.80485 
L 360.164734 273.686911 
L 361.584949 276.753513 
L 363.005164 279.072639 
L 364.425378 280.744623 
L 365.845593 281.888401 
L 367.265808 282.62696 
L 368.686023 283.074519 
L 370.106237 283.327418 
L 372.946667 283.52332 
L 380.047741 283.567543 
L 399.930747 283.567636 
L 399.930747 283.567636 
" clip-path="url(#p1b77136a3d)" style="fill: none; stroke: #000000; stroke-width: 1.5; stroke-linecap: square"/>
   </g>
   <g id="line2d_59">
    <path d="M 63.339852 283.567617 
L 121.568657 283.468621 
L 135.770804 283.399336 
L 148.552737 283.297037 
L 174.116602 282.758058 
L 178.377247 282.299804 
L 181.217676 282.292542 
L 185.47832 282.386281 
L 189.738965 282.357901 
L 195.419824 282.64891 
L 196.840038 282.495222 
L 199.680468 281.749183 
L 202.520897 280.962868 
L 203.941112 280.75885 
L 205.361327 280.754162 
L 209.621971 281.06879 
L 211.042186 280.848006 
L 215.30283 279.308936 
L 216.723045 279.030993 
L 222.403904 278.76436 
L 223.824119 278.771562 
L 226.664548 279.084834 
L 228.084763 279.001281 
L 229.504978 278.415098 
L 233.765622 275.122638 
L 235.185837 274.573027 
L 238.026266 273.967707 
L 239.446481 273.311825 
L 242.28691 271.311782 
L 243.707125 270.697264 
L 245.12734 270.71318 
L 246.547554 271.515233 
L 247.967769 272.742165 
L 249.387984 274.203514 
L 250.808199 275.36641 
L 252.228413 275.820169 
L 253.648628 274.864515 
L 255.068843 272.512365 
L 257.909272 265.408311 
L 259.329487 262.398213 
L 260.749702 260.898284 
L 262.169917 260.584735 
L 263.590131 261.302348 
L 265.010346 261.74829 
L 266.430561 261.760366 
L 267.850776 260.559548 
L 269.27099 258.568297 
L 270.691205 255.254681 
L 274.951849 243.835163 
L 276.372064 240.407494 
L 279.212494 231.921148 
L 280.632708 226.619775 
L 282.052923 222.203509 
L 284.893353 212.355226 
L 287.733782 197.776749 
L 289.153997 189.65311 
L 290.574212 183.914404 
L 291.994426 180.401704 
L 293.414641 179.829623 
L 294.834856 180.935117 
L 296.255071 182.764066 
L 297.675285 186.666873 
L 299.0955 192.987344 
L 301.93593 212.647427 
L 303.356144 218.345417 
L 304.776359 215.021883 
L 306.196574 203.632279 
L 307.616789 188.613349 
L 309.037003 176.372705 
L 310.457218 171.257667 
L 311.877433 171.502914 
L 313.297648 173.761342 
L 314.717862 171.976324 
L 316.138077 166.693003 
L 317.558292 159.108395 
L 318.978507 155.743114 
L 320.398721 156.947587 
L 321.818936 163.320929 
L 323.239151 168.284446 
L 324.659366 169.046689 
L 326.07958 162.754467 
L 327.499795 155.810623 
L 328.92001 152.828973 
L 330.340224 158.818792 
L 331.760439 171.19248 
L 333.180654 189.406759 
L 336.021083 228.7063 
L 337.441298 244.533145 
L 338.861513 258.181727 
L 340.281728 269.245906 
L 341.701942 277.838958 
L 343.122157 282.135472 
L 344.542372 283.567636 
L 422.654183 283.567636 
L 422.654183 283.567636 
" clip-path="url(#p1b77136a3d)" style="fill: none; stroke: #864fcb; stroke-width: 1.5; stroke-linecap: square"/>
   </g>
   <g id="line2d_60">
    <path d="M 63.339852 283.567631 
L 220.983689 283.460603 
L 253.648628 283.228784 
L 273.531635 282.884303 
L 287.733782 282.439881 
L 299.0955 281.883896 
L 309.037003 281.176697 
L 317.558292 280.338455 
L 324.659366 279.419575 
L 330.340224 278.499723 
L 336.021083 277.376245 
L 341.701942 276.004359 
L 345.962587 274.78012 
L 350.223231 273.358704 
L 354.483875 271.708919 
L 358.744519 269.794955 
L 363.005164 267.575896 
L 367.265808 265.005276 
L 370.106237 263.070639 
L 372.946667 260.939688 
L 375.787096 258.59437 
L 378.627526 256.015643 
L 381.467955 253.183675 
L 384.308385 250.078179 
L 387.148814 246.67891 
L 389.989244 242.966393 
L 392.829673 238.922959 
L 395.670103 234.534171 
L 398.510532 229.79078 
L 399.930747 227.28526 
L 399.930747 227.28526 
" clip-path="url(#p1b77136a3d)" style="fill: none; stroke: #000000; stroke-width: 1.5; stroke-linecap: square"/>
   </g>
   <g id="line2d_61">
    <path d="M 63.339852 283.567636 
L 228.084763 283.468953 
L 239.446481 283.266428 
L 245.12734 283.211319 
L 250.808199 283.127859 
L 256.489058 283.231435 
L 262.169917 283.128602 
L 265.010346 283.1348 
L 274.951849 282.659331 
L 277.792279 282.606235 
L 280.632708 282.262987 
L 283.473138 281.938248 
L 289.153997 281.849403 
L 290.574212 281.521724 
L 294.834856 279.997099 
L 296.255071 279.743206 
L 297.675285 279.748157 
L 301.93593 280.232265 
L 303.356144 280.146202 
L 309.037003 279.232199 
L 310.457218 278.643702 
L 311.877433 277.775248 
L 314.717862 275.544844 
L 316.138077 274.696594 
L 317.558292 274.433537 
L 318.978507 274.815175 
L 320.398721 275.83958 
L 323.239151 278.64999 
L 324.659366 279.688303 
L 326.07958 279.921061 
L 327.499795 278.900729 
L 328.92001 276.679622 
L 330.340224 273.740847 
L 331.760439 271.182455 
L 333.180654 269.756152 
L 334.600869 269.609633 
L 340.281728 271.369664 
L 341.701942 271.798414 
L 343.122157 272.061695 
L 344.542372 271.758965 
L 345.962587 270.647453 
L 347.382801 268.47328 
L 351.643446 259.897132 
L 353.06366 256.479227 
L 355.90409 247.341965 
L 357.324305 244.468877 
L 358.744519 244.791657 
L 360.164734 246.729084 
L 361.584949 248.352816 
L 363.005164 246.959383 
L 364.425378 241.72033 
L 365.845593 232.245207 
L 367.265808 221.066543 
L 368.686023 212.173836 
L 370.106237 208.999956 
L 371.526452 211.707338 
L 372.946667 216.723293 
L 374.366882 220.287069 
L 375.787096 217.593427 
L 377.207311 206.76849 
L 378.627526 187.636191 
L 380.047741 166.240615 
L 381.467955 149.552501 
L 382.88817 143.154179 
L 384.308385 147.574474 
L 385.7286 159.682407 
L 389.989244 211.217493 
L 391.409459 220.59906 
L 392.829673 222.312462 
L 394.249888 214.641181 
L 395.670103 204.446906 
L 397.090318 195.900629 
L 398.510532 196.83379 
L 399.930747 206.857804 
L 402.771177 241.401056 
L 404.191391 250.852387 
L 405.611606 246.922976 
L 407.031821 231.425572 
L 409.87225 184.301546 
L 411.292465 165.428553 
L 412.71268 153.99914 
L 414.132895 147.051445 
L 415.553109 144.273528 
L 416.973324 144.383022 
L 418.393539 152.431222 
L 419.813753 168.933287 
L 422.654183 217.877201 
L 422.654183 217.877201 
" clip-path="url(#p1b77136a3d)" style="fill: none; stroke: #b317b1; stroke-width: 1.5; stroke-linecap: square"/>
   </g>
   <g id="patch_3">
    <path d="M 45.303125 296.728 
L 45.303125 7.2 
" style="fill: none; stroke: #000000; stroke-width: 0.8; stroke-linejoin: miter; stroke-linecap: square"/>
   </g>
   <g id="patch_4">
    <path d="M 442.111125 296.728 
L 442.111125 7.2 
" style="fill: none; stroke: #000000; stroke-width: 0.8; stroke-linejoin: miter; stroke-linecap: square"/>
   </g>
   <g id="patch_5">
    <path d="M 45.303125 296.728 
L 442.111125 296.728 
" style="fill: none; stroke: #000000; stroke-width: 0.8; stroke-linejoin: miter; stroke-linecap: square"/>
   </g>
   <g id="patch_6">
    <path d="M 45.303125 7.2 
L 442.111125 7.2 
" style="fill: none; stroke: #000000; stroke-width: 0.8; stroke-linejoin: miter; stroke-linecap: square"/>
   </g>
   <g id="legend_1">
    <g id="patch_7">
     <path d="M 353.7955 73.9125 
L 435.111125 73.9125 
Q 437.111125 73.9125 437.111125 71.9125 
L 437.111125 14.2 
Q 437.111125 12.2 435.111125 12.2 
L 353.7955 12.2 
Q 351.7955 12.2 351.7955 14.2 
L 351.7955 71.9125 
Q 351.7955 73.9125 353.7955 73.9125 
z
" style="fill: #ffffff; opacity: 0.8; stroke: #cccccc; stroke-linejoin: miter"/>
    </g>
    <g id="line2d_62">
     <path d="M 355.7955 20.298437 
L 365.7955 20.298437 
L 375.7955 20.298437 
" style="fill: none; stroke: #2cbdfe; stroke-width: 1.5; stroke-linecap: square"/>
    </g>
    <g id="text_13">
     <!-- t = 0s -->
     <g transform="translate(383.7955 23.798437) scale(0.1 -0.1)">
      <defs>
       <path id="DejaVuSans-3d" d="M 678 2906 
L 4684 2906 
L 4684 2381 
L 678 2381 
L 678 2906 
z
M 678 1631 
L 4684 1631 
L 4684 1100 
L 678 1100 
L 678 1631 
z
" transform="scale(0.015625)"/>
      </defs>
      <use xlink:href="#DejaVuSans-74"/>
      <use xlink:href="#DejaVuSans-20" x="39.208984"/>
      <use xlink:href="#DejaVuSans-3d" x="70.996094"/>
      <use xlink:href="#DejaVuSans-20" x="154.785156"/>
      <use xlink:href="#DejaVuSans-30" x="186.572266"/>
      <use xlink:href="#DejaVuSans-73" x="250.195312"/>
     </g>
    </g>
    <g id="line2d_63">
     <path d="M 355.7955 34.976562 
L 365.7955 34.976562 
L 375.7955 34.976562 
" style="fill: none; stroke: #5986e5; stroke-width: 1.5; stroke-linecap: square"/>
    </g>
    <g id="text_14">
     <!-- t = 1200s -->
     <g transform="translate(383.7955 38.476562) scale(0.1 -0.1)">
      <use xlink:href="#DejaVuSans-74"/>
      <use xlink:href="#DejaVuSans-20" x="39.208984"/>
      <use xlink:href="#DejaVuSans-3d" x="70.996094"/>
      <use xlink:href="#DejaVuSans-20" x="154.785156"/>
      <use xlink:href="#DejaVuSans-31" x="186.572266"/>
      <use xlink:href="#DejaVuSans-32" x="250.195312"/>
      <use xlink:href="#DejaVuSans-30" x="313.818359"/>
      <use xlink:href="#DejaVuSans-30" x="377.441406"/>
      <use xlink:href="#DejaVuSans-73" x="441.064453"/>
     </g>
    </g>
    <g id="line2d_64">
     <path d="M 355.7955 49.654687 
L 365.7955 49.654687 
L 375.7955 49.654687 
" style="fill: none; stroke: #864fcb; stroke-width: 1.5; stroke-linecap: square"/>
    </g>
    <g id="text_15">
     <!-- t = 2400s -->
     <g transform="translate(383.7955 53.154687) scale(0.1 -0.1)">
      <use xlink:href="#DejaVuSans-74"/>
      <use xlink:href="#DejaVuSans-20" x="39.208984"/>
      <use xlink:href="#DejaVuSans-3d" x="70.996094"/>
      <use xlink:href="#DejaVuSans-20" x="154.785156"/>
      <use xlink:href="#DejaVuSans-32" x="186.572266"/>
      <use xlink:href="#DejaVuSans-34" x="250.195312"/>
      <use xlink:href="#DejaVuSans-30" x="313.818359"/>
      <use xlink:href="#DejaVuSans-30" x="377.441406"/>
      <use xlink:href="#DejaVuSans-73" x="441.064453"/>
     </g>
    </g>
    <g id="line2d_65">
     <path d="M 355.7955 64.332812 
L 365.7955 64.332812 
L 375.7955 64.332812 
" style="fill: none; stroke: #b317b1; stroke-width: 1.5; stroke-linecap: square"/>
    </g>
    <g id="text_16">
     <!-- t = 3600s -->
     <g transform="translate(383.7955 67.832812) scale(0.1 -0.1)">
      <defs>
       <path id="DejaVuSans-36" d="M 2113 2584 
Q 1688 2584 1439 2293 
Q 1191 2003 1191 1497 
Q 1191 994 1439 701 
Q 1688 409 2113 409 
Q 2538 409 2786 701 
Q 3034 994 3034 1497 
Q 3034 2003 2786 2293 
Q 2538 2584 2113 2584 
z
M 3366 4563 
L 3366 3988 
Q 3128 4100 2886 4159 
Q 2644 4219 2406 4219 
Q 1781 4219 1451 3797 
Q 1122 3375 1075 2522 
Q 1259 2794 1537 2939 
Q 1816 3084 2150 3084 
Q 2853 3084 3261 2657 
Q 3669 2231 3669 1497 
Q 3669 778 3244 343 
Q 2819 -91 2113 -91 
Q 1303 -91 875 529 
Q 447 1150 447 2328 
Q 447 3434 972 4092 
Q 1497 4750 2381 4750 
Q 2619 4750 2861 4703 
Q 3103 4656 3366 4563 
z
" transform="scale(0.015625)"/>
      </defs>
      <use xlink:href="#DejaVuSans-74"/>
      <use xlink:href="#DejaVuSans-20" x="39.208984"/>
      <use xlink:href="#DejaVuSans-3d" x="70.996094"/>
      <use xlink:href="#DejaVuSans-20" x="154.785156"/>
      <use xlink:href="#DejaVuSans-33" x="186.572266"/>
      <use xlink:href="#DejaVuSans-36" x="250.195312"/>
      <use xlink:href="#DejaVuSans-30" x="313.818359"/>
      <use xlink:href="#DejaVuSans-30" x="377.441406"/>
      <use xlink:href="#DejaVuSans-73" x="441.064453"/>
     </g>
    </g>
   </g>
  </g>
 </g>
 <defs>
  <clipPath id="p1b77136a3d">
   <rect x="45.303125" y="7.2" width="396.808" height="289.528"/>
  </clipPath>
 </defs>
</svg>
