<?xml version="1.0" encoding="utf-8" standalone="no"?>
<!DOCTYPE svg PUBLIC "-//W3C//DTD SVG 1.1//EN"
  "http://www.w3.org/Graphics/SVG/1.1/DTD/svg11.dtd">
<svg xmlns:xlink="http://www.w3.org/1999/xlink" width="449.221125pt" height="333.916047pt" viewBox="0 0 449.221125 333.916047" xmlns="http://www.w3.org/2000/svg" version="1.1">
 <metadata>
  <rdf:RDF xmlns:dc="http://purl.org/dc/elements/1.1/" xmlns:cc="http://creativecommons.org/ns#" xmlns:rdf="http://www.w3.org/1999/02/22-rdf-syntax-ns#">
   <cc:Work>
    <dc:type rdf:resource="http://purl.org/dc/dcmitype/StillImage"/>
    <dc:date>2024-11-07T12:36:58.503355</dc:date>
    <dc:format>image/svg+xml</dc:format>
    <dc:creator>
     <cc:Agent>
      <dc:title>Matplotlib v3.9.2, https://matplotlib.org/</dc:title>
     </cc:Agent>
    </dc:creator>
   </cc:Work>
  </rdf:RDF>
 </metadata>
 <defs>
  <style type="text/css">*{stroke-linejoin: round; stroke-linecap: butt}</style>
 </defs>
 <g id="figure_1">
  <g id="patch_1">
   <path d="M 0 333.916047 
L 449.221125 333.916047 
L 449.221125 0 
L 0 0 
z
" style="fill: #ffffff"/>
  </g>
  <g id="axes_1">
   <g id="patch_2">
    <path d="M 45.303125 296.359797 
L 442.021125 296.359797 
L 442.021125 8.279233 
L 45.303125 8.279233 
z
" style="fill: #ffffff"/>
   </g>
   <g id="matplotlib.axis_1">
    <g id="xtick_1">
     <g id="line2d_1">
      <path d="M 62.619887 296.359797 
L 62.619887 8.279233 
" clip-path="url(#pe12e6c74a9)" style="fill: none; stroke: #b0b0b0; stroke-width: 0.8; stroke-linecap: square"/>
     </g>
     <g id="line2d_2">
      <defs>
       <path id="mf06e5802cb" d="M 0 0 
L 0 3.5 
" style="stroke: #000000; stroke-width: 0.8"/>
      </defs>
      <g>
       <use xlink:href="#mf06e5802cb" x="62.619887" y="296.359797" style="stroke: #000000; stroke-width: 0.8"/>
      </g>
     </g>
     <g id="text_1">
      <!-- $\mathdefault{10^{1}}$ -->
      <g transform="translate(53.819887 310.958234) scale(0.1 -0.1)">
       <defs>
        <path id="DejaVuSans-31" d="M 794 531 
L 1825 531 
L 1825 4091 
L 703 3866 
L 703 4441 
L 1819 4666 
L 2450 4666 
L 2450 531 
L 3481 531 
L 3481 0 
L 794 0 
L 794 531 
z
" transform="scale(0.015625)"/>
        <path id="DejaVuSans-30" d="M 2034 4250 
Q 1547 4250 1301 3770 
Q 1056 3291 1056 2328 
Q 1056 1369 1301 889 
Q 1547 409 2034 409 
Q 2525 409 2770 889 
Q 3016 1369 3016 2328 
Q 3016 3291 2770 3770 
Q 2525 4250 2034 4250 
z
M 2034 4750 
Q 2819 4750 3233 4129 
Q 3647 3509 3647 2328 
Q 3647 1150 3233 529 
Q 2819 -91 2034 -91 
Q 1250 -91 836 529 
Q 422 1150 422 2328 
Q 422 3509 836 4129 
Q 1250 4750 2034 4750 
z
" transform="scale(0.015625)"/>
       </defs>
       <use xlink:href="#DejaVuSans-31" transform="translate(0 0.684375)"/>
       <use xlink:href="#DejaVuSans-30" transform="translate(63.623047 0.684375)"/>
       <use xlink:href="#DejaVuSans-31" transform="translate(128.203125 38.965625) scale(0.7)"/>
      </g>
     </g>
    </g>
    <g id="xtick_2">
     <g id="line2d_3">
      <path d="M 160.504601 296.359797 
L 160.504601 8.279233 
" clip-path="url(#pe12e6c74a9)" style="fill: none; stroke: #b0b0b0; stroke-width: 0.8; stroke-linecap: square"/>
     </g>
     <g id="line2d_4">
      <g>
       <use xlink:href="#mf06e5802cb" x="160.504601" y="296.359797" style="stroke: #000000; stroke-width: 0.8"/>
      </g>
     </g>
     <g id="text_2">
      <!-- $\mathdefault{10^{2}}$ -->
      <g transform="translate(151.704601 310.958234) scale(0.1 -0.1)">
       <defs>
        <path id="DejaVuSans-32" d="M 1228 531 
L 3431 531 
L 3431 0 
L 469 0 
L 469 531 
Q 828 903 1448 1529 
Q 2069 2156 2228 2338 
Q 2531 2678 2651 2914 
Q 2772 3150 2772 3378 
Q 2772 3750 2511 3984 
Q 2250 4219 1831 4219 
Q 1534 4219 1204 4116 
Q 875 4013 500 3803 
L 500 4441 
Q 881 4594 1212 4672 
Q 1544 4750 1819 4750 
Q 2544 4750 2975 4387 
Q 3406 4025 3406 3419 
Q 3406 3131 3298 2873 
Q 3191 2616 2906 2266 
Q 2828 2175 2409 1742 
Q 1991 1309 1228 531 
z
" transform="scale(0.015625)"/>
       </defs>
       <use xlink:href="#DejaVuSans-31" transform="translate(0 0.765625)"/>
       <use xlink:href="#DejaVuSans-30" transform="translate(63.623047 0.765625)"/>
       <use xlink:href="#DejaVuSans-32" transform="translate(128.203125 39.046875) scale(0.7)"/>
      </g>
     </g>
    </g>
    <g id="xtick_3">
     <g id="line2d_5">
      <path d="M 258.389315 296.359797 
L 258.389315 8.279233 
" clip-path="url(#pe12e6c74a9)" style="fill: none; stroke: #b0b0b0; stroke-width: 0.8; stroke-linecap: square"/>
     </g>
     <g id="line2d_6">
      <g>
       <use xlink:href="#mf06e5802cb" x="258.389315" y="296.359797" style="stroke: #000000; stroke-width: 0.8"/>
      </g>
     </g>
     <g id="text_3">
      <!-- $\mathdefault{10^{3}}$ -->
      <g transform="translate(249.589315 310.958234) scale(0.1 -0.1)">
       <defs>
        <path id="DejaVuSans-33" d="M 2597 2516 
Q 3050 2419 3304 2112 
Q 3559 1806 3559 1356 
Q 3559 666 3084 287 
Q 2609 -91 1734 -91 
Q 1441 -91 1130 -33 
Q 819 25 488 141 
L 488 750 
Q 750 597 1062 519 
Q 1375 441 1716 441 
Q 2309 441 2620 675 
Q 2931 909 2931 1356 
Q 2931 1769 2642 2001 
Q 2353 2234 1838 2234 
L 1294 2234 
L 1294 2753 
L 1863 2753 
Q 2328 2753 2575 2939 
Q 2822 3125 2822 3475 
Q 2822 3834 2567 4026 
Q 2313 4219 1838 4219 
Q 1578 4219 1281 4162 
Q 984 4106 628 3988 
L 628 4550 
Q 988 4650 1302 4700 
Q 1616 4750 1894 4750 
Q 2613 4750 3031 4423 
Q 3450 4097 3450 3541 
Q 3450 3153 3228 2886 
Q 3006 2619 2597 2516 
z
" transform="scale(0.015625)"/>
       </defs>
       <use xlink:href="#DejaVuSans-31" transform="translate(0 0.765625)"/>
       <use xlink:href="#DejaVuSans-30" transform="translate(63.623047 0.765625)"/>
       <use xlink:href="#DejaVuSans-33" transform="translate(128.203125 39.046875) scale(0.7)"/>
      </g>
     </g>
    </g>
    <g id="xtick_4">
     <g id="line2d_7">
      <path d="M 356.274028 296.359797 
L 356.274028 8.279233 
" clip-path="url(#pe12e6c74a9)" style="fill: none; stroke: #b0b0b0; stroke-width: 0.8; stroke-linecap: square"/>
     </g>
     <g id="line2d_8">
      <g>
       <use xlink:href="#mf06e5802cb" x="356.274028" y="296.359797" style="stroke: #000000; stroke-width: 0.8"/>
      </g>
     </g>
     <g id="text_4">
      <!-- $\mathdefault{10^{4}}$ -->
      <g transform="translate(347.474028 310.958234) scale(0.1 -0.1)">
       <defs>
        <path id="DejaVuSans-34" d="M 2419 4116 
L 825 1625 
L 2419 1625 
L 2419 4116 
z
M 2253 4666 
L 3047 4666 
L 3047 1625 
L 3713 1625 
L 3713 1100 
L 3047 1100 
L 3047 0 
L 2419 0 
L 2419 1100 
L 313 1100 
L 313 1709 
L 2253 4666 
z
" transform="scale(0.015625)"/>
       </defs>
       <use xlink:href="#DejaVuSans-31" transform="translate(0 0.684375)"/>
       <use xlink:href="#DejaVuSans-30" transform="translate(63.623047 0.684375)"/>
       <use xlink:href="#DejaVuSans-34" transform="translate(128.203125 38.965625) scale(0.7)"/>
      </g>
     </g>
    </g>
    <g id="xtick_5">
     <g id="line2d_9">
      <defs>
       <path id="m0392ad90dd" d="M 0 0 
L 0 2 
" style="stroke: #000000; stroke-width: 0.6"/>
      </defs>
      <g>
       <use xlink:href="#m0392ad90dd" x="47.457353" y="296.359797" style="stroke: #000000; stroke-width: 0.6"/>
      </g>
     </g>
    </g>
    <g id="xtick_6">
     <g id="line2d_10">
      <g>
       <use xlink:href="#m0392ad90dd" x="53.133878" y="296.359797" style="stroke: #000000; stroke-width: 0.6"/>
      </g>
     </g>
    </g>
    <g id="xtick_7">
     <g id="line2d_11">
      <g>
       <use xlink:href="#m0392ad90dd" x="58.140928" y="296.359797" style="stroke: #000000; stroke-width: 0.6"/>
      </g>
     </g>
    </g>
    <g id="xtick_8">
     <g id="line2d_12">
      <g>
       <use xlink:href="#m0392ad90dd" x="92.086122" y="296.359797" style="stroke: #000000; stroke-width: 0.6"/>
      </g>
     </g>
    </g>
    <g id="xtick_9">
     <g id="line2d_13">
      <g>
       <use xlink:href="#m0392ad90dd" x="109.322765" y="296.359797" style="stroke: #000000; stroke-width: 0.6"/>
      </g>
     </g>
    </g>
    <g id="xtick_10">
     <g id="line2d_14">
      <g>
       <use xlink:href="#m0392ad90dd" x="121.552357" y="296.359797" style="stroke: #000000; stroke-width: 0.6"/>
      </g>
     </g>
    </g>
    <g id="xtick_11">
     <g id="line2d_15">
      <g>
       <use xlink:href="#m0392ad90dd" x="131.038366" y="296.359797" style="stroke: #000000; stroke-width: 0.6"/>
      </g>
     </g>
    </g>
    <g id="xtick_12">
     <g id="line2d_16">
      <g>
       <use xlink:href="#m0392ad90dd" x="138.789" y="296.359797" style="stroke: #000000; stroke-width: 0.6"/>
      </g>
     </g>
    </g>
    <g id="xtick_13">
     <g id="line2d_17">
      <g>
       <use xlink:href="#m0392ad90dd" x="145.342067" y="296.359797" style="stroke: #000000; stroke-width: 0.6"/>
      </g>
     </g>
    </g>
    <g id="xtick_14">
     <g id="line2d_18">
      <g>
       <use xlink:href="#m0392ad90dd" x="151.018592" y="296.359797" style="stroke: #000000; stroke-width: 0.6"/>
      </g>
     </g>
    </g>
    <g id="xtick_15">
     <g id="line2d_19">
      <g>
       <use xlink:href="#m0392ad90dd" x="156.025642" y="296.359797" style="stroke: #000000; stroke-width: 0.6"/>
      </g>
     </g>
    </g>
    <g id="xtick_16">
     <g id="line2d_20">
      <g>
       <use xlink:href="#m0392ad90dd" x="189.970836" y="296.359797" style="stroke: #000000; stroke-width: 0.6"/>
      </g>
     </g>
    </g>
    <g id="xtick_17">
     <g id="line2d_21">
      <g>
       <use xlink:href="#m0392ad90dd" x="207.207478" y="296.359797" style="stroke: #000000; stroke-width: 0.6"/>
      </g>
     </g>
    </g>
    <g id="xtick_18">
     <g id="line2d_22">
      <g>
       <use xlink:href="#m0392ad90dd" x="219.437071" y="296.359797" style="stroke: #000000; stroke-width: 0.6"/>
      </g>
     </g>
    </g>
    <g id="xtick_19">
     <g id="line2d_23">
      <g>
       <use xlink:href="#m0392ad90dd" x="228.92308" y="296.359797" style="stroke: #000000; stroke-width: 0.6"/>
      </g>
     </g>
    </g>
    <g id="xtick_20">
     <g id="line2d_24">
      <g>
       <use xlink:href="#m0392ad90dd" x="236.673713" y="296.359797" style="stroke: #000000; stroke-width: 0.6"/>
      </g>
     </g>
    </g>
    <g id="xtick_21">
     <g id="line2d_25">
      <g>
       <use xlink:href="#m0392ad90dd" x="243.226781" y="296.359797" style="stroke: #000000; stroke-width: 0.6"/>
      </g>
     </g>
    </g>
    <g id="xtick_22">
     <g id="line2d_26">
      <g>
       <use xlink:href="#m0392ad90dd" x="248.903306" y="296.359797" style="stroke: #000000; stroke-width: 0.6"/>
      </g>
     </g>
    </g>
    <g id="xtick_23">
     <g id="line2d_27">
      <g>
       <use xlink:href="#m0392ad90dd" x="253.910356" y="296.359797" style="stroke: #000000; stroke-width: 0.6"/>
      </g>
     </g>
    </g>
    <g id="xtick_24">
     <g id="line2d_28">
      <g>
       <use xlink:href="#m0392ad90dd" x="287.85555" y="296.359797" style="stroke: #000000; stroke-width: 0.6"/>
      </g>
     </g>
    </g>
    <g id="xtick_25">
     <g id="line2d_29">
      <g>
       <use xlink:href="#m0392ad90dd" x="305.092192" y="296.359797" style="stroke: #000000; stroke-width: 0.6"/>
      </g>
     </g>
    </g>
    <g id="xtick_26">
     <g id="line2d_30">
      <g>
       <use xlink:href="#m0392ad90dd" x="317.321784" y="296.359797" style="stroke: #000000; stroke-width: 0.6"/>
      </g>
     </g>
    </g>
    <g id="xtick_27">
     <g id="line2d_31">
      <g>
       <use xlink:href="#m0392ad90dd" x="326.807793" y="296.359797" style="stroke: #000000; stroke-width: 0.6"/>
      </g>
     </g>
    </g>
    <g id="xtick_28">
     <g id="line2d_32">
      <g>
       <use xlink:href="#m0392ad90dd" x="334.558427" y="296.359797" style="stroke: #000000; stroke-width: 0.6"/>
      </g>
     </g>
    </g>
    <g id="xtick_29">
     <g id="line2d_33">
      <g>
       <use xlink:href="#m0392ad90dd" x="341.111494" y="296.359797" style="stroke: #000000; stroke-width: 0.6"/>
      </g>
     </g>
    </g>
    <g id="xtick_30">
     <g id="line2d_34">
      <g>
       <use xlink:href="#m0392ad90dd" x="346.788019" y="296.359797" style="stroke: #000000; stroke-width: 0.6"/>
      </g>
     </g>
    </g>
    <g id="xtick_31">
     <g id="line2d_35">
      <g>
       <use xlink:href="#m0392ad90dd" x="351.795069" y="296.359797" style="stroke: #000000; stroke-width: 0.6"/>
      </g>
     </g>
    </g>
    <g id="xtick_32">
     <g id="line2d_36">
      <g>
       <use xlink:href="#m0392ad90dd" x="385.740263" y="296.359797" style="stroke: #000000; stroke-width: 0.6"/>
      </g>
     </g>
    </g>
    <g id="xtick_33">
     <g id="line2d_37">
      <g>
       <use xlink:href="#m0392ad90dd" x="402.976906" y="296.359797" style="stroke: #000000; stroke-width: 0.6"/>
      </g>
     </g>
    </g>
    <g id="xtick_34">
     <g id="line2d_38">
      <g>
       <use xlink:href="#m0392ad90dd" x="415.206498" y="296.359797" style="stroke: #000000; stroke-width: 0.6"/>
      </g>
     </g>
    </g>
    <g id="xtick_35">
     <g id="line2d_39">
      <g>
       <use xlink:href="#m0392ad90dd" x="424.692507" y="296.359797" style="stroke: #000000; stroke-width: 0.6"/>
      </g>
     </g>
    </g>
    <g id="xtick_36">
     <g id="line2d_40">
      <g>
       <use xlink:href="#m0392ad90dd" x="432.443141" y="296.359797" style="stroke: #000000; stroke-width: 0.6"/>
      </g>
     </g>
    </g>
    <g id="xtick_37">
     <g id="line2d_41">
      <g>
       <use xlink:href="#m0392ad90dd" x="438.996208" y="296.359797" style="stroke: #000000; stroke-width: 0.6"/>
      </g>
     </g>
    </g>
    <g id="text_5">
     <!-- particle radius [µm] -->
     <g transform="translate(194.216813 324.636359) scale(0.1 -0.1)">
      <defs>
       <path id="DejaVuSans-70" d="M 1159 525 
L 1159 -1331 
L 581 -1331 
L 581 3500 
L 1159 3500 
L 1159 2969 
Q 1341 3281 1617 3432 
Q 1894 3584 2278 3584 
Q 2916 3584 3314 3078 
Q 3713 2572 3713 1747 
Q 3713 922 3314 415 
Q 2916 -91 2278 -91 
Q 1894 -91 1617 61 
Q 1341 213 1159 525 
z
M 3116 1747 
Q 3116 2381 2855 2742 
Q 2594 3103 2138 3103 
Q 1681 3103 1420 2742 
Q 1159 2381 1159 1747 
Q 1159 1113 1420 752 
Q 1681 391 2138 391 
Q 2594 391 2855 752 
Q 3116 1113 3116 1747 
z
" transform="scale(0.015625)"/>
       <path id="DejaVuSans-61" d="M 2194 1759 
Q 1497 1759 1228 1600 
Q 959 1441 959 1056 
Q 959 750 1161 570 
Q 1363 391 1709 391 
Q 2188 391 2477 730 
Q 2766 1069 2766 1631 
L 2766 1759 
L 2194 1759 
z
M 3341 1997 
L 3341 0 
L 2766 0 
L 2766 531 
Q 2569 213 2275 61 
Q 1981 -91 1556 -91 
Q 1019 -91 701 211 
Q 384 513 384 1019 
Q 384 1609 779 1909 
Q 1175 2209 1959 2209 
L 2766 2209 
L 2766 2266 
Q 2766 2663 2505 2880 
Q 2244 3097 1772 3097 
Q 1472 3097 1187 3025 
Q 903 2953 641 2809 
L 641 3341 
Q 956 3463 1253 3523 
Q 1550 3584 1831 3584 
Q 2591 3584 2966 3190 
Q 3341 2797 3341 1997 
z
" transform="scale(0.015625)"/>
       <path id="DejaVuSans-72" d="M 2631 2963 
Q 2534 3019 2420 3045 
Q 2306 3072 2169 3072 
Q 1681 3072 1420 2755 
Q 1159 2438 1159 1844 
L 1159 0 
L 581 0 
L 581 3500 
L 1159 3500 
L 1159 2956 
Q 1341 3275 1631 3429 
Q 1922 3584 2338 3584 
Q 2397 3584 2469 3576 
Q 2541 3569 2628 3553 
L 2631 2963 
z
" transform="scale(0.015625)"/>
       <path id="DejaVuSans-74" d="M 1172 4494 
L 1172 3500 
L 2356 3500 
L 2356 3053 
L 1172 3053 
L 1172 1153 
Q 1172 725 1289 603 
Q 1406 481 1766 481 
L 2356 481 
L 2356 0 
L 1766 0 
Q 1100 0 847 248 
Q 594 497 594 1153 
L 594 3053 
L 172 3053 
L 172 3500 
L 594 3500 
L 594 4494 
L 1172 4494 
z
" transform="scale(0.015625)"/>
       <path id="DejaVuSans-69" d="M 603 3500 
L 1178 3500 
L 1178 0 
L 603 0 
L 603 3500 
z
M 603 4863 
L 1178 4863 
L 1178 4134 
L 603 4134 
L 603 4863 
z
" transform="scale(0.015625)"/>
       <path id="DejaVuSans-63" d="M 3122 3366 
L 3122 2828 
Q 2878 2963 2633 3030 
Q 2388 3097 2138 3097 
Q 1578 3097 1268 2742 
Q 959 2388 959 1747 
Q 959 1106 1268 751 
Q 1578 397 2138 397 
Q 2388 397 2633 464 
Q 2878 531 3122 666 
L 3122 134 
Q 2881 22 2623 -34 
Q 2366 -91 2075 -91 
Q 1284 -91 818 406 
Q 353 903 353 1747 
Q 353 2603 823 3093 
Q 1294 3584 2113 3584 
Q 2378 3584 2631 3529 
Q 2884 3475 3122 3366 
z
" transform="scale(0.015625)"/>
       <path id="DejaVuSans-6c" d="M 603 4863 
L 1178 4863 
L 1178 0 
L 603 0 
L 603 4863 
z
" transform="scale(0.015625)"/>
       <path id="DejaVuSans-65" d="M 3597 1894 
L 3597 1613 
L 953 1613 
Q 991 1019 1311 708 
Q 1631 397 2203 397 
Q 2534 397 2845 478 
Q 3156 559 3463 722 
L 3463 178 
Q 3153 47 2828 -22 
Q 2503 -91 2169 -91 
Q 1331 -91 842 396 
Q 353 884 353 1716 
Q 353 2575 817 3079 
Q 1281 3584 2069 3584 
Q 2775 3584 3186 3129 
Q 3597 2675 3597 1894 
z
M 3022 2063 
Q 3016 2534 2758 2815 
Q 2500 3097 2075 3097 
Q 1594 3097 1305 2825 
Q 1016 2553 972 2059 
L 3022 2063 
z
" transform="scale(0.015625)"/>
       <path id="DejaVuSans-20" transform="scale(0.015625)"/>
       <path id="DejaVuSans-64" d="M 2906 2969 
L 2906 4863 
L 3481 4863 
L 3481 0 
L 2906 0 
L 2906 525 
Q 2725 213 2448 61 
Q 2172 -91 1784 -91 
Q 1150 -91 751 415 
Q 353 922 353 1747 
Q 353 2572 751 3078 
Q 1150 3584 1784 3584 
Q 2172 3584 2448 3432 
Q 2725 3281 2906 2969 
z
M 947 1747 
Q 947 1113 1208 752 
Q 1469 391 1925 391 
Q 2381 391 2643 752 
Q 2906 1113 2906 1747 
Q 2906 2381 2643 2742 
Q 2381 3103 1925 3103 
Q 1469 3103 1208 2742 
Q 947 2381 947 1747 
z
" transform="scale(0.015625)"/>
       <path id="DejaVuSans-75" d="M 544 1381 
L 544 3500 
L 1119 3500 
L 1119 1403 
Q 1119 906 1312 657 
Q 1506 409 1894 409 
Q 2359 409 2629 706 
Q 2900 1003 2900 1516 
L 2900 3500 
L 3475 3500 
L 3475 0 
L 2900 0 
L 2900 538 
Q 2691 219 2414 64 
Q 2138 -91 1772 -91 
Q 1169 -91 856 284 
Q 544 659 544 1381 
z
M 1991 3584 
L 1991 3584 
z
" transform="scale(0.015625)"/>
       <path id="DejaVuSans-73" d="M 2834 3397 
L 2834 2853 
Q 2591 2978 2328 3040 
Q 2066 3103 1784 3103 
Q 1356 3103 1142 2972 
Q 928 2841 928 2578 
Q 928 2378 1081 2264 
Q 1234 2150 1697 2047 
L 1894 2003 
Q 2506 1872 2764 1633 
Q 3022 1394 3022 966 
Q 3022 478 2636 193 
Q 2250 -91 1575 -91 
Q 1294 -91 989 -36 
Q 684 19 347 128 
L 347 722 
Q 666 556 975 473 
Q 1284 391 1588 391 
Q 1994 391 2212 530 
Q 2431 669 2431 922 
Q 2431 1156 2273 1281 
Q 2116 1406 1581 1522 
L 1381 1569 
Q 847 1681 609 1914 
Q 372 2147 372 2553 
Q 372 3047 722 3315 
Q 1072 3584 1716 3584 
Q 2034 3584 2315 3537 
Q 2597 3491 2834 3397 
z
" transform="scale(0.015625)"/>
       <path id="DejaVuSans-5b" d="M 550 4863 
L 1875 4863 
L 1875 4416 
L 1125 4416 
L 1125 -397 
L 1875 -397 
L 1875 -844 
L 550 -844 
L 550 4863 
z
" transform="scale(0.015625)"/>
       <path id="DejaVuSans-b5" d="M 544 -1331 
L 544 3500 
L 1119 3500 
L 1119 1325 
Q 1119 872 1334 640 
Q 1550 409 1972 409 
Q 2434 409 2667 671 
Q 2900 934 2900 1459 
L 2900 3500 
L 3475 3500 
L 3475 806 
Q 3475 619 3529 530 
Q 3584 441 3700 441 
Q 3728 441 3778 458 
Q 3828 475 3916 513 
L 3916 50 
Q 3788 -22 3673 -56 
Q 3559 -91 3450 -91 
Q 3234 -91 3106 31 
Q 2978 153 2931 403 
Q 2775 156 2548 32 
Q 2322 -91 2016 -91 
Q 1697 -91 1473 31 
Q 1250 153 1119 397 
L 1119 -1331 
L 544 -1331 
z
" transform="scale(0.015625)"/>
       <path id="DejaVuSans-6d" d="M 3328 2828 
Q 3544 3216 3844 3400 
Q 4144 3584 4550 3584 
Q 5097 3584 5394 3201 
Q 5691 2819 5691 2113 
L 5691 0 
L 5113 0 
L 5113 2094 
Q 5113 2597 4934 2840 
Q 4756 3084 4391 3084 
Q 3944 3084 3684 2787 
Q 3425 2491 3425 1978 
L 3425 0 
L 2847 0 
L 2847 2094 
Q 2847 2600 2669 2842 
Q 2491 3084 2119 3084 
Q 1678 3084 1418 2786 
Q 1159 2488 1159 1978 
L 1159 0 
L 581 0 
L 581 3500 
L 1159 3500 
L 1159 2956 
Q 1356 3278 1631 3431 
Q 1906 3584 2284 3584 
Q 2666 3584 2933 3390 
Q 3200 3197 3328 2828 
z
" transform="scale(0.015625)"/>
       <path id="DejaVuSans-5d" d="M 1947 4863 
L 1947 -844 
L 622 -844 
L 622 -397 
L 1369 -397 
L 1369 4416 
L 622 4416 
L 622 4863 
L 1947 4863 
z
" transform="scale(0.015625)"/>
      </defs>
      <use xlink:href="#DejaVuSans-70"/>
      <use xlink:href="#DejaVuSans-61" x="63.476562"/>
      <use xlink:href="#DejaVuSans-72" x="124.755859"/>
      <use xlink:href="#DejaVuSans-74" x="165.869141"/>
      <use xlink:href="#DejaVuSans-69" x="205.078125"/>
      <use xlink:href="#DejaVuSans-63" x="232.861328"/>
      <use xlink:href="#DejaVuSans-6c" x="287.841797"/>
      <use xlink:href="#DejaVuSans-65" x="315.625"/>
      <use xlink:href="#DejaVuSans-20" x="377.148438"/>
      <use xlink:href="#DejaVuSans-72" x="408.935547"/>
      <use xlink:href="#DejaVuSans-61" x="450.048828"/>
      <use xlink:href="#DejaVuSans-64" x="511.328125"/>
      <use xlink:href="#DejaVuSans-69" x="574.804688"/>
      <use xlink:href="#DejaVuSans-75" x="602.587891"/>
      <use xlink:href="#DejaVuSans-73" x="665.966797"/>
      <use xlink:href="#DejaVuSans-20" x="718.066406"/>
      <use xlink:href="#DejaVuSans-5b" x="749.853516"/>
      <use xlink:href="#DejaVuSans-b5" x="788.867188"/>
      <use xlink:href="#DejaVuSans-6d" x="852.490234"/>
      <use xlink:href="#DejaVuSans-5d" x="949.902344"/>
     </g>
    </g>
   </g>
   <g id="matplotlib.axis_2">
    <g id="ytick_1">
     <g id="line2d_42">
      <path d="M 45.303125 283.265226 
L 442.021125 283.265226 
" clip-path="url(#pe12e6c74a9)" style="fill: none; stroke: #b0b0b0; stroke-width: 0.8; stroke-linecap: square"/>
     </g>
     <g id="line2d_43">
      <defs>
       <path id="m3453bb6afd" d="M 0 0 
L -3.5 0 
" style="stroke: #000000; stroke-width: 0.8"/>
      </defs>
      <g>
       <use xlink:href="#m3453bb6afd" x="45.303125" y="283.265226" style="stroke: #000000; stroke-width: 0.8"/>
      </g>
     </g>
     <g id="text_6">
      <!-- 0.0 -->
      <g transform="translate(22.4 287.064445) scale(0.1 -0.1)">
       <defs>
        <path id="DejaVuSans-2e" d="M 684 794 
L 1344 794 
L 1344 0 
L 684 0 
L 684 794 
z
" transform="scale(0.015625)"/>
       </defs>
       <use xlink:href="#DejaVuSans-30"/>
       <use xlink:href="#DejaVuSans-2e" x="63.623047"/>
       <use xlink:href="#DejaVuSans-30" x="95.410156"/>
      </g>
     </g>
    </g>
    <g id="ytick_2">
     <g id="line2d_44">
      <path d="M 45.303125 249.231975 
L 442.021125 249.231975 
" clip-path="url(#pe12e6c74a9)" style="fill: none; stroke: #b0b0b0; stroke-width: 0.8; stroke-linecap: square"/>
     </g>
     <g id="line2d_45">
      <g>
       <use xlink:href="#m3453bb6afd" x="45.303125" y="249.231975" style="stroke: #000000; stroke-width: 0.8"/>
      </g>
     </g>
     <g id="text_7">
      <!-- 0.2 -->
      <g transform="translate(22.4 253.031194) scale(0.1 -0.1)">
       <use xlink:href="#DejaVuSans-30"/>
       <use xlink:href="#DejaVuSans-2e" x="63.623047"/>
       <use xlink:href="#DejaVuSans-32" x="95.410156"/>
      </g>
     </g>
    </g>
    <g id="ytick_3">
     <g id="line2d_46">
      <path d="M 45.303125 215.198724 
L 442.021125 215.198724 
" clip-path="url(#pe12e6c74a9)" style="fill: none; stroke: #b0b0b0; stroke-width: 0.8; stroke-linecap: square"/>
     </g>
     <g id="line2d_47">
      <g>
       <use xlink:href="#m3453bb6afd" x="45.303125" y="215.198724" style="stroke: #000000; stroke-width: 0.8"/>
      </g>
     </g>
     <g id="text_8">
      <!-- 0.4 -->
      <g transform="translate(22.4 218.997943) scale(0.1 -0.1)">
       <use xlink:href="#DejaVuSans-30"/>
       <use xlink:href="#DejaVuSans-2e" x="63.623047"/>
       <use xlink:href="#DejaVuSans-34" x="95.410156"/>
      </g>
     </g>
    </g>
    <g id="ytick_4">
     <g id="line2d_48">
      <path d="M 45.303125 181.165473 
L 442.021125 181.165473 
" clip-path="url(#pe12e6c74a9)" style="fill: none; stroke: #b0b0b0; stroke-width: 0.8; stroke-linecap: square"/>
     </g>
     <g id="line2d_49">
      <g>
       <use xlink:href="#m3453bb6afd" x="45.303125" y="181.165473" style="stroke: #000000; stroke-width: 0.8"/>
      </g>
     </g>
     <g id="text_9">
      <!-- 0.6 -->
      <g transform="translate(22.4 184.964692) scale(0.1 -0.1)">
       <defs>
        <path id="DejaVuSans-36" d="M 2113 2584 
Q 1688 2584 1439 2293 
Q 1191 2003 1191 1497 
Q 1191 994 1439 701 
Q 1688 409 2113 409 
Q 2538 409 2786 701 
Q 3034 994 3034 1497 
Q 3034 2003 2786 2293 
Q 2538 2584 2113 2584 
z
M 3366 4563 
L 3366 3988 
Q 3128 4100 2886 4159 
Q 2644 4219 2406 4219 
Q 1781 4219 1451 3797 
Q 1122 3375 1075 2522 
Q 1259 2794 1537 2939 
Q 1816 3084 2150 3084 
Q 2853 3084 3261 2657 
Q 3669 2231 3669 1497 
Q 3669 778 3244 343 
Q 2819 -91 2113 -91 
Q 1303 -91 875 529 
Q 447 1150 447 2328 
Q 447 3434 972 4092 
Q 1497 4750 2381 4750 
Q 2619 4750 2861 4703 
Q 3103 4656 3366 4563 
z
" transform="scale(0.015625)"/>
       </defs>
       <use xlink:href="#DejaVuSans-30"/>
       <use xlink:href="#DejaVuSans-2e" x="63.623047"/>
       <use xlink:href="#DejaVuSans-36" x="95.410156"/>
      </g>
     </g>
    </g>
    <g id="ytick_5">
     <g id="line2d_50">
      <path d="M 45.303125 147.132222 
L 442.021125 147.132222 
" clip-path="url(#pe12e6c74a9)" style="fill: none; stroke: #b0b0b0; stroke-width: 0.8; stroke-linecap: square"/>
     </g>
     <g id="line2d_51">
      <g>
       <use xlink:href="#m3453bb6afd" x="45.303125" y="147.132222" style="stroke: #000000; stroke-width: 0.8"/>
      </g>
     </g>
     <g id="text_10">
      <!-- 0.8 -->
      <g transform="translate(22.4 150.931441) scale(0.1 -0.1)">
       <defs>
        <path id="DejaVuSans-38" d="M 2034 2216 
Q 1584 2216 1326 1975 
Q 1069 1734 1069 1313 
Q 1069 891 1326 650 
Q 1584 409 2034 409 
Q 2484 409 2743 651 
Q 3003 894 3003 1313 
Q 3003 1734 2745 1975 
Q 2488 2216 2034 2216 
z
M 1403 2484 
Q 997 2584 770 2862 
Q 544 3141 544 3541 
Q 544 4100 942 4425 
Q 1341 4750 2034 4750 
Q 2731 4750 3128 4425 
Q 3525 4100 3525 3541 
Q 3525 3141 3298 2862 
Q 3072 2584 2669 2484 
Q 3125 2378 3379 2068 
Q 3634 1759 3634 1313 
Q 3634 634 3220 271 
Q 2806 -91 2034 -91 
Q 1263 -91 848 271 
Q 434 634 434 1313 
Q 434 1759 690 2068 
Q 947 2378 1403 2484 
z
M 1172 3481 
Q 1172 3119 1398 2916 
Q 1625 2713 2034 2713 
Q 2441 2713 2670 2916 
Q 2900 3119 2900 3481 
Q 2900 3844 2670 4047 
Q 2441 4250 2034 4250 
Q 1625 4250 1398 4047 
Q 1172 3844 1172 3481 
z
" transform="scale(0.015625)"/>
       </defs>
       <use xlink:href="#DejaVuSans-30"/>
       <use xlink:href="#DejaVuSans-2e" x="63.623047"/>
       <use xlink:href="#DejaVuSans-38" x="95.410156"/>
      </g>
     </g>
    </g>
    <g id="ytick_6">
     <g id="line2d_52">
      <path d="M 45.303125 113.098971 
L 442.021125 113.098971 
" clip-path="url(#pe12e6c74a9)" style="fill: none; stroke: #b0b0b0; stroke-width: 0.8; stroke-linecap: square"/>
     </g>
     <g id="line2d_53">
      <g>
       <use xlink:href="#m3453bb6afd" x="45.303125" y="113.098971" style="stroke: #000000; stroke-width: 0.8"/>
      </g>
     </g>
     <g id="text_11">
      <!-- 1.0 -->
      <g transform="translate(22.4 116.89819) scale(0.1 -0.1)">
       <use xlink:href="#DejaVuSans-31"/>
       <use xlink:href="#DejaVuSans-2e" x="63.623047"/>
       <use xlink:href="#DejaVuSans-30" x="95.410156"/>
      </g>
     </g>
    </g>
    <g id="ytick_7">
     <g id="line2d_54">
      <path d="M 45.303125 79.065721 
L 442.021125 79.065721 
" clip-path="url(#pe12e6c74a9)" style="fill: none; stroke: #b0b0b0; stroke-width: 0.8; stroke-linecap: square"/>
     </g>
     <g id="line2d_55">
      <g>
       <use xlink:href="#m3453bb6afd" x="45.303125" y="79.065721" style="stroke: #000000; stroke-width: 0.8"/>
      </g>
     </g>
     <g id="text_12">
      <!-- 1.2 -->
      <g transform="translate(22.4 82.864939) scale(0.1 -0.1)">
       <use xlink:href="#DejaVuSans-31"/>
       <use xlink:href="#DejaVuSans-2e" x="63.623047"/>
       <use xlink:href="#DejaVuSans-32" x="95.410156"/>
      </g>
     </g>
    </g>
    <g id="ytick_8">
     <g id="line2d_56">
      <path d="M 45.303125 45.03247 
L 442.021125 45.03247 
" clip-path="url(#pe12e6c74a9)" style="fill: none; stroke: #b0b0b0; stroke-width: 0.8; stroke-linecap: square"/>
     </g>
     <g id="line2d_57">
      <g>
       <use xlink:href="#m3453bb6afd" x="45.303125" y="45.03247" style="stroke: #000000; stroke-width: 0.8"/>
      </g>
     </g>
     <g id="text_13">
      <!-- 1.4 -->
      <g transform="translate(22.4 48.831688) scale(0.1 -0.1)">
       <use xlink:href="#DejaVuSans-31"/>
       <use xlink:href="#DejaVuSans-2e" x="63.623047"/>
       <use xlink:href="#DejaVuSans-34" x="95.410156"/>
      </g>
     </g>
    </g>
    <g id="ytick_9">
     <g id="line2d_58">
      <path d="M 45.303125 10.999219 
L 442.021125 10.999219 
" clip-path="url(#pe12e6c74a9)" style="fill: none; stroke: #b0b0b0; stroke-width: 0.8; stroke-linecap: square"/>
     </g>
     <g id="line2d_59">
      <g>
       <use xlink:href="#m3453bb6afd" x="45.303125" y="10.999219" style="stroke: #000000; stroke-width: 0.8"/>
      </g>
     </g>
     <g id="text_14">
      <!-- 1.6 -->
      <g transform="translate(22.4 14.798437) scale(0.1 -0.1)">
       <use xlink:href="#DejaVuSans-31"/>
       <use xlink:href="#DejaVuSans-2e" x="63.623047"/>
       <use xlink:href="#DejaVuSans-36" x="95.410156"/>
      </g>
     </g>
    </g>
    <g id="text_15">
     <!-- dm/dlnr [g/m$^3$] -->
     <g transform="translate(16.3 189.469515) rotate(-90) scale(0.1 -0.1)">
      <defs>
       <path id="DejaVuSans-2f" d="M 1625 4666 
L 2156 4666 
L 531 -594 
L 0 -594 
L 1625 4666 
z
" transform="scale(0.015625)"/>
       <path id="DejaVuSans-6e" d="M 3513 2113 
L 3513 0 
L 2938 0 
L 2938 2094 
Q 2938 2591 2744 2837 
Q 2550 3084 2163 3084 
Q 1697 3084 1428 2787 
Q 1159 2491 1159 1978 
L 1159 0 
L 581 0 
L 581 3500 
L 1159 3500 
L 1159 2956 
Q 1366 3272 1645 3428 
Q 1925 3584 2291 3584 
Q 2894 3584 3203 3211 
Q 3513 2838 3513 2113 
z
" transform="scale(0.015625)"/>
       <path id="DejaVuSans-67" d="M 2906 1791 
Q 2906 2416 2648 2759 
Q 2391 3103 1925 3103 
Q 1463 3103 1205 2759 
Q 947 2416 947 1791 
Q 947 1169 1205 825 
Q 1463 481 1925 481 
Q 2391 481 2648 825 
Q 2906 1169 2906 1791 
z
M 3481 434 
Q 3481 -459 3084 -895 
Q 2688 -1331 1869 -1331 
Q 1566 -1331 1297 -1286 
Q 1028 -1241 775 -1147 
L 775 -588 
Q 1028 -725 1275 -790 
Q 1522 -856 1778 -856 
Q 2344 -856 2625 -561 
Q 2906 -266 2906 331 
L 2906 616 
Q 2728 306 2450 153 
Q 2172 0 1784 0 
Q 1141 0 747 490 
Q 353 981 353 1791 
Q 353 2603 747 3093 
Q 1141 3584 1784 3584 
Q 2172 3584 2450 3431 
Q 2728 3278 2906 2969 
L 2906 3500 
L 3481 3500 
L 3481 434 
z
" transform="scale(0.015625)"/>
      </defs>
      <use xlink:href="#DejaVuSans-64" transform="translate(0 0.765625)"/>
      <use xlink:href="#DejaVuSans-6d" transform="translate(63.476562 0.765625)"/>
      <use xlink:href="#DejaVuSans-2f" transform="translate(160.888672 0.765625)"/>
      <use xlink:href="#DejaVuSans-64" transform="translate(194.580078 0.765625)"/>
      <use xlink:href="#DejaVuSans-6c" transform="translate(258.056641 0.765625)"/>
      <use xlink:href="#DejaVuSans-6e" transform="translate(285.839844 0.765625)"/>
      <use xlink:href="#DejaVuSans-72" transform="translate(349.21875 0.765625)"/>
      <use xlink:href="#DejaVuSans-20" transform="translate(390.332031 0.765625)"/>
      <use xlink:href="#DejaVuSans-5b" transform="translate(422.119141 0.765625)"/>
      <use xlink:href="#DejaVuSans-67" transform="translate(461.132812 0.765625)"/>
      <use xlink:href="#DejaVuSans-2f" transform="translate(524.609375 0.765625)"/>
      <use xlink:href="#DejaVuSans-6d" transform="translate(558.300781 0.765625)"/>
      <use xlink:href="#DejaVuSans-33" transform="translate(656.669922 39.046875) scale(0.7)"/>
      <use xlink:href="#DejaVuSans-5d" transform="translate(703.94043 0.765625)"/>
     </g>
    </g>
   </g>
   <g id="line2d_60">
    <path d="M 63.335761 282.558261 
L 67.595439 281.993001 
L 70.435224 281.387821 
L 73.27501 280.501938 
L 74.694902 279.916636 
L 76.114795 279.210903 
L 77.534688 278.361169 
L 78.95458 277.339668 
L 80.374473 276.113833 
L 81.794366 274.645653 
L 83.214258 272.891021 
L 84.634151 270.799087 
L 86.054043 268.311679 
L 87.473936 265.362839 
L 88.893829 261.878561 
L 90.313721 257.776857 
L 91.733614 252.968269 
L 93.153507 247.357029 
L 94.573399 240.843066 
L 95.993292 233.325121 
L 97.413184 224.705226 
L 98.833077 214.894858 
L 100.25297 203.823008 
L 101.672862 191.446385 
L 103.092755 177.761805 
L 105.93254 146.74488 
L 108.772325 112.129805 
L 111.612111 76.900939 
L 113.032003 60.510952 
L 114.451896 45.94061 
L 115.871789 34.043056 
L 117.291681 25.694452 
L 118.711574 21.723062 
L 120.131466 22.821298 
L 121.551359 29.447944 
L 122.971252 41.732774 
L 124.391144 59.400315 
L 125.811037 81.731984 
L 127.23093 107.584445 
L 131.490607 190.704247 
L 132.9105 214.952933 
L 134.330393 235.458145 
L 135.750285 251.716939 
L 137.170178 263.755061 
L 138.590071 272.03533 
L 140.009963 277.294392 
L 141.429856 280.35714 
L 142.849748 281.979707 
L 144.269641 282.754708 
L 145.689534 283.085131 
L 148.529319 283.250302 
L 162.728245 283.265226 
L 423.988489 283.265226 
L 423.988489 283.265226 
" clip-path="url(#pe12e6c74a9)" style="fill: none; stroke: #000000; stroke-width: 1.5; stroke-linecap: square"/>
   </g>
   <g id="line2d_61">
    <path d="M 63.335761 282.563424 
L 67.595439 281.991811 
L 70.435224 281.386671 
L 73.27501 280.505442 
L 76.114795 279.212648 
L 77.534688 278.346703 
L 78.95458 277.343396 
L 80.374473 276.107278 
L 81.794366 274.633283 
L 83.214258 272.881364 
L 84.634151 270.805509 
L 86.054043 268.292831 
L 87.473936 265.38993 
L 88.893829 261.830787 
L 90.313721 257.796711 
L 91.733614 252.89391 
L 93.153507 247.332973 
L 94.573399 240.837705 
L 95.993292 233.376591 
L 97.413184 224.685984 
L 98.833077 214.853589 
L 100.25297 203.753461 
L 101.672862 191.419695 
L 103.092755 177.754318 
L 105.93254 146.678461 
L 108.772325 112.145944 
L 111.612111 76.982974 
L 113.032003 60.246487 
L 114.451896 46.090491 
L 115.871789 33.77089 
L 117.291681 25.616987 
L 118.711574 21.373804 
L 120.131466 22.898602 
L 121.551359 29.045885 
L 122.971252 41.684593 
L 124.391144 58.947368 
L 125.811037 80.578558 
L 128.650822 134.722717 
L 131.490607 190.519597 
L 134.330393 235.168256 
L 135.750285 250.977067 
L 137.170178 264.393703 
L 138.590071 271.714536 
L 140.009963 278.21181 
L 141.429856 277.569033 
L 142.849748 283.265226 
L 421.148703 283.265226 
L 421.148703 283.265226 
" clip-path="url(#pe12e6c74a9)" style="fill: none; stroke: #2cbdfe; stroke-width: 1.5; stroke-linecap: square"/>
   </g>
   <g id="line2d_62">
    <path d="M 63.335761 283.141016 
L 71.855117 282.87474 
L 77.534688 282.446481 
L 81.794366 281.86407 
L 84.634151 281.282727 
L 87.473936 280.490359 
L 90.313721 279.430225 
L 93.153507 278.042416 
L 95.993292 276.270962 
L 98.833077 274.073853 
L 101.672862 271.434173 
L 104.512648 268.368428 
L 107.352433 264.926745 
L 110.192218 261.180859 
L 114.451896 255.138955 
L 118.711574 248.677432 
L 122.971252 241.728392 
L 125.811037 236.750652 
L 128.650822 231.450635 
L 131.490607 225.802956 
L 134.330393 219.796231 
L 138.590071 210.12722 
L 142.849748 199.765526 
L 154.208889 171.312274 
L 157.048675 165.095106 
L 158.468567 162.337462 
L 159.88846 159.884842 
L 161.308353 157.79604 
L 162.728245 156.133589 
L 164.148138 154.962854 
L 165.568031 154.350761 
L 166.987923 154.3641 
L 168.407816 155.067354 
L 169.827708 156.520036 
L 171.247601 158.773535 
L 172.667494 161.867503 
L 174.087386 165.825901 
L 175.507279 170.65286 
L 176.927172 176.328633 
L 178.347064 182.805961 
L 179.766957 190.007309 
L 182.606742 206.113993 
L 188.286313 240.357394 
L 189.706205 248.176211 
L 191.126098 255.32061 
L 192.54599 261.652713 
L 193.965883 267.082469 
L 195.385776 271.57404 
L 196.805668 275.146537 
L 198.225561 277.868574 
L 199.645454 279.847217 
L 201.065346 281.213023 
L 202.485239 282.103721 
L 203.905131 282.64938 
L 205.325024 282.961427 
L 208.164809 283.207517 
L 213.84438 283.264635 
L 394.170743 283.265226 
L 394.170743 283.265226 
" clip-path="url(#pe12e6c74a9)" style="fill: none; stroke: #000000; stroke-width: 1.5; stroke-linecap: square"/>
   </g>
   <g id="line2d_63">
    <path d="M 63.335761 283.125743 
L 69.015332 282.968107 
L 74.694902 282.64748 
L 78.95458 282.214151 
L 83.214258 281.483684 
L 86.054043 280.831773 
L 88.893829 279.963367 
L 91.733614 278.721408 
L 94.573399 277.123703 
L 97.413184 275.254925 
L 98.833077 274.182727 
L 101.672862 271.589119 
L 104.512648 268.467744 
L 108.772325 263.301875 
L 111.612111 259.611165 
L 114.451896 255.412982 
L 122.971252 241.759852 
L 125.811037 236.246989 
L 128.650822 230.778519 
L 131.490607 225.984869 
L 132.9105 223.206612 
L 134.330393 219.780443 
L 135.750285 215.567661 
L 140.009963 201.82263 
L 141.429856 197.834294 
L 142.849748 194.320569 
L 145.689534 188.3385 
L 148.529319 183.239355 
L 149.949212 180.72081 
L 151.369104 177.620208 
L 152.788997 173.659661 
L 157.048675 159.111088 
L 158.468567 155.655231 
L 159.88846 153.558944 
L 161.308353 152.817621 
L 162.728245 152.598149 
L 164.148138 152.521556 
L 166.987923 151.122101 
L 168.407816 151.056888 
L 169.827708 152.887847 
L 171.247601 156.845579 
L 172.667494 162.791903 
L 175.507279 178.010325 
L 176.927172 185.667705 
L 179.766957 199.272832 
L 182.606742 211.96158 
L 184.026635 218.764582 
L 185.446527 226.346592 
L 189.706205 251.728765 
L 191.126098 259.072006 
L 192.54599 265.117112 
L 193.965883 269.776401 
L 195.385776 273.487767 
L 196.805668 276.369679 
L 198.225561 278.660531 
L 199.645454 280.326089 
L 201.065346 281.537488 
L 202.485239 282.281617 
L 203.905131 282.757635 
L 206.744917 283.179446 
L 211.004595 283.265226 
L 422.568596 283.265226 
L 422.568596 283.265226 
" clip-path="url(#pe12e6c74a9)" style="fill: none; stroke: #5986e5; stroke-width: 1.5; stroke-linecap: square"/>
   </g>
   <g id="line2d_64">
    <path d="M 63.335761 283.242837 
L 78.95458 283.090236 
L 87.473936 282.776285 
L 93.153507 282.355543 
L 98.833077 281.687371 
L 104.512648 280.748934 
L 110.192218 279.588887 
L 117.291681 277.925922 
L 122.971252 276.409217 
L 128.650822 274.643062 
L 132.9105 273.103712 
L 137.170178 271.340089 
L 141.429856 269.312653 
L 145.689534 266.977354 
L 149.949212 264.28488 
L 152.788997 262.264539 
L 155.628782 260.043386 
L 158.468567 257.602584 
L 161.308353 254.922312 
L 164.148138 251.981979 
L 166.987923 248.760569 
L 169.827708 245.23716 
L 172.667494 241.391692 
L 175.507279 237.20604 
L 178.347064 232.665519 
L 181.186849 227.760914 
L 184.026635 222.491211 
L 186.86642 216.867167 
L 191.126098 207.831936 
L 196.805668 195.003694 
L 202.485239 182.193918 
L 205.325024 176.312171 
L 208.164809 171.180961 
L 209.584702 169.015263 
L 211.004595 167.18754 
L 212.424487 165.755642 
L 213.84438 164.779903 
L 215.264272 164.321925 
L 216.684165 164.442978 
L 218.104058 165.201959 
L 219.52395 166.652897 
L 220.943843 168.842008 
L 222.363736 171.804334 
L 223.783628 175.56009 
L 225.203521 180.11086 
L 226.623413 185.435901 
L 228.043306 191.488874 
L 229.463199 198.195425 
L 232.302984 213.126779 
L 237.982554 244.603865 
L 239.402447 251.737227 
L 240.82234 258.233757 
L 242.242232 263.971271 
L 243.662125 268.87239 
L 245.082018 272.909894 
L 246.50191 276.10678 
L 247.921803 278.530655 
L 249.341696 280.283094 
L 250.761588 281.48563 
L 252.181481 282.264782 
L 253.601373 282.738714 
L 255.021266 283.007624 
L 257.861051 283.21722 
L 264.960514 283.265121 
L 394.170743 283.265226 
L 394.170743 283.265226 
" clip-path="url(#pe12e6c74a9)" style="fill: none; stroke: #000000; stroke-width: 1.5; stroke-linecap: square"/>
   </g>
   <g id="line2d_65">
    <path d="M 63.335761 283.245212 
L 78.95458 283.081897 
L 86.054043 282.844568 
L 91.733614 282.485002 
L 97.413184 281.91845 
L 101.672862 281.331137 
L 107.352433 280.273622 
L 113.032003 279.028049 
L 118.711574 277.576106 
L 124.391144 276.436084 
L 131.490607 274.370732 
L 134.330393 273.277991 
L 137.170178 271.823749 
L 140.009963 270.054108 
L 144.269641 266.933858 
L 147.109426 264.930216 
L 149.949212 263.076803 
L 151.369104 262.000068 
L 154.208889 259.301873 
L 155.628782 257.893884 
L 157.048675 256.656174 
L 158.468567 255.699698 
L 159.88846 255.020323 
L 162.728245 253.955194 
L 164.148138 253.065021 
L 165.568031 251.656319 
L 166.987923 249.637339 
L 168.407816 247.080188 
L 172.667494 238.454513 
L 174.087386 236.138958 
L 179.766957 227.980663 
L 182.606742 223.248732 
L 184.026635 220.677592 
L 185.446527 217.847874 
L 186.86642 214.498766 
L 188.286313 210.693763 
L 191.126098 201.848292 
L 193.965883 192.725006 
L 196.805668 184.547851 
L 201.065346 172.135462 
L 202.485239 168.728316 
L 203.905131 166.525028 
L 205.325024 165.6868 
L 206.744917 165.71287 
L 209.584702 166.645367 
L 212.424487 167.342148 
L 215.264272 168.956957 
L 216.684165 169.422048 
L 218.104058 169.644561 
L 219.52395 170.540489 
L 220.943843 172.427125 
L 222.363736 175.501272 
L 223.783628 179.960582 
L 225.203521 186.114866 
L 226.623413 193.936419 
L 228.043306 203.116774 
L 230.883091 223.033033 
L 232.302984 231.485571 
L 233.722877 237.921957 
L 235.142769 242.736816 
L 237.982554 251.680431 
L 240.82234 262.044795 
L 242.242232 266.630215 
L 243.662125 270.269011 
L 245.082018 273.109921 
L 246.50191 275.453912 
L 249.341696 279.356647 
L 250.761588 280.963787 
L 252.181481 282.180026 
L 253.601373 282.89378 
L 255.021266 283.188628 
L 257.861051 283.265226 
L 422.568596 283.265226 
L 422.568596 283.265226 
" clip-path="url(#pe12e6c74a9)" style="fill: none; stroke: #864fcb; stroke-width: 1.5; stroke-linecap: square"/>
   </g>
   <g id="line2d_66">
    <path d="M 63.335761 283.261171 
L 90.313721 283.144132 
L 103.092755 282.860834 
L 118.711574 282.250532 
L 131.490607 281.552672 
L 141.429856 280.78036 
L 149.949212 279.878246 
L 157.048675 278.895707 
L 162.728245 277.91521 
L 168.407816 276.719844 
L 174.087386 275.261992 
L 178.347064 273.96206 
L 182.606742 272.453558 
L 186.86642 270.703475 
L 191.126098 268.673977 
L 195.385776 266.321911 
L 198.225561 264.550771 
L 201.065346 262.598719 
L 203.905131 260.448631 
L 206.744917 258.082254 
L 209.584702 255.480324 
L 212.424487 252.622765 
L 215.264272 249.489018 
L 218.104058 246.058534 
L 220.943843 242.3115 
L 223.783628 238.229868 
L 226.623413 233.798781 
L 229.463199 229.008517 
L 232.302984 223.857097 
L 235.142769 218.353709 
L 239.402447 209.498483 
L 245.082018 196.887472 
L 250.761588 184.222376 
L 253.601373 178.363 
L 256.441159 173.20547 
L 257.861051 171.0044 
L 259.280944 169.124406 
L 260.700837 167.621881 
L 262.120729 166.555883 
L 263.540622 165.987019 
L 264.960514 165.975951 
L 266.380407 166.581487 
L 267.8003 167.858219 
L 269.220192 169.853708 
L 270.640085 172.605263 
L 272.059978 176.136384 
L 273.47987 180.453026 
L 274.899763 185.539905 
L 276.319655 191.357151 
L 277.739548 197.837695 
L 280.579333 212.377449 
L 286.258904 243.502308 
L 287.678796 250.657597 
L 289.098689 257.216514 
L 290.518582 263.049907 
L 291.938474 268.071049 
L 293.358367 272.241936 
L 294.77826 275.574566 
L 296.198152 278.126628 
L 297.618045 279.992002 
L 299.037937 281.287481 
L 300.45783 282.138001 
L 301.877723 282.66291 
L 303.297615 282.965546 
L 306.137401 283.207152 
L 311.816971 283.264598 
L 394.170743 283.265226 
L 394.170743 283.265226 
" clip-path="url(#pe12e6c74a9)" style="fill: none; stroke: #000000; stroke-width: 1.5; stroke-linecap: square"/>
   </g>
   <g id="line2d_67">
    <path d="M 63.335761 283.261369 
L 90.313721 283.144422 
L 103.092755 282.882697 
L 121.551359 282.14345 
L 134.330393 281.544179 
L 140.009963 280.943933 
L 152.788997 279.409886 
L 157.048675 278.577604 
L 159.88846 278.32231 
L 162.728245 278.211376 
L 164.148138 278.027382 
L 165.568031 277.70427 
L 168.407816 276.690441 
L 171.247601 275.532907 
L 174.087386 274.689921 
L 176.927172 274.066694 
L 179.766957 273.139746 
L 186.86642 270.172648 
L 189.706205 268.733767 
L 192.54599 266.992849 
L 193.965883 265.912108 
L 195.385776 264.660875 
L 198.225561 261.88899 
L 199.645454 260.750539 
L 201.065346 259.998962 
L 203.905131 259.03269 
L 205.325024 258.338105 
L 206.744917 257.351222 
L 208.164809 256.006378 
L 209.584702 254.473447 
L 212.424487 250.948247 
L 213.84438 248.804937 
L 219.52395 239.131109 
L 220.943843 237.513683 
L 223.783628 235.284588 
L 225.203521 233.608242 
L 226.623413 230.955276 
L 228.043306 227.551677 
L 232.302984 216.544447 
L 233.722877 213.213632 
L 235.142769 210.171504 
L 236.562662 207.512866 
L 237.982554 205.374795 
L 239.402447 203.915235 
L 242.242232 202.19462 
L 243.662125 200.713583 
L 245.082018 198.248252 
L 246.50191 194.686961 
L 247.921803 189.847304 
L 250.761588 178.669869 
L 252.181481 174.789674 
L 253.601373 172.785124 
L 255.021266 172.612773 
L 256.441159 173.470296 
L 257.861051 174.838844 
L 259.280944 175.310982 
L 260.700837 174.906833 
L 262.120729 174.054352 
L 263.540622 174.159353 
L 264.960514 175.018413 
L 266.380407 176.406528 
L 267.8003 177.951721 
L 269.220192 180.204238 
L 270.640085 183.490256 
L 272.059978 188.056763 
L 273.47987 193.89426 
L 276.319655 207.142012 
L 277.739548 212.999561 
L 280.579333 222.510638 
L 283.419119 231.7647 
L 284.839011 235.74889 
L 287.678796 242.99488 
L 289.098689 248.066636 
L 290.518582 254.461352 
L 293.358367 268.372287 
L 294.77826 273.840563 
L 296.198152 277.55951 
L 297.618045 279.587535 
L 299.037937 280.893316 
L 300.45783 281.869985 
L 301.877723 282.707129 
L 303.297615 283.125702 
L 304.717508 283.265226 
L 422.568596 283.265226 
L 422.568596 283.265226 
" clip-path="url(#pe12e6c74a9)" style="fill: none; stroke: #b317b1; stroke-width: 1.5; stroke-linecap: square"/>
   </g>
   <g id="patch_3">
    <path d="M 45.303125 296.359797 
L 45.303125 8.279233 
" style="fill: none; stroke: #000000; stroke-width: 0.8; stroke-linejoin: miter; stroke-linecap: square"/>
   </g>
   <g id="patch_4">
    <path d="M 442.021125 296.359797 
L 442.021125 8.279233 
" style="fill: none; stroke: #000000; stroke-width: 0.8; stroke-linejoin: miter; stroke-linecap: square"/>
   </g>
   <g id="patch_5">
    <path d="M 45.303125 296.359797 
L 442.021125 296.359797 
" style="fill: none; stroke: #000000; stroke-width: 0.8; stroke-linejoin: miter; stroke-linecap: square"/>
   </g>
   <g id="patch_6">
    <path d="M 45.303125 8.279233 
L 442.021125 8.279233 
" style="fill: none; stroke: #000000; stroke-width: 0.8; stroke-linejoin: miter; stroke-linecap: square"/>
   </g>
   <g id="legend_1">
    <g id="patch_7">
     <path d="M 353.7055 74.991733 
L 435.021125 74.991733 
Q 437.021125 74.991733 437.021125 72.991733 
L 437.021125 15.279233 
Q 437.021125 13.279233 435.021125 13.279233 
L 353.7055 13.279233 
Q 351.7055 13.279233 351.7055 15.279233 
L 351.7055 72.991733 
Q 351.7055 74.991733 353.7055 74.991733 
z
" style="fill: #ffffff; opacity: 0.8; stroke: #cccccc; stroke-linejoin: miter"/>
    </g>
    <g id="line2d_68">
     <path d="M 355.7055 21.37767 
L 365.7055 21.37767 
L 375.7055 21.37767 
" style="fill: none; stroke: #2cbdfe; stroke-width: 1.5; stroke-linecap: square"/>
    </g>
    <g id="text_16">
     <!-- t = 0s -->
     <g transform="translate(383.7055 24.87767) scale(0.1 -0.1)">
      <defs>
       <path id="DejaVuSans-3d" d="M 678 2906 
L 4684 2906 
L 4684 2381 
L 678 2381 
L 678 2906 
z
M 678 1631 
L 4684 1631 
L 4684 1100 
L 678 1100 
L 678 1631 
z
" transform="scale(0.015625)"/>
      </defs>
      <use xlink:href="#DejaVuSans-74"/>
      <use xlink:href="#DejaVuSans-20" x="39.208984"/>
      <use xlink:href="#DejaVuSans-3d" x="70.996094"/>
      <use xlink:href="#DejaVuSans-20" x="154.785156"/>
      <use xlink:href="#DejaVuSans-30" x="186.572266"/>
      <use xlink:href="#DejaVuSans-73" x="250.195312"/>
     </g>
    </g>
    <g id="line2d_69">
     <path d="M 355.7055 36.055795 
L 365.7055 36.055795 
L 375.7055 36.055795 
" style="fill: none; stroke: #5986e5; stroke-width: 1.5; stroke-linecap: square"/>
    </g>
    <g id="text_17">
     <!-- t = 1200s -->
     <g transform="translate(383.7055 39.555795) scale(0.1 -0.1)">
      <use xlink:href="#DejaVuSans-74"/>
      <use xlink:href="#DejaVuSans-20" x="39.208984"/>
      <use xlink:href="#DejaVuSans-3d" x="70.996094"/>
      <use xlink:href="#DejaVuSans-20" x="154.785156"/>
      <use xlink:href="#DejaVuSans-31" x="186.572266"/>
      <use xlink:href="#DejaVuSans-32" x="250.195312"/>
      <use xlink:href="#DejaVuSans-30" x="313.818359"/>
      <use xlink:href="#DejaVuSans-30" x="377.441406"/>
      <use xlink:href="#DejaVuSans-73" x="441.064453"/>
     </g>
    </g>
    <g id="line2d_70">
     <path d="M 355.7055 50.73392 
L 365.7055 50.73392 
L 375.7055 50.73392 
" style="fill: none; stroke: #864fcb; stroke-width: 1.5; stroke-linecap: square"/>
    </g>
    <g id="text_18">
     <!-- t = 2400s -->
     <g transform="translate(383.7055 54.23392) scale(0.1 -0.1)">
      <use xlink:href="#DejaVuSans-74"/>
      <use xlink:href="#DejaVuSans-20" x="39.208984"/>
      <use xlink:href="#DejaVuSans-3d" x="70.996094"/>
      <use xlink:href="#DejaVuSans-20" x="154.785156"/>
      <use xlink:href="#DejaVuSans-32" x="186.572266"/>
      <use xlink:href="#DejaVuSans-34" x="250.195312"/>
      <use xlink:href="#DejaVuSans-30" x="313.818359"/>
      <use xlink:href="#DejaVuSans-30" x="377.441406"/>
      <use xlink:href="#DejaVuSans-73" x="441.064453"/>
     </g>
    </g>
    <g id="line2d_71">
     <path d="M 355.7055 65.412045 
L 365.7055 65.412045 
L 375.7055 65.412045 
" style="fill: none; stroke: #b317b1; stroke-width: 1.5; stroke-linecap: square"/>
    </g>
    <g id="text_19">
     <!-- t = 3600s -->
     <g transform="translate(383.7055 68.912045) scale(0.1 -0.1)">
      <use xlink:href="#DejaVuSans-74"/>
      <use xlink:href="#DejaVuSans-20" x="39.208984"/>
      <use xlink:href="#DejaVuSans-3d" x="70.996094"/>
      <use xlink:href="#DejaVuSans-20" x="154.785156"/>
      <use xlink:href="#DejaVuSans-33" x="186.572266"/>
      <use xlink:href="#DejaVuSans-36" x="250.195312"/>
      <use xlink:href="#DejaVuSans-30" x="313.818359"/>
      <use xlink:href="#DejaVuSans-30" x="377.441406"/>
      <use xlink:href="#DejaVuSans-73" x="441.064453"/>
     </g>
    </g>
   </g>
  </g>
 </g>
 <defs>
  <clipPath id="pe12e6c74a9">
   <rect x="45.303125" y="8.279233" width="396.718" height="288.080564"/>
  </clipPath>
 </defs>
</svg>
