<?xml version="1.0" encoding="utf-8" standalone="no"?>
<!DOCTYPE svg PUBLIC "-//W3C//DTD SVG 1.1//EN"
  "http://www.w3.org/Graphics/SVG/1.1/DTD/svg11.dtd">
<svg xmlns:xlink="http://www.w3.org/1999/xlink" width="679.545312pt" height="321.95625pt" viewBox="0 0 679.545312 321.95625" xmlns="http://www.w3.org/2000/svg" version="1.1">
 <metadata>
  <rdf:RDF xmlns:dc="http://purl.org/dc/elements/1.1/" xmlns:cc="http://creativecommons.org/ns#" xmlns:rdf="http://www.w3.org/1999/02/22-rdf-syntax-ns#">
   <cc:Work>
    <dc:type rdf:resource="http://purl.org/dc/dcmitype/StillImage"/>
    <dc:date>2024-11-08T23:26:11.221933</dc:date>
    <dc:format>image/svg+xml</dc:format>
    <dc:creator>
     <cc:Agent>
      <dc:title>Matplotlib v3.9.2, https://matplotlib.org/</dc:title>
     </cc:Agent>
    </dc:creator>
   </cc:Work>
  </rdf:RDF>
 </metadata>
 <defs>
  <style type="text/css">*{stroke-linejoin: round; stroke-linecap: butt}</style>
 </defs>
 <g id="figure_1">
  <g id="patch_1">
   <path d="M 0 321.95625 
L 679.545312 321.95625 
L 679.545312 0 
L 0 0 
z
" style="fill: #ffffff"/>
  </g>
  <g id="axes_1">
   <g id="patch_2">
    <path d="M 58.545313 284.4 
L 337.545313 284.4 
L 337.545313 7.2 
L 58.545313 7.2 
z
" style="fill: #ffffff"/>
   </g>
   <g id="matplotlib.axis_1">
    <g id="xtick_1">
     <g id="line2d_1">
      <path d="M 71.227131 284.4 
L 71.227131 7.2 
" clip-path="url(#pd38139040e)" style="fill: none; stroke: #b0b0b0; stroke-width: 0.8; stroke-linecap: square"/>
     </g>
     <g id="line2d_2">
      <defs>
       <path id="m70766832b0" d="M 0 0 
L 0 3.5 
" style="stroke: #000000; stroke-width: 0.8"/>
      </defs>
      <g>
       <use xlink:href="#m70766832b0" x="71.227131" y="284.4" style="stroke: #000000; stroke-width: 0.8"/>
      </g>
     </g>
     <g id="text_1">
      <!-- 0.0 -->
      <g transform="translate(63.275568 298.998438) scale(0.1 -0.1)">
       <defs>
        <path id="DejaVuSans-30" d="M 2034 4250 
Q 1547 4250 1301 3770 
Q 1056 3291 1056 2328 
Q 1056 1369 1301 889 
Q 1547 409 2034 409 
Q 2525 409 2770 889 
Q 3016 1369 3016 2328 
Q 3016 3291 2770 3770 
Q 2525 4250 2034 4250 
z
M 2034 4750 
Q 2819 4750 3233 4129 
Q 3647 3509 3647 2328 
Q 3647 1150 3233 529 
Q 2819 -91 2034 -91 
Q 1250 -91 836 529 
Q 422 1150 422 2328 
Q 422 3509 836 4129 
Q 1250 4750 2034 4750 
z
" transform="scale(0.015625)"/>
        <path id="DejaVuSans-2e" d="M 684 794 
L 1344 794 
L 1344 0 
L 684 0 
L 684 794 
z
" transform="scale(0.015625)"/>
       </defs>
       <use xlink:href="#DejaVuSans-30"/>
       <use xlink:href="#DejaVuSans-2e" x="63.623047"/>
       <use xlink:href="#DejaVuSans-30" x="95.410156"/>
      </g>
     </g>
    </g>
    <g id="xtick_2">
     <g id="line2d_3">
      <path d="M 103.832014 284.4 
L 103.832014 7.2 
" clip-path="url(#pd38139040e)" style="fill: none; stroke: #b0b0b0; stroke-width: 0.8; stroke-linecap: square"/>
     </g>
     <g id="line2d_4">
      <g>
       <use xlink:href="#m70766832b0" x="103.832014" y="284.4" style="stroke: #000000; stroke-width: 0.8"/>
      </g>
     </g>
     <g id="text_2">
      <!-- 0.2 -->
      <g transform="translate(95.880451 298.998438) scale(0.1 -0.1)">
       <defs>
        <path id="DejaVuSans-32" d="M 1228 531 
L 3431 531 
L 3431 0 
L 469 0 
L 469 531 
Q 828 903 1448 1529 
Q 2069 2156 2228 2338 
Q 2531 2678 2651 2914 
Q 2772 3150 2772 3378 
Q 2772 3750 2511 3984 
Q 2250 4219 1831 4219 
Q 1534 4219 1204 4116 
Q 875 4013 500 3803 
L 500 4441 
Q 881 4594 1212 4672 
Q 1544 4750 1819 4750 
Q 2544 4750 2975 4387 
Q 3406 4025 3406 3419 
Q 3406 3131 3298 2873 
Q 3191 2616 2906 2266 
Q 2828 2175 2409 1742 
Q 1991 1309 1228 531 
z
" transform="scale(0.015625)"/>
       </defs>
       <use xlink:href="#DejaVuSans-30"/>
       <use xlink:href="#DejaVuSans-2e" x="63.623047"/>
       <use xlink:href="#DejaVuSans-32" x="95.410156"/>
      </g>
     </g>
    </g>
    <g id="xtick_3">
     <g id="line2d_5">
      <path d="M 136.436896 284.4 
L 136.436896 7.2 
" clip-path="url(#pd38139040e)" style="fill: none; stroke: #b0b0b0; stroke-width: 0.8; stroke-linecap: square"/>
     </g>
     <g id="line2d_6">
      <g>
       <use xlink:href="#m70766832b0" x="136.436896" y="284.4" style="stroke: #000000; stroke-width: 0.8"/>
      </g>
     </g>
     <g id="text_3">
      <!-- 0.4 -->
      <g transform="translate(128.485334 298.998438) scale(0.1 -0.1)">
       <defs>
        <path id="DejaVuSans-34" d="M 2419 4116 
L 825 1625 
L 2419 1625 
L 2419 4116 
z
M 2253 4666 
L 3047 4666 
L 3047 1625 
L 3713 1625 
L 3713 1100 
L 3047 1100 
L 3047 0 
L 2419 0 
L 2419 1100 
L 313 1100 
L 313 1709 
L 2253 4666 
z
" transform="scale(0.015625)"/>
       </defs>
       <use xlink:href="#DejaVuSans-30"/>
       <use xlink:href="#DejaVuSans-2e" x="63.623047"/>
       <use xlink:href="#DejaVuSans-34" x="95.410156"/>
      </g>
     </g>
    </g>
    <g id="xtick_4">
     <g id="line2d_7">
      <path d="M 169.041779 284.4 
L 169.041779 7.2 
" clip-path="url(#pd38139040e)" style="fill: none; stroke: #b0b0b0; stroke-width: 0.8; stroke-linecap: square"/>
     </g>
     <g id="line2d_8">
      <g>
       <use xlink:href="#m70766832b0" x="169.041779" y="284.4" style="stroke: #000000; stroke-width: 0.8"/>
      </g>
     </g>
     <g id="text_4">
      <!-- 0.6 -->
      <g transform="translate(161.090217 298.998438) scale(0.1 -0.1)">
       <defs>
        <path id="DejaVuSans-36" d="M 2113 2584 
Q 1688 2584 1439 2293 
Q 1191 2003 1191 1497 
Q 1191 994 1439 701 
Q 1688 409 2113 409 
Q 2538 409 2786 701 
Q 3034 994 3034 1497 
Q 3034 2003 2786 2293 
Q 2538 2584 2113 2584 
z
M 3366 4563 
L 3366 3988 
Q 3128 4100 2886 4159 
Q 2644 4219 2406 4219 
Q 1781 4219 1451 3797 
Q 1122 3375 1075 2522 
Q 1259 2794 1537 2939 
Q 1816 3084 2150 3084 
Q 2853 3084 3261 2657 
Q 3669 2231 3669 1497 
Q 3669 778 3244 343 
Q 2819 -91 2113 -91 
Q 1303 -91 875 529 
Q 447 1150 447 2328 
Q 447 3434 972 4092 
Q 1497 4750 2381 4750 
Q 2619 4750 2861 4703 
Q 3103 4656 3366 4563 
z
" transform="scale(0.015625)"/>
       </defs>
       <use xlink:href="#DejaVuSans-30"/>
       <use xlink:href="#DejaVuSans-2e" x="63.623047"/>
       <use xlink:href="#DejaVuSans-36" x="95.410156"/>
      </g>
     </g>
    </g>
    <g id="xtick_5">
     <g id="line2d_9">
      <path d="M 201.646662 284.4 
L 201.646662 7.2 
" clip-path="url(#pd38139040e)" style="fill: none; stroke: #b0b0b0; stroke-width: 0.8; stroke-linecap: square"/>
     </g>
     <g id="line2d_10">
      <g>
       <use xlink:href="#m70766832b0" x="201.646662" y="284.4" style="stroke: #000000; stroke-width: 0.8"/>
      </g>
     </g>
     <g id="text_5">
      <!-- 0.8 -->
      <g transform="translate(193.6951 298.998438) scale(0.1 -0.1)">
       <defs>
        <path id="DejaVuSans-38" d="M 2034 2216 
Q 1584 2216 1326 1975 
Q 1069 1734 1069 1313 
Q 1069 891 1326 650 
Q 1584 409 2034 409 
Q 2484 409 2743 651 
Q 3003 894 3003 1313 
Q 3003 1734 2745 1975 
Q 2488 2216 2034 2216 
z
M 1403 2484 
Q 997 2584 770 2862 
Q 544 3141 544 3541 
Q 544 4100 942 4425 
Q 1341 4750 2034 4750 
Q 2731 4750 3128 4425 
Q 3525 4100 3525 3541 
Q 3525 3141 3298 2862 
Q 3072 2584 2669 2484 
Q 3125 2378 3379 2068 
Q 3634 1759 3634 1313 
Q 3634 634 3220 271 
Q 2806 -91 2034 -91 
Q 1263 -91 848 271 
Q 434 634 434 1313 
Q 434 1759 690 2068 
Q 947 2378 1403 2484 
z
M 1172 3481 
Q 1172 3119 1398 2916 
Q 1625 2713 2034 2713 
Q 2441 2713 2670 2916 
Q 2900 3119 2900 3481 
Q 2900 3844 2670 4047 
Q 2441 4250 2034 4250 
Q 1625 4250 1398 4047 
Q 1172 3844 1172 3481 
z
" transform="scale(0.015625)"/>
       </defs>
       <use xlink:href="#DejaVuSans-30"/>
       <use xlink:href="#DejaVuSans-2e" x="63.623047"/>
       <use xlink:href="#DejaVuSans-38" x="95.410156"/>
      </g>
     </g>
    </g>
    <g id="xtick_6">
     <g id="line2d_11">
      <path d="M 234.251545 284.4 
L 234.251545 7.2 
" clip-path="url(#pd38139040e)" style="fill: none; stroke: #b0b0b0; stroke-width: 0.8; stroke-linecap: square"/>
     </g>
     <g id="line2d_12">
      <g>
       <use xlink:href="#m70766832b0" x="234.251545" y="284.4" style="stroke: #000000; stroke-width: 0.8"/>
      </g>
     </g>
     <g id="text_6">
      <!-- 1.0 -->
      <g transform="translate(226.299983 298.998438) scale(0.1 -0.1)">
       <defs>
        <path id="DejaVuSans-31" d="M 794 531 
L 1825 531 
L 1825 4091 
L 703 3866 
L 703 4441 
L 1819 4666 
L 2450 4666 
L 2450 531 
L 3481 531 
L 3481 0 
L 794 0 
L 794 531 
z
" transform="scale(0.015625)"/>
       </defs>
       <use xlink:href="#DejaVuSans-31"/>
       <use xlink:href="#DejaVuSans-2e" x="63.623047"/>
       <use xlink:href="#DejaVuSans-30" x="95.410156"/>
      </g>
     </g>
    </g>
    <g id="xtick_7">
     <g id="line2d_13">
      <path d="M 266.856428 284.4 
L 266.856428 7.2 
" clip-path="url(#pd38139040e)" style="fill: none; stroke: #b0b0b0; stroke-width: 0.8; stroke-linecap: square"/>
     </g>
     <g id="line2d_14">
      <g>
       <use xlink:href="#m70766832b0" x="266.856428" y="284.4" style="stroke: #000000; stroke-width: 0.8"/>
      </g>
     </g>
     <g id="text_7">
      <!-- 1.2 -->
      <g transform="translate(258.904866 298.998438) scale(0.1 -0.1)">
       <use xlink:href="#DejaVuSans-31"/>
       <use xlink:href="#DejaVuSans-2e" x="63.623047"/>
       <use xlink:href="#DejaVuSans-32" x="95.410156"/>
      </g>
     </g>
    </g>
    <g id="xtick_8">
     <g id="line2d_15">
      <path d="M 299.461311 284.4 
L 299.461311 7.2 
" clip-path="url(#pd38139040e)" style="fill: none; stroke: #b0b0b0; stroke-width: 0.8; stroke-linecap: square"/>
     </g>
     <g id="line2d_16">
      <g>
       <use xlink:href="#m70766832b0" x="299.461311" y="284.4" style="stroke: #000000; stroke-width: 0.8"/>
      </g>
     </g>
     <g id="text_8">
      <!-- 1.4 -->
      <g transform="translate(291.509748 298.998438) scale(0.1 -0.1)">
       <use xlink:href="#DejaVuSans-31"/>
       <use xlink:href="#DejaVuSans-2e" x="63.623047"/>
       <use xlink:href="#DejaVuSans-34" x="95.410156"/>
      </g>
     </g>
    </g>
    <g id="xtick_9">
     <g id="line2d_17">
      <path d="M 332.066194 284.4 
L 332.066194 7.2 
" clip-path="url(#pd38139040e)" style="fill: none; stroke: #b0b0b0; stroke-width: 0.8; stroke-linecap: square"/>
     </g>
     <g id="line2d_18">
      <g>
       <use xlink:href="#m70766832b0" x="332.066194" y="284.4" style="stroke: #000000; stroke-width: 0.8"/>
      </g>
     </g>
     <g id="text_9">
      <!-- 1.6 -->
      <g transform="translate(324.114631 298.998438) scale(0.1 -0.1)">
       <use xlink:href="#DejaVuSans-31"/>
       <use xlink:href="#DejaVuSans-2e" x="63.623047"/>
       <use xlink:href="#DejaVuSans-36" x="95.410156"/>
      </g>
     </g>
    </g>
    <g id="text_10">
     <!-- TODO #832 (should be Frozen Fraction) -->
     <g transform="translate(98.528906 312.676562) scale(0.1 -0.1)">
      <defs>
       <path id="DejaVuSans-54" d="M -19 4666 
L 3928 4666 
L 3928 4134 
L 2272 4134 
L 2272 0 
L 1638 0 
L 1638 4134 
L -19 4134 
L -19 4666 
z
" transform="scale(0.015625)"/>
       <path id="DejaVuSans-4f" d="M 2522 4238 
Q 1834 4238 1429 3725 
Q 1025 3213 1025 2328 
Q 1025 1447 1429 934 
Q 1834 422 2522 422 
Q 3209 422 3611 934 
Q 4013 1447 4013 2328 
Q 4013 3213 3611 3725 
Q 3209 4238 2522 4238 
z
M 2522 4750 
Q 3503 4750 4090 4092 
Q 4678 3434 4678 2328 
Q 4678 1225 4090 567 
Q 3503 -91 2522 -91 
Q 1538 -91 948 565 
Q 359 1222 359 2328 
Q 359 3434 948 4092 
Q 1538 4750 2522 4750 
z
" transform="scale(0.015625)"/>
       <path id="DejaVuSans-44" d="M 1259 4147 
L 1259 519 
L 2022 519 
Q 2988 519 3436 956 
Q 3884 1394 3884 2338 
Q 3884 3275 3436 3711 
Q 2988 4147 2022 4147 
L 1259 4147 
z
M 628 4666 
L 1925 4666 
Q 3281 4666 3915 4102 
Q 4550 3538 4550 2338 
Q 4550 1131 3912 565 
Q 3275 0 1925 0 
L 628 0 
L 628 4666 
z
" transform="scale(0.015625)"/>
       <path id="DejaVuSans-20" transform="scale(0.015625)"/>
       <path id="DejaVuSans-23" d="M 3272 2816 
L 2363 2816 
L 2100 1772 
L 3016 1772 
L 3272 2816 
z
M 2803 4594 
L 2478 3297 
L 3391 3297 
L 3719 4594 
L 4219 4594 
L 3897 3297 
L 4872 3297 
L 4872 2816 
L 3775 2816 
L 3519 1772 
L 4513 1772 
L 4513 1294 
L 3397 1294 
L 3072 0 
L 2572 0 
L 2894 1294 
L 1978 1294 
L 1656 0 
L 1153 0 
L 1478 1294 
L 494 1294 
L 494 1772 
L 1594 1772 
L 1856 2816 
L 850 2816 
L 850 3297 
L 1978 3297 
L 2297 4594 
L 2803 4594 
z
" transform="scale(0.015625)"/>
       <path id="DejaVuSans-33" d="M 2597 2516 
Q 3050 2419 3304 2112 
Q 3559 1806 3559 1356 
Q 3559 666 3084 287 
Q 2609 -91 1734 -91 
Q 1441 -91 1130 -33 
Q 819 25 488 141 
L 488 750 
Q 750 597 1062 519 
Q 1375 441 1716 441 
Q 2309 441 2620 675 
Q 2931 909 2931 1356 
Q 2931 1769 2642 2001 
Q 2353 2234 1838 2234 
L 1294 2234 
L 1294 2753 
L 1863 2753 
Q 2328 2753 2575 2939 
Q 2822 3125 2822 3475 
Q 2822 3834 2567 4026 
Q 2313 4219 1838 4219 
Q 1578 4219 1281 4162 
Q 984 4106 628 3988 
L 628 4550 
Q 988 4650 1302 4700 
Q 1616 4750 1894 4750 
Q 2613 4750 3031 4423 
Q 3450 4097 3450 3541 
Q 3450 3153 3228 2886 
Q 3006 2619 2597 2516 
z
" transform="scale(0.015625)"/>
       <path id="DejaVuSans-28" d="M 1984 4856 
Q 1566 4138 1362 3434 
Q 1159 2731 1159 2009 
Q 1159 1288 1364 580 
Q 1569 -128 1984 -844 
L 1484 -844 
Q 1016 -109 783 600 
Q 550 1309 550 2009 
Q 550 2706 781 3412 
Q 1013 4119 1484 4856 
L 1984 4856 
z
" transform="scale(0.015625)"/>
       <path id="DejaVuSans-73" d="M 2834 3397 
L 2834 2853 
Q 2591 2978 2328 3040 
Q 2066 3103 1784 3103 
Q 1356 3103 1142 2972 
Q 928 2841 928 2578 
Q 928 2378 1081 2264 
Q 1234 2150 1697 2047 
L 1894 2003 
Q 2506 1872 2764 1633 
Q 3022 1394 3022 966 
Q 3022 478 2636 193 
Q 2250 -91 1575 -91 
Q 1294 -91 989 -36 
Q 684 19 347 128 
L 347 722 
Q 666 556 975 473 
Q 1284 391 1588 391 
Q 1994 391 2212 530 
Q 2431 669 2431 922 
Q 2431 1156 2273 1281 
Q 2116 1406 1581 1522 
L 1381 1569 
Q 847 1681 609 1914 
Q 372 2147 372 2553 
Q 372 3047 722 3315 
Q 1072 3584 1716 3584 
Q 2034 3584 2315 3537 
Q 2597 3491 2834 3397 
z
" transform="scale(0.015625)"/>
       <path id="DejaVuSans-68" d="M 3513 2113 
L 3513 0 
L 2938 0 
L 2938 2094 
Q 2938 2591 2744 2837 
Q 2550 3084 2163 3084 
Q 1697 3084 1428 2787 
Q 1159 2491 1159 1978 
L 1159 0 
L 581 0 
L 581 4863 
L 1159 4863 
L 1159 2956 
Q 1366 3272 1645 3428 
Q 1925 3584 2291 3584 
Q 2894 3584 3203 3211 
Q 3513 2838 3513 2113 
z
" transform="scale(0.015625)"/>
       <path id="DejaVuSans-6f" d="M 1959 3097 
Q 1497 3097 1228 2736 
Q 959 2375 959 1747 
Q 959 1119 1226 758 
Q 1494 397 1959 397 
Q 2419 397 2687 759 
Q 2956 1122 2956 1747 
Q 2956 2369 2687 2733 
Q 2419 3097 1959 3097 
z
M 1959 3584 
Q 2709 3584 3137 3096 
Q 3566 2609 3566 1747 
Q 3566 888 3137 398 
Q 2709 -91 1959 -91 
Q 1206 -91 779 398 
Q 353 888 353 1747 
Q 353 2609 779 3096 
Q 1206 3584 1959 3584 
z
" transform="scale(0.015625)"/>
       <path id="DejaVuSans-75" d="M 544 1381 
L 544 3500 
L 1119 3500 
L 1119 1403 
Q 1119 906 1312 657 
Q 1506 409 1894 409 
Q 2359 409 2629 706 
Q 2900 1003 2900 1516 
L 2900 3500 
L 3475 3500 
L 3475 0 
L 2900 0 
L 2900 538 
Q 2691 219 2414 64 
Q 2138 -91 1772 -91 
Q 1169 -91 856 284 
Q 544 659 544 1381 
z
M 1991 3584 
L 1991 3584 
z
" transform="scale(0.015625)"/>
       <path id="DejaVuSans-6c" d="M 603 4863 
L 1178 4863 
L 1178 0 
L 603 0 
L 603 4863 
z
" transform="scale(0.015625)"/>
       <path id="DejaVuSans-64" d="M 2906 2969 
L 2906 4863 
L 3481 4863 
L 3481 0 
L 2906 0 
L 2906 525 
Q 2725 213 2448 61 
Q 2172 -91 1784 -91 
Q 1150 -91 751 415 
Q 353 922 353 1747 
Q 353 2572 751 3078 
Q 1150 3584 1784 3584 
Q 2172 3584 2448 3432 
Q 2725 3281 2906 2969 
z
M 947 1747 
Q 947 1113 1208 752 
Q 1469 391 1925 391 
Q 2381 391 2643 752 
Q 2906 1113 2906 1747 
Q 2906 2381 2643 2742 
Q 2381 3103 1925 3103 
Q 1469 3103 1208 2742 
Q 947 2381 947 1747 
z
" transform="scale(0.015625)"/>
       <path id="DejaVuSans-62" d="M 3116 1747 
Q 3116 2381 2855 2742 
Q 2594 3103 2138 3103 
Q 1681 3103 1420 2742 
Q 1159 2381 1159 1747 
Q 1159 1113 1420 752 
Q 1681 391 2138 391 
Q 2594 391 2855 752 
Q 3116 1113 3116 1747 
z
M 1159 2969 
Q 1341 3281 1617 3432 
Q 1894 3584 2278 3584 
Q 2916 3584 3314 3078 
Q 3713 2572 3713 1747 
Q 3713 922 3314 415 
Q 2916 -91 2278 -91 
Q 1894 -91 1617 61 
Q 1341 213 1159 525 
L 1159 0 
L 581 0 
L 581 4863 
L 1159 4863 
L 1159 2969 
z
" transform="scale(0.015625)"/>
       <path id="DejaVuSans-65" d="M 3597 1894 
L 3597 1613 
L 953 1613 
Q 991 1019 1311 708 
Q 1631 397 2203 397 
Q 2534 397 2845 478 
Q 3156 559 3463 722 
L 3463 178 
Q 3153 47 2828 -22 
Q 2503 -91 2169 -91 
Q 1331 -91 842 396 
Q 353 884 353 1716 
Q 353 2575 817 3079 
Q 1281 3584 2069 3584 
Q 2775 3584 3186 3129 
Q 3597 2675 3597 1894 
z
M 3022 2063 
Q 3016 2534 2758 2815 
Q 2500 3097 2075 3097 
Q 1594 3097 1305 2825 
Q 1016 2553 972 2059 
L 3022 2063 
z
" transform="scale(0.015625)"/>
       <path id="DejaVuSans-46" d="M 628 4666 
L 3309 4666 
L 3309 4134 
L 1259 4134 
L 1259 2759 
L 3109 2759 
L 3109 2228 
L 1259 2228 
L 1259 0 
L 628 0 
L 628 4666 
z
" transform="scale(0.015625)"/>
       <path id="DejaVuSans-72" d="M 2631 2963 
Q 2534 3019 2420 3045 
Q 2306 3072 2169 3072 
Q 1681 3072 1420 2755 
Q 1159 2438 1159 1844 
L 1159 0 
L 581 0 
L 581 3500 
L 1159 3500 
L 1159 2956 
Q 1341 3275 1631 3429 
Q 1922 3584 2338 3584 
Q 2397 3584 2469 3576 
Q 2541 3569 2628 3553 
L 2631 2963 
z
" transform="scale(0.015625)"/>
       <path id="DejaVuSans-7a" d="M 353 3500 
L 3084 3500 
L 3084 2975 
L 922 459 
L 3084 459 
L 3084 0 
L 275 0 
L 275 525 
L 2438 3041 
L 353 3041 
L 353 3500 
z
" transform="scale(0.015625)"/>
       <path id="DejaVuSans-6e" d="M 3513 2113 
L 3513 0 
L 2938 0 
L 2938 2094 
Q 2938 2591 2744 2837 
Q 2550 3084 2163 3084 
Q 1697 3084 1428 2787 
Q 1159 2491 1159 1978 
L 1159 0 
L 581 0 
L 581 3500 
L 1159 3500 
L 1159 2956 
Q 1366 3272 1645 3428 
Q 1925 3584 2291 3584 
Q 2894 3584 3203 3211 
Q 3513 2838 3513 2113 
z
" transform="scale(0.015625)"/>
       <path id="DejaVuSans-61" d="M 2194 1759 
Q 1497 1759 1228 1600 
Q 959 1441 959 1056 
Q 959 750 1161 570 
Q 1363 391 1709 391 
Q 2188 391 2477 730 
Q 2766 1069 2766 1631 
L 2766 1759 
L 2194 1759 
z
M 3341 1997 
L 3341 0 
L 2766 0 
L 2766 531 
Q 2569 213 2275 61 
Q 1981 -91 1556 -91 
Q 1019 -91 701 211 
Q 384 513 384 1019 
Q 384 1609 779 1909 
Q 1175 2209 1959 2209 
L 2766 2209 
L 2766 2266 
Q 2766 2663 2505 2880 
Q 2244 3097 1772 3097 
Q 1472 3097 1187 3025 
Q 903 2953 641 2809 
L 641 3341 
Q 956 3463 1253 3523 
Q 1550 3584 1831 3584 
Q 2591 3584 2966 3190 
Q 3341 2797 3341 1997 
z
" transform="scale(0.015625)"/>
       <path id="DejaVuSans-63" d="M 3122 3366 
L 3122 2828 
Q 2878 2963 2633 3030 
Q 2388 3097 2138 3097 
Q 1578 3097 1268 2742 
Q 959 2388 959 1747 
Q 959 1106 1268 751 
Q 1578 397 2138 397 
Q 2388 397 2633 464 
Q 2878 531 3122 666 
L 3122 134 
Q 2881 22 2623 -34 
Q 2366 -91 2075 -91 
Q 1284 -91 818 406 
Q 353 903 353 1747 
Q 353 2603 823 3093 
Q 1294 3584 2113 3584 
Q 2378 3584 2631 3529 
Q 2884 3475 3122 3366 
z
" transform="scale(0.015625)"/>
       <path id="DejaVuSans-74" d="M 1172 4494 
L 1172 3500 
L 2356 3500 
L 2356 3053 
L 1172 3053 
L 1172 1153 
Q 1172 725 1289 603 
Q 1406 481 1766 481 
L 2356 481 
L 2356 0 
L 1766 0 
Q 1100 0 847 248 
Q 594 497 594 1153 
L 594 3053 
L 172 3053 
L 172 3500 
L 594 3500 
L 594 4494 
L 1172 4494 
z
" transform="scale(0.015625)"/>
       <path id="DejaVuSans-69" d="M 603 3500 
L 1178 3500 
L 1178 0 
L 603 0 
L 603 3500 
z
M 603 4863 
L 1178 4863 
L 1178 4134 
L 603 4134 
L 603 4863 
z
" transform="scale(0.015625)"/>
       <path id="DejaVuSans-29" d="M 513 4856 
L 1013 4856 
Q 1481 4119 1714 3412 
Q 1947 2706 1947 2009 
Q 1947 1309 1714 600 
Q 1481 -109 1013 -844 
L 513 -844 
Q 928 -128 1133 580 
Q 1338 1288 1338 2009 
Q 1338 2731 1133 3434 
Q 928 4138 513 4856 
z
" transform="scale(0.015625)"/>
      </defs>
      <use xlink:href="#DejaVuSans-54"/>
      <use xlink:href="#DejaVuSans-4f" x="61.083984"/>
      <use xlink:href="#DejaVuSans-44" x="139.794922"/>
      <use xlink:href="#DejaVuSans-4f" x="216.796875"/>
      <use xlink:href="#DejaVuSans-20" x="295.507812"/>
      <use xlink:href="#DejaVuSans-23" x="327.294922"/>
      <use xlink:href="#DejaVuSans-38" x="411.083984"/>
      <use xlink:href="#DejaVuSans-33" x="474.707031"/>
      <use xlink:href="#DejaVuSans-32" x="538.330078"/>
      <use xlink:href="#DejaVuSans-20" x="601.953125"/>
      <use xlink:href="#DejaVuSans-28" x="633.740234"/>
      <use xlink:href="#DejaVuSans-73" x="672.753906"/>
      <use xlink:href="#DejaVuSans-68" x="724.853516"/>
      <use xlink:href="#DejaVuSans-6f" x="788.232422"/>
      <use xlink:href="#DejaVuSans-75" x="849.414062"/>
      <use xlink:href="#DejaVuSans-6c" x="912.792969"/>
      <use xlink:href="#DejaVuSans-64" x="940.576172"/>
      <use xlink:href="#DejaVuSans-20" x="1004.052734"/>
      <use xlink:href="#DejaVuSans-62" x="1035.839844"/>
      <use xlink:href="#DejaVuSans-65" x="1099.316406"/>
      <use xlink:href="#DejaVuSans-20" x="1160.839844"/>
      <use xlink:href="#DejaVuSans-46" x="1192.626953"/>
      <use xlink:href="#DejaVuSans-72" x="1242.896484"/>
      <use xlink:href="#DejaVuSans-6f" x="1281.759766"/>
      <use xlink:href="#DejaVuSans-7a" x="1342.941406"/>
      <use xlink:href="#DejaVuSans-65" x="1395.431641"/>
      <use xlink:href="#DejaVuSans-6e" x="1456.955078"/>
      <use xlink:href="#DejaVuSans-20" x="1520.333984"/>
      <use xlink:href="#DejaVuSans-46" x="1552.121094"/>
      <use xlink:href="#DejaVuSans-72" x="1602.390625"/>
      <use xlink:href="#DejaVuSans-61" x="1643.503906"/>
      <use xlink:href="#DejaVuSans-63" x="1704.783203"/>
      <use xlink:href="#DejaVuSans-74" x="1759.763672"/>
      <use xlink:href="#DejaVuSans-69" x="1798.972656"/>
      <use xlink:href="#DejaVuSans-6f" x="1826.755859"/>
      <use xlink:href="#DejaVuSans-6e" x="1887.9375"/>
      <use xlink:href="#DejaVuSans-29" x="1951.316406"/>
     </g>
    </g>
    <g id="text_11">
     <!-- 1e−14 -->
     <g transform="translate(303.925 311.676562) scale(0.1 -0.1)">
      <defs>
       <path id="DejaVuSans-2212" d="M 678 2272 
L 4684 2272 
L 4684 1741 
L 678 1741 
L 678 2272 
z
" transform="scale(0.015625)"/>
      </defs>
      <use xlink:href="#DejaVuSans-31"/>
      <use xlink:href="#DejaVuSans-65" x="63.623047"/>
      <use xlink:href="#DejaVuSans-2212" x="125.146484"/>
      <use xlink:href="#DejaVuSans-31" x="208.935547"/>
      <use xlink:href="#DejaVuSans-34" x="272.558594"/>
     </g>
    </g>
   </g>
   <g id="matplotlib.axis_2">
    <g id="ytick_1">
     <g id="line2d_19">
      <path d="M 58.545313 16.833662 
L 337.545313 16.833662 
" clip-path="url(#pd38139040e)" style="fill: none; stroke: #b0b0b0; stroke-width: 0.8; stroke-linecap: square"/>
     </g>
     <g id="line2d_20">
      <defs>
       <path id="m088e3de32c" d="M 0 0 
L -3.5 0 
" style="stroke: #000000; stroke-width: 0.8"/>
      </defs>
      <g>
       <use xlink:href="#m088e3de32c" x="58.545313" y="16.833662" style="stroke: #000000; stroke-width: 0.8"/>
      </g>
     </g>
     <g id="text_12">
      <!-- −21.5 -->
      <g transform="translate(20.9 20.632881) scale(0.1 -0.1)">
       <defs>
        <path id="DejaVuSans-35" d="M 691 4666 
L 3169 4666 
L 3169 4134 
L 1269 4134 
L 1269 2991 
Q 1406 3038 1543 3061 
Q 1681 3084 1819 3084 
Q 2600 3084 3056 2656 
Q 3513 2228 3513 1497 
Q 3513 744 3044 326 
Q 2575 -91 1722 -91 
Q 1428 -91 1123 -41 
Q 819 9 494 109 
L 494 744 
Q 775 591 1075 516 
Q 1375 441 1709 441 
Q 2250 441 2565 725 
Q 2881 1009 2881 1497 
Q 2881 1984 2565 2268 
Q 2250 2553 1709 2553 
Q 1456 2553 1204 2497 
Q 953 2441 691 2322 
L 691 4666 
z
" transform="scale(0.015625)"/>
       </defs>
       <use xlink:href="#DejaVuSans-2212"/>
       <use xlink:href="#DejaVuSans-32" x="83.789062"/>
       <use xlink:href="#DejaVuSans-31" x="147.412109"/>
       <use xlink:href="#DejaVuSans-2e" x="211.035156"/>
       <use xlink:href="#DejaVuSans-35" x="242.822266"/>
      </g>
     </g>
    </g>
    <g id="ytick_2">
     <g id="line2d_21">
      <path d="M 58.545313 67.82693 
L 337.545313 67.82693 
" clip-path="url(#pd38139040e)" style="fill: none; stroke: #b0b0b0; stroke-width: 0.8; stroke-linecap: square"/>
     </g>
     <g id="line2d_22">
      <g>
       <use xlink:href="#m088e3de32c" x="58.545313" y="67.82693" style="stroke: #000000; stroke-width: 0.8"/>
      </g>
     </g>
     <g id="text_13">
      <!-- −21.0 -->
      <g transform="translate(20.9 71.626148) scale(0.1 -0.1)">
       <use xlink:href="#DejaVuSans-2212"/>
       <use xlink:href="#DejaVuSans-32" x="83.789062"/>
       <use xlink:href="#DejaVuSans-31" x="147.412109"/>
       <use xlink:href="#DejaVuSans-2e" x="211.035156"/>
       <use xlink:href="#DejaVuSans-30" x="242.822266"/>
      </g>
     </g>
    </g>
    <g id="ytick_3">
     <g id="line2d_23">
      <path d="M 58.545313 118.820197 
L 337.545313 118.820197 
" clip-path="url(#pd38139040e)" style="fill: none; stroke: #b0b0b0; stroke-width: 0.8; stroke-linecap: square"/>
     </g>
     <g id="line2d_24">
      <g>
       <use xlink:href="#m088e3de32c" x="58.545313" y="118.820197" style="stroke: #000000; stroke-width: 0.8"/>
      </g>
     </g>
     <g id="text_14">
      <!-- −20.5 -->
      <g transform="translate(20.9 122.619416) scale(0.1 -0.1)">
       <use xlink:href="#DejaVuSans-2212"/>
       <use xlink:href="#DejaVuSans-32" x="83.789062"/>
       <use xlink:href="#DejaVuSans-30" x="147.412109"/>
       <use xlink:href="#DejaVuSans-2e" x="211.035156"/>
       <use xlink:href="#DejaVuSans-35" x="242.822266"/>
      </g>
     </g>
    </g>
    <g id="ytick_4">
     <g id="line2d_25">
      <path d="M 58.545313 169.813465 
L 337.545313 169.813465 
" clip-path="url(#pd38139040e)" style="fill: none; stroke: #b0b0b0; stroke-width: 0.8; stroke-linecap: square"/>
     </g>
     <g id="line2d_26">
      <g>
       <use xlink:href="#m088e3de32c" x="58.545313" y="169.813465" style="stroke: #000000; stroke-width: 0.8"/>
      </g>
     </g>
     <g id="text_15">
      <!-- −20.0 -->
      <g transform="translate(20.9 173.612684) scale(0.1 -0.1)">
       <use xlink:href="#DejaVuSans-2212"/>
       <use xlink:href="#DejaVuSans-32" x="83.789062"/>
       <use xlink:href="#DejaVuSans-30" x="147.412109"/>
       <use xlink:href="#DejaVuSans-2e" x="211.035156"/>
       <use xlink:href="#DejaVuSans-30" x="242.822266"/>
      </g>
     </g>
    </g>
    <g id="ytick_5">
     <g id="line2d_27">
      <path d="M 58.545313 220.806732 
L 337.545313 220.806732 
" clip-path="url(#pd38139040e)" style="fill: none; stroke: #b0b0b0; stroke-width: 0.8; stroke-linecap: square"/>
     </g>
     <g id="line2d_28">
      <g>
       <use xlink:href="#m088e3de32c" x="58.545313" y="220.806732" style="stroke: #000000; stroke-width: 0.8"/>
      </g>
     </g>
     <g id="text_16">
      <!-- −19.5 -->
      <g transform="translate(20.9 224.605951) scale(0.1 -0.1)">
       <defs>
        <path id="DejaVuSans-39" d="M 703 97 
L 703 672 
Q 941 559 1184 500 
Q 1428 441 1663 441 
Q 2288 441 2617 861 
Q 2947 1281 2994 2138 
Q 2813 1869 2534 1725 
Q 2256 1581 1919 1581 
Q 1219 1581 811 2004 
Q 403 2428 403 3163 
Q 403 3881 828 4315 
Q 1253 4750 1959 4750 
Q 2769 4750 3195 4129 
Q 3622 3509 3622 2328 
Q 3622 1225 3098 567 
Q 2575 -91 1691 -91 
Q 1453 -91 1209 -44 
Q 966 3 703 97 
z
M 1959 2075 
Q 2384 2075 2632 2365 
Q 2881 2656 2881 3163 
Q 2881 3666 2632 3958 
Q 2384 4250 1959 4250 
Q 1534 4250 1286 3958 
Q 1038 3666 1038 3163 
Q 1038 2656 1286 2365 
Q 1534 2075 1959 2075 
z
" transform="scale(0.015625)"/>
       </defs>
       <use xlink:href="#DejaVuSans-2212"/>
       <use xlink:href="#DejaVuSans-31" x="83.789062"/>
       <use xlink:href="#DejaVuSans-39" x="147.412109"/>
       <use xlink:href="#DejaVuSans-2e" x="211.035156"/>
       <use xlink:href="#DejaVuSans-35" x="242.822266"/>
      </g>
     </g>
    </g>
    <g id="ytick_6">
     <g id="line2d_29">
      <path d="M 58.545313 271.8 
L 337.545313 271.8 
" clip-path="url(#pd38139040e)" style="fill: none; stroke: #b0b0b0; stroke-width: 0.8; stroke-linecap: square"/>
     </g>
     <g id="line2d_30">
      <g>
       <use xlink:href="#m088e3de32c" x="58.545313" y="271.8" style="stroke: #000000; stroke-width: 0.8"/>
      </g>
     </g>
     <g id="text_17">
      <!-- −19.0 -->
      <g transform="translate(20.9 275.599219) scale(0.1 -0.1)">
       <use xlink:href="#DejaVuSans-2212"/>
       <use xlink:href="#DejaVuSans-31" x="83.789062"/>
       <use xlink:href="#DejaVuSans-39" x="147.412109"/>
       <use xlink:href="#DejaVuSans-2e" x="211.035156"/>
       <use xlink:href="#DejaVuSans-30" x="242.822266"/>
      </g>
     </g>
    </g>
    <g id="text_18">
     <!-- Temperature [$^\circ$C] -->
     <g transform="translate(14.8 191.2) rotate(-90) scale(0.1 -0.1)">
      <defs>
       <path id="DejaVuSans-6d" d="M 3328 2828 
Q 3544 3216 3844 3400 
Q 4144 3584 4550 3584 
Q 5097 3584 5394 3201 
Q 5691 2819 5691 2113 
L 5691 0 
L 5113 0 
L 5113 2094 
Q 5113 2597 4934 2840 
Q 4756 3084 4391 3084 
Q 3944 3084 3684 2787 
Q 3425 2491 3425 1978 
L 3425 0 
L 2847 0 
L 2847 2094 
Q 2847 2600 2669 2842 
Q 2491 3084 2119 3084 
Q 1678 3084 1418 2786 
Q 1159 2488 1159 1978 
L 1159 0 
L 581 0 
L 581 3500 
L 1159 3500 
L 1159 2956 
Q 1356 3278 1631 3431 
Q 1906 3584 2284 3584 
Q 2666 3584 2933 3390 
Q 3200 3197 3328 2828 
z
" transform="scale(0.015625)"/>
       <path id="DejaVuSans-70" d="M 1159 525 
L 1159 -1331 
L 581 -1331 
L 581 3500 
L 1159 3500 
L 1159 2969 
Q 1341 3281 1617 3432 
Q 1894 3584 2278 3584 
Q 2916 3584 3314 3078 
Q 3713 2572 3713 1747 
Q 3713 922 3314 415 
Q 2916 -91 2278 -91 
Q 1894 -91 1617 61 
Q 1341 213 1159 525 
z
M 3116 1747 
Q 3116 2381 2855 2742 
Q 2594 3103 2138 3103 
Q 1681 3103 1420 2742 
Q 1159 2381 1159 1747 
Q 1159 1113 1420 752 
Q 1681 391 2138 391 
Q 2594 391 2855 752 
Q 3116 1113 3116 1747 
z
" transform="scale(0.015625)"/>
       <path id="DejaVuSans-5b" d="M 550 4863 
L 1875 4863 
L 1875 4416 
L 1125 4416 
L 1125 -397 
L 1875 -397 
L 1875 -844 
L 550 -844 
L 550 4863 
z
" transform="scale(0.015625)"/>
       <path id="DejaVuSans-2218" d="M 2000 2619 
Q 1750 2619 1578 2445 
Q 1406 2272 1406 2022 
Q 1406 1775 1578 1605 
Q 1750 1435 2000 1435 
Q 2250 1435 2422 1605 
Q 2594 1775 2594 2022 
Q 2594 2269 2420 2444 
Q 2247 2619 2000 2619 
z
M 2000 3022 
Q 2200 3022 2384 2945 
Q 2569 2869 2703 2725 
Q 2847 2585 2919 2406 
Q 2991 2228 2991 2022 
Q 2991 1610 2702 1324 
Q 2413 1038 1994 1038 
Q 1572 1038 1290 1319 
Q 1009 1600 1009 2022 
Q 1009 2441 1296 2731 
Q 1584 3022 2000 3022 
z
" transform="scale(0.015625)"/>
       <path id="DejaVuSans-43" d="M 4122 4306 
L 4122 3641 
Q 3803 3938 3442 4084 
Q 3081 4231 2675 4231 
Q 1875 4231 1450 3742 
Q 1025 3253 1025 2328 
Q 1025 1406 1450 917 
Q 1875 428 2675 428 
Q 3081 428 3442 575 
Q 3803 722 4122 1019 
L 4122 359 
Q 3791 134 3420 21 
Q 3050 -91 2638 -91 
Q 1578 -91 968 557 
Q 359 1206 359 2328 
Q 359 3453 968 4101 
Q 1578 4750 2638 4750 
Q 3056 4750 3426 4639 
Q 3797 4528 4122 4306 
z
" transform="scale(0.015625)"/>
       <path id="DejaVuSans-5d" d="M 1947 4863 
L 1947 -844 
L 622 -844 
L 622 -397 
L 1369 -397 
L 1369 4416 
L 622 4416 
L 622 4863 
L 1947 4863 
z
" transform="scale(0.015625)"/>
      </defs>
      <use xlink:href="#DejaVuSans-54" transform="translate(0 0.015625)"/>
      <use xlink:href="#DejaVuSans-65" transform="translate(61.083984 0.015625)"/>
      <use xlink:href="#DejaVuSans-6d" transform="translate(122.607422 0.015625)"/>
      <use xlink:href="#DejaVuSans-70" transform="translate(220.019531 0.015625)"/>
      <use xlink:href="#DejaVuSans-65" transform="translate(283.496094 0.015625)"/>
      <use xlink:href="#DejaVuSans-72" transform="translate(345.019531 0.015625)"/>
      <use xlink:href="#DejaVuSans-61" transform="translate(386.132812 0.015625)"/>
      <use xlink:href="#DejaVuSans-74" transform="translate(447.412109 0.015625)"/>
      <use xlink:href="#DejaVuSans-75" transform="translate(486.621094 0.015625)"/>
      <use xlink:href="#DejaVuSans-72" transform="translate(550 0.015625)"/>
      <use xlink:href="#DejaVuSans-65" transform="translate(591.113281 0.015625)"/>
      <use xlink:href="#DejaVuSans-20" transform="translate(652.636719 0.015625)"/>
      <use xlink:href="#DejaVuSans-5b" transform="translate(684.423828 0.015625)"/>
      <use xlink:href="#DejaVuSans-2218" transform="translate(738.032227 38.296875) scale(0.7)"/>
      <use xlink:href="#DejaVuSans-43" transform="translate(798.222656 0.015625)"/>
      <use xlink:href="#DejaVuSans-5d" transform="translate(868.046875 0.015625)"/>
     </g>
    </g>
   </g>
   <g id="line2d_31">
    <path d="M 71.227131 271.8 
L 71.227131 226.628487 
L 83.188449 226.469606 
L 83.019854 111.754257 
L 132.018689 111.588608 
L 131.97423 105.622919 
L 182.722462 105.457141 
L 181.735952 32.687823 
L 252.342478 32.520573 
L 252.169307 24.656134 
L 324.863494 24.488727 
L 324.718974 19.8 
L 324.718974 19.8 
" clip-path="url(#pd38139040e)" style="fill: none; stroke: #1f77b4; stroke-width: 1.5; stroke-linecap: square"/>
   </g>
   <g id="patch_3">
    <path d="M 58.545313 284.4 
L 58.545313 7.2 
" style="fill: none; stroke: #000000; stroke-width: 0.8; stroke-linejoin: miter; stroke-linecap: square"/>
   </g>
   <g id="patch_4">
    <path d="M 337.545313 284.4 
L 337.545313 7.2 
" style="fill: none; stroke: #000000; stroke-width: 0.8; stroke-linejoin: miter; stroke-linecap: square"/>
   </g>
   <g id="patch_5">
    <path d="M 58.545312 284.4 
L 337.545313 284.4 
" style="fill: none; stroke: #000000; stroke-width: 0.8; stroke-linejoin: miter; stroke-linecap: square"/>
   </g>
   <g id="patch_6">
    <path d="M 58.545312 7.2 
L 337.545313 7.2 
" style="fill: none; stroke: #000000; stroke-width: 0.8; stroke-linejoin: miter; stroke-linecap: square"/>
   </g>
  </g>
  <g id="axes_2">
   <g id="patch_7">
    <path d="M 393.345312 284.4 
L 672.345312 284.4 
L 672.345312 7.2 
L 393.345312 7.2 
z
" style="fill: #ffffff"/>
   </g>
   <g id="matplotlib.axis_3">
    <g id="xtick_10">
     <g id="line2d_32">
      <path d="M 406.027131 284.4 
L 406.027131 7.2 
" clip-path="url(#p0057fe8831)" style="fill: none; stroke: #b0b0b0; stroke-width: 0.8; stroke-linecap: square"/>
     </g>
     <g id="line2d_33">
      <g>
       <use xlink:href="#m70766832b0" x="406.027131" y="284.4" style="stroke: #000000; stroke-width: 0.8"/>
      </g>
     </g>
     <g id="text_19">
      <!-- 0.0 -->
      <g transform="translate(398.075568 298.998438) scale(0.1 -0.1)">
       <use xlink:href="#DejaVuSans-30"/>
       <use xlink:href="#DejaVuSans-2e" x="63.623047"/>
       <use xlink:href="#DejaVuSans-30" x="95.410156"/>
      </g>
     </g>
    </g>
    <g id="xtick_11">
     <g id="line2d_34">
      <path d="M 440.733181 284.4 
L 440.733181 7.2 
" clip-path="url(#p0057fe8831)" style="fill: none; stroke: #b0b0b0; stroke-width: 0.8; stroke-linecap: square"/>
     </g>
     <g id="line2d_35">
      <g>
       <use xlink:href="#m70766832b0" x="440.733181" y="284.4" style="stroke: #000000; stroke-width: 0.8"/>
      </g>
     </g>
     <g id="text_20">
      <!-- 0.2 -->
      <g transform="translate(432.781618 298.998438) scale(0.1 -0.1)">
       <use xlink:href="#DejaVuSans-30"/>
       <use xlink:href="#DejaVuSans-2e" x="63.623047"/>
       <use xlink:href="#DejaVuSans-32" x="95.410156"/>
      </g>
     </g>
    </g>
    <g id="xtick_12">
     <g id="line2d_36">
      <path d="M 475.439231 284.4 
L 475.439231 7.2 
" clip-path="url(#p0057fe8831)" style="fill: none; stroke: #b0b0b0; stroke-width: 0.8; stroke-linecap: square"/>
     </g>
     <g id="line2d_37">
      <g>
       <use xlink:href="#m70766832b0" x="475.439231" y="284.4" style="stroke: #000000; stroke-width: 0.8"/>
      </g>
     </g>
     <g id="text_21">
      <!-- 0.4 -->
      <g transform="translate(467.487669 298.998438) scale(0.1 -0.1)">
       <use xlink:href="#DejaVuSans-30"/>
       <use xlink:href="#DejaVuSans-2e" x="63.623047"/>
       <use xlink:href="#DejaVuSans-34" x="95.410156"/>
      </g>
     </g>
    </g>
    <g id="xtick_13">
     <g id="line2d_38">
      <path d="M 510.145282 284.4 
L 510.145282 7.2 
" clip-path="url(#p0057fe8831)" style="fill: none; stroke: #b0b0b0; stroke-width: 0.8; stroke-linecap: square"/>
     </g>
     <g id="line2d_39">
      <g>
       <use xlink:href="#m70766832b0" x="510.145282" y="284.4" style="stroke: #000000; stroke-width: 0.8"/>
      </g>
     </g>
     <g id="text_22">
      <!-- 0.6 -->
      <g transform="translate(502.193719 298.998438) scale(0.1 -0.1)">
       <use xlink:href="#DejaVuSans-30"/>
       <use xlink:href="#DejaVuSans-2e" x="63.623047"/>
       <use xlink:href="#DejaVuSans-36" x="95.410156"/>
      </g>
     </g>
    </g>
    <g id="xtick_14">
     <g id="line2d_40">
      <path d="M 544.851332 284.4 
L 544.851332 7.2 
" clip-path="url(#p0057fe8831)" style="fill: none; stroke: #b0b0b0; stroke-width: 0.8; stroke-linecap: square"/>
     </g>
     <g id="line2d_41">
      <g>
       <use xlink:href="#m70766832b0" x="544.851332" y="284.4" style="stroke: #000000; stroke-width: 0.8"/>
      </g>
     </g>
     <g id="text_23">
      <!-- 0.8 -->
      <g transform="translate(536.899769 298.998438) scale(0.1 -0.1)">
       <use xlink:href="#DejaVuSans-30"/>
       <use xlink:href="#DejaVuSans-2e" x="63.623047"/>
       <use xlink:href="#DejaVuSans-38" x="95.410156"/>
      </g>
     </g>
    </g>
    <g id="xtick_15">
     <g id="line2d_42">
      <path d="M 579.557382 284.4 
L 579.557382 7.2 
" clip-path="url(#p0057fe8831)" style="fill: none; stroke: #b0b0b0; stroke-width: 0.8; stroke-linecap: square"/>
     </g>
     <g id="line2d_43">
      <g>
       <use xlink:href="#m70766832b0" x="579.557382" y="284.4" style="stroke: #000000; stroke-width: 0.8"/>
      </g>
     </g>
     <g id="text_24">
      <!-- 1.0 -->
      <g transform="translate(571.60582 298.998438) scale(0.1 -0.1)">
       <use xlink:href="#DejaVuSans-31"/>
       <use xlink:href="#DejaVuSans-2e" x="63.623047"/>
       <use xlink:href="#DejaVuSans-30" x="95.410156"/>
      </g>
     </g>
    </g>
    <g id="xtick_16">
     <g id="line2d_44">
      <path d="M 614.263432 284.4 
L 614.263432 7.2 
" clip-path="url(#p0057fe8831)" style="fill: none; stroke: #b0b0b0; stroke-width: 0.8; stroke-linecap: square"/>
     </g>
     <g id="line2d_45">
      <g>
       <use xlink:href="#m70766832b0" x="614.263432" y="284.4" style="stroke: #000000; stroke-width: 0.8"/>
      </g>
     </g>
     <g id="text_25">
      <!-- 1.2 -->
      <g transform="translate(606.31187 298.998438) scale(0.1 -0.1)">
       <use xlink:href="#DejaVuSans-31"/>
       <use xlink:href="#DejaVuSans-2e" x="63.623047"/>
       <use xlink:href="#DejaVuSans-32" x="95.410156"/>
      </g>
     </g>
    </g>
    <g id="xtick_17">
     <g id="line2d_46">
      <path d="M 648.969483 284.4 
L 648.969483 7.2 
" clip-path="url(#p0057fe8831)" style="fill: none; stroke: #b0b0b0; stroke-width: 0.8; stroke-linecap: square"/>
     </g>
     <g id="line2d_47">
      <g>
       <use xlink:href="#m70766832b0" x="648.969483" y="284.4" style="stroke: #000000; stroke-width: 0.8"/>
      </g>
     </g>
     <g id="text_26">
      <!-- 1.4 -->
      <g transform="translate(641.01792 298.998438) scale(0.1 -0.1)">
       <use xlink:href="#DejaVuSans-31"/>
       <use xlink:href="#DejaVuSans-2e" x="63.623047"/>
       <use xlink:href="#DejaVuSans-34" x="95.410156"/>
      </g>
     </g>
    </g>
    <g id="text_27">
     <!-- TODO #832 (should be Frozen Fraction) -->
     <g transform="translate(433.328906 312.676562) scale(0.1 -0.1)">
      <use xlink:href="#DejaVuSans-54"/>
      <use xlink:href="#DejaVuSans-4f" x="61.083984"/>
      <use xlink:href="#DejaVuSans-44" x="139.794922"/>
      <use xlink:href="#DejaVuSans-4f" x="216.796875"/>
      <use xlink:href="#DejaVuSans-20" x="295.507812"/>
      <use xlink:href="#DejaVuSans-23" x="327.294922"/>
      <use xlink:href="#DejaVuSans-38" x="411.083984"/>
      <use xlink:href="#DejaVuSans-33" x="474.707031"/>
      <use xlink:href="#DejaVuSans-32" x="538.330078"/>
      <use xlink:href="#DejaVuSans-20" x="601.953125"/>
      <use xlink:href="#DejaVuSans-28" x="633.740234"/>
      <use xlink:href="#DejaVuSans-73" x="672.753906"/>
      <use xlink:href="#DejaVuSans-68" x="724.853516"/>
      <use xlink:href="#DejaVuSans-6f" x="788.232422"/>
      <use xlink:href="#DejaVuSans-75" x="849.414062"/>
      <use xlink:href="#DejaVuSans-6c" x="912.792969"/>
      <use xlink:href="#DejaVuSans-64" x="940.576172"/>
      <use xlink:href="#DejaVuSans-20" x="1004.052734"/>
      <use xlink:href="#DejaVuSans-62" x="1035.839844"/>
      <use xlink:href="#DejaVuSans-65" x="1099.316406"/>
      <use xlink:href="#DejaVuSans-20" x="1160.839844"/>
      <use xlink:href="#DejaVuSans-46" x="1192.626953"/>
      <use xlink:href="#DejaVuSans-72" x="1242.896484"/>
      <use xlink:href="#DejaVuSans-6f" x="1281.759766"/>
      <use xlink:href="#DejaVuSans-7a" x="1342.941406"/>
      <use xlink:href="#DejaVuSans-65" x="1395.431641"/>
      <use xlink:href="#DejaVuSans-6e" x="1456.955078"/>
      <use xlink:href="#DejaVuSans-20" x="1520.333984"/>
      <use xlink:href="#DejaVuSans-46" x="1552.121094"/>
      <use xlink:href="#DejaVuSans-72" x="1602.390625"/>
      <use xlink:href="#DejaVuSans-61" x="1643.503906"/>
      <use xlink:href="#DejaVuSans-63" x="1704.783203"/>
      <use xlink:href="#DejaVuSans-74" x="1759.763672"/>
      <use xlink:href="#DejaVuSans-69" x="1798.972656"/>
      <use xlink:href="#DejaVuSans-6f" x="1826.755859"/>
      <use xlink:href="#DejaVuSans-6e" x="1887.9375"/>
      <use xlink:href="#DejaVuSans-29" x="1951.316406"/>
     </g>
    </g>
    <g id="text_28">
     <!-- 1e−12 -->
     <g transform="translate(638.725 311.676562) scale(0.1 -0.1)">
      <use xlink:href="#DejaVuSans-31"/>
      <use xlink:href="#DejaVuSans-65" x="63.623047"/>
      <use xlink:href="#DejaVuSans-2212" x="125.146484"/>
      <use xlink:href="#DejaVuSans-31" x="208.935547"/>
      <use xlink:href="#DejaVuSans-32" x="272.558594"/>
     </g>
    </g>
   </g>
   <g id="matplotlib.axis_4">
    <g id="ytick_7">
     <g id="line2d_48">
      <path d="M 393.345312 26.446627 
L 672.345312 26.446627 
" clip-path="url(#p0057fe8831)" style="fill: none; stroke: #b0b0b0; stroke-width: 0.8; stroke-linecap: square"/>
     </g>
     <g id="line2d_49">
      <g>
       <use xlink:href="#m088e3de32c" x="393.345312" y="26.446627" style="stroke: #000000; stroke-width: 0.8"/>
      </g>
     </g>
     <g id="text_29">
      <!-- −25.5 -->
      <g transform="translate(355.7 30.245845) scale(0.1 -0.1)">
       <use xlink:href="#DejaVuSans-2212"/>
       <use xlink:href="#DejaVuSans-32" x="83.789062"/>
       <use xlink:href="#DejaVuSans-35" x="147.412109"/>
       <use xlink:href="#DejaVuSans-2e" x="211.035156"/>
       <use xlink:href="#DejaVuSans-35" x="242.822266"/>
      </g>
     </g>
    </g>
    <g id="ytick_8">
     <g id="line2d_50">
      <path d="M 393.345312 75.517301 
L 672.345312 75.517301 
" clip-path="url(#p0057fe8831)" style="fill: none; stroke: #b0b0b0; stroke-width: 0.8; stroke-linecap: square"/>
     </g>
     <g id="line2d_51">
      <g>
       <use xlink:href="#m088e3de32c" x="393.345312" y="75.517301" style="stroke: #000000; stroke-width: 0.8"/>
      </g>
     </g>
     <g id="text_30">
      <!-- −25.0 -->
      <g transform="translate(355.7 79.31652) scale(0.1 -0.1)">
       <use xlink:href="#DejaVuSans-2212"/>
       <use xlink:href="#DejaVuSans-32" x="83.789062"/>
       <use xlink:href="#DejaVuSans-35" x="147.412109"/>
       <use xlink:href="#DejaVuSans-2e" x="211.035156"/>
       <use xlink:href="#DejaVuSans-30" x="242.822266"/>
      </g>
     </g>
    </g>
    <g id="ytick_9">
     <g id="line2d_52">
      <path d="M 393.345312 124.587976 
L 672.345312 124.587976 
" clip-path="url(#p0057fe8831)" style="fill: none; stroke: #b0b0b0; stroke-width: 0.8; stroke-linecap: square"/>
     </g>
     <g id="line2d_53">
      <g>
       <use xlink:href="#m088e3de32c" x="393.345312" y="124.587976" style="stroke: #000000; stroke-width: 0.8"/>
      </g>
     </g>
     <g id="text_31">
      <!-- −24.5 -->
      <g transform="translate(355.7 128.387195) scale(0.1 -0.1)">
       <use xlink:href="#DejaVuSans-2212"/>
       <use xlink:href="#DejaVuSans-32" x="83.789062"/>
       <use xlink:href="#DejaVuSans-34" x="147.412109"/>
       <use xlink:href="#DejaVuSans-2e" x="211.035156"/>
       <use xlink:href="#DejaVuSans-35" x="242.822266"/>
      </g>
     </g>
    </g>
    <g id="ytick_10">
     <g id="line2d_54">
      <path d="M 393.345312 173.658651 
L 672.345312 173.658651 
" clip-path="url(#p0057fe8831)" style="fill: none; stroke: #b0b0b0; stroke-width: 0.8; stroke-linecap: square"/>
     </g>
     <g id="line2d_55">
      <g>
       <use xlink:href="#m088e3de32c" x="393.345312" y="173.658651" style="stroke: #000000; stroke-width: 0.8"/>
      </g>
     </g>
     <g id="text_32">
      <!-- −24.0 -->
      <g transform="translate(355.7 177.457869) scale(0.1 -0.1)">
       <use xlink:href="#DejaVuSans-2212"/>
       <use xlink:href="#DejaVuSans-32" x="83.789062"/>
       <use xlink:href="#DejaVuSans-34" x="147.412109"/>
       <use xlink:href="#DejaVuSans-2e" x="211.035156"/>
       <use xlink:href="#DejaVuSans-30" x="242.822266"/>
      </g>
     </g>
    </g>
    <g id="ytick_11">
     <g id="line2d_56">
      <path d="M 393.345312 222.729325 
L 672.345312 222.729325 
" clip-path="url(#p0057fe8831)" style="fill: none; stroke: #b0b0b0; stroke-width: 0.8; stroke-linecap: square"/>
     </g>
     <g id="line2d_57">
      <g>
       <use xlink:href="#m088e3de32c" x="393.345312" y="222.729325" style="stroke: #000000; stroke-width: 0.8"/>
      </g>
     </g>
     <g id="text_33">
      <!-- −23.5 -->
      <g transform="translate(355.7 226.528544) scale(0.1 -0.1)">
       <use xlink:href="#DejaVuSans-2212"/>
       <use xlink:href="#DejaVuSans-32" x="83.789062"/>
       <use xlink:href="#DejaVuSans-33" x="147.412109"/>
       <use xlink:href="#DejaVuSans-2e" x="211.035156"/>
       <use xlink:href="#DejaVuSans-35" x="242.822266"/>
      </g>
     </g>
    </g>
    <g id="ytick_12">
     <g id="line2d_58">
      <path d="M 393.345312 271.8 
L 672.345312 271.8 
" clip-path="url(#p0057fe8831)" style="fill: none; stroke: #b0b0b0; stroke-width: 0.8; stroke-linecap: square"/>
     </g>
     <g id="line2d_59">
      <g>
       <use xlink:href="#m088e3de32c" x="393.345312" y="271.8" style="stroke: #000000; stroke-width: 0.8"/>
      </g>
     </g>
     <g id="text_34">
      <!-- −23.0 -->
      <g transform="translate(355.7 275.599219) scale(0.1 -0.1)">
       <use xlink:href="#DejaVuSans-2212"/>
       <use xlink:href="#DejaVuSans-32" x="83.789062"/>
       <use xlink:href="#DejaVuSans-33" x="147.412109"/>
       <use xlink:href="#DejaVuSans-2e" x="211.035156"/>
       <use xlink:href="#DejaVuSans-30" x="242.822266"/>
      </g>
     </g>
    </g>
    <g id="text_35">
     <!-- Temperature [$^\circ$C] -->
     <g transform="translate(349.6 191.2) rotate(-90) scale(0.1 -0.1)">
      <use xlink:href="#DejaVuSans-54" transform="translate(0 0.015625)"/>
      <use xlink:href="#DejaVuSans-65" transform="translate(61.083984 0.015625)"/>
      <use xlink:href="#DejaVuSans-6d" transform="translate(122.607422 0.015625)"/>
      <use xlink:href="#DejaVuSans-70" transform="translate(220.019531 0.015625)"/>
      <use xlink:href="#DejaVuSans-65" transform="translate(283.496094 0.015625)"/>
      <use xlink:href="#DejaVuSans-72" transform="translate(345.019531 0.015625)"/>
      <use xlink:href="#DejaVuSans-61" transform="translate(386.132812 0.015625)"/>
      <use xlink:href="#DejaVuSans-74" transform="translate(447.412109 0.015625)"/>
      <use xlink:href="#DejaVuSans-75" transform="translate(486.621094 0.015625)"/>
      <use xlink:href="#DejaVuSans-72" transform="translate(550 0.015625)"/>
      <use xlink:href="#DejaVuSans-65" transform="translate(591.113281 0.015625)"/>
      <use xlink:href="#DejaVuSans-20" transform="translate(652.636719 0.015625)"/>
      <use xlink:href="#DejaVuSans-5b" transform="translate(684.423828 0.015625)"/>
      <use xlink:href="#DejaVuSans-2218" transform="translate(738.032227 38.296875) scale(0.7)"/>
      <use xlink:href="#DejaVuSans-43" transform="translate(798.222656 0.015625)"/>
      <use xlink:href="#DejaVuSans-5d" transform="translate(868.046875 0.015625)"/>
     </g>
    </g>
   </g>
   <g id="line2d_60">
    <path d="M 406.027131 271.8 
L 406.103012 235.019687 
L 406.165888 234.722303 
L 406.237005 230.411695 
L 406.495414 229.777708 
L 406.585628 228.980927 
L 406.676466 228.66105 
L 406.769597 227.537115 
L 406.865686 227.214914 
L 406.965102 226.407681 
L 407.065118 226.084177 
L 407.064397 220.552176 
L 407.183422 220.225574 
L 407.183374 219.898888 
L 407.304426 219.572124 
L 407.304322 218.918378 
L 407.428396 218.591403 
L 407.42811 216.955626 
L 407.558169 216.628308 
L 407.558137 216.46463 
L 407.822233 215.973525 
L 407.821903 214.499607 
L 407.959328 214.171955 
L 407.959249 213.844264 
L 408.098619 213.516535 
L 408.098281 212.205257 
L 408.387231 211.713385 
L 408.38699 210.893435 
L 408.535044 210.565399 
L 408.534942 210.237333 
L 408.684907 209.909237 
L 408.684798 209.581111 
L 408.836726 209.417036 
L 408.836668 209.252955 
L 408.989547 209.088867 
L 409.296311 208.924771 
L 409.296244 208.760668 
L 409.450541 208.596558 
L 409.448935 204.820196 
L 409.614554 204.655931 
L 409.613236 201.69816 
L 409.962242 201.533786 
L 409.961117 199.231986 
L 410.1425 199.067533 
L 410.142416 198.903074 
L 410.324713 198.73861 
L 410.323485 196.435593 
L 410.512643 196.271055 
L 410.510903 193.143934 
L 410.709134 192.979303 
L 410.708848 192.485381 
L 410.90888 192.320732 
L 410.907784 190.509294 
L 411.5254 190.015173 
L 411.52439 188.53258 
L 411.735177 188.367826 
L 411.73506 188.203068 
L 412.158853 187.873539 
L 412.158728 187.708768 
L 412.371732 187.543993 
L 412.369272 184.412487 
L 412.591152 184.247631 
L 412.59075 183.753036 
L 413.038475 183.423287 
L 413.038189 183.093522 
L 413.263589 182.928633 
L 413.262555 181.774303 
L 413.491473 181.609383 
L 413.490407 180.454834 
L 413.722834 180.289883 
L 413.72252 179.959969 
L 413.956257 179.795007 
L 413.955934 179.46507 
L 414.19098 179.300096 
L 414.19048 178.805151 
L 414.427271 178.640162 
L 414.426756 178.145172 
L 414.665289 177.980167 
L 414.66476 177.485132 
L 414.905033 177.320112 
L 414.904489 176.825032 
L 415.38894 176.494959 
L 415.388175 175.83477 
L 415.632785 175.669713 
L 415.632393 175.339589 
L 415.8783 175.174521 
L 416.371173 175.009449 
L 416.370328 174.349127 
L 416.618822 174.184037 
L 416.617092 172.863188 
L 417.122282 172.53294 
L 417.122056 172.36781 
L 417.375722 172.202676 
L 417.372478 169.890433 
L 417.632598 169.725246 
L 417.630939 168.568838 
L 417.894486 168.403623 
L 417.894001 168.073182 
L 418.423897 167.907956 
L 418.42339 167.577494 
L 418.68949 167.412257 
L 418.688973 167.081774 
L 419.223985 166.916527 
L 419.223446 166.586023 
L 419.492094 166.420766 
L 419.490719 165.594427 
L 419.761921 165.429149 
L 419.760519 164.602707 
L 420.308443 164.272106 
L 420.30786 163.941491 
L 420.583302 163.776178 
L 420.579735 161.792161 
L 420.860688 161.626804 
L 420.860385 161.461443 
L 421.142178 161.29608 
L 421.141561 160.965342 
L 421.707984 160.799968 
L 421.707664 160.634591 
L 421.991556 160.46921 
L 421.990577 159.973048 
L 422.276153 159.807654 
L 422.271839 157.657224 
L 422.563309 157.491783 
L 422.562971 157.326338 
L 423.147997 156.995439 
L 423.147647 156.829985 
L 423.441201 156.664527 
L 423.44049 156.333602 
L 423.735298 156.168134 
L 423.734213 155.671711 
L 424.030693 155.50623 
L 424.029958 155.175258 
L 424.32769 155.009767 
L 424.326568 154.513275 
L 424.925744 154.34777 
L 424.924972 154.016752 
L 425.225616 153.851238 
L 425.220126 151.533698 
L 425.527026 151.368135 
L 425.525432 150.70585 
L 425.834408 150.540271 
L 425.834003 150.374688 
L 426.143804 150.209102 
L 426.143393 150.043513 
L 426.454019 149.877921 
L 426.453602 149.712325 
L 426.765053 149.546726 
L 426.762935 148.718684 
L 427.076871 148.553065 
L 427.074721 147.724925 
L 427.707963 147.393647 
L 427.70752 147.228003 
L 428.34322 146.896705 
L 428.340941 146.068404 
L 428.982454 145.902735 
L 428.981047 145.405706 
L 429.303215 145.240024 
L 429.302739 145.074338 
L 429.625726 144.908649 
L 429.622833 143.914448 
L 429.9487 143.748737 
L 429.946256 142.920132 
L 430.274586 142.754402 
L 430.268641 140.76539 
L 430.602304 140.599618 
L 430.598789 139.439129 
L 430.935723 139.273332 
L 430.935214 139.107532 
L 431.27296 138.941729 
L 431.272444 138.775922 
L 431.611001 138.610113 
L 432.628795 138.278485 
L 432.62662 137.615191 
L 432.96801 137.449359 
L 432.965808 136.786002 
L 434.340987 136.454305 
L 434.340408 136.288452 
L 434.685026 136.122595 
L 435.375649 135.956736 
L 435.366054 133.302559 
L 435.717972 133.136646 
L 436.423212 132.97073 
L 436.420107 132.141106 
L 436.774842 131.975171 
L 436.772329 131.311404 
L 437.129082 131.145454 
L 437.125904 130.315659 
L 437.485078 130.149691 
L 437.481863 129.319803 
L 438.567823 128.821833 
L 438.565163 128.157831 
L 439.294613 127.991823 
L 439.293933 127.825811 
L 439.659116 127.659797 
L 439.657054 127.161735 
L 440.023841 126.995708 
L 440.022452 126.663645 
L 440.390439 126.497609 
L 440.389034 126.165528 
L 440.75822 125.999483 
L 441.498092 125.833435 
L 441.495917 125.335272 
L 441.86709 125.169212 
L 441.866357 125.003148 
L 442.238326 124.837082 
L 442.236845 124.504939 
L 443.357466 124.172785 
L 443.356703 124.006703 
L 443.731048 123.840618 
L 443.721801 121.847362 
L 444.481658 121.681237 
L 444.480871 121.51511 
L 444.861198 121.348979 
L 444.860405 121.182845 
L 445.241523 121.016709 
L 445.23992 120.684426 
L 446.004929 120.352132 
L 446.003294 120.019825 
L 447.541199 119.355175 
L 447.54035 119.189005 
L 448.312444 118.856656 
L 448.309851 118.35811 
L 448.697678 118.191922 
L 448.695934 117.859536 
L 449.864228 117.527139 
L 449.862436 117.194729 
L 450.253016 117.02852 
L 450.238552 114.368761 
L 450.63587 114.2025 
L 450.634958 114.036237 
L 451.03306 113.86997 
L 451.03214 113.703701 
L 452.230097 113.371153 
L 453.02979 113.038592 
L 453.024025 112.04084 
L 454.233761 111.708232 
L 454.23179 111.375612 
L 455.040883 111.04298 
L 455.032867 109.712332 
L 455.441147 109.545988 
L 455.438116 109.046936 
L 456.258819 108.88058 
L 456.257791 108.714221 
L 456.668408 108.547858 
L 456.665302 108.048753 
L 457.077483 107.882379 
L 457.070176 106.717676 
L 457.90119 106.384877 
L 457.898008 105.885656 
L 459.988343 105.386408 
L 459.983929 104.720702 
L 460.403888 104.554269 
L 460.402776 104.387832 
L 460.823509 104.221392 
L 460.814546 102.889768 
L 461.664154 102.723301 
L 461.663016 102.556832 
L 462.088024 102.39036 
L 462.085731 102.057406 
L 462.939218 101.890925 
L 462.933399 101.058475 
L 463.79155 100.891976 
L 463.789187 100.558969 
L 464.218832 100.392461 
L 466.372845 99.89292 
L 466.371611 99.7264 
L 466.80315 99.559878 
L 466.801908 99.393352 
L 467.666905 99.060293 
L 469.402461 98.727221 
L 469.401165 98.560681 
L 469.835365 98.394137 
L 469.83145 97.89449 
L 470.267195 97.727935 
L 470.264568 97.394816 
L 472.014446 96.728543 
L 472.007698 95.895636 
L 472.448054 95.729046 
L 472.438545 94.562831 
L 472.881989 94.396217 
L 472.879254 94.062981 
L 474.214777 93.729733 
L 474.210593 93.229839 
L 474.657094 93.063201 
L 474.652883 92.563272 
L 476.448589 92.229971 
L 476.447148 92.063316 
L 476.896305 91.896659 
L 476.891957 91.396668 
L 477.342647 91.229998 
L 477.332436 90.06323 
L 477.7862 89.896537 
L 477.784732 89.729841 
L 479.150136 89.396441 
L 480.517057 88.896319 
L 480.515533 88.729605 
L 482.344882 88.062723 
L 482.34176 87.729264 
L 483.261405 87.562531 
L 483.259825 87.395794 
L 484.179781 87.062312 
L 484.178182 86.895567 
L 484.639105 86.728818 
L 484.634281 86.228556 
L 486.022744 85.728267 
L 486.021107 85.561499 
L 487.880539 85.227953 
L 488.345218 85.061175 
L 488.343534 84.894395 
L 489.740958 84.394037 
L 489.739245 84.227245 
L 490.206182 84.06045 
L 490.202737 83.726851 
L 490.670811 83.560048 
L 490.665616 83.05962 
L 493.490597 82.559166 
L 493.487019 82.225515 
L 494.430276 81.891853 
L 494.423042 81.224493 
L 495.370837 80.890796 
L 495.369009 80.723944 
L 495.843844 80.557088 
L 495.834656 79.722766 
L 496.311766 79.555892 
L 496.306224 79.055256 
L 496.784845 78.888371 
L 496.779275 78.3877 
L 497.259406 78.220803 
L 497.255673 77.887002 
L 498.218566 77.553189 
L 498.216679 77.386279 
L 499.183327 77.219365 
L 499.181421 77.052448 
L 500.149566 76.885529 
L 500.145715 76.551682 
L 500.629952 76.384754 
L 500.624145 75.883952 
L 501.109889 75.717013 
L 501.100161 74.882271 
L 501.588167 74.715314 
L 501.586212 74.548355 
L 503.053574 74.047458 
L 505.017323 73.713513 
L 505.00922 73.045587 
L 505.501305 72.878599 
L 505.499269 72.711607 
L 506.978861 72.210615 
L 506.972663 71.709598 
L 507.467727 71.542586 
L 507.463575 71.208555 
L 507.95976 71.041534 
L 507.953502 70.540457 
L 508.451183 70.373425 
L 508.442799 69.705269 
L 508.942353 69.538223 
L 510.444576 69.204123 
L 510.442439 69.037068 
L 510.943457 68.87001 
L 510.939163 68.535887 
L 513.455577 68.03468 
L 513.958788 67.867605 
L 513.949952 67.199277 
L 514.455031 67.032188 
L 515.468137 66.865096 
L 515.461417 66.363803 
L 516.477504 66.1967 
L 516.470722 65.695373 
L 518.509579 65.36114 
L 518.502672 64.85977 
L 519.012905 64.692641 
L 521.06026 64.358374 
L 521.057905 64.191236 
L 521.569583 64.024096 
L 521.567218 63.856952 
L 522.079633 63.689806 
L 524.136224 63.355505 
L 524.131389 63.021192 
L 526.708428 62.519702 
L 526.703488 62.185361 
L 528.256567 62.018186 
L 528.254065 61.851008 
L 529.287949 61.516644 
L 529.285426 61.349458 
L 529.803284 61.182269 
L 529.795684 60.680684 
L 530.836897 60.513484 
L 530.831787 60.179074 
L 531.352223 60.011865 
L 531.349658 59.844653 
L 532.9183 59.677438 
L 532.915702 59.510221 
L 533.95983 59.175777 
L 535.530617 58.841322 
L 535.520013 58.172377 
L 540.260741 57.336133 
L 540.255245 57.001615 
L 541.31261 56.834352 
L 541.309841 56.667086 
L 542.89501 56.165271 
L 542.889406 55.830713 
L 543.419258 55.66343 
L 543.402382 54.659672 
L 543.934817 54.492369 
L 543.929171 54.157755 
L 544.462706 53.990443 
L 546.070056 53.823129 
L 546.067189 53.655812 
L 547.139259 53.488492 
L 549.825561 53.321169 
L 549.822617 53.153843 
L 550.358251 52.986515 
L 550.355296 52.819184 
L 551.965458 52.317173 
L 551.96247 52.14983 
L 553.041073 51.982484 
L 553.038063 51.815136 
L 554.11812 51.647785 
L 554.115088 51.480431 
L 557.361772 50.978352 
L 557.349379 50.308874 
L 558.980843 50.141497 
L 558.977711 49.974118 
L 560.065762 49.806735 
L 560.062608 49.63935 
L 562.786573 49.137178 
L 563.330796 48.969781 
L 564.423178 48.802382 
L 564.029805 48.63498 
L 566.062304 48.467575 
L 566.052473 47.965343 
L 567.69374 47.463086 
L 568.792653 47.295661 
L 568.78932 47.128234 
L 572.092539 46.625934 
L 572.089139 46.458495 
L 572.639054 46.291054 
L 572.635643 46.123609 
L 573.186281 45.956162 
L 573.179435 45.621259 
L 573.731164 45.453803 
L 573.72773 45.286344 
L 575.947834 45.118883 
L 576.500606 44.951419 
L 576.497115 44.783952 
L 579.268134 43.946574 
L 580.937832 43.611603 
L 581.493799 43.444114 
L 581.486612 43.109126 
L 583.161709 42.774127 
L 583.158082 42.606623 
L 584.839686 42.439117 
L 584.832363 42.104095 
L 585.954383 41.93658 
L 585.947014 41.601542 
L 587.631798 41.266492 
L 588.192747 41.098963 
L 588.177825 40.428819 
L 589.307081 40.261276 
L 589.299574 39.926181 
L 590.998583 39.75863 
L 592.127263 39.423518 
L 592.123452 39.255958 
L 593.826778 39.088395 
L 596.091149 38.418116 
L 596.087257 38.250539 
L 597.222287 37.915377 
L 597.218371 37.747792 
L 597.786778 37.580204 
L 597.782851 37.412613 
L 598.351975 37.245019 
L 598.340158 36.742221 
L 599.48523 36.574616 
L 599.481268 36.407009 
L 601.203002 36.239398 
L 601.199004 36.071785 
L 601.770966 35.904169 
L 601.75493 35.233676 
L 602.328696 35.066046 
L 602.324675 34.898413 
L 603.477655 34.730777 
L 603.469566 34.395497 
L 605.773848 33.724903 
L 605.769757 33.557248 
L 607.509868 33.38959 
L 608.665491 33.054265 
L 610.40499 32.718929 
L 610.396618 32.383582 
L 610.976367 32.215904 
L 610.972169 32.048224 
L 611.552631 31.88054 
L 613.299612 31.545165 
L 614.462959 31.209779 
L 614.458689 31.042081 
L 616.210974 30.706678 
L 616.206668 30.538972 
L 617.374232 30.203553 
L 617.369903 30.035838 
L 617.95457 29.868121 
L 617.945888 29.532679 
L 619.711784 29.364954 
L 619.707406 29.197226 
L 620.29383 29.029495 
L 624.417874 28.358543 
L 625.594482 28.023051 
L 625.589984 27.8553 
L 627.366539 27.687547 
L 627.956049 27.519791 
L 629.734717 27.352032 
L 629.730134 27.18427 
L 630.320677 27.016506 
L 638.042628 25.842077 
L 638.635878 25.67429 
L 640.426199 25.506501 
L 640.421397 25.338708 
L 641.015677 25.170913 
L 641.010863 25.003115 
L 641.605848 24.835315 
L 641.601022 24.667511 
L 643.393258 24.331896 
L 643.383532 23.99627 
L 643.980623 23.828452 
L 643.961123 23.157155 
L 644.559996 22.989323 
L 646.362872 22.653653 
L 646.353024 22.31797 
L 646.95364 22.150125 
L 648.766395 21.982277 
L 648.761422 21.814426 
L 649.363062 21.646573 
L 649.358077 21.478716 
L 650.56775 21.310857 
L 650.56274 21.142995 
L 653.589661 20.639393 
L 654.193707 20.47152 
L 659.663494 19.8 
L 659.663494 19.8 
" clip-path="url(#p0057fe8831)" style="fill: none; stroke: #1f77b4; stroke-width: 1.5; stroke-linecap: square"/>
   </g>
   <g id="patch_8">
    <path d="M 393.345312 284.4 
L 393.345312 7.2 
" style="fill: none; stroke: #000000; stroke-width: 0.8; stroke-linejoin: miter; stroke-linecap: square"/>
   </g>
   <g id="patch_9">
    <path d="M 672.345312 284.4 
L 672.345312 7.2 
" style="fill: none; stroke: #000000; stroke-width: 0.8; stroke-linejoin: miter; stroke-linecap: square"/>
   </g>
   <g id="patch_10">
    <path d="M 393.345312 284.4 
L 672.345312 284.4 
" style="fill: none; stroke: #000000; stroke-width: 0.8; stroke-linejoin: miter; stroke-linecap: square"/>
   </g>
   <g id="patch_11">
    <path d="M 393.345312 7.2 
L 672.345312 7.2 
" style="fill: none; stroke: #000000; stroke-width: 0.8; stroke-linejoin: miter; stroke-linecap: square"/>
   </g>
  </g>
 </g>
 <defs>
  <clipPath id="pd38139040e">
   <rect x="58.545313" y="7.2" width="279" height="277.2"/>
  </clipPath>
  <clipPath id="p0057fe8831">
   <rect x="393.345312" y="7.2" width="279" height="277.2"/>
  </clipPath>
 </defs>
</svg>
