<?xml version="1.0" encoding="utf-8" standalone="no"?>
<!DOCTYPE svg PUBLIC "-//W3C//DTD SVG 1.1//EN"
  "http://www.w3.org/Graphics/SVG/1.1/DTD/svg11.dtd">
<svg xmlns:xlink="http://www.w3.org/1999/xlink" width="623.228125pt" height="281.634375pt" viewBox="0 0 623.228125 281.634375" xmlns="http://www.w3.org/2000/svg" version="1.1">
 <metadata>
  <rdf:RDF xmlns:dc="http://purl.org/dc/elements/1.1/" xmlns:cc="http://creativecommons.org/ns#" xmlns:rdf="http://www.w3.org/1999/02/22-rdf-syntax-ns#">
   <cc:Work>
    <dc:type rdf:resource="http://purl.org/dc/dcmitype/StillImage"/>
    <dc:date>2024-11-08T23:12:39.116385</dc:date>
    <dc:format>image/svg+xml</dc:format>
    <dc:creator>
     <cc:Agent>
      <dc:title>Matplotlib v3.9.2, https://matplotlib.org/</dc:title>
     </cc:Agent>
    </dc:creator>
   </cc:Work>
  </rdf:RDF>
 </metadata>
 <defs>
  <style type="text/css">*{stroke-linejoin: round; stroke-linecap: butt}</style>
 </defs>
 <g id="figure_1">
  <g id="patch_1">
   <path d="M 0 281.634375 
L 623.228125 281.634375 
L 623.228125 0 
L 0 0 
z
" style="fill: #ffffff"/>
  </g>
  <g id="axes_1">
   <g id="patch_2">
    <path d="M 58.028125 244.078125 
L 311.664489 244.078125 
L 311.664489 22.318125 
L 58.028125 22.318125 
z
" style="fill: #ffffff"/>
   </g>
   <g id="matplotlib.axis_1">
    <g id="xtick_1">
     <g id="line2d_1">
      <defs>
       <path id="m6f0ea1f03a" d="M 0 0 
L 0 3.5 
" style="stroke: #000000; stroke-width: 0.8"/>
      </defs>
      <g>
       <use xlink:href="#m6f0ea1f03a" x="100.385264" y="244.078125" style="stroke: #000000; stroke-width: 0.8"/>
      </g>
     </g>
     <g id="text_1">
      <!-- $\mathdefault{10^{1}}$ -->
      <g transform="translate(91.585264 258.676562) scale(0.1 -0.1)">
       <defs>
        <path id="DejaVuSans-31" d="M 794 531 
L 1825 531 
L 1825 4091 
L 703 3866 
L 703 4441 
L 1819 4666 
L 2450 4666 
L 2450 531 
L 3481 531 
L 3481 0 
L 794 0 
L 794 531 
z
" transform="scale(0.015625)"/>
        <path id="DejaVuSans-30" d="M 2034 4250 
Q 1547 4250 1301 3770 
Q 1056 3291 1056 2328 
Q 1056 1369 1301 889 
Q 1547 409 2034 409 
Q 2525 409 2770 889 
Q 3016 1369 3016 2328 
Q 3016 3291 2770 3770 
Q 2525 4250 2034 4250 
z
M 2034 4750 
Q 2819 4750 3233 4129 
Q 3647 3509 3647 2328 
Q 3647 1150 3233 529 
Q 2819 -91 2034 -91 
Q 1250 -91 836 529 
Q 422 1150 422 2328 
Q 422 3509 836 4129 
Q 1250 4750 2034 4750 
z
" transform="scale(0.015625)"/>
       </defs>
       <use xlink:href="#DejaVuSans-31" transform="translate(0 0.684375)"/>
       <use xlink:href="#DejaVuSans-30" transform="translate(63.623047 0.684375)"/>
       <use xlink:href="#DejaVuSans-31" transform="translate(128.203125 38.965625) scale(0.7)"/>
      </g>
     </g>
    </g>
    <g id="xtick_2">
     <g id="line2d_2">
      <g>
       <use xlink:href="#m6f0ea1f03a" x="177.854764" y="244.078125" style="stroke: #000000; stroke-width: 0.8"/>
      </g>
     </g>
     <g id="text_2">
      <!-- $\mathdefault{10^{2}}$ -->
      <g transform="translate(169.054764 258.676562) scale(0.1 -0.1)">
       <defs>
        <path id="DejaVuSans-32" d="M 1228 531 
L 3431 531 
L 3431 0 
L 469 0 
L 469 531 
Q 828 903 1448 1529 
Q 2069 2156 2228 2338 
Q 2531 2678 2651 2914 
Q 2772 3150 2772 3378 
Q 2772 3750 2511 3984 
Q 2250 4219 1831 4219 
Q 1534 4219 1204 4116 
Q 875 4013 500 3803 
L 500 4441 
Q 881 4594 1212 4672 
Q 1544 4750 1819 4750 
Q 2544 4750 2975 4387 
Q 3406 4025 3406 3419 
Q 3406 3131 3298 2873 
Q 3191 2616 2906 2266 
Q 2828 2175 2409 1742 
Q 1991 1309 1228 531 
z
" transform="scale(0.015625)"/>
       </defs>
       <use xlink:href="#DejaVuSans-31" transform="translate(0 0.765625)"/>
       <use xlink:href="#DejaVuSans-30" transform="translate(63.623047 0.765625)"/>
       <use xlink:href="#DejaVuSans-32" transform="translate(128.203125 39.046875) scale(0.7)"/>
      </g>
     </g>
    </g>
    <g id="xtick_3">
     <g id="line2d_3">
      <g>
       <use xlink:href="#m6f0ea1f03a" x="255.324265" y="244.078125" style="stroke: #000000; stroke-width: 0.8"/>
      </g>
     </g>
     <g id="text_3">
      <!-- $\mathdefault{10^{3}}$ -->
      <g transform="translate(246.524265 258.676562) scale(0.1 -0.1)">
       <defs>
        <path id="DejaVuSans-33" d="M 2597 2516 
Q 3050 2419 3304 2112 
Q 3559 1806 3559 1356 
Q 3559 666 3084 287 
Q 2609 -91 1734 -91 
Q 1441 -91 1130 -33 
Q 819 25 488 141 
L 488 750 
Q 750 597 1062 519 
Q 1375 441 1716 441 
Q 2309 441 2620 675 
Q 2931 909 2931 1356 
Q 2931 1769 2642 2001 
Q 2353 2234 1838 2234 
L 1294 2234 
L 1294 2753 
L 1863 2753 
Q 2328 2753 2575 2939 
Q 2822 3125 2822 3475 
Q 2822 3834 2567 4026 
Q 2313 4219 1838 4219 
Q 1578 4219 1281 4162 
Q 984 4106 628 3988 
L 628 4550 
Q 988 4650 1302 4700 
Q 1616 4750 1894 4750 
Q 2613 4750 3031 4423 
Q 3450 4097 3450 3541 
Q 3450 3153 3228 2886 
Q 3006 2619 2597 2516 
z
" transform="scale(0.015625)"/>
       </defs>
       <use xlink:href="#DejaVuSans-31" transform="translate(0 0.765625)"/>
       <use xlink:href="#DejaVuSans-30" transform="translate(63.623047 0.765625)"/>
       <use xlink:href="#DejaVuSans-33" transform="translate(128.203125 39.046875) scale(0.7)"/>
      </g>
     </g>
    </g>
    <g id="xtick_4">
     <g id="line2d_4">
      <defs>
       <path id="m0d6219eb84" d="M 0 0 
L 0 2 
" style="stroke: #000000; stroke-width: 0.6"/>
      </defs>
      <g>
       <use xlink:href="#m0d6219eb84" x="59.878109" y="244.078125" style="stroke: #000000; stroke-width: 0.6"/>
      </g>
     </g>
    </g>
    <g id="xtick_5">
     <g id="line2d_5">
      <g>
       <use xlink:href="#m0d6219eb84" x="69.557051" y="244.078125" style="stroke: #000000; stroke-width: 0.6"/>
      </g>
     </g>
    </g>
    <g id="xtick_6">
     <g id="line2d_6">
      <g>
       <use xlink:href="#m0d6219eb84" x="77.064621" y="244.078125" style="stroke: #000000; stroke-width: 0.6"/>
      </g>
     </g>
    </g>
    <g id="xtick_7">
     <g id="line2d_7">
      <g>
       <use xlink:href="#m0d6219eb84" x="83.198752" y="244.078125" style="stroke: #000000; stroke-width: 0.6"/>
      </g>
     </g>
    </g>
    <g id="xtick_8">
     <g id="line2d_8">
      <g>
       <use xlink:href="#m0d6219eb84" x="88.385087" y="244.078125" style="stroke: #000000; stroke-width: 0.6"/>
      </g>
     </g>
    </g>
    <g id="xtick_9">
     <g id="line2d_9">
      <g>
       <use xlink:href="#m0d6219eb84" x="92.877694" y="244.078125" style="stroke: #000000; stroke-width: 0.6"/>
      </g>
     </g>
    </g>
    <g id="xtick_10">
     <g id="line2d_10">
      <g>
       <use xlink:href="#m0d6219eb84" x="96.840454" y="244.078125" style="stroke: #000000; stroke-width: 0.6"/>
      </g>
     </g>
    </g>
    <g id="xtick_11">
     <g id="line2d_11">
      <g>
       <use xlink:href="#m0d6219eb84" x="123.705908" y="244.078125" style="stroke: #000000; stroke-width: 0.6"/>
      </g>
     </g>
    </g>
    <g id="xtick_12">
     <g id="line2d_12">
      <g>
       <use xlink:href="#m0d6219eb84" x="137.347609" y="244.078125" style="stroke: #000000; stroke-width: 0.6"/>
      </g>
     </g>
    </g>
    <g id="xtick_13">
     <g id="line2d_13">
      <g>
       <use xlink:href="#m0d6219eb84" x="147.026551" y="244.078125" style="stroke: #000000; stroke-width: 0.6"/>
      </g>
     </g>
    </g>
    <g id="xtick_14">
     <g id="line2d_14">
      <g>
       <use xlink:href="#m0d6219eb84" x="154.534121" y="244.078125" style="stroke: #000000; stroke-width: 0.6"/>
      </g>
     </g>
    </g>
    <g id="xtick_15">
     <g id="line2d_15">
      <g>
       <use xlink:href="#m0d6219eb84" x="160.668253" y="244.078125" style="stroke: #000000; stroke-width: 0.6"/>
      </g>
     </g>
    </g>
    <g id="xtick_16">
     <g id="line2d_16">
      <g>
       <use xlink:href="#m0d6219eb84" x="165.854587" y="244.078125" style="stroke: #000000; stroke-width: 0.6"/>
      </g>
     </g>
    </g>
    <g id="xtick_17">
     <g id="line2d_17">
      <g>
       <use xlink:href="#m0d6219eb84" x="170.347194" y="244.078125" style="stroke: #000000; stroke-width: 0.6"/>
      </g>
     </g>
    </g>
    <g id="xtick_18">
     <g id="line2d_18">
      <g>
       <use xlink:href="#m0d6219eb84" x="174.309954" y="244.078125" style="stroke: #000000; stroke-width: 0.6"/>
      </g>
     </g>
    </g>
    <g id="xtick_19">
     <g id="line2d_19">
      <g>
       <use xlink:href="#m0d6219eb84" x="201.175408" y="244.078125" style="stroke: #000000; stroke-width: 0.6"/>
      </g>
     </g>
    </g>
    <g id="xtick_20">
     <g id="line2d_20">
      <g>
       <use xlink:href="#m0d6219eb84" x="214.81711" y="244.078125" style="stroke: #000000; stroke-width: 0.6"/>
      </g>
     </g>
    </g>
    <g id="xtick_21">
     <g id="line2d_21">
      <g>
       <use xlink:href="#m0d6219eb84" x="224.496051" y="244.078125" style="stroke: #000000; stroke-width: 0.6"/>
      </g>
     </g>
    </g>
    <g id="xtick_22">
     <g id="line2d_22">
      <g>
       <use xlink:href="#m0d6219eb84" x="232.003621" y="244.078125" style="stroke: #000000; stroke-width: 0.6"/>
      </g>
     </g>
    </g>
    <g id="xtick_23">
     <g id="line2d_23">
      <g>
       <use xlink:href="#m0d6219eb84" x="238.137753" y="244.078125" style="stroke: #000000; stroke-width: 0.6"/>
      </g>
     </g>
    </g>
    <g id="xtick_24">
     <g id="line2d_24">
      <g>
       <use xlink:href="#m0d6219eb84" x="243.324087" y="244.078125" style="stroke: #000000; stroke-width: 0.6"/>
      </g>
     </g>
    </g>
    <g id="xtick_25">
     <g id="line2d_25">
      <g>
       <use xlink:href="#m0d6219eb84" x="247.816694" y="244.078125" style="stroke: #000000; stroke-width: 0.6"/>
      </g>
     </g>
    </g>
    <g id="xtick_26">
     <g id="line2d_26">
      <g>
       <use xlink:href="#m0d6219eb84" x="251.779455" y="244.078125" style="stroke: #000000; stroke-width: 0.6"/>
      </g>
     </g>
    </g>
    <g id="xtick_27">
     <g id="line2d_27">
      <g>
       <use xlink:href="#m0d6219eb84" x="278.644908" y="244.078125" style="stroke: #000000; stroke-width: 0.6"/>
      </g>
     </g>
    </g>
    <g id="xtick_28">
     <g id="line2d_28">
      <g>
       <use xlink:href="#m0d6219eb84" x="292.28661" y="244.078125" style="stroke: #000000; stroke-width: 0.6"/>
      </g>
     </g>
    </g>
    <g id="xtick_29">
     <g id="line2d_29">
      <g>
       <use xlink:href="#m0d6219eb84" x="301.965551" y="244.078125" style="stroke: #000000; stroke-width: 0.6"/>
      </g>
     </g>
    </g>
    <g id="xtick_30">
     <g id="line2d_30">
      <g>
       <use xlink:href="#m0d6219eb84" x="309.473121" y="244.078125" style="stroke: #000000; stroke-width: 0.6"/>
      </g>
     </g>
    </g>
    <g id="text_4">
     <!-- particle radius (um) -->
     <g transform="translate(135.413494 272.354687) scale(0.1 -0.1)">
      <defs>
       <path id="DejaVuSans-70" d="M 1159 525 
L 1159 -1331 
L 581 -1331 
L 581 3500 
L 1159 3500 
L 1159 2969 
Q 1341 3281 1617 3432 
Q 1894 3584 2278 3584 
Q 2916 3584 3314 3078 
Q 3713 2572 3713 1747 
Q 3713 922 3314 415 
Q 2916 -91 2278 -91 
Q 1894 -91 1617 61 
Q 1341 213 1159 525 
z
M 3116 1747 
Q 3116 2381 2855 2742 
Q 2594 3103 2138 3103 
Q 1681 3103 1420 2742 
Q 1159 2381 1159 1747 
Q 1159 1113 1420 752 
Q 1681 391 2138 391 
Q 2594 391 2855 752 
Q 3116 1113 3116 1747 
z
" transform="scale(0.015625)"/>
       <path id="DejaVuSans-61" d="M 2194 1759 
Q 1497 1759 1228 1600 
Q 959 1441 959 1056 
Q 959 750 1161 570 
Q 1363 391 1709 391 
Q 2188 391 2477 730 
Q 2766 1069 2766 1631 
L 2766 1759 
L 2194 1759 
z
M 3341 1997 
L 3341 0 
L 2766 0 
L 2766 531 
Q 2569 213 2275 61 
Q 1981 -91 1556 -91 
Q 1019 -91 701 211 
Q 384 513 384 1019 
Q 384 1609 779 1909 
Q 1175 2209 1959 2209 
L 2766 2209 
L 2766 2266 
Q 2766 2663 2505 2880 
Q 2244 3097 1772 3097 
Q 1472 3097 1187 3025 
Q 903 2953 641 2809 
L 641 3341 
Q 956 3463 1253 3523 
Q 1550 3584 1831 3584 
Q 2591 3584 2966 3190 
Q 3341 2797 3341 1997 
z
" transform="scale(0.015625)"/>
       <path id="DejaVuSans-72" d="M 2631 2963 
Q 2534 3019 2420 3045 
Q 2306 3072 2169 3072 
Q 1681 3072 1420 2755 
Q 1159 2438 1159 1844 
L 1159 0 
L 581 0 
L 581 3500 
L 1159 3500 
L 1159 2956 
Q 1341 3275 1631 3429 
Q 1922 3584 2338 3584 
Q 2397 3584 2469 3576 
Q 2541 3569 2628 3553 
L 2631 2963 
z
" transform="scale(0.015625)"/>
       <path id="DejaVuSans-74" d="M 1172 4494 
L 1172 3500 
L 2356 3500 
L 2356 3053 
L 1172 3053 
L 1172 1153 
Q 1172 725 1289 603 
Q 1406 481 1766 481 
L 2356 481 
L 2356 0 
L 1766 0 
Q 1100 0 847 248 
Q 594 497 594 1153 
L 594 3053 
L 172 3053 
L 172 3500 
L 594 3500 
L 594 4494 
L 1172 4494 
z
" transform="scale(0.015625)"/>
       <path id="DejaVuSans-69" d="M 603 3500 
L 1178 3500 
L 1178 0 
L 603 0 
L 603 3500 
z
M 603 4863 
L 1178 4863 
L 1178 4134 
L 603 4134 
L 603 4863 
z
" transform="scale(0.015625)"/>
       <path id="DejaVuSans-63" d="M 3122 3366 
L 3122 2828 
Q 2878 2963 2633 3030 
Q 2388 3097 2138 3097 
Q 1578 3097 1268 2742 
Q 959 2388 959 1747 
Q 959 1106 1268 751 
Q 1578 397 2138 397 
Q 2388 397 2633 464 
Q 2878 531 3122 666 
L 3122 134 
Q 2881 22 2623 -34 
Q 2366 -91 2075 -91 
Q 1284 -91 818 406 
Q 353 903 353 1747 
Q 353 2603 823 3093 
Q 1294 3584 2113 3584 
Q 2378 3584 2631 3529 
Q 2884 3475 3122 3366 
z
" transform="scale(0.015625)"/>
       <path id="DejaVuSans-6c" d="M 603 4863 
L 1178 4863 
L 1178 0 
L 603 0 
L 603 4863 
z
" transform="scale(0.015625)"/>
       <path id="DejaVuSans-65" d="M 3597 1894 
L 3597 1613 
L 953 1613 
Q 991 1019 1311 708 
Q 1631 397 2203 397 
Q 2534 397 2845 478 
Q 3156 559 3463 722 
L 3463 178 
Q 3153 47 2828 -22 
Q 2503 -91 2169 -91 
Q 1331 -91 842 396 
Q 353 884 353 1716 
Q 353 2575 817 3079 
Q 1281 3584 2069 3584 
Q 2775 3584 3186 3129 
Q 3597 2675 3597 1894 
z
M 3022 2063 
Q 3016 2534 2758 2815 
Q 2500 3097 2075 3097 
Q 1594 3097 1305 2825 
Q 1016 2553 972 2059 
L 3022 2063 
z
" transform="scale(0.015625)"/>
       <path id="DejaVuSans-20" transform="scale(0.015625)"/>
       <path id="DejaVuSans-64" d="M 2906 2969 
L 2906 4863 
L 3481 4863 
L 3481 0 
L 2906 0 
L 2906 525 
Q 2725 213 2448 61 
Q 2172 -91 1784 -91 
Q 1150 -91 751 415 
Q 353 922 353 1747 
Q 353 2572 751 3078 
Q 1150 3584 1784 3584 
Q 2172 3584 2448 3432 
Q 2725 3281 2906 2969 
z
M 947 1747 
Q 947 1113 1208 752 
Q 1469 391 1925 391 
Q 2381 391 2643 752 
Q 2906 1113 2906 1747 
Q 2906 2381 2643 2742 
Q 2381 3103 1925 3103 
Q 1469 3103 1208 2742 
Q 947 2381 947 1747 
z
" transform="scale(0.015625)"/>
       <path id="DejaVuSans-75" d="M 544 1381 
L 544 3500 
L 1119 3500 
L 1119 1403 
Q 1119 906 1312 657 
Q 1506 409 1894 409 
Q 2359 409 2629 706 
Q 2900 1003 2900 1516 
L 2900 3500 
L 3475 3500 
L 3475 0 
L 2900 0 
L 2900 538 
Q 2691 219 2414 64 
Q 2138 -91 1772 -91 
Q 1169 -91 856 284 
Q 544 659 544 1381 
z
M 1991 3584 
L 1991 3584 
z
" transform="scale(0.015625)"/>
       <path id="DejaVuSans-73" d="M 2834 3397 
L 2834 2853 
Q 2591 2978 2328 3040 
Q 2066 3103 1784 3103 
Q 1356 3103 1142 2972 
Q 928 2841 928 2578 
Q 928 2378 1081 2264 
Q 1234 2150 1697 2047 
L 1894 2003 
Q 2506 1872 2764 1633 
Q 3022 1394 3022 966 
Q 3022 478 2636 193 
Q 2250 -91 1575 -91 
Q 1294 -91 989 -36 
Q 684 19 347 128 
L 347 722 
Q 666 556 975 473 
Q 1284 391 1588 391 
Q 1994 391 2212 530 
Q 2431 669 2431 922 
Q 2431 1156 2273 1281 
Q 2116 1406 1581 1522 
L 1381 1569 
Q 847 1681 609 1914 
Q 372 2147 372 2553 
Q 372 3047 722 3315 
Q 1072 3584 1716 3584 
Q 2034 3584 2315 3537 
Q 2597 3491 2834 3397 
z
" transform="scale(0.015625)"/>
       <path id="DejaVuSans-28" d="M 1984 4856 
Q 1566 4138 1362 3434 
Q 1159 2731 1159 2009 
Q 1159 1288 1364 580 
Q 1569 -128 1984 -844 
L 1484 -844 
Q 1016 -109 783 600 
Q 550 1309 550 2009 
Q 550 2706 781 3412 
Q 1013 4119 1484 4856 
L 1984 4856 
z
" transform="scale(0.015625)"/>
       <path id="DejaVuSans-6d" d="M 3328 2828 
Q 3544 3216 3844 3400 
Q 4144 3584 4550 3584 
Q 5097 3584 5394 3201 
Q 5691 2819 5691 2113 
L 5691 0 
L 5113 0 
L 5113 2094 
Q 5113 2597 4934 2840 
Q 4756 3084 4391 3084 
Q 3944 3084 3684 2787 
Q 3425 2491 3425 1978 
L 3425 0 
L 2847 0 
L 2847 2094 
Q 2847 2600 2669 2842 
Q 2491 3084 2119 3084 
Q 1678 3084 1418 2786 
Q 1159 2488 1159 1978 
L 1159 0 
L 581 0 
L 581 3500 
L 1159 3500 
L 1159 2956 
Q 1356 3278 1631 3431 
Q 1906 3584 2284 3584 
Q 2666 3584 2933 3390 
Q 3200 3197 3328 2828 
z
" transform="scale(0.015625)"/>
       <path id="DejaVuSans-29" d="M 513 4856 
L 1013 4856 
Q 1481 4119 1714 3412 
Q 1947 2706 1947 2009 
Q 1947 1309 1714 600 
Q 1481 -109 1013 -844 
L 513 -844 
Q 928 -128 1133 580 
Q 1338 1288 1338 2009 
Q 1338 2731 1133 3434 
Q 928 4138 513 4856 
z
" transform="scale(0.015625)"/>
      </defs>
      <use xlink:href="#DejaVuSans-70"/>
      <use xlink:href="#DejaVuSans-61" x="63.476562"/>
      <use xlink:href="#DejaVuSans-72" x="124.755859"/>
      <use xlink:href="#DejaVuSans-74" x="165.869141"/>
      <use xlink:href="#DejaVuSans-69" x="205.078125"/>
      <use xlink:href="#DejaVuSans-63" x="232.861328"/>
      <use xlink:href="#DejaVuSans-6c" x="287.841797"/>
      <use xlink:href="#DejaVuSans-65" x="315.625"/>
      <use xlink:href="#DejaVuSans-20" x="377.148438"/>
      <use xlink:href="#DejaVuSans-72" x="408.935547"/>
      <use xlink:href="#DejaVuSans-61" x="450.048828"/>
      <use xlink:href="#DejaVuSans-64" x="511.328125"/>
      <use xlink:href="#DejaVuSans-69" x="574.804688"/>
      <use xlink:href="#DejaVuSans-75" x="602.587891"/>
      <use xlink:href="#DejaVuSans-73" x="665.966797"/>
      <use xlink:href="#DejaVuSans-20" x="718.066406"/>
      <use xlink:href="#DejaVuSans-28" x="749.853516"/>
      <use xlink:href="#DejaVuSans-75" x="788.867188"/>
      <use xlink:href="#DejaVuSans-6d" x="852.246094"/>
      <use xlink:href="#DejaVuSans-29" x="949.658203"/>
     </g>
    </g>
   </g>
   <g id="matplotlib.axis_2">
    <g id="ytick_1">
     <g id="line2d_31">
      <defs>
       <path id="m408c6b8894" d="M 0 0 
L -3.5 0 
" style="stroke: #000000; stroke-width: 0.8"/>
      </defs>
      <g>
       <use xlink:href="#m408c6b8894" x="58.028125" y="233.998125" style="stroke: #000000; stroke-width: 0.8"/>
      </g>
     </g>
     <g id="text_5">
      <!-- 0.000 -->
      <g transform="translate(22.4 237.797344) scale(0.1 -0.1)">
       <defs>
        <path id="DejaVuSans-2e" d="M 684 794 
L 1344 794 
L 1344 0 
L 684 0 
L 684 794 
z
" transform="scale(0.015625)"/>
       </defs>
       <use xlink:href="#DejaVuSans-30"/>
       <use xlink:href="#DejaVuSans-2e" x="63.623047"/>
       <use xlink:href="#DejaVuSans-30" x="95.410156"/>
       <use xlink:href="#DejaVuSans-30" x="159.033203"/>
       <use xlink:href="#DejaVuSans-30" x="222.65625"/>
      </g>
     </g>
    </g>
    <g id="ytick_2">
     <g id="line2d_32">
      <g>
       <use xlink:href="#m408c6b8894" x="58.028125" y="187.189137" style="stroke: #000000; stroke-width: 0.8"/>
      </g>
     </g>
     <g id="text_6">
      <!-- 0.005 -->
      <g transform="translate(22.4 190.988356) scale(0.1 -0.1)">
       <defs>
        <path id="DejaVuSans-35" d="M 691 4666 
L 3169 4666 
L 3169 4134 
L 1269 4134 
L 1269 2991 
Q 1406 3038 1543 3061 
Q 1681 3084 1819 3084 
Q 2600 3084 3056 2656 
Q 3513 2228 3513 1497 
Q 3513 744 3044 326 
Q 2575 -91 1722 -91 
Q 1428 -91 1123 -41 
Q 819 9 494 109 
L 494 744 
Q 775 591 1075 516 
Q 1375 441 1709 441 
Q 2250 441 2565 725 
Q 2881 1009 2881 1497 
Q 2881 1984 2565 2268 
Q 2250 2553 1709 2553 
Q 1456 2553 1204 2497 
Q 953 2441 691 2322 
L 691 4666 
z
" transform="scale(0.015625)"/>
       </defs>
       <use xlink:href="#DejaVuSans-30"/>
       <use xlink:href="#DejaVuSans-2e" x="63.623047"/>
       <use xlink:href="#DejaVuSans-30" x="95.410156"/>
       <use xlink:href="#DejaVuSans-30" x="159.033203"/>
       <use xlink:href="#DejaVuSans-35" x="222.65625"/>
      </g>
     </g>
    </g>
    <g id="ytick_3">
     <g id="line2d_33">
      <g>
       <use xlink:href="#m408c6b8894" x="58.028125" y="140.380149" style="stroke: #000000; stroke-width: 0.8"/>
      </g>
     </g>
     <g id="text_7">
      <!-- 0.010 -->
      <g transform="translate(22.4 144.179368) scale(0.1 -0.1)">
       <use xlink:href="#DejaVuSans-30"/>
       <use xlink:href="#DejaVuSans-2e" x="63.623047"/>
       <use xlink:href="#DejaVuSans-30" x="95.410156"/>
       <use xlink:href="#DejaVuSans-31" x="159.033203"/>
       <use xlink:href="#DejaVuSans-30" x="222.65625"/>
      </g>
     </g>
    </g>
    <g id="ytick_4">
     <g id="line2d_34">
      <g>
       <use xlink:href="#m408c6b8894" x="58.028125" y="93.571161" style="stroke: #000000; stroke-width: 0.8"/>
      </g>
     </g>
     <g id="text_8">
      <!-- 0.015 -->
      <g transform="translate(22.4 97.37038) scale(0.1 -0.1)">
       <use xlink:href="#DejaVuSans-30"/>
       <use xlink:href="#DejaVuSans-2e" x="63.623047"/>
       <use xlink:href="#DejaVuSans-30" x="95.410156"/>
       <use xlink:href="#DejaVuSans-31" x="159.033203"/>
       <use xlink:href="#DejaVuSans-35" x="222.65625"/>
      </g>
     </g>
    </g>
    <g id="ytick_5">
     <g id="line2d_35">
      <g>
       <use xlink:href="#m408c6b8894" x="58.028125" y="46.762173" style="stroke: #000000; stroke-width: 0.8"/>
      </g>
     </g>
     <g id="text_9">
      <!-- 0.020 -->
      <g transform="translate(22.4 50.561392) scale(0.1 -0.1)">
       <use xlink:href="#DejaVuSans-30"/>
       <use xlink:href="#DejaVuSans-2e" x="63.623047"/>
       <use xlink:href="#DejaVuSans-30" x="95.410156"/>
       <use xlink:href="#DejaVuSans-32" x="159.033203"/>
       <use xlink:href="#DejaVuSans-30" x="222.65625"/>
      </g>
     </g>
    </g>
    <g id="text_10">
     <!-- dm/dlnR (kg/m$^3$) -->
     <g transform="translate(16.3 174.698125) rotate(-90) scale(0.1 -0.1)">
      <defs>
       <path id="DejaVuSans-2f" d="M 1625 4666 
L 2156 4666 
L 531 -594 
L 0 -594 
L 1625 4666 
z
" transform="scale(0.015625)"/>
       <path id="DejaVuSans-6e" d="M 3513 2113 
L 3513 0 
L 2938 0 
L 2938 2094 
Q 2938 2591 2744 2837 
Q 2550 3084 2163 3084 
Q 1697 3084 1428 2787 
Q 1159 2491 1159 1978 
L 1159 0 
L 581 0 
L 581 3500 
L 1159 3500 
L 1159 2956 
Q 1366 3272 1645 3428 
Q 1925 3584 2291 3584 
Q 2894 3584 3203 3211 
Q 3513 2838 3513 2113 
z
" transform="scale(0.015625)"/>
       <path id="DejaVuSans-52" d="M 2841 2188 
Q 3044 2119 3236 1894 
Q 3428 1669 3622 1275 
L 4263 0 
L 3584 0 
L 2988 1197 
Q 2756 1666 2539 1819 
Q 2322 1972 1947 1972 
L 1259 1972 
L 1259 0 
L 628 0 
L 628 4666 
L 2053 4666 
Q 2853 4666 3247 4331 
Q 3641 3997 3641 3322 
Q 3641 2881 3436 2590 
Q 3231 2300 2841 2188 
z
M 1259 4147 
L 1259 2491 
L 2053 2491 
Q 2509 2491 2742 2702 
Q 2975 2913 2975 3322 
Q 2975 3731 2742 3939 
Q 2509 4147 2053 4147 
L 1259 4147 
z
" transform="scale(0.015625)"/>
       <path id="DejaVuSans-6b" d="M 581 4863 
L 1159 4863 
L 1159 1991 
L 2875 3500 
L 3609 3500 
L 1753 1863 
L 3688 0 
L 2938 0 
L 1159 1709 
L 1159 0 
L 581 0 
L 581 4863 
z
" transform="scale(0.015625)"/>
       <path id="DejaVuSans-67" d="M 2906 1791 
Q 2906 2416 2648 2759 
Q 2391 3103 1925 3103 
Q 1463 3103 1205 2759 
Q 947 2416 947 1791 
Q 947 1169 1205 825 
Q 1463 481 1925 481 
Q 2391 481 2648 825 
Q 2906 1169 2906 1791 
z
M 3481 434 
Q 3481 -459 3084 -895 
Q 2688 -1331 1869 -1331 
Q 1566 -1331 1297 -1286 
Q 1028 -1241 775 -1147 
L 775 -588 
Q 1028 -725 1275 -790 
Q 1522 -856 1778 -856 
Q 2344 -856 2625 -561 
Q 2906 -266 2906 331 
L 2906 616 
Q 2728 306 2450 153 
Q 2172 0 1784 0 
Q 1141 0 747 490 
Q 353 981 353 1791 
Q 353 2603 747 3093 
Q 1141 3584 1784 3584 
Q 2172 3584 2450 3431 
Q 2728 3278 2906 2969 
L 2906 3500 
L 3481 3500 
L 3481 434 
z
" transform="scale(0.015625)"/>
      </defs>
      <use xlink:href="#DejaVuSans-64" transform="translate(0 0.765625)"/>
      <use xlink:href="#DejaVuSans-6d" transform="translate(63.476562 0.765625)"/>
      <use xlink:href="#DejaVuSans-2f" transform="translate(160.888672 0.765625)"/>
      <use xlink:href="#DejaVuSans-64" transform="translate(194.580078 0.765625)"/>
      <use xlink:href="#DejaVuSans-6c" transform="translate(258.056641 0.765625)"/>
      <use xlink:href="#DejaVuSans-6e" transform="translate(285.839844 0.765625)"/>
      <use xlink:href="#DejaVuSans-52" transform="translate(349.21875 0.765625)"/>
      <use xlink:href="#DejaVuSans-20" transform="translate(418.701172 0.765625)"/>
      <use xlink:href="#DejaVuSans-28" transform="translate(450.488281 0.765625)"/>
      <use xlink:href="#DejaVuSans-6b" transform="translate(489.501953 0.765625)"/>
      <use xlink:href="#DejaVuSans-67" transform="translate(547.412109 0.765625)"/>
      <use xlink:href="#DejaVuSans-2f" transform="translate(610.888672 0.765625)"/>
      <use xlink:href="#DejaVuSans-6d" transform="translate(644.580078 0.765625)"/>
      <use xlink:href="#DejaVuSans-33" transform="translate(742.949219 39.046875) scale(0.7)"/>
      <use xlink:href="#DejaVuSans-29" transform="translate(790.219727 0.765625)"/>
     </g>
    </g>
   </g>
   <g id="line2d_36">
    <path d="M 69.557051 233.995666 
L 69.557051 233.995959 
L 91.516909 233.898408 
L 91.516909 233.860035 
L 95.176885 233.811473 
L 95.176885 233.735863 
L 98.836862 233.639098 
L 98.836862 233.506936 
L 100.66685 233.506936 
L 100.66685 233.315914 
L 102.496838 233.315914 
L 102.496838 233.058295 
L 104.326826 233.058295 
L 104.326826 232.715111 
L 106.156814 232.715111 
L 106.156814 232.242881 
L 107.986803 232.242881 
L 107.986803 231.599507 
L 109.816791 231.599507 
L 109.816791 230.703238 
L 111.646779 230.703238 
L 111.646779 229.533232 
L 113.476767 229.533232 
L 113.476767 227.945004 
L 115.306755 227.945004 
L 115.306755 225.851145 
L 117.136744 225.851145 
L 117.136744 223.004106 
L 118.966732 223.004106 
L 118.966732 219.281451 
L 120.79672 219.281451 
L 120.79672 214.445386 
L 122.626708 214.445386 
L 122.626708 208.282903 
L 124.456696 208.282903 
L 124.456696 200.260627 
L 126.286685 200.260627 
L 126.286685 190.429183 
L 128.116673 190.429183 
L 128.116673 178.175667 
L 129.946661 178.175667 
L 129.946661 163.736378 
L 131.776649 163.736378 
L 131.776649 146.870771 
L 133.606637 146.870771 
L 133.606637 127.970515 
L 135.436626 127.970515 
L 135.436626 108.190004 
L 137.266614 108.190004 
L 137.266614 88.673892 
L 139.096602 88.673892 
L 139.096602 71.155912 
L 140.92659 71.155912 
L 140.92659 58.674651 
L 142.756578 58.674651 
L 142.756578 53.282747 
L 144.586567 53.282747 
L 144.586567 57.248991 
L 146.416555 57.248991 
L 146.416555 70.938607 
L 148.246543 70.938607 
L 148.246543 94.980711 
L 150.076531 94.980711 
L 150.076531 124.098442 
L 151.906519 124.098442 
L 151.906519 155.553566 
L 153.736508 155.553566 
L 153.736508 184.624265 
L 155.566496 184.624265 
L 155.566496 206.48854 
L 157.396484 206.48854 
L 157.396484 221.414936 
L 159.226472 221.414936 
L 159.226472 229.83673 
L 161.05646 229.83673 
L 161.05646 231.605597 
L 162.886448 231.605597 
L 162.886448 233.998125 
L 300.135563 233.998125 
L 300.135563 233.998125 
" clip-path="url(#pf81fa85db8)" style="fill: none; stroke-dasharray: 5.55,2.4; stroke-dashoffset: 0; stroke: #000000; stroke-width: 1.5"/>
   </g>
   <g id="line2d_37">
    <path d="M 69.557051 233.998117 
L 69.557051 233.998123 
L 146.416555 233.891938 
L 146.416555 233.866983 
L 157.396484 233.807599 
L 157.396484 233.752158 
L 164.716437 233.714209 
L 164.716437 233.596728 
L 170.206401 233.577737 
L 170.206401 233.384947 
L 175.696366 233.304039 
L 175.696366 232.982522 
L 181.18633 233.052852 
L 181.18633 232.787423 
L 183.016319 232.787423 
L 183.016319 232.142332 
L 184.846307 232.142332 
L 184.846307 232.691699 
L 188.506283 232.614602 
L 188.506283 232.217769 
L 190.336271 232.217769 
L 190.336271 230.483121 
L 192.16626 230.483121 
L 192.16626 231.376494 
L 193.996248 231.376494 
L 193.996248 229.489041 
L 195.826236 229.489041 
L 195.826236 229.187157 
L 197.656224 229.187157 
L 197.656224 229.427961 
L 199.486212 229.427961 
L 199.486212 228.085393 
L 201.316201 228.085393 
L 201.316201 226.569012 
L 203.146189 226.569012 
L 203.146189 227.646442 
L 204.976177 227.646442 
L 204.976177 226.857374 
L 206.806165 226.857374 
L 206.806165 226.31124 
L 208.636153 226.31124 
L 208.636153 223.076214 
L 210.466142 223.076214 
L 210.466142 223.388658 
L 212.29613 223.388658 
L 212.29613 222.272992 
L 214.126118 222.272992 
L 214.126118 220.571064 
L 215.956106 220.571064 
L 215.956106 218.221077 
L 217.786094 218.221077 
L 217.786094 216.16447 
L 219.616082 216.16447 
L 219.616082 211.4465 
L 221.446071 211.4465 
L 221.446071 207.963622 
L 223.276059 207.963622 
L 223.276059 200.681526 
L 225.106047 200.681526 
L 225.106047 192.226617 
L 226.936035 192.226617 
L 226.936035 195.493181 
L 228.766023 195.493181 
L 228.766023 202.491009 
L 230.596012 202.491009 
L 230.596012 175.700221 
L 232.426 175.700221 
L 232.426 183.375517 
L 234.255988 183.375517 
L 234.255988 178.086873 
L 236.085976 178.086873 
L 236.085976 181.757091 
L 237.915964 181.757091 
L 237.915964 158.590802 
L 239.745953 158.590802 
L 239.745953 171.763707 
L 241.575941 171.763707 
L 241.575941 162.853044 
L 243.405929 162.853044 
L 243.405929 146.831105 
L 245.235917 146.831105 
L 245.235917 149.653233 
L 247.065905 149.653233 
L 247.065905 115.384972 
L 248.895894 115.384972 
L 248.895894 131.453532 
L 250.725882 131.453532 
L 250.725882 118.717438 
L 252.55587 118.717438 
L 252.55587 116.093564 
L 254.385858 116.093564 
L 254.385858 120.482153 
L 256.215846 120.482153 
L 256.215846 130.376099 
L 258.045835 130.376099 
L 258.045835 145.367319 
L 259.875823 145.367319 
L 259.875823 153.336956 
L 261.705811 153.336956 
L 261.705811 176.001599 
L 263.535799 176.001599 
L 263.535799 165.152825 
L 265.365787 165.152825 
L 265.365787 173.128965 
L 267.195776 173.128965 
L 267.195776 197.42525 
L 269.025764 197.42525 
L 269.025764 215.13988 
L 270.855752 215.13988 
L 270.855752 230.429519 
L 272.68574 230.429519 
L 272.68574 217.373319 
L 274.515728 217.373319 
L 274.515728 228.743834 
L 276.345716 228.743834 
L 276.345716 233.998125 
L 300.135563 233.998125 
L 300.135563 233.998125 
" clip-path="url(#pf81fa85db8)" style="fill: none; stroke: #440154; stroke-width: 1.5; stroke-linecap: square"/>
   </g>
   <g id="line2d_38">
    <path d="M 69.557051 233.998125 
L 118.966732 233.962494 
L 118.966732 233.881623 
L 120.79672 233.881623 
L 120.79672 233.753652 
L 124.456696 233.683525 
L 124.456696 233.25171 
L 126.286685 233.25171 
L 126.286685 232.967732 
L 128.116673 232.967732 
L 128.116673 232.467478 
L 129.946661 232.467478 
L 129.946661 232.060677 
L 131.776649 232.060677 
L 131.776649 230.867028 
L 133.606637 230.867028 
L 133.606637 228.846445 
L 135.436626 228.846445 
L 135.436626 226.403391 
L 137.266614 226.403391 
L 137.266614 223.736463 
L 139.096602 223.736463 
L 139.096602 224.548373 
L 140.92659 224.548373 
L 140.92659 220.549228 
L 142.756578 220.549228 
L 142.756578 216.179917 
L 144.586567 216.179917 
L 144.586567 212.339404 
L 146.416555 212.339404 
L 146.416555 205.957652 
L 148.246543 205.957652 
L 148.246543 194.839085 
L 150.076531 194.839085 
L 150.076531 190.419096 
L 151.906519 190.419096 
L 151.906519 184.874841 
L 153.736508 184.874841 
L 153.736508 178.332369 
L 155.566496 178.332369 
L 155.566496 160.092231 
L 157.396484 160.092231 
L 157.396484 165.196291 
L 159.226472 165.196291 
L 159.226472 151.984095 
L 161.05646 151.984095 
L 161.05646 144.924152 
L 162.886448 144.924152 
L 162.886448 152.3397 
L 164.716437 152.3397 
L 164.716437 140.189199 
L 166.546425 140.189199 
L 166.546425 135.786475 
L 168.376413 135.786475 
L 168.376413 131.536629 
L 170.206401 131.536629 
L 170.206401 142.072791 
L 172.036389 142.072791 
L 172.036389 158.102769 
L 173.866378 158.102769 
L 173.866378 146.376588 
L 175.696366 146.376588 
L 175.696366 147.563374 
L 177.526354 147.563374 
L 177.526354 149.099854 
L 179.356342 149.099854 
L 179.356342 153.414147 
L 181.18633 153.414147 
L 181.18633 151.67884 
L 183.016319 151.67884 
L 183.016319 167.290485 
L 184.846307 167.290485 
L 184.846307 180.542169 
L 186.676295 180.542169 
L 186.676295 183.26128 
L 188.506283 183.26128 
L 188.506283 165.997666 
L 190.336271 165.997666 
L 190.336271 192.130924 
L 192.16626 192.130924 
L 192.16626 197.144901 
L 193.996248 197.144901 
L 193.996248 209.137797 
L 195.826236 209.137797 
L 195.826236 204.336939 
L 197.656224 204.336939 
L 197.656224 209.64344 
L 199.486212 209.64344 
L 199.486212 225.884425 
L 201.316201 225.884425 
L 201.316201 222.13714 
L 203.146189 222.13714 
L 203.146189 224.447 
L 204.976177 224.447 
L 204.976177 225.697606 
L 206.806165 225.697606 
L 206.806165 229.652582 
L 208.636153 229.652582 
L 208.636153 233.998125 
L 210.466142 233.998125 
L 210.466142 233.325384 
L 212.29613 233.325384 
L 212.29613 232.136822 
L 214.126118 232.136822 
L 214.126118 233.998125 
L 215.956106 233.998125 
L 215.956106 231.016976 
L 217.786094 231.016976 
L 217.786094 231.952075 
L 219.616082 231.952075 
L 219.616082 225.748361 
L 221.446071 225.748361 
L 221.446071 226.785886 
L 223.276059 226.785886 
L 223.276059 233.998125 
L 300.135563 233.998125 
L 300.135563 233.998125 
" clip-path="url(#pf81fa85db8)" style="fill: none; stroke: #3b528b; stroke-width: 1.5; stroke-linecap: square"/>
   </g>
   <g id="line2d_39">
    <path d="M 69.557051 233.998125 
L 95.176885 233.963958 
L 95.176885 233.815102 
L 98.836862 233.858215 
L 98.836862 232.853819 
L 100.66685 232.853819 
L 100.66685 231.797286 
L 102.496838 231.797286 
L 102.496838 232.118825 
L 104.326826 232.118825 
L 104.326826 228.359082 
L 106.156814 228.359082 
L 106.156814 227.952632 
L 107.986803 227.952632 
L 107.986803 219.056759 
L 109.816791 219.056759 
L 109.816791 213.735497 
L 111.646779 213.735497 
L 111.646779 204.242434 
L 113.476767 204.242434 
L 113.476767 188.074856 
L 115.306755 188.074856 
L 115.306755 172.135809 
L 117.136744 172.135809 
L 117.136744 172.595581 
L 118.966732 172.595581 
L 118.966732 156.310482 
L 120.79672 156.310482 
L 120.79672 138.664484 
L 122.626708 138.664484 
L 122.626708 133.384018 
L 124.456696 133.384018 
L 124.456696 138.088375 
L 126.286685 138.088375 
L 126.286685 110.961642 
L 128.116673 110.961642 
L 128.116673 114.329224 
L 129.946661 114.329224 
L 129.946661 101.194009 
L 131.776649 101.194009 
L 131.776649 104.959157 
L 133.606637 104.959157 
L 133.606637 124.723242 
L 135.436626 124.723242 
L 135.436626 120.77243 
L 137.266614 120.77243 
L 137.266614 129.99659 
L 139.096602 129.99659 
L 139.096602 138.420811 
L 140.92659 138.420811 
L 140.92659 165.515051 
L 142.756578 165.515051 
L 142.756578 165.739597 
L 144.586567 165.739597 
L 144.586567 167.000001 
L 146.416555 167.000001 
L 146.416555 179.731568 
L 148.246543 179.731568 
L 148.246543 190.780534 
L 150.076531 190.780534 
L 150.076531 187.993633 
L 151.906519 187.993633 
L 151.906519 199.6996 
L 153.736508 199.6996 
L 153.736508 213.415277 
L 155.566496 213.415277 
L 155.566496 206.115114 
L 157.396484 206.115114 
L 157.396484 216.151022 
L 159.226472 216.151022 
L 159.226472 220.883212 
L 161.05646 220.883212 
L 161.05646 220.238108 
L 162.886448 220.238108 
L 162.886448 226.432064 
L 164.716437 226.432064 
L 164.716437 229.609347 
L 166.546425 229.609347 
L 166.546425 229.928403 
L 168.376413 229.928403 
L 168.376413 228.022757 
L 170.206401 228.022757 
L 170.206401 232.605397 
L 172.036389 232.605397 
L 172.036389 230.815436 
L 173.866378 230.815436 
L 173.866378 233.998125 
L 177.526354 233.998125 
L 177.526354 231.417234 
L 179.356342 231.417234 
L 179.356342 233.915777 
L 300.135563 233.998125 
L 300.135563 233.998125 
" clip-path="url(#pf81fa85db8)" style="fill: none; stroke: #21918c; stroke-width: 1.5; stroke-linecap: square"/>
   </g>
   <g id="line2d_40">
    <path d="M 69.557051 233.998125 
L 80.53698 233.998125 
L 80.53698 233.690617 
L 82.366968 233.690617 
L 82.366968 233.485994 
L 86.026944 233.417352 
L 86.026944 230.706926 
L 87.856933 230.706926 
L 87.856933 227.577218 
L 89.686921 227.577218 
L 89.686921 220.710355 
L 91.516909 220.710355 
L 91.516909 217.855689 
L 93.346897 217.855689 
L 93.346897 207.085285 
L 95.176885 207.085285 
L 95.176885 203.534778 
L 97.006874 203.534778 
L 97.006874 192.834793 
L 98.836862 192.834793 
L 98.836862 174.915355 
L 100.66685 174.915355 
L 100.66685 173.494406 
L 102.496838 173.494406 
L 102.496838 158.17397 
L 104.326826 158.17397 
L 104.326826 149.609601 
L 106.156814 149.609601 
L 106.156814 122.654052 
L 107.986803 122.654052 
L 107.986803 95.594358 
L 109.816791 95.594358 
L 109.816791 105.151785 
L 111.646779 105.151785 
L 111.646779 88.460406 
L 113.476767 88.460406 
L 113.476767 93.219941 
L 115.306755 93.219941 
L 115.306755 81.815994 
L 117.136744 81.815994 
L 117.136744 108.102669 
L 118.966732 108.102669 
L 118.966732 114.700675 
L 120.79672 114.700675 
L 120.79672 123.081281 
L 122.626708 123.081281 
L 122.626708 138.342122 
L 124.456696 138.342122 
L 124.456696 159.578828 
L 126.286685 159.578828 
L 126.286685 177.509125 
L 128.116673 177.509125 
L 128.116673 184.125847 
L 129.946661 184.125847 
L 129.946661 204.605245 
L 131.776649 204.605245 
L 131.776649 201.720939 
L 133.606637 201.720939 
L 133.606637 210.289858 
L 135.436626 210.289858 
L 135.436626 214.088187 
L 137.266614 214.088187 
L 137.266614 207.339902 
L 139.096602 207.339902 
L 139.096602 218.521979 
L 140.92659 218.521979 
L 140.92659 221.995767 
L 142.756578 221.995767 
L 142.756578 220.459851 
L 144.586567 220.459851 
L 144.586567 230.951705 
L 148.246543 231.0473 
L 148.246543 233.034679 
L 150.076531 233.034679 
L 150.076531 233.998125 
L 151.906519 233.998125 
L 151.906519 232.993123 
L 153.736508 232.993123 
L 153.736508 233.998125 
L 157.396484 233.982537 
L 157.396484 233.118823 
L 159.226472 233.118823 
L 159.226472 233.998125 
L 161.05646 233.998125 
L 161.05646 232.804599 
L 162.886448 232.804599 
L 162.886448 233.998125 
L 300.135563 233.998125 
L 300.135563 233.998125 
" clip-path="url(#pf81fa85db8)" style="fill: none; stroke: #5ec962; stroke-width: 1.5; stroke-linecap: square"/>
   </g>
   <g id="line2d_41">
    <path d="M 69.557051 233.998125 
L 153.736508 233.906107 
L 153.736508 233.864344 
L 162.886448 233.788305 
L 162.886448 233.659546 
L 168.376413 233.617269 
L 168.376413 233.333252 
L 172.036389 233.42374 
L 172.036389 232.757154 
L 173.866378 232.757154 
L 173.866378 232.455282 
L 175.696366 232.455282 
L 175.696366 231.485042 
L 177.526354 231.485042 
L 177.526354 229.626634 
L 179.356342 229.626634 
L 179.356342 227.548918 
L 181.18633 227.548918 
L 181.18633 222.984221 
L 183.016319 222.984221 
L 183.016319 219.684735 
L 184.846307 219.684735 
L 184.846307 213.33438 
L 186.676295 213.33438 
L 186.676295 210.830832 
L 188.506283 210.830832 
L 188.506283 200.119747 
L 190.336271 200.119747 
L 190.336271 183.661232 
L 192.16626 183.661232 
L 192.16626 172.573948 
L 193.996248 172.573948 
L 193.996248 146.133381 
L 195.826236 146.133381 
L 195.826236 138.769531 
L 197.656224 138.769531 
L 197.656224 128.001364 
L 199.486212 128.001364 
L 199.486212 116.646193 
L 201.316201 116.646193 
L 201.316201 119.332386 
L 203.146189 119.332386 
L 203.146189 106.918758 
L 204.976177 106.918758 
L 204.976177 108.33366 
L 206.806165 108.33366 
L 206.806165 108.868508 
L 208.636153 108.868508 
L 208.636153 116.897692 
L 210.466142 116.897692 
L 210.466142 123.212123 
L 212.29613 123.212123 
L 212.29613 129.920745 
L 214.126118 129.920745 
L 214.126118 122.53229 
L 215.956106 122.53229 
L 215.956106 150.748702 
L 217.786094 150.748702 
L 217.786094 151.647319 
L 219.616082 151.647319 
L 219.616082 162.840262 
L 221.446071 162.840262 
L 221.446071 158.664819 
L 223.276059 158.664819 
L 223.276059 191.705832 
L 226.936035 191.597084 
L 226.936035 201.400884 
L 228.766023 201.400884 
L 228.766023 219.687324 
L 230.596012 219.687324 
L 230.596012 222.773614 
L 232.426 222.773614 
L 232.426 225.004892 
L 234.255988 225.004892 
L 234.255988 230.239111 
L 236.085976 230.239111 
L 236.085976 229.102631 
L 237.915964 229.102631 
L 237.915964 233.998125 
L 239.745953 233.998125 
L 239.745953 232.112245 
L 241.575941 232.112245 
L 241.575941 233.998125 
L 300.135563 233.998125 
L 300.135563 233.998125 
" clip-path="url(#pf81fa85db8)" style="fill: none; stroke: #bf00bf; stroke-width: 1.5; stroke-linecap: square"/>
   </g>
   <g id="patch_3">
    <path d="M 58.028125 244.078125 
L 58.028125 22.318125 
" style="fill: none; stroke: #000000; stroke-width: 0.8; stroke-linejoin: miter; stroke-linecap: square"/>
   </g>
   <g id="patch_4">
    <path d="M 311.664489 244.078125 
L 311.664489 22.318125 
" style="fill: none; stroke: #000000; stroke-width: 0.8; stroke-linejoin: miter; stroke-linecap: square"/>
   </g>
   <g id="patch_5">
    <path d="M 58.028125 244.078125 
L 311.664489 244.078125 
" style="fill: none; stroke: #000000; stroke-width: 0.8; stroke-linejoin: miter; stroke-linecap: square"/>
   </g>
   <g id="patch_6">
    <path d="M 58.028125 22.318125 
L 311.664489 22.318125 
" style="fill: none; stroke: #000000; stroke-width: 0.8; stroke-linejoin: miter; stroke-linecap: square"/>
   </g>
   <g id="text_11">
    <!-- (a) t = 100sec -->
    <g transform="translate(141.817869 16.318125) scale(0.12 -0.12)">
     <defs>
      <path id="DejaVuSans-3d" d="M 678 2906 
L 4684 2906 
L 4684 2381 
L 678 2381 
L 678 2906 
z
M 678 1631 
L 4684 1631 
L 4684 1100 
L 678 1100 
L 678 1631 
z
" transform="scale(0.015625)"/>
     </defs>
     <use xlink:href="#DejaVuSans-28"/>
     <use xlink:href="#DejaVuSans-61" x="39.013672"/>
     <use xlink:href="#DejaVuSans-29" x="100.292969"/>
     <use xlink:href="#DejaVuSans-20" x="139.306641"/>
     <use xlink:href="#DejaVuSans-74" x="171.09375"/>
     <use xlink:href="#DejaVuSans-20" x="210.302734"/>
     <use xlink:href="#DejaVuSans-3d" x="242.089844"/>
     <use xlink:href="#DejaVuSans-20" x="325.878906"/>
     <use xlink:href="#DejaVuSans-31" x="357.666016"/>
     <use xlink:href="#DejaVuSans-30" x="421.289062"/>
     <use xlink:href="#DejaVuSans-30" x="484.912109"/>
     <use xlink:href="#DejaVuSans-73" x="548.535156"/>
     <use xlink:href="#DejaVuSans-65" x="600.634766"/>
     <use xlink:href="#DejaVuSans-63" x="662.158203"/>
    </g>
   </g>
   <g id="legend_1">
    <g id="patch_7">
     <path d="M 210.842614 118.386875 
L 304.664489 118.386875 
Q 306.664489 118.386875 306.664489 116.386875 
L 306.664489 29.318125 
Q 306.664489 27.318125 304.664489 27.318125 
L 210.842614 27.318125 
Q 208.842614 27.318125 208.842614 29.318125 
L 208.842614 116.386875 
Q 208.842614 118.386875 210.842614 118.386875 
z
" style="fill: #ffffff; opacity: 0.8; stroke: #cccccc; stroke-linejoin: miter"/>
    </g>
    <g id="line2d_42">
     <path d="M 212.842614 35.416562 
L 212.842614 35.416562 
L 222.842614 35.416562 
L 222.842614 35.416562 
L 232.842614 35.416562 
" style="fill: none; stroke-dasharray: 5.55,2.4; stroke-dashoffset: 0; stroke: #000000; stroke-width: 1.5"/>
    </g>
    <g id="text_12">
     <!-- initial -->
     <g transform="translate(240.842614 38.916562) scale(0.1 -0.1)">
      <use xlink:href="#DejaVuSans-69"/>
      <use xlink:href="#DejaVuSans-6e" x="27.783203"/>
      <use xlink:href="#DejaVuSans-69" x="91.162109"/>
      <use xlink:href="#DejaVuSans-74" x="118.945312"/>
      <use xlink:href="#DejaVuSans-69" x="158.154297"/>
      <use xlink:href="#DejaVuSans-61" x="185.9375"/>
      <use xlink:href="#DejaVuSans-6c" x="247.216797"/>
     </g>
    </g>
    <g id="line2d_43">
     <path d="M 212.842614 50.094687 
L 212.842614 50.094687 
L 222.842614 50.094687 
L 222.842614 50.094687 
L 232.842614 50.094687 
" style="fill: none; stroke: #440154; stroke-width: 1.5; stroke-linecap: square"/>
    </g>
    <g id="text_13">
     <!-- Ec = 1.0 -->
     <g transform="translate(240.842614 53.594687) scale(0.1 -0.1)">
      <defs>
       <path id="DejaVuSans-45" d="M 628 4666 
L 3578 4666 
L 3578 4134 
L 1259 4134 
L 1259 2753 
L 3481 2753 
L 3481 2222 
L 1259 2222 
L 1259 531 
L 3634 531 
L 3634 0 
L 628 0 
L 628 4666 
z
" transform="scale(0.015625)"/>
      </defs>
      <use xlink:href="#DejaVuSans-45"/>
      <use xlink:href="#DejaVuSans-63" x="63.183594"/>
      <use xlink:href="#DejaVuSans-20" x="118.164062"/>
      <use xlink:href="#DejaVuSans-3d" x="149.951172"/>
      <use xlink:href="#DejaVuSans-20" x="233.740234"/>
      <use xlink:href="#DejaVuSans-31" x="265.527344"/>
      <use xlink:href="#DejaVuSans-2e" x="329.150391"/>
      <use xlink:href="#DejaVuSans-30" x="360.9375"/>
     </g>
    </g>
    <g id="line2d_44">
     <path d="M 212.842614 64.772812 
L 212.842614 64.772812 
L 222.842614 64.772812 
L 222.842614 64.772812 
L 232.842614 64.772812 
" style="fill: none; stroke: #3b528b; stroke-width: 1.5; stroke-linecap: square"/>
    </g>
    <g id="text_14">
     <!-- Ec = 0.9 -->
     <g transform="translate(240.842614 68.272812) scale(0.1 -0.1)">
      <defs>
       <path id="DejaVuSans-39" d="M 703 97 
L 703 672 
Q 941 559 1184 500 
Q 1428 441 1663 441 
Q 2288 441 2617 861 
Q 2947 1281 2994 2138 
Q 2813 1869 2534 1725 
Q 2256 1581 1919 1581 
Q 1219 1581 811 2004 
Q 403 2428 403 3163 
Q 403 3881 828 4315 
Q 1253 4750 1959 4750 
Q 2769 4750 3195 4129 
Q 3622 3509 3622 2328 
Q 3622 1225 3098 567 
Q 2575 -91 1691 -91 
Q 1453 -91 1209 -44 
Q 966 3 703 97 
z
M 1959 2075 
Q 2384 2075 2632 2365 
Q 2881 2656 2881 3163 
Q 2881 3666 2632 3958 
Q 2384 4250 1959 4250 
Q 1534 4250 1286 3958 
Q 1038 3666 1038 3163 
Q 1038 2656 1286 2365 
Q 1534 2075 1959 2075 
z
" transform="scale(0.015625)"/>
      </defs>
      <use xlink:href="#DejaVuSans-45"/>
      <use xlink:href="#DejaVuSans-63" x="63.183594"/>
      <use xlink:href="#DejaVuSans-20" x="118.164062"/>
      <use xlink:href="#DejaVuSans-3d" x="149.951172"/>
      <use xlink:href="#DejaVuSans-20" x="233.740234"/>
      <use xlink:href="#DejaVuSans-30" x="265.527344"/>
      <use xlink:href="#DejaVuSans-2e" x="329.150391"/>
      <use xlink:href="#DejaVuSans-39" x="360.9375"/>
     </g>
    </g>
    <g id="line2d_45">
     <path d="M 212.842614 79.450937 
L 212.842614 79.450937 
L 222.842614 79.450937 
L 222.842614 79.450937 
L 232.842614 79.450937 
" style="fill: none; stroke: #21918c; stroke-width: 1.5; stroke-linecap: square"/>
    </g>
    <g id="text_15">
     <!-- Ec = 0.8 -->
     <g transform="translate(240.842614 82.950937) scale(0.1 -0.1)">
      <defs>
       <path id="DejaVuSans-38" d="M 2034 2216 
Q 1584 2216 1326 1975 
Q 1069 1734 1069 1313 
Q 1069 891 1326 650 
Q 1584 409 2034 409 
Q 2484 409 2743 651 
Q 3003 894 3003 1313 
Q 3003 1734 2745 1975 
Q 2488 2216 2034 2216 
z
M 1403 2484 
Q 997 2584 770 2862 
Q 544 3141 544 3541 
Q 544 4100 942 4425 
Q 1341 4750 2034 4750 
Q 2731 4750 3128 4425 
Q 3525 4100 3525 3541 
Q 3525 3141 3298 2862 
Q 3072 2584 2669 2484 
Q 3125 2378 3379 2068 
Q 3634 1759 3634 1313 
Q 3634 634 3220 271 
Q 2806 -91 2034 -91 
Q 1263 -91 848 271 
Q 434 634 434 1313 
Q 434 1759 690 2068 
Q 947 2378 1403 2484 
z
M 1172 3481 
Q 1172 3119 1398 2916 
Q 1625 2713 2034 2713 
Q 2441 2713 2670 2916 
Q 2900 3119 2900 3481 
Q 2900 3844 2670 4047 
Q 2441 4250 2034 4250 
Q 1625 4250 1398 4047 
Q 1172 3844 1172 3481 
z
" transform="scale(0.015625)"/>
      </defs>
      <use xlink:href="#DejaVuSans-45"/>
      <use xlink:href="#DejaVuSans-63" x="63.183594"/>
      <use xlink:href="#DejaVuSans-20" x="118.164062"/>
      <use xlink:href="#DejaVuSans-3d" x="149.951172"/>
      <use xlink:href="#DejaVuSans-20" x="233.740234"/>
      <use xlink:href="#DejaVuSans-30" x="265.527344"/>
      <use xlink:href="#DejaVuSans-2e" x="329.150391"/>
      <use xlink:href="#DejaVuSans-38" x="360.9375"/>
     </g>
    </g>
    <g id="line2d_46">
     <path d="M 212.842614 94.129062 
L 212.842614 94.129062 
L 222.842614 94.129062 
L 222.842614 94.129062 
L 232.842614 94.129062 
" style="fill: none; stroke: #5ec962; stroke-width: 1.5; stroke-linecap: square"/>
    </g>
    <g id="text_16">
     <!-- Ec = 0.7 -->
     <g transform="translate(240.842614 97.629062) scale(0.1 -0.1)">
      <defs>
       <path id="DejaVuSans-37" d="M 525 4666 
L 3525 4666 
L 3525 4397 
L 1831 0 
L 1172 0 
L 2766 4134 
L 525 4134 
L 525 4666 
z
" transform="scale(0.015625)"/>
      </defs>
      <use xlink:href="#DejaVuSans-45"/>
      <use xlink:href="#DejaVuSans-63" x="63.183594"/>
      <use xlink:href="#DejaVuSans-20" x="118.164062"/>
      <use xlink:href="#DejaVuSans-3d" x="149.951172"/>
      <use xlink:href="#DejaVuSans-20" x="233.740234"/>
      <use xlink:href="#DejaVuSans-30" x="265.527344"/>
      <use xlink:href="#DejaVuSans-2e" x="329.150391"/>
      <use xlink:href="#DejaVuSans-37" x="360.9375"/>
     </g>
    </g>
    <g id="line2d_47">
     <path d="M 212.842614 108.807187 
L 212.842614 108.807187 
L 222.842614 108.807187 
L 222.842614 108.807187 
L 232.842614 108.807187 
" style="fill: none; stroke: #bf00bf; stroke-width: 1.5; stroke-linecap: square"/>
    </g>
    <g id="text_17">
     <!-- Straub 2010 -->
     <g transform="translate(240.842614 112.307187) scale(0.1 -0.1)">
      <defs>
       <path id="DejaVuSans-53" d="M 3425 4513 
L 3425 3897 
Q 3066 4069 2747 4153 
Q 2428 4238 2131 4238 
Q 1616 4238 1336 4038 
Q 1056 3838 1056 3469 
Q 1056 3159 1242 3001 
Q 1428 2844 1947 2747 
L 2328 2669 
Q 3034 2534 3370 2195 
Q 3706 1856 3706 1288 
Q 3706 609 3251 259 
Q 2797 -91 1919 -91 
Q 1588 -91 1214 -16 
Q 841 59 441 206 
L 441 856 
Q 825 641 1194 531 
Q 1563 422 1919 422 
Q 2459 422 2753 634 
Q 3047 847 3047 1241 
Q 3047 1584 2836 1778 
Q 2625 1972 2144 2069 
L 1759 2144 
Q 1053 2284 737 2584 
Q 422 2884 422 3419 
Q 422 4038 858 4394 
Q 1294 4750 2059 4750 
Q 2388 4750 2728 4690 
Q 3069 4631 3425 4513 
z
" transform="scale(0.015625)"/>
       <path id="DejaVuSans-62" d="M 3116 1747 
Q 3116 2381 2855 2742 
Q 2594 3103 2138 3103 
Q 1681 3103 1420 2742 
Q 1159 2381 1159 1747 
Q 1159 1113 1420 752 
Q 1681 391 2138 391 
Q 2594 391 2855 752 
Q 3116 1113 3116 1747 
z
M 1159 2969 
Q 1341 3281 1617 3432 
Q 1894 3584 2278 3584 
Q 2916 3584 3314 3078 
Q 3713 2572 3713 1747 
Q 3713 922 3314 415 
Q 2916 -91 2278 -91 
Q 1894 -91 1617 61 
Q 1341 213 1159 525 
L 1159 0 
L 581 0 
L 581 4863 
L 1159 4863 
L 1159 2969 
z
" transform="scale(0.015625)"/>
      </defs>
      <use xlink:href="#DejaVuSans-53"/>
      <use xlink:href="#DejaVuSans-74" x="63.476562"/>
      <use xlink:href="#DejaVuSans-72" x="102.685547"/>
      <use xlink:href="#DejaVuSans-61" x="143.798828"/>
      <use xlink:href="#DejaVuSans-75" x="205.078125"/>
      <use xlink:href="#DejaVuSans-62" x="268.457031"/>
      <use xlink:href="#DejaVuSans-20" x="331.933594"/>
      <use xlink:href="#DejaVuSans-32" x="363.720703"/>
      <use xlink:href="#DejaVuSans-30" x="427.34375"/>
      <use xlink:href="#DejaVuSans-31" x="490.966797"/>
      <use xlink:href="#DejaVuSans-30" x="554.589844"/>
     </g>
    </g>
   </g>
  </g>
  <g id="axes_2">
   <g id="patch_8">
    <path d="M 362.391761 244.078125 
L 616.028125 244.078125 
L 616.028125 22.318125 
L 362.391761 22.318125 
z
" style="fill: #ffffff"/>
   </g>
   <g id="matplotlib.axis_3">
    <g id="xtick_31">
     <g id="line2d_48">
      <g>
       <use xlink:href="#m6f0ea1f03a" x="404.748901" y="244.078125" style="stroke: #000000; stroke-width: 0.8"/>
      </g>
     </g>
     <g id="text_18">
      <!-- $\mathdefault{10^{1}}$ -->
      <g transform="translate(395.948901 258.676562) scale(0.1 -0.1)">
       <use xlink:href="#DejaVuSans-31" transform="translate(0 0.684375)"/>
       <use xlink:href="#DejaVuSans-30" transform="translate(63.623047 0.684375)"/>
       <use xlink:href="#DejaVuSans-31" transform="translate(128.203125 38.965625) scale(0.7)"/>
      </g>
     </g>
    </g>
    <g id="xtick_32">
     <g id="line2d_49">
      <g>
       <use xlink:href="#m6f0ea1f03a" x="482.218401" y="244.078125" style="stroke: #000000; stroke-width: 0.8"/>
      </g>
     </g>
     <g id="text_19">
      <!-- $\mathdefault{10^{2}}$ -->
      <g transform="translate(473.418401 258.676562) scale(0.1 -0.1)">
       <use xlink:href="#DejaVuSans-31" transform="translate(0 0.765625)"/>
       <use xlink:href="#DejaVuSans-30" transform="translate(63.623047 0.765625)"/>
       <use xlink:href="#DejaVuSans-32" transform="translate(128.203125 39.046875) scale(0.7)"/>
      </g>
     </g>
    </g>
    <g id="xtick_33">
     <g id="line2d_50">
      <g>
       <use xlink:href="#m6f0ea1f03a" x="559.687901" y="244.078125" style="stroke: #000000; stroke-width: 0.8"/>
      </g>
     </g>
     <g id="text_20">
      <!-- $\mathdefault{10^{3}}$ -->
      <g transform="translate(550.887901 258.676562) scale(0.1 -0.1)">
       <use xlink:href="#DejaVuSans-31" transform="translate(0 0.765625)"/>
       <use xlink:href="#DejaVuSans-30" transform="translate(63.623047 0.765625)"/>
       <use xlink:href="#DejaVuSans-33" transform="translate(128.203125 39.046875) scale(0.7)"/>
      </g>
     </g>
    </g>
    <g id="xtick_34">
     <g id="line2d_51">
      <g>
       <use xlink:href="#m0d6219eb84" x="364.241746" y="244.078125" style="stroke: #000000; stroke-width: 0.6"/>
      </g>
     </g>
    </g>
    <g id="xtick_35">
     <g id="line2d_52">
      <g>
       <use xlink:href="#m0d6219eb84" x="373.920687" y="244.078125" style="stroke: #000000; stroke-width: 0.6"/>
      </g>
     </g>
    </g>
    <g id="xtick_36">
     <g id="line2d_53">
      <g>
       <use xlink:href="#m0d6219eb84" x="381.428257" y="244.078125" style="stroke: #000000; stroke-width: 0.6"/>
      </g>
     </g>
    </g>
    <g id="xtick_37">
     <g id="line2d_54">
      <g>
       <use xlink:href="#m0d6219eb84" x="387.562389" y="244.078125" style="stroke: #000000; stroke-width: 0.6"/>
      </g>
     </g>
    </g>
    <g id="xtick_38">
     <g id="line2d_55">
      <g>
       <use xlink:href="#m0d6219eb84" x="392.748723" y="244.078125" style="stroke: #000000; stroke-width: 0.6"/>
      </g>
     </g>
    </g>
    <g id="xtick_39">
     <g id="line2d_56">
      <g>
       <use xlink:href="#m0d6219eb84" x="397.24133" y="244.078125" style="stroke: #000000; stroke-width: 0.6"/>
      </g>
     </g>
    </g>
    <g id="xtick_40">
     <g id="line2d_57">
      <g>
       <use xlink:href="#m0d6219eb84" x="401.204091" y="244.078125" style="stroke: #000000; stroke-width: 0.6"/>
      </g>
     </g>
    </g>
    <g id="xtick_41">
     <g id="line2d_58">
      <g>
       <use xlink:href="#m0d6219eb84" x="428.069544" y="244.078125" style="stroke: #000000; stroke-width: 0.6"/>
      </g>
     </g>
    </g>
    <g id="xtick_42">
     <g id="line2d_59">
      <g>
       <use xlink:href="#m0d6219eb84" x="441.711246" y="244.078125" style="stroke: #000000; stroke-width: 0.6"/>
      </g>
     </g>
    </g>
    <g id="xtick_43">
     <g id="line2d_60">
      <g>
       <use xlink:href="#m0d6219eb84" x="451.390187" y="244.078125" style="stroke: #000000; stroke-width: 0.6"/>
      </g>
     </g>
    </g>
    <g id="xtick_44">
     <g id="line2d_61">
      <g>
       <use xlink:href="#m0d6219eb84" x="458.897757" y="244.078125" style="stroke: #000000; stroke-width: 0.6"/>
      </g>
     </g>
    </g>
    <g id="xtick_45">
     <g id="line2d_62">
      <g>
       <use xlink:href="#m0d6219eb84" x="465.031889" y="244.078125" style="stroke: #000000; stroke-width: 0.6"/>
      </g>
     </g>
    </g>
    <g id="xtick_46">
     <g id="line2d_63">
      <g>
       <use xlink:href="#m0d6219eb84" x="470.218223" y="244.078125" style="stroke: #000000; stroke-width: 0.6"/>
      </g>
     </g>
    </g>
    <g id="xtick_47">
     <g id="line2d_64">
      <g>
       <use xlink:href="#m0d6219eb84" x="474.71083" y="244.078125" style="stroke: #000000; stroke-width: 0.6"/>
      </g>
     </g>
    </g>
    <g id="xtick_48">
     <g id="line2d_65">
      <g>
       <use xlink:href="#m0d6219eb84" x="478.673591" y="244.078125" style="stroke: #000000; stroke-width: 0.6"/>
      </g>
     </g>
    </g>
    <g id="xtick_49">
     <g id="line2d_66">
      <g>
       <use xlink:href="#m0d6219eb84" x="505.539044" y="244.078125" style="stroke: #000000; stroke-width: 0.6"/>
      </g>
     </g>
    </g>
    <g id="xtick_50">
     <g id="line2d_67">
      <g>
       <use xlink:href="#m0d6219eb84" x="519.180746" y="244.078125" style="stroke: #000000; stroke-width: 0.6"/>
      </g>
     </g>
    </g>
    <g id="xtick_51">
     <g id="line2d_68">
      <g>
       <use xlink:href="#m0d6219eb84" x="528.859687" y="244.078125" style="stroke: #000000; stroke-width: 0.6"/>
      </g>
     </g>
    </g>
    <g id="xtick_52">
     <g id="line2d_69">
      <g>
       <use xlink:href="#m0d6219eb84" x="536.367258" y="244.078125" style="stroke: #000000; stroke-width: 0.6"/>
      </g>
     </g>
    </g>
    <g id="xtick_53">
     <g id="line2d_70">
      <g>
       <use xlink:href="#m0d6219eb84" x="542.501389" y="244.078125" style="stroke: #000000; stroke-width: 0.6"/>
      </g>
     </g>
    </g>
    <g id="xtick_54">
     <g id="line2d_71">
      <g>
       <use xlink:href="#m0d6219eb84" x="547.687724" y="244.078125" style="stroke: #000000; stroke-width: 0.6"/>
      </g>
     </g>
    </g>
    <g id="xtick_55">
     <g id="line2d_72">
      <g>
       <use xlink:href="#m0d6219eb84" x="552.180331" y="244.078125" style="stroke: #000000; stroke-width: 0.6"/>
      </g>
     </g>
    </g>
    <g id="xtick_56">
     <g id="line2d_73">
      <g>
       <use xlink:href="#m0d6219eb84" x="556.143091" y="244.078125" style="stroke: #000000; stroke-width: 0.6"/>
      </g>
     </g>
    </g>
    <g id="xtick_57">
     <g id="line2d_74">
      <g>
       <use xlink:href="#m0d6219eb84" x="583.008544" y="244.078125" style="stroke: #000000; stroke-width: 0.6"/>
      </g>
     </g>
    </g>
    <g id="xtick_58">
     <g id="line2d_75">
      <g>
       <use xlink:href="#m0d6219eb84" x="596.650246" y="244.078125" style="stroke: #000000; stroke-width: 0.6"/>
      </g>
     </g>
    </g>
    <g id="xtick_59">
     <g id="line2d_76">
      <g>
       <use xlink:href="#m0d6219eb84" x="606.329188" y="244.078125" style="stroke: #000000; stroke-width: 0.6"/>
      </g>
     </g>
    </g>
    <g id="xtick_60">
     <g id="line2d_77">
      <g>
       <use xlink:href="#m0d6219eb84" x="613.836758" y="244.078125" style="stroke: #000000; stroke-width: 0.6"/>
      </g>
     </g>
    </g>
    <g id="text_21">
     <!-- particle radius (um) -->
     <g transform="translate(439.777131 272.354687) scale(0.1 -0.1)">
      <use xlink:href="#DejaVuSans-70"/>
      <use xlink:href="#DejaVuSans-61" x="63.476562"/>
      <use xlink:href="#DejaVuSans-72" x="124.755859"/>
      <use xlink:href="#DejaVuSans-74" x="165.869141"/>
      <use xlink:href="#DejaVuSans-69" x="205.078125"/>
      <use xlink:href="#DejaVuSans-63" x="232.861328"/>
      <use xlink:href="#DejaVuSans-6c" x="287.841797"/>
      <use xlink:href="#DejaVuSans-65" x="315.625"/>
      <use xlink:href="#DejaVuSans-20" x="377.148438"/>
      <use xlink:href="#DejaVuSans-72" x="408.935547"/>
      <use xlink:href="#DejaVuSans-61" x="450.048828"/>
      <use xlink:href="#DejaVuSans-64" x="511.328125"/>
      <use xlink:href="#DejaVuSans-69" x="574.804688"/>
      <use xlink:href="#DejaVuSans-75" x="602.587891"/>
      <use xlink:href="#DejaVuSans-73" x="665.966797"/>
      <use xlink:href="#DejaVuSans-20" x="718.066406"/>
      <use xlink:href="#DejaVuSans-28" x="749.853516"/>
      <use xlink:href="#DejaVuSans-75" x="788.867188"/>
      <use xlink:href="#DejaVuSans-6d" x="852.246094"/>
      <use xlink:href="#DejaVuSans-29" x="949.658203"/>
     </g>
    </g>
   </g>
   <g id="matplotlib.axis_4">
    <g id="ytick_6">
     <g id="line2d_78">
      <g>
       <use xlink:href="#m408c6b8894" x="362.391761" y="233.998125" style="stroke: #000000; stroke-width: 0.8"/>
      </g>
     </g>
    </g>
    <g id="ytick_7">
     <g id="line2d_79">
      <g>
       <use xlink:href="#m408c6b8894" x="362.391761" y="187.189137" style="stroke: #000000; stroke-width: 0.8"/>
      </g>
     </g>
    </g>
    <g id="ytick_8">
     <g id="line2d_80">
      <g>
       <use xlink:href="#m408c6b8894" x="362.391761" y="140.380149" style="stroke: #000000; stroke-width: 0.8"/>
      </g>
     </g>
    </g>
    <g id="ytick_9">
     <g id="line2d_81">
      <g>
       <use xlink:href="#m408c6b8894" x="362.391761" y="93.571161" style="stroke: #000000; stroke-width: 0.8"/>
      </g>
     </g>
    </g>
    <g id="ytick_10">
     <g id="line2d_82">
      <g>
       <use xlink:href="#m408c6b8894" x="362.391761" y="46.762173" style="stroke: #000000; stroke-width: 0.8"/>
      </g>
     </g>
    </g>
   </g>
   <g id="line2d_83">
    <path d="M 373.920687 233.995666 
L 373.920687 233.995959 
L 395.880545 233.898408 
L 395.880545 233.860035 
L 399.540522 233.811473 
L 399.540522 233.735863 
L 403.200498 233.639098 
L 403.200498 233.506936 
L 405.030486 233.506936 
L 405.030486 233.315914 
L 406.860474 233.315914 
L 406.860474 233.058295 
L 408.690463 233.058295 
L 408.690463 232.715111 
L 410.520451 232.715111 
L 410.520451 232.242881 
L 412.350439 232.242881 
L 412.350439 231.599507 
L 414.180427 231.599507 
L 414.180427 230.703238 
L 416.010415 230.703238 
L 416.010415 229.533232 
L 417.840404 229.533232 
L 417.840404 227.945004 
L 419.670392 227.945004 
L 419.670392 225.851145 
L 421.50038 225.851145 
L 421.50038 223.004106 
L 423.330368 223.004106 
L 423.330368 219.281451 
L 425.160356 219.281451 
L 425.160356 214.445386 
L 426.990345 214.445386 
L 426.990345 208.282903 
L 428.820333 208.282903 
L 428.820333 200.260627 
L 430.650321 200.260627 
L 430.650321 190.429183 
L 432.480309 190.429183 
L 432.480309 178.175667 
L 434.310297 178.175667 
L 434.310297 163.736378 
L 436.140286 163.736378 
L 436.140286 146.870771 
L 437.970274 146.870771 
L 437.970274 127.970515 
L 439.800262 127.970515 
L 439.800262 108.190004 
L 441.63025 108.190004 
L 441.63025 88.673892 
L 443.460238 88.673892 
L 443.460238 71.155912 
L 445.290227 71.155912 
L 445.290227 58.674651 
L 447.120215 58.674651 
L 447.120215 53.282747 
L 448.950203 53.282747 
L 448.950203 57.248991 
L 450.780191 57.248991 
L 450.780191 70.938607 
L 452.610179 70.938607 
L 452.610179 94.980711 
L 454.440168 94.980711 
L 454.440168 124.098442 
L 456.270156 124.098442 
L 456.270156 155.553566 
L 458.100144 155.553566 
L 458.100144 184.624265 
L 459.930132 184.624265 
L 459.930132 206.48854 
L 461.76012 206.48854 
L 461.76012 221.414936 
L 463.590108 221.414936 
L 463.590108 229.83673 
L 465.420097 229.83673 
L 465.420097 231.605597 
L 467.250085 231.605597 
L 467.250085 233.998125 
L 604.499199 233.998125 
L 604.499199 233.998125 
" clip-path="url(#pd38abf39ef)" style="fill: none; stroke-dasharray: 5.55,2.4; stroke-dashoffset: 0; stroke: #000000; stroke-width: 1.5"/>
   </g>
   <g id="line2d_84">
    <path d="M 373.920687 233.998125 
L 373.920687 233.998125 
L 520.319742 233.975313 
L 520.319742 233.831006 
L 523.979719 233.9034 
L 523.979719 233.687581 
L 525.809707 233.687581 
L 525.809707 233.820449 
L 527.639695 233.820449 
L 527.639695 233.514384 
L 533.12966 233.574092 
L 533.12966 233.384092 
L 534.959648 233.384092 
L 534.959648 233.70494 
L 536.789636 233.70494 
L 536.789636 233.2754 
L 538.619624 233.2754 
L 538.619624 232.445463 
L 540.449613 232.445463 
L 540.449613 232.836636 
L 542.279601 232.836636 
L 542.279601 232.044727 
L 544.109589 232.044727 
L 544.109589 230.330406 
L 545.939577 230.330406 
L 545.939577 229.725838 
L 547.769565 229.725838 
L 547.769565 227.700502 
L 549.599554 227.700502 
L 549.599554 229.59595 
L 553.25953 229.601494 
L 553.25953 220.91971 
L 555.089518 220.91971 
L 555.089518 219.299063 
L 556.919506 219.299063 
L 556.919506 221.74782 
L 558.749495 221.74782 
L 558.749495 215.863405 
L 560.579483 215.863405 
L 560.579483 200.387105 
L 562.409471 200.387105 
L 562.409471 181.288875 
L 564.239459 181.288875 
L 564.239459 203.646625 
L 566.069447 203.646625 
L 566.069447 167.382339 
L 567.899436 167.382339 
L 567.899436 161.560375 
L 569.729424 161.560375 
L 569.729424 168.910317 
L 571.559412 168.910317 
L 571.559412 144.526549 
L 573.3894 144.526549 
L 573.3894 107.790738 
L 575.219388 107.790738 
L 575.219388 122.889503 
L 577.049376 122.889503 
L 577.049376 122.359533 
L 578.879365 122.359533 
L 578.879365 65.823929 
L 580.709353 65.823929 
L 580.709353 84.082729 
L 582.539341 84.082729 
L 582.539341 106.643802 
L 584.369329 106.643802 
L 584.369329 32.398125 
L 586.199317 32.398125 
L 586.199317 125.35325 
L 588.029306 125.35325 
L 588.029306 85.475625 
L 589.859294 85.475625 
L 589.859294 154.328406 
L 591.689282 154.328406 
L 591.689282 91.452535 
L 593.51927 91.452535 
L 593.51927 179.450893 
L 595.349258 179.450893 
L 595.349258 212.665111 
L 597.179247 212.665111 
L 597.179247 233.998125 
L 604.499199 233.998125 
L 604.499199 233.998125 
" clip-path="url(#pd38abf39ef)" style="fill: none; stroke: #440154; stroke-width: 1.5; stroke-linecap: square"/>
   </g>
   <g id="line2d_85">
    <path d="M 373.920687 233.998125 
L 452.610179 233.957948 
L 452.610179 233.857238 
L 458.100144 233.798339 
L 458.100144 233.593825 
L 461.76012 233.523076 
L 461.76012 233.175948 
L 463.590108 233.175948 
L 463.590108 232.807554 
L 465.420097 232.807554 
L 465.420097 232.241693 
L 467.250085 232.241693 
L 467.250085 230.679894 
L 470.910061 230.625569 
L 470.910061 229.139411 
L 472.740049 229.139411 
L 472.740049 225.868412 
L 474.570038 225.868412 
L 474.570038 224.365183 
L 476.400026 224.365183 
L 476.400026 221.68424 
L 478.230014 221.68424 
L 478.230014 217.083029 
L 480.060002 217.083029 
L 480.060002 207.640446 
L 481.88999 207.640446 
L 481.88999 201.619247 
L 483.719979 201.619247 
L 483.719979 202.500876 
L 485.549967 202.500876 
L 485.549967 187.409956 
L 487.379955 187.409956 
L 487.379955 193.680121 
L 489.209943 193.680121 
L 489.209943 183.967146 
L 491.039931 183.967146 
L 491.039931 174.793452 
L 492.86992 174.793452 
L 492.86992 162.566317 
L 494.699908 162.566317 
L 494.699908 153.496115 
L 496.529896 153.496115 
L 496.529896 155.286729 
L 498.359884 155.286729 
L 498.359884 151.783363 
L 500.189872 151.783363 
L 500.189872 136.775836 
L 502.019861 136.775836 
L 502.019861 147.759401 
L 503.849849 147.759401 
L 503.849849 130.270378 
L 505.679837 130.270378 
L 505.679837 120.940356 
L 507.509825 120.940356 
L 507.509825 145.650434 
L 509.339813 145.650434 
L 509.339813 139.334781 
L 511.169802 139.334781 
L 511.169802 150.81639 
L 512.99979 150.81639 
L 512.99979 143.019022 
L 514.829778 143.019022 
L 514.829778 156.142333 
L 516.659766 156.142333 
L 516.659766 167.633072 
L 518.489754 167.633072 
L 518.489754 175.353113 
L 520.319742 175.353113 
L 520.319742 168.48 
L 522.149731 168.48 
L 522.149731 171.267618 
L 523.979719 171.267618 
L 523.979719 170.680952 
L 525.809707 170.680952 
L 525.809707 198.266187 
L 527.639695 198.266187 
L 527.639695 188.647728 
L 529.469683 188.647728 
L 529.469683 195.743332 
L 531.299672 195.743332 
L 531.299672 208.384927 
L 533.12966 208.384927 
L 533.12966 212.217212 
L 534.959648 212.217212 
L 534.959648 215.432421 
L 536.789636 215.432421 
L 536.789636 224.631958 
L 538.619624 224.631958 
L 538.619624 224.277121 
L 540.449613 224.277121 
L 540.449613 219.726164 
L 542.279601 219.726164 
L 542.279601 231.607249 
L 544.109589 231.607249 
L 544.109589 224.393801 
L 545.939577 224.393801 
L 545.939577 233.155661 
L 547.769565 233.155661 
L 547.769565 230.510616 
L 549.599554 230.510616 
L 549.599554 233.998125 
L 551.429542 233.998125 
L 551.429542 232.205699 
L 553.25953 232.205699 
L 553.25953 233.998125 
L 604.499199 233.998125 
L 604.499199 233.998125 
" clip-path="url(#pd38abf39ef)" style="fill: none; stroke: #3b528b; stroke-width: 1.5; stroke-linecap: square"/>
   </g>
   <g id="line2d_86">
    <path d="M 373.920687 233.998125 
L 394.050557 233.922284 
L 394.050557 233.379435 
L 395.880545 233.379435 
L 395.880545 233.921746 
L 397.710534 233.921746 
L 397.710534 233.416984 
L 399.540522 233.416984 
L 399.540522 232.239651 
L 401.37051 232.239651 
L 401.37051 229.970505 
L 403.200498 229.970505 
L 403.200498 229.635354 
L 405.030486 229.635354 
L 405.030486 225.598078 
L 406.860474 225.598078 
L 406.860474 220.501951 
L 408.690463 220.501951 
L 408.690463 213.688273 
L 410.520451 213.688273 
L 410.520451 200.51579 
L 412.350439 200.51579 
L 412.350439 194.47939 
L 414.180427 194.47939 
L 414.180427 182.80916 
L 416.010415 182.80916 
L 416.010415 172.719359 
L 417.840404 172.719359 
L 417.840404 154.124843 
L 419.670392 154.124843 
L 419.670392 143.178083 
L 421.50038 143.178083 
L 421.50038 130.374898 
L 423.330368 130.374898 
L 423.330368 123.672489 
L 425.160356 123.672489 
L 425.160356 125.557249 
L 426.990345 125.557249 
L 426.990345 117.318322 
L 428.820333 117.318322 
L 428.820333 121.939926 
L 430.650321 121.939926 
L 430.650321 118.697577 
L 432.480309 118.697577 
L 432.480309 113.070933 
L 434.310297 113.070933 
L 434.310297 131.330802 
L 436.140286 131.330802 
L 436.140286 132.695836 
L 437.970274 132.695836 
L 437.970274 133.263617 
L 439.800262 133.263617 
L 439.800262 147.1631 
L 441.63025 147.1631 
L 441.63025 162.09872 
L 443.460238 162.09872 
L 443.460238 164.122312 
L 445.290227 164.122312 
L 445.290227 178.20031 
L 447.120215 178.20031 
L 447.120215 180.23238 
L 448.950203 180.23238 
L 448.950203 197.636223 
L 450.780191 197.636223 
L 450.780191 188.831579 
L 452.610179 188.831579 
L 452.610179 207.558176 
L 454.440168 207.558176 
L 454.440168 212.674683 
L 456.270156 212.674683 
L 456.270156 219.428197 
L 458.100144 219.428197 
L 458.100144 212.198918 
L 459.930132 212.198918 
L 459.930132 224.737986 
L 461.76012 224.737986 
L 461.76012 216.260846 
L 463.590108 216.260846 
L 463.590108 229.276983 
L 465.420097 229.276983 
L 465.420097 231.170247 
L 467.250085 231.170247 
L 467.250085 230.683394 
L 469.080073 230.683394 
L 469.080073 232.960645 
L 470.910061 232.960645 
L 470.910061 233.309587 
L 472.740049 233.309587 
L 472.740049 232.854198 
L 474.570038 232.854198 
L 474.570038 231.806969 
L 476.400026 231.806969 
L 476.400026 233.885978 
L 478.230014 233.885978 
L 478.230014 233.998125 
L 480.060002 233.998125 
L 480.060002 231.268242 
L 481.88999 231.268242 
L 481.88999 233.998125 
L 604.499199 233.998125 
L 604.499199 233.998125 
" clip-path="url(#pd38abf39ef)" style="fill: none; stroke: #21918c; stroke-width: 1.5; stroke-linecap: square"/>
   </g>
   <g id="line2d_87">
    <path d="M 373.920687 233.599089 
L 373.920687 232.499251 
L 375.750675 232.499251 
L 375.750675 231.593561 
L 377.580663 231.593561 
L 377.580663 228.880958 
L 379.410652 228.880958 
L 379.410652 226.025998 
L 381.24064 226.025998 
L 381.24064 225.061332 
L 383.070628 225.061332 
L 383.070628 212.650439 
L 384.900616 212.650439 
L 384.900616 199.050444 
L 386.730604 199.050444 
L 386.730604 183.69392 
L 388.560593 183.69392 
L 388.560593 166.103006 
L 390.390581 166.103006 
L 390.390581 151.436014 
L 392.220569 151.436014 
L 392.220569 130.263931 
L 394.050557 130.263931 
L 394.050557 100.751454 
L 395.880545 100.751454 
L 395.880545 92.724727 
L 397.710534 92.724727 
L 397.710534 63.765151 
L 399.540522 63.765151 
L 399.540522 67.583006 
L 401.37051 67.583006 
L 401.37051 78.827205 
L 403.200498 78.827205 
L 403.200498 88.321284 
L 405.030486 88.321284 
L 405.030486 125.271664 
L 406.860474 125.271664 
L 406.860474 147.813333 
L 408.690463 147.813333 
L 408.690463 149.452636 
L 410.520451 149.452636 
L 410.520451 145.835081 
L 412.350439 145.835081 
L 412.350439 170.315387 
L 414.180427 170.315387 
L 414.180427 171.866458 
L 416.010415 171.866458 
L 416.010415 177.9943 
L 417.840404 177.9943 
L 417.840404 181.658824 
L 419.670392 181.658824 
L 419.670392 192.686113 
L 421.50038 192.686113 
L 421.50038 201.782306 
L 423.330368 201.782306 
L 423.330368 213.614787 
L 425.160356 213.614787 
L 425.160356 215.886536 
L 426.990345 215.886536 
L 426.990345 221.587519 
L 428.820333 221.587519 
L 428.820333 228.06245 
L 430.650321 228.06245 
L 430.650321 223.132338 
L 432.480309 223.132338 
L 432.480309 228.527362 
L 434.310297 228.527362 
L 434.310297 233.130069 
L 436.140286 233.130069 
L 436.140286 233.998125 
L 437.970274 233.998125 
L 437.970274 231.728992 
L 439.800262 231.728992 
L 439.800262 233.998125 
L 604.499199 233.998125 
L 604.499199 233.998125 
" clip-path="url(#pd38abf39ef)" style="fill: none; stroke: #5ec962; stroke-width: 1.5; stroke-linecap: square"/>
   </g>
   <g id="line2d_88">
    <path d="M 373.920687 233.998125 
L 487.379955 233.904652 
L 487.379955 233.254808 
L 489.209943 233.254808 
L 489.209943 231.560885 
L 492.86992 231.64042 
L 492.86992 226.653992 
L 494.699908 226.653992 
L 494.699908 222.83625 
L 496.529896 222.83625 
L 496.529896 213.883325 
L 498.359884 213.883325 
L 498.359884 205.563074 
L 500.189872 205.563074 
L 500.189872 190.862341 
L 502.019861 190.862341 
L 502.019861 163.580482 
L 503.849849 163.580482 
L 503.849849 143.52525 
L 505.679837 143.52525 
L 505.679837 115.288313 
L 507.509825 115.288313 
L 507.509825 92.277798 
L 509.339813 92.277798 
L 509.339813 76.116976 
L 511.169802 76.116976 
L 511.169802 93.807514 
L 512.99979 93.807514 
L 512.99979 84.196077 
L 514.829778 84.196077 
L 514.829778 100.649548 
L 516.659766 100.649548 
L 516.659766 121.395957 
L 518.489754 121.395957 
L 518.489754 109.404921 
L 520.319742 109.404921 
L 520.319742 110.639073 
L 522.149731 110.639073 
L 522.149731 134.85358 
L 523.979719 134.85358 
L 523.979719 146.698812 
L 525.809707 146.698812 
L 525.809707 149.61468 
L 527.639695 149.61468 
L 527.639695 154.209574 
L 529.469683 154.209574 
L 529.469683 171.936526 
L 531.299672 171.936526 
L 531.299672 186.528146 
L 533.12966 186.528146 
L 533.12966 199.979871 
L 534.959648 199.979871 
L 534.959648 205.930066 
L 536.789636 205.930066 
L 536.789636 213.724705 
L 538.619624 213.724705 
L 538.619624 220.483571 
L 540.449613 220.483571 
L 540.449613 228.154317 
L 542.279601 228.154317 
L 542.279601 225.597603 
L 544.109589 225.597603 
L 544.109589 232.021419 
L 545.939577 232.021419 
L 545.939577 233.718688 
L 547.769565 233.718688 
L 547.769565 233.998125 
L 604.499199 233.998125 
L 604.499199 233.998125 
" clip-path="url(#pd38abf39ef)" style="fill: none; stroke: #bf00bf; stroke-width: 1.5; stroke-linecap: square"/>
   </g>
   <g id="patch_9">
    <path d="M 362.391761 244.078125 
L 362.391761 22.318125 
" style="fill: none; stroke: #000000; stroke-width: 0.8; stroke-linejoin: miter; stroke-linecap: square"/>
   </g>
   <g id="patch_10">
    <path d="M 616.028125 244.078125 
L 616.028125 22.318125 
" style="fill: none; stroke: #000000; stroke-width: 0.8; stroke-linejoin: miter; stroke-linecap: square"/>
   </g>
   <g id="patch_11">
    <path d="M 362.391761 244.078125 
L 616.028125 244.078125 
" style="fill: none; stroke: #000000; stroke-width: 0.8; stroke-linejoin: miter; stroke-linecap: square"/>
   </g>
   <g id="patch_12">
    <path d="M 362.391761 22.318125 
L 616.028125 22.318125 
" style="fill: none; stroke: #000000; stroke-width: 0.8; stroke-linejoin: miter; stroke-linecap: square"/>
   </g>
   <g id="text_22">
    <!-- (b) t = 200sec -->
    <g transform="translate(446.049318 16.318125) scale(0.12 -0.12)">
     <use xlink:href="#DejaVuSans-28"/>
     <use xlink:href="#DejaVuSans-62" x="39.013672"/>
     <use xlink:href="#DejaVuSans-29" x="102.490234"/>
     <use xlink:href="#DejaVuSans-20" x="141.503906"/>
     <use xlink:href="#DejaVuSans-74" x="173.291016"/>
     <use xlink:href="#DejaVuSans-20" x="212.5"/>
     <use xlink:href="#DejaVuSans-3d" x="244.287109"/>
     <use xlink:href="#DejaVuSans-20" x="328.076172"/>
     <use xlink:href="#DejaVuSans-32" x="359.863281"/>
     <use xlink:href="#DejaVuSans-30" x="423.486328"/>
     <use xlink:href="#DejaVuSans-30" x="487.109375"/>
     <use xlink:href="#DejaVuSans-73" x="550.732422"/>
     <use xlink:href="#DejaVuSans-65" x="602.832031"/>
     <use xlink:href="#DejaVuSans-63" x="664.355469"/>
    </g>
   </g>
  </g>
 </g>
 <defs>
  <clipPath id="pf81fa85db8">
   <rect x="58.028125" y="22.318125" width="253.636364" height="221.76"/>
  </clipPath>
  <clipPath id="pd38abf39ef">
   <rect x="362.391761" y="22.318125" width="253.636364" height="221.76"/>
  </clipPath>
 </defs>
</svg>
