<?xml version="1.0" encoding="utf-8" standalone="no"?>
<!DOCTYPE svg PUBLIC "-//W3C//DTD SVG 1.1//EN"
  "http://www.w3.org/Graphics/SVG/1.1/DTD/svg11.dtd">
<svg xmlns:xlink="http://www.w3.org/1999/xlink" width="710.976625pt" height="278.35225pt" viewBox="0 0 710.976625 278.35225" xmlns="http://www.w3.org/2000/svg" version="1.1">
 <metadata>
  <rdf:RDF xmlns:dc="http://purl.org/dc/elements/1.1/" xmlns:cc="http://creativecommons.org/ns#" xmlns:rdf="http://www.w3.org/1999/02/22-rdf-syntax-ns#">
   <cc:Work>
    <dc:type rdf:resource="http://purl.org/dc/dcmitype/StillImage"/>
    <dc:date>2024-11-08T23:12:51.764382</dc:date>
    <dc:format>image/svg+xml</dc:format>
    <dc:creator>
     <cc:Agent>
      <dc:title>Matplotlib v3.9.2, https://matplotlib.org/</dc:title>
     </cc:Agent>
    </dc:creator>
   </cc:Work>
  </rdf:RDF>
 </metadata>
 <defs>
  <style type="text/css">*{stroke-linejoin: round; stroke-linecap: butt}</style>
 </defs>
 <g id="figure_1">
  <g id="patch_1">
   <path d="M 0 278.35225 
L 710.976625 278.35225 
L 710.976625 -0 
L 0 -0 
z
" style="fill: #ffffff"/>
  </g>
  <g id="axes_1">
   <g id="patch_2">
    <path d="M 51.665625 240.796 
L 362.109125 240.796 
L 362.109125 22.32 
L 51.665625 22.32 
z
" style="fill: #ffffff"/>
   </g>
   <g id="matplotlib.axis_1">
    <g id="xtick_1">
     <g id="line2d_1">
      <defs>
       <path id="md621687308" d="M 0 0 
L 0 3.5 
" style="stroke: #000000; stroke-width: 0.8"/>
      </defs>
      <g>
       <use xlink:href="#md621687308" x="65.776693" y="240.796" style="stroke: #000000; stroke-width: 0.8"/>
      </g>
     </g>
     <g id="text_1">
      <!-- $\mathdefault{10^{0}}$ -->
      <g transform="translate(56.976693 255.394438) scale(0.1 -0.1)">
       <defs>
        <path id="DejaVuSans-31" d="M 794 531 
L 1825 531 
L 1825 4091 
L 703 3866 
L 703 4441 
L 1819 4666 
L 2450 4666 
L 2450 531 
L 3481 531 
L 3481 0 
L 794 0 
L 794 531 
z
" transform="scale(0.015625)"/>
        <path id="DejaVuSans-30" d="M 2034 4250 
Q 1547 4250 1301 3770 
Q 1056 3291 1056 2328 
Q 1056 1369 1301 889 
Q 1547 409 2034 409 
Q 2525 409 2770 889 
Q 3016 1369 3016 2328 
Q 3016 3291 2770 3770 
Q 2525 4250 2034 4250 
z
M 2034 4750 
Q 2819 4750 3233 4129 
Q 3647 3509 3647 2328 
Q 3647 1150 3233 529 
Q 2819 -91 2034 -91 
Q 1250 -91 836 529 
Q 422 1150 422 2328 
Q 422 3509 836 4129 
Q 1250 4750 2034 4750 
z
" transform="scale(0.015625)"/>
       </defs>
       <use xlink:href="#DejaVuSans-31" transform="translate(0 0.765625)"/>
       <use xlink:href="#DejaVuSans-30" transform="translate(63.623047 0.765625)"/>
       <use xlink:href="#DejaVuSans-30" transform="translate(128.203125 39.046875) scale(0.7)"/>
      </g>
     </g>
    </g>
    <g id="xtick_2">
     <g id="line2d_2">
      <g>
       <use xlink:href="#md621687308" x="136.891997" y="240.796" style="stroke: #000000; stroke-width: 0.8"/>
      </g>
     </g>
     <g id="text_2">
      <!-- $\mathdefault{10^{1}}$ -->
      <g transform="translate(128.091997 255.394438) scale(0.1 -0.1)">
       <use xlink:href="#DejaVuSans-31" transform="translate(0 0.684375)"/>
       <use xlink:href="#DejaVuSans-30" transform="translate(63.623047 0.684375)"/>
       <use xlink:href="#DejaVuSans-31" transform="translate(128.203125 38.965625) scale(0.7)"/>
      </g>
     </g>
    </g>
    <g id="xtick_3">
     <g id="line2d_3">
      <g>
       <use xlink:href="#md621687308" x="208.007301" y="240.796" style="stroke: #000000; stroke-width: 0.8"/>
      </g>
     </g>
     <g id="text_3">
      <!-- $\mathdefault{10^{2}}$ -->
      <g transform="translate(199.207301 255.394438) scale(0.1 -0.1)">
       <defs>
        <path id="DejaVuSans-32" d="M 1228 531 
L 3431 531 
L 3431 0 
L 469 0 
L 469 531 
Q 828 903 1448 1529 
Q 2069 2156 2228 2338 
Q 2531 2678 2651 2914 
Q 2772 3150 2772 3378 
Q 2772 3750 2511 3984 
Q 2250 4219 1831 4219 
Q 1534 4219 1204 4116 
Q 875 4013 500 3803 
L 500 4441 
Q 881 4594 1212 4672 
Q 1544 4750 1819 4750 
Q 2544 4750 2975 4387 
Q 3406 4025 3406 3419 
Q 3406 3131 3298 2873 
Q 3191 2616 2906 2266 
Q 2828 2175 2409 1742 
Q 1991 1309 1228 531 
z
" transform="scale(0.015625)"/>
       </defs>
       <use xlink:href="#DejaVuSans-31" transform="translate(0 0.765625)"/>
       <use xlink:href="#DejaVuSans-30" transform="translate(63.623047 0.765625)"/>
       <use xlink:href="#DejaVuSans-32" transform="translate(128.203125 39.046875) scale(0.7)"/>
      </g>
     </g>
    </g>
    <g id="xtick_4">
     <g id="line2d_4">
      <g>
       <use xlink:href="#md621687308" x="279.122605" y="240.796" style="stroke: #000000; stroke-width: 0.8"/>
      </g>
     </g>
     <g id="text_4">
      <!-- $\mathdefault{10^{3}}$ -->
      <g transform="translate(270.322605 255.394438) scale(0.1 -0.1)">
       <defs>
        <path id="DejaVuSans-33" d="M 2597 2516 
Q 3050 2419 3304 2112 
Q 3559 1806 3559 1356 
Q 3559 666 3084 287 
Q 2609 -91 1734 -91 
Q 1441 -91 1130 -33 
Q 819 25 488 141 
L 488 750 
Q 750 597 1062 519 
Q 1375 441 1716 441 
Q 2309 441 2620 675 
Q 2931 909 2931 1356 
Q 2931 1769 2642 2001 
Q 2353 2234 1838 2234 
L 1294 2234 
L 1294 2753 
L 1863 2753 
Q 2328 2753 2575 2939 
Q 2822 3125 2822 3475 
Q 2822 3834 2567 4026 
Q 2313 4219 1838 4219 
Q 1578 4219 1281 4162 
Q 984 4106 628 3988 
L 628 4550 
Q 988 4650 1302 4700 
Q 1616 4750 1894 4750 
Q 2613 4750 3031 4423 
Q 3450 4097 3450 3541 
Q 3450 3153 3228 2886 
Q 3006 2619 2597 2516 
z
" transform="scale(0.015625)"/>
       </defs>
       <use xlink:href="#DejaVuSans-31" transform="translate(0 0.765625)"/>
       <use xlink:href="#DejaVuSans-30" transform="translate(63.623047 0.765625)"/>
       <use xlink:href="#DejaVuSans-33" transform="translate(128.203125 39.046875) scale(0.7)"/>
      </g>
     </g>
    </g>
    <g id="xtick_5">
     <g id="line2d_5">
      <g>
       <use xlink:href="#md621687308" x="350.237909" y="240.796" style="stroke: #000000; stroke-width: 0.8"/>
      </g>
     </g>
     <g id="text_5">
      <!-- $\mathdefault{10^{4}}$ -->
      <g transform="translate(341.437909 255.394438) scale(0.1 -0.1)">
       <defs>
        <path id="DejaVuSans-34" d="M 2419 4116 
L 825 1625 
L 2419 1625 
L 2419 4116 
z
M 2253 4666 
L 3047 4666 
L 3047 1625 
L 3713 1625 
L 3713 1100 
L 3047 1100 
L 3047 0 
L 2419 0 
L 2419 1100 
L 313 1100 
L 313 1709 
L 2253 4666 
z
" transform="scale(0.015625)"/>
       </defs>
       <use xlink:href="#DejaVuSans-31" transform="translate(0 0.684375)"/>
       <use xlink:href="#DejaVuSans-30" transform="translate(63.623047 0.684375)"/>
       <use xlink:href="#DejaVuSans-34" transform="translate(128.203125 38.965625) scale(0.7)"/>
      </g>
     </g>
    </g>
    <g id="xtick_6">
     <g id="line2d_6">
      <defs>
       <path id="m986f1d8adc" d="M 0 0 
L 0 2 
" style="stroke: #000000; stroke-width: 0.6"/>
      </defs>
      <g>
       <use xlink:href="#m986f1d8adc" x="54.760793" y="240.796" style="stroke: #000000; stroke-width: 0.6"/>
      </g>
     </g>
    </g>
    <g id="xtick_7">
     <g id="line2d_7">
      <g>
       <use xlink:href="#m986f1d8adc" x="58.884908" y="240.796" style="stroke: #000000; stroke-width: 0.6"/>
      </g>
     </g>
    </g>
    <g id="xtick_8">
     <g id="line2d_8">
      <g>
       <use xlink:href="#m986f1d8adc" x="62.522635" y="240.796" style="stroke: #000000; stroke-width: 0.6"/>
      </g>
     </g>
    </g>
    <g id="xtick_9">
     <g id="line2d_9">
      <g>
       <use xlink:href="#m986f1d8adc" x="87.184533" y="240.796" style="stroke: #000000; stroke-width: 0.6"/>
      </g>
     </g>
    </g>
    <g id="xtick_10">
     <g id="line2d_10">
      <g>
       <use xlink:href="#m986f1d8adc" x="99.707316" y="240.796" style="stroke: #000000; stroke-width: 0.6"/>
      </g>
     </g>
    </g>
    <g id="xtick_11">
     <g id="line2d_11">
      <g>
       <use xlink:href="#m986f1d8adc" x="108.592372" y="240.796" style="stroke: #000000; stroke-width: 0.6"/>
      </g>
     </g>
    </g>
    <g id="xtick_12">
     <g id="line2d_12">
      <g>
       <use xlink:href="#m986f1d8adc" x="115.484157" y="240.796" style="stroke: #000000; stroke-width: 0.6"/>
      </g>
     </g>
    </g>
    <g id="xtick_13">
     <g id="line2d_13">
      <g>
       <use xlink:href="#m986f1d8adc" x="121.115156" y="240.796" style="stroke: #000000; stroke-width: 0.6"/>
      </g>
     </g>
    </g>
    <g id="xtick_14">
     <g id="line2d_14">
      <g>
       <use xlink:href="#m986f1d8adc" x="125.876097" y="240.796" style="stroke: #000000; stroke-width: 0.6"/>
      </g>
     </g>
    </g>
    <g id="xtick_15">
     <g id="line2d_15">
      <g>
       <use xlink:href="#m986f1d8adc" x="130.000212" y="240.796" style="stroke: #000000; stroke-width: 0.6"/>
      </g>
     </g>
    </g>
    <g id="xtick_16">
     <g id="line2d_16">
      <g>
       <use xlink:href="#m986f1d8adc" x="133.637939" y="240.796" style="stroke: #000000; stroke-width: 0.6"/>
      </g>
     </g>
    </g>
    <g id="xtick_17">
     <g id="line2d_17">
      <g>
       <use xlink:href="#m986f1d8adc" x="158.299837" y="240.796" style="stroke: #000000; stroke-width: 0.6"/>
      </g>
     </g>
    </g>
    <g id="xtick_18">
     <g id="line2d_18">
      <g>
       <use xlink:href="#m986f1d8adc" x="170.82262" y="240.796" style="stroke: #000000; stroke-width: 0.6"/>
      </g>
     </g>
    </g>
    <g id="xtick_19">
     <g id="line2d_19">
      <g>
       <use xlink:href="#m986f1d8adc" x="179.707676" y="240.796" style="stroke: #000000; stroke-width: 0.6"/>
      </g>
     </g>
    </g>
    <g id="xtick_20">
     <g id="line2d_20">
      <g>
       <use xlink:href="#m986f1d8adc" x="186.599461" y="240.796" style="stroke: #000000; stroke-width: 0.6"/>
      </g>
     </g>
    </g>
    <g id="xtick_21">
     <g id="line2d_21">
      <g>
       <use xlink:href="#m986f1d8adc" x="192.23046" y="240.796" style="stroke: #000000; stroke-width: 0.6"/>
      </g>
     </g>
    </g>
    <g id="xtick_22">
     <g id="line2d_22">
      <g>
       <use xlink:href="#m986f1d8adc" x="196.991401" y="240.796" style="stroke: #000000; stroke-width: 0.6"/>
      </g>
     </g>
    </g>
    <g id="xtick_23">
     <g id="line2d_23">
      <g>
       <use xlink:href="#m986f1d8adc" x="201.115516" y="240.796" style="stroke: #000000; stroke-width: 0.6"/>
      </g>
     </g>
    </g>
    <g id="xtick_24">
     <g id="line2d_24">
      <g>
       <use xlink:href="#m986f1d8adc" x="204.753243" y="240.796" style="stroke: #000000; stroke-width: 0.6"/>
      </g>
     </g>
    </g>
    <g id="xtick_25">
     <g id="line2d_25">
      <g>
       <use xlink:href="#m986f1d8adc" x="229.415141" y="240.796" style="stroke: #000000; stroke-width: 0.6"/>
      </g>
     </g>
    </g>
    <g id="xtick_26">
     <g id="line2d_26">
      <g>
       <use xlink:href="#m986f1d8adc" x="241.937924" y="240.796" style="stroke: #000000; stroke-width: 0.6"/>
      </g>
     </g>
    </g>
    <g id="xtick_27">
     <g id="line2d_27">
      <g>
       <use xlink:href="#m986f1d8adc" x="250.82298" y="240.796" style="stroke: #000000; stroke-width: 0.6"/>
      </g>
     </g>
    </g>
    <g id="xtick_28">
     <g id="line2d_28">
      <g>
       <use xlink:href="#m986f1d8adc" x="257.714765" y="240.796" style="stroke: #000000; stroke-width: 0.6"/>
      </g>
     </g>
    </g>
    <g id="xtick_29">
     <g id="line2d_29">
      <g>
       <use xlink:href="#m986f1d8adc" x="263.345764" y="240.796" style="stroke: #000000; stroke-width: 0.6"/>
      </g>
     </g>
    </g>
    <g id="xtick_30">
     <g id="line2d_30">
      <g>
       <use xlink:href="#m986f1d8adc" x="268.106705" y="240.796" style="stroke: #000000; stroke-width: 0.6"/>
      </g>
     </g>
    </g>
    <g id="xtick_31">
     <g id="line2d_31">
      <g>
       <use xlink:href="#m986f1d8adc" x="272.23082" y="240.796" style="stroke: #000000; stroke-width: 0.6"/>
      </g>
     </g>
    </g>
    <g id="xtick_32">
     <g id="line2d_32">
      <g>
       <use xlink:href="#m986f1d8adc" x="275.868547" y="240.796" style="stroke: #000000; stroke-width: 0.6"/>
      </g>
     </g>
    </g>
    <g id="xtick_33">
     <g id="line2d_33">
      <g>
       <use xlink:href="#m986f1d8adc" x="300.530445" y="240.796" style="stroke: #000000; stroke-width: 0.6"/>
      </g>
     </g>
    </g>
    <g id="xtick_34">
     <g id="line2d_34">
      <g>
       <use xlink:href="#m986f1d8adc" x="313.053228" y="240.796" style="stroke: #000000; stroke-width: 0.6"/>
      </g>
     </g>
    </g>
    <g id="xtick_35">
     <g id="line2d_35">
      <g>
       <use xlink:href="#m986f1d8adc" x="321.938284" y="240.796" style="stroke: #000000; stroke-width: 0.6"/>
      </g>
     </g>
    </g>
    <g id="xtick_36">
     <g id="line2d_36">
      <g>
       <use xlink:href="#m986f1d8adc" x="328.830069" y="240.796" style="stroke: #000000; stroke-width: 0.6"/>
      </g>
     </g>
    </g>
    <g id="xtick_37">
     <g id="line2d_37">
      <g>
       <use xlink:href="#m986f1d8adc" x="334.461068" y="240.796" style="stroke: #000000; stroke-width: 0.6"/>
      </g>
     </g>
    </g>
    <g id="xtick_38">
     <g id="line2d_38">
      <g>
       <use xlink:href="#m986f1d8adc" x="339.222009" y="240.796" style="stroke: #000000; stroke-width: 0.6"/>
      </g>
     </g>
    </g>
    <g id="xtick_39">
     <g id="line2d_39">
      <g>
       <use xlink:href="#m986f1d8adc" x="343.346124" y="240.796" style="stroke: #000000; stroke-width: 0.6"/>
      </g>
     </g>
    </g>
    <g id="xtick_40">
     <g id="line2d_40">
      <g>
       <use xlink:href="#m986f1d8adc" x="346.983851" y="240.796" style="stroke: #000000; stroke-width: 0.6"/>
      </g>
     </g>
    </g>
    <g id="text_6">
     <!-- particle radius (um) -->
     <g transform="translate(157.454562 269.072563) scale(0.1 -0.1)">
      <defs>
       <path id="DejaVuSans-70" d="M 1159 525 
L 1159 -1331 
L 581 -1331 
L 581 3500 
L 1159 3500 
L 1159 2969 
Q 1341 3281 1617 3432 
Q 1894 3584 2278 3584 
Q 2916 3584 3314 3078 
Q 3713 2572 3713 1747 
Q 3713 922 3314 415 
Q 2916 -91 2278 -91 
Q 1894 -91 1617 61 
Q 1341 213 1159 525 
z
M 3116 1747 
Q 3116 2381 2855 2742 
Q 2594 3103 2138 3103 
Q 1681 3103 1420 2742 
Q 1159 2381 1159 1747 
Q 1159 1113 1420 752 
Q 1681 391 2138 391 
Q 2594 391 2855 752 
Q 3116 1113 3116 1747 
z
" transform="scale(0.015625)"/>
       <path id="DejaVuSans-61" d="M 2194 1759 
Q 1497 1759 1228 1600 
Q 959 1441 959 1056 
Q 959 750 1161 570 
Q 1363 391 1709 391 
Q 2188 391 2477 730 
Q 2766 1069 2766 1631 
L 2766 1759 
L 2194 1759 
z
M 3341 1997 
L 3341 0 
L 2766 0 
L 2766 531 
Q 2569 213 2275 61 
Q 1981 -91 1556 -91 
Q 1019 -91 701 211 
Q 384 513 384 1019 
Q 384 1609 779 1909 
Q 1175 2209 1959 2209 
L 2766 2209 
L 2766 2266 
Q 2766 2663 2505 2880 
Q 2244 3097 1772 3097 
Q 1472 3097 1187 3025 
Q 903 2953 641 2809 
L 641 3341 
Q 956 3463 1253 3523 
Q 1550 3584 1831 3584 
Q 2591 3584 2966 3190 
Q 3341 2797 3341 1997 
z
" transform="scale(0.015625)"/>
       <path id="DejaVuSans-72" d="M 2631 2963 
Q 2534 3019 2420 3045 
Q 2306 3072 2169 3072 
Q 1681 3072 1420 2755 
Q 1159 2438 1159 1844 
L 1159 0 
L 581 0 
L 581 3500 
L 1159 3500 
L 1159 2956 
Q 1341 3275 1631 3429 
Q 1922 3584 2338 3584 
Q 2397 3584 2469 3576 
Q 2541 3569 2628 3553 
L 2631 2963 
z
" transform="scale(0.015625)"/>
       <path id="DejaVuSans-74" d="M 1172 4494 
L 1172 3500 
L 2356 3500 
L 2356 3053 
L 1172 3053 
L 1172 1153 
Q 1172 725 1289 603 
Q 1406 481 1766 481 
L 2356 481 
L 2356 0 
L 1766 0 
Q 1100 0 847 248 
Q 594 497 594 1153 
L 594 3053 
L 172 3053 
L 172 3500 
L 594 3500 
L 594 4494 
L 1172 4494 
z
" transform="scale(0.015625)"/>
       <path id="DejaVuSans-69" d="M 603 3500 
L 1178 3500 
L 1178 0 
L 603 0 
L 603 3500 
z
M 603 4863 
L 1178 4863 
L 1178 4134 
L 603 4134 
L 603 4863 
z
" transform="scale(0.015625)"/>
       <path id="DejaVuSans-63" d="M 3122 3366 
L 3122 2828 
Q 2878 2963 2633 3030 
Q 2388 3097 2138 3097 
Q 1578 3097 1268 2742 
Q 959 2388 959 1747 
Q 959 1106 1268 751 
Q 1578 397 2138 397 
Q 2388 397 2633 464 
Q 2878 531 3122 666 
L 3122 134 
Q 2881 22 2623 -34 
Q 2366 -91 2075 -91 
Q 1284 -91 818 406 
Q 353 903 353 1747 
Q 353 2603 823 3093 
Q 1294 3584 2113 3584 
Q 2378 3584 2631 3529 
Q 2884 3475 3122 3366 
z
" transform="scale(0.015625)"/>
       <path id="DejaVuSans-6c" d="M 603 4863 
L 1178 4863 
L 1178 0 
L 603 0 
L 603 4863 
z
" transform="scale(0.015625)"/>
       <path id="DejaVuSans-65" d="M 3597 1894 
L 3597 1613 
L 953 1613 
Q 991 1019 1311 708 
Q 1631 397 2203 397 
Q 2534 397 2845 478 
Q 3156 559 3463 722 
L 3463 178 
Q 3153 47 2828 -22 
Q 2503 -91 2169 -91 
Q 1331 -91 842 396 
Q 353 884 353 1716 
Q 353 2575 817 3079 
Q 1281 3584 2069 3584 
Q 2775 3584 3186 3129 
Q 3597 2675 3597 1894 
z
M 3022 2063 
Q 3016 2534 2758 2815 
Q 2500 3097 2075 3097 
Q 1594 3097 1305 2825 
Q 1016 2553 972 2059 
L 3022 2063 
z
" transform="scale(0.015625)"/>
       <path id="DejaVuSans-20" transform="scale(0.015625)"/>
       <path id="DejaVuSans-64" d="M 2906 2969 
L 2906 4863 
L 3481 4863 
L 3481 0 
L 2906 0 
L 2906 525 
Q 2725 213 2448 61 
Q 2172 -91 1784 -91 
Q 1150 -91 751 415 
Q 353 922 353 1747 
Q 353 2572 751 3078 
Q 1150 3584 1784 3584 
Q 2172 3584 2448 3432 
Q 2725 3281 2906 2969 
z
M 947 1747 
Q 947 1113 1208 752 
Q 1469 391 1925 391 
Q 2381 391 2643 752 
Q 2906 1113 2906 1747 
Q 2906 2381 2643 2742 
Q 2381 3103 1925 3103 
Q 1469 3103 1208 2742 
Q 947 2381 947 1747 
z
" transform="scale(0.015625)"/>
       <path id="DejaVuSans-75" d="M 544 1381 
L 544 3500 
L 1119 3500 
L 1119 1403 
Q 1119 906 1312 657 
Q 1506 409 1894 409 
Q 2359 409 2629 706 
Q 2900 1003 2900 1516 
L 2900 3500 
L 3475 3500 
L 3475 0 
L 2900 0 
L 2900 538 
Q 2691 219 2414 64 
Q 2138 -91 1772 -91 
Q 1169 -91 856 284 
Q 544 659 544 1381 
z
M 1991 3584 
L 1991 3584 
z
" transform="scale(0.015625)"/>
       <path id="DejaVuSans-73" d="M 2834 3397 
L 2834 2853 
Q 2591 2978 2328 3040 
Q 2066 3103 1784 3103 
Q 1356 3103 1142 2972 
Q 928 2841 928 2578 
Q 928 2378 1081 2264 
Q 1234 2150 1697 2047 
L 1894 2003 
Q 2506 1872 2764 1633 
Q 3022 1394 3022 966 
Q 3022 478 2636 193 
Q 2250 -91 1575 -91 
Q 1294 -91 989 -36 
Q 684 19 347 128 
L 347 722 
Q 666 556 975 473 
Q 1284 391 1588 391 
Q 1994 391 2212 530 
Q 2431 669 2431 922 
Q 2431 1156 2273 1281 
Q 2116 1406 1581 1522 
L 1381 1569 
Q 847 1681 609 1914 
Q 372 2147 372 2553 
Q 372 3047 722 3315 
Q 1072 3584 1716 3584 
Q 2034 3584 2315 3537 
Q 2597 3491 2834 3397 
z
" transform="scale(0.015625)"/>
       <path id="DejaVuSans-28" d="M 1984 4856 
Q 1566 4138 1362 3434 
Q 1159 2731 1159 2009 
Q 1159 1288 1364 580 
Q 1569 -128 1984 -844 
L 1484 -844 
Q 1016 -109 783 600 
Q 550 1309 550 2009 
Q 550 2706 781 3412 
Q 1013 4119 1484 4856 
L 1984 4856 
z
" transform="scale(0.015625)"/>
       <path id="DejaVuSans-6d" d="M 3328 2828 
Q 3544 3216 3844 3400 
Q 4144 3584 4550 3584 
Q 5097 3584 5394 3201 
Q 5691 2819 5691 2113 
L 5691 0 
L 5113 0 
L 5113 2094 
Q 5113 2597 4934 2840 
Q 4756 3084 4391 3084 
Q 3944 3084 3684 2787 
Q 3425 2491 3425 1978 
L 3425 0 
L 2847 0 
L 2847 2094 
Q 2847 2600 2669 2842 
Q 2491 3084 2119 3084 
Q 1678 3084 1418 2786 
Q 1159 2488 1159 1978 
L 1159 0 
L 581 0 
L 581 3500 
L 1159 3500 
L 1159 2956 
Q 1356 3278 1631 3431 
Q 1906 3584 2284 3584 
Q 2666 3584 2933 3390 
Q 3200 3197 3328 2828 
z
" transform="scale(0.015625)"/>
       <path id="DejaVuSans-29" d="M 513 4856 
L 1013 4856 
Q 1481 4119 1714 3412 
Q 1947 2706 1947 2009 
Q 1947 1309 1714 600 
Q 1481 -109 1013 -844 
L 513 -844 
Q 928 -128 1133 580 
Q 1338 1288 1338 2009 
Q 1338 2731 1133 3434 
Q 928 4138 513 4856 
z
" transform="scale(0.015625)"/>
      </defs>
      <use xlink:href="#DejaVuSans-70"/>
      <use xlink:href="#DejaVuSans-61" x="63.476562"/>
      <use xlink:href="#DejaVuSans-72" x="124.755859"/>
      <use xlink:href="#DejaVuSans-74" x="165.869141"/>
      <use xlink:href="#DejaVuSans-69" x="205.078125"/>
      <use xlink:href="#DejaVuSans-63" x="232.861328"/>
      <use xlink:href="#DejaVuSans-6c" x="287.841797"/>
      <use xlink:href="#DejaVuSans-65" x="315.625"/>
      <use xlink:href="#DejaVuSans-20" x="377.148438"/>
      <use xlink:href="#DejaVuSans-72" x="408.935547"/>
      <use xlink:href="#DejaVuSans-61" x="450.048828"/>
      <use xlink:href="#DejaVuSans-64" x="511.328125"/>
      <use xlink:href="#DejaVuSans-69" x="574.804688"/>
      <use xlink:href="#DejaVuSans-75" x="602.587891"/>
      <use xlink:href="#DejaVuSans-73" x="665.966797"/>
      <use xlink:href="#DejaVuSans-20" x="718.066406"/>
      <use xlink:href="#DejaVuSans-28" x="749.853516"/>
      <use xlink:href="#DejaVuSans-75" x="788.867188"/>
      <use xlink:href="#DejaVuSans-6d" x="852.246094"/>
      <use xlink:href="#DejaVuSans-29" x="949.658203"/>
     </g>
    </g>
   </g>
   <g id="matplotlib.axis_2">
    <g id="ytick_1">
     <g id="line2d_41">
      <defs>
       <path id="m749a90b3a5" d="M 0 0 
L -3.5 0 
" style="stroke: #000000; stroke-width: 0.8"/>
      </defs>
      <g>
       <use xlink:href="#m749a90b3a5" x="51.665625" y="230.865273" style="stroke: #000000; stroke-width: 0.8"/>
      </g>
     </g>
     <g id="text_7">
      <!-- 0.00 -->
      <g transform="translate(22.4 234.664491) scale(0.1 -0.1)">
       <defs>
        <path id="DejaVuSans-2e" d="M 684 794 
L 1344 794 
L 1344 0 
L 684 0 
L 684 794 
z
" transform="scale(0.015625)"/>
       </defs>
       <use xlink:href="#DejaVuSans-30"/>
       <use xlink:href="#DejaVuSans-2e" x="63.623047"/>
       <use xlink:href="#DejaVuSans-30" x="95.410156"/>
       <use xlink:href="#DejaVuSans-30" x="159.033203"/>
      </g>
     </g>
    </g>
    <g id="ytick_2">
     <g id="line2d_42">
      <g>
       <use xlink:href="#m749a90b3a5" x="51.665625" y="188.394302" style="stroke: #000000; stroke-width: 0.8"/>
      </g>
     </g>
     <g id="text_8">
      <!-- 0.01 -->
      <g transform="translate(22.4 192.193521) scale(0.1 -0.1)">
       <use xlink:href="#DejaVuSans-30"/>
       <use xlink:href="#DejaVuSans-2e" x="63.623047"/>
       <use xlink:href="#DejaVuSans-30" x="95.410156"/>
       <use xlink:href="#DejaVuSans-31" x="159.033203"/>
      </g>
     </g>
    </g>
    <g id="ytick_3">
     <g id="line2d_43">
      <g>
       <use xlink:href="#m749a90b3a5" x="51.665625" y="145.923331" style="stroke: #000000; stroke-width: 0.8"/>
      </g>
     </g>
     <g id="text_9">
      <!-- 0.02 -->
      <g transform="translate(22.4 149.72255) scale(0.1 -0.1)">
       <use xlink:href="#DejaVuSans-30"/>
       <use xlink:href="#DejaVuSans-2e" x="63.623047"/>
       <use xlink:href="#DejaVuSans-30" x="95.410156"/>
       <use xlink:href="#DejaVuSans-32" x="159.033203"/>
      </g>
     </g>
    </g>
    <g id="ytick_4">
     <g id="line2d_44">
      <g>
       <use xlink:href="#m749a90b3a5" x="51.665625" y="103.45236" style="stroke: #000000; stroke-width: 0.8"/>
      </g>
     </g>
     <g id="text_10">
      <!-- 0.03 -->
      <g transform="translate(22.4 107.251579) scale(0.1 -0.1)">
       <use xlink:href="#DejaVuSans-30"/>
       <use xlink:href="#DejaVuSans-2e" x="63.623047"/>
       <use xlink:href="#DejaVuSans-30" x="95.410156"/>
       <use xlink:href="#DejaVuSans-33" x="159.033203"/>
      </g>
     </g>
    </g>
    <g id="ytick_5">
     <g id="line2d_45">
      <g>
       <use xlink:href="#m749a90b3a5" x="51.665625" y="60.981389" style="stroke: #000000; stroke-width: 0.8"/>
      </g>
     </g>
     <g id="text_11">
      <!-- 0.04 -->
      <g transform="translate(22.4 64.780608) scale(0.1 -0.1)">
       <use xlink:href="#DejaVuSans-30"/>
       <use xlink:href="#DejaVuSans-2e" x="63.623047"/>
       <use xlink:href="#DejaVuSans-30" x="95.410156"/>
       <use xlink:href="#DejaVuSans-34" x="159.033203"/>
      </g>
     </g>
    </g>
    <g id="text_12">
     <!-- dm/dlnR (kg/m$^3$) -->
     <g transform="translate(16.3 173.058) rotate(-90) scale(0.1 -0.1)">
      <defs>
       <path id="DejaVuSans-2f" d="M 1625 4666 
L 2156 4666 
L 531 -594 
L 0 -594 
L 1625 4666 
z
" transform="scale(0.015625)"/>
       <path id="DejaVuSans-6e" d="M 3513 2113 
L 3513 0 
L 2938 0 
L 2938 2094 
Q 2938 2591 2744 2837 
Q 2550 3084 2163 3084 
Q 1697 3084 1428 2787 
Q 1159 2491 1159 1978 
L 1159 0 
L 581 0 
L 581 3500 
L 1159 3500 
L 1159 2956 
Q 1366 3272 1645 3428 
Q 1925 3584 2291 3584 
Q 2894 3584 3203 3211 
Q 3513 2838 3513 2113 
z
" transform="scale(0.015625)"/>
       <path id="DejaVuSans-52" d="M 2841 2188 
Q 3044 2119 3236 1894 
Q 3428 1669 3622 1275 
L 4263 0 
L 3584 0 
L 2988 1197 
Q 2756 1666 2539 1819 
Q 2322 1972 1947 1972 
L 1259 1972 
L 1259 0 
L 628 0 
L 628 4666 
L 2053 4666 
Q 2853 4666 3247 4331 
Q 3641 3997 3641 3322 
Q 3641 2881 3436 2590 
Q 3231 2300 2841 2188 
z
M 1259 4147 
L 1259 2491 
L 2053 2491 
Q 2509 2491 2742 2702 
Q 2975 2913 2975 3322 
Q 2975 3731 2742 3939 
Q 2509 4147 2053 4147 
L 1259 4147 
z
" transform="scale(0.015625)"/>
       <path id="DejaVuSans-6b" d="M 581 4863 
L 1159 4863 
L 1159 1991 
L 2875 3500 
L 3609 3500 
L 1753 1863 
L 3688 0 
L 2938 0 
L 1159 1709 
L 1159 0 
L 581 0 
L 581 4863 
z
" transform="scale(0.015625)"/>
       <path id="DejaVuSans-67" d="M 2906 1791 
Q 2906 2416 2648 2759 
Q 2391 3103 1925 3103 
Q 1463 3103 1205 2759 
Q 947 2416 947 1791 
Q 947 1169 1205 825 
Q 1463 481 1925 481 
Q 2391 481 2648 825 
Q 2906 1169 2906 1791 
z
M 3481 434 
Q 3481 -459 3084 -895 
Q 2688 -1331 1869 -1331 
Q 1566 -1331 1297 -1286 
Q 1028 -1241 775 -1147 
L 775 -588 
Q 1028 -725 1275 -790 
Q 1522 -856 1778 -856 
Q 2344 -856 2625 -561 
Q 2906 -266 2906 331 
L 2906 616 
Q 2728 306 2450 153 
Q 2172 0 1784 0 
Q 1141 0 747 490 
Q 353 981 353 1791 
Q 353 2603 747 3093 
Q 1141 3584 1784 3584 
Q 2172 3584 2450 3431 
Q 2728 3278 2906 2969 
L 2906 3500 
L 3481 3500 
L 3481 434 
z
" transform="scale(0.015625)"/>
      </defs>
      <use xlink:href="#DejaVuSans-64" transform="translate(0 0.765625)"/>
      <use xlink:href="#DejaVuSans-6d" transform="translate(63.476562 0.765625)"/>
      <use xlink:href="#DejaVuSans-2f" transform="translate(160.888672 0.765625)"/>
      <use xlink:href="#DejaVuSans-64" transform="translate(194.580078 0.765625)"/>
      <use xlink:href="#DejaVuSans-6c" transform="translate(258.056641 0.765625)"/>
      <use xlink:href="#DejaVuSans-6e" transform="translate(285.839844 0.765625)"/>
      <use xlink:href="#DejaVuSans-52" transform="translate(349.21875 0.765625)"/>
      <use xlink:href="#DejaVuSans-20" transform="translate(418.701172 0.765625)"/>
      <use xlink:href="#DejaVuSans-28" transform="translate(450.488281 0.765625)"/>
      <use xlink:href="#DejaVuSans-6b" transform="translate(489.501953 0.765625)"/>
      <use xlink:href="#DejaVuSans-67" transform="translate(547.412109 0.765625)"/>
      <use xlink:href="#DejaVuSans-2f" transform="translate(610.888672 0.765625)"/>
      <use xlink:href="#DejaVuSans-6d" transform="translate(644.580078 0.765625)"/>
      <use xlink:href="#DejaVuSans-33" transform="translate(742.949219 39.046875) scale(0.7)"/>
      <use xlink:href="#DejaVuSans-29" transform="translate(790.219727 0.765625)"/>
     </g>
    </g>
   </g>
   <g id="line2d_46">
    <path d="M 65.776693 230.865273 
L 132.972256 230.757448 
L 132.972256 230.702725 
L 137.45196 230.613717 
L 137.45196 230.482106 
L 139.691812 230.482106 
L 139.691812 230.279585 
L 141.931664 230.279585 
L 141.931664 229.973891 
L 144.171516 229.973891 
L 144.171516 229.511614 
L 146.411369 229.511614 
L 146.411369 228.824526 
L 148.651221 228.824526 
L 148.651221 227.805203 
L 150.891073 227.805203 
L 150.891073 226.31401 
L 153.130925 226.31401 
L 153.130925 224.159068 
L 155.370777 224.159068 
L 155.370777 221.075537 
L 157.610629 221.075537 
L 157.610629 216.797026 
L 159.850481 216.797026 
L 159.850481 210.98184 
L 162.090333 210.98184 
L 162.090333 203.367507 
L 164.330185 203.367507 
L 164.330185 193.829688 
L 166.570037 193.829688 
L 166.570037 182.706581 
L 168.809889 182.706581 
L 168.809889 170.690217 
L 171.049742 170.690217 
L 171.049742 159.344154 
L 173.289594 159.344154 
L 173.289594 151.46793 
L 175.529446 151.46793 
L 175.529446 148.922427 
L 177.769298 148.922427 
L 177.769298 154.60059 
L 180.00915 154.60059 
L 180.00915 168.107099 
L 182.249002 168.107099 
L 182.249002 186.104578 
L 184.488854 186.104578 
L 184.488854 204.162899 
L 186.728706 204.162899 
L 186.728706 218.43363 
L 188.968558 218.43363 
L 188.968558 227.056846 
L 191.20841 227.056846 
L 191.20841 229.322397 
L 193.448262 229.322397 
L 193.448262 230.865273 
L 347.998057 230.865273 
L 347.998057 230.865273 
" clip-path="url(#p63a097cfa4)" style="fill: none; stroke-dasharray: 5.55,2.4; stroke-dashoffset: 0; stroke: #000000; stroke-width: 1.5"/>
   </g>
   <g id="line2d_47">
    <path d="M 65.776693 230.865273 
L 211.367079 230.756695 
L 211.367079 230.731906 
L 220.326488 230.659587 
L 220.326488 230.586558 
L 222.56634 230.586558 
L 222.56634 230.322836 
L 229.285896 230.363848 
L 229.285896 230.434083 
L 231.525748 230.434083 
L 231.525748 230.030486 
L 233.7656 230.030486 
L 233.7656 229.681424 
L 236.005452 229.681424 
L 236.005452 229.233781 
L 240.485156 229.253538 
L 240.485156 228.720265 
L 242.725008 228.720265 
L 242.725008 228.233788 
L 244.964861 228.233788 
L 244.964861 227.44323 
L 247.204713 227.44323 
L 247.204713 225.935782 
L 249.444565 225.935782 
L 249.444565 224.744788 
L 251.684417 224.744788 
L 251.684417 223.680527 
L 253.924269 223.680527 
L 253.924269 222.828657 
L 256.164121 222.828657 
L 256.164121 220.587806 
L 258.403973 220.587806 
L 258.403973 217.858832 
L 260.643825 217.858832 
L 260.643825 213.680325 
L 262.883677 213.680325 
L 262.883677 209.599232 
L 265.123529 209.599232 
L 265.123529 209.310444 
L 267.363381 209.310444 
L 267.363381 201.081779 
L 269.603234 201.081779 
L 269.603234 196.52915 
L 271.843086 196.52915 
L 271.843086 190.245735 
L 274.082938 190.245735 
L 274.082938 190.453183 
L 276.32279 190.453183 
L 276.32279 178.722009 
L 278.562642 178.722009 
L 278.562642 168.621363 
L 280.802494 168.621363 
L 280.802494 180.341635 
L 283.042346 180.341635 
L 283.042346 175.482068 
L 285.282198 175.482068 
L 285.282198 181.706371 
L 287.52205 181.706371 
L 287.52205 184.279868 
L 289.761902 184.279868 
L 289.761902 195.000306 
L 292.001755 195.000306 
L 292.001755 197.846213 
L 294.241607 197.846213 
L 294.241607 209.561577 
L 296.481459 209.561577 
L 296.481459 223.770359 
L 298.721311 223.770359 
L 298.721311 222.256141 
L 300.961163 222.256141 
L 300.961163 230.865273 
L 305.440867 230.865273 
L 305.440867 226.796019 
L 307.680719 226.796019 
L 307.680719 230.865273 
L 347.998057 230.865273 
L 347.998057 230.865273 
" clip-path="url(#p63a097cfa4)" style="fill: none; stroke: #440154; stroke-width: 1.5; stroke-linecap: square"/>
   </g>
   <g id="line2d_48">
    <path d="M 65.776693 230.865273 
L 193.448262 230.799138 
L 193.448262 230.725478 
L 200.167819 230.651546 
L 200.167819 230.593753 
L 204.647523 230.514121 
L 204.647523 230.328747 
L 206.887375 230.328747 
L 206.887375 230.170876 
L 209.127227 230.170876 
L 209.127227 229.975543 
L 211.367079 229.975543 
L 211.367079 229.535334 
L 213.606931 229.535334 
L 213.606931 229.17449 
L 215.846783 229.17449 
L 215.846783 228.709893 
L 218.086635 228.709893 
L 218.086635 228.101507 
L 220.326488 228.101507 
L 220.326488 226.258947 
L 222.56634 226.258947 
L 222.56634 224.534415 
L 224.806192 224.534415 
L 224.806192 224.801553 
L 227.046044 224.801553 
L 227.046044 221.9881 
L 229.285896 221.9881 
L 229.285896 220.190379 
L 231.525748 220.190379 
L 231.525748 217.667646 
L 233.7656 217.667646 
L 233.7656 215.232556 
L 236.005452 215.232556 
L 236.005452 211.57656 
L 238.245304 211.57656 
L 238.245304 208.21569 
L 240.485156 208.21569 
L 240.485156 202.77135 
L 242.725008 202.77135 
L 242.725008 196.295429 
L 244.964861 196.295429 
L 244.964861 192.593265 
L 247.204713 192.593265 
L 247.204713 192.883694 
L 249.444565 192.883694 
L 249.444565 198.370293 
L 251.684417 198.370293 
L 251.684417 190.836773 
L 253.924269 190.836773 
L 253.924269 189.537181 
L 256.164121 189.537181 
L 256.164121 183.950152 
L 258.403973 183.950152 
L 258.403973 187.111007 
L 260.643825 187.111007 
L 260.643825 193.016071 
L 262.883677 193.016071 
L 262.883677 197.798826 
L 265.123529 197.798826 
L 265.123529 190.60781 
L 267.363381 190.60781 
L 267.363381 205.36288 
L 269.603234 205.36288 
L 269.603234 209.025486 
L 271.843086 209.025486 
L 271.843086 208.371748 
L 274.082938 208.371748 
L 274.082938 211.624846 
L 276.32279 211.624846 
L 276.32279 216.214032 
L 278.562642 216.214032 
L 278.562642 225.075864 
L 280.802494 225.075864 
L 280.802494 225.89678 
L 283.042346 225.89678 
L 283.042346 224.282611 
L 285.282198 224.282611 
L 285.282198 230.187398 
L 287.52205 230.187398 
L 287.52205 230.865273 
L 289.761902 230.865273 
L 289.761902 228.002274 
L 292.001755 228.002274 
L 292.001755 230.865273 
L 347.998057 230.865273 
L 347.998057 230.865273 
" clip-path="url(#p63a097cfa4)" style="fill: none; stroke: #3b528b; stroke-width: 1.5; stroke-linecap: square"/>
   </g>
   <g id="line2d_49">
    <path d="M 65.776693 230.865273 
L 162.090333 230.784317 
L 162.090333 230.744982 
L 168.809889 230.726397 
L 168.809889 230.622054 
L 171.049742 230.622054 
L 171.049742 230.466328 
L 173.289594 230.466328 
L 173.289594 229.98009 
L 175.529446 229.98009 
L 175.529446 230.09872 
L 177.769298 230.09872 
L 177.769298 229.317067 
L 180.00915 229.317067 
L 180.00915 228.842886 
L 182.249002 228.842886 
L 182.249002 227.894018 
L 184.488854 227.894018 
L 184.488854 226.86382 
L 186.728706 226.86382 
L 186.728706 225.655609 
L 188.968558 225.655609 
L 188.968558 224.536294 
L 191.20841 224.536294 
L 191.20841 223.849198 
L 193.448262 223.849198 
L 193.448262 220.31161 
L 195.688115 220.31161 
L 195.688115 219.138091 
L 200.167819 219.042146 
L 200.167819 212.503316 
L 202.407671 212.503316 
L 202.407671 213.72611 
L 204.647523 213.72611 
L 204.647523 210.833363 
L 206.887375 210.833363 
L 206.887375 203.301171 
L 209.127227 203.301171 
L 209.127227 203.637756 
L 211.367079 203.637756 
L 211.367079 196.0066 
L 213.606931 196.0066 
L 213.606931 200.627908 
L 215.846783 200.627908 
L 215.846783 199.411962 
L 220.326488 199.474744 
L 220.326488 197.962887 
L 222.56634 197.962887 
L 222.56634 202.407784 
L 224.806192 202.407784 
L 224.806192 194.164524 
L 227.046044 194.164524 
L 227.046044 198.232237 
L 229.285896 198.232237 
L 229.285896 203.378928 
L 231.525748 203.378928 
L 231.525748 195.376881 
L 233.7656 195.376881 
L 233.7656 205.857686 
L 236.005452 205.857686 
L 236.005452 204.982449 
L 238.245304 204.982449 
L 238.245304 211.816254 
L 240.485156 211.816254 
L 240.485156 206.195155 
L 242.725008 206.195155 
L 242.725008 212.907282 
L 244.964861 212.907282 
L 244.964861 217.434983 
L 247.204713 217.434983 
L 247.204713 219.425443 
L 249.444565 219.425443 
L 249.444565 217.342027 
L 251.684417 217.342027 
L 251.684417 222.273083 
L 253.924269 222.273083 
L 253.924269 218.419187 
L 256.164121 218.419187 
L 256.164121 225.207804 
L 258.403973 225.207804 
L 258.403973 224.591799 
L 260.643825 224.591799 
L 260.643825 227.663797 
L 262.883677 227.663797 
L 262.883677 228.580909 
L 265.123529 228.580909 
L 265.123529 227.016217 
L 267.363381 227.016217 
L 267.363381 228.688694 
L 269.603234 228.688694 
L 269.603234 230.059398 
L 271.843086 230.059398 
L 271.843086 230.865273 
L 274.082938 230.865273 
L 274.082938 227.418712 
L 276.32279 227.418712 
L 276.32279 230.579924 
L 278.562642 230.579924 
L 278.562642 230.865273 
L 347.998057 230.865273 
L 347.998057 230.865273 
" clip-path="url(#p63a097cfa4)" style="fill: none; stroke: #21918c; stroke-width: 1.5; stroke-linecap: square"/>
   </g>
   <g id="line2d_50">
    <path d="M 65.776693 230.865273 
L 101.614327 230.7954 
L 101.614327 230.381296 
L 106.094031 230.426456 
L 106.094031 230.645772 
L 110.573735 230.566017 
L 110.573735 229.831637 
L 112.813587 229.831637 
L 112.813587 230.090233 
L 115.053439 230.090233 
L 115.053439 229.444765 
L 117.293291 229.444765 
L 117.293291 228.086421 
L 119.533143 228.086421 
L 119.533143 228.203374 
L 121.772995 228.203374 
L 121.772995 225.899647 
L 126.2527 225.933873 
L 126.2527 226.258683 
L 128.492552 226.258683 
L 128.492552 224.449195 
L 130.732404 224.449195 
L 130.732404 221.23812 
L 132.972256 221.23812 
L 132.972256 219.294446 
L 135.212108 219.294446 
L 135.212108 218.306584 
L 137.45196 218.306584 
L 137.45196 215.382745 
L 139.691812 215.382745 
L 139.691812 216.168613 
L 141.931664 216.168613 
L 141.931664 217.51072 
L 144.171516 217.51072 
L 144.171516 208.132056 
L 146.411369 208.132056 
L 146.411369 208.765153 
L 148.651221 208.765153 
L 148.651221 210.473829 
L 150.891073 210.473829 
L 150.891073 205.271295 
L 153.130925 205.271295 
L 153.130925 209.425339 
L 155.370777 209.425339 
L 155.370777 210.336936 
L 157.610629 210.336936 
L 157.610629 203.162848 
L 159.850481 203.162848 
L 159.850481 206.089874 
L 162.090333 206.089874 
L 162.090333 203.519863 
L 164.330185 203.519863 
L 164.330185 211.051494 
L 166.570037 211.051494 
L 166.570037 200.599124 
L 168.809889 200.599124 
L 168.809889 210.697417 
L 171.049742 210.697417 
L 171.049742 207.345212 
L 173.289594 207.345212 
L 173.289594 205.199094 
L 175.529446 205.199094 
L 175.529446 203.329067 
L 177.769298 203.329067 
L 177.769298 210.295296 
L 180.00915 210.295296 
L 180.00915 209.025977 
L 182.249002 209.025977 
L 182.249002 210.549918 
L 184.488854 210.549918 
L 184.488854 218.827466 
L 186.728706 218.827466 
L 186.728706 213.707822 
L 188.968558 213.707822 
L 188.968558 215.14429 
L 191.20841 215.14429 
L 191.20841 219.733923 
L 193.448262 219.733923 
L 193.448262 221.018898 
L 195.688115 221.018898 
L 195.688115 219.52582 
L 197.927967 219.52582 
L 197.927967 220.711704 
L 200.167819 220.711704 
L 200.167819 222.53019 
L 202.407671 222.53019 
L 202.407671 220.834776 
L 204.647523 220.834776 
L 204.647523 226.717491 
L 206.887375 226.717491 
L 206.887375 220.985829 
L 209.127227 220.985829 
L 209.127227 226.72906 
L 211.367079 226.72906 
L 211.367079 225.15556 
L 213.606931 225.15556 
L 213.606931 224.718439 
L 215.846783 224.718439 
L 215.846783 228.280003 
L 218.086635 228.280003 
L 218.086635 228.022625 
L 220.326488 228.022625 
L 220.326488 228.24503 
L 222.56634 228.24503 
L 222.56634 226.520279 
L 224.806192 226.520279 
L 224.806192 230.456333 
L 227.046044 230.456333 
L 227.046044 229.690522 
L 229.285896 229.690522 
L 229.285896 229.097755 
L 231.525748 229.097755 
L 231.525748 230.822467 
L 233.7656 230.822467 
L 233.7656 227.989607 
L 236.005452 227.989607 
L 236.005452 229.063735 
L 238.245304 229.063735 
L 238.245304 227.645724 
L 240.485156 227.645724 
L 240.485156 229.85773 
L 242.725008 229.85773 
L 242.725008 230.865273 
L 244.964861 230.865273 
L 244.964861 227.885152 
L 247.204713 227.885152 
L 247.204713 230.160536 
L 249.444565 230.160536 
L 249.444565 230.865273 
L 253.924269 230.773102 
L 253.924269 227.780277 
L 256.164121 227.780277 
L 256.164121 230.865273 
L 347.998057 230.865273 
L 347.998057 230.865273 
" clip-path="url(#p63a097cfa4)" style="fill: none; stroke: #5ec962; stroke-width: 1.5; stroke-linecap: square"/>
   </g>
   <g id="patch_3">
    <path d="M 51.665625 240.796 
L 51.665625 22.32 
" style="fill: none; stroke: #000000; stroke-width: 0.8; stroke-linejoin: miter; stroke-linecap: square"/>
   </g>
   <g id="patch_4">
    <path d="M 362.109125 240.796 
L 362.109125 22.32 
" style="fill: none; stroke: #000000; stroke-width: 0.8; stroke-linejoin: miter; stroke-linecap: square"/>
   </g>
   <g id="patch_5">
    <path d="M 51.665625 240.796 
L 362.109125 240.796 
" style="fill: none; stroke: #000000; stroke-width: 0.8; stroke-linejoin: miter; stroke-linecap: square"/>
   </g>
   <g id="patch_6">
    <path d="M 51.665625 22.32 
L 362.109125 22.32 
" style="fill: none; stroke: #000000; stroke-width: 0.8; stroke-linejoin: miter; stroke-linecap: square"/>
   </g>
   <g id="text_13">
    <!-- (a) $P_f = \delta(v_f - v*)$ -->
    <g transform="translate(154.147375 16.32) scale(0.12 -0.12)">
     <defs>
      <path id="DejaVuSans-Oblique-50" d="M 1081 4666 
L 2541 4666 
Q 3178 4666 3512 4369 
Q 3847 4072 3847 3500 
Q 3847 2731 3353 2303 
Q 2859 1875 1966 1875 
L 1172 1875 
L 806 0 
L 172 0 
L 1081 4666 
z
M 1613 4147 
L 1275 2394 
L 2069 2394 
Q 2606 2394 2893 2669 
Q 3181 2944 3181 3456 
Q 3181 3784 2986 3965 
Q 2791 4147 2438 4147 
L 1613 4147 
z
" transform="scale(0.015625)"/>
      <path id="DejaVuSans-Oblique-66" d="M 3059 4863 
L 2969 4384 
L 2419 4384 
Q 2106 4384 1964 4261 
Q 1822 4138 1753 3809 
L 1691 3500 
L 2638 3500 
L 2553 3053 
L 1606 3053 
L 1013 0 
L 434 0 
L 1031 3053 
L 481 3053 
L 563 3500 
L 1113 3500 
L 1159 3744 
Q 1278 4363 1576 4613 
Q 1875 4863 2516 4863 
L 3059 4863 
z
" transform="scale(0.015625)"/>
      <path id="DejaVuSans-3d" d="M 678 2906 
L 4684 2906 
L 4684 2381 
L 678 2381 
L 678 2906 
z
M 678 1631 
L 4684 1631 
L 4684 1100 
L 678 1100 
L 678 1631 
z
" transform="scale(0.015625)"/>
      <path id="DejaVuSans-Oblique-3b4" d="M 3472 4053 
Q 3197 4272 2450 4272 
Q 1659 4272 1588 3906 
Q 1531 3619 2328 3469 
Q 2953 3353 3253 3003 
Q 3616 2581 3447 1716 
Q 3284 888 2763 400 
Q 2238 -91 1488 -91 
Q 741 -91 406 400 
Q 72 888 241 1747 
Q 363 2384 891 2900 
Q 1097 3100 1353 3213 
Q 913 3459 1000 3900 
Q 1166 4750 2544 4750 
Q 3234 4750 3566 4531 
L 3472 4053 
z
M 1753 3056 
Q 1525 2966 1306 2738 
Q 969 2384 847 1747 
Q 722 1113 919 756 
Q 1119 397 1584 397 
Q 2044 397 2381 759 
Q 2722 1122 2838 1716 
Q 2956 2338 2731 2638 
Q 2491 2959 2103 2994 
Q 1906 3013 1753 3056 
z
" transform="scale(0.015625)"/>
      <path id="DejaVuSans-Oblique-76" d="M 459 3500 
L 1069 3500 
L 1581 525 
L 3256 3500 
L 3866 3500 
L 1875 0 
L 1100 0 
L 459 3500 
z
" transform="scale(0.015625)"/>
      <path id="DejaVuSans-2212" d="M 678 2272 
L 4684 2272 
L 4684 1741 
L 678 1741 
L 678 2272 
z
" transform="scale(0.015625)"/>
      <path id="DejaVuSans-2a" d="M 3009 3897 
L 1888 3291 
L 3009 2681 
L 2828 2375 
L 1778 3009 
L 1778 1831 
L 1422 1831 
L 1422 3009 
L 372 2375 
L 191 2681 
L 1313 3291 
L 191 3897 
L 372 4206 
L 1422 3572 
L 1422 4750 
L 1778 4750 
L 1778 3572 
L 2828 4206 
L 3009 3897 
z
" transform="scale(0.015625)"/>
     </defs>
     <use xlink:href="#DejaVuSans-28" transform="translate(0 0.125)"/>
     <use xlink:href="#DejaVuSans-61" transform="translate(39.013672 0.125)"/>
     <use xlink:href="#DejaVuSans-29" transform="translate(100.292969 0.125)"/>
     <use xlink:href="#DejaVuSans-20" transform="translate(139.306641 0.125)"/>
     <use xlink:href="#DejaVuSans-Oblique-50" transform="translate(171.09375 0.125)"/>
     <use xlink:href="#DejaVuSans-Oblique-66" transform="translate(231.396484 -16.28125) scale(0.7)"/>
     <use xlink:href="#DejaVuSans-3d" transform="translate(278.256836 0.125)"/>
     <use xlink:href="#DejaVuSans-Oblique-3b4" transform="translate(381.52832 0.125)"/>
     <use xlink:href="#DejaVuSans-28" transform="translate(442.709961 0.125)"/>
     <use xlink:href="#DejaVuSans-Oblique-76" transform="translate(481.723633 0.125)"/>
     <use xlink:href="#DejaVuSans-Oblique-66" transform="translate(540.90332 -16.28125) scale(0.7)"/>
     <use xlink:href="#DejaVuSans-2212" transform="translate(587.763672 0.125)"/>
     <use xlink:href="#DejaVuSans-Oblique-76" transform="translate(691.035156 0.125)"/>
     <use xlink:href="#DejaVuSans-2a" transform="translate(769.697266 0.125)"/>
     <use xlink:href="#DejaVuSans-29" transform="translate(839.179688 0.125)"/>
    </g>
   </g>
   <g id="legend_1">
    <g id="patch_7">
     <path d="M 217.823187 104.823125 
L 355.109125 104.823125 
Q 357.109125 104.823125 357.109125 102.823125 
L 357.109125 29.32 
Q 357.109125 27.32 355.109125 27.32 
L 217.823187 27.32 
Q 215.823187 27.32 215.823187 29.32 
L 215.823187 102.823125 
Q 215.823187 104.823125 217.823187 104.823125 
z
" style="fill: #ffffff; opacity: 0.8; stroke: #cccccc; stroke-linejoin: miter"/>
    </g>
    <g id="line2d_51">
     <path d="M 219.823187 35.418438 
L 219.823187 35.418438 
L 229.823187 35.418438 
L 229.823187 35.418438 
L 239.823187 35.418438 
" style="fill: none; stroke-dasharray: 5.55,2.4; stroke-dashoffset: 0; stroke: #000000; stroke-width: 1.5"/>
    </g>
    <g id="text_14">
     <!-- initial -->
     <g transform="translate(247.823187 38.918438) scale(0.1 -0.1)">
      <use xlink:href="#DejaVuSans-69"/>
      <use xlink:href="#DejaVuSans-6e" x="27.783203"/>
      <use xlink:href="#DejaVuSans-69" x="91.162109"/>
      <use xlink:href="#DejaVuSans-74" x="118.945312"/>
      <use xlink:href="#DejaVuSans-69" x="158.154297"/>
      <use xlink:href="#DejaVuSans-61" x="185.9375"/>
      <use xlink:href="#DejaVuSans-6c" x="247.216797"/>
     </g>
    </g>
    <g id="line2d_52">
     <path d="M 219.823187 50.096563 
L 219.823187 50.096563 
L 229.823187 50.096563 
L 229.823187 50.096563 
L 239.823187 50.096563 
" style="fill: none; stroke: #440154; stroke-width: 1.5; stroke-linecap: square"/>
    </g>
    <g id="text_15">
     <!-- n_f = 1(coalescence) -->
     <g transform="translate(247.823187 53.596563) scale(0.1 -0.1)">
      <defs>
       <path id="DejaVuSans-5f" d="M 3263 -1063 
L 3263 -1509 
L -63 -1509 
L -63 -1063 
L 3263 -1063 
z
" transform="scale(0.015625)"/>
       <path id="DejaVuSans-66" d="M 2375 4863 
L 2375 4384 
L 1825 4384 
Q 1516 4384 1395 4259 
Q 1275 4134 1275 3809 
L 1275 3500 
L 2222 3500 
L 2222 3053 
L 1275 3053 
L 1275 0 
L 697 0 
L 697 3053 
L 147 3053 
L 147 3500 
L 697 3500 
L 697 3744 
Q 697 4328 969 4595 
Q 1241 4863 1831 4863 
L 2375 4863 
z
" transform="scale(0.015625)"/>
       <path id="DejaVuSans-6f" d="M 1959 3097 
Q 1497 3097 1228 2736 
Q 959 2375 959 1747 
Q 959 1119 1226 758 
Q 1494 397 1959 397 
Q 2419 397 2687 759 
Q 2956 1122 2956 1747 
Q 2956 2369 2687 2733 
Q 2419 3097 1959 3097 
z
M 1959 3584 
Q 2709 3584 3137 3096 
Q 3566 2609 3566 1747 
Q 3566 888 3137 398 
Q 2709 -91 1959 -91 
Q 1206 -91 779 398 
Q 353 888 353 1747 
Q 353 2609 779 3096 
Q 1206 3584 1959 3584 
z
" transform="scale(0.015625)"/>
      </defs>
      <use xlink:href="#DejaVuSans-6e"/>
      <use xlink:href="#DejaVuSans-5f" x="63.378906"/>
      <use xlink:href="#DejaVuSans-66" x="113.378906"/>
      <use xlink:href="#DejaVuSans-20" x="148.583984"/>
      <use xlink:href="#DejaVuSans-3d" x="180.371094"/>
      <use xlink:href="#DejaVuSans-20" x="264.160156"/>
      <use xlink:href="#DejaVuSans-31" x="295.947266"/>
      <use xlink:href="#DejaVuSans-28" x="359.570312"/>
      <use xlink:href="#DejaVuSans-63" x="398.583984"/>
      <use xlink:href="#DejaVuSans-6f" x="453.564453"/>
      <use xlink:href="#DejaVuSans-61" x="514.746094"/>
      <use xlink:href="#DejaVuSans-6c" x="576.025391"/>
      <use xlink:href="#DejaVuSans-65" x="603.808594"/>
      <use xlink:href="#DejaVuSans-73" x="665.332031"/>
      <use xlink:href="#DejaVuSans-63" x="717.431641"/>
      <use xlink:href="#DejaVuSans-65" x="772.412109"/>
      <use xlink:href="#DejaVuSans-6e" x="833.935547"/>
      <use xlink:href="#DejaVuSans-63" x="897.314453"/>
      <use xlink:href="#DejaVuSans-65" x="952.294922"/>
      <use xlink:href="#DejaVuSans-29" x="1013.818359"/>
     </g>
    </g>
    <g id="line2d_53">
     <path d="M 219.823187 65.052813 
L 219.823187 65.052813 
L 229.823187 65.052813 
L 229.823187 65.052813 
L 239.823187 65.052813 
" style="fill: none; stroke: #3b528b; stroke-width: 1.5; stroke-linecap: square"/>
    </g>
    <g id="text_16">
     <!-- n_f = 4 -->
     <g transform="translate(247.823187 68.552813) scale(0.1 -0.1)">
      <use xlink:href="#DejaVuSans-6e"/>
      <use xlink:href="#DejaVuSans-5f" x="63.378906"/>
      <use xlink:href="#DejaVuSans-66" x="113.378906"/>
      <use xlink:href="#DejaVuSans-20" x="148.583984"/>
      <use xlink:href="#DejaVuSans-3d" x="180.371094"/>
      <use xlink:href="#DejaVuSans-20" x="264.160156"/>
      <use xlink:href="#DejaVuSans-34" x="295.947266"/>
     </g>
    </g>
    <g id="line2d_54">
     <path d="M 219.823187 80.009063 
L 219.823187 80.009063 
L 229.823187 80.009063 
L 229.823187 80.009063 
L 239.823187 80.009063 
" style="fill: none; stroke: #21918c; stroke-width: 1.5; stroke-linecap: square"/>
    </g>
    <g id="text_17">
     <!-- n_f = 16 -->
     <g transform="translate(247.823187 83.509063) scale(0.1 -0.1)">
      <defs>
       <path id="DejaVuSans-36" d="M 2113 2584 
Q 1688 2584 1439 2293 
Q 1191 2003 1191 1497 
Q 1191 994 1439 701 
Q 1688 409 2113 409 
Q 2538 409 2786 701 
Q 3034 994 3034 1497 
Q 3034 2003 2786 2293 
Q 2538 2584 2113 2584 
z
M 3366 4563 
L 3366 3988 
Q 3128 4100 2886 4159 
Q 2644 4219 2406 4219 
Q 1781 4219 1451 3797 
Q 1122 3375 1075 2522 
Q 1259 2794 1537 2939 
Q 1816 3084 2150 3084 
Q 2853 3084 3261 2657 
Q 3669 2231 3669 1497 
Q 3669 778 3244 343 
Q 2819 -91 2113 -91 
Q 1303 -91 875 529 
Q 447 1150 447 2328 
Q 447 3434 972 4092 
Q 1497 4750 2381 4750 
Q 2619 4750 2861 4703 
Q 3103 4656 3366 4563 
z
" transform="scale(0.015625)"/>
      </defs>
      <use xlink:href="#DejaVuSans-6e"/>
      <use xlink:href="#DejaVuSans-5f" x="63.378906"/>
      <use xlink:href="#DejaVuSans-66" x="113.378906"/>
      <use xlink:href="#DejaVuSans-20" x="148.583984"/>
      <use xlink:href="#DejaVuSans-3d" x="180.371094"/>
      <use xlink:href="#DejaVuSans-20" x="264.160156"/>
      <use xlink:href="#DejaVuSans-31" x="295.947266"/>
      <use xlink:href="#DejaVuSans-36" x="359.570312"/>
     </g>
    </g>
    <g id="line2d_55">
     <path d="M 219.823187 94.965313 
L 219.823187 94.965313 
L 229.823187 94.965313 
L 229.823187 94.965313 
L 239.823187 94.965313 
" style="fill: none; stroke: #5ec962; stroke-width: 1.5; stroke-linecap: square"/>
    </g>
    <g id="text_18">
     <!-- n_f = 64 -->
     <g transform="translate(247.823187 98.465313) scale(0.1 -0.1)">
      <use xlink:href="#DejaVuSans-6e"/>
      <use xlink:href="#DejaVuSans-5f" x="63.378906"/>
      <use xlink:href="#DejaVuSans-66" x="113.378906"/>
      <use xlink:href="#DejaVuSans-20" x="148.583984"/>
      <use xlink:href="#DejaVuSans-3d" x="180.371094"/>
      <use xlink:href="#DejaVuSans-20" x="264.160156"/>
      <use xlink:href="#DejaVuSans-36" x="295.947266"/>
      <use xlink:href="#DejaVuSans-34" x="359.570312"/>
     </g>
    </g>
   </g>
  </g>
  <g id="axes_2">
   <g id="patch_8">
    <path d="M 393.333125 240.796 
L 703.776625 240.796 
L 703.776625 22.32 
L 393.333125 22.32 
z
" style="fill: #ffffff"/>
   </g>
   <g id="matplotlib.axis_3">
    <g id="xtick_41">
     <g id="line2d_56">
      <g>
       <use xlink:href="#md621687308" x="407.444193" y="240.796" style="stroke: #000000; stroke-width: 0.8"/>
      </g>
     </g>
     <g id="text_19">
      <!-- $\mathdefault{10^{0}}$ -->
      <g transform="translate(398.644193 255.394438) scale(0.1 -0.1)">
       <use xlink:href="#DejaVuSans-31" transform="translate(0 0.765625)"/>
       <use xlink:href="#DejaVuSans-30" transform="translate(63.623047 0.765625)"/>
       <use xlink:href="#DejaVuSans-30" transform="translate(128.203125 39.046875) scale(0.7)"/>
      </g>
     </g>
    </g>
    <g id="xtick_42">
     <g id="line2d_57">
      <g>
       <use xlink:href="#md621687308" x="484.347011" y="240.796" style="stroke: #000000; stroke-width: 0.8"/>
      </g>
     </g>
     <g id="text_20">
      <!-- $\mathdefault{10^{1}}$ -->
      <g transform="translate(475.547011 255.394438) scale(0.1 -0.1)">
       <use xlink:href="#DejaVuSans-31" transform="translate(0 0.684375)"/>
       <use xlink:href="#DejaVuSans-30" transform="translate(63.623047 0.684375)"/>
       <use xlink:href="#DejaVuSans-31" transform="translate(128.203125 38.965625) scale(0.7)"/>
      </g>
     </g>
    </g>
    <g id="xtick_43">
     <g id="line2d_58">
      <g>
       <use xlink:href="#md621687308" x="561.249828" y="240.796" style="stroke: #000000; stroke-width: 0.8"/>
      </g>
     </g>
     <g id="text_21">
      <!-- $\mathdefault{10^{2}}$ -->
      <g transform="translate(552.449828 255.394438) scale(0.1 -0.1)">
       <use xlink:href="#DejaVuSans-31" transform="translate(0 0.765625)"/>
       <use xlink:href="#DejaVuSans-30" transform="translate(63.623047 0.765625)"/>
       <use xlink:href="#DejaVuSans-32" transform="translate(128.203125 39.046875) scale(0.7)"/>
      </g>
     </g>
    </g>
    <g id="xtick_44">
     <g id="line2d_59">
      <g>
       <use xlink:href="#md621687308" x="638.152646" y="240.796" style="stroke: #000000; stroke-width: 0.8"/>
      </g>
     </g>
     <g id="text_22">
      <!-- $\mathdefault{10^{3}}$ -->
      <g transform="translate(629.352646 255.394438) scale(0.1 -0.1)">
       <use xlink:href="#DejaVuSans-31" transform="translate(0 0.765625)"/>
       <use xlink:href="#DejaVuSans-30" transform="translate(63.623047 0.765625)"/>
       <use xlink:href="#DejaVuSans-33" transform="translate(128.203125 39.046875) scale(0.7)"/>
      </g>
     </g>
    </g>
    <g id="xtick_45">
     <g id="line2d_60">
      <g>
       <use xlink:href="#m986f1d8adc" x="395.531796" y="240.796" style="stroke: #000000; stroke-width: 0.6"/>
      </g>
     </g>
    </g>
    <g id="xtick_46">
     <g id="line2d_61">
      <g>
       <use xlink:href="#m986f1d8adc" x="399.99154" y="240.796" style="stroke: #000000; stroke-width: 0.6"/>
      </g>
     </g>
    </g>
    <g id="xtick_47">
     <g id="line2d_62">
      <g>
       <use xlink:href="#m986f1d8adc" x="403.925313" y="240.796" style="stroke: #000000; stroke-width: 0.6"/>
      </g>
     </g>
    </g>
    <g id="xtick_48">
     <g id="line2d_63">
      <g>
       <use xlink:href="#m986f1d8adc" x="430.594248" y="240.796" style="stroke: #000000; stroke-width: 0.6"/>
      </g>
     </g>
    </g>
    <g id="xtick_49">
     <g id="line2d_64">
      <g>
       <use xlink:href="#m986f1d8adc" x="444.136162" y="240.796" style="stroke: #000000; stroke-width: 0.6"/>
      </g>
     </g>
    </g>
    <g id="xtick_50">
     <g id="line2d_65">
      <g>
       <use xlink:href="#m986f1d8adc" x="453.744303" y="240.796" style="stroke: #000000; stroke-width: 0.6"/>
      </g>
     </g>
    </g>
    <g id="xtick_51">
     <g id="line2d_66">
      <g>
       <use xlink:href="#m986f1d8adc" x="461.196956" y="240.796" style="stroke: #000000; stroke-width: 0.6"/>
      </g>
     </g>
    </g>
    <g id="xtick_52">
     <g id="line2d_67">
      <g>
       <use xlink:href="#m986f1d8adc" x="467.286217" y="240.796" style="stroke: #000000; stroke-width: 0.6"/>
      </g>
     </g>
    </g>
    <g id="xtick_53">
     <g id="line2d_68">
      <g>
       <use xlink:href="#m986f1d8adc" x="472.434614" y="240.796" style="stroke: #000000; stroke-width: 0.6"/>
      </g>
     </g>
    </g>
    <g id="xtick_54">
     <g id="line2d_69">
      <g>
       <use xlink:href="#m986f1d8adc" x="476.894358" y="240.796" style="stroke: #000000; stroke-width: 0.6"/>
      </g>
     </g>
    </g>
    <g id="xtick_55">
     <g id="line2d_70">
      <g>
       <use xlink:href="#m986f1d8adc" x="480.828131" y="240.796" style="stroke: #000000; stroke-width: 0.6"/>
      </g>
     </g>
    </g>
    <g id="xtick_56">
     <g id="line2d_71">
      <g>
       <use xlink:href="#m986f1d8adc" x="507.497066" y="240.796" style="stroke: #000000; stroke-width: 0.6"/>
      </g>
     </g>
    </g>
    <g id="xtick_57">
     <g id="line2d_72">
      <g>
       <use xlink:href="#m986f1d8adc" x="521.03898" y="240.796" style="stroke: #000000; stroke-width: 0.6"/>
      </g>
     </g>
    </g>
    <g id="xtick_58">
     <g id="line2d_73">
      <g>
       <use xlink:href="#m986f1d8adc" x="530.647121" y="240.796" style="stroke: #000000; stroke-width: 0.6"/>
      </g>
     </g>
    </g>
    <g id="xtick_59">
     <g id="line2d_74">
      <g>
       <use xlink:href="#m986f1d8adc" x="538.099774" y="240.796" style="stroke: #000000; stroke-width: 0.6"/>
      </g>
     </g>
    </g>
    <g id="xtick_60">
     <g id="line2d_75">
      <g>
       <use xlink:href="#m986f1d8adc" x="544.189035" y="240.796" style="stroke: #000000; stroke-width: 0.6"/>
      </g>
     </g>
    </g>
    <g id="xtick_61">
     <g id="line2d_76">
      <g>
       <use xlink:href="#m986f1d8adc" x="549.337431" y="240.796" style="stroke: #000000; stroke-width: 0.6"/>
      </g>
     </g>
    </g>
    <g id="xtick_62">
     <g id="line2d_77">
      <g>
       <use xlink:href="#m986f1d8adc" x="553.797175" y="240.796" style="stroke: #000000; stroke-width: 0.6"/>
      </g>
     </g>
    </g>
    <g id="xtick_63">
     <g id="line2d_78">
      <g>
       <use xlink:href="#m986f1d8adc" x="557.730949" y="240.796" style="stroke: #000000; stroke-width: 0.6"/>
      </g>
     </g>
    </g>
    <g id="xtick_64">
     <g id="line2d_79">
      <g>
       <use xlink:href="#m986f1d8adc" x="584.399883" y="240.796" style="stroke: #000000; stroke-width: 0.6"/>
      </g>
     </g>
    </g>
    <g id="xtick_65">
     <g id="line2d_80">
      <g>
       <use xlink:href="#m986f1d8adc" x="597.941797" y="240.796" style="stroke: #000000; stroke-width: 0.6"/>
      </g>
     </g>
    </g>
    <g id="xtick_66">
     <g id="line2d_81">
      <g>
       <use xlink:href="#m986f1d8adc" x="607.549938" y="240.796" style="stroke: #000000; stroke-width: 0.6"/>
      </g>
     </g>
    </g>
    <g id="xtick_67">
     <g id="line2d_82">
      <g>
       <use xlink:href="#m986f1d8adc" x="615.002591" y="240.796" style="stroke: #000000; stroke-width: 0.6"/>
      </g>
     </g>
    </g>
    <g id="xtick_68">
     <g id="line2d_83">
      <g>
       <use xlink:href="#m986f1d8adc" x="621.091852" y="240.796" style="stroke: #000000; stroke-width: 0.6"/>
      </g>
     </g>
    </g>
    <g id="xtick_69">
     <g id="line2d_84">
      <g>
       <use xlink:href="#m986f1d8adc" x="626.240249" y="240.796" style="stroke: #000000; stroke-width: 0.6"/>
      </g>
     </g>
    </g>
    <g id="xtick_70">
     <g id="line2d_85">
      <g>
       <use xlink:href="#m986f1d8adc" x="630.699993" y="240.796" style="stroke: #000000; stroke-width: 0.6"/>
      </g>
     </g>
    </g>
    <g id="xtick_71">
     <g id="line2d_86">
      <g>
       <use xlink:href="#m986f1d8adc" x="634.633766" y="240.796" style="stroke: #000000; stroke-width: 0.6"/>
      </g>
     </g>
    </g>
    <g id="xtick_72">
     <g id="line2d_87">
      <g>
       <use xlink:href="#m986f1d8adc" x="661.302701" y="240.796" style="stroke: #000000; stroke-width: 0.6"/>
      </g>
     </g>
    </g>
    <g id="xtick_73">
     <g id="line2d_88">
      <g>
       <use xlink:href="#m986f1d8adc" x="674.844615" y="240.796" style="stroke: #000000; stroke-width: 0.6"/>
      </g>
     </g>
    </g>
    <g id="xtick_74">
     <g id="line2d_89">
      <g>
       <use xlink:href="#m986f1d8adc" x="684.452756" y="240.796" style="stroke: #000000; stroke-width: 0.6"/>
      </g>
     </g>
    </g>
    <g id="xtick_75">
     <g id="line2d_90">
      <g>
       <use xlink:href="#m986f1d8adc" x="691.905409" y="240.796" style="stroke: #000000; stroke-width: 0.6"/>
      </g>
     </g>
    </g>
    <g id="xtick_76">
     <g id="line2d_91">
      <g>
       <use xlink:href="#m986f1d8adc" x="697.99467" y="240.796" style="stroke: #000000; stroke-width: 0.6"/>
      </g>
     </g>
    </g>
    <g id="xtick_77">
     <g id="line2d_92">
      <g>
       <use xlink:href="#m986f1d8adc" x="703.143067" y="240.796" style="stroke: #000000; stroke-width: 0.6"/>
      </g>
     </g>
    </g>
    <g id="text_23">
     <!-- particle radius (um) -->
     <g transform="translate(499.122063 269.072563) scale(0.1 -0.1)">
      <use xlink:href="#DejaVuSans-70"/>
      <use xlink:href="#DejaVuSans-61" x="63.476562"/>
      <use xlink:href="#DejaVuSans-72" x="124.755859"/>
      <use xlink:href="#DejaVuSans-74" x="165.869141"/>
      <use xlink:href="#DejaVuSans-69" x="205.078125"/>
      <use xlink:href="#DejaVuSans-63" x="232.861328"/>
      <use xlink:href="#DejaVuSans-6c" x="287.841797"/>
      <use xlink:href="#DejaVuSans-65" x="315.625"/>
      <use xlink:href="#DejaVuSans-20" x="377.148438"/>
      <use xlink:href="#DejaVuSans-72" x="408.935547"/>
      <use xlink:href="#DejaVuSans-61" x="450.048828"/>
      <use xlink:href="#DejaVuSans-64" x="511.328125"/>
      <use xlink:href="#DejaVuSans-69" x="574.804688"/>
      <use xlink:href="#DejaVuSans-75" x="602.587891"/>
      <use xlink:href="#DejaVuSans-73" x="665.966797"/>
      <use xlink:href="#DejaVuSans-20" x="718.066406"/>
      <use xlink:href="#DejaVuSans-28" x="749.853516"/>
      <use xlink:href="#DejaVuSans-75" x="788.867188"/>
      <use xlink:href="#DejaVuSans-6d" x="852.246094"/>
      <use xlink:href="#DejaVuSans-29" x="949.658203"/>
     </g>
    </g>
   </g>
   <g id="matplotlib.axis_4">
    <g id="ytick_6">
     <g id="line2d_93">
      <g>
       <use xlink:href="#m749a90b3a5" x="393.333125" y="230.865273" style="stroke: #000000; stroke-width: 0.8"/>
      </g>
     </g>
    </g>
    <g id="ytick_7">
     <g id="line2d_94">
      <g>
       <use xlink:href="#m749a90b3a5" x="393.333125" y="188.394302" style="stroke: #000000; stroke-width: 0.8"/>
      </g>
     </g>
    </g>
    <g id="ytick_8">
     <g id="line2d_95">
      <g>
       <use xlink:href="#m749a90b3a5" x="393.333125" y="145.923331" style="stroke: #000000; stroke-width: 0.8"/>
      </g>
     </g>
    </g>
    <g id="ytick_9">
     <g id="line2d_96">
      <g>
       <use xlink:href="#m749a90b3a5" x="393.333125" y="103.45236" style="stroke: #000000; stroke-width: 0.8"/>
      </g>
     </g>
    </g>
    <g id="ytick_10">
     <g id="line2d_97">
      <g>
       <use xlink:href="#m749a90b3a5" x="393.333125" y="60.981389" style="stroke: #000000; stroke-width: 0.8"/>
      </g>
     </g>
    </g>
    <g id="text_24">
     <!-- dm/dlnr (kg/m$^3$) -->
     <g transform="translate(383.733125 171.608) rotate(-90) scale(0.1 -0.1)">
      <use xlink:href="#DejaVuSans-64" transform="translate(0 0.765625)"/>
      <use xlink:href="#DejaVuSans-6d" transform="translate(63.476562 0.765625)"/>
      <use xlink:href="#DejaVuSans-2f" transform="translate(160.888672 0.765625)"/>
      <use xlink:href="#DejaVuSans-64" transform="translate(194.580078 0.765625)"/>
      <use xlink:href="#DejaVuSans-6c" transform="translate(258.056641 0.765625)"/>
      <use xlink:href="#DejaVuSans-6e" transform="translate(285.839844 0.765625)"/>
      <use xlink:href="#DejaVuSans-72" transform="translate(349.21875 0.765625)"/>
      <use xlink:href="#DejaVuSans-20" transform="translate(390.332031 0.765625)"/>
      <use xlink:href="#DejaVuSans-28" transform="translate(422.119141 0.765625)"/>
      <use xlink:href="#DejaVuSans-6b" transform="translate(461.132812 0.765625)"/>
      <use xlink:href="#DejaVuSans-67" transform="translate(519.042969 0.765625)"/>
      <use xlink:href="#DejaVuSans-2f" transform="translate(582.519531 0.765625)"/>
      <use xlink:href="#DejaVuSans-6d" transform="translate(616.210938 0.765625)"/>
      <use xlink:href="#DejaVuSans-33" transform="translate(714.580078 39.046875) scale(0.7)"/>
      <use xlink:href="#DejaVuSans-29" transform="translate(761.850586 0.765625)"/>
     </g>
    </g>
   </g>
   <g id="line2d_98">
    <path d="M 407.444193 230.865273 
L 479.11946 230.775967 
L 479.11946 230.733696 
L 483.599164 230.677907 
L 483.599164 230.570394 
L 485.839016 230.570394 
L 485.839016 230.421634 
L 488.078869 230.421634 
L 488.078869 230.221586 
L 490.318721 230.221586 
L 490.318721 229.959644 
L 492.558573 229.959644 
L 492.558573 229.463363 
L 494.798425 229.463363 
L 494.798425 228.879002 
L 497.038277 228.879002 
L 497.038277 228.00304 
L 499.278129 228.00304 
L 499.278129 226.701515 
L 501.517981 226.701515 
L 501.517981 224.785966 
L 503.757833 224.785966 
L 503.757833 222.212465 
L 505.997685 222.212465 
L 505.997685 218.805736 
L 508.237537 218.805736 
L 508.237537 214.013011 
L 510.477389 214.013011 
L 510.477389 208.05926 
L 512.717242 208.05926 
L 512.717242 200.308678 
L 514.957094 200.308678 
L 514.957094 190.76186 
L 517.196946 190.76186 
L 517.196946 180.51574 
L 519.436798 180.51574 
L 519.436798 169.382724 
L 521.67665 169.382724 
L 521.67665 158.749287 
L 523.916502 158.749287 
L 523.916502 151.293476 
L 526.156354 151.293476 
L 526.156354 148.578522 
L 528.396206 148.578522 
L 528.396206 154.219919 
L 530.636058 154.219919 
L 530.636058 164.199698 
L 532.87591 164.199698 
L 532.87591 179.371956 
L 535.115762 179.371956 
L 535.115762 197.867668 
L 537.355615 197.867668 
L 537.355615 210.668898 
L 539.595467 210.668898 
L 539.595467 226.059126 
L 541.835319 226.059126 
L 541.835319 225.25913 
L 544.075171 225.25913 
L 544.075171 230.865273 
L 689.665557 230.865273 
L 689.665557 230.865273 
" clip-path="url(#pfe905db00c)" style="fill: none; stroke-dasharray: 5.55,2.4; stroke-dashoffset: 0; stroke: #000000; stroke-width: 1.5"/>
   </g>
   <g id="line2d_99">
    <path d="M 407.444193 230.865273 
L 546.315023 230.861072 
L 546.315023 96.037073 
L 548.554875 96.037073 
L 548.554875 90.928989 
L 550.794727 90.928989 
L 550.794727 169.853607 
L 553.034579 169.853607 
L 553.034579 201.739153 
L 555.274431 201.739153 
L 555.274431 210.884725 
L 557.514283 210.884725 
L 557.514283 214.473438 
L 559.754135 214.473438 
L 559.754135 216.217942 
L 561.993988 216.217942 
L 561.993988 219.68188 
L 564.23384 219.68188 
L 564.23384 221.058222 
L 566.473692 221.058222 
L 566.473692 219.450946 
L 568.713544 219.450946 
L 568.713544 221.534809 
L 570.953396 221.534809 
L 570.953396 221.813446 
L 573.193248 221.813446 
L 573.193248 213.603025 
L 575.4331 213.603025 
L 575.4331 220.097251 
L 577.672952 220.097251 
L 577.672952 217.357481 
L 579.912804 217.357481 
L 579.912804 221.743009 
L 582.152656 221.743009 
L 582.152656 227.716535 
L 584.392508 227.716535 
L 584.392508 226.713841 
L 586.632361 226.713841 
L 586.632361 219.470173 
L 588.872213 219.470173 
L 588.872213 221.377843 
L 591.112065 221.377843 
L 591.112065 220.042882 
L 593.351917 220.042882 
L 593.351917 220.392703 
L 595.591769 220.392703 
L 595.591769 228.702889 
L 597.831621 228.702889 
L 597.831621 223.376498 
L 600.071473 223.376498 
L 600.071473 217.306452 
L 602.311325 217.306452 
L 602.311325 217.470679 
L 604.551177 217.470679 
L 604.551177 224.685704 
L 606.791029 224.685704 
L 606.791029 223.459703 
L 609.030881 223.459703 
L 609.030881 219.794516 
L 611.270734 219.794516 
L 611.270734 214.759881 
L 613.510586 214.759881 
L 613.510586 230.865273 
L 615.750438 230.865273 
L 615.750438 222.687468 
L 617.99029 222.687468 
L 617.99029 221.933274 
L 620.230142 221.933274 
L 620.230142 215.747457 
L 622.469994 215.747457 
L 622.469994 221.994628 
L 624.709846 221.994628 
L 624.709846 211.419278 
L 626.949698 211.419278 
L 626.949698 229.384265 
L 629.18955 229.384265 
L 629.18955 230.393613 
L 631.429402 230.393613 
L 631.429402 220.08934 
L 633.669255 220.08934 
L 633.669255 222.46229 
L 635.909107 222.46229 
L 635.909107 223.308084 
L 638.148959 223.308084 
L 638.148959 222.748472 
L 640.388811 222.748472 
L 640.388811 220.724359 
L 642.628663 220.724359 
L 642.628663 230.865273 
L 644.868515 230.865273 
L 644.868515 228.098277 
L 647.108367 228.098277 
L 647.108367 230.865273 
L 689.665557 230.865273 
L 689.665557 230.865273 
" clip-path="url(#pfe905db00c)" style="fill: none; stroke: #440154; stroke-width: 1.5; stroke-linecap: square"/>
   </g>
   <g id="line2d_100">
    <path d="M 407.444193 230.865273 
L 530.636058 230.860279 
L 530.636058 65.90088 
L 532.87591 65.90088 
L 532.87591 62.402781 
L 535.115762 62.402781 
L 535.115762 141.965551 
L 537.355615 141.965551 
L 537.355615 204.087643 
L 539.595467 204.087643 
L 539.595467 198.764682 
L 541.835319 198.764682 
L 541.835319 210.088493 
L 544.075171 210.088493 
L 544.075171 216.99224 
L 546.315023 216.99224 
L 546.315023 216.435755 
L 550.794727 216.478521 
L 550.794727 209.088838 
L 553.034579 209.088838 
L 553.034579 222.021255 
L 555.274431 222.021255 
L 555.274431 222.58994 
L 557.514283 222.58994 
L 557.514283 224.885803 
L 559.754135 224.885803 
L 559.754135 224.019392 
L 561.993988 224.019392 
L 561.993988 218.522832 
L 564.23384 218.522832 
L 564.23384 227.310658 
L 566.473692 227.310658 
L 566.473692 223.300925 
L 568.713544 223.300925 
L 568.713544 225.6787 
L 570.953396 225.6787 
L 570.953396 225.89405 
L 573.193248 225.89405 
L 573.193248 226.118139 
L 575.4331 226.118139 
L 575.4331 226.622022 
L 577.672952 226.622022 
L 577.672952 220.82857 
L 579.912804 220.82857 
L 579.912804 225.616188 
L 582.152656 225.616188 
L 582.152656 228.262495 
L 584.392508 228.262495 
L 584.392508 226.425794 
L 586.632361 226.425794 
L 586.632361 230.729155 
L 588.872213 230.729155 
L 588.872213 222.599737 
L 591.112065 222.599737 
L 591.112065 230.865273 
L 593.351917 230.865273 
L 593.351917 227.093216 
L 595.591769 227.093216 
L 595.591769 224.515717 
L 597.831621 224.515717 
L 597.831621 221.853617 
L 600.071473 221.853617 
L 600.071473 215.620369 
L 602.311325 215.620369 
L 602.311325 220.577436 
L 604.551177 220.577436 
L 604.551177 229.222104 
L 606.791029 229.222104 
L 606.791029 230.560913 
L 609.030881 230.560913 
L 609.030881 228.276233 
L 611.270734 228.276233 
L 611.270734 223.190003 
L 613.510586 223.190003 
L 613.510586 225.202067 
L 615.750438 225.202067 
L 615.750438 227.733404 
L 617.99029 227.733404 
L 617.99029 230.865273 
L 620.230142 230.865273 
L 620.230142 228.388214 
L 622.469994 228.388214 
L 622.469994 230.865273 
L 624.709846 230.865273 
L 624.709846 224.224594 
L 626.949698 224.224594 
L 626.949698 230.865273 
L 629.18955 230.865273 
L 629.18955 220.836965 
L 631.429402 220.836965 
L 631.429402 230.865273 
L 689.665557 230.865273 
L 689.665557 230.865273 
" clip-path="url(#pfe905db00c)" style="fill: none; stroke: #31688e; stroke-width: 1.5; stroke-linecap: square"/>
   </g>
   <g id="line2d_101">
    <path d="M 407.444193 230.865273 
L 514.957094 230.826995 
L 514.957094 137.803528 
L 517.196946 137.803528 
L 517.196946 32.250727 
L 519.436798 32.250727 
L 519.436798 160.886539 
L 521.67665 160.886539 
L 521.67665 175.242849 
L 523.916502 175.242849 
L 523.916502 207.695804 
L 526.156354 207.695804 
L 526.156354 202.361729 
L 528.396206 202.361729 
L 528.396206 213.137038 
L 530.636058 213.137038 
L 530.636058 219.179682 
L 532.87591 219.179682 
L 532.87591 212.111206 
L 535.115762 212.111206 
L 535.115762 212.576505 
L 537.355615 212.576505 
L 537.355615 209.746684 
L 539.595467 209.746684 
L 539.595467 218.402686 
L 541.835319 218.402686 
L 541.835319 214.64538 
L 544.075171 214.64538 
L 544.075171 221.548904 
L 546.315023 221.548904 
L 546.315023 211.975959 
L 548.554875 211.975959 
L 548.554875 221.255419 
L 550.794727 221.255419 
L 550.794727 222.96851 
L 555.274431 222.977537 
L 555.274431 216.62924 
L 557.514283 216.62924 
L 557.514283 225.306228 
L 559.754135 225.306228 
L 559.754135 214.169162 
L 561.993988 214.169162 
L 561.993988 228.62559 
L 564.23384 228.62559 
L 564.23384 227.568579 
L 566.473692 227.568579 
L 566.473692 226.283259 
L 568.713544 226.283259 
L 568.713544 225.079783 
L 570.953396 225.079783 
L 570.953396 220.602127 
L 573.193248 220.602127 
L 573.193248 220.8117 
L 575.4331 220.8117 
L 575.4331 230.865273 
L 577.672952 230.865273 
L 577.672952 229.02592 
L 579.912804 229.02592 
L 579.912804 222.665492 
L 582.152656 222.665492 
L 582.152656 230.865273 
L 593.351917 230.865273 
L 593.351917 227.08946 
L 595.591769 227.08946 
L 595.591769 221.071956 
L 597.831621 221.071956 
L 597.831621 230.865273 
L 600.071473 230.865273 
L 600.071473 222.816607 
L 602.311325 222.816607 
L 602.311325 230.851526 
L 604.551177 230.851526 
L 604.551177 227.494028 
L 606.791029 227.494028 
L 606.791029 230.865273 
L 615.750438 230.865273 
L 615.750438 226.680831 
L 617.99029 226.680831 
L 617.99029 227.067757 
L 620.230142 227.067757 
L 620.230142 230.865273 
L 689.665557 230.865273 
L 689.665557 230.865273 
" clip-path="url(#pfe905db00c)" style="fill: none; stroke: #35b779; stroke-width: 1.5; stroke-linecap: square"/>
   </g>
   <g id="patch_9">
    <path d="M 393.333125 240.796 
L 393.333125 22.32 
" style="fill: none; stroke: #000000; stroke-width: 0.8; stroke-linejoin: miter; stroke-linecap: square"/>
   </g>
   <g id="patch_10">
    <path d="M 703.776625 240.796 
L 703.776625 22.32 
" style="fill: none; stroke: #000000; stroke-width: 0.8; stroke-linejoin: miter; stroke-linecap: square"/>
   </g>
   <g id="patch_11">
    <path d="M 393.333125 240.796 
L 703.776625 240.796 
" style="fill: none; stroke: #000000; stroke-width: 0.8; stroke-linejoin: miter; stroke-linecap: square"/>
   </g>
   <g id="patch_12">
    <path d="M 393.333125 22.32 
L 703.776625 22.32 
" style="fill: none; stroke: #000000; stroke-width: 0.8; stroke-linejoin: miter; stroke-linecap: square"/>
   </g>
   <g id="text_25">
    <!-- (b) $P_f \approx \exp (v/\mu)$ -->
    <g transform="translate(500.374875 16.32) scale(0.12 -0.12)">
     <defs>
      <path id="DejaVuSans-62" d="M 3116 1747 
Q 3116 2381 2855 2742 
Q 2594 3103 2138 3103 
Q 1681 3103 1420 2742 
Q 1159 2381 1159 1747 
Q 1159 1113 1420 752 
Q 1681 391 2138 391 
Q 2594 391 2855 752 
Q 3116 1113 3116 1747 
z
M 1159 2969 
Q 1341 3281 1617 3432 
Q 1894 3584 2278 3584 
Q 2916 3584 3314 3078 
Q 3713 2572 3713 1747 
Q 3713 922 3314 415 
Q 2916 -91 2278 -91 
Q 1894 -91 1617 61 
Q 1341 213 1159 525 
L 1159 0 
L 581 0 
L 581 4863 
L 1159 4863 
L 1159 2969 
z
" transform="scale(0.015625)"/>
      <path id="DejaVuSans-2248" d="M 4684 1947 
L 4684 1388 
Q 4356 1144 4076 1036 
Q 3797 928 3494 928 
Q 3150 928 2694 1113 
Q 2663 1125 2641 1134 
Q 2622 1141 2575 1159 
Q 2091 1350 1797 1350 
Q 1522 1350 1253 1231 
Q 984 1113 678 850 
L 678 1409 
Q 1006 1653 1286 1761 
Q 1566 1869 1869 1869 
Q 2213 1869 2672 1684 
Q 2706 1669 2722 1663 
Q 2741 1656 2788 1638 
Q 3272 1447 3566 1447 
Q 3834 1447 4098 1564 
Q 4363 1681 4684 1947 
z
M 4684 3163 
L 4684 2606 
Q 4356 2359 4076 2251 
Q 3797 2144 3494 2144 
Q 3150 2144 2694 2328 
Q 2663 2341 2641 2350 
Q 2622 2356 2575 2375 
Q 2091 2566 1797 2566 
Q 1522 2566 1253 2447 
Q 984 2328 678 2069 
L 678 2625 
Q 1006 2869 1286 2976 
Q 1566 3084 1869 3084 
Q 2213 3084 2672 2900 
Q 2703 2888 2719 2881 
Q 2741 2872 2788 2853 
Q 3272 2663 3566 2663 
Q 3834 2663 4098 2780 
Q 4363 2897 4684 3163 
z
" transform="scale(0.015625)"/>
      <path id="DejaVuSans-78" d="M 3513 3500 
L 2247 1797 
L 3578 0 
L 2900 0 
L 1881 1375 
L 863 0 
L 184 0 
L 1544 1831 
L 300 3500 
L 978 3500 
L 1906 2253 
L 2834 3500 
L 3513 3500 
z
" transform="scale(0.015625)"/>
      <path id="DejaVuSans-Oblique-3bc" d="M -84 -1331 
L 856 3500 
L 1434 3500 
L 1009 1322 
Q 997 1256 987 1175 
Q 978 1094 978 1013 
Q 978 722 1161 565 
Q 1344 409 1684 409 
Q 2147 409 2431 671 
Q 2716 934 2816 1459 
L 3213 3500 
L 3788 3500 
L 3266 809 
Q 3253 750 3248 706 
Q 3244 663 3244 628 
Q 3244 531 3283 486 
Q 3322 441 3406 441 
Q 3438 441 3492 456 
Q 3547 472 3647 513 
L 3559 50 
Q 3422 -19 3297 -55 
Q 3172 -91 3053 -91 
Q 2847 -91 2730 40 
Q 2613 172 2613 403 
Q 2438 153 2195 31 
Q 1953 -91 1625 -91 
Q 1334 -91 1117 43 
Q 900 178 831 397 
L 494 -1331 
L -84 -1331 
z
" transform="scale(0.015625)"/>
     </defs>
     <use xlink:href="#DejaVuSans-28" transform="translate(0 0.015625)"/>
     <use xlink:href="#DejaVuSans-62" transform="translate(39.013672 0.015625)"/>
     <use xlink:href="#DejaVuSans-29" transform="translate(102.490234 0.015625)"/>
     <use xlink:href="#DejaVuSans-20" transform="translate(141.503906 0.015625)"/>
     <use xlink:href="#DejaVuSans-Oblique-50" transform="translate(173.291016 0.015625)"/>
     <use xlink:href="#DejaVuSans-Oblique-66" transform="translate(233.59375 -16.390625) scale(0.7)"/>
     <use xlink:href="#DejaVuSans-2248" transform="translate(280.454102 0.015625)"/>
     <use xlink:href="#DejaVuSans-65" transform="translate(383.725586 0.015625)"/>
     <use xlink:href="#DejaVuSans-78" transform="translate(445.249023 0.015625)"/>
     <use xlink:href="#DejaVuSans-70" transform="translate(504.428711 0.015625)"/>
     <use xlink:href="#DejaVuSans-28" transform="translate(567.905273 0.015625)"/>
     <use xlink:href="#DejaVuSans-Oblique-76" transform="translate(606.918945 0.015625)"/>
     <use xlink:href="#DejaVuSans-2f" transform="translate(666.098633 0.015625)"/>
     <use xlink:href="#DejaVuSans-Oblique-3bc" transform="translate(699.790039 0.015625)"/>
     <use xlink:href="#DejaVuSans-29" transform="translate(763.413086 0.015625)"/>
    </g>
   </g>
   <g id="legend_2">
    <g id="patch_13">
     <path d="M 571.476625 89.093438 
L 696.776625 89.093438 
Q 698.776625 89.093438 698.776625 87.093438 
L 698.776625 29.32 
Q 698.776625 27.32 696.776625 27.32 
L 571.476625 27.32 
Q 569.476625 27.32 569.476625 29.32 
L 569.476625 87.093438 
Q 569.476625 89.093438 571.476625 89.093438 
z
" style="fill: #ffffff; opacity: 0.8; stroke: #cccccc; stroke-linejoin: miter"/>
    </g>
    <g id="line2d_102">
     <path d="M 573.476625 35.418438 
L 573.476625 35.418438 
L 583.476625 35.418438 
L 583.476625 35.418438 
L 593.476625 35.418438 
" style="fill: none; stroke-dasharray: 5.55,2.4; stroke-dashoffset: 0; stroke: #000000; stroke-width: 1.5"/>
    </g>
    <g id="text_26">
     <!-- initial (mean = X$_0$) -->
     <g transform="translate(601.476625 38.918438) scale(0.1 -0.1)">
      <defs>
       <path id="DejaVuSans-58" d="M 403 4666 
L 1081 4666 
L 2241 2931 
L 3406 4666 
L 4084 4666 
L 2584 2425 
L 4184 0 
L 3506 0 
L 2194 1984 
L 872 0 
L 191 0 
L 1856 2491 
L 403 4666 
z
" transform="scale(0.015625)"/>
      </defs>
      <use xlink:href="#DejaVuSans-69" transform="translate(0 0.015625)"/>
      <use xlink:href="#DejaVuSans-6e" transform="translate(27.783203 0.015625)"/>
      <use xlink:href="#DejaVuSans-69" transform="translate(91.162109 0.015625)"/>
      <use xlink:href="#DejaVuSans-74" transform="translate(118.945312 0.015625)"/>
      <use xlink:href="#DejaVuSans-69" transform="translate(158.154297 0.015625)"/>
      <use xlink:href="#DejaVuSans-61" transform="translate(185.9375 0.015625)"/>
      <use xlink:href="#DejaVuSans-6c" transform="translate(247.216797 0.015625)"/>
      <use xlink:href="#DejaVuSans-20" transform="translate(275 0.015625)"/>
      <use xlink:href="#DejaVuSans-28" transform="translate(306.787109 0.015625)"/>
      <use xlink:href="#DejaVuSans-6d" transform="translate(345.800781 0.015625)"/>
      <use xlink:href="#DejaVuSans-65" transform="translate(443.212891 0.015625)"/>
      <use xlink:href="#DejaVuSans-61" transform="translate(504.736328 0.015625)"/>
      <use xlink:href="#DejaVuSans-6e" transform="translate(566.015625 0.015625)"/>
      <use xlink:href="#DejaVuSans-20" transform="translate(629.394531 0.015625)"/>
      <use xlink:href="#DejaVuSans-3d" transform="translate(661.181641 0.015625)"/>
      <use xlink:href="#DejaVuSans-20" transform="translate(744.970703 0.015625)"/>
      <use xlink:href="#DejaVuSans-58" transform="translate(776.757812 0.015625)"/>
      <use xlink:href="#DejaVuSans-30" transform="translate(846.220703 -16.390625) scale(0.7)"/>
      <use xlink:href="#DejaVuSans-29" transform="translate(893.491211 0.015625)"/>
     </g>
    </g>
    <g id="line2d_103">
     <path d="M 573.476625 50.096563 
L 573.476625 50.096563 
L 583.476625 50.096563 
L 583.476625 50.096563 
L 593.476625 50.096563 
" style="fill: none; stroke: #440154; stroke-width: 1.5; stroke-linecap: square"/>
    </g>
    <g id="text_27">
     <!-- $\mu$ = 4.0X$_0$ -->
     <g transform="translate(601.476625 53.596563) scale(0.1 -0.1)">
      <use xlink:href="#DejaVuSans-Oblique-3bc" transform="translate(0 0.78125)"/>
      <use xlink:href="#DejaVuSans-20" transform="translate(63.623047 0.78125)"/>
      <use xlink:href="#DejaVuSans-3d" transform="translate(95.410156 0.78125)"/>
      <use xlink:href="#DejaVuSans-20" transform="translate(179.199219 0.78125)"/>
      <use xlink:href="#DejaVuSans-34" transform="translate(210.986328 0.78125)"/>
      <use xlink:href="#DejaVuSans-2e" transform="translate(274.609375 0.78125)"/>
      <use xlink:href="#DejaVuSans-30" transform="translate(306.396484 0.78125)"/>
      <use xlink:href="#DejaVuSans-58" transform="translate(370.019531 0.78125)"/>
      <use xlink:href="#DejaVuSans-30" transform="translate(439.482422 -15.625) scale(0.7)"/>
     </g>
    </g>
    <g id="line2d_104">
     <path d="M 573.476625 64.795 
L 573.476625 64.795 
L 583.476625 64.795 
L 583.476625 64.795 
L 593.476625 64.795 
" style="fill: none; stroke: #31688e; stroke-width: 1.5; stroke-linecap: square"/>
    </g>
    <g id="text_28">
     <!-- $\mu$ = 1.0X$_0$ -->
     <g transform="translate(601.476625 68.295) scale(0.1 -0.1)">
      <use xlink:href="#DejaVuSans-Oblique-3bc" transform="translate(0 0.78125)"/>
      <use xlink:href="#DejaVuSans-20" transform="translate(63.623047 0.78125)"/>
      <use xlink:href="#DejaVuSans-3d" transform="translate(95.410156 0.78125)"/>
      <use xlink:href="#DejaVuSans-20" transform="translate(179.199219 0.78125)"/>
      <use xlink:href="#DejaVuSans-31" transform="translate(210.986328 0.78125)"/>
      <use xlink:href="#DejaVuSans-2e" transform="translate(274.609375 0.78125)"/>
      <use xlink:href="#DejaVuSans-30" transform="translate(306.396484 0.78125)"/>
      <use xlink:href="#DejaVuSans-58" transform="translate(370.019531 0.78125)"/>
      <use xlink:href="#DejaVuSans-30" transform="translate(439.482422 -15.625) scale(0.7)"/>
     </g>
    </g>
    <g id="line2d_105">
     <path d="M 573.476625 79.493438 
L 573.476625 79.493438 
L 583.476625 79.493438 
L 583.476625 79.493438 
L 593.476625 79.493438 
" style="fill: none; stroke: #35b779; stroke-width: 1.5; stroke-linecap: square"/>
    </g>
    <g id="text_29">
     <!-- $\mu$ = 0.25X$_0$ -->
     <g transform="translate(601.476625 82.993438) scale(0.1 -0.1)">
      <defs>
       <path id="DejaVuSans-35" d="M 691 4666 
L 3169 4666 
L 3169 4134 
L 1269 4134 
L 1269 2991 
Q 1406 3038 1543 3061 
Q 1681 3084 1819 3084 
Q 2600 3084 3056 2656 
Q 3513 2228 3513 1497 
Q 3513 744 3044 326 
Q 2575 -91 1722 -91 
Q 1428 -91 1123 -41 
Q 819 9 494 109 
L 494 744 
Q 775 591 1075 516 
Q 1375 441 1709 441 
Q 2250 441 2565 725 
Q 2881 1009 2881 1497 
Q 2881 1984 2565 2268 
Q 2250 2553 1709 2553 
Q 1456 2553 1204 2497 
Q 953 2441 691 2322 
L 691 4666 
z
" transform="scale(0.015625)"/>
      </defs>
      <use xlink:href="#DejaVuSans-Oblique-3bc" transform="translate(0 0.78125)"/>
      <use xlink:href="#DejaVuSans-20" transform="translate(63.623047 0.78125)"/>
      <use xlink:href="#DejaVuSans-3d" transform="translate(95.410156 0.78125)"/>
      <use xlink:href="#DejaVuSans-20" transform="translate(179.199219 0.78125)"/>
      <use xlink:href="#DejaVuSans-30" transform="translate(210.986328 0.78125)"/>
      <use xlink:href="#DejaVuSans-2e" transform="translate(274.609375 0.78125)"/>
      <use xlink:href="#DejaVuSans-32" transform="translate(300.896484 0.78125)"/>
      <use xlink:href="#DejaVuSans-35" transform="translate(364.519531 0.78125)"/>
      <use xlink:href="#DejaVuSans-58" transform="translate(423.642578 0.78125)"/>
      <use xlink:href="#DejaVuSans-30" transform="translate(493.105469 -15.625) scale(0.7)"/>
     </g>
    </g>
   </g>
  </g>
 </g>
 <defs>
  <clipPath id="p63a097cfa4">
   <rect x="51.665625" y="22.32" width="310.4435" height="218.476"/>
  </clipPath>
  <clipPath id="pfe905db00c">
   <rect x="393.333125" y="22.32" width="310.4435" height="218.476"/>
  </clipPath>
 </defs>
</svg>
